<svg xmlns="http://www.w3.org/2000/svg" viewBox="0 0 533.94 598.73"><defs><style>.cls-1{isolation:isolate;}.cls-17,.cls-2{fill:#212121;}.cls-3,.cls-4{fill:none;stroke-miterlimit:10;stroke-width:4px;}.cls-3{stroke:#424242;}.cls-4{stroke:#212121;}.cls-5{opacity:0.35;}.cls-6{fill:#bdbdbd;}.cls-11,.cls-7{opacity:0.3;}.cls-8{opacity:0.6;}.cls-9{fill:#b1b7ac;}.cls-10{fill:#444741;}.cls-10,.cls-26{opacity:0.5;}.cls-11,.cls-18,.cls-19{fill:#fff;}.cls-11{mix-blend-mode:soft-light;}.cls-12{fill:#e99;}.cls-12,.cls-13{opacity:0.7;}.cls-13{fill:#ffebee;}.cls-14{fill:#e53935;}.cls-15{fill:#ffca28;}.cls-16{fill:#757575;}.cls-17{opacity:0.2;}.cls-18{opacity:0.79;}.cls-20{fill:#424242;}.cls-21{fill:#f5f5f5;}.cls-22{fill:#eee;}.cls-23{fill:#a7afa3;}.cls-24{fill:#ffecb3;}.cls-25{fill:#3e2723;mix-blend-mode:difference;}</style></defs><title>starwars-the_emperor</title><g class="cls-1"><g id="Layer_2" data-name="Layer 2"><g id="Layer_1-2" data-name="Layer 1"><g id="The_Emperor" data-name="The Emperor"><g id="clothes1"><path class="cls-2" d="M311.73,482.35v5c0,23.19-18.8-1.21-42-1.21s-42,24.41-42,1.21v-5A123.75,123.75,0,0,0,146,598.73h247.4A123.75,123.75,0,0,0,311.73,482.35Z"/><circle class="cls-3" cx="277.36" cy="534.06" r="14.45"/><path class="cls-4" d="M272.24,547.58a14.45,14.45,0,0,1-4.59-2.81"/><path class="cls-4" d="M287.6,544.27a14.49,14.49,0,0,1-4.11,2.89"/><path class="cls-4" d="M286.55,522.9a14.48,14.48,0,0,1,4.52,6.55"/><path class="cls-4" d="M263.62,529.57a14.49,14.49,0,0,1,5.93-7.67"/><g class="cls-5"><path class="cls-6" d="M265.49,543l-.34-.49a15.23,15.23,0,0,1-2.39-6.13,14.93,14.93,0,0,1,.06-4.82,13.2,13.2,0,0,1,.54-2.09,13.14,13.14,0,0,0-.23,2.13,14.28,14.28,0,0,0,.6,4.57,13.62,13.62,0,0,0,2,4,13.34,13.34,0,0,0,.91,1.13l.4.43Z"/></g><g class="cls-5"><path class="cls-6" d="M283,546.42a5.15,5.15,0,0,1-1.4,1.11,8.27,8.27,0,0,1-7.49.28,5.15,5.15,0,0,1-1.47-1s.74-.09,1.72-.12l1.64-.06,1.82-.06,3.46-.13C282.29,546.39,283,546.42,283,546.42Z"/></g><g class="cls-5"><path class="cls-6" d="M291.35,529.45a13.27,13.27,0,0,1,.53,2,14.55,14.55,0,0,1,.24,2.14,14.9,14.9,0,0,1-1.44,7.05,15.72,15.72,0,0,1-.76,1.4l-.33.51L288,541.34l.35-.4a13.9,13.9,0,0,0,.85-1.12A13.65,13.65,0,0,0,291,535.9a14.32,14.32,0,0,0,.53-4.4A13.21,13.21,0,0,0,291.35,529.45Z"/></g><g class="cls-5"><path class="cls-6" d="M269.95,520.72a6.09,6.09,0,0,1,.53-.53A8.81,8.81,0,0,1,272.1,519a10.42,10.42,0,0,1,2.64-1,12.58,12.58,0,0,1,1.59-.28,13.21,13.21,0,0,1,1.65-.05,11.52,11.52,0,0,1,3.24.6,9.52,9.52,0,0,1,1.39.57,9,9,0,0,1,1.16.67,8.66,8.66,0,0,1,1.52,1.27,6.67,6.67,0,0,1,.49.57l-.7-.23c-.44-.15-1.06-.35-1.8-.57s-1.59-.41-2.5-.57c-.45-.09-.93-.13-1.4-.19s-1-.09-1.43-.11-1,0-1.48,0-1,0-1.42.08c-.92.09-1.78.22-2.53.37s-1.39.3-1.83.42Z"/></g><path class="cls-3" d="M284.25,528.45c-8.19-2.57-7.13-4.41-18.13-7.17-9.52-2.39-24.89-1.67-24.53,12.64.19,7.63,6.69,14.6,18.42,13.21,10.81-1.28,14.63-13.55,20.06-19.22"/><path class="cls-4" d="M272.05,539.16c3-3.94,5.3-8.42,8-11.26"/><path class="cls-3" d="M284.25,528.45c-8.19-2.57-7.13-4.41-18.13-7.17"/><g class="cls-5"><path class="cls-6" d="M241.59,533.27l0,.45a12.85,12.85,0,0,0,.65,3.17,7,7,0,0,0,.44,1.13,7.93,7.93,0,0,0,.6,1.19,8.52,8.52,0,0,0,.79,1.21l.45.61.53.58a12.83,12.83,0,0,0,2.55,2.12c.48.32,1,.56,1.53.85s1.1.46,1.66.66,1.16.36,1.76.47,1.2.25,1.81.28a23,23,0,0,0,3.65.06l1.78-.18a14.78,14.78,0,0,0,1.68-.34,14.33,14.33,0,0,0,5.37-2.79,22.21,22.21,0,0,0,3.06-3.11c.67-.83,1-1.33,1-1.33l1.58,1.23s-.4.5-1.16,1.35a24,24,0,0,1-3.48,3.2,15.85,15.85,0,0,1-6.1,2.79,16.08,16.08,0,0,1-1.84.28l-1.88.1a24.1,24.1,0,0,1-3.83-.26c-.64-.07-1.26-.26-1.89-.39s-1.22-.39-1.82-.58-1.15-.51-1.71-.78-1.08-.61-1.56-1a13.38,13.38,0,0,1-2.54-2.33l-.52-.62-.44-.65a8.84,8.84,0,0,1-.75-1.29,8.18,8.18,0,0,1-.55-1.25,7.2,7.2,0,0,1-.39-1.16,12.65,12.65,0,0,1-.4-1.95,12.49,12.49,0,0,1-.1-1.27Z"/></g><g class="cls-5"><path class="cls-6" d="M283.94,528.76l-.55-.19c-.36-.13-.88-.3-1.58-.58s-1.51-.61-2.43-1.06-1.93-1-3-1.6a35.72,35.72,0,0,0-3.45-1.74,39.74,39.74,0,0,0-4.07-1.49c-1.44-.45-3-.89-4.49-1.24a34.78,34.78,0,0,0-4.74-.7,25.4,25.4,0,0,0-9.34.83,14.13,14.13,0,0,0-3.89,1.86,10.66,10.66,0,0,0-2.73,2.73,11.77,11.77,0,0,0-1.44,3,15.2,15.2,0,0,0-.52,2.5,13.82,13.82,0,0,0-.11,1.65l0,.59v-.59a13.87,13.87,0,0,1,.05-1.66,15.33,15.33,0,0,1,.43-2.55,12,12,0,0,1,1.35-3.08,11,11,0,0,1,2.72-2.93,14.67,14.67,0,0,1,4-2.09,26.2,26.2,0,0,1,9.6-1.23,35.86,35.86,0,0,1,4.91.54c1.61.3,3.15.68,4.64,1.09a41.15,41.15,0,0,1,4.27,1.38,37.32,37.32,0,0,1,3.67,1.68c1.09.56,2.07,1.05,3,1.44s1.68.69,2.33.91,1.18.39,1.55.5l.56.17Z"/></g><path class="cls-3" d="M305.38,523s-25.12-8.9-23.57,11.8c1.26,16.79,34.52,15.22,31.95,2.92-1.42-6.82-11.87-.48-12.61-9.34-.55-6.56,19.88-15,29.91,2.69"/><path class="cls-4" d="M305.38,523a38.88,38.88,0,0,0-7-1.62"/><path class="cls-3" d="M301.15,528.36c-.55-6.56,19.88-15,29.91,2.69"/><path class="cls-3" d="M313.76,537.7c-1.42-6.82-11.87-.48-12.61-9.34"/><g class="cls-5"><path class="cls-6" d="M281.81,533.77l.12.47a13.2,13.2,0,0,0,.37,1.32l.34.89c.13.32.32.65.5,1a7.36,7.36,0,0,0,.67,1.07,8.88,8.88,0,0,0,.86,1.09,14.28,14.28,0,0,0,2.34,2,18.53,18.53,0,0,0,3.07,1.63,22.51,22.51,0,0,0,3.56,1.14,25.57,25.57,0,0,0,3.83.6,27.86,27.86,0,0,0,7.62-.34,21.29,21.29,0,0,0,3.36-1,11.92,11.92,0,0,0,2.71-1.47,8.85,8.85,0,0,0,1-.9,7.4,7.4,0,0,0,.74-1,4.88,4.88,0,0,0,.47-1,3.68,3.68,0,0,0,.26-.9c0-.28.09-.54.11-.77V536.7l.11.48.14.58c0,.23,0,.5,0,.81a4.1,4.1,0,0,1-.09,1,4.77,4.77,0,0,1-.35,1.17,8.18,8.18,0,0,1-.67,1.23,8.69,8.69,0,0,1-1,1.16,11.16,11.16,0,0,1-2.84,2,17.86,17.86,0,0,1-3.58,1.31,22.61,22.61,0,0,1-4,.64,25,25,0,0,1-8.3-.74,20.19,20.19,0,0,1-3.82-1.41,16.3,16.3,0,0,1-3.24-2,12.82,12.82,0,0,1-2.34-2.52,10.17,10.17,0,0,1-1.33-2.56,11.23,11.23,0,0,1-.35-1.14l-.18-1a9.16,9.16,0,0,1-.09-1.38Z"/></g><g class="cls-5"><path class="cls-6" d="M297.71,520.27s-.4,0-1.09.1c-.35,0-.76.08-1.23.11s-1,.12-1.57.18-1.18.2-1.81.29-1.29.28-1.95.49a13.18,13.18,0,0,0-2,.75l-.94.49-.86.6a8.26,8.26,0,0,0-.79.68,4.67,4.67,0,0,0-.7.76,11.15,11.15,0,0,0-1.15,1.68c-.14.31-.25.62-.39.91a4.4,4.4,0,0,0-.35.9l-.27.89a4.17,4.17,0,0,0-.22.85c-.1.56-.22,1.07-.32,1.54s-.11.88-.15,1.22c-.1.68-.17,1.08-.17,1.08s-.09-.38-.23-1.07c-.06-.34-.15-.76-.22-1.25s-.05-1-.06-1.65a10.51,10.51,0,0,1,.18-2,12.26,12.26,0,0,1,.59-2.18,10.36,10.36,0,0,1,1.22-2.15,9,9,0,0,1,1.81-1.83l1.07-.72,1.14-.54a8.75,8.75,0,0,1,1.16-.4,7.72,7.72,0,0,1,1.15-.28,13.57,13.57,0,0,1,2.2-.26,16.54,16.54,0,0,1,2,0,17.33,17.33,0,0,1,2.86.46C297.33,520.16,297.71,520.27,297.71,520.27Z"/></g><g class="cls-5"><path class="cls-6" d="M313.76,536.7l-.2-.55a3.88,3.88,0,0,0-3-2.4,23.73,23.73,0,0,0-3.25-.36,10.27,10.27,0,0,1-4.09-.94,5.07,5.07,0,0,1-1.86-1.7,6.63,6.63,0,0,1-.93-2.39c0-.21-.06-.41-.1-.62l0-.16v-.82l0-.4a3.28,3.28,0,0,1,.17-.75,5.93,5.93,0,0,1,1.47-2.39,11,11,0,0,1,4.63-2.62,16,16,0,0,1,5.16-.51,16.57,16.57,0,0,1,4.85,1.07,18,18,0,0,1,4.05,2.18A19.32,19.32,0,0,1,323.7,526a22.06,22.06,0,0,1,2.15,2.65,23.4,23.4,0,0,1,1.38,2.21c.37.62.58,1.15.76,1.49l.26.53-.35-.48c-.23-.31-.55-.77-1-1.33s-1-1.23-1.65-2a29,29,0,0,0-2.35-2.3,22.67,22.67,0,0,0-3.1-2.25,19.56,19.56,0,0,0-3.83-1.77,15.36,15.36,0,0,0-8.87-.3,9.09,9.09,0,0,0-3.81,2.06,4.56,4.56,0,0,0-1.07,1.6,1.61,1.61,0,0,0-.11.39l0,.18v.6c0-.15,0,0,0-.06v.23c0,.17,0,.35.06.52a4.16,4.16,0,0,0,1.8,3.1,10.2,10.2,0,0,0,3.5,1.1,19,19,0,0,1,3.33.77,4.68,4.68,0,0,1,2.22,1.54,4.18,4.18,0,0,1,.69,1.56Z"/></g><path class="cls-7" d="M269.73,587.17c46.31,0,88.25-9,118.62-23.56a124,124,0,0,0-76.63-81.26v5c0,23.19-18.8-1.21-42-1.21s-42,24.41-42,1.21v-5a124,124,0,0,0-76.63,81.26C181.48,578.16,223.42,587.17,269.73,587.17Z"/><path class="cls-2" d="M472.23,177.69C455.71,62.82,322.33.47,270.49,0h-1.08c-51.84.45-176,51-192.49,165.86C40.25,420.75-58.61,462.41,48.12,532.42,138.73,591.86,149.42,523,270.2,523s115.4,100.78,212.19,29.17C585,476.25,508.9,432.56,472.23,177.69Z"/><path class="cls-8" d="M432.55,355.68,421.61,168.87h0c0-.33-6.05-60.26-23.64-74.4s-128-67.93-128-67.93-110.41,53.76-128,67.93-23.61,74.06-23.64,74.4h0L107.34,355.68c-4.37,19.9-21,38.93-30.42,74.3-15.06,56.53-19.76,78.48,15.31,96.26,76.56,38.82,136.85-22.42,177.72-6.6,46,0,111.8,26.74,168.85,7.39,37.23-12.63,28.5-37.64,13.44-94.16C442.82,397.49,436.93,375.58,432.55,355.68Z"/><path class="cls-9" d="M354.06,470l-84,16.19L186.1,470s19,49.63,83.86,49.65h.25C335.07,519.62,354.06,470,354.06,470Z"/><path class="cls-10" d="M354.06,470l-84,16.19L186.1,470s19,49.63,83.86,49.65h.25C335.07,519.62,354.06,470,354.06,470Z"/><path class="cls-2" d="M472.23,177.69C455.71,62.82,322.33.47,270.49,0h-1.08c-51.84.45-176,51-192.49,165.86C40.25,420.75-58.61,462.41,48.12,532.42,138.73,591.86,151.46,523,272.24,523S385.6,623.78,482.39,552.17C585,476.25,508.9,432.56,472.23,177.69ZM438.17,516.4c-76.56,38.82-141.27-22.47-168.23,3.24C256,499.51,148.3,541.19,113.41,511.73c-72.07-60.85-15.14-92.26,0-138.32,10.78-32.79,30.08-93.82,41.47-125.55,7.64-21.3,78.84,17.13,115.07,17.13s97.86-31.68,115.19-17.13c15,12.59,25.51,31.08,35.34,50.89.69,1.4,12.07,56.93,12.07,56.93,4.37,19.9,10.26,41.81,19.69,77.18C467.3,489.39,473.24,498.62,438.17,516.4Z"/><path class="cls-11" d="M461.52,204c-4-23.55-199.71-27.64-215.83-37.24,200,36.66,215.16-24.39,161.62-58.89-86-55.43-11-39.34-11-39.34-36-43.59-91-60.47-125.79-59.88-33.14.56-78.74,6.58-121.32,53.48-16.1,15.09-31.45,21.5-10.2,12.44,5.11-2.18,53.76-14.26,82-26.88-8.13,6.13-7.12-.19-107.77,49,83.47-12.22-95.43,154.67,24.74,60.13,15.51-12.2,86.87-43.61,121.33-44.2,20.85-.36,91.16,38,107.52,43.3-17-2-97.3-29.63-134.92-15.08-48,18.57-83.08,35.94-83.08,35.94s-55,6-77.81,56.13c107.78-48.52,131.77,21.36,200.37,22.2S408.64,217.37,428,228.32,467.72,240.92,461.52,204Z"/><path class="cls-7" d="M154.87,247.86c2-5.56,8.32-7,17.21-6.21l.09-.22s-26.53-12.7-43.31,5.29c-23.36,25-19.76,51.05-20.91,97.17-.76,30.45-25.64,90.29-31,115.63,1.66-3.24,3.42-6.76,5.26-10.52,7.88-27.91,24.14-54,31.23-75.59C124.19,340.62,143.49,279.59,154.87,247.86Z"/><path class="cls-7" d="M449.3,274.33c-43.83-32.9-78-30.29-78-30.29h0c5.86,0,10.64,1.11,13.87,3.82,15,12.59,25.51,31.08,35.34,50.89.69,1.4,12.07,56.93,12.07,56.93,4.37,19.9,10.26,41.81,19.69,77.18,4.89,18.33,8.8,35.4,10.68,50.71,1,4.12,1.49,6.42,1.49,6.42s-1-66.64-21.56-132.47C410.5,253.85,462.53,284.27,449.3,274.33Z"/></g><path class="cls-12" d="M155.1,288.23s5.13,22.16,43.11,20.27c18.72-.94,25.14-2.64,28-4,8.39,5.75,10.28,0,2.66-6.13-4.73-3.83-2.38-4.91-8.46-10.2-11.91-10.37-27.87-11.94-44.47-7.22C157.43,286.22,155.1,288.23,155.1,288.23Z"/><path class="cls-13" d="M155.1,288.23s5.13,22.16,43.11,20.27c18.72-.94,25.14-2.64,28-4,8.39,5.75,10.28,0,2.66-6.13-4.73-3.83-2.38-4.91-8.46-10.2-11.91-10.37-27.87-11.94-44.47-7.22C157.43,286.22,155.1,288.23,155.1,288.23Z"/><circle class="cls-14" cx="193.33" cy="286.54" r="14.78"/><circle class="cls-15" cx="193.33" cy="286.54" r="7.23"/><circle class="cls-2" cx="193.33" cy="286.54" r="6.04"/><path class="cls-16" d="M257.5,278.43c-14.56,23.87-14,7.82-41.06,0-35.63-10.28-50-9.4-69.46-7.08l-5.91,17.07a49.57,49.57,0,0,0,6.48,7.23c-3.78,14.05,19.62,29.85,42.39,29.08,21.75-.74,58.18-17.78,53.06-23-7.71-7.87.34,6.65,3.24-2.1,1-3,1.3-4.8,2.34-7.25a5.58,5.58,0,0,0,1.58,0c8.84-1.17,7.77-3.59,9-11.27S261.8,271.37,257.5,278.43Zm-31.3,26.08c-2.85,1.35-9.27,3.05-28,4-38,1.9-40.05-21.25-40.05-21.25s-.73-1,17.77-6.28c16.6-4.72,32.55-3.15,44.47,7.22,6.08,5.29,3.73,6.37,8.46,10.2C236.48,304.55,234.59,310.26,226.2,304.51Z"/><path class="cls-17" d="M158.16,287.25s2.08,23.15,40.05,21.25c18.72-.94,25.14-2.64,28-4,8.39,5.75,10.28,0,2.66-6.13-4.73-3.83-2.38-4.91-8.46-10.2-11.91-10.37-27.87-11.94-44.47-7.22C157.43,286.22,158.16,287.25,158.16,287.25Zm6.2,5.34c-.27-2.91,3-6.31,10.69-8.3,12.45-3.2,27.55-.21,28.58.27,11.86,5.47,23.09,10.84,16,16.93C211.54,308.43,165.92,309.41,164.36,292.58Z"/><path class="cls-18" d="M167.63,293.6s19.66,9.2,33.84,6.67c20.31-3.62,25.95-.09,1.08,4.18C185.3,307.42,162.92,298,167.63,293.6Z"/><path class="cls-19" d="M206,285.8c-.47-.06-2.34.12-2.76,3.14s-4.34,5-2.6,5.22,5.61-1.54,6.79-4.35C208.55,287.16,207.76,286,206,285.8Z"/><path class="cls-20" d="M226.2,304.51a27.76,27.76,0,0,1-2.59,1.52c-.85.44-1.88,1-3.11,1.5s-2.62,1.12-4.18,1.63-3.26,1.08-5.1,1.51-3.79.87-5.83,1.2c-1,.16-2.06.29-3.12.42l-3.22.28c-1.08.06-2.18.09-3.28.13s-2.2,0-3.31,0-2.14-.06-3.32-.19-2.24-.25-3.33-.42a40.28,40.28,0,0,1-6.31-1.59,34.94,34.94,0,0,1-5.57-2.45,30.62,30.62,0,0,1-4.54-3A27,27,0,0,1,166,302a23.51,23.51,0,0,1-2.2-2.72,14.32,14.32,0,0,1-1.52-2.61,24.17,24.17,0,0,0,2.14,2.06c.71.61,1.6,1.32,2.64,2.07a43,43,0,0,0,3.63,2.3,45.79,45.79,0,0,0,4.54,2.18,46.64,46.64,0,0,0,5.3,1.76,48,48,0,0,0,5.85,1.18c1,.12,2,.27,3,.34s2.18.15,3.14.18l3.16.07,3.14,0c2.08,0,4.12-.16,6.1-.31s3.89-.34,5.69-.6,3.52-.49,5.09-.81,3-.59,4.29-.89,2.38-.57,3.29-.82,1.63-.45,2.11-.6Z"/><path class="cls-20" d="M153.65,283.47a24.64,24.64,0,0,1,2.17-1.85c.73-.53,1.6-1.23,2.67-1.9l1.7-1.09c.61-.36,1.27-.72,1.94-1.1,1.35-.78,2.88-1.5,4.5-2.26s3.37-1.5,5.23-2.08l2.82-.95,2.95-.79c2-.58,4-.89,6.1-1.29,1-.21,2.07-.3,3.1-.42l3.09-.33c1-.12,2-.1,3-.14l3-.07c2,0,3.84.2,5.62.3a42.28,42.28,0,0,1,5,.65,37,37,0,0,1,4.16.8c1.23.3,2.28.61,3.15.85,1.74.49,2.71.82,2.71.82s-1,0-2.84,0c-.9,0-2,0-3.22-.12a17.17,17.17,0,0,0-2,0H204c-.41,0-.82,0-1.24,0l-1.28.06c-1.73.1-3.55.13-5.42.26s-3.81.31-5.76.52l-2.94.4c-1,.13-2,.23-3,.44-2,.36-3.94.64-5.85,1.11l-2.86.62-2.76.73c-1.83.44-3.55,1-5.22,1.48l-2.39.8c-.78.24-1.53.49-2.23.76l-2,.75-1.83.72c-1.15.45-2.14.88-3,1.23s-1.47.64-1.9.85Z"/><path class="cls-12" d="M364,281c-16.6-4.72-32.55-3.15-44.47,7.22-6.08,5.29-3.73,6.37-8.46,10.2-7.62,6.17-5.73,11.87,2.66,6.13,2.85,1.35,9.27,3.05,28,4,38,1.9,43.11-20.27,43.11-20.27S382.47,286.22,364,281Z"/><path class="cls-13" d="M364,281c-16.6-4.72-32.55-3.15-44.47,7.22-6.08,5.29-3.73,6.37-8.46,10.2-7.62,6.17-5.73,11.87,2.66,6.13,2.85,1.35,9.27,3.05,28,4,38,1.9,43.11-20.27,43.11-20.27S382.47,286.22,364,281Z"/><circle class="cls-14" cx="346.57" cy="286.54" r="14.78"/><circle class="cls-15" cx="346.57" cy="286.54" r="7.23"/><circle class="cls-2" cx="346.57" cy="286.54" r="6.04"/><path class="cls-16" d="M280.73,281.13c1.26,7.68.19,10.11,9,11.27a5.58,5.58,0,0,0,1.58,0c2.34,1.22,3.39,2.41,5.22,4.92,10.06,13.79,10.43-7.87,2.71,0-5.12,5.22,29,26.69,50.7,27.43,22.77.77,46.17-15,42.39-29.08,2.31-2.14,11.25-9.59,13.11-12.18l-12.54-12.12c-19.47-2.32-33.84-3.2-69.46,7.08-27.09,7.82-26.51,23.87-41.06,0C278.09,271.37,279.48,273.45,280.73,281.13ZM311,298.39c4.73-3.83,2.38-4.91,8.46-10.2,11.91-10.37,27.87-11.94,44.47-7.22,18.5,5.26,17.77,6.28,17.77,6.28s-2.08,23.15-40.05,21.25c-18.72-.94-25.14-2.64-28-4C305.3,310.26,303.41,304.55,311,298.39Z"/><path class="cls-17" d="M364,281c-16.6-4.72-32.55-3.15-44.47,7.22-6.08,5.29-3.73,6.37-8.46,10.2-7.62,6.17-5.73,11.87,2.66,6.13,2.85,1.35,9.27,3.05,28,4,38,1.9,40.05-21.25,40.05-21.25S382.47,286.22,364,281Zm-43.7,20.51c-7.09-6.09,4.13-11.46,16-16.93,1-.48,16.13-3.47,28.58-.27,7.73,2,11,5.39,10.69,8.3C374,309.41,328.36,308.43,320.27,301.48Z"/><path class="cls-18" d="M372.27,293.6s-19.66,9.2-33.84,6.67c-20.31-3.62-25.95-.09-1.08,4.18C354.6,307.42,377,298,372.27,293.6Z"/><path class="cls-19" d="M333.87,285.8c.47-.06,2.34.12,2.76,3.14s4.34,5,2.6,5.22-5.61-1.54-6.79-4.35C331.35,287.16,332.13,286,333.87,285.8Z"/><path class="cls-20" d="M313.7,304.51l.75.23c.49.15,1.21.34,2.11.6s2,.51,3.29.82,2.72.59,4.29.89,3.29.54,5.09.81,3.72.43,5.69.6,4,.26,6.1.31l3.14,0,3.16-.07c1,0,2.17-.1,3.14-.18s2-.21,3-.34a48,48,0,0,0,5.85-1.18,46.64,46.64,0,0,0,5.3-1.76,45.79,45.79,0,0,0,4.54-2.18,43,43,0,0,0,3.63-2.3c1-.76,1.93-1.46,2.64-2.07a24.17,24.17,0,0,0,2.14-2.06,14.32,14.32,0,0,1-1.52,2.61,23.52,23.52,0,0,1-2.2,2.72,27,27,0,0,1-3.36,3.08,30.62,30.62,0,0,1-4.54,3,34.94,34.94,0,0,1-5.57,2.45,40.28,40.28,0,0,1-6.31,1.59c-1.09.18-2.19.32-3.33.42s-2.12.16-3.32.19-2.21,0-3.31,0-2.19-.07-3.28-.13l-3.22-.28c-1.06-.13-2.1-.26-3.12-.42-2-.33-4-.75-5.83-1.2s-3.55-1-5.1-1.51-3-1.11-4.18-1.63-2.26-1.07-3.11-1.5A27.76,27.76,0,0,1,313.7,304.51Z"/><path class="cls-20" d="M386.24,283.47l-.67-.32c-.43-.22-1.09-.48-1.9-.85s-1.82-.78-3-1.23l-1.83-.72-2-.75c-.7-.27-1.45-.52-2.23-.76l-2.39-.8c-1.67-.46-3.39-1-5.22-1.48l-2.76-.73-2.86-.62c-1.91-.47-3.89-.75-5.85-1.11-1-.21-2-.31-3-.44l-2.94-.4c-2-.21-3.89-.33-5.76-.52s-3.69-.16-5.42-.26l-1.28-.06c-.42,0-.83,0-1.24,0h-4.55a17.17,17.17,0,0,0-2,0c-1.24.07-2.32.09-3.22.12-1.8,0-2.84,0-2.84,0s1-.33,2.71-.82c.87-.24,1.93-.55,3.15-.85a37,37,0,0,1,4.16-.8,42.28,42.28,0,0,1,5-.65c1.78-.1,3.67-.3,5.62-.3l3,.07c1,0,2,0,3,.14l3.09.33c1,.12,2.07.21,3.1.42,2,.4,4.12.71,6.1,1.29l2.95.79,2.82.95c1.87.58,3.58,1.41,5.23,2.08s3.15,1.48,4.5,2.26c.68.39,1.33.74,1.94,1.1l1.7,1.09c1.07.67,1.94,1.36,2.67,1.9A24.63,24.63,0,0,1,386.24,283.47Z"/><path class="cls-9" d="M181.19,400l-.2,0-.3.06-.34.06c-.51.08-1.23.18-2.12.27a59,59,0,0,1-7.25.29,61.52,61.52,0,0,1-10-1,54.49,54.49,0,0,1-5.49-1.3,50.59,50.59,0,0,1-5.46-1.93c-.89-.37-1.77-.79-2.64-1.19s-1.71-.86-2.52-1.35a44.61,44.61,0,0,1-4.61-3,42.42,42.42,0,0,1-3.9-3.27c-.57-.57-1.15-1.09-1.66-1.64l-1.46-1.61c-.89-1.07-1.7-2-2.34-3s-1.22-1.69-1.63-2.38l-1.3-2.13,1.74,1.77c.54.57,1.28,1.18,2.08,1.92s1.79,1.47,2.84,2.28l1.69,1.18c.59.4,1.23.76,1.87,1.16a38.86,38.86,0,0,0,4.17,2.13,39.92,39.92,0,0,0,4.64,1.72c.8.25,1.62.44,2.43.66s1.65.36,2.48.5a43.47,43.47,0,0,0,5,.56,46.22,46.22,0,0,0,4.81,0,51.55,51.55,0,0,0,8.39-1.07,47,47,0,0,0,5.65-1.55c.65-.22,1.14-.41,1.44-.54l.2-.08.09,0,.12-.05Z"/><path class="cls-21" d="M243.35,320.86s-29.46,25-72.35,38.66c-9.48,3-36.41,9.35-38.41,4S225.38,338.32,243.35,320.86Z"/><path class="cls-21" d="M249.73,301.17s-6.38,31.39-82.56,47.7c-29.5,6.32-40.32-3-34.62-3.73C160.67,341.39,225.46,331.1,249.73,301.17Z"/><path class="cls-22" d="M243.35,331.1s-48.06,38.13-70.19,49.46c-16.16,8.26-27.87-.9-22.19-3.59,14.49-6.88,23-14.2,42.28-20.67C223.64,346.1,231.42,337.2,243.35,331.1Z"/><path class="cls-21" d="M149.17,309.64c-22.16-15-6.23,10.65-3.24,12.17,40,20.31,80.47,7.74,96-19.61C197.72,336.92,165.7,320.86,149.17,309.64Z"/><path class="cls-9" d="M193.69,394v-.2a.26.26,0,0,1,0-.07c.05,0,.07,0,.07,0a10.1,10.1,0,0,1,.23,1l.73,3.84c.62,3.3,1.53,8,2.87,13.6.66,2.79,1.48,5.79,2.4,8.93s2,6.41,3.34,9.71a68.31,68.31,0,0,0,4.71,9.8,42.45,42.45,0,0,0,3.07,4.59c.56.73,1.14,1.42,1.78,2.11s1.29,1.41,1.93,2.09a66.77,66.77,0,0,0,8.3,7.5,53,53,0,0,0,9.25,5.54A73.85,73.85,0,0,0,250.9,468c2.82.47,5.43.8,7.74,1.07s4.35.43,6,.56l5.27.38-1.38.07c-.9.05-2.22.13-3.91.16a109.94,109.94,0,0,1-14-.5,74,74,0,0,1-9.3-1.5c-1.64-.36-3.31-.82-5-1.33s-3.39-1.17-5.08-1.9-3.38-1.57-5-2.5a50.19,50.19,0,0,1-4.84-3.15,62.79,62.79,0,0,1-8.73-7.8c-.67-.72-1.33-1.45-2-2.16s-1.31-1.51-1.9-2.3a45.34,45.34,0,0,1-3.23-4.93,69.89,69.89,0,0,1-4.64-10.32,102.3,102.3,0,0,1-3-10.06c-.82-3.23-1.42-6.32-1.93-9.17-1-5.71-1.51-10.5-1.81-13.86-.16-1.68-.24-3-.32-3.9a10.13,10.13,0,0,0-.11-1s0-.05,0,0a.26.26,0,0,0,0,.06l0,.11Z"/><path class="cls-9" d="M188.27,394.57s0,2.07.17,5.66A138.89,138.89,0,0,0,190.05,415c.52,3,1.17,6.28,2.05,9.66a87,87,0,0,0,3.4,10.42,66.45,66.45,0,0,0,5.25,10.37l.81,1.24c.13.2.27.43.41.61l.44.62c.59.83,1.18,1.68,1.79,2.47,1.19,1.61,2.46,3.21,3.76,4.74a51.83,51.83,0,0,0,8.66,8.21,38.79,38.79,0,0,0,10.1,5.45,56.29,56.29,0,0,0,10.55,2.68c3.45.55,6.76.91,9.83,1.14s5.89.41,8.4.53l6.5.32,5.66.29L262,474c-1.8.07-4,.16-6.51.21s-5.36.1-8.46,0a99.83,99.83,0,0,1-10-.65,55.45,55.45,0,0,1-11.1-2.39,41.53,41.53,0,0,1-10.92-5.57,54.14,54.14,0,0,1-9.23-8.59c-1.37-1.6-2.7-3.21-3.92-4.92-.64-.85-1.21-1.69-1.8-2.52l-.44-.63c-.17-.23-.29-.44-.44-.67l-.85-1.32A59.74,59.74,0,0,1,193,436.07a74.6,74.6,0,0,1-3.14-10.86,91.3,91.3,0,0,1-1.57-10,101.28,101.28,0,0,1-.44-15c.07-1.81.21-3.23.3-4.19Z"/><path class="cls-9" d="M240.63,304.46s-.21.4-.67,1.12a28.65,28.65,0,0,1-2.2,3,52.32,52.32,0,0,1-9.77,8.84,80.34,80.34,0,0,1-16.42,8.89,95.41,95.41,0,0,1-9.94,3.48c-3.44,1-7,1.94-10.54,2.62-1.84.37-3.54.68-5.36,1l-2.72.39c-.9.11-1.8.19-2.7.28a81.25,81.25,0,0,1-10.58.25,58.42,58.42,0,0,1-9.83-1.32,45.15,45.15,0,0,1-8.44-2.78,37,37,0,0,1-6.51-3.72,30.46,30.46,0,0,1-4.35-3.76,23,23,0,0,1-2.32-2.86,11.47,11.47,0,0,1-.68-1.11,20.22,20.22,0,0,0,3.38,3.57,33.09,33.09,0,0,0,4.56,3.27,39.55,39.55,0,0,0,6.53,3.11,53.47,53.47,0,0,0,17.75,3.05,78.57,78.57,0,0,0,10.21-.52l2.61-.32,2.6-.4c1.72-.28,3.57-.63,5.25-1,3.49-.74,6.95-1.6,10.32-2.55s6.64-2,9.77-3.2,6.08-2.45,8.84-3.76,5.28-2.73,7.57-4.11a62.91,62.91,0,0,0,10.31-7.76c1.13-1.08,2-2,2.52-2.63S240.63,304.46,240.63,304.46Z"/><path class="cls-9" d="M251.37,302.79a41.46,41.46,0,0,1-3.17,4.8,82.23,82.23,0,0,1-10.26,11.23,101.15,101.15,0,0,1-7.84,6.51c-2.9,2.16-6,4.34-9.43,6.38a131.85,131.85,0,0,1-22.27,10.74c-3.94,1.5-7.94,2.8-12,3.9-2,.53-3.92,1.11-5.91,1.58l-5.89,1.3-5.73,1-5.53.7-5.26.42c-1.71.05-3.35.11-4.93.11a73.06,73.06,0,0,1-8.61-.5,50.09,50.09,0,0,1-6.54-1.16,32,32,0,0,1-4.07-1.27,12.38,12.38,0,0,1-1.38-.6,12.34,12.34,0,0,0,1.43.43,40.06,40.06,0,0,0,4.14.81c.9.11,1.89.27,3,.34l1.7.15,1.83.08c2.52.11,5.37.06,8.46-.1,1.55-.09,3.15-.28,4.82-.4l5.13-.64,5.39-.91,5.59-1.15,5.71-1.42c1.93-.47,3.9-1.09,5.87-1.63,3.9-1.09,7.83-2.45,11.7-3.86s7.69-3,11.38-4.74,7.27-3.51,10.62-5.44,6.55-3.89,9.47-5.91,5.63-4,8-6a97.48,97.48,0,0,0,10.91-10.34A47.78,47.78,0,0,0,251.37,302.79Z"/><path class="cls-23" d="M216,429.38c13.21,9.16,28.46,18.11,53.92,18.6v22s-28.47,3.31-53-32.13C204,419.17,213.36,427.52,216,429.38Z"/><path class="cls-9" d="M165.37,398.76s-.11.17-.35.63-.56,1.14-.94,2.07a33.69,33.69,0,0,0-2.05,8.09,37.71,37.71,0,0,0,.44,12,42,42,0,0,0,1.84,6.62l.62,1.66.72,1.64c.45,1.11,1,2.16,1.58,3.24s1.2,2.09,1.8,3.14,1.32,2,2,3,1.42,1.92,2.11,2.86,1.48,1.81,2.2,2.69,1.51,1.69,2.25,2.52l1.11,1.21,1.13,1.13,2.18,2.16,2.13,1.93c1.35,1.26,2.67,2.31,3.83,3.27s2.18,1.77,3,2.41l2.7,2.05-2.82-1.88c-.9-.59-2-1.32-3.2-2.22s-2.61-1.86-4-3l-2.27-1.8-2.34-2L177.79,451l-1.2-1.15c-.8-.79-1.66-1.54-2.44-2.41s-1.63-1.7-2.42-2.61-1.58-1.84-2.35-2.8-1.51-2-2.24-3-1.43-2.06-2.07-3.15-1.32-2.15-1.87-3.29l-.87-1.68-.77-1.72a45.24,45.24,0,0,1-2.42-7,41.54,41.54,0,0,1-1.3-13.12,38.22,38.22,0,0,1,1.75-9.32c.36-1.1.71-2,1-2.56s.48-1,.45-1Z"/><path class="cls-9" d="M372.8,389.81c-32.15-9.61-65.65-60.48-80.2-45.92-4.94,12.4-22.65,24.26-22.65,24.26s-17.7-11.86-22.65-24.26c-14.56-14.56-48.05,36.31-80.2,45.92-24.94,7.45-25.75,32.48-18.29,32.48,4.24,0-4.31-9.38,20.85-23.58.64,6.94-7,20.06,11.32,43-9.13-19.66.83-34.46,9.94-46.18,41.49-53.41,43-4.58,63.39,13.53l15.64,1.83,15.64-1.83C306,391,307.49,342.15,349,395.56c9.1,11.72,19.07,26.51,9.94,46.18,18.33-23,10.68-36.09,11.32-43,25.16,14.2,16.61,23.58,20.85,23.58C398.55,422.29,397.74,397.27,372.8,389.81Z"/><path class="cls-9" d="M362.35,387.52l.12.05.09,0,.2.08c.3.13.79.32,1.44.54a47,47,0,0,0,5.65,1.55,51.55,51.55,0,0,0,8.39,1.07,46.22,46.22,0,0,0,4.81,0,43.46,43.46,0,0,0,5-.56c.83-.14,1.65-.33,2.48-.5s1.64-.4,2.43-.66a39.92,39.92,0,0,0,4.64-1.72,38.86,38.86,0,0,0,4.17-2.13c.64-.4,1.28-.76,1.87-1.16l1.69-1.18c1-.81,2-1.55,2.84-2.28s1.54-1.35,2.08-1.92L412,377l-1.3,2.13c-.4.69-1,1.45-1.63,2.38s-1.46,1.88-2.34,3L405.22,386c-.51.55-1.09,1.07-1.66,1.64a42.42,42.42,0,0,1-3.9,3.27,44.61,44.61,0,0,1-4.61,3c-.81.48-1.67.89-2.52,1.35s-1.74.82-2.64,1.19a50.6,50.6,0,0,1-5.46,1.93,54.49,54.49,0,0,1-5.49,1.3,61.52,61.52,0,0,1-10,1,59,59,0,0,1-7.25-.29c-.89-.09-1.6-.19-2.12-.27l-.34-.06-.3-.06-.2,0Z"/><path class="cls-21" d="M296.55,320.86s29.46,25,72.35,38.66c9.48,3,36.41,9.35,38.41,4S314.52,338.32,296.55,320.86Z"/><path class="cls-21" d="M290.17,301.17s6.38,31.39,82.56,47.7c29.5,6.32,40.32-3,34.62-3.73C379.22,341.39,314.43,331.1,290.17,301.17Z"/><path class="cls-22" d="M296.55,331.1s48.06,38.13,70.19,49.46c16.16,8.26,27.87-.9,22.19-3.59-14.49-6.88-23-14.2-42.28-20.67C316.26,346.1,308.48,337.2,296.55,331.1Z"/><path class="cls-21" d="M390.73,309.64c22.16-15,6.23,10.65,3.24,12.17-40,20.31-80.83,4.82-96.34-22.53C341.82,334,374.19,320.86,390.73,309.64Z"/><path class="cls-9" d="M346.21,394v-.09l0-.11a.26.26,0,0,0,0-.06s0,0,0,0a10.13,10.13,0,0,0-.11,1c-.08.9-.16,2.22-.32,3.9-.3,3.35-.81,8.15-1.81,13.86-.51,2.85-1.11,5.94-1.93,9.17a102.3,102.3,0,0,1-3,10.06,69.9,69.9,0,0,1-4.64,10.32,45.34,45.34,0,0,1-3.23,4.93c-.6.79-1.25,1.57-1.9,2.3s-1.29,1.44-2,2.16a62.79,62.79,0,0,1-8.73,7.8,50.19,50.19,0,0,1-4.84,3.15c-1.66.93-3.35,1.76-5,2.5s-3.4,1.35-5.08,1.9-3.36,1-5,1.33a74,74,0,0,1-9.3,1.5,109.94,109.94,0,0,1-14,.5c-1.69,0-3-.11-3.91-.16l-1.38-.07,5.27-.38c1.67-.13,3.7-.33,6-.56s4.93-.6,7.74-1.07a73.85,73.85,0,0,0,18.53-5.43,53,53,0,0,0,9.25-5.54,66.78,66.78,0,0,0,8.3-7.5c.64-.68,1.28-1.37,1.93-2.09s1.21-1.38,1.78-2.11a42.45,42.45,0,0,0,3.07-4.59,68.31,68.31,0,0,0,4.71-9.8c1.29-3.31,2.41-6.57,3.34-9.71s1.73-6.14,2.4-8.93c1.34-5.58,2.25-10.29,2.87-13.6l.73-3.84a10.1,10.1,0,0,1,.23-1s0-.09.07,0a.26.26,0,0,1,0,.07v.2Z"/><path class="cls-9" d="M351.62,394.57l.17,1.48c.09,1,.23,2.38.3,4.19a101.28,101.28,0,0,1-.44,15,91.3,91.3,0,0,1-1.57,10,74.61,74.61,0,0,1-3.14,10.86A59.74,59.74,0,0,1,341.62,447l-.85,1.32c-.15.22-.27.43-.44.67l-.44.63c-.58.84-1.16,1.68-1.8,2.52-1.22,1.71-2.55,3.32-3.92,4.92a54.14,54.14,0,0,1-9.23,8.59A41.53,41.53,0,0,1,314,471.22a55.45,55.45,0,0,1-11.1,2.39,99.83,99.83,0,0,1-10,.65c-3.11.08-5.95,0-8.46,0s-4.71-.14-6.51-.21l-5.67-.27,5.66-.29,6.5-.32c2.51-.13,5.33-.31,8.4-.53s6.38-.59,9.83-1.14a56.29,56.29,0,0,0,10.55-2.68,38.79,38.79,0,0,0,10.1-5.45,51.83,51.83,0,0,0,8.66-8.21c1.3-1.54,2.57-3.13,3.76-4.74.61-.79,1.2-1.63,1.79-2.47l.44-.62c.13-.18.27-.41.41-.61l.81-1.24a66.45,66.45,0,0,0,5.25-10.37,87,87,0,0,0,3.4-10.42c.89-3.38,1.53-6.64,2.05-9.66a138.89,138.89,0,0,0,1.61-14.77C351.65,396.64,351.62,394.57,351.62,394.57Z"/><path class="cls-9" d="M299.26,304.46s.26.37.81,1,1.39,1.54,2.52,2.63a62.91,62.91,0,0,0,10.31,7.76c2.28,1.38,4.81,2.78,7.57,4.11s5.72,2.59,8.84,3.76,6.4,2.25,9.77,3.2,6.83,1.8,10.32,2.55c1.69.36,3.53.71,5.25,1l2.6.4,2.61.32a78.57,78.57,0,0,0,10.21.52,53.47,53.47,0,0,0,17.75-3.05,39.55,39.55,0,0,0,6.53-3.11,33.09,33.09,0,0,0,4.56-3.27,20.23,20.23,0,0,0,3.38-3.57,11.47,11.47,0,0,1-.68,1.11,23,23,0,0,1-2.32,2.86,30.46,30.46,0,0,1-4.35,3.76,37,37,0,0,1-6.51,3.72,45.15,45.15,0,0,1-8.44,2.78,58.42,58.42,0,0,1-9.83,1.32,81.25,81.25,0,0,1-10.58-.25c-.9-.09-1.8-.17-2.7-.28l-2.72-.39c-1.82-.28-3.52-.59-5.36-1-3.57-.69-7.1-1.62-10.54-2.62a95.41,95.41,0,0,1-9.94-3.48,80.34,80.34,0,0,1-16.42-8.89,52.32,52.32,0,0,1-9.77-8.84,28.65,28.65,0,0,1-2.2-3C299.47,304.86,299.26,304.46,299.26,304.46Z"/><path class="cls-9" d="M288.53,302.79a47.78,47.78,0,0,0,3.61,4.44A97.48,97.48,0,0,0,303,317.57c2.4,2,5.1,4,8,6s6.11,4,9.47,5.91,6.93,3.75,10.62,5.44,7.49,3.33,11.38,4.74,7.8,2.77,11.7,3.86c2,.54,3.94,1.16,5.87,1.63l5.71,1.42,5.59,1.15,5.39.91,5.13.64c1.66.12,3.27.31,4.82.4,3.09.15,5.94.21,8.46.1l1.83-.08,1.7-.15c1.09-.07,2.08-.23,3-.34a40.06,40.06,0,0,0,4.14-.81,12.34,12.34,0,0,0,1.43-.43,12.38,12.38,0,0,1-1.38.6,32,32,0,0,1-4.07,1.27,50.09,50.09,0,0,1-6.54,1.16,73.06,73.06,0,0,1-8.61.5c-1.58,0-3.23-.06-4.93-.11l-5.26-.42-5.53-.7-5.73-1-5.89-1.3c-2-.47-3.92-1.05-5.91-1.58-4-1.1-8-2.4-12-3.9a131.85,131.85,0,0,1-22.27-10.74c-3.38-2-6.53-4.22-9.43-6.38a101.14,101.14,0,0,1-7.84-6.51,82.23,82.23,0,0,1-10.26-11.23A41.46,41.46,0,0,1,288.53,302.79Z"/><path class="cls-9" d="M150.76,417.66s0,.12-.07.16a3.18,3.18,0,0,0-.17.5,9.15,9.15,0,0,0-.21,1,12.75,12.75,0,0,0-.15,1.34,14.62,14.62,0,0,0,0,1.65c0,.59.1,1.22.16,1.88s.21,1.34.39,2,.34,1.4.6,2.08a20.76,20.76,0,0,0,.77,2.06c.29.67.55,1.34.89,2s.62,1.24.94,1.8l.95,1.57c.57,1,1.17,1.73,1.53,2.29l.6.86-.76-.72c-.47-.47-1.22-1.09-2-2L153,434.74c-.44-.5-.87-1.06-1.33-1.63s-.89-1.19-1.34-1.83a22.81,22.81,0,0,1-1.26-2c-.43-.67-.76-1.41-1.12-2.12s-.62-1.46-.91-2.17-.5-1.44-.65-2.15a18.65,18.65,0,0,1-.4-2,17.23,17.23,0,0,1-.17-1.77,14,14,0,0,1,0-1.43,8.79,8.79,0,0,1,.11-1l.07-.37Z"/><path class="cls-10" d="M420.48,298.75c-9.37-19.81-21.05-38.3-35.34-50.89C368.62,233.31,304.55,265,270,265s-107.85-38.43-115.13-17.13c-10.85,31.73-22.82,69.06-33.09,101.85A135.28,135.28,0,0,0,128.06,377c-.17,14.9.43,23.83,2.27,31.08,18.63-20.61,50.4-43.53,108.16-68.52,16.31-7.06,16.14-26.91,31.52-26.91s15.22,19.85,31.52,26.91c57.76,25,89.53,47.91,108.16,68.52,1.84-7.25,2.44-16.18,2.27-31.08C419.27,356.7,421.19,328.06,420.48,298.75Z"/><path class="cls-16" d="M363.17,393.76c-8.09-5-26.36-16.8-26.36-16.8l14.29,16-81.15,18-32.1-5.79-39.7-6.07s-9.48-4.05-9.8-5.48c2.43-4.31,7.3-9.07,13-10.33-6.78-1.6-16.58,7.28-16.58,7.28a48.69,48.69,0,0,0-7.69,18.6c8.77-10.51,10.33-15.8,11.21-14.56,4.4,1.26.8.54,11.22,6.65C215.67,411.67,236.7,429.36,269,430c28.22.54,50-11.86,71.36-28.76,10.42-6.11,6.82-5.39,11.22-6.65.88-1.24,7.29,6.47,12.75,18.33C364.38,402.39,366.88,396.05,363.17,393.76Z"/><path class="cls-24" d="M272.1,414.76s-1.25,8.83.14,10.63c6,.14,10.32-.66,11.45-2.51,1-3.59,1.74-7,.92-11.21C281.24,412.8,272.1,414.76,272.1,414.76Z"/><path class="cls-24" d="M288.92,411.33s-.93,7.39,0,8.87c2.07,3.28,8.76.3,9.46-2.66s1.2-4.52.65-8C296.23,411.08,288.92,411.33,288.92,411.33Z"/><path class="cls-24" d="M302.37,409.2s-1.38,3.61-.26,5.06c2.49,3.21,9.79.86,10.23-2.12a16.58,16.58,0,0,0,.25-4.74C311,408.13,302.37,409.2,302.37,409.2Z"/><path class="cls-24" d="M313,407.39c1.53-.28,3.68-.64,6.85-1.27C319.19,408.12,315.42,410.57,313,407.39Z"/><path class="cls-24" d="M268.8,414.88s1.4,8.83-.83,9.27c-3.84.76-9.55,1.5-12.58.07-1-3.59-2.69-8.36-1.87-12.56C256.9,412.8,268.8,414.88,268.8,414.88Z"/><path class="cls-24" d="M251.37,411.25s1.11,7.85,0,9.42c-2.47,3.49-8.91.71-9.75-2.43s-1.43-4.81-.77-8.48C244.18,411.38,251.37,411.25,251.37,411.25Z"/><path class="cls-24" d="M237.25,409.2s1.38,3.61.26,5.06c-2.49,3.21-7.71.67-8.14-2.31a11.58,11.58,0,0,1-.22-4C231.05,408.48,237.25,409.2,237.25,409.2Z"/><path class="cls-24" d="M226.63,407.39c-1.53-.28-3.68-.64-6.85-1.27C220.43,408.12,224.21,410.57,226.63,407.39Z"/><path class="cls-25" d="M301.7,412.23a7.34,7.34,0,0,0,0,.88c3.73-1.06,7.42-2.25,10.84-3.59a12,12,0,0,0,0-2.13c-2.45,1-10.21,1.81-10.21,1.81a21.8,21.8,0,0,0-.59,2.27"/><path class="cls-25" d="M299.27,411.53a6.44,6.44,0,0,0-.25-2c-2.43,1.43-10.1,1.77-10.1,1.77s-.32,2.53-.4,4.93c3.34-.85,7-1.89,10.61-3.14,0-.29.05-.58.07-.87"/><path class="cls-25" d="M313,407.39a4.66,4.66,0,0,0,1.18,1.08c.51-.16,4.94-.93,5.3-1.6.13-.25.25-.53.38-.75C318.07,406.34,315.48,406.94,313,407.39Z"/><path class="cls-25" d="M284.78,416.8a15.5,15.5,0,0,0-.16-5.13c-3.37,1.12-12.51,3.09-12.51,3.09s-.25,2.27-.43,4.7C273.21,419.25,276.73,418.42,284.78,416.8Z"/><path class="cls-25" d="M237.93,412.23a7.34,7.34,0,0,1,0,.88,78.37,78.37,0,0,1-8.76-2.8,13.88,13.88,0,0,1-.05-2.32c2.5.48,8.17,1.22,8.17,1.22a21.8,21.8,0,0,1,.59,2.27Z"/><path class="cls-25" d="M240.85,409.76c2.89,1.52,10.51,1.49,10.51,1.49s.38,2.69.47,5.24c-4-.9-7-1.68-11.28-3,0-.3,0-.57,0-.88A13.79,13.79,0,0,1,240.85,409.76Z"/><path class="cls-25" d="M226.63,407.39a4.66,4.66,0,0,1-1.18,1.08c-.51-.16-4.94-.93-5.3-1.6-.13-.25-.25-.53-.38-.75C221.55,406.34,224.14,406.94,226.63,407.39Z"/><path class="cls-25" d="M253.36,416.8a15.5,15.5,0,0,1,.16-5.13c3.37,1.12,15.28,3.21,15.28,3.21s.34,2.18.51,4.61C267.78,419.29,261.41,418.42,253.36,416.8Z"/><path class="cls-23" d="M323.87,429.38c-13.21,9.16-28.46,18.11-53.92,18.6v22s28.47,3.31,53-32.13C335.93,419.17,326.54,427.52,323.87,429.38Z"/><path class="cls-9" d="M210.24,474.38l1.32-.33c.86-.19,2.12-.52,3.74-.85,3.22-.71,7.84-1.63,13.4-2.55s12.07-1.85,19.07-2.63c3.5-.39,7.13-.74,10.83-1,1.86-.11,3.72-.29,5.61-.35s3.76-.14,5.79-.18l2.81.06,2.87.12c1.93.06,3.76.23,5.63.35,3.7.27,7.33.63,10.83,1,7,.77,13.51,1.7,19.07,2.63s10.18,1.84,13.4,2.55c1.61.33,2.88.66,3.74.85l1.32.33-1.36.07c-.88,0-2.18.11-3.83.13-3.3.1-8,.16-13.62.1s-12.17-.22-19.17-.48l-10.76-.43-5.48-.19-2.73-.08-2.81,0c-1.71,0-3.6,0-5.42.11l-5.5.19-10.76.42c-7,.26-13.54.43-19.17.48s-10.33,0-13.62-.09c-1.65,0-2.95-.1-3.83-.13Z"/><path class="cls-9" d="M378.89,396.32s.2.37.45,1,.61,1.46,1,2.56a38.22,38.22,0,0,1,1.75,9.32,41.54,41.54,0,0,1-1.3,13.12,45.24,45.24,0,0,1-2.42,7l-.77,1.72-.87,1.68c-.55,1.14-1.24,2.2-1.87,3.29s-1.39,2.1-2.07,3.15-1.5,2-2.24,3-1.58,1.88-2.35,2.8-1.63,1.75-2.42,2.61-1.65,1.62-2.44,2.41l-1.2,1.15-1.22,1.07-2.34,2-2.27,1.8c-1.43,1.18-2.83,2.15-4,3s-2.3,1.63-3.2,2.22l-2.82,1.88,2.7-2.05c.86-.65,1.9-1.44,3-2.41s2.48-2,3.83-3.27l2.13-1.93,2.18-2.16,1.13-1.13,1.11-1.21c.73-.82,1.54-1.62,2.25-2.52s1.49-1.76,2.2-2.69,1.42-1.89,2.11-2.86,1.34-2,2-3,1.25-2.07,1.8-3.14,1.13-2.13,1.58-3.24l.72-1.64.62-1.66a42,42,0,0,0,1.84-6.62,37.71,37.71,0,0,0,.44-12,33.69,33.69,0,0,0-2.05-8.09c-.37-.92-.71-1.61-.94-2.07s-.33-.58-.35-.63Z"/><path class="cls-9" d="M393.93,416.24l.07.37a8.8,8.8,0,0,1,.11,1,14,14,0,0,1,0,1.43,17.23,17.23,0,0,1-.17,1.77,18.66,18.66,0,0,1-.4,2c-.15.71-.42,1.41-.65,2.15s-.56,1.46-.91,2.17-.69,1.44-1.12,2.12a22.81,22.81,0,0,1-1.26,2c-.45.64-.86,1.27-1.34,1.83s-.89,1.13-1.33,1.63l-1.27,1.37c-.77.86-1.52,1.48-2,2l-.76.72.6-.86c.37-.56,1-1.3,1.53-2.29l.95-1.57c.32-.56.62-1.18.94-1.8s.6-1.29.89-2a20.75,20.75,0,0,0,.77-2.06c.26-.68.41-1.4.6-2.08s.27-1.37.39-2,.17-1.29.16-1.88a14.62,14.62,0,0,0,0-1.65,12.74,12.74,0,0,0-.15-1.34,9.15,9.15,0,0,0-.21-1,3.18,3.18,0,0,0-.17-.5s-.07-.17-.07-.16Z"/><g class="cls-26"><path class="cls-20" d="M292.59,343.89l.68-.29a13.53,13.53,0,0,1,2-.68,12.67,12.67,0,0,1,3.26-.44,11.59,11.59,0,0,1,4.25.8c3,1.13,6,3.38,8.85,5.95,1.44,1.29,2.9,2.65,4.32,4.09s2.85,2.9,4.27,4.37l4.17,4.45c1.38,1.46,2.7,2.94,4,4.34l7,7.74,4.93,5.53c1.19,1.34,1.85,2.12,1.85,2.12s-.78-.66-2.12-1.85-3.26-2.89-5.48-5-4.8-4.6-7.5-7.33c-1.34-1.37-2.75-2.77-4.13-4.22l-4.22-4.4c-1.4-1.48-2.8-3-4.2-4.4s-2.76-2.85-4.14-4.16-2.71-2.55-4.07-3.6a22.16,22.16,0,0,0-4-2.58,11.65,11.65,0,0,0-7-1,19.37,19.37,0,0,0-2,.4Z"/></g></g></g></g></g></svg>