<svg xmlns="http://www.w3.org/2000/svg" viewBox="0 0 760.32 1056"><defs><style>.cls-1{isolation:isolate;}.cls-2{fill:none;}.cls-12,.cls-3{fill:#212121;}.cls-13,.cls-22,.cls-4{opacity:0.3;}.cls-5{opacity:0.6;}.cls-6{fill:#ef5350;}.cls-7{fill:#ef9a9a;}.cls-8{fill:#ffebee;}.cls-9{fill:#e53935;}.cls-10{fill:#ffca28;}.cls-11{opacity:0.7;}.cls-12{opacity:0.2;}.cls-13,.cls-14,.cls-22{fill:#fff;}.cls-15{fill:#424242;}.cls-16{opacity:0.5;}.cls-17{fill:#efebe9;}.cls-18,.cls-19,.cls-20{fill:#e0e0e0;}.cls-18,.cls-19,.cls-22{mix-blend-mode:soft-light;}.cls-19{opacity:0.8;}.cls-20{mix-blend-mode:overlay;}.cls-21{fill:#bdbdbd;mix-blend-mode:multiply;}</style></defs><title>starwarsdarthmaul</title><g class="cls-1"><g id="Layer_2" data-name="Layer 2"><g id="Layer_1-2" data-name="Layer 1"><rect class="cls-2" width="760.32" height="1056"/><g id="Darth_Maul" data-name="Darth Maul"><g id="clothes1"><path class="cls-3" d="M428.42,922.25V928a48.26,48.26,0,1,1-96.53,0v-5.79A142.21,142.21,0,0,0,238,1056H522.32A142.21,142.21,0,0,0,428.42,922.25Z"/><polygon points="334.14 965.96 393.65 1055.98 382.89 1030.36 426.18 965.96 334.14 965.96"/><path class="cls-4" d="M435.57,925.08q-3.54-.37-7.15-.7V928a48.26,48.26,0,1,1-96.53,0v-3.66q-3.6.33-7.15.7a142.55,142.55,0,0,0-79.21,85.21c16.8,6.48,38.3,11.73,62.88,15.23L329.11,1056h16.57l-19.35-28.29a544.35,544.35,0,0,0,107.65,0L414.64,1056h16.57l20.69-30.47c24.59-3.5,46.08-8.75,62.88-15.23A142.55,142.55,0,0,0,435.57,925.08Z"/><path class="cls-3" d="M571.87,341.71c-37.53-44.19-191.71-85.94-191.71-85.94S226,297.53,188.45,341.71c-99,215.14-193.31,506.57-85.18,589.11,115.3,88,276.89,45.49,276.89,45.49s161.59,42.52,276.89-45.49C765.18,848.29,670.9,556.86,571.87,341.71Z"/><path class="cls-5" d="M541.79,501.23s-6.4-64.18-25.19-79.29-136.43-72.39-136.43-72.39S262.5,406.84,243.71,421.94s-25.16,78.92-25.19,79.28h0L202.45,688.59c-12.11,55.1-40,194-20.63,222.88,24.34,36.2,56.4,55.55,114.49,54.49s83.85,0,83.85,0,25.75-1.06,83.85,0,90.14-18.3,114.49-54.49c19.41-28.86-8.52-167.78-20.63-222.88Z"/></g><path class="cls-6" d="M220.72,512.75c14,56.69,4.86,82,4.86,82S212.05,628,207.59,666c-2.46,20.94,28.52,42.23,34.49,48.41,5,.48,12.54-10.36,12.54-10.36s5.39,2.11,4.39,4.56c-3.44,8.47-11.41,12.87-11.41,12.87s24.2,25.45,42.1,66.37c9.11,20.81,11.76,29.14,11.76,29.14s12.6-15.67,18.26-25.77A157.24,157.24,0,0,1,336,768.35l44.18,45.71,44.18-45.71a157.24,157.24,0,0,1,16.27,22.86c5.66,10.1,18.26,25.77,18.26,25.77s2.65-8.33,11.76-29.14c17.91-40.91,42.1-66.37,42.1-66.37s-8-4.4-11.41-12.87c-1-2.45,4.39-4.56,4.39-4.56s7.54,10.84,12.54,10.36c6-6.17,36.95-27.47,34.49-48.41-4.46-38-18-71.22-18-71.22s-9.16-25.34,4.86-82c15-60.83-26.56-111-66.78-140.48H485C447.73,349.69,408.09,342,380.16,342s-67.57,7.73-104.81,30.31H287.5C247.28,401.78,205.68,451.92,220.72,512.75Z"/><path class="cls-6" d="M417.74,863.11s9.69-1.63,13.8-15.42c2.25-7.55-2.09-12.71-6.49-15.85-9.29-1.06-44.89-1.59-44.89-1.59s-35.6.53-44.89,1.59c-4.4,3.14-8.74,8.3-6.49,15.85,4.12,13.79,13.8,15.42,13.8,15.42s-24,7.24-18.81,35.43c3.77,20.3,33,23.27,56.39,23.27s52.62-3,56.39-23.27C441.78,870.35,417.74,863.11,417.74,863.11Z"/><path class="cls-7" d="M334.95,633.31c-3.68-5.34-6-7.17-12.6-12.64-9.2-7.61-23.59-12.55-41.28-7.52-19.71,5.6-26.26,26.89-26.26,26.89s18,11.24,41,12.08c20,.73,31.93-5.89,35-7.32C339.68,650.92,341.25,642.44,334.95,633.31Z"/><path class="cls-8" d="M335.11,635.81c-.73-6.45-6.15-9.67-12.77-15.15-9.2-7.61-23.59-12.55-41.28-7.52-11.53,3.28-18.56,11.92-22.4,18.53a8.71,8.71,0,0,0,3.9,12.35,90.85,90.85,0,0,0,33.2,8.09c20,.73,30.83-7.4,33.87-8.84C331.29,642.25,335.74,641.39,335.11,635.81Z"/><circle class="cls-9" cx="296.82" cy="626.14" r="22.6"/><circle class="cls-10" cx="296.82" cy="626.14" r="13.2"/><circle class="cls-3" cx="296.82" cy="626.14" r="4.93"/><path class="cls-3" d="M344.48,662.75c9.82-9.63,14.15-23.93,5.77-42.08-11-23.81-47.76-39.33-47.76-39.33,0-11.74-20.11-30.91-29.77-35.4-2.2-1-5.54-2.51-4.1,4.73,2.1,10.5.09,13,.09,13s-22.5,18.62-39.53,33.91c-22.48,28.63,3.8,52.72,13.59,70,6.2,2.89,5.52,22.13,5.52,35,9.77,1.89,37.8-7.25,48.52-23.32,5.47-8.2,11-7.69,11-7.69l.77,12.1S325.89,681,344.48,662.75Zm-13.75-18c-3,1.44-15,8.05-35,7.32-23-.84-41-12.08-41-12.08s6.55-21.28,26.26-26.89c17.69-5,32.08-.09,41.28,7.52,6.62,5.48,8.92,7.3,12.6,12.64C341.25,642.44,339.68,650.92,330.74,644.79Z"/><path class="cls-11" d="M254.81,640c-4.5,15.06,12.09,29.24,36.54,28.42,23.17-.78,46-13,47.42-25.14,1.39-11.66,5.66,4.91,8.75-4.42,1.8-5.43,6.39-9.81,4.47-14-6.52-14.32-12.24-24.33-38.87-33.52-21.1-7.29-44.34-10.73-63.9,9.1C228.09,635.2,252,643.91,254.81,640Zm26.26-26.89c17.69-5,32.08-.09,41.28,7.52,6.62,5.48,8.92,7.3,12.6,12.64,6.3,9.13,4.74,17.61-4.21,11.48-3,1.44-15,8.05-35,7.32-23-.84-41-12.08-41-12.08S261.35,618.75,281.07,613.14Z"/><path class="cls-3" d="M255.68,519.61c-1.38,1.83-2.16,9.06,2.77,8.72,10.76-.73,22.11,5.49,24,2.58s-2.61-12.06-8.22-14.35S260.21,513.58,255.68,519.61Z"/><path class="cls-12" d="M334.95,633.31c-3.68-5.34-6-7.17-12.6-12.64-9.2-7.61-23.59-12.55-41.28-7.52-19.71,5.6-26.26,26.89-26.26,26.89s18,11.24,41,12.08c20,.73,31.93-5.89,35-7.32C339.68,650.92,341.25,642.44,334.95,633.31Zm-15.53,13.55c-10.08,5-62.64,5-57-13.69,1.54-5.09,9.79-12,14.44-14.37,12.17-6.28,22.2-4.23,23.4-4.08C313.12,616.29,328.35,642.44,319.42,646.86Z"/><path class="cls-13" d="M265.38,631.64a86.06,86.06,0,0,0,35.22,0c22.26-4.88,26.73,15.48-.16,16S259.85,640.2,265.38,631.64Z"/><path class="cls-14" d="M283.86,618c2.1.47,1.67,3.79.86,7.42s-1.7,6.2-3.8,5.73-4.61-3.79-3.8-7.42S281.76,617.55,283.86,618Z"/><path class="cls-15" d="M251.45,635.2a49.26,49.26,0,0,1,4.66-9.56q1.43-2.26,3-4.42c1.09-1.42,2.27-2.78,3.5-4.1a44.39,44.39,0,0,1,8.36-7,36.59,36.59,0,0,1,10.08-4.4,38.18,38.18,0,0,1,5.43-.92,47.78,47.78,0,0,1,5.41-.29c1.81,0,3.62.09,5.41.26a49.11,49.11,0,0,1,5.35.86,44.76,44.76,0,0,1,10.18,3.52,32.88,32.88,0,0,1,8.75,6.06,42.23,42.23,0,0,0-9.38-4.56,53.18,53.18,0,0,0-10-2.44,58.19,58.19,0,0,0-10.23-.49,50,50,0,0,0-10,1.33,35.56,35.56,0,0,0-9.22,3.9,44.76,44.76,0,0,0-4.23,2.81q-2,1.56-3.93,3.28A78,78,0,0,0,251.45,635.2Z"/><path class="cls-7" d="M429.58,644.79c3,1.44,15,8.05,35,7.32,23-.84,41-12.08,41-12.08s-6.55-21.28-26.26-26.89c-17.69-5-32.08-.09-41.28,7.52-6.62,5.48-8.92,7.3-12.6,12.64C419.07,642.44,420.64,650.92,429.58,644.79Z"/><path class="cls-8" d="M430.68,643.27c3,1.44,13.91,9.57,33.87,8.84a90.85,90.85,0,0,0,33.2-8.09,8.71,8.71,0,0,0,3.9-12.35c-3.85-6.61-10.87-15.25-22.4-18.53-17.69-5-32.08-.09-41.28,7.52-6.62,5.48-12,8.7-12.77,15.15C424.58,641.39,429,642.25,430.68,643.27Z"/><circle class="cls-9" cx="463.5" cy="626.14" r="22.6"/><circle class="cls-10" cx="463.5" cy="626.14" r="14.67"/><circle class="cls-3" cx="463.5" cy="626.14" r="4.93"/><path class="cls-3" d="M451.74,683.72l.77-12.1s5.52-.51,11,7.69c10.72,16.06,38.76,25.21,48.52,23.32,0-12.89-.68-32.13,5.52-35,16.85-7.84,36.07-41.39,13.59-70-17-15.29-39.53-33.91-39.53-33.91s-2-2.52.09-13c1.45-7.23-1.9-5.75-4.1-4.73-9.66,4.49-29.77,23.66-29.77,35.4,0,0-36.77,15.52-47.76,39.33-8.38,18.15-4.06,32.45,5.77,42.08C434.43,681,451.74,683.72,451.74,683.72Zm-26.36-50.41c3.68-5.34,6-7.17,12.6-12.64,9.2-7.61,23.59-12.55,41.28-7.52C499,618.75,505.51,640,505.51,640s-18,11.24-41,12.08c-20,.73-31.93-5.89-35-7.32C420.64,650.92,419.07,642.44,425.37,633.31Z"/><path class="cls-11" d="M511.11,600.44c-19.56-19.83-42.8-16.39-63.9-9.1-26.63,9.19-32.35,19.2-38.87,33.52-1.92,4.22,2.67,8.6,4.47,14,3.09,9.33,7.36-7.24,8.75,4.42C423,655.4,445.81,667.66,469,668.45c24.45.83,41-13.36,36.54-28.42C508.3,643.91,532.24,635.2,511.11,600.44ZM505.52,640s-18,11.24-41,12.08c-20,.73-31.93-5.89-35-7.32-8.95,6.13-10.51-2.35-4.21-11.48,3.68-5.34,6-7.17,12.6-12.64,9.2-7.61,23.59-12.55,41.28-7.52C499,618.75,505.52,640,505.52,640Z"/><path class="cls-12" d="M429.58,644.79c3,1.44,15,8.05,35,7.32,23-.84,41-12.08,41-12.08s-6.55-21.28-26.26-26.89c-17.69-5-32.08-.09-41.28,7.52-6.62,5.48-8.92,7.3-12.6,12.64C419.07,642.44,420.64,650.92,429.58,644.79ZM460,614.72c1.2-.15,11.23-2.21,23.4,4.08,4.65,2.4,12.89,9.27,14.44,14.37,5.67,18.7-46.89,18.69-57,13.69C432,642.44,447.2,616.29,460,614.72Z"/><path class="cls-13" d="M494.94,631.64a86.06,86.06,0,0,1-35.22,0c-22.26-4.88-26.73,15.48.16,16S500.47,640.2,494.94,631.64Z"/><path class="cls-14" d="M450.54,618c2.1.47,1.67,3.79.86,7.42s-1.7,6.2-3.8,5.73-4.61-3.79-3.8-7.42S448.44,617.55,450.54,618Z"/><path class="cls-15" d="M508.87,635.2a78,78,0,0,0-13.12-16.14q-1.91-1.72-3.93-3.28A44.73,44.73,0,0,0,487.6,613a35.56,35.56,0,0,0-9.22-3.9,50,50,0,0,0-10-1.33,58.19,58.19,0,0,0-10.23.49,53.18,53.18,0,0,0-10,2.44,42.23,42.23,0,0,0-9.38,4.56,32.88,32.88,0,0,1,8.75-6.06,44.76,44.76,0,0,1,10.18-3.52,49.11,49.11,0,0,1,5.35-.86c1.8-.17,3.61-.26,5.41-.26a47.78,47.78,0,0,1,5.41.29,38.18,38.18,0,0,1,5.43.92,36.58,36.58,0,0,1,10.08,4.4,44.39,44.39,0,0,1,8.36,7c1.23,1.32,2.41,2.68,3.5,4.1s2.09,2.91,3,4.42A49.24,49.24,0,0,1,508.87,635.2Z"/><path class="cls-3" d="M355.13,584.42c-2.3-1.19-3.82-4-5.77-11.15s-.36-42.7-4.94-62.94c-5.66-25-9.67-48.76-18.91-53.76-13.93-5.92-26.5,11.59-26.5,11.59l-9.69,9-25.72-4.84-8.39-16.3L267.16,432l-8,4.13L243,460.83l8.39,4.21a151.7,151.7,0,0,1-6.16,20.06c.93.67,4.45-1.22,6.64,0,7.89,4.4,19.55,16.3,29.59,17.52,8.4-9.16,24.21-28.52,24.21-28.52h6.15l-2.11,39.55,9.75,50.6,23.91,23.37,12.08,3.18s-13.94,12.66-29.89,13c-3.35.07-.53,9.63,9.65,9.64,15.5,0,29.09-21.45,29.09-21.45V588.8S357.44,585.62,355.13,584.42Z"/><path class="cls-3" d="M250.52,690.62c0,10.67-9.54,22.52-9.54,22.52l12.27,4c3.62.78,16,7.19,20.23,12.33,7.73,9.47,22.1,39.12,22.1,39.12s19.57-35.66,40.62-57.3c1.82-1.87-.39-5-2.94-4.44,0,0-11.17,5.83-12.82,7.16-13.37,10.81-24.86,32.15-24.86,32.15s-7-14.56-13.8-22.78c-9.61-11.58-29.92-13.21-29.92-13.21l12.41-28S250.52,686.59,250.52,690.62Z"/><path class="cls-3" d="M207.07,611.44s-1.58,12.54,17.17,26.45c10.45,7.75,7.64-10.69,7.64-10.69s-15.67-1.06-18.39-32.51C213.5,608.18,207.07,611.44,207.07,611.44Z"/><path class="cls-3" d="M364.17,838.92l-.06.48c0,.33-.07.82-.1,1.42a35.26,35.26,0,0,0,.06,4.37c.06.78.16,1.53.28,2.22s.28,1.28.42,1.78l.22.64a4.1,4.1,0,0,0,.19.46l.16.39.26.62a3.62,3.62,0,0,1-6.24,3.56l-.49-.66c-.15-.21-.37-.47-.54-.77l-.62-1a26.85,26.85,0,0,1-1.23-2.54c-.38-.93-.74-1.92-1-2.91a44.29,44.29,0,0,1-1.27-5.47c-.12-.75-.21-1.39-.26-1.85l-.08-.76v-.08a5.21,5.21,0,1,1,10.36-1A5.48,5.48,0,0,1,364.17,838.92Z"/><line class="cls-3" x1="380.16" y1="702.75" x2="380.16" y2="516.31"/><rect class="cls-3" x="376.71" y="516.31" width="6.9" height="186.44"/><line class="cls-3" x1="365.6" y1="619.03" x2="380.16" y2="619.03"/><path class="cls-3" d="M380.16,622.48H365.6a3.45,3.45,0,1,1,0-6.9h14.56a3.45,3.45,0,1,1,0,6.9Z"/><path class="cls-3" d="M380.16,756.65l-35.73-1,35.73,41.68,35.73-41.68Z"/><path class="cls-11" d="M380.16,756.65l-38.33-1,38.33,41.68,38.33-41.68Z"/><path class="cls-3" d="M427.4,749.83c-1.15-10-10.94-21-20.87-32.66-3.66,7.81-19.67,27.7-26.37,27.76s-22.71-20-26.37-27.76c-9.93,11.7-19.72,22.64-20.87,32.66s15.54,12.07,25.56,10.64c6,4.14,13.73,8.16,21.68,8.16s15.72-4,21.68-8.16C411.86,761.9,428.55,759.84,427.4,749.83Z"/><path class="cls-3" d="M509.8,690.62c0,10.67,9.54,22.52,9.54,22.52l-12.27,4c-3.62.78-16,7.19-20.23,12.33-7.73,9.47-22.1,39.12-22.1,39.12s-19.57-35.66-40.62-57.3c-1.82-1.87.39-5,2.94-4.44,0,0,11.17,5.83,12.82,7.16,13.37,10.81,24.86,32.15,24.86,32.15s7-14.56,13.8-22.78c9.61-11.58,29.92-13.21,29.92-13.21l-12.41-28S509.8,686.59,509.8,690.62Z"/><path class="cls-3" d="M396.15,838.92l.06.48c0,.33.07.82.1,1.42a35.26,35.26,0,0,1-.06,4.37c-.06.78-.16,1.53-.28,2.22s-.28,1.28-.42,1.78l-.22.64a4.1,4.1,0,0,1-.19.46l-.16.39-.26.62a3.62,3.62,0,0,0,6.24,3.56l.49-.66c.15-.21.37-.47.54-.77l.62-1a26.85,26.85,0,0,0,1.23-2.54c.38-.93.74-1.92,1-2.91a44.29,44.29,0,0,0,1.27-5.47c.12-.75.21-1.39.26-1.85l.08-.76v-.08a5.21,5.21,0,1,0-10.36-1A5.48,5.48,0,0,0,396.15,838.92Z"/><path class="cls-3" d="M394.69,896.46a10.34,10.34,0,0,0-.31-1.92,15,15,0,0,0-.58-1.8,15.9,15.9,0,0,0-.76-1.67c-.29-.52-.59-1-.91-1.53a27.46,27.46,0,0,0-4.4-5.19,13.86,13.86,0,0,0-1.28-1,12,12,0,0,0-1.4-.86,11.17,11.17,0,0,0-1.16-.5q.35-1.78.63-3.56c.17-1,.28-2,.41-2.94s.26-2,.36-2.94c.42-3.91.68-7.83.81-11.74,0-1,.05-2,.07-2.94s0-2,0-2.94c0-2-.08-3.91-.22-5.87s-.33-3.91-.61-5.87c-.13-1-.33-2-.49-2.94-.1-.49-.2-1-.31-1.47s-.23-1-.37-1.47a4.24,4.24,0,0,0-.26-.65l-.12-.24a4.3,4.3,0,0,0-.33-.5l-.2-.24-.29-.29-.2-.18a4.17,4.17,0,0,0-.54-.37l-.17-.09a4.1,4.1,0,0,0-.52-.23l-.16-.06-.07,0-.28-.05a4.13,4.13,0,0,0-.48-.09c-.14,0-.27,0-.41,0s-.27,0-.41,0a4.13,4.13,0,0,0-.48.09l-.28.05-.07,0-.16.06a4.11,4.11,0,0,0-.52.23l-.17.09a4.17,4.17,0,0,0-.54.37l-.2.18-.29.29-.2.24a4.3,4.3,0,0,0-.33.5l-.12.24a4.24,4.24,0,0,0-.26.65c-.14.49-.26,1-.37,1.47s-.21,1-.31,1.47c-.16,1-.36,2-.49,2.94-.28,2-.47,3.91-.61,5.87s-.19,3.91-.22,5.87c0,1,0,2,0,2.94s0,2,.07,2.94c.13,3.91.39,7.83.81,11.74.1,1,.23,2,.36,2.94s.24,2,.41,2.94q.28,1.78.63,3.56h0a11.17,11.17,0,0,0-1.16.5,12,12,0,0,0-1.4.86,13.86,13.86,0,0,0-1.28,1,27.46,27.46,0,0,0-4.4,5.19c-.32.49-.62,1-.91,1.53a15.9,15.9,0,0,0-.76,1.67,15,15,0,0,0-.58,1.8,10.34,10.34,0,0,0-.31,1.92,11,11,0,0,0,0,2,10,10,0,0,0,.47,1.92,7.6,7.6,0,0,0,.86,1.7,8.89,8.89,0,0,0,1.15,1.39,1.3,1.3,0,0,0,2.25-1.11l0-.27a8.85,8.85,0,0,1-.18-1.28,5.61,5.61,0,0,1,0-1.16,5.52,5.52,0,0,1,.24-1.05,7.25,7.25,0,0,1,.42-1,8.76,8.76,0,0,1,.57-.93,9.34,9.34,0,0,1,.68-.9c.25-.3.53-.58.8-.87s.56-.58.88-.86.63-.55,1-.82l1-.8c.7-.52,1.41-1,2.15-1.52a15.83,15.83,0,0,0,2.1-1.67l.16-.17.16.17a15.83,15.83,0,0,0,2.1,1.67c.75.49,1.45,1,2.15,1.52l1,.8c.32.27.66.54,1,.82s.6.57.88.86.56.57.8.87a9.34,9.34,0,0,1,.68.9,8.76,8.76,0,0,1,.57.93,7.25,7.25,0,0,1,.42,1,5.52,5.52,0,0,1,.24,1.05,5.61,5.61,0,0,1,0,1.16,8.85,8.85,0,0,1-.18,1.28l0,.27a1.3,1.3,0,0,0,2.25,1.11,8.89,8.89,0,0,0,1.15-1.39,7.6,7.6,0,0,0,.86-1.7,10,10,0,0,0,.47-1.92A11,11,0,0,0,394.69,896.46Z"/><path class="cls-3" d="M380.16,686c-5.91,5-14.56,17.06-14.56,17.06s7.57,12.35,14.56,16.38c7-4,14.56-16.38,14.56-16.38S386.07,691.06,380.16,686Z"/><polygon class="cls-3" points="380.17 686 392.76 670.95 380.26 656.11 380.26 655.88 380.16 655.99 380.06 655.88 380.06 656.11 367.56 670.95 380.15 686 380.15 686.03 380.16 686.02 380.17 686.03 380.17 686"/><polygon class="cls-3" points="380.17 602.71 392.76 587.66 380.26 572.81 380.26 572.58 380.16 572.7 380.06 572.58 380.06 572.81 367.56 587.66 380.15 602.71 380.15 602.73 380.16 602.72 380.17 602.73 380.17 602.71"/><line class="cls-3" x1="394.72" y1="619.03" x2="380.16" y2="619.03"/><path class="cls-3" d="M394.72,622.48H380.16a3.45,3.45,0,1,1,0-6.9h14.56a3.45,3.45,0,1,1,0,6.9Z"/><path class="cls-3" d="M259.25,438.42c-6.52-1.22-17.92-14-1.79-34.87,17.55-22.75,62-56,102.37-60.37,21.08-2.28,20.33-1.2,20.33-1.2s-38.93,5.06-52.29,21.82c-10.08,12.65,17.48,32.33-1.34,53C306.61,438.72,282.49,442.76,259.25,438.42Z"/><path class="cls-3" d="M400.23,358.17C395.42,343.53,380.16,342,380.16,342s-15.26,1.57-20.07,16.21c-21.52,65.5,2.94,148.07,20.07,188.73C397.3,506.24,421.76,423.67,400.23,358.17Z"/><path class="cls-3" d="M405.19,584.42c2.3-1.19,3.82-4,5.77-11.15s.36-42.7,4.94-62.94c5.66-25,9.67-48.76,18.91-53.76,13.93-5.92,26.5,11.59,26.5,11.59l9.69,9,25.72-4.84,8.39-16.3L493.16,432l8,4.13,16.14,24.71L509,465a151.7,151.7,0,0,0,6.16,20.06c-.93.67-4.45-1.22-6.64,0-7.89,4.4-19.55,16.3-29.59,17.52-8.4-9.16-24.21-28.52-24.21-28.52h-6.15l2.11,39.55-9.75,50.6L417,587.61l-12.08,3.18s13.94,12.66,29.89,13c3.35.07.53,9.63-9.65,9.64-15.5,0-29.09-21.45-29.09-21.45V588.8S402.88,585.62,405.19,584.42Z"/><path class="cls-3" d="M504.64,519.61c1.38,1.83,2.16,9.06-2.77,8.72-10.76-.73-22.11,5.49-24,2.58s2.61-12.06,8.22-14.35S500.11,513.58,504.64,519.61Z"/><path class="cls-3" d="M501.07,438.42c6.52-1.22,17.92-14,1.79-34.87-17.55-22.75-62-56-102.37-60.37-21.08-2.28-20.33-1.2-20.33-1.2s38.93,5.06,52.29,21.82c10.08,12.65-17.48,32.33,1.34,53C453.71,438.72,477.83,442.76,501.07,438.42Z"/><path class="cls-3" d="M586.79,634.78q.21-2.27.41-4.53.1-1.12.19-2.23.18-2.25.34-4.47c0-.65.1-1.3.14-1.95q.22-3.15.39-6.26v-.08q.17-3.06.3-6.07c0-.65.05-1.29.08-1.93q.08-2.12.15-4.23,0-1.05.06-2.1.05-2.12.09-4.21c0-.6,0-1.21,0-1.81q0-3,0-5.87c0-.08,0-.16,0-.24q0-2.79,0-5.54c0-.61,0-1.21,0-1.81q0-2-.09-4,0-1-.06-2-.07-2-.15-3.95c0-.56,0-1.13-.07-1.69q-.13-2.77-.3-5.5l0-.3q-.16-2.57-.36-5.11c0-.57-.09-1.13-.14-1.7q-.15-1.86-.32-3.7-.08-.91-.17-1.82-.18-1.87-.38-3.72c-.06-.52-.11-1-.17-1.55q-.29-2.59-.62-5.14l0-.35q-.31-2.37-.64-4.71c-.08-.53-.16-1-.23-1.57q-.26-1.75-.54-3.47-.14-.84-.27-1.68-.29-1.75-.6-3.49c-.08-.48-.17-1-.25-1.43q-.44-2.41-.91-4.79l-.08-.37q-.44-2.19-.9-4.34c-.11-.49-.21-1-.32-1.46q-.36-1.63-.73-3.24l-.37-1.56q-.39-1.65-.8-3.27l-.32-1.29q-.58-2.25-1.18-4.46l-.1-.37q-.56-2-1.14-4l-.4-1.34q-.45-1.52-.92-3l-.45-1.43q-.49-1.55-1-3.07l-.38-1.15q-.7-2.09-1.44-4.14l-.13-.35q-.67-1.87-1.36-3.7l-.47-1.22q-.54-1.42-1.1-2.82l-.52-1.29q-.59-1.45-1.19-2.88l-.43-1q-.82-1.93-1.67-3.83l-.14-.31q-.77-1.72-1.57-3.42l-.52-1.1q-.63-1.32-1.27-2.63l-.57-1.16q-.68-1.36-1.37-2.7l-.46-.9q-.93-1.79-1.89-3.55l-.14-.26q-.87-1.6-1.77-3.17l-.56-1q-.71-1.23-1.43-2.45l-.61-1q-.76-1.27-1.54-2.52l-.48-.77q-1-1.65-2.08-3.26l-.15-.23q-1-1.47-1.94-2.91l-.6-.87q-.78-1.14-1.57-2.26l-.65-.92q-.85-1.19-1.71-2.35l-.48-.65q-1.12-1.51-2.26-3l-.14-.18q-1-1.36-2.11-2.68l-.61-.76-1.72-2.09-.66-.8q-.93-1.1-1.86-2.18l-.47-.54q-1.2-1.38-2.41-2.72l-.14-.15q-1.12-1.23-2.25-2.44l-.62-.65-1.85-1.93-.66-.68-2-2-.43-.43q-1.27-1.25-2.56-2.47l-.1-.09q-1.2-1.14-2.41-2.24l-.61-.56-2-1.77-.66-.58L511,391l-.4-.35q-1.33-1.13-2.67-2.22l-.06-.05q-1.26-1-2.53-2l-.6-.47-2.08-1.61-.64-.49-2.3-1.71-.34-.25q-1.38-1-2.77-2l0,0q-1.31-.92-2.62-1.81l-.6-.4-2.15-1.43-.63-.41-2.41-1.55-.28-.18q-1.42-.89-2.85-1.76H472.82c40.22,29.51,81.82,79.65,66.78,140.48-14,56.69-4.86,82-4.86,82s13.53,33.19,18,71.22c2.46,20.94-28.52,42.23-34.49,48.41-5,.48-12.54-10.36-12.54-10.36s-5.39,2.11-4.39,4.56c3.44,8.47,11.41,12.87,11.41,12.87s-24.2,25.45-42.1,66.37C461.51,808.65,458.86,817,458.86,817s-12.6-15.67-18.26-25.77a157.24,157.24,0,0,0-16.27-22.86l-44.18,45.71L336,768.35a157.24,157.24,0,0,0-16.27,22.86c-5.66,10.1-18.26,25.77-18.26,25.77s-2.65-8.33-11.76-29.14c-17.91-40.91-42.1-66.37-42.1-66.37s8-4.4,11.41-12.87c1-2.45-4.39-4.56-4.39-4.56s-7.54,10.84-12.54,10.36c-6-6.17-36.95-27.47-34.49-48.41,4.46-38,18-71.22,18-71.22s9.16-25.34-4.86-82c-15-60.83,26.56-111,66.78-140.48H275.35q-1.43.86-2.85,1.76l-.29.19-2.41,1.54-.63.41L267,377.6l-.6.4q-1.31.89-2.62,1.81l0,0q-1.39,1-2.77,2l-.34.25-2.3,1.71-.64.49-2.08,1.61-.6.47q-1.27,1-2.53,2l-.06.05q-1.34,1.1-2.67,2.22l-.4.35-2.16,1.86-.66.58-2,1.77-.62.56q-1.21,1.11-2.4,2.24l-.1.09q-1.29,1.22-2.56,2.47l-.43.43-2,2-.66.68-1.85,1.93-.62.65q-1.13,1.21-2.25,2.44l-.14.15q-1.21,1.34-2.41,2.72l-.47.54q-.94,1.08-1.86,2.18l-.66.8-1.71,2.09-.62.76q-1.06,1.32-2.11,2.68l-.14.18q-1.14,1.48-2.26,3l-.48.65q-.86,1.17-1.71,2.35l-.65.92q-.79,1.12-1.57,2.26l-.6.88q-1,1.43-1.93,2.89l-.16.24q-1,1.61-2.08,3.25l-.48.78q-.77,1.25-1.54,2.51l-.62,1q-.72,1.21-1.42,2.44l-.57,1q-.89,1.56-1.76,3.15l-.15.28q-1,1.75-1.88,3.54l-.46.9q-.69,1.34-1.37,2.7l-.58,1.16q-.64,1.3-1.26,2.62l-.53,1.11q-.79,1.69-1.56,3.41l-.14.32q-.85,1.9-1.67,3.83l-.43,1q-.6,1.43-1.19,2.88l-.52,1.29q-.56,1.4-1.1,2.82l-.47,1.22q-.69,1.84-1.36,3.7l-.13.35q-.73,2-1.43,4.14l-.39,1.17q-.51,1.52-1,3.06l-.45,1.43q-.47,1.5-.92,3l-.4,1.34q-.58,2-1.14,4l-.1.37q-.61,2.21-1.18,4.46l-.32,1.29q-.41,1.63-.8,3.27l-.37,1.56q-.37,1.61-.73,3.23c-.11.49-.22,1-.32,1.46q-.46,2.15-.9,4.33l-.08.37q-.47,2.37-.91,4.79c-.09.47-.17.95-.25,1.42q-.31,1.73-.6,3.48-.14.85-.28,1.7-.27,1.72-.53,3.45c-.08.53-.16,1.06-.24,1.59q-.34,2.33-.64,4.7l0,.35q-.33,2.55-.62,5.14c-.06.52-.11,1-.17,1.56q-.2,1.84-.38,3.71-.09.91-.17,1.83-.17,1.85-.32,3.71c0,.56-.09,1.12-.14,1.68q-.2,2.54-.36,5.12l0,.3q-.17,2.72-.3,5.5c0,.56,0,1.12-.07,1.69q-.09,2-.16,4,0,1-.06,2-.06,2-.09,4c0,.6,0,1.2,0,1.81q0,2.75,0,5.54c0,.08,0,.16,0,.24q0,2.91,0,5.86c0,.61,0,1.22,0,1.83q0,2.09.09,4.2,0,1,.06,2.1.06,2.11.15,4.23c0,.64,0,1.27.08,1.92q.13,3,.3,6v.13q.17,3.1.39,6.25c0,.65.09,1.3.14,1.95q.16,2.22.34,4.47.09,1.11.19,2.23.19,2.25.41,4.53c.06.67.12,1.34.19,2q.32,3.26.68,6.56c17.22,156.88,81,287.47,205.77,287.47S568.71,800.23,585.93,643.35q.36-3.3.68-6.56C586.67,636.12,586.73,635.45,586.79,634.78ZM436.55,898.54c-3.77,20.3-33,23.27-56.39,23.27s-52.62-3-56.39-23.27c-5.23-28.19,18.81-35.43,18.81-35.43s-9.69-1.63-13.8-15.42c-2.25-7.55,2.09-12.71,6.49-15.85,9.29-1.06,44.89-1.59,44.89-1.59s35.6.53,44.89,1.59c4.4,3.14,8.74,8.3,6.49,15.85-4.12,13.79-13.8,15.42-13.8,15.42S441.78,870.35,436.55,898.54Z"/><path class="cls-16" d="M202.44,688.67h0c-2.87,13.07-6.63,30.85-10.44,50.74,17,63.21,43.94,116.64,82.22,150.84-.18-1.11-17.08-107.78-28.68-144.93C233.88,708,202.44,688.67,202.44,688.67Z"/><path class="cls-16" d="M557.88,688.67h0c2.87,13.07,6.63,30.85,10.44,50.74-17,63.21-43.94,116.64-82.22,150.84.18-1.11,17.08-107.78,28.68-144.93C526.44,708,557.88,688.67,557.88,688.67Z"/><path class="cls-16" d="M557.88,688.67,541.79,501.29a108.72,108.72,0,0,1-2.19,11.46c-14,56.69-4.86,82-4.86,82s13.53,33.19,18,71.22a22.67,22.67,0,0,1-.76,8.65Z"/><path class="cls-16" d="M202.44,688.67l16.09-187.38a108.72,108.72,0,0,0,2.19,11.46c14,56.69,4.86,82,4.86,82S212,628,207.58,666a22.67,22.67,0,0,0,.76,8.65Z"/><path class="cls-17" d="M394.43,370c-5.25-7.42-10.26-51.13-10.26-51.13s-2.33-7.95-4-7.95-4,7.95-4,7.95-5,43.71-10.26,51.13.21,31.13,6.24,37.35c2.93,3,6.58,5.56,8,5.56s5.09-2.54,8-5.56C394.22,401.13,399.68,377.42,394.43,370Z"/><path class="cls-17" d="M277,412.92c27-11.59,25.33-38.87,25.33-38.87s-6.81-1.92-19.05-8.53c-12.86-6.94-21.61-28.35-28.44-34.67C244.32,321.14,240.58,384.48,277,412.92Z"/><path class="cls-17" d="M483.35,412.92C456.39,401.33,458,374,458,374s6.81-1.92,19.05-8.53c12.86-6.94,21.61-28.35,28.44-34.67C516,321.14,519.74,384.48,483.35,412.92Z"/><path class="cls-18" d="M519.75,677.14c26.28-11.13.79,19.07-2.4,20.69-42.59,21.64-85.09,15.32-107.69-29.34C470.58,707,501,685.08,519.75,677.14Z"/><path class="cls-18" d="M242.41,677.14c-26.28-11.13-.79,19.07,2.4,20.69,42.59,21.64,85.09,15.32,107.69-29.34C291.58,707,261.15,685.08,242.41,677.14Z"/><path class="cls-18" d="M413.57,731c-2.69-4.88-7.34-7.48-10.4-5.79a4.75,4.75,0,0,0-2.19,3c-12.77-25.43-13.5-72.84-13.53-85.74,0-16.66-7.28-15.4-7.28-15.4s-7.24-1.26-7.28,15.4c0,12.9-.76,60.31-13.53,85.74a4.75,4.75,0,0,0-2.19-3c-3.06-1.68-7.71.91-10.4,5.79s-2.38,10.2.67,11.89,11.82-1.53,12.41,0c1.83,4.93,11.08,7.4,20.33,7.4s18.5-2.47,20.33-7.4c.58-1.57,9.35,1.64,12.41,0S416.26,735.88,413.57,731Z"/><path class="cls-19" d="M329.64,774.05c8,4.57,25.17,25.58,34.48,34.88-46.23,13.79-42.51,7.64-42.51,7.64s-17.84-4.81-25.29,17.68C288.61,816,321.65,769.48,329.64,774.05Z"/><path class="cls-19" d="M430.69,774.05c-8,4.57-25.17,25.58-34.48,34.88,46.23,13.79,42.51,7.64,42.51,7.64s17.84-4.81,25.29,17.68C471.72,816,438.68,769.48,430.69,774.05Z"/><path class="cls-19" d="M310.82,888.59c0-8.89,31-27.2,69.34-27.2s69.33,18.3,69.33,27.2-31,5-69.33,5S310.82,897.48,310.82,888.59Z"/><path class="cls-20" d="M429.19,835.18s-24,2.13-49,2.13-49-2.13-49-2.13c-8.89-.49-9.31.55.19,2.08,5.22.84,25.57,5,48.84,5s43.62-4.15,48.84-5C438.5,835.73,438.09,834.69,429.19,835.18Z"/><path class="cls-21" d="M341.83,609.85s15.34,3.59,22.43-3.72c6.13-6.33,6.08-8.19,4.74,0s-5.94,23-15.36,24.23S337.14,609.77,341.83,609.85Z"/><path class="cls-21" d="M418.83,609.85s-15.34,3.59-22.43-3.72c-6.13-6.33-6.08-8.19-4.74,0s5.94,23,15.36,24.23S423.52,609.77,418.83,609.85Z"/><path class="cls-21" d="M220.72,512.75a290.91,290.91,0,0,1,5.69,28.92c19.42-36.22,72.94-81.81,153.74-81.81s134.33,45.58,153.74,81.81a290.91,290.91,0,0,1,5.69-28.92c15-60.83-26.56-111-66.78-140.48l-92.66-61.34L287.5,372.27C247.28,401.78,205.68,451.92,220.72,512.75Z"/><polygon class="cls-11" points="443.17 821.17 437.21 826.85 392.76 812.36 380.16 823.74 367.56 812.36 323.11 826.85 317.15 821.17 300.87 830.25 310.44 844.7 326.53 830.11 380.16 830.25 433.79 830.11 449.88 844.7 459.45 830.25 443.17 821.17"/><path class="cls-3" d="M540.7,329.85l-144.14-51H363.77l-144.14,51L167.08,477.1l51.44,24.13s6.4-64.18,25.19-79.29,97.83-60,136.45-60,117.64,44.91,136.44,60,25.19,79.29,25.19,79.29l51.46-24.13Z"/><path class="cls-22" d="M571.87,341.71c-37.53-44.19-191.71-85.94-191.71-85.94s-122.08,38.54-174.68,77.38c-18.2,20.58-14,26.79,10,14.43,5.77-3,60.78-19.44,92.67-36.64-9.2,8.35-13,26.67-126.79,93.78,67.87-21.14,0,68.26,61.62,11.3,17.71-16.37,98.22-59.45,137.18-60.26,76.54-1.58,127,52.18,147.05,65.5,40.2,26.65,65.06-5.69,41.11-27.58C448.83,284.5,571.87,341.71,571.87,341.71Z"/></g></g></g></g></svg>