<svg xmlns="http://www.w3.org/2000/svg" xmlns:xlink="http://www.w3.org/1999/xlink" viewBox="0 0 760.32 1056"><defs><style>.cls-1,.cls-11,.cls-16,.cls-22{fill:none;}.cls-2{fill:#424242;}.cls-3,.cls-9{fill:#e0e0e0;}.cls-10,.cls-4,.cls-8{fill:#bdbdbd;}.cls-4{opacity:0.7;}.cls-5{opacity:0.3;}.cls-15,.cls-6{fill:#f5f5f5;}.cls-6{opacity:0.51;}.cls-14,.cls-7{fill:#757575;}.cls-12,.cls-9{opacity:0.66;}.cls-10,.cls-15{opacity:0.35;}.cls-11{stroke:#e0e0e0;stroke-width:16.87px;}.cls-11,.cls-16,.cls-17,.cls-22{stroke-miterlimit:10;}.cls-12{fill:url(#linear-gradient);}.cls-13{fill:#eee;}.cls-14{opacity:0.22;}.cls-16,.cls-22{stroke:#616161;}.cls-16{stroke-linecap:round;stroke-width:2.63px;}.cls-17{fill:#90a4ae;stroke:#bdbdbd;}.cls-17,.cls-22{stroke-width:1.3px;}.cls-18{fill:#616161;}.cls-19{opacity:0.63;}.cls-20{fill:#546e7a;}.cls-21{fill:#37474f;}</style><linearGradient id="linear-gradient" x1="380.16" y1="930.4" x2="380.16" y2="680.4" gradientUnits="userSpaceOnUse"><stop offset="0" stop-color="#e0e0e0"/><stop offset="1" stop-color="#bdbdbd"/></linearGradient></defs><title>starwarsstormtrooper</title><g id="Layer_2" data-name="Layer 2"><g id="Layer_1-2" data-name="Layer 1"><rect class="cls-1" width="760.32" height="1056"/><g id="Stormtrooper"><g id="clothes1"><path class="cls-2" d="M434.66,905v6.54a54.5,54.5,0,1,1-109,0V905a160.58,160.58,0,0,0-106,151h321A160.58,160.58,0,0,0,434.66,905Z"/><rect class="cls-3" x="219.64" y="1029.8" width="52.82" height="26.2"/><rect class="cls-4" x="219.64" y="1029.8" width="52.82" height="26.2"/><path class="cls-3" d="M282,918.29A144.81,144.81,0,0,0,187.12,1040h67.8a19.46,19.46,0,0,0,19.41-18L282,918.29"/><rect class="cls-3" x="487.87" y="1029.8" width="52.82" height="26.2" transform="translate(1028.55 2085.8) rotate(-180)"/><rect class="cls-4" x="487.87" y="1029.8" width="52.82" height="26.2" transform="translate(1028.55 2085.8) rotate(-180)"/><path class="cls-3" d="M478.35,918.29A144.81,144.81,0,0,1,573.2,1040H505.4a19.46,19.46,0,0,1-19.41-18l-7.64-103.64"/><path class="cls-3" d="M380.16,1056H487.87s-38.73-145.8-53.21-151h-109c-14.48,5.23-53.21,151-53.21,151Z"/><path class="cls-5" d="M380.16,1007.63c43,0,91.2-13.78,135-38.46A161,161,0,0,0,434.66,905h-109a161,161,0,0,0-80.51,64.2C289,993.86,337.19,1007.63,380.16,1007.63Z"/></g><polygon class="cls-2" points="138.64 591.13 123.43 591.13 123.43 525.46 138.64 515.39 138.64 591.13"/><polygon class="cls-2" points="637.09 591.13 621.6 591.13 621.6 515.39 637.09 525.46 637.09 591.13"/><path class="cls-3" d="M622.26,503.87c0-171.75-170.22-192-242.1-192S137.25,337.71,137.25,509.45v35.62l.62,29.68H622.45l.62-29.68Z"/><path class="cls-6" d="M403.67,334.46a11.8,11.8,0,0,0-1.36-3.35c-3.2-5.32-9.84-7.1-15.87-8.17-43.27-7.7-87.72,1-128.31,17.76-50.71,20.89-89.12,59.65-100.08,92.25,32.3-27.17,198.82-43.84,238.64-67.2C413.35,356,404.79,339.14,403.67,334.46Z"/><polygon class="cls-2" points="131.57 572.29 131.57 676.63 190.05 676.63 131.57 572.29"/><polygon class="cls-2" points="628.75 572.29 628.75 676.63 570.27 676.63 628.75 572.29"/><rect class="cls-7" x="81.26" y="637.61" width="22.95" height="22.95" rx="11.47" ry="11.47"/><rect class="cls-7" x="656.11" y="637.61" width="22.95" height="22.95" rx="11.47" ry="11.47" transform="translate(1335.17 1298.16) rotate(-180)"/><rect class="cls-3" x="92.73" y="593.91" width="26.44" height="110.34" rx="13.22" ry="13.22"/><rect class="cls-3" x="105.96" y="581.35" width="26.44" height="225.91" rx="13.22" ry="13.22"/><rect class="cls-3" x="641.14" y="593.91" width="26.44" height="110.34" rx="13.22" ry="13.22" transform="translate(1308.73 1298.16) rotate(180)"/><rect class="cls-3" x="627.92" y="581.35" width="26.44" height="225.91" rx="13.22" ry="13.22"/><circle class="cls-3" cx="119.18" cy="822.84" r="64.02"/><circle class="cls-3" cx="641.14" cy="822.84" r="64.02"/><path class="cls-3" d="M380.16,631.31c-62.17,0-93.23,131.91-213.25,176-70.72,26-62.59,72.44-59.07,88.18,11.33,50.61,75.56,73.22,154.53,74s69-45.18,117.78-45.18"/><path class="cls-3" d="M380.16,631.31c62.17,0,93.23,131.91,213.25,176,70.72,26,62.59,72.44,59.07,88.18-11.33,50.61-75.56,73.22-154.53,74s-69-45.18-117.78-45.18"/><path class="cls-8" d="M195.24,926.84c-8.31-17.23,12.85-53,59.3-40s73.75,7.91,73.75,7.91l.48,34.91s-6.36,40.23-50.68,40.23C228.65,969.9,216,969.91,195.24,926.84Z"/><path class="cls-9" d="M201.15,916.47c-7.56-15.69,11.7-48.22,54-36.4s76.94,7.2,76.94,7.2l.44,31.78s-5.79,36.62-46.14,36.62C241.35,955.68,220,955.68,201.15,916.47Z"/><path class="cls-3" d="M593.41,637.61c-63.49-21.88-88.44-91.07-130.2-107.69-45.12-18-63.47-19.53-83.05-19.72h0c-19.58.19-37.93,1.75-83.05,19.72-41.76,16.63-66.7,85.81-130.2,107.69s-38.7,121.21-38.7,121.21l67.26,91.33,184.69-4.25,184.69,4.25,67.26-91.33S656.9,659.49,593.41,637.61Z"/><path class="cls-10" d="M183.45,814c29.11,21.76,59,51.33,77.52,88.53a55.56,55.56,0,0,0,30.15,27.05C277.29,876.73,131.4,667.45,132,722.05c.36,31.14,0,26.39.36,38.14C139.32,766,176.64,808.88,183.45,814Z"/><path class="cls-6" d="M451.51,629.79c-.77-27.58-17-78.07-42.32-89.09a71.48,71.48,0,0,0-29-5.85h0a71.48,71.48,0,0,0-29,5.85c-25.3,11-41.55,61.51-42.32,89.09-1.69,60.66-6.51,161.31-11.7,199.18,62.73-131.57,106.82-129,161.32-3.46C453.24,787.64,453.2,690.45,451.51,629.79Z"/><path class="cls-11" d="M593.41,807.26c-120-44-151.08-210.7-213.25-210.7s-93.23,166.65-213.25,210.7"/><path class="cls-10" d="M576.87,814c-29.11,21.76-59,51.33-77.52,88.53a55.56,55.56,0,0,1-30.15,27.05c13.83-52.82,159.72-262.1,159.09-207.5-.36,31.14,0,26.39-.36,38.14C621,766,583.68,808.88,576.87,814Z"/><path class="cls-12" d="M380.16,746.52c-57.1,0-83.05,146.82-83.05,146.82,7.79,55.8,83.05,26.37,83.05,26.37s75.26,29.42,83.05-26.37C463.21,893.34,437.26,746.52,380.16,746.52Z"/><path class="cls-8" d="M565.08,926.84c8.31-17.23-12.85-53-59.3-40S432,894.77,432,894.77l-.48,34.91s6.36,40.23,50.68,40.23C531.67,969.9,544.31,969.91,565.08,926.84Z"/><path class="cls-9" d="M559.17,916.47c7.56-15.69-11.7-48.22-54-36.4s-76.94,7.2-76.94,7.2l-.44,31.78s5.79,36.62,46.14,36.62C519,955.68,540.27,955.68,559.17,916.47Z"/><circle class="cls-7" cx="254.55" cy="927.08" r="29.66"/><circle class="cls-13" cx="254.55" cy="927.08" r="26.25"/><circle class="cls-3" cx="254.55" cy="931.57" r="26.25"/><circle class="cls-8" cx="254.55" cy="931.57" r="20.01"/><path class="cls-13" d="M254.55,948.19a20,20,0,0,1-19.92-18.31c0,.56-.09,1.12-.09,1.69a20,20,0,1,0,40,0c0-.57,0-1.13-.09-1.69A20,20,0,0,1,254.55,948.19Z"/><path class="cls-14" d="M254.55,915a20,20,0,0,1,19.92,18.31c0-.56.09-1.12.09-1.69a20,20,0,1,0-40,0c0,.57,0,1.13.09,1.69A20,20,0,0,1,254.55,915Z"/><circle class="cls-7" cx="505.77" cy="927.08" r="29.66"/><circle class="cls-13" cx="505.77" cy="927.08" r="26.25"/><circle class="cls-3" cx="505.77" cy="931.57" r="26.25"/><circle class="cls-8" cx="505.77" cy="931.57" r="20.01"/><path class="cls-13" d="M505.77,948.19a20,20,0,0,0,19.92-18.31c0,.56.09,1.12.09,1.69a20,20,0,1,1-40,0c0-.57,0-1.13.09-1.69A20,20,0,0,0,505.77,948.19Z"/><path class="cls-14" d="M505.77,915a20,20,0,0,0-19.92,18.31c0-.56-.09-1.12-.09-1.69a20,20,0,1,1,40,0c0,.57,0,1.13-.09,1.69A20,20,0,0,0,505.77,915Z"/><rect class="cls-2" x="383.24" y="763.68" width="27.59" height="169.83" rx="13.79" ry="13.79" transform="translate(794.06 1697.19) rotate(180)"/><rect class="cls-2" x="399.41" y="795.2" width="22.82" height="134.89" rx="11.41" ry="11.41" transform="translate(821.65 1725.29) rotate(-180)"/><rect class="cls-2" x="412.87" y="851.42" width="21.92" height="59.58" rx="7.91" ry="7.91" transform="translate(847.67 1762.43) rotate(-180)"/><path class="cls-2" d="M380.16,760.51a14.32,14.32,0,0,0-14.27,14.27V919a14.27,14.27,0,1,0,28.55,0V774.78A14.32,14.32,0,0,0,380.16,760.51Z"/><rect class="cls-2" x="349.5" y="763.68" width="27.59" height="169.83" rx="13.79" ry="13.79"/><rect class="cls-2" x="338.09" y="795.2" width="22.82" height="134.89" rx="11.41" ry="11.41"/><rect class="cls-2" x="325.52" y="851.42" width="21.92" height="59.58" rx="7.91" ry="7.91"/><path class="cls-15" d="M643,779.23s19.16,2,27.81,22.36c-11.22,15.44-29.67,39-29.67,39s-10.72-27.48-47.73-33.35C605.66,799.5,643,779.23,643,779.23Z"/><path class="cls-15" d="M117.32,779.23s-19.16,2-27.81,22.36c11.22,15.44,29.67,39,29.67,39s10.72-27.48,47.73-33.35C154.66,799.5,117.32,779.23,117.32,779.23Z"/><path class="cls-15" d="M177.73,817s-16.17-3.41-34.42,14.67,23.23,74,44.71,55.15c19.56-17.2,65.11-5.18,40.28-29.84A294.33,294.33,0,0,0,177.73,817Z"/><path class="cls-15" d="M582.59,817s16.17-3.41,34.42,14.67-23.23,74-44.71,55.15C552.75,869.65,507.2,881.67,532,857A294.33,294.33,0,0,1,582.59,817Z"/><path class="cls-16" d="M96.19,798.2s3.22-10.48,18.07-14.65"/><path class="cls-16" d="M99.72,803.33s3.55-11.57,20-16.18"/><path class="cls-16" d="M103.24,808.46s3.88-12.66,21.86-17.72"/><path class="cls-16" d="M106.76,813.58s4.2-13.76,23.75-19.25"/><path class="cls-16" d="M110.28,818.71s4.53-14.85,25.64-20.79"/><path class="cls-16" d="M113.8,823.84s4.86-15.94,27.54-22.33"/><path class="cls-16" d="M117.32,829s5.18-17,29.43-23.86"/><path class="cls-16" d="M664.13,798.2s-3.22-10.48-18.07-14.65"/><path class="cls-16" d="M660.6,803.33s-3.55-11.57-20-16.18"/><path class="cls-16" d="M657.08,808.46s-3.88-12.66-21.86-17.72"/><path class="cls-16" d="M653.56,813.58s-4.2-13.76-23.75-19.25"/><path class="cls-16" d="M650,818.71s-4.53-14.85-25.64-20.79"/><path class="cls-16" d="M646.52,823.84s-4.86-15.94-27.54-22.33"/><path class="cls-16" d="M643,829s-5.18-17-29.43-23.86"/><path class="cls-17" d="M380.16,596.56c-62.17,0-93.23,166.65-213.25,210.7,120-44,151.08-176,213.25-176s93.23,131.91,213.25,176C473.39,763.22,442.33,596.56,380.16,596.56Z"/><path class="cls-18" d="M380.16,631.31a48.83,48.83,0,0,0-23.56,7.16,96.87,96.87,0,0,0-19.24,15.6c-5.85,5.88-11.25,12.21-16.51,18.65s-10.37,13-15.47,19.62c-10.18,13.21-20.47,26.39-31.45,39a343.63,343.63,0,0,1-35.5,35.6A240.39,240.39,0,0,1,197,795.6a220.11,220.11,0,0,1-22.84,10.67c-1.94.8-3.93,1.5-5.89,2.25l-5.8,2.21c-3.84,1.51-7.63,3.15-11.33,5a104.29,104.29,0,0,0-20.81,13.19,68.84,68.84,0,0,0-16.07,18.49,58.49,58.49,0,0,0-7.81,23.26,79.14,79.14,0,0,0,1.38,24.79,89.17,89.17,0,0,1-2.25-12.32,69.93,69.93,0,0,1-.15-12.57,60,60,0,0,1,7.17-24.1A70.68,70.68,0,0,1,128.69,827a104.58,104.58,0,0,1,21.09-14c3.75-1.93,7.59-3.68,11.48-5.29l11.63-4.6a216.57,216.57,0,0,0,22.36-10.75,232.42,232.42,0,0,0,21.06-13.11c6.77-4.75,13.3-9.86,19.6-15.24A347.28,347.28,0,0,0,271.17,729c11.06-12.41,21.38-25.49,31.84-38.48s20.91-26.12,33-37.76a98.29,98.29,0,0,1,20.06-15.14,54.18,54.18,0,0,1,11.64-4.75A44.44,44.44,0,0,1,380.16,631.31Z"/><path class="cls-18" d="M380.16,631.31a44.44,44.44,0,0,1,12.42,1.52,54.18,54.18,0,0,1,11.64,4.75,98.29,98.29,0,0,1,20.06,15.14c12.12,11.64,22.56,24.77,33,37.76s20.78,26.07,31.84,38.48A347.27,347.27,0,0,0,524.41,764c6.3,5.38,12.83,10.48,19.6,15.24a232.42,232.42,0,0,0,21.06,13.11,216.57,216.57,0,0,0,22.36,10.75l11.63,4.6c3.89,1.62,7.73,3.36,11.48,5.29a104.58,104.58,0,0,1,21.09,14,70.68,70.68,0,0,1,16.08,19.5,60,60,0,0,1,7.17,24.1,69.93,69.93,0,0,1-.15,12.57,89.17,89.17,0,0,1-2.25,12.32,79.15,79.15,0,0,0,1.38-24.79A58.49,58.49,0,0,0,646,847.39,68.84,68.84,0,0,0,630,828.9a104.29,104.29,0,0,0-20.81-13.19c-3.7-1.82-7.49-3.46-11.33-5l-5.8-2.21c-2-.75-3.95-1.45-5.89-2.25A220.1,220.1,0,0,1,563.3,795.6,240.39,240.39,0,0,1,521.89,767a343.65,343.65,0,0,1-35.5-35.6c-11-12.65-21.28-25.82-31.45-39-5.1-6.6-10.22-13.16-15.47-19.62S428.81,660,423,654.07a96.87,96.87,0,0,0-19.24-15.6A48.83,48.83,0,0,0,380.16,631.31Z"/><g class="cls-19"><path class="cls-20" d="M251.1,753.36v-3l-13.79,13.79v1.52C242.09,762.49,246.68,756.61,251.1,753.36Z"/><path class="cls-20" d="M349.5,642.29c4.51-2.19,9.08-6.2,13.79-7.46V611.75L349.5,621Z"/><path class="cls-20" d="M288.5,711.34V700.88l-13.79,19.7v7C279.49,723.55,284.08,715.25,288.5,711.34Z"/><path class="cls-20" d="M325.89,645.14,312.1,666.36v15.08c4.69-4.07,9.27-13.13,13.79-16.65Z"/><path class="cls-20" d="M509.22,753.36v-3L523,764.17v1.52C518.23,762.49,513.64,756.61,509.22,753.36Z"/><path class="cls-20" d="M410.82,642.29c-4.51-2.19-9.08-6.2-13.79-7.46V611.75L410.82,621Z"/><path class="cls-20" d="M471.82,711.34V700.88l13.79,19.7v7C480.83,723.55,476.24,715.25,471.82,711.34Z"/><path class="cls-20" d="M434.43,645.14l13.79,21.22v15.08c-4.69-4.07-9.27-13.13-13.79-16.65Z"/></g><g class="cls-19"><path class="cls-21" d="M251.1,753.36v-3l-13.79,13.79v1.52C242.09,762.49,246.68,756.61,251.1,753.36Z"/><path class="cls-21" d="M349.5,624.46c4.51-2.19,9.08-6.2,13.79-7.46v-5.26L349.5,621Z"/><path class="cls-21" d="M288.5,706.11v-5.23l-13.79,19.7v1.76C279.49,718.31,284.08,710,288.5,706.11Z"/><path class="cls-21" d="M325.89,645.14,312.1,666.36v2.92c4.69-4.07,9.27-13.13,13.79-16.65Z"/><path class="cls-21" d="M509.22,753.36v-3L523,764.17v1.52C518.23,762.49,513.64,756.61,509.22,753.36Z"/><path class="cls-21" d="M410.82,624.46c-4.51-2.19-9.08-6.2-13.79-7.46v-5.26L410.82,621Z"/><path class="cls-21" d="M471.82,706.11v-5.23l13.79,19.7v1.76C480.83,718.31,476.24,710,471.82,706.11Z"/><path class="cls-21" d="M434.43,645.14l13.79,21.22v2.92c-4.69-4.07-9.27-13.13-13.79-16.65Z"/></g><path class="cls-8" d="M627.92,569.19c0-37-167.26-50.57-247.76-50.57S132.4,532.21,132.4,569.19c0,0-6,44.25,14.35,64.62,16.73,16.73,96.94,12.24,126.78-31.58,43.9-64.46,106.62-64.46,106.62-64.46s62.72,0,106.62,64.46c29.84,43.81,110.06,48.3,126.78,31.58C633.94,613.44,627.92,569.19,627.92,569.19Z"/><path class="cls-3" d="M627.92,559.74c0-47.26-116.26-72.57-247.76-72.57S132.4,512.48,132.4,559.74c0,0-4.19,62.39,22.1,67.28,55.51,10.33,115.42-63.81,183.59-84.48a187.3,187.3,0,0,1,42.07-7.69,187.3,187.3,0,0,1,42.07,7.69C490.4,563.22,550.32,637.35,605.82,627,632.11,622.13,627.92,559.74,627.92,559.74Z"/><path class="cls-15" d="M628,556.55c0-30.48-64.19-67-247.81-69.38-183.62,2.38-247.81,38.9-247.81,69.38,0,0-3.35,51.35,22.83,56.77,62.72,13,122.51-91.3,189.61-96.63,29.53-2.35,35.37-1.26,35.37-1.26s5.85-1.08,35.37,1.26c67.1,5.33,126.89,109.6,189.61,96.63C631.32,607.9,628,556.55,628,556.55Z"/><path class="cls-2" d="M171.45,543.19C195.34,531,236.75,514.54,273.23,516s7.58,21.06-37.13,52.8c-43.3,30.74-66.17,22.75-69.65,16.38C154.58,563.52,164,547,171.45,543.19Z"/><path class="cls-8" d="M273.23,516c-36.48-1.5-82.47,14.2-101.78,27.15-17.58,11.79-17.12,23.46-5.94,40.61-6.93-17-.44-24.6,6.86-29.44,22.37-14.84,68.88-30.65,105.37-29.15,2.9.12,8.53,1.43,10.64,1.64C292.28,519.86,291.66,516.8,273.23,516Z"/><path class="cls-2" d="M588.87,543.19C565,531,523.57,514.54,487.09,516s-7.58,21.06,37.13,52.8c43.3,30.74,66.17,22.75,69.65,16.38C605.74,563.52,596.33,547,588.87,543.19Z"/><path class="cls-8" d="M487.09,516c36.48-1.5,82.47,14.2,101.78,27.15C606.45,555,606,566.64,594.81,583.8c6.93-17,.44-24.6-6.86-29.44-22.37-14.84-68.88-30.65-105.37-29.15-2.9.12-8.53,1.43-10.64,1.64C468,519.86,468.66,516.8,487.09,516Z"/><path class="cls-2" d="M637,534.85,636.12,506l-3.87-4.48-2.65-15.21s-9.16-42.36-241.47-43h-5.31c-242.23.61-251.78,43-251.78,43l-2.65,15.21L124.24,506l-.88,28.86s17.25-46,262.06-46.34C620.4,488.85,637,534.85,637,534.85Z"/><rect class="cls-18" x="356.39" y="769.8" width="6.9" height="111.42" rx="3.45" ry="3.45"/><rect class="cls-18" x="341.39" y="801.3" width="6.9" height="111.42" rx="3.45" ry="3.45"/><path class="cls-18" d="M332.51,902.56h0c-1.9,0-3.45.17-3.45-1.72V860.46a3.46,3.46,0,0,1,3.45-3.45h0a3.46,3.46,0,0,1,3.45,3.45v38.65A3.46,3.46,0,0,1,332.51,902.56Z"/><rect class="cls-18" x="373.64" y="765.59" width="6.9" height="111.42" rx="3.45" ry="3.45"/><rect class="cls-18" x="393.58" y="767.13" width="6.9" height="111.42" rx="3.45" ry="3.45"/><rect class="cls-18" x="393.58" y="769.8" width="6.9" height="111.42" rx="3.45" ry="3.45"/><path class="cls-22" d="M132.4,651.4,132,750.5a18.1,18.1,0,0,1-8.59,15.18c-22.7,13.93-41.38,28.55-41.38,51.35a41.31,41.31,0,0,0,27.23,38.83"/><path class="cls-22" d="M627.92,652.33l.37,99.1a18.1,18.1,0,0,0,8.59,15.18c22.7,13.93,41.38,28.55,41.38,51.35A41.31,41.31,0,0,1,651,856.79"/></g></g></g></svg>