<svg xmlns="http://www.w3.org/2000/svg" viewBox="0 0 874.42 766.83"><defs><style>.cls-1{isolation:isolate;}.cls-2,.cls-23{fill:#3e2723;}.cls-26,.cls-3{opacity:0.25;}.cls-20,.cls-29,.cls-33,.cls-4{fill:#fff;}.cls-21,.cls-4,.cls-7{opacity:0.1;}.cls-5{fill:#e0e0e0;}.cls-6{fill:#e53935;}.cls-30,.cls-8{fill:#c62828;}.cls-9{fill:#4e342e;}.cls-10,.cls-29{opacity:0.2;}.cls-11{fill:#f5f5f5;}.cls-12,.cls-30{opacity:0.4;}.cls-13{fill:#d7ccc8;}.cls-14{fill:#bdbdbd;}.cls-15{fill:#d32f2f;}.cls-16{fill:#ffebee;}.cls-17{fill:#b71c1c;}.cls-18{fill:#fffde7;}.cls-19{fill:#6d4c41;}.cls-21{fill:#212121;}.cls-22{fill:#efebe9;}.cls-23{opacity:0.12;}.cls-24,.cls-26{fill:#bf360c;}.cls-25{fill:#ffb300;}.cls-27{fill:#ffd54f;}.cls-28{fill:#ffecb3;opacity:0.7;}.cls-29,.cls-30,.cls-33{mix-blend-mode:screen;}.cls-31{fill:#ffa000;}.cls-32{fill:#ff1744;}.cls-33{opacity:0.3;}</style></defs><title>starwars-princess_amidala</title><g class="cls-1"><g id="Layer_2" data-name="Layer 2"><g id="Layer_1-2" data-name="Layer 1"><g id="Princess_Amidala" data-name="Princess Amidala"><path class="cls-2" d="M437.21,118.52S317,90.89,163,202.36-17.52,478.32,9,545.59,140.9,712.41,331.31,673.25,437.21,118.52,437.21,118.52Z"/><path class="cls-3" d="M437.21,118.52S317,90.89,163,202.36-17.52,478.32,9,545.59,140.9,712.41,331.31,673.25,437.21,118.52,437.21,118.52Z"/><path class="cls-4" d="M269,240.57c47.14-25,95.87-38.56,153.07-40.6l-5-55.63c-38.28,11.95-77.26,9-114.17,24.77q-28.68,12.29-56.32,26.94C255.51,210,265.92,224.23,269,240.57Z"/><path class="cls-4" d="M173.29,620.09c-12.07-.51-23.29,2-34.36,5.86a202.87,202.87,0,0,0,35.57,8.52,12.85,12.85,0,0,0,10.31-2.89C190,627.09,184.44,624.52,173.29,620.09Z"/><path class="cls-4" d="M229.77,205.24c-33,18.78-64.23,40.49-92.58,65.94C93.4,310.6,56.55,353.89,41.6,412.51,19,501.09,45.78,584.69,123.38,619.79a154.85,154.85,0,0,1,21.86-8c1.88-.5,3.76-.92,5.63-1.29a156.09,156.09,0,0,1-37.52-24.91c-24.43-22.18-38.83-53.94-38.58-86.95C74.59,403.2,143.58,325,217.89,272.31q16.44-11.66,32.83-21.43C246,234.67,237.3,220.25,229.77,205.24Z"/><path class="cls-2" d="M437.21,118.52s120.18-27.63,274.18,83.84,180.55,276,154,343.23S733.52,712.41,543.1,673.25,437.21,118.52,437.21,118.52Z"/><path class="cls-3" d="M437.21,118.52s120.18-27.63,274.18,83.84,180.55,276,154,343.23S733.52,712.41,543.1,673.25,437.21,118.52,437.21,118.52Z"/><path class="cls-4" d="M605.4,240.57c-47.14-25-95.87-38.56-153.07-40.6l5-55.63c38.28,11.95,77.26,9,114.17,24.77q28.68,12.29,56.32,26.94C618.91,210,608.5,224.23,605.4,240.57Z"/><path class="cls-4" d="M701.12,620.09c12.07-.51,23.29,2,34.36,5.86a202.87,202.87,0,0,1-35.57,8.52,12.85,12.85,0,0,1-10.31-2.89C684.43,627.09,690,624.52,701.12,620.09Z"/><path class="cls-4" d="M644.65,205.24c33,18.78,64.23,40.49,92.58,65.94,43.79,39.42,80.64,82.71,95.59,141.32,22.6,88.59-4.18,172.18-81.78,207.28a154.85,154.85,0,0,0-21.86-8c-1.88-.5-3.76-.92-5.63-1.29a156.09,156.09,0,0,0,37.52-24.91c24.43-22.18,38.83-53.94,38.58-86.95.18-95.47-68.81-173.69-143.12-226.36q-16.44-11.66-32.83-21.43C628.41,234.67,637.11,220.25,644.65,205.24Z"/><g id="clothes1"><polygon class="cls-5" points="380.63 606.54 389.83 634.38 437.63 687.91 437.63 594.59 380.63 606.54"/><polygon class="cls-5" points="494.63 606.54 485.43 634.38 437.63 687.91 437.63 594.59 494.63 606.54"/><path class="cls-6" d="M485.42,643.86v5.73c0,26.4-21.4,38.31-47.79,38.31s-47.8-11.92-47.8-38.31v-5.73c-54.22,19.57-93,62-93,123H578.41C578.41,705.86,539.65,663.43,485.42,643.86Z"/><path class="cls-7" d="M574.65,735.27a118.71,118.71,0,0,0-5.58-16.91h0q-.76-1.84-1.59-3.64c-.18-.4-.37-.79-.56-1.18q-.79-1.69-1.63-3.34l-.58-1.14q-1.11-2.13-2.3-4.21l-.24-.41q-1.16-2-2.41-4l-.37-.58a125.91,125.91,0,0,0-24.79-28.14l-5.07,12.74c-14.34-6.73-28-14.64-39.13-23.73A42.68,42.68,0,0,1,485,655.8c-2.85,20.09-19.69,30.21-41,31.86l-6.38,20.73-6.38-20.73c-21.29-1.65-38.13-11.77-41-31.86a42.69,42.69,0,0,1-5.44,4.94c-11.51,9.38-25.65,17.49-40.47,24.36l-4.91-12.33a121.71,121.71,0,0,0-33.88,47l0,0a118.92,118.92,0,0,0-5,15.45q8.66,1,17.15,2c7.85,10.94,14.84,19.85,18.91,23.24,2.83,2.35,5.51,4.43,8.06,6.3h32.15L367.79,744c40.85,5.89,69.84,11.07,69.84,11.07s28.19-5,68.15-10.82l-9,22.6h32.15c2.55-1.86,5.23-3.95,8.06-6.3,4.05-3.36,11-12.18,18.76-23Q565.07,736.36,574.65,735.27Z"/><path class="cls-6" d="M389.83,634.38l.79.46C391.21,633.86,389.83,634.38,389.83,634.38Z"/><path class="cls-6" d="M484.64,634.84l.79-.46S484.05,633.86,484.64,634.84Z"/><path class="cls-6" d="M624.55,693c-22-2.68-94-20-134.12-52.73-3.87-3.16-5.36-4.69-5.79-5.41l-37.46,22-9.55,31-9.55-31-37.46-22c-.43.72-1.92,2.26-5.79,5.41C344.7,673,272.67,690.31,250.71,693c-29.53,3.6-46.34,13.81-22.76,15.25,94.74,5.8,209.68,26.34,209.68,26.34S552.57,714,647.31,708.23C670.89,706.79,654.07,696.58,624.55,693Z"/><path class="cls-8" d="M380.13,628.42s-.66,10.18-.66,15.45c5.9,6.61,42.88,46.56,58.17,44l-9.55-31L386.6,626.23Z"/><path class="cls-8" d="M495.13,628.42s.66,10.18.66,15.45c-5.9,6.61-42.88,46.56-58.17,44l9.55-31,41.48-30.65Z"/><path class="cls-9" d="M437.57,739.57l-2.6-.09c-1.67,0-4.24-.18-7.51-.37l-5.33-.41c-1.93-.19-4-.36-6.25-.62-4.45-.47-9.45-1.14-14.88-1.93-10.85-1.61-23.38-3.88-36.73-6.46s-27.56-5.39-41.79-8-28.49-5-41.92-7c-6.71-1-13.21-1.84-19.38-2.62s-12-1.41-17.42-2-10.36-1-14.76-1.38a61.17,61.17,0,0,1-6.17-.74,14.24,14.24,0,0,1-5-1.71,3.12,3.12,0,0,1-.88-.86,1.71,1.71,0,0,1-.26-1.16,3.24,3.24,0,0,1,1.08-1.74,12.66,12.66,0,0,1,2.61-1.76c.75-.4,1.35-.67,1.75-.84l.61-.26-.6.29c-.39.2-1,.49-1.7.92a12.51,12.51,0,0,0-2.49,1.84,3,3,0,0,0-.93,1.6,1.77,1.77,0,0,0,1,1.62,13.8,13.8,0,0,0,4.91,1.42,60.51,60.51,0,0,0,6.13.47c4.41.19,9.39.42,14.82.74s11.31.73,17.53,1.22,12.77,1.09,19.53,1.78c13.54,1.37,28,3.16,42.33,5.17S352,721,365.41,723s25.94,3.7,36.65,4.83c5.36.54,10.26,1,14.61,1.25,2.17.16,4.2.23,6.08.34l5.15.18c3.07,0,5.46.08,7.19,0l2.6,0Z"/><path class="cls-9" d="M437.57,729.57l2.6,0c1.73,0,4.13,0,7.19,0l5.15-.18c1.88-.11,3.91-.18,6.08-.34,4.34-.27,9.25-.71,14.61-1.25,10.71-1.12,23.23-2.83,36.65-4.83s27.76-4.2,42.14-6.2,28.79-3.8,42.33-5.17c6.77-.7,13.32-1.28,19.53-1.78s12.1-.9,17.53-1.22,10.41-.56,14.82-.74a60.51,60.51,0,0,0,6.13-.47,13.8,13.8,0,0,0,4.91-1.42,1.77,1.77,0,0,0,1-1.62,3,3,0,0,0-.93-1.6,12.51,12.51,0,0,0-2.49-1.84c-.73-.43-1.31-.72-1.7-.92l-.6-.29.61.26c.4.18,1,.44,1.75.84a12.66,12.66,0,0,1,2.61,1.76,3.24,3.24,0,0,1,1.08,1.74,1.71,1.71,0,0,1-.26,1.16,3.12,3.12,0,0,1-.88.86,14.24,14.24,0,0,1-5,1.71,61.17,61.17,0,0,1-6.17.74c-4.4.38-9.35.82-14.76,1.38s-11.24,1.21-17.42,2-12.67,1.63-19.38,2.62c-13.42,1.94-27.69,4.35-41.92,7s-28.43,5.43-41.79,8-25.89,4.84-36.73,6.46c-5.43.79-10.42,1.45-14.88,1.93-2.22.26-4.32.43-6.25.62l-5.33.41c-3.27.19-5.85.33-7.51.37l-2.6.09Z"/><path class="cls-10" d="M555,674.58c-20.91-7.72-42.48-17.83-59.5-30.4l.29-.32c0-5.27-.66-15.45-.66-15.45l-6.47-2.19-41.48,30.65v0l-.25.81-.12.39-.82,2.67-.12.38-1.4,4.54L443.15,670l-.65,2.13-.33,1.08-.4,1.31-.48,1.56L439,683.35l-.34,1.11-1.06,3.44-1.06-3.44-.34-1.11L434,676l-.48-1.56-.4-1.31-.33-1.08-.65-2.13-1.31-4.27-1.4-4.54-.12-.38-.82-2.67-.12-.39-.25-.81v0L386.6,626.23l-6.47,2.19s-.66,10.18-.66,15.45l.29.32c-17,12.56-38.6,22.68-59.5,30.4-.34.51-.69,1-1,1.51,38.41,21.65,80.71,33.73,118.4,33.73s80-12.08,118.4-33.73C555.7,675.58,555.35,675.09,555,674.58Z"/></g><path class="cls-11" d="M318.18,521.08s1.2,6.89-11.27-7.05-31.83-75.76-25.7-83.37c2.95-3.66,5.92-16.21,24.34-6.61C305.55,424.05,341.79,481.69,318.18,521.08Z"/><g class="cls-12"><path class="cls-13" d="M306.85,456.75c-3.34-3.58-10-25.4-14.51-25.37s-5.21,13.86-5.21,13.86l4.46-2.42s8.18,21.3,10.5,32.32c.92,4.34-7.54-5-6.69-1.88,4.46,16.3,28.17,20,28.17,20l-3.69-25S310.18,460.33,306.85,456.75Z"/><path class="cls-13" d="M323.57,493.27c-8.92,1.32-20.46-2.64-20.46-2.64,5.56,6.59,20.46,8.43,20.46,8.43S330.26,500.52,323.57,493.27Z"/></g><path class="cls-11" d="M555.49,521.08s-1.2,6.89,11.27-7.05,31.83-75.76,25.7-83.37c-2.95-3.66-5.92-16.21-24.34-6.61C568.12,424.05,531.88,481.69,555.49,521.08Z"/><g class="cls-12"><path class="cls-13" d="M566.82,456.75c3.34-3.58,10-25.4,14.51-25.37s5.21,13.86,5.21,13.86l-4.46-2.42s-8.18,21.3-10.5,32.32c-.92,4.34,7.54-5,6.69-1.88-4.46,16.3-28.17,20-28.17,20l3.69-25S563.49,460.33,566.82,456.75Z"/><path class="cls-13" d="M550.1,493.27c8.92,1.32,20.46-2.64,20.46-2.64-5.56,6.59-20.46,8.43-20.46,8.43S543.41,500.52,550.1,493.27Z"/></g><path class="cls-11" d="M564,389.4C563.34,301,481.84,260,436.84,260S310.33,301,309.66,389.4c0,0-10.61,152.88,38.38,193.57s49.28,51.31,88.8,51.31,39.81-10.62,88.8-51.31S564,389.4,564,389.4Z"/><path class="cls-13" d="M467.15,514.54c-2.19-2.17-13-2.38-21.56,5.78-4.82,4.61-7.11,3.88-8.75,3.88s-3.94.73-8.75-3.88c-8.53-8.16-19.37-7.95-21.56-5.78s5.84,7.4,8.92,7.6c4.73.31,7.71,9.23,10.53,11.15,5.72,3.91,8.28,3.23,10.86,3.23s5.14.68,10.86-3.23c2.82-1.93,5.8-10.84,10.53-11.15C461.3,521.94,469.34,516.71,467.15,514.54Z"/><path class="cls-14" d="M428.08,523.44a6.78,6.78,0,0,0-.51-.85,5.79,5.79,0,0,0-.64-.74,9.53,9.53,0,0,0-1.54-1.19,18.32,18.32,0,0,0-3.54-1.65,38,38,0,0,0-3.78-1.12c-1.28-.3-2.58-.59-3.87-.8l.39-.54a3.46,3.46,0,0,0,.28.49c.11.17.23.33.35.49a10.19,10.19,0,0,0,.82.92,16.33,16.33,0,0,0,1.92,1.63,11.46,11.46,0,0,1-2.23-1.27,9.08,9.08,0,0,1-1-.85,5.72,5.72,0,0,1-.44-.5,4,4,0,0,1-.4-.58l-.33-.6.72.06a28,28,0,0,1,4,.62,25.62,25.62,0,0,1,3.89,1.19,14.71,14.71,0,0,1,3.58,2,9.54,9.54,0,0,1,.77.69,5.7,5.7,0,0,1,.67.79,6.08,6.08,0,0,1,.54.88A4.62,4.62,0,0,1,428.08,523.44Z"/><path class="cls-14" d="M445.59,523.44a4.62,4.62,0,0,1,.33-1,6.08,6.08,0,0,1,.54-.88,5.69,5.69,0,0,1,.67-.79,9.54,9.54,0,0,1,.77-.69,14.71,14.71,0,0,1,3.58-2,25.62,25.62,0,0,1,3.89-1.19,28,28,0,0,1,4-.62l.72-.06-.33.6a4,4,0,0,1-.4.58,5.71,5.71,0,0,1-.44.5,9.08,9.08,0,0,1-1,.85,11.46,11.46,0,0,1-2.23,1.27,16.33,16.33,0,0,0,1.92-1.63,10.19,10.19,0,0,0,.82-.92c.12-.16.24-.32.35-.49a3.46,3.46,0,0,0,.28-.49l.39.54c-1.29.22-2.59.5-3.87.8a38,38,0,0,0-3.78,1.12,18.32,18.32,0,0,0-3.54,1.65,9.53,9.53,0,0,0-1.54,1.19,5.79,5.79,0,0,0-.64.74A6.78,6.78,0,0,0,445.59,523.44Z"/><path class="cls-15" d="M447.75,544.15c-7.73,0-10.91,4.4-10.91,4.4s-3.18-4.4-10.91-4.4c-13.64,0-15.49,11.31-38.87,11.31a51.79,51.79,0,0,0,21.82,3,108.29,108.29,0,0,1,28,.75,108.29,108.29,0,0,1,28-.75,51.79,51.79,0,0,0,21.82-3C461.72,555.46,461.38,544.15,447.75,544.15Z"/><path class="cls-13" d="M436.84,576.2c-10,0-19.91,4.06-19.91,4.06h39.83S446.79,576.2,436.84,576.2Z"/><path class="cls-16" d="M480,557.41l-43.14,1.83-43.14-1.83s-12.89-4.8-7.58,1.83c0,0,18,17,50.72,17s50.72-17,50.72-17C492.87,552.6,480,557.41,480,557.41Z"/><path class="cls-15" d="M436.84,557.41h-12c5.94.9,1.7,16.77,12,16.77s6.09-15.86,12-16.77Z"/><path class="cls-17" d="M443,569.64l0,.19a4.43,4.43,0,0,1-.09.53,6.54,6.54,0,0,1-.71,1.84,5.69,5.69,0,0,1-2,2.1,5.81,5.81,0,0,1-1.58.66,7.31,7.31,0,0,1-1.72.21c-.35,0-.5,0-.84-.05a5.43,5.43,0,0,1-.88-.16,5.73,5.73,0,0,1-1.58-.66,5.67,5.67,0,0,1-2-2.1,6.48,6.48,0,0,1-.71-1.84,6,6,0,0,1-.12-.73l.48.55a15.3,15.3,0,0,0,1.25,1.3,9.66,9.66,0,0,0,.89.69,6.21,6.21,0,0,0,1.05.55,5.59,5.59,0,0,0,1.2.33,6,6,0,0,0,.62.08c.16,0,.53,0,.69,0a7.84,7.84,0,0,0,1.31-.11,5.46,5.46,0,0,0,1.2-.33,6.13,6.13,0,0,0,1.05-.55,9.5,9.5,0,0,0,.89-.69,15.39,15.39,0,0,0,1.25-1.3Z"/><path class="cls-17" d="M387.06,555.46c2,.51,4.09.91,6.14,1.24,1,.17,2.05.3,3.08.42s2.05.22,3.08.28,2.05.12,3.08.15,2,0,3.07,0,2-.12,3.05-.2,2.08-.2,3.14-.27a88.33,88.33,0,0,1,12.68-.13c2.11.12,4.22.35,6.31.65s4.17.68,6.22,1.15h-.14a118.2,118.2,0,0,1,12.53-1.61c2.11-.16,4.22-.2,6.33-.22s4.23.09,6.33.24c1,.07,2.13.19,3.12.27s2.1.19,3.09.2,2,0,3.06,0,2.05-.07,3.08-.16,2.06-.16,3.08-.3,2.06-.26,3.08-.44c2.05-.34,4.09-.76,6.13-1.29a30,30,0,0,1-2.89,1.28c-1,.37-2,.72-3,1s-2,.58-3.08.81-2.08.43-3.13.6-2.11.27-3.18.37-2.13.15-3.22.13-2.14,0-3.18-.1l-3.14-.24c-2.07-.15-4.14-.26-6.21-.36s-4.15-.1-6.22-.1-4.16.08-6.23.24q-1.56.11-3.11.27l-3.11.34h-.16c-4.17-.32-8.32-.61-12.46-.66s-8.29.07-12.42.35l-3.12.24c-1.07.05-2.15.12-3.22.1s-2.14-.06-3.21-.13-2.13-.21-3.18-.38-2.1-.37-3.13-.61-2.06-.52-3.07-.82-2-.66-3-1A29.21,29.21,0,0,1,387.06,555.46Z"/><circle class="cls-16" cx="369.67" cy="433.01" r="38.36"/><circle class="cls-18" cx="369.67" cy="433.01" r="31.1"/><circle class="cls-19" cx="371.44" cy="433.01" r="14.64"/><circle cx="371.44" cy="433.01" r="8.72"/><circle class="cls-20" cx="377.82" cy="430.2" r="2.81"/><path class="cls-21" d="M369.67,401.91a31.1,31.1,0,1,0,31.1,31.1A31.1,31.1,0,0,0,369.67,401.91Zm25.49,42.63c-29.1,12.6-45.31,1.17-45.91-5.17a7.85,7.85,0,0,1,4.94-8.48c18.67-8.38,30.75-2.83,40.84,5.52C400.34,440.8,398.82,443,395.16,444.54Z"/><path class="cls-11" d="M336.22,394.85c-15.47,2.64-19.32,11.08-23.24,32.54-6.9,37.82,28.58,53.87,46.37,57.24,10.32,2,66.26,5.49,66.26-48.23S362.66,390.34,336.22,394.85Zm58.31,51.75s-10,5.49-26.42,5.49S342,438.6,342,438.6s8.63-15.78,23.17-17.19c17.18-1.66,24.66,3.76,34.8,15C413.14,451.05,394.53,446.6,394.53,446.6Z"/><path class="cls-22" d="M345.49,442.56l-.16-.22Z"/><path class="cls-22" d="M356.41,418.9c-3.82,2.47-8.18,4.92-11.14,5.39-4.68.74-13.6.32-19.91-4.54,0,0,10.13,17.21,17.73,12.68l6.46-4c2.94-1.79,11.77-6.63,15.57-7,17.18-1.66,24.66,3.76,34.8,15,13.21,14.64-5.4,10.19-5.4,10.19s-10,5.49-26.42,5.49c-15.06,0-21.61-8.14-22.62-9.53a110.57,110.57,0,0,0,15.23,16.94c23.6,20.94,29.92-.14,53.12-17.16C428.31,431.71,397.27,385.34,356.41,418.9Z"/><path class="cls-23" d="M346.86,431.88a81,81,0,0,0,8.14-6.95A36.24,36.24,0,0,0,346.86,431.88Z"/><path class="cls-2" d="M322.44,399.68a36.81,36.81,0,0,1,3.54-1.57c1.15-.45,2.55-1,4.19-1.49s3.5-1.08,5.57-1.55,4.32-1,6.73-1.33,5-.69,7.63-.82a76.09,76.09,0,0,1,8.23-.09c1.4.07,2.82.15,4.23.3s2.84.31,4.25.5,2.81.53,4.22.78,2.77.66,4.14,1a68.88,68.88,0,0,1,7.82,2.7,63.3,63.3,0,0,1,6.95,3.37l3.07,1.82,2.74,1.9c.89.59,1.67,1.25,2.43,1.85s1.49,1.16,2.11,1.76c1.27,1.17,2.39,2.16,3.24,3.06,1.69,1.8,2.62,2.85,2.62,2.85s-1.17-.8-3.13-2.24c-1-.73-2.26-1.48-3.64-2.44-.69-.49-1.49-.9-2.3-1.39s-1.63-1-2.56-1.5l-2.84-1.51-3.1-1.48c-2.15-1-4.45-1.88-6.85-2.75-1.19-.46-2.45-.79-3.7-1.2-.62-.21-1.27-.35-1.91-.52l-1.93-.53c-1.3-.31-2.62-.61-3.95-.89s-2.67-.52-4-.68-2.69-.42-4-.55-2.7-.26-4-.35-2.68-.12-4-.21-2.63-.07-3.91,0c-2.57,0-5.06.11-7.42.27s-4.6.37-6.66.62c-4.12.49-7.55,1.08-9.95,1.55S322.44,399.68,322.44,399.68Z"/><path class="cls-2" d="M336,431.31a6.7,6.7,0,0,0,.6.54,5,5,0,0,0,2,1,5.1,5.1,0,0,0,3.22-.46,22.93,22.93,0,0,0,3.82-2.34c1.37-1,2.8-2.11,4.41-3.23a53.83,53.83,0,0,1,5.25-3.35,35.58,35.58,0,0,1,6.22-2.68,29.73,29.73,0,0,1,3.46-.83,32.92,32.92,0,0,1,3.51-.41,29.64,29.64,0,0,1,7,.5A32.13,32.13,0,0,1,382,422a35.09,35.09,0,0,1,5.6,2.86,39.32,39.32,0,0,1,4.55,3.25,44.08,44.08,0,0,1,5.89,5.83c.64.76,1.12,1.39,1.43,1.81l.49.65s-.85-.76-2.36-2a70.11,70.11,0,0,0-6.51-4.84c-1.4-.9-2.95-1.82-4.63-2.69a46.5,46.5,0,0,0-5.43-2.35,38.81,38.81,0,0,0-6.05-1.58c-1-.17-2.11-.29-3.18-.36s-2.14-.06-3.21,0a29.61,29.61,0,0,0-3.22.32,28.52,28.52,0,0,0-3.08.69,32.86,32.86,0,0,0-5.85,2.23c-1.85.9-3.61,1.87-5.25,2.87s-3.22,2-4.71,2.81a20.53,20.53,0,0,1-4.34,2,5.65,5.65,0,0,1-3.76,0,4.93,4.93,0,0,1-1.89-1.43A6.69,6.69,0,0,1,336,431.31Z"/><path class="cls-2" d="M379.46,451.19s-.64.15-1.76.36-2.75.48-4.71.66c-1,.09-2,.17-3.17.23l-1.76.06-1.8-.06a28,28,0,0,1-3.81-.41c-.65-.1-1.28-.3-1.93-.44a14.67,14.67,0,0,1-1.91-.55c-.63-.22-1.26-.42-1.87-.67l-1.8-.8c-.6-.25-1.15-.6-1.72-.9l-.84-.46-.79-.51a33.57,33.57,0,0,1-2.92-2.06c-.87-.73-1.7-1.41-2.41-2.09a26.39,26.39,0,0,1-1.89-1.92c-.54-.6-1-1.13-1.34-1.58-.71-.9-1.06-1.46-1.06-1.46s.42.5,1.21,1.33c.39.42.88.91,1.46,1.45s1.24,1.14,2,1.76,1.59,1.26,2.48,1.93S351,446.36,352,447l.78.47.83.42c.56.27,1.1.6,1.69.84l1.76.76c.6.23,1.21.42,1.82.63a14,14,0,0,0,1.85.55c.62.15,1.24.34,1.86.44a31,31,0,0,0,3.68.48l1.8.12,1.7,0c1.12,0,2.18,0,3.15-.06,2-.09,3.58-.18,4.72-.29Z"/><ellipse class="cls-20" cx="350.14" cy="435.18" rx="1.77" ry="2.26" transform="translate(-158.15 203.62) rotate(-26.69)"/><ellipse class="cls-20" cx="386.74" cy="435.18" rx="1.77" ry="2.26" transform="translate(-154.25 220.06) rotate(-26.69)"/><circle class="cls-16" cx="504" cy="433.01" r="38.36"/><circle class="cls-18" cx="504" cy="433.01" r="31.1"/><circle class="cls-19" cx="502.23" cy="433.01" r="14.64"/><circle cx="502.23" cy="433.01" r="8.72"/><circle class="cls-20" cx="509.49" cy="430.2" r="2.81"/><path class="cls-21" d="M472.89,433a31.1,31.1,0,1,0,31.1-31.1A31.1,31.1,0,0,0,472.89,433Zm5.74,3.4c10.1-8.35,22.17-13.9,40.84-5.52a7.85,7.85,0,0,1,4.94,8.48c-.6,6.34-16.81,17.77-45.91,5.17C474.85,443,473.33,440.8,478.64,436.41Z"/><path class="cls-11" d="M448.06,436.41c0,53.71,55.94,50.19,66.26,48.23,17.79-3.38,53.26-19.43,46.37-57.24-3.91-21.47-7.77-29.9-23.24-32.54C511,390.34,448.06,382.69,448.06,436.41Zm25.68,0c10.14-11.24,17.62-16.66,34.8-15,14.54,1.4,23.17,17.19,23.17,17.19s-9.67,13.49-26.14,13.49-26.42-5.49-26.42-5.49S460.53,451.05,473.74,436.41Z"/><path class="cls-22" d="M528.19,442.56l.16-.22Z"/><path class="cls-22" d="M517.26,418.9c3.82,2.47,8.18,4.92,11.14,5.39,4.68.74,13.6.32,19.91-4.54,0,0-10.13,17.21-17.73,12.68l-6.46-4c-2.94-1.79-11.77-6.63-15.57-7-17.18-1.66-24.66,3.76-34.8,15-13.21,14.64,5.4,10.19,5.4,10.19s10,5.49,26.42,5.49c15.06,0,21.61-8.14,22.62-9.53A110.57,110.57,0,0,1,513,459.5c-23.6,20.94-29.92-.14-53.12-17.16C445.36,431.71,476.4,385.34,517.26,418.9Z"/><path class="cls-23" d="M526.81,431.88a81,81,0,0,1-8.14-6.95A36.24,36.24,0,0,1,526.81,431.88Z"/><path class="cls-2" d="M551.23,399.68s-1.39-.35-3.83-.83-5.93-1.08-10.13-1.58c-2.1-.26-4.38-.44-6.78-.62s-4.94-.22-7.56-.24c-1.31,0-2.64,0-4,.06s-2.7.12-4.07.24-2.74.21-4.11.39-2.75.37-4.12.6-2.73.5-4.09.74-2.69.62-4,1l-2,.57c-.65.18-1.31.34-1.94.56-1.26.44-2.54.79-3.75,1.28-2.43.92-4.76,1.9-6.93,2.92l-3.12,1.57L478,407.9c-.94.49-1.75,1.09-2.58,1.58s-1.62,1-2.31,1.47c-1.39,1-2.68,1.81-3.65,2.57-2,1.51-3.14,2.36-3.14,2.36s.92-1.09,2.61-3c.84-.94,2-2,3.24-3.18.62-.63,1.37-1.18,2.12-1.83s1.55-1.32,2.44-1.93l2.76-2c1-.63,2-1.25,3.09-1.91a63.08,63.08,0,0,1,7-3.55,68.57,68.57,0,0,1,7.92-2.86c1.39-.37,2.79-.74,4.2-1.07s2.84-.63,4.29-.84,2.88-.43,4.33-.55,2.88-.26,4.31-.34a76.07,76.07,0,0,1,8.39,0,78.18,78.18,0,0,1,7.78.8c2.46.36,4.76.82,6.86,1.33s4,1,5.68,1.56,3.11,1.05,4.27,1.51A37.42,37.42,0,0,1,551.23,399.68Z"/><path class="cls-2" d="M473.74,436.41l.5-.64c.33-.42.82-1,1.47-1.78a48.51,48.51,0,0,1,5.95-5.74,41.28,41.28,0,0,1,10.12-6.08,32.84,32.84,0,0,1,6.46-2,31.31,31.31,0,0,1,7-.58,30.52,30.52,0,0,1,7,1.13,33.79,33.79,0,0,1,6.28,2.6,53.42,53.42,0,0,1,5.29,3.32l4.41,3.23a22.34,22.34,0,0,0,3.76,2.36,4.47,4.47,0,0,0,5.11-.42,6.71,6.71,0,0,0,.62-.53,6.73,6.73,0,0,1-.47.67,4.8,4.8,0,0,1-1.88,1.49,5.73,5.73,0,0,1-3.84.09,21.25,21.25,0,0,1-4.39-2c-3-1.7-6.25-3.9-9.92-5.7a35,35,0,0,0-5.8-2.31,26.12,26.12,0,0,0-6.28-1.12,29.73,29.73,0,0,0-6.41.31,37.54,37.54,0,0,0-6.09,1.54,42.55,42.55,0,0,0-5.46,2.35,47.93,47.93,0,0,0-4.63,2.72,60.91,60.91,0,0,0-6.46,4.92C474.56,435.62,473.74,436.41,473.74,436.41Z"/><path class="cls-2" d="M531.71,438.6s-.35.56-1.06,1.46c-.36.45-.81,1-1.34,1.58a26.53,26.53,0,0,1-1.89,1.92c-.71.69-1.54,1.37-2.41,2.09a33.77,33.77,0,0,1-2.92,2.06l-.79.51-.84.46c-.57.3-1.11.65-1.72.9l-1.8.8c-.61.24-1.25.45-1.87.67a14.52,14.52,0,0,1-1.91.55c-.65.15-1.28.34-1.92.44a27.66,27.66,0,0,1-3.81.41l-1.83.06-1.74-.06c-1.13-.06-2.19-.13-3.17-.23-2-.18-3.58-.47-4.71-.66s-1.76-.36-1.76-.36l1.79.17c1.14.11,2.77.21,4.72.29,1,0,2,.06,3.15.06l1.72,0,1.78-.12a31.6,31.6,0,0,0,3.69-.48c.62-.1,1.24-.3,1.86-.44a14.1,14.1,0,0,0,1.85-.54c.61-.21,1.22-.4,1.82-.63l1.76-.76c.59-.24,1.13-.57,1.69-.84l.83-.42.78-.47c1-.6,2-1.27,2.94-1.89s1.74-1.29,2.47-1.93,1.41-1.23,2-1.76,1.07-1,1.46-1.45C531.29,439.11,531.71,438.6,531.71,438.6Z"/><ellipse class="cls-20" cx="523.54" cy="435.18" rx="2.26" ry="1.77" transform="translate(-100.42 707.49) rotate(-63.31)"/><circle class="cls-15" cx="357.21" cy="498.93" r="7.08"/><circle class="cls-15" cx="516.46" cy="498.93" r="7.08"/><g class="cls-12"><path class="cls-20" d="M475.51,562.62s-1.14.44-3.21,1c-1,.28-2.29.6-3.75.91s-3.11.64-4.92.93l-2.83.44-3,.39c-2.09.23-4.29.48-6.58.63s-4.65.34-7.05.39-4.83.11-7.3.15-4.85-.06-7.27-.15-4.77-.24-7.06-.39-4.49-.39-6.58-.63l-3-.39-2.83-.44c-1.81-.29-3.46-.62-4.92-.93s-2.72-.63-3.75-.91c-2.07-.56-3.21-1-3.21-1s1.21.19,3.32.41l3.81.36,4.95.36,5.85.31,6.53.22c2.26.07,4.61.09,7,.13s4.81,0,7.24,0,4.83,0,7.21,0,4.72-.06,7-.13l6.53-.22,5.85-.31,4.95-.36,3.81-.36C474.31,562.81,475.51,562.62,475.51,562.62Z"/></g><ellipse class="cls-24" cx="436.84" cy="40.27" rx="17.47" ry="24.61"/><ellipse class="cls-24" cx="437.03" cy="10.6" rx="7.22" ry="5.73"/><path class="cls-25" d="M414.58,74.58c0-8.81,5.12-14.94,12.55-17.7,2.93-1.09,6.23.06,9.7.06,3.3,0,6.42-1.2,9.24-.21,7.66,2.68,13,8.88,13,17.86a22.23,22.23,0,0,1-44.47,0Z"/><path class="cls-26" d="M540.41,243.22C498.35,186.6,469.86,82.8,469.86,82.8H403.81s-28.49,103.8-70.55,160.42c-61.5,82.79-38.93,178.16-38.93,178.16s12.8,2.36,14.4,7.09c0,0,5.23-77.71,28.06-93.84,39.25-27.72,72.91-4.13,100,0,27.13-4.13,60.79-27.72,100,0,22.83,16.13,28.06,93.84,28.06,93.84,1.61-4.73,14.4-7.09,14.4-7.09S601.91,326,540.41,243.22Z"/><path class="cls-27" d="M540.41,237.35c-42.06-56.62-70.55-160.42-70.55-160.42H403.81s-28.49,103.8-70.55,160.42c-61.5,82.79-38.93,186.94-38.93,186.94s12.8,2.36,14.4,7.09c0,0,5.23-86.48,28.06-102.61,39.25-27.72,72.91-4.13,100,0,27.13-4.13,60.79-27.72,100,0,22.83,16.13,28.06,102.61,28.06,102.61,1.61-4.73,14.4-7.09,14.4-7.09S601.91,320.14,540.41,237.35Z"/><path class="cls-28" d="M467.78,210.63c-4.39-15.6-16.11-48.39-19.66-133.7H425.55C422,162.24,410.28,195,405.89,210.63c-35.92,22.6-56,51.2-56,51.2l87,66.94,87-66.94S503.7,233.23,467.78,210.63Z"/><path class="cls-29" d="M538.65,251.18C504,207.86,436.84,209,436.84,209s-67.2-1.18-101.82,42.14c-36.89,46.16,56.4,15.66,101.82,15.66S575.54,297.34,538.65,251.18Z"/><path class="cls-6" d="M458,216.71c-8.16-15.33-11.72-139.78-11.72-139.78H427.4s-3.56,124.45-11.72,139.78c-16.61,30.67-17.52,112.06-17.52,112.06h77.35S474.6,247.38,458,216.71Z"/><path class="cls-30" d="M436.84,202a143.6,143.6,0,0,0-17.78,1.19c-1,6.45-2.15,11.25-3.38,13.55-5.92,10.93-9.84,28.31-12.44,46.14,12.22-1.72,24-3.09,33.6-3.09s21.38,1.37,33.6,3.09c-2.6-17.84-6.53-35.21-12.44-46.14-1.23-2.31-2.35-7.1-3.38-13.55A143.6,143.6,0,0,0,436.84,202Z"/><rect class="cls-31" x="414.51" y="71.62" width="44.65" height="5.31"/><ellipse class="cls-27" cx="414.46" cy="74.27" rx="2.24" ry="2.65"/><ellipse class="cls-27" cx="418.93" cy="74.27" rx="2.24" ry="2.65"/><ellipse class="cls-27" cx="423.4" cy="74.27" rx="2.24" ry="2.65"/><ellipse class="cls-27" cx="427.87" cy="74.27" rx="2.24" ry="2.65"/><ellipse class="cls-27" cx="432.34" cy="74.27" rx="2.24" ry="2.65"/><ellipse class="cls-27" cx="436.81" cy="74.27" rx="2.24" ry="2.65"/><ellipse class="cls-27" cx="441.29" cy="74.27" rx="2.24" ry="2.65"/><ellipse class="cls-27" cx="445.76" cy="74.27" rx="2.24" ry="2.65"/><ellipse class="cls-27" cx="450.23" cy="74.27" rx="2.24" ry="2.65"/><ellipse class="cls-27" cx="454.7" cy="74.27" rx="2.24" ry="2.65"/><ellipse class="cls-27" cx="459.17" cy="74.27" rx="2.24" ry="2.65"/><rect class="cls-31" x="425.96" y="15.04" width="21.76" height="4.78"/><circle class="cls-32" cx="427.26" cy="17.43" r="2.39"/><circle class="cls-27" cx="432.04" cy="17.43" r="2.39"/><circle class="cls-32" cx="436.81" cy="17.43" r="2.39"/><circle class="cls-27" cx="441.59" cy="17.43" r="2.39"/><circle class="cls-32" cx="446.37" cy="17.43" r="2.39"/><rect class="cls-31" x="422.1" y="54.55" width="29.46" height="3.65"/><circle class="cls-27" cx="422.22" cy="56.38" r="1.82"/><circle class="cls-27" cx="425.87" cy="56.38" r="1.82"/><circle class="cls-27" cx="429.52" cy="56.38" r="1.82"/><circle class="cls-27" cx="433.17" cy="56.38" r="1.82"/><circle class="cls-27" cx="436.81" cy="56.38" r="1.82"/><circle class="cls-27" cx="440.46" cy="56.38" r="1.82"/><circle class="cls-27" cx="444.11" cy="56.38" r="1.82"/><circle class="cls-27" cx="447.76" cy="56.38" r="1.82"/><circle class="cls-27" cx="451.41" cy="56.38" r="1.82"/><rect class="cls-31" x="428.47" y="12.98" width="16.7" height="2.07"/><circle class="cls-27" cx="428.54" cy="14.01" r="1.03"/><circle class="cls-27" cx="430.61" cy="14.01" r="1.03"/><circle class="cls-27" cx="432.68" cy="14.01" r="1.03"/><circle class="cls-27" cx="434.75" cy="14.01" r="1.03"/><circle class="cls-27" cx="436.81" cy="14.01" r="1.03"/><circle class="cls-27" cx="438.88" cy="14.01" r="1.03"/><circle class="cls-27" cx="440.95" cy="14.01" r="1.03"/><circle class="cls-27" cx="443.02" cy="14.01" r="1.03"/><circle class="cls-27" cx="445.09" cy="14.01" r="1.03"/><ellipse class="cls-27" cx="437.03" cy="3.28" rx="5.29" ry="3.28"/><path class="cls-27" d="M166.06,124.51v77.85s46.34,10.12,60.09,83.3c12.39,65.92-12.39,89.72-12.39,89.72s-35.39,30.46-28.31,72.36c10,59.06,65.81,90.82,88.81,149.24v60.11s48.38,77,62.4,88.65c32,26.54,45.8,20.35,45.8,20.35L285.24,521.73,222.62,182.9Z"/><path class="cls-6" d="M166.06,87.68s88.4,51,129.16,309.31c45.6,289,74.28,330.17,95,369.1-1,1.67-7.75,0-7.75,0s-60.8-45.3-85.68-144C252.57,446.82,248.47,214,166.06,124.51Z"/><path class="cls-27" d="M213.77,375.38s-47.75,23.38-47.7,83.84c0,39.74,65.13,69.57,77.78,87S274.27,597,274.27,597,279.24,467,213.77,375.38Z"/><path class="cls-28" d="M213.77,375.38s-47.75,23.38-47.7,83.84c0,39.74,65.13,69.57,77.78,87S274.27,597,274.27,597,279.24,467,213.77,375.38Z"/><path class="cls-27" d="M707.61,124.51v77.85s-46.34,10.12-60.09,83.3c-12.39,65.92,12.39,89.72,12.39,89.72s35.39,30.46,28.31,72.36c-10,59.06-65.81,90.82-88.81,149.24v60.11S551,734.1,537,745.74c-32,26.54-45.8,20.35-45.8,20.35l97.24-244.36L651.06,182.9Z"/><path class="cls-6" d="M707.61,87.68s-88.4,51-129.16,309.31c-45.6,289-74.28,330.17-95,369.1,1,1.67,7.75,0,7.75,0s60.8-45.3,85.68-144C621.1,446.82,625.2,214,707.61,124.51Z"/><path class="cls-27" d="M659.9,375.38s47.75,23.38,47.7,83.84c0,39.74-65.13,69.57-77.78,87S599.4,597,599.4,597,594.43,467,659.9,375.38Z"/><path class="cls-28" d="M659.9,375.38s47.75,23.38,47.7,83.84c0,39.74-65.13,69.57-77.78,87S599.4,597,599.4,597,594.43,467,659.9,375.38Z"/><ellipse class="cls-33" cx="199.69" cy="411.09" rx="21.07" ry="11.87" transform="matrix(0.75, -0.66, 0.66, 0.75, -221.6, 233.93)"/><ellipse class="cls-33" cx="673.98" cy="411.09" rx="11.87" ry="21.07" transform="translate(-79.62 646.33) rotate(-48.72)"/></g></g></g></g></svg>