<svg xmlns="http://www.w3.org/2000/svg" viewBox="0 0 760.32 1056"><defs><style>.cls-1{isolation:isolate;}.cls-2{fill:none;}.cls-3{fill:#7c4c32;}.cls-12,.cls-4{fill:#3e2723;}.cls-5{fill:#bdbdbd;}.cls-6{fill:#ddbc99;}.cls-7{fill:#b79051;}.cls-8{fill:#c15634;}.cls-10,.cls-24,.cls-29,.cls-8{opacity:0.5;}.cls-9{fill:#ffcdd2;}.cls-11{fill:#fff3e0;}.cls-12,.cls-18,.cls-32{opacity:0.15;}.cls-13,.cls-29{fill:#eacaa0;}.cls-14{fill:#4fc3f7;}.cls-15{fill:#212121;}.cls-16,.cls-17{fill:#fafafa;}.cls-17{opacity:0.3;}.cls-18,.cls-20,.cls-26{fill:#8d6e63;}.cls-19{fill:#5d4037;}.cls-21{fill:#4e342e;}.cls-22{fill:#c69a6d;}.cls-23{fill:#918277;}.cls-24,.cls-25,.cls-27{fill:#6d4c41;mix-blend-mode:hard-light;}.cls-25{opacity:0.7;}.cls-26{opacity:0.2;mix-blend-mode:color-burn;}.cls-27{opacity:0.31;}.cls-28{fill:#665346;}.cls-29{mix-blend-mode:screen;}.cls-30{fill:#1e110f;}.cls-31{fill:#301d1b;}.cls-32{fill:#fff;}.cls-33{opacity:0.4;}.cls-34{fill:#846e5d;}</style></defs><title>starwarsChewbacca</title><g class="cls-1"><g id="Layer_2" data-name="Layer 2"><g id="Layer_1-2" data-name="Layer 1"><rect class="cls-2" width="760.32" height="1056"/><g id="Chewbacca"><g id="clothes"><path class="cls-3" d="M433.86,901.95c58.54,38.88,100.39,91.83,100.39,154h-304c0-62.18,41.85-115.12,100.39-135.08l54.1-66Z"/><path class="cls-3" d="M264.81,964.87s-16.12,22.44-40.47,23.6c37.09,1.16,57.18-13.19,57.18-13.19Z"/><path class="cls-3" d="M251.25,980.06s-12.23,24.53-36.09,29.26c36.83-4.3,54.32-21.43,54.32-21.43Z"/><path class="cls-3" d="M290.24,942.42s-23.2,16-46.53,9.29c34.49,12.93,58.54,5.85,58.54,5.85Z"/><path class="cls-3" d="M236.61,1016.59s-4.42,26.8-25.89,37.68c34.05-13.94,45.72-35,45.72-35Z"/><path class="cls-3" d="M503.34,965.44s15.06,22.49,31.48,29.26C507,994.5,503.34,965.44,503.34,965.44Z"/><path class="cls-3" d="M508.26,982.62s24.93,22.08,41.35,28.85C493.25,1014,508.26,982.62,508.26,982.62Z"/><path class="cls-3" d="M521.75,1014.57s12.92,29,24.7,41.13C495.25,1036.87,521.75,1014.57,521.75,1014.57Z"/><path class="cls-4" d="M386,1055.71c.82,0,36.73-43.87,72.68-93,16.91-19.34,43.53,17.37,43.53,17.37S457.21,1040.39,441,1056C413.38,1055.94,386,1055.71,386,1055.71Z"/><path class="cls-5" d="M500.7,992.88l-45.54-32.74a2.54,2.54,0,0,1-.49-3.65L472.8,934a2.54,2.54,0,0,1,3.46-.47l45.54,32.74a2.54,2.54,0,0,1,.49,3.65l-18.14,22.51A2.54,2.54,0,0,1,500.7,992.88Z"/><path class="cls-5" d="M466.56,1036.21,421,1003.46a2.54,2.54,0,0,1-.49-3.65l18.14-22.51a2.54,2.54,0,0,1,3.46-.47l45.54,32.74a2.54,2.54,0,0,1,.49,3.65L470,1035.74A2.54,2.54,0,0,1,466.56,1036.21Z"/><path class="cls-5" d="M399.67,1056l-12.3-8.84a3.07,3.07,0,0,1-.64-4.46L404,1021.3a3.5,3.5,0,0,1,4.72-.61l44.3,31.85a3.09,3.09,0,0,1,1.22,3.32Z"/></g><path class="cls-6" d="M380.16,655.86s-119.8-39.15-158.05,24.22-2,126.58,93.32,123.82,202.44,32.42,210.47-24.32-11.54-128.32-64.46-122.4S380.16,655.86,380.16,655.86Z"/><path class="cls-7" d="M380.81,655.87a106,106,0,0,0,0,11q.24,5.5.8,11c.37,3.66.86,7.33,1.52,11a86.8,86.8,0,0,0,2.62,11,5.91,5.91,0,1,1-11.25,0,86.76,86.76,0,0,0,2.63-11c.66-3.66,1.16-7.33,1.53-11s.65-7.33.82-11a106,106,0,0,0,0-11,.66.66,0,1,1,1.31-.08A.75.75,0,0,1,380.81,655.87Z"/><path class="cls-8" d="M380.13,699.83s-111-32.8-114.74,47.35c-.6,12.7,18.78,30.16,85.61,28.64,95.29-2.17,118.55,14.9,132.95-8.73,5.82-9.55,11.25-30.1-21-48C419.6,695.15,380.13,699.83,380.13,699.83Z"/><path class="cls-3" d="M697.53,844.53s-19.4-1.34-30.31-50.48c-4.94-22.24-5.44-77-14.95-121.38-3-14.17-22.28-42.37,17-4C650.09,611.32,647.91,563.8,646.7,545c-8.08-126.2-41.2-216.09-93.8-270.08-66.71-89.24-139.19-111-176.6-111-46.34,0-106,31.15-172.41,105.76C150.37,326.65,122,414.49,113.62,545c-1.2,18.82-3.39,66.34-22.54,123.64,39.25-38.32,20-10.13,17,4-9.51,44.38,29.7,133.45,25.57,155.86-11.06,60-44.06,92.05-44.06,92.05s71.81-6,99.74-75c4.79,20.6-8.29,112.11-27.93,140.23,23.24-8.63,56.09-50.83,63-73.33-1.56,22.21-7.21,53.33-20.91,80.93,169.66-109.58-2-202.69,2.82-257.69s101-116.81,101-116.81,72.94-18.45,72.94-82.85c0,64.4,72.94,82.85,72.94,82.85s96.1,61.81,101,116.81-40.4,160.1,65.69,213c-13.7-27.6-24.83-52.3-33.44-72.55,11.37,19.12,66.16,19.06,89.4,27.7-19.63-28.13-33.81-59-29-79.64C653.68,851.06,697.53,844.53,697.53,844.53Z"/><path class="cls-9" d="M298.56,717.71c7.62,3,18.44,2.13,18.44,2.13a11.35,11.35,0,0,1,13.17.93c6.56,5.32,24.3.24,24.3.24s.85-2,2.11-.08c3,4.39,21.91-.13,21.91-.13a2.5,2.5,0,0,1,1.59-.53c1.57-.06,1.44.53,1.44.53s17.9,3.89,21.73.23c2.05-2,3.46-.37,3.46-.37s16.88,5.43,23.44.11a11.35,11.35,0,0,1,13.17-.93,59.12,59.12,0,0,0,11-.34h0l-1.9-.65-.12,0-1.77-.55-.28-.08-1.64-.46-.38-.11q-1-.26-2-.5c-21-4.9-66.93-7.09-66.08-17.28-1.37,16.6-60.09-5.95-78.14,5.89q-1.23.81-2.43,1.64l-.36.25q-1.16.81-2.28,1.63l-.33.24q-1.16.86-2.29,1.73l-.05,0q-1.2.93-2.35,1.88A21,21,0,0,0,298.56,717.71Z"/><path class="cls-4" d="M456.28,720.25c-5.75.75-18.75-1.11-18.75-1.11s-2.62-3.69-9.18,1.63-22.84-.21-22.84-.21-.9-1.46-2.77.47c-3.68,3.81-21.22-.23-21.22-.23s0-.58-1.37-.53a2.68,2.68,0,0,0-1.66.53s-18.1,4.46-20.91,0a1.69,1.69,0,0,0-2.54-.35s-12.9,1.43-19.46-3.89-14.51-.82-14.51-.82-11.76,3.64-19.38.64c-2.46-1-7.85-1.33-9.79-3.21-33.32,54.93,10.83,55.16,18.38,55.9-1-.08,10.33.7,6.86.49,21,.7,45.71,0,63,0,17.07,0,44.18,3.12,42.57,3,13.86,1.07,17.61,1.08,20.28,1.07s6,0,5,0C479.9,773.59,494.15,766,456.28,720.25Z"/><path class="cls-10" d="M336.91,770.16h0C336.86,770.16,336.84,770.16,336.91,770.16Z"/><path class="cls-10" d="M379.87,748.39c-24.74-.26-40.85,7.16-49.43,14,1.87,4.72,1.18,4,2.3,7.79,1.06-.06,30.91-.64,47.43-.64,16.16,0,47.89,3.28,49.17,3.47.57-3.19,1.14-5,1.77-7.48C421.44,758.62,402.62,748.63,379.87,748.39Z"/><path class="cls-10" d="M422.73,772.5h0C422.81,772.51,422.8,772.51,422.73,772.5Z"/><path class="cls-11" d="M439.89,743.28c2,7.89,11.66-8.58,16.39-23-4.83-2-9.79-3-15.27-4.25-1.49-.35-3.14-.6-4.84-.91C441.23,727.63,437.07,732.42,439.89,743.28Z"/><path class="cls-11" d="M383.43,731.12c9.23.55,17.42-.06,20.2-1.67a56.6,56.6,0,0,0-1.25-10.15c-1.16-4.84-3.43-9.09-6.37-10.61-1.68-.43-5.46-1.47-5.61-1.46-5.73.35-8.1,7.85-9,11.94a26.45,26.45,0,0,0-.65,9.07A2.92,2.92,0,0,0,383.43,731.12Z"/><path class="cls-11" d="M405.51,720.56c-.84,4-1.49,4.35-1.35,7.28a1.49,1.49,0,0,0,1.21,1.43c5,.69,13-.83,17.21-1.66a1.55,1.55,0,0,0,1.25-1.67,25.69,25.69,0,0,0-.83-5.28c-.71-2.94-1.88-6.52-3.58-7.87-2.83-.33-5.72-1.08-8.59-1.4C407.49,712.78,406.07,717.88,405.51,720.56Z"/><path class="cls-11" d="M320.73,724.41c-1-7.69,3.18-18.68.55-20.05-3.84-2-10.42,1.19-14.85,3.64a9.13,9.13,0,0,0-4.69,9c1,9.29,3.31,17.11,10.73,22.55C321,745.79,321.73,732.1,320.73,724.41Z"/><path class="cls-11" d="M368.53,706.57c-5,0-8.87,5.31-10.4,11.66a59.53,59.53,0,0,0-1.35,8.1,3.54,3.54,0,0,0,2.76,3.83,72,72,0,0,0,18,1.38,2.14,2.14,0,0,0,2.23-1.9,42.15,42.15,0,0,0-.69-11.53C378.19,713.92,375.91,706.57,368.53,706.57Z"/><path class="cls-11" d="M354.19,728a1.61,1.61,0,0,0,1.21-1.43,70.59,70.59,0,0,0-1.47-13.41c-.73-3.5-2.78-8-8.95-8-4.17,0-7.58,3.32-8.3,8.77a54.82,54.82,0,0,0-.7,9.23c0,.8-.11,3.25,1.73,3.72C341.52,727.89,349.9,729.33,354.19,728Z"/><path class="cls-11" d="M431.57,748.2c-4.71-2.47-9.55,15.43-11.41,24,1.09.12,6.66.61,9.7.82.73.05,2.75.23,4,.25H434C434.19,767.58,434.42,749.7,431.57,748.2Z"/><path class="cls-11" d="M325.18,745.59c-2.83,1.25-2.75,16.1-2.5,24,2.74.18,5.39.31,8,.4h.1l3.62.09h.47l3.46,0C335.78,760.86,330.29,743.33,325.18,745.59Z"/><path class="cls-12" d="M302,713.8c3.51-5.63,18.84-9.67,19.72-2.73,5.24-2.36,10.48-.29,15.06,2.08,6-4.18,12.92-3.6,17.12.06,1.5-2.23,4.75-1.61,5.87.31,6.48-4.56,23.15-.37,23.36.45,2-2.12,13.46-.82,18.81,3.83.33,0,.25,0,4.09.52,1.51-4,14.49-1.66,16.53.78,2.37-1.7,8.49-.84,8.49,0a13.46,13.46,0,0,1,7.33,4.21c1.92-6,17.15-1.71,16,2,2.57.54,4.91.68,1.82-5.06a50.21,50.21,0,0,0-10.06-3.14c-21-4.9-66.36-6.95-66.08-17.28-.43,16.51-60.72-5.86-78.14,5.89-5.32,3.59-8.49,6.22-10.09,7.41A78.69,78.69,0,0,1,302,713.8Z"/><path class="cls-11" d="M343.85,770s-1.21-1.5,1.36-2.57,11.07-2.81,12.64-1.38a5.07,5.07,0,0,1,1.45,3.68Z"/><path class="cls-11" d="M362.62,769.62s-1.46-3,1.12-4.11,13-1.44,14.57,0,.43,4,.43,4Z"/><path class="cls-11" d="M417,771.93s1.47-2.64-1.11-3.71-12.24-3.23-13.81-1.79-.24,4.08-.24,4.08Z"/><path class="cls-11" d="M398.51,770.24s1.1-3.5-1.48-4.57-12.24-1.6-13.82-.16-.81,4-.81,4Z"/><path class="cls-4" d="M301,503.67c15.18.76,35.33.72,35.33.72s3.44,3.73,8.48,9,25.8,26.07,15,42.71-19.74,49.58-60.6,30.92-64.62-6.48-64.62-6.48,45-19.94,21.24-26.21C243.19,551,280.1,502.61,301,503.67Z"/><path class="cls-4" d="M462.68,503.67c-15.18.76-35.33.72-35.33.72s-3.44,3.73-8.48,9-25.8,26.07-15,42.71,19.74,49.58,60.6,30.92,59.88-37.53,49.43-56.43C507.62,519.18,483.62,502.61,462.68,503.67Z"/><path class="cls-13" d="M469.6,552.28s-11.15-13.38-26.94-10.2c-13.22,2.67-18.18,4.41-15.7,12.17S458.82,567.49,469.6,552.28Z"/><path class="cls-14" d="M455.63,543a10.64,10.64,0,0,1,.66,4.72,10.79,10.79,0,0,1-21.5-1.86,10.61,10.61,0,0,1,.39-2c2.11-.57,4.6-1.1,7.48-1.69A24.87,24.87,0,0,1,455.63,543Z"/><circle class="cls-15" cx="445.54" cy="546.74" r="5.46" transform="translate(-137.56 943.5) rotate(-85.06)"/><ellipse class="cls-16" cx="450.9" cy="549.01" rx="2.09" ry="1.99" transform="translate(-134.93 950.92) rotate(-85.06)"/><path class="cls-17" d="M464.66,555.15c-5.53,3.32-14,8.75-28.72,3.37-11.4-4.16-5.64-10.12-5.64-10.12s7.33,5,27.12,3.27C468.58,550.72,466.43,554.09,464.66,555.15Z"/><path class="cls-18" d="M469.6,552.28s-2.3-3.69-18.67-6.38c-9.2-1.51-26,3.4-26,3.4s5.83-8.1,21-8S466.87,546.48,469.6,552.28Z"/><path class="cls-19" d="M474.8,554.75a77,77,0,0,0-7.54-7,36.45,36.45,0,0,0-8.36-5.21,22.5,22.5,0,0,0-4.57-1.41,23.94,23.94,0,0,0-2.4-.33l-2.57-.25c-3.43-.35-6.87-.71-10.37-1.32a50.12,50.12,0,0,1,10.44-1.44c.88,0,1.75-.05,2.63-.06a19.79,19.79,0,0,1,2.78.19,20.29,20.29,0,0,1,5.38,1.54,27.12,27.12,0,0,1,8.79,6.4A29.66,29.66,0,0,1,474.8,554.75Z"/><path class="cls-19" d="M463.17,560a24.62,24.62,0,0,1-8.49,3.56,32.46,32.46,0,0,1-9.26.8,33.31,33.31,0,0,1-9.11-1.8,32.33,32.33,0,0,1-4.27-1.79,40.29,40.29,0,0,1-3.93-2.39c1.49.4,2.89,1,4.34,1.37s2.87.86,4.33,1.13l2.17.47,2.19.34c.72.14,1.46.2,2.19.27s1.46.18,2.2.17l2.21.1c.74,0,1.47,0,2.21,0,1.47,0,2.95-.17,4.42-.34A49.73,49.73,0,0,0,463.17,560Z"/><path class="cls-13" d="M290.71,552.13s11.26-13.3,27-10c13.2,2.77,18.14,4.54,15.61,12.29S301.38,567.42,290.71,552.13Z"/><path class="cls-14" d="M304.76,542.91a10.64,10.64,0,0,0-.7,4.71,10.79,10.79,0,0,0,21.52-1.69,10.61,10.61,0,0,0-.37-2c-2.1-.58-4.59-1.14-7.47-1.74A24.87,24.87,0,0,0,304.76,542.91Z"/><circle class="cls-15" cx="314.82" cy="546.77" r="5.46" transform="translate(-41.96 26.41) rotate(-4.5)"/><ellipse class="cls-16" cx="309.44" cy="549.01" rx="1.99" ry="2.09" transform="translate(-42.16 25.99) rotate(-4.5)"/><path class="cls-17" d="M295.64,555c5.51,3.36,13.93,8.86,28.69,3.59,11.43-4.07,5.72-10.07,5.72-10.07s-7.37,4.92-27.15,3.06C291.75,550.57,293.87,554,295.64,555Z"/><path class="cls-18" d="M290.71,552.13s2.33-3.67,18.72-6.23c9.21-1.44,25.93,3.6,25.93,3.6s-5.77-8.15-21-8.17S293.49,546.35,290.71,552.13Z"/><path class="cls-19" d="M285.49,554.56a29.66,29.66,0,0,1,5.84-8.87,27.12,27.12,0,0,1,8.84-6.34,20.29,20.29,0,0,1,5.39-1.5,19.79,19.79,0,0,1,2.78-.17c.88,0,1.76,0,2.63.08a50.12,50.12,0,0,1,10.43,1.52c-3.5.58-6.94.92-10.37,1.24l-2.57.23a23.88,23.88,0,0,0-2.4.31,22.49,22.49,0,0,0-4.58,1.37,36.45,36.45,0,0,0-8.4,5.15A77,77,0,0,0,285.49,554.56Z"/><path class="cls-19" d="M297.09,559.94a49.74,49.74,0,0,0,8.78,1.91c1.47.18,2.94.32,4.42.37.74,0,1.47,0,2.21.06l2.21-.08c.74,0,1.47-.1,2.2-.15s1.47-.12,2.2-.25l2.19-.32,2.18-.46c1.47-.26,2.88-.73,4.34-1.09s2.85-.95,4.35-1.33a40.34,40.34,0,0,1-3.95,2.36,32.34,32.34,0,0,1-4.28,1.76,33.31,33.31,0,0,1-9.13,1.73,32.45,32.45,0,0,1-9.26-.87A24.62,24.62,0,0,1,297.09,559.94Z"/><polygon class="cls-20" points="377.91 456.79 380.16 180.56 382.41 456.79 377.91 456.79"/><path class="cls-20" d="M401,463.76a5.25,5.25,0,0,1-.61.82,3.43,3.43,0,0,1-.61.53,2.62,2.62,0,0,1-.55.28,2.31,2.31,0,0,1-.74.17,2.67,2.67,0,0,1-2-.71,2.58,2.58,0,0,1-.32-.34,4.51,4.51,0,0,1-.59-1,12.15,12.15,0,0,1-.73-2.6c-.28-1.57-.43-3.06-.56-4.55-.24-3-.36-5.91-.43-8.84-.15-5.86-.12-11.7,0-17.53.17-11.66.59-23.31,1.13-34.94q1.63-34.9,4.56-69.7c1.93-23.2,4.22-46.37,7-69.48s6.08-46.17,10.51-69c-4.07,22.91-6.95,46-9.4,69.14s-4.33,46.32-5.89,69.52-2.72,46.43-3.44,69.66c-.35,11.62-.58,23.23-.56,34.84,0,5.8.09,11.6.32,17.37.12,2.88.28,5.76.56,8.58.14,1.4.31,2.81.57,4.1a8.6,8.6,0,0,0,.44,1.59l0,0s0-.07-.06-.08-.08-.09-.13-.14a1.76,1.76,0,0,0-.24-.17,1.4,1.4,0,0,0-.47-.19,1.74,1.74,0,0,0-.61-.05,2.34,2.34,0,0,0-.48.11,2.27,2.27,0,0,0-.31.16c-.09,0-.22.19-.21.16s0,0,0-.06Z"/><path class="cls-20" d="M400.88,462q9.63-68.41,17.83-137.05,4.06-34.32,7.46-68.7l1.59-17.2,1.36-17.22c.45-5.74.71-11.49,1.08-17.24.21-2.87.24-5.75.34-8.63l.26-8.64-.12,8.64c0,2.88,0,5.76-.2,8.64-.27,5.75-.44,11.52-.8,17.27l-1.08,17.25-1.31,17.24q-2.8,34.46-6.34,68.85-7,68.79-15.61,137.41Z"/><path class="cls-20" d="M396.9,468.62q9.7-33.33,19.71-66.56t20.26-66.38q10.28-33.15,21-66.14c7.21-22,14.53-43.93,22.54-65.63-7.66,21.83-14.62,43.89-21.47,66S445.51,314.13,439,336.33,426.13,380.75,419.84,403s-12.51,44.53-18.61,66.83Z"/><path class="cls-20" d="M401.12,480.94c8.08-21.84,16.5-43.5,25.11-65.11s17.46-43.11,26.67-64.46,18.63-42.62,28.73-63.57,20.58-41.72,32.42-61.73c-11.51,20.2-21.65,41.13-31.4,62.21s-18.81,42.49-27.68,64-17.33,43.11-25.6,64.82-16.32,43.51-24,65.4Z"/><path class="cls-20" d="M386.35,487.37Q403.78,458,421.78,429t36.53-57.66q18.53-28.66,38.08-56.65c13.09-18.6,26.45-37.07,41.42-54.21-14.68,17.39-27.72,36.06-40.49,54.85s-25.08,37.93-37.11,57.22-23.91,38.67-35.55,58.21-23.16,39.14-34.43,58.86Z"/><path class="cls-20" d="M382.84,501.35c13.26-18.24,27-36,41-53.64s28.45-34.87,43.32-51.75,30.22-33.35,46.35-49q12.05-11.8,24.91-22.75a293.89,293.89,0,0,1,26.76-20.5,293.65,293.65,0,0,0-26.4,20.92q-12.63,11.15-24.49,23.13c-15.83,15.93-30.86,32.63-45.44,49.71S440.23,432,426.51,449.79s-27.13,35.81-40,54.15Z"/><path class="cls-20" d="M374.49,518.57q48.65-51.64,97.92-102.66Q497,390.4,522,365.18c16.65-16.78,33.38-33.5,50.62-49.69-17,16.45-33.43,33.43-49.81,50.47S490.19,400.2,474,417.46q-48.48,51.76-96.24,104.17Z"/><path class="cls-20" d="M372.7,462.7q-2.14-69-5.5-138-1.69-34.5-4-69c-1.56-23-3.3-45.94-6.18-68.79,3.25,22.8,5.36,45.76,7.3,68.71s3.6,45.93,5.1,68.92q4.53,69,7.75,138Z"/><path class="cls-20" d="M368.64,462.46q-5.79-68.85-12-137.67-3.11-34.41-6.4-68.8c-2.22-22.92-4.47-45.85-7.05-68.73,3,22.84,5.58,45.73,8.17,68.62s5.08,45.79,7.52,68.69q7.34,68.71,14.23,137.48Z"/><path class="cls-20" d="M372.72,469.7c-4.72-22.66-9.84-45.28-15.2-67.82s-11-45-17.15-67.37q-4.56-16.77-9.52-33.43t-10.47-33.15c-3.7-11-7.58-21.9-11.93-32.64a250.83,250.83,0,0,0-14.89-31.39A251.08,251.08,0,0,1,309,235.07c4.53,10.68,8.6,21.56,12.48,32.49s7.54,21.95,11,33,6.86,22.17,10.08,33.32c6.48,22.28,12.5,44.69,18.26,67.17s11.22,45,16.32,67.69Z"/><path class="cls-20" d="M368.61,482.37c-6.93-22.18-14.34-44.27-22-66.23s-15.78-43.8-24.35-65.45c-4.29-10.82-8.67-21.6-13.27-32.3s-9.3-21.34-14.32-31.84-10.24-20.91-15.9-31.08a255.19,255.19,0,0,0-18.79-29.41,255.49,255.49,0,0,1,19.28,29.13c5.82,10.1,11.23,20.43,16.42,30.87s10.08,21,14.86,31.66,9.34,21.36,13.81,32.13q13.39,32.31,25.44,65.15c8.07,21.88,15.84,43.85,23.16,66Z"/><path class="cls-20" d="M383.78,489.68q-18.22-30-36.7-59.9t-37.2-59.6c-12.51-19.8-25.11-39.54-38-59.1-6.45-9.77-12.95-19.51-19.63-29.13-3.35-4.8-6.72-9.59-10.23-14.27a118.14,118.14,0,0,0-11.2-13.5,118.27,118.27,0,0,1,11.42,13.33c3.59,4.63,7,9.37,10.46,14.12,6.84,9.51,13.5,19.15,20.11,28.82C286,329.81,298.95,349.36,311.78,369s25.53,39.29,38.16,59,25.2,39.5,37.68,59.34Z"/><path class="cls-20" d="M363.87,536.92c-2.25-5.44-4.81-10.91-7.42-16.27s-5.38-10.7-8.23-16q-8.57-15.8-18.32-30.94a435.71,435.71,0,0,0-43.62-57.15c-4-4.49-8.2-8.76-12.37-13.08-4.32-4.17-8.55-8.43-13.06-12.39s-9-7.89-13.63-11.77c-2.35-1.87-4.73-3.7-7.09-5.55-1.19-.91-2.35-1.87-3.57-2.75l-3.66-2.62a273.8,273.8,0,0,0-63.22-34.29,274.38,274.38,0,0,1,63.87,33.38l3.72,2.57c1.23.87,2.42,1.8,3.63,2.7,2.4,1.82,4.83,3.62,7.21,5.46,4.66,3.82,9.4,7.56,13.87,11.61s8.91,8.13,13.32,12.25c4.26,4.28,8.57,8.5,12.64,13a438.53,438.53,0,0,1,44.79,56.83q10,15.07,18.94,30.89c3,5.27,5.83,10.59,8.56,16s5.38,10.81,7.81,16.45Z"/><path class="cls-21" d="M360.09,856.9S259,974.2,313,1030.08C263,978.29,386.16,900.61,386.16,900.61Z"/><path class="cls-21" d="M455.06,861.92s55.44,121.51-19.54,148.13c57.35-41.37-7.36-152.34-7.36-152.34Z"/><path class="cls-22" d="M260.4,739.17s-60.65,55.23-53.52,93.66c13.61,73.43-8.75,122.39,59.92,151.85,24.29,10.42,25.24,39.62,25.24,39.62s24.1-21.51-27.43-81.89c59.23,37.86,74,64.74,28.2,104.51,62.09-18.89,77.5-52.64,58.37-85-21.61-36.5.76-80-5.75-87.17,7,1.69-11.73,51.24,9.87,75.59,15.46,17.43,13.87,43.19-3.63,63.13,52.28-48.52,27.61-84.78,26.4-94.22,7.78,8.4,18.2,26.62,3.5,70.71s36.53,40.06,36.53,40.06-28.9,7.08,3.51-44c20.45-32.22,25.58-53.14,10.3-74.14,39.17,30.74-16.43,88.78-26.51,104.53,39.17-24.5,114.11-76.3,98.51-110.82-18.5-40.94-36.12-31.25-36.12-31.25s54.22,95.12-23.41,172c155-103,109.66-213.36,98.27-245.91-17.39-98.47-49.77-103.33-45.49-77.84C513.66,821,386.05,769.09,341.66,776,236.53,792.48,260.4,739.17,260.4,739.17Z"/><path class="cls-23" d="M370.69,667c0,1.79-6.72,11.67-26,13.05-14,1-34.43-1.91-54,8.48-22.79,12.13-48.14,28.82-43,56.95,7.45,40.69,1.17,74-19.76,114.37,3.12-18.95,2.85-31.45,2.85-31.45s-16.65,58.48-38,61.18c12.84-20.22,16.17-106.1,24.83-145.27,7.35-33.26,3.21-83.19,25.68-94.86,51.46-26.72,74.45-28.3,127.4,15.17C371.48,665.31,370.69,667,370.69,667Z"/><path class="cls-22" d="M380.16,578.9V495.38s-31.77,84.16-76.29,102.13-159.65-1.9-142.49,138.22c13.45,109.83-46.67,82.88-3.93,180.5,19.85,45.34-1.43,50.15-1.43,50.15s42.15,7.87,27.74-45.66C202.79,955.77,216,954,216,954s-27.22-19.92-3.38-44.64c46.9-48.64,18.94-165.45,34.22-221,12.43-45.16,44.43-41.9,76.19-50,0,0,0,0,0,0,1.13-.19,57.07,18.28,57.07,17.5C380.16,631,380.16,604.1,380.16,578.9Z"/><path class="cls-24" d="M354.39,582.59c-12.31,2.55-94.4,25.78-94.39,24.64-50.61,22-46.85,52.61-35.49,42.66,23.21-20.31,53.73-46.78,33.56-26.77-7.37,9.57-32.44,48.18-39.52,57.25-11.44,14.67-15,16-18.89,43.88-1.78,12.76,22,98.62-36.34,132.65-21.82,12.73-9.47,17.45-1.1,39.42,7.88,20.69,18,46,.74,64.4a12.23,12.23,0,0,1-6.94,5.67s42.15,7.87,27.74-45.66C202.79,955.77,216,954,216,954s-27.22-19.92-3.38-44.64c-32.33-40.51,6.46-138.22,9.72-195.74,6-106.31,115.74-115,132.36-109.51,6.46-7.79,21.17-17.47,24.95-21.52C380.41,581.8,353.68,583.28,354.39,582.59Z"/><path class="cls-22" d="M408.09,584.8c-14.71-6.21-22.07-5.9-27.93-5.9V495.38s31.77,84.16,76.29,102.13,95.38-11.68,129.25,125.7c37,150,47.15,151.62,21.71,199C575.57,915.33,580,950.58,580,950.58s-22.39-16.5,0-46.67c-46.26,39.58-14.83,62.88-14.83,62.88s-39.43-18.41-23.74-62.88c21.56-61.09-13-109-21.82-166C509.81,674.29,471,674,431.57,643.21c.48-.77,7.64-7.93,7.9-8.67C444.22,621.09,395.72,604.77,408.09,584.8Z"/><path class="cls-24" d="M592.92,861.56c-9.81-12.94-35.42-51.62-38.85-125.83-2-42.1-67.81-84.69-67.81-84.69s53.26,41.59,48.56,84.69c-4.77,43.79,47.92,84,27.61,124.86,1,3.74,4.86,14.32,5,15.56,1.75,13.86-34.84,65-9.13,86.37a47,47,0,0,0,6.81,4.23l.08,0S533.78,943.49,580,903.91c-22.39,30.17,0,46.67,0,46.67s-4.47-35.25,27.37-28.36c0,0,1.36-2.55,5.33-20.41S602.73,874.5,592.92,861.56Z"/><path class="cls-22" d="M97.26,446.47s142.4-54.08,207.79-13.91,62.13,100.21,62.13,100.21-12.1-57.53-113.12-73.94C152.53,442.33,97.26,446.47,97.26,446.47Z"/><path class="cls-22" d="M113.62,466.55s40.25-35.16,82.06-27.63c48.12,8.67,51.79,14.78,32.64,16C203.08,456.55,128.5,456.89,113.62,466.55Z"/><path class="cls-22" d="M496,765.92s29.69,33.46,35.2,69.24c1.19-45.24-26.41-69-26.41-69Z"/><path class="cls-22" d="M338,558.2s-19.67,16.67-47.44,2.59c-15,12.27-35.72,13-52.83,13.73-66.61,2.79-131.47,113.13-135.83,137.17-1.91,10.53-16.82,70.14-34,115.14,11.62-13.31,25.1-36.58,27.18-42.11,4.67,23.3-7.77,62.2-10.83,72.17-7.75,25.24-17,35.68-29,47,29-13,81-27,106.22-117.07,28.49-101.69,92.37-162.39,108.5-169.31C280.89,612.81,349.79,577.67,338,558.2Z"/><path class="cls-22" d="M360.09,577.67s-9.6-37.73-73.36-61.66c-56.06-21-89,1.08-111.9,47.23s-90.65,82.38-90.65,82.38,44.17-26.69,67.07-121.89c13.17-54.76,72.62-98.9,142.63-81.54C325.06,449.92,402.78,535.34,360.09,577.67Z"/><path class="cls-25" d="M324.69,532.85c-.79-1-1.58-1.95-2.35-2.92-3.41-4.29-37.79-28.76-49-33.14-9.13-1.41-16.9-5.54-25.72-4.37-23.18,3.08-36,11.14-49.74,27.85-15,18.19-43.66,42.09-56.82,61.43-13.44,19.76-25.81,40.4-44,56.34,20.79-13,61.12-41.26,77.77-74.8C197.73,517.08,230.67,495,286.72,516c17.67,6.63,31.15,14.32,41.45,22Q326.46,535.39,324.69,532.85Z"/><path class="cls-22" d="M310.55,526.78C253.36,489.69,161.06,556,130,611.15S101.17,677,97.24,680.08c26.61-26.79,105.12-143.57,142.57-156.34C276,511.41,289.3,521.11,310.55,526.78Z"/><path class="cls-22" d="M258.58,561.53s-59.81,3.6-16.21-9.59c-32.44-.84-55.51,6.44-76.4,25.87-32,29.72-52.36,116-93.73,157.93,53.51-21.64,89.29-125.16,120.53-149.16C212,571.79,258.58,561.53,258.58,561.53Z"/><path class="cls-22" d="M197.89,451.11C155,500.44,174.82,538,93.1,581.83,156.54,521,143.5,475.24,197.89,451.11Z"/><path class="cls-22" d="M663.06,446.47s-142.4-54.08-207.79-13.91-62.13,100.21-62.13,100.21,12.1-57.53,113.12-73.94C607.79,442.33,663.06,446.47,663.06,446.47Z"/><path class="cls-22" d="M646.7,466.55s-26.89-30.71-68.7-23.18c-48.12,8.67-65.15,10.34-46,11.56C557.24,456.55,631.82,456.89,646.7,466.55Z"/><path class="cls-22" d="M420.17,558.59s29,15,45.58,3.36c91.83-5.9,188.36,125.71,192.72,149.75s10.21,120.86,17.68,145.19c7.75,25.24,17,35.68,29,47-29-13-81-27-106.22-117.07-28.49-101.69-91.45-162.76-108.22-167.92S419.67,570.43,420.17,558.59Z"/><path class="cls-22" d="M400.23,577.67s10.45-33.51,74.21-57.44c56.06-21,88.15-3.14,111.05,43s90.65,82.38,90.65,82.38S632,618.92,609.08,523.73c-13.17-54.76-72.62-98.9-142.63-81.54C435.26,449.92,357.54,535.34,400.23,577.67Z"/><path class="cls-22" d="M444.85,513.73c33.8-54.15,149.49,29.21,180.55,84.37s28.82,65.84,32.75,68.93c-26.61-26.79-97.52-137.75-153.68-152.85C467.57,504.26,466.09,508.06,444.85,513.73Z"/><path class="cls-22" d="M501.74,561.53s44.74-26.47,97.2,22.32c32,29.72,47.76,109.93,89.14,151.88C634.57,714.09,600.63,627,556.42,590.15,526.36,565.1,501.74,561.53,501.74,561.53Z"/><path class="cls-22" d="M562.43,451.11c42.93,49.33,17.2,131.24,104.78,163.09C603.78,553.4,616.82,475.24,562.43,451.11Z"/><path class="cls-24" d="M534.27,466.55s60.6,57.32,80.56,93.71C631.75,591.13,652,597.65,652,597.65s-24.47-34.84-35.3-64.88-14.83-37.39-14.83-37.39Z"/><path class="cls-22" d="M559.81,452.9s91.3,84.56,124.22,86.6c-46.63-.53-131.13-66-131.13-66Z"/><path class="cls-22" d="M559.81,438.93s91.3,84.56,124.22,86.6c-46.63-.53-131.13-66-131.13-66Z"/><path class="cls-22" d="M200.51,452.9s-91.3,84.56-124.22,86.6c46.63-.53,131.13-66,131.13-66Z"/><path class="cls-22" d="M209.6,450.53s-96.12,61-124.56,56.92C124.82,515.38,211,470.7,211,470.7Z"/><path class="cls-22" d="M537.37,423.5C574.15,395.77,612.52,371,612.52,371s-68.85,13.46-129.77,58.76c83-66.54,117.05-84.95,117.05-84.95s-73.34-21-110.05-11.54c-33.35,8.56-69.58,33.85-94.23,80,7.59-24.79,24.45-67.49,55.39-119.68-14.4,13.39-42.82,49-47.79,60.29a575.63,575.63,0,0,0-24,65.38c-31.25-47.9-82.73-81.14-121.16-82.7,16,6.31,42.23,30,52.57,37.3-4.24-2.65-9.42-7.09-40.95-15.2-36.72-9.44-60.94,2.93-60.94,2.93s22.63,10.77,51.49,25.23C225.44,373.54,150.37,371,150.37,371s47.88,15.4,86.26,32.61c-58.85-16-77-6.2-77-6.2s61,41.22,103.92,63.87,106,110.49,106,110.49l11.89-2.28,11.89,2.28s63.12-87.83,106-110.49,141.29-20.19,141.29-20.19S596.22,407.46,537.37,423.5Z"/><path class="cls-22" d="M472.3,519.85s63.59,34.45,78.1,54C509,518,467.8,510.09,467.8,510.09Z"/><path class="cls-26" d="M354.57,580.73l-7.14-23.24s-17,29.85-43.56,31.38h0c-50.07,4.46-76.19,28.27-101,62.21-22.86,31.31-36.42,67.66-50.66,103.23-10.65,26.61-21.92,53.29-38,77.44-13.66,20.49-24.9,49.33-48.6,61.35a133.85,133.85,0,0,1-10.45,10.8c29-13,81-27,106.22-117.07C189.87,685.15,233,637.52,258.07,623.12c3.61-2.07,24.36-9.32,31.41-12.05,8-3.08,35.17-33.59,59.22-38.65.48-.1,8.51,19.25,9,19.14,1.09-1.15-2.37-4.45-1.55-5.34C358.95,583.19,352.15,582.52,354.57,580.73Z"/><path class="cls-22" d="M340.15,548.11s2,17.48-27.31,36.51c-17,11-47.46,20.54-47.46,20.54s33.51-4.68,44.9-10.74c-9.62,10.07-23.82,13.07-23.82,13.07s46.72-5.22,58.21-19,11.14-12,11.84-16.73C354.27,559.21,340.15,548.11,340.15,548.11Z"/><path class="cls-26" d="M530.67,805.92c-6.47-11.4-5.48-58.22-11-70.19-3.46-7.45-3.31,20-6.27,11.91-5-13.58-22.56-35.66-19.59-30.39,5.73,10.18,9.83,38.48,2.27,48.68-13,17.47-21.24,19.11-36.77,18.8,18,18.32,47.18,38.36,41.55,81.65-11.84,91-4.77-3.73-18.34-25.56,1.1,13.39-1.15,36.53-4.62,48.79-4.7-48.43-29.36-72.64-29.36-72.64S452,857,452,906.61c-10.28-26-17.81-33.72-19.37-35,3.41,6.54-5.89,16.58-5.72,25.45-7.38,44-20,30-16.88,21.74,13.62-36.06-9-.93-14-7.62-11-14.74-18.8-38-22.92-8.34-.62,4.56-1.86,14.17-2.48,21.47-21.58-24.28-15.18-49.87-29-57.88a19.14,19.14,0,0,1,3.83,8.52c-10.07,28.89-24.83,21.23-29.63,35.66,4.7-1.12,24.76,47.87,27.43,56,9.94,30.35-12.72,31-11.17,19.18,6.38-48.83-29.24-67-35-81.92-.84-2.18,10.29-38.35,10.29-38.35-20.88,29.72-51,47.15-30.7-39.56,3.27-14-2,3.61-7.27-9.65-.5-1.26,7.27-34.4,19.58-40.59-31.09,5.34-40.73-44.64-43.92-45.54,1.91,53.08-39.06,84.17-30,107.69,26.45,68.52-36.35,44.19,51.63,146.79A163.65,163.65,0,0,1,292,1024.31s24.1-21.51-27.43-81.89c59.23,37.86,74,64.74,28.2,104.51,32.49-9.88,52.19-17.25,60.85-35.31,40.6-33.79,32.32-72.49,24.82-94,7.79,14.4,19.58,34.34,3.08,72.36-17.09,39.39,29.74,40.8,36.53,40.06-3,.33-14.91,2.71-10.8-14.48,3.48-2.51,30.82-20.39,36-24.43C461,977.24,471.7,967.42,485.84,954c-1.41,33.16-16.8,68.37-42.23,91.27,32.21-20.24,80.38-59.49,98.26-102.41,8.17-19.63-12.61-56.54-7.63-72.57C546.22,831.77,548.52,837.34,530.67,805.92ZM354.26,1010.36c7.24-16.09,5.79-33.36-3.08-48.38-15.47-26.18-8-58-5.16-75.15-1.07,18.57-7.78,42.86,9.27,63.57C369.3,967.41,369.27,990.92,354.26,1010.36Zm53.83,1.92c2.81-6.35,2.34-8.57,13.53-26.19q1.67-2.63,3.2-5.16C418.53,1000.05,412.54,1005.67,408.08,1012.28Z"/><path class="cls-27" d="M273,785.89s8.9-8.36-20.23,51.5c-19.59,40.26,40.63,113.79,37.78,118-37.82-21.35-38.17-36.33-48.31-58.14-8.63,21.82,12.33,56.93,25.69,69.53-50.23-34.78-22-147.45-15-228.55C252.49,765.92,273,785.89,273,785.89Z"/><path class="cls-28" d="M289.5,685.3c-7.36,3.31-20.71,9.12-26.17,15-10,10.79-19,16.24-21.48,30.37-.45,2.61,2.88,59.41,2.7,62,.77,3,.95-32.46,5.29-24.53.24.43,10.41-29.43,10.55-29,12.65-36.1,8.73-31.76,28.63-43.78,17.53-10.59,50.06-15.09,55.65-15.32C336.39,677.08,308.84,676.59,289.5,685.3Z"/><path class="cls-22" d="M283.14,646.46c-17.95,12.33-20.19,37.45-34,60.21L235.3,729.44a323.76,323.76,0,0,0,35.27-49.72c14.86-26.22,9-29.11,25.37-35.19C299.59,643.18,286.34,644.26,283.14,646.46Z"/><path class="cls-24" d="M236,462.88s78.83,5.2,118.55,117.85c-55-115.46-130.81-120.79-156.68-107.19C207.78,462.65,236,462.88,236,462.88Z"/><path class="cls-26" d="M269.81,577.8s-47.68-8.21-100.14,40.59c-32,29.72-97.92,205.36-101.85,208.45C140.56,743,110.57,653.92,197.24,607.49,232,588.89,269.81,577.8,269.81,577.8Z"/><path class="cls-24" d="M222.22,534.16s-52.62,52.64-73,65.26C165.72,575.52,222.22,534.16,222.22,534.16Z"/><path class="cls-26" d="M230.85,620.8s-80.73,63.61-84.07,90.68c-3.7,30-23.49,81.67-33.16,92.42,29.71-33,36.22-82.21,46.82-97.61s29.69-37.15,42.46-55.21C213.14,636.61,230.85,620.8,230.85,620.8Z"/><path class="cls-24" d="M278.77,604.1s-86,28.08-113.09,168.5C205.24,646.46,278.77,604.1,278.77,604.1Z"/><path class="cls-27" d="M501.74,730.7s1,37.62,4.35,55.19c.26,29.7,8.82,38.58,8,89.57C530.67,745.1,501.74,730.7,501.74,730.7Z"/><path class="cls-22" d="M356.11,505.37s-18.94-26.89-64.65-18.87c-22.76,4-56.21,29.39-80.09,38.79-36.26,14.27-114.12,3-114.12,3S176.18,542,265.37,476.49c51.16-37.57,89,20.37,96.8,8.93C368.72,484.31,356.11,505.37,356.11,505.37Z"/><path class="cls-24" d="M473.51,520.61s-9.72-6.76-16.78-10.52c-24.07,9.11-52.65,54.78-52.88,68.21C414.18,547,473.51,520.61,473.51,520.61Z"/><path class="cls-24" d="M485.19,516.58l-15.94-9.38s16.32-.63,30.26,5.34C490.57,515.07,485.19,516.58,485.19,516.58Z"/><path class="cls-24" d="M493.49,500.49s40.08-.08,62.93,15.8c19.59,13.61,25.71,40.49,25.71,40.49S570.65,516.58,493.49,500.49Z"/><path class="cls-24" d="M509.1,643.91s65.08,34.66,99.41,145.63c12.73,41.15,24.81,67.36,24.81,67.36s-23.4-25.88-34.38-70.05C583.25,723.7,509.1,643.91,509.1,643.91Z"/><path class="cls-26" d="M483.69,589c-19.85-2.73-70.76-4-83.5-4.33,0,0-.93,10-.9,10,5.15,5.51,22,6.9,29.56,7.64,72.9,7.17,159.9,74.87,184.59,124.63C592.91,660.4,530.6,595.5,483.69,589Z"/><path class="cls-26" d="M413.17,558.2a117.63,117.63,0,0,0-9.31,20.1c5.28,4,11.37,13.19,30.89,13.25,28.14.08,24.52-1.69,24.52-1.69s-24-6.61-31.39-13.3S413.17,558.2,413.17,558.2Z"/><path class="cls-22" d="M403.85,578.3l1.71-3.42,20.69,9.83L409,571.79s1-9.08,2.52-11.66c4.54-5.83,14.11-13.4,14.11-13.4s3.35,20.18,35.9,37.89c41.34,22.49,58.35,19.52,66.11,26.45-23.18-6.57-64.47-11.2-64.47-11.2s44.06,3.54,62.08,22.64c-28.71-6.45-68.19-15.4-88.92-24.87S403.85,578.3,403.85,578.3Z"/><path class="cls-26" d="M585.5,625.35s49.85,58.91,73.65,90.65c4.11,35,8.07,78.06,8.07,78.06s-36.56-101.58-64.75-136.87-63.63-70.87-63.63-70.87S563.83,598.82,585.5,625.35Z"/><path class="cls-26" d="M656,711.51c-2.68-6.24-4.45-12.91-7.57-18.94a145.27,145.27,0,0,0-12.12-19.23c-4.5-6.13-9.5-12-13.39-18.59s-7.06-13.72-11.09-20.29c-7.89-12.84-18.59-24.84-29-35.71-10-10.49-21.07-20.41-34-27.14a104.93,104.93,0,0,0-27-9.33,68.13,68.13,0,0,0-15.76.42c8.67,2.56,29.44,9.74,54.33,25.7,20.73,13.29,56.08,86.51,97,125.91C656.92,713.41,656.47,712.49,656,711.51Z"/><path class="cls-24" d="M514.05,463.46c30.06-7.73,66.08-6.47,66.08-6.47s7.64,6.19,9.06,7.75C573.64,461.73,551.28,460.86,514.05,463.46Z"/><path class="cls-24" d="M160.16,397.45s88.2,30.32,107.65,53.08c-86.45-47.12-44-7.64-44-7.64S194,417.8,160.16,397.45Z"/><path class="cls-24" d="M113.62,466.55s28.25-18.12,71.32-16.79c24.66.76,29.11,1.35,43.38,5.17C203.08,456.55,128.5,456.89,113.62,466.55Z"/><path class="cls-24" d="M439.74,468.38s77-90.74,159.83-123.62C517.75,396.1,439.74,468.38,439.74,468.38Z"/><path class="cls-29" d="M343.2,466.27c-11.76-55.35-40.28-86.12-40.28-86.12s24.4,41,28.25,59c-26.32-33.1-80.65-52-80.65-52s29.73,7.18,69.76,57.87c-82-60.26-143.91-47.62-143.91-47.62s78,17.43,117.19,51c12.8,11,23,17.94,33.52,25.61-6.71-10.22-8.79-16-14-23.58C320,451.94,343,466.39,343.2,466.27Z"/><path class="cls-13" d="M316.69,384.16l33.8,70.21s1.27-13.41-6.41-32.53S316.69,384.16,316.69,384.16Z"/><path class="cls-29" d="M440.09,516.95c-.9,0-21.31,10.3-36.24,22.17-1.56,1.24,11.43-16.78,9.53-16.25-1.23.34-16.1,16.83-17.87,18.73-2.31-2.41-7-17.09-10.16-20.57-1.77,3.78-8,8.54-10.51,19.4-5.35-10.86-17.13-22.6-21.26-26.68A112.78,112.78,0,0,1,358.05,537c-6.49-14.23-21-19.39-21.56-19.5,7.95,24.08,23.61,57.14,23.61,57.14l7.55-.78L366,537l4.65,36.64,9.54,1,5.55-19,.46,18.17,15.87.67s7.08-18.92,11.35-26.68C417.42,540.53,429.63,528.76,440.09,516.95Z"/><path class="cls-29" d="M346,597.83s-50.34,8.36-80.59,30.74c31.9-10.18,65-12.8,65-12.8Z"/><path class="cls-29" d="M413.38,595.23s66.47,17.16,81.68,27.29c-26.4-6.4-37.3-9-37.3-9s32.3,7.34,55.91,24.67c-46.51-17.17-67.7-22.9-85.42-26.85A125,125,0,0,1,413.38,595.23Z"/><path class="cls-29" d="M226.08,442.19s36.29,12.26,61.31,24.37C318.61,481.66,340.76,516,340.76,516s-32.42-30.85-50.05-40.78C267.67,462.26,226.08,442.19,226.08,442.19Z"/><path class="cls-29" d="M409.37,406.57s13.42-46.18,75.45-67.07c24.52-8.26,63.73-1,103.4,4.29C449.95,339.2,409.37,406.57,409.37,406.57Z"/><path class="cls-29" d="M211.32,361.52a617.58,617.58,0,0,1,90.95,45.28C270.63,376.71,233.56,361.54,211.32,361.52Z"/><path class="cls-29" d="M197.24,627.52c20-21.6,56.94-53.24,130.94-52.64C291,586.44,259.8,588.52,197.24,627.52Z"/><path class="cls-29" d="M473.51,571.79s49.12,6.46,93.75,53.33A813.73,813.73,0,0,0,473.51,571.79Z"/><path class="cls-29" d="M534.27,435.1c-15.38-1-37.85,9.61-57,20.91,19.91-15.83,36.38-40.13,36.38-40.13s-60,46.37-83.82,65c11.08-24.65,58.81-106.22,89.83-122.2-32.68,12.85-74.36,42.86-90.82,83.48-7.32,18.06-7.92,30.63-8.67,33.05-2.33,7.44,10.59-28.19,8.67-19-.95,4.54-.68,22.06-.73,26.74,11.32-7.45,26.19-15.34,38.85-23.38-8.81,6.05-25.5,26.38-25.5,26.38S474.8,461.07,534.27,435.1Z"/><path class="cls-23" d="M405.3,680.08c23.51,2.35,50.06,11.92,68.21,19.43,30,12.42,36.54,66.23,40.14,94.54,3.82-39.64,6-42.84,6-56.12.09-86.57-38.48-96.88-85.55-97.48-25.49-.32-9.59-4.93-43.61,25.16C390.48,665.61,388.45,678.39,405.3,680.08Z"/><path class="cls-22" d="M434.09,640.45c23.83,4.38,67.18,48.11,85.6,65.84-15.23-23.76-55.62-70.67-75.61-69C430.75,638.45,427.52,639.25,434.09,640.45Z"/><path class="cls-28" d="M513.47,754.63c-5.7-49.68-38.58-87.37-108.17-74.54,88.19,16.72,103.8,74,107.29,105.76C512.89,779.59,513.69,771.54,513.47,754.63Z"/><path class="cls-26" d="M300.08,784.22s20.63,43.68,25,31,3.21-27.72,11.7-21,22.62,24.43,31.83,14.47,39.89-22,47.18-20.3c-14.94-8.76-50.36-3.46-67.83-4.19S300.08,784.22,300.08,784.22Z"/><path class="cls-22" d="M314.37,595.56s-50.25,4.38-68.9,19.4-32.18,34.37-32.18,34.37,70.9-37.42,91.91-41c23.08-3.89,39.47-19.84,39.47-19.84Z"/><path class="cls-22" d="M443.32,586c24.08,6.89,78,14,96.64,29s32.18,34.37,32.18,34.37-77.49-37.47-98.63-40.2c-61.85-8-69.66-30.82-69.66-30.82S436.14,583.92,443.32,586Z"/><path class="cls-29" d="M339.32,558.42s-8.55,20.63-27,29-36,14.61-36,14.61,22.57-1.53,34-7.58c-9.62,10.07-23.82,13.07-23.82,13.07s46.72-5.22,58.21-19,8.49-10.64,8.49-10.64l-6.24-12.25-2.69,6.16Z"/><path class="cls-29" d="M403.85,578.3l1.71-3.42,20.69,9.83L414.2,568.46,425,574.88l3.13-16.45s.13,13.14,31.77,28.21c42.49,20.24,60,17.51,67.76,24.43-23.18-6.57-64.47-11.2-64.47-11.2s44.06,3.54,62.08,22.64c-28.71-6.45-68.19-15.4-88.92-24.87S403.85,578.3,403.85,578.3Z"/><path class="cls-30" d="M408.09,584.8c.9-8.43-22.07-5.9-27.93-5.9s-26.22-3.37-27.93,5.9c-3.63,19.65-36.13,36.29-31.38,49.74s47.36,30.56,59.31,21.33c7.56,8.67,54.57-7.88,59.31-21.33S406.35,601.22,408.09,584.8Z"/><path class="cls-31" d="M408.09,584.8c-2.53-8.43-22.07-5.9-27.93-5.9s-22.69-4.67-27.93,5.9c-2.81,5.67-.09,7.8-21.26,29.74-2,2-3.17,5.12-3.87,7.74-1.8,6.8,5.88,5.23,10.61,5.13a41.89,41.89,0,0,1,15.72,2.69,45.17,45.17,0,0,1,6.87,1.81,42.86,42.86,0,0,1,19.87,14.54c9-13,25-17.18,40.46-16.7,3.74.12,7.44.45,11.17.71,1.79.13,5,.66,6.84.6a5.7,5.7,0,0,0,.64-1.51c.13-.5.28-1,.42-1.51C436.82,613.82,413.65,603.31,408.09,584.8Z"/><path class="cls-32" d="M374.16,627.83c-2.09-2.66-9.66-5.41-17.12-6.68h0c-7.42-1.75-4.44-16.1-3.76-22.7s-1.24-2.68-7.29,7.17-15.6,12.94-17.81,21.16,20.72,4.3,20.72,4.3c21.45,3.92,24.82,2.34,29,18.41C378.9,639.27,378.29,636.15,374.16,627.83Z"/><path class="cls-33" d="M392.88,649.48c0,4.26,6.16,2.28,13.37.53a48.18,48.18,0,0,0,19.51-10c3.4-2.81-11.4-4.1-18.91-1.93C397.16,640.93,392.88,645.22,392.88,649.48Z"/><path d="M425.76,640.05c.26-.33.44-.77.19-1a2,2,0,0,0-.94-.44,12.69,12.69,0,0,0-2.38-.29,48.84,48.84,0,0,0-4.9,0,55.69,55.69,0,0,0-9.57,1.15c-.73.16-1.51.41-2.29.64s-1.54.48-2.3.75a33.9,33.9,0,0,0-4.4,1.85,16.15,16.15,0,0,0-3.87,2.62,9.11,9.11,0,0,0-1.5,1.81,8.19,8.19,0,0,0-.92,2.28,6.31,6.31,0,0,1,.05-2.63,9.07,9.07,0,0,1,1.07-2.5,14.4,14.4,0,0,1,3.77-3.84,24,24,0,0,1,4.63-2.57,33.61,33.61,0,0,1,5-1.7,32.61,32.61,0,0,1,10.44-.51,28.33,28.33,0,0,1,5.11,1,11.35,11.35,0,0,1,2.46,1.06,2.41,2.41,0,0,1,1,1.07.82.82,0,0,1-.13.77A1.71,1.71,0,0,1,425.76,640.05Z"/><path class="cls-32" d="M417.6,624.33c-5.62-5.09-30.41,1.29-31.45,9.12,0,10.68,9.25-.71,24.41-2.38C423,629.71,421,627.39,417.6,624.33Z"/><path class="cls-33" d="M367.18,649.48c0,4.26-6.16,2.28-13.37.53a48.18,48.18,0,0,1-19.51-10c-3.4-2.81,11.4-4.1,18.91-1.93C362.9,640.93,367.18,645.22,367.18,649.48Z"/><path d="M334.3,640.05a1.71,1.71,0,0,1-.52-.41.82.82,0,0,1-.13-.77,2.41,2.41,0,0,1,1-1.07,11.35,11.35,0,0,1,2.46-1.06,28.33,28.33,0,0,1,5.11-1,32.61,32.61,0,0,1,10.44.51,33.6,33.6,0,0,1,5,1.7,24,24,0,0,1,4.63,2.57,14.4,14.4,0,0,1,3.77,3.84,9.06,9.06,0,0,1,1.07,2.5,6.31,6.31,0,0,1,.05,2.63,8.19,8.19,0,0,0-.92-2.28,9.11,9.11,0,0,0-1.5-1.81,16.15,16.15,0,0,0-3.87-2.62,33.9,33.9,0,0,0-4.4-1.85c-.75-.27-1.53-.52-2.3-.75s-1.56-.48-2.29-.64a55.69,55.69,0,0,0-9.57-1.15,48.84,48.84,0,0,0-4.9,0,12.69,12.69,0,0,0-2.38.29,2,2,0,0,0-.94.44C333.86,639.28,334,639.72,334.3,640.05Z"/><polygon points="377.91 655.87 380.16 611.07 382.41 655.87 377.91 655.87"/><path class="cls-34" d="M330.43,644.53c11.21,12.61,27.36,20.42,40,17,3.47-.4,7.44-4.32,4.41-5.64C360.16,649.43,333,643.87,330.43,644.53Z"/><path class="cls-34" d="M386.16,657c-3.1,1.21,3.48,4.3,4.32,5.3,13.39,3.08,35.92-10.17,41.09-19.11C424,642.71,393.21,654.27,386.16,657Z"/></g></g></g></g></svg>