<svg xmlns="http://www.w3.org/2000/svg" viewBox="0 0 577.84 793.08"><defs><style>.cls-1{isolation:isolate;}.cls-2{fill:#7c4c32;}.cls-11,.cls-3{fill:#3e2723;}.cls-4{fill:#bdbdbd;}.cls-5{fill:#ddbc99;}.cls-6{fill:#b79051;}.cls-7{fill:#c15634;}.cls-23,.cls-28,.cls-7,.cls-9{opacity:0.5;}.cls-8{fill:#ffcdd2;}.cls-10{fill:#fff3e0;}.cls-11,.cls-17,.cls-31{opacity:0.15;}.cls-12,.cls-28{fill:#eacaa0;}.cls-13{fill:#4fc3f7;}.cls-14{fill:#212121;}.cls-15,.cls-16{fill:#fafafa;}.cls-16{opacity:0.3;}.cls-17,.cls-19,.cls-25{fill:#8d6e63;}.cls-18{fill:#5d4037;}.cls-20{fill:#4e342e;}.cls-21{fill:#c69a6d;}.cls-22{fill:#918277;}.cls-23,.cls-24,.cls-26{fill:#6d4c41;mix-blend-mode:hard-light;}.cls-24{opacity:0.7;}.cls-25{opacity:0.2;mix-blend-mode:color-burn;}.cls-26{opacity:0.31;}.cls-27{fill:#665346;}.cls-28{mix-blend-mode:screen;}.cls-29{fill:#1e110f;}.cls-30{fill:#301d1b;}.cls-31{fill:#fff;}.cls-32{opacity:0.4;}.cls-33{fill:#846e5d;}</style></defs><title>starwars-chewbacca</title><g class="cls-1"><g id="Layer_2" data-name="Layer 2"><g id="Layer_1-2" data-name="Layer 1"><g id="Chewbacca"><g id="clothes"><path class="cls-2" d="M336.66,656.13c52,34.57,89.25,81.63,89.25,136.91H155.67c0-55.28,37.2-102.34,89.25-120.09L293,614.27Z"/><path class="cls-2" d="M186.38,712.07S172,732,150.4,733c33,1,50.84-11.72,50.84-11.72Z"/><path class="cls-2" d="M174.33,725.57s-10.88,21.81-32.08,26c32.74-3.83,48.29-19,48.29-19Z"/><path class="cls-2" d="M209,692.1s-20.63,14.2-41.37,8.26c30.66,11.5,52,5.2,52,5.2Z"/><path class="cls-2" d="M161.31,758s-3.93,23.82-23,33.5c30.27-12.39,40.64-31.13,40.64-31.13Z"/><path class="cls-2" d="M398.43,712.57s13.38,20,28,26C401.69,738.4,398.43,712.57,398.43,712.57Z"/><path class="cls-2" d="M402.8,727.84s22.16,19.63,36.76,25.65C389.46,755.73,402.8,727.84,402.8,727.84Z"/><path class="cls-2" d="M414.79,756.25s11.49,25.76,22,36.57C391.24,776.07,414.79,756.25,414.79,756.25Z"/><path class="cls-3" d="M294.16,792.82c.73,0,32.65-39,64.61-82.68,15-17.2,38.7,15.44,38.7,15.44S357.42,779.2,343,793.08C318.46,793,294.16,792.82,294.16,792.82Z"/><path class="cls-4" d="M396.08,737,355.6,707.85a2.26,2.26,0,0,1-.44-3.25l16.12-20a2.26,2.26,0,0,1,3.07-.42l40.49,29.11a2.26,2.26,0,0,1,.44,3.25l-16.12,20A2.26,2.26,0,0,1,396.08,737Z"/><path class="cls-4" d="M365.73,775.48l-40.49-29.11a2.26,2.26,0,0,1-.44-3.25l16.12-20a2.26,2.26,0,0,1,3.07-.42l40.49,29.11a2.26,2.26,0,0,1,.44,3.25l-16.12,20A2.26,2.26,0,0,1,365.73,775.48Z"/><path class="cls-4" d="M306.27,793.08l-10.93-7.86a2.73,2.73,0,0,1-.57-4l15.33-19a3.11,3.11,0,0,1,4.2-.54L353.68,790a2.75,2.75,0,0,1,1.09,3Z"/></g><path class="cls-5" d="M288.92,437.36s-106.5-34.8-140.51,21.53-1.74,112.53,83,110.07,180,28.83,187.11-21.62-10.26-114.07-57.31-108.82S288.92,437.36,288.92,437.36Z"/><path class="cls-6" d="M289.5,437.36s0,.61-.08,1.68-.06,2.6,0,4.43c0,.92,0,1.91.08,3s.07,2.16.16,3.3c.13,2.29.35,4.73.58,7.18s.56,4.89.91,7.18c.17,1.15.38,2.25.57,3.3s.39,2,.59,3c.38,1.83.79,3.36,1.09,4.43s.51,1.68.51,1.68a5.29,5.29,0,1,1-10,0s.21-.61.51-1.68.71-2.6,1.09-4.43c.21-.92.41-1.91.6-3s.4-2.16.58-3.3c.36-2.29.67-4.73.92-7.18s.46-4.89.59-7.18c.09-1.15.12-2.25.17-3.3s.07-2,.09-3c0-1.83,0-3.36,0-4.43s-.08-1.68-.08-1.68a.58.58,0,0,1,1.16-.09A.63.63,0,0,1,289.5,437.36Z"/><path class="cls-7" d="M288.9,476.45s-98.64-29.16-102,42.1c-.53,11.29,16.7,26.82,76.11,25.46,84.71-1.93,105.39,13.25,118.19-7.76,5.17-8.49,10-26.76-18.67-42.63C324,472.28,288.9,476.45,288.9,476.45Z"/><path class="cls-2" d="M571.06,605.09s-17.25-1.19-26.95-44.88c-4.39-19.77-4.83-68.45-13.29-107.91-2.7-12.6-19.8-37.67,15.09-3.6-17-50.94-19-93.19-20-109.92-7.18-112.19-36.63-192.11-83.39-240.1C383.18,19.36,318.75,0,285.5,0c-41.2,0-94.24,27.69-153.27,94C84.64,144.69,59.39,222.78,52,338.79c-1.07,16.73-3,59-20,109.92,34.89-34.07,17.79-9,15.09,3.6-8.46,39.45,26.41,118.64,22.73,138.56-9.83,53.33-39.17,81.83-39.17,81.83s63.84-5.33,88.67-66.67c4.26,18.32-7.37,99.66-24.83,124.67,20.66-7.67,49.87-45.19,56-65.19-1.39,19.74-6.41,47.41-18.59,71.95C282.65,640,130,557.25,134.33,508.36s89.75-103.84,89.75-103.84,64.84-16.4,64.84-73.65c0,57.26,64.84,73.65,64.84,73.65s85.44,54.95,89.75,103.84-35.92,142.33,58.4,189.39c-12.18-24.54-22.07-46.5-29.73-64.5,10.11,17,58.82,16.95,79.48,24.62-17.45-25-30.05-52.48-25.79-70.8C532.08,610.89,571.06,605.09,571.06,605.09Z"/><path class="cls-8" d="M216.38,492.34c6.77,2.66,16.39,1.89,16.39,1.89a10.09,10.09,0,0,1,11.71.83c5.83,4.73,21.6.21,21.6.21s.75-1.74,1.88-.07c2.63,3.9,19.48-.12,19.48-.12a2.22,2.22,0,0,1,1.42-.47c1.39-.05,1.28.47,1.28.47s15.91,3.46,19.31.21c1.82-1.74,3.07-.33,3.07-.33s15,4.83,20.84.1a10.09,10.09,0,0,1,11.71-.83,52.56,52.56,0,0,0,9.76-.3h0l-1.69-.58-.1,0-1.57-.49-.25-.07-1.46-.41-.34-.09-1.78-.44c-18.69-4.35-59.5-6.3-58.75-15.36-1.22,14.76-53.42-5.29-69.47,5.24q-1.1.72-2.16,1.46l-.32.22q-1,.72-2,1.45l-.29.21q-1,.76-2,1.54l0,0q-1.07.83-2.09,1.67A18.62,18.62,0,0,0,216.38,492.34Z"/><path class="cls-3" d="M356.59,494.6c-5.11.67-16.67-1-16.67-1s-2.33-3.28-8.16,1.45-20.31-.19-20.31-.19-.8-1.3-2.46.42c-3.27,3.39-18.86-.21-18.86-.21s0-.52-1.22-.47a2.39,2.39,0,0,0-1.48.47s-16.09,4-18.59,0a1.5,1.5,0,0,0-2.26-.31s-11.47,1.27-17.3-3.46-12.9-.73-12.9-.73-10.46,3.23-17.23.57c-2.19-.86-7-1.18-8.7-2.85-29.62,48.83,9.63,49,16.34,49.7-.87-.07,9.18.63,6.09.44,18.69.62,40.64,0,56,0,15.18,0,39.27,2.77,37.84,2.65,12.32.95,15.66,1,18,.95s5.36,0,4.48,0C377.59,542,390.26,535.23,356.59,494.6Z"/><path class="cls-9" d="M250.47,539h0S250.41,539,250.47,539Z"/><path class="cls-9" d="M288.66,519.61c-22-.23-36.32,6.36-43.95,12.43,1.66,4.19,1,3.57,2,6.92.94-.05,27.48-.57,42.16-.57,14.37,0,42.58,2.92,43.71,3.08.51-2.84,1-4.41,1.57-6.65C325.62,528.71,308.89,519.83,288.66,519.61Z"/><path class="cls-9" d="M326.77,541h0C326.84,541.06,326.83,541.06,326.77,541Z"/><path class="cls-10" d="M342,515.07c1.82,7,10.36-7.63,14.57-20.47-4.29-1.77-8.7-2.64-13.57-3.78-1.32-.31-2.79-.53-4.31-.81C343.21,501.16,339.52,505.42,342,515.07Z"/><path class="cls-10" d="M291.83,504.26c8.21.49,15.49-.05,18-1.49a50.32,50.32,0,0,0-1.11-9c-1-4.3-3.05-8.08-5.66-9.43-1.49-.38-4.85-1.31-5-1.3-5.09.31-7.2,7-8,10.61a23.51,23.51,0,0,0-.57,8.06A2.6,2.6,0,0,0,291.83,504.26Z"/><path class="cls-10" d="M311.46,494.87c-.75,3.58-1.32,3.87-1.2,6.47a1.32,1.32,0,0,0,1.08,1.27c4.42.62,11.53-.74,15.3-1.48a1.38,1.38,0,0,0,1.11-1.48A22.84,22.84,0,0,0,327,495c-.63-2.61-1.67-5.8-3.18-7-2.51-.29-5.08-1-7.64-1.24C313.22,488,312,492.49,311.46,494.87Z"/><path class="cls-10" d="M236.09,498.3c-.89-6.84,2.83-16.61.49-17.83-3.41-1.77-9.26,1.06-13.21,3.24a8.12,8.12,0,0,0-4.17,8c.89,8.26,2.94,15.21,9.54,20C236.34,517.3,237,505.14,236.09,498.3Z"/><path class="cls-10" d="M278.58,482.43c-4.43,0-7.89,4.72-9.24,10.37a52.92,52.92,0,0,0-1.2,7.2,3.15,3.15,0,0,0,2.46,3.4,64,64,0,0,0,16,1.23,1.9,1.9,0,0,0,2-1.69,37.47,37.47,0,0,0-.61-10.25C287.17,489,285.15,482.43,278.58,482.43Z"/><path class="cls-10" d="M265.83,501.53a1.43,1.43,0,0,0,1.08-1.27,62.76,62.76,0,0,0-1.31-11.92c-.65-3.11-2.47-7.11-8-7.11-3.71,0-6.74,2.95-7.38,7.79a48.74,48.74,0,0,0-.62,8.21c0,.71-.09,2.89,1.54,3.3C254.57,501.39,262,502.67,265.83,501.53Z"/><path class="cls-10" d="M334.63,519.45c-4.19-2.2-8.49,13.72-10.14,21.34,1,.11,5.92.54,8.63.73.65,0,2.44.21,3.51.22h.13C337,536.67,337.16,520.78,334.63,519.45Z"/><path class="cls-10" d="M240,517.12c-2.51,1.11-2.44,14.31-2.22,21.37,2.44.16,4.79.28,7.08.35H245l3.22.08h.42l3.08,0C249.47,530.7,244.59,515.12,240,517.12Z"/><path class="cls-11" d="M219.47,488.86c3.12-5,16.75-8.59,17.53-2.43,4.66-2.1,9.32-.25,13.38,1.85,5.35-3.72,11.49-3.2,15.22.05a3.15,3.15,0,0,1,5.22.28c5.76-4.05,20.58-.33,20.77.4,1.73-1.89,12-.73,16.73,3.41.3,0,.22,0,3.64.46,1.34-3.56,12.88-1.47,14.69.69,2.11-1.51,7.55-.75,7.55,0a12,12,0,0,1,6.52,3.74c1.7-5.3,15.24-1.52,14.25,1.79,2.28.48,4.37.61,1.62-4.49a44.64,44.64,0,0,0-8.94-2.79c-18.69-4.35-59-6.18-58.75-15.36-.39,14.68-54-5.21-69.47,5.24-4.73,3.19-7.54,5.53-9,6.59A70,70,0,0,1,219.47,488.86Z"/><path class="cls-10" d="M256.64,538.83s-1.08-1.33,1.21-2.28,9.84-2.5,11.24-1.22a4.51,4.51,0,0,1,1.29,3.27Z"/><path class="cls-10" d="M273.33,538.49s-1.29-2.71,1-3.66,11.55-1.28,13,0,.38,3.56.38,3.56Z"/><path class="cls-10" d="M321.68,540.54s1.3-2.35-1-3.3-10.88-2.87-12.28-1.59-.21,3.63-.21,3.63Z"/><path class="cls-10" d="M305.23,539s1-3.11-1.31-4.06-10.88-1.42-12.28-.14-.72,3.56-.72,3.56Z"/><path class="cls-3" d="M218.58,302.06c13.5.68,31.41.64,31.41.64s3.06,3.31,7.54,8,22.93,23.18,13.29,38S253.27,392.77,217,376.18s-57.45-5.76-57.45-5.76,40-17.73,18.88-23.3C167.16,344.17,200,301.12,218.58,302.06Z"/><path class="cls-3" d="M362.28,302.06c-13.5.68-31.41.64-31.41.64s-3.06,3.31-7.54,8-22.93,23.18-13.29,38,17.55,44.08,53.87,27.49,53.23-33.36,43.94-50.17C402.24,315.85,380.9,301.12,362.28,302.06Z"/><path class="cls-12" d="M368.44,345.28s-9.92-11.9-24-9.06c-11.76,2.37-16.16,3.92-14,10.82S358.85,358.8,368.44,345.28Z"/><path class="cls-13" d="M356,337a9.46,9.46,0,0,1,.59,4.2,9.59,9.59,0,0,1-19.12-1.65,9.43,9.43,0,0,1,.34-1.81c1.87-.5,4.09-1,6.65-1.5A22.11,22.11,0,0,1,356,337Z"/><circle class="cls-14" cx="347.04" cy="340.35" r="4.86" transform="translate(-21.95 656.77) rotate(-85.06)"/><ellipse class="cls-15" cx="351.81" cy="342.37" rx="1.86" ry="1.77" transform="translate(-19.61 663.36) rotate(-85.06)"/><path class="cls-16" d="M364,347.83c-4.92,3-12.44,7.78-25.53,3-10.13-3.7-5-9-5-9s6.52,4.42,24.11,2.91C367.52,343.88,365.62,346.88,364,347.83Z"/><path class="cls-17" d="M368.44,345.28s-2-3.28-16.6-5.67c-8.18-1.34-23.08,3-23.08,3s5.18-7.2,18.7-7.12S366,340.12,368.44,345.28Z"/><path class="cls-18" d="M373.06,347.47l-1.12-1.15c-.71-.72-1.74-1.74-3-2.89-.63-.58-1.34-1.17-2.07-1.8s-1.56-1.22-2.4-1.84a30.13,30.13,0,0,0-5.55-3.2,22.05,22.05,0,0,0-3-1,19.2,19.2,0,0,0-3-.51l-3.09-.32c-1-.1-1.91-.19-2.78-.3-1.72-.19-3.17-.38-4.18-.54s-1.6-.26-1.6-.26.57-.17,1.58-.38a41.19,41.19,0,0,1,4.2-.64c.87-.11,1.82-.17,2.83-.23s2.08-.09,3.16-.09a17.07,17.07,0,0,1,3.58.39,19.25,19.25,0,0,1,3.53,1.15,22.9,22.9,0,0,1,6,3.91,28.92,28.92,0,0,1,2.28,2.3,26.75,26.75,0,0,1,1.8,2.26,26,26,0,0,1,2.22,3.66A14.07,14.07,0,0,1,373.06,347.47Z"/><path class="cls-18" d="M362.72,352.18a11.69,11.69,0,0,1-1.19.76c-.39.21-.87.49-1.44.74a19.29,19.29,0,0,1-1.95.8c-.72.29-1.53.5-2.39.74a27.38,27.38,0,0,1-2.74.55l-1.47.2c-.5,0-1,.08-1.51.1-1,.08-2.06,0-3.1,0s-2.06-.22-3.08-.33-2-.42-2.93-.62-1.82-.57-2.66-.85a18.56,18.56,0,0,1-2.3-1,15.74,15.74,0,0,1-1.87-.94c-.54-.32-1-.61-1.38-.85-.75-.48-1.17-.77-1.17-.77s.5.14,1.34.41l1.51.5c.57.22,1.26.35,2,.57l1.12.31a10.19,10.19,0,0,0,1.2.3c.84.17,1.71.38,2.61.56l2.81.42c1,.07,1.94.23,2.92.24s2,.12,2.93.07l1.44,0,1.4-.09c.92,0,1.81-.19,2.66-.26s1.64-.23,2.37-.39A39.68,39.68,0,0,0,362.72,352.18Z"/><path class="cls-12" d="M209.4,345.14s10-11.82,24-8.88c11.74,2.46,16.13,4,13.88,10.93S218.89,358.74,209.4,345.14Z"/><path class="cls-13" d="M221.89,336.94a9.46,9.46,0,0,0-.62,4.19,9.59,9.59,0,0,0,19.13-1.51,9.43,9.43,0,0,0-.33-1.81c-1.87-.52-4.08-1-6.64-1.55A22.11,22.11,0,0,0,221.89,336.94Z"/><circle class="cls-14" cx="230.83" cy="340.38" r="4.86" transform="translate(-26.02 19.18) rotate(-4.5)"/><ellipse class="cls-15" cx="226.05" cy="342.36" rx="1.77" ry="1.86" transform="translate(-26.19 18.81) rotate(-4.5)"/><path class="cls-16" d="M213.78,347.73c4.9,3,12.38,7.87,25.51,3.19,10.16-3.62,5.09-9,5.09-9s-6.55,4.37-24.13,2.72C210.32,343.76,212.21,346.77,213.78,347.73Z"/><path class="cls-17" d="M209.4,345.14s2.07-3.26,16.64-5.54c8.19-1.28,23.05,3.2,23.05,3.2s-5.13-7.24-18.65-7.26S211.88,340,209.4,345.14Z"/><path class="cls-18" d="M204.76,347.3a14.07,14.07,0,0,1,.66-1.48,26,26,0,0,1,2.25-3.65,26.75,26.75,0,0,1,1.81-2.24,28.92,28.92,0,0,1,2.3-2.29,22.9,22.9,0,0,1,6-3.86,19.25,19.25,0,0,1,3.54-1.12,17.07,17.07,0,0,1,3.58-.36c1.08,0,2.16,0,3.16.11s2,.13,2.82.25a41.19,41.19,0,0,1,4.2.67c1,.21,1.58.39,1.58.39s-.59.11-1.6.25-2.46.33-4.18.51c-.86.1-1.79.18-2.78.28l-3.09.29a19.2,19.2,0,0,0-3,.49,22.05,22.05,0,0,0-3,1,30.14,30.14,0,0,0-5.57,3.15c-.84.61-1.67,1.2-2.41,1.82s-1.45,1.21-2.08,1.78c-1.27,1.14-2.3,2.15-3,2.87Z"/><path class="cls-18" d="M215.07,352.08a39.68,39.68,0,0,0,4.87,1.23c.73.17,1.54.24,2.37.4s1.73.23,2.65.28l1.4.1,1.44,0c1,.06,1.95,0,2.93,0s2-.15,2.92-.22l2.82-.4c.91-.17,1.78-.38,2.62-.54a10.19,10.19,0,0,0,1.21-.29l1.13-.3c.72-.21,1.41-.33,2-.55l1.51-.49c.85-.26,1.35-.4,1.35-.4s-.42.29-1.18.76c-.38.23-.84.52-1.38.84a15.74,15.74,0,0,1-1.88.93,18.56,18.56,0,0,1-2.3,1c-.84.27-1.72.6-2.67.83s-1.92.46-2.93.6-2,.28-3.08.3-2.08.06-3.1,0c-.51,0-1-.06-1.51-.11l-1.47-.21a27.38,27.38,0,0,1-2.74-.57c-.85-.25-1.66-.47-2.38-.76a19.28,19.28,0,0,1-1.94-.81c-.57-.26-1-.53-1.44-.75A11.69,11.69,0,0,1,215.07,352.08Z"/><polygon class="cls-19" points="286.92 260.39 288.92 14.82 290.92 260.39 286.92 260.39"/><path class="cls-19" d="M307.38,266.67l-.1.15a3,3,0,0,1-.23.3l-.25.29a3.66,3.66,0,0,1-.41.34,2.6,2.6,0,0,1-.78.36,2.43,2.43,0,0,1-1.28,0,2.92,2.92,0,0,1-.59-.26,2.59,2.59,0,0,1-.37-.29,2.75,2.75,0,0,1-.48-.56,5.79,5.79,0,0,1-.71-1.69,45.18,45.18,0,0,1-1-8.22c-.36-6.87-.36-16.6-.07-28.26.58-23.31,2.34-54.32,4.91-85.25s6-61.8,9.25-84.85c1.63-11.53,3.2-21.1,4.38-27.78s1.95-10.49,1.95-10.49-.7,3.81-1.78,10.52-2.49,16.29-3.93,27.84c-2.91,23.08-5.84,54-7.88,84.91s-3.33,61.94-3.53,85.16c-.1,11.61.06,21.29.52,28a42.76,42.76,0,0,0,1,7.39,3.61,3.61,0,0,0,.19.53,1.08,1.08,0,0,0-.16-.18,1.33,1.33,0,0,0-.2-.14,1.25,1.25,0,0,0-.38-.17,1.65,1.65,0,0,0-.87,0,1.56,1.56,0,0,0-.45.2.73.73,0,0,0-.16.13l-.06.07c-.06.09,0,0,0-.05l.1-.15Z"/><path class="cls-19" d="M307.34,265s2.17-15.2,5.23-38L315,208.5l2.67-20.59,2.77-22,2.74-22.75c.87-7.63,1.8-15.25,2.62-22.77s1.67-14.91,2.38-22.07,1.46-14.08,2-20.66,1.2-12.78,1.61-18.53.89-11,1.13-15.68l.39-6.54c.13-2,.23-3.88.26-5.56l.31-10.56-.14,10.56c0,1.68-.07,3.54-.17,5.56l-.28,6.55c-.16,4.68-.51,10-.87,15.7s-.81,12-1.31,18.56-1.09,13.52-1.7,20.7-1.33,14.59-2,22.12-1.5,15.17-2.25,22.82l-2.38,22.81-2.41,22.08-2.33,20.64-2.15,18.48c-2.69,22.89-4.61,38.14-4.61,38.14Z"/><path class="cls-19" d="M303.8,270.9l10.89-37L326.05,196c4.2-13.84,8.69-28.59,13.28-43.32s9.21-29.44,13.63-43.21c2.18-6.89,4.39-13.53,6.44-19.83s4.08-12.23,5.9-17.72,3.59-10.49,5.11-14.93l2.15-6.22,1.89-5.26,3.6-10-3.44,10-1.81,5.29-2.05,6.25c-1.45,4.47-3.14,9.49-4.87,15S362.22,83.62,360.28,90s-4,13-6.11,19.92c-4.2,13.83-8.6,28.61-12.92,43.41s-8.6,29.62-12.57,43.52l-10.74,38L307.65,272Z"/><path class="cls-19" d="M307.56,281.85s5.35-14.57,13.78-36.25l6.87-17.47c2.49-6.18,5.05-12.72,7.82-19.44S341.61,195,344.57,188L349,177.34l4.57-10.68c3-7.14,6.2-14.21,9.26-21.2s6.26-13.79,9.25-20.41,6.11-12.92,9-18.95,5.77-11.61,8.35-16.82c1.27-2.61,2.61-5.06,3.84-7.4l3.52-6.65c1.12-2.08,2.11-4.05,3.12-5.83l2.78-4.88L408,55.27l-5.13,9.34-2.7,4.92c-1,1.79-1.94,3.78-3,5.88l-3.41,6.7c-1.19,2.36-2.49,4.83-3.72,7.46-2.49,5.25-5.26,10.9-8.07,16.94s-5.71,12.43-8.64,19.07-6,13.51-8.91,20.54-6,14.14-8.91,21.33L351,178.17l-4.27,10.69c-2.84,7.07-5.57,14.07-8.19,20.83s-5.11,13.33-7.5,19.55l-6.58,17.56c-8.07,21.79-13.17,36.4-13.17,36.4Z"/><path class="cls-19" d="M294.42,287.57s7.72-13.07,19.58-32.49c5.92-9.72,12.91-21,20.44-33.07l11.71-18.54c4-6.28,8.08-12.7,12.25-19s8.27-12.72,12.43-18.92l6.15-9.24,6.11-8.95c2-2.93,4-5.84,5.92-8.64l5.78-8.2c1.89-2.65,3.67-5.28,5.5-7.74l5.26-7.15c1.69-2.29,3.28-4.5,4.85-6.56l4.52-5.82c2.83-3.65,5.28-6.85,7.46-9.36l6.7-8L422.51,94c-2.14,2.54-4.53,5.78-7.3,9.47l-4.42,5.88c-1.54,2.08-3.09,4.33-4.74,6.64l-5.13,7.23c-1.78,2.49-3.52,5.14-5.37,7.82l-5.64,8.28c-1.92,2.83-3.81,5.77-5.77,8.73l-6,9-6,9.33c-4.05,6.26-8.08,12.69-12.1,19.11s-8,12.88-11.92,19.22l-11.4,18.71c-7.33,12.17-14.12,23.57-19.88,33.37-11.53,19.6-19,32.77-19,32.77Z"/><path class="cls-19" d="M291.3,300s2.2-3.06,6.11-8.33S307,278.89,313.85,270s15-19.2,23.94-30.08c4.44-5.45,9.1-11,13.86-16.67l7.24-8.48,7.39-8.46c5-5.62,10-11.21,15-16.62,2.5-2.72,5-5.39,7.5-8s5-5.2,7.43-7.71,4.9-5,7.3-7.35,4.79-4.68,7.1-6.92,4.63-4.36,6.84-6.43,4.41-4,6.51-5.88l3.09-2.73,3-2.55c2-1.66,3.8-3.24,5.6-4.65s3.44-2.78,5-4l4.34-3.26,1.86-1.4,1.68-1.17,2.66-1.85,2.21-1.54-2.18,1.57-2.62,1.89-1.66,1.2-1.84,1.43-4.28,3.33c-1.54,1.24-3.17,2.62-4.93,4.07s-3.59,3-5.52,4.73l-3,2.59-3,2.78c-2.07,1.9-4.24,3.86-6.4,6s-4.46,4.24-6.72,6.53-4.64,4.58-7,7-4.77,4.89-7.16,7.46-4.86,5.15-7.29,7.82-4.9,5.36-7.35,8.12c-4.92,5.48-9.82,11.14-14.69,16.83l-7.23,8.57-7.08,8.58c-4.66,5.71-9.21,11.35-13.56,16.87-8.71,11-16.66,21.42-23.38,30.41s-12.22,16.56-16,21.88-5.94,8.39-5.94,8.39Z"/><path class="cls-19" d="M283.88,315.3s43.19-46,87-91.27l16.38-16.88,15.93-16.29c5.17-5.28,10.2-10.35,15-15.16s9.31-9.33,13.5-13.5,8.05-8,11.5-11.32,6.42-6.29,8.94-8.65l7.85-7.47-7.73,7.59c-2.48,2.4-5.41,5.38-8.8,8.79s-7.2,7.25-11.31,11.5-8.6,8.81-13.28,13.71-9.65,10-14.73,15.39l-15.67,16.53-16.11,17.13c-43.12,46-85.56,92.6-85.56,92.6Z"/><path class="cls-19" d="M282.29,265.64,281,227.28,279.46,188c-.61-14.38-1.3-29.72-2.06-45.05L276.2,120c-.42-7.54-.83-15-1.29-22.15s-.88-14.13-1.36-20.71l-.67-9.59-.72-9-.66-8.23-.7-7.42c-.46-4.65-.78-8.72-1.21-12.05l-1.23-10.49,1.4,10.46c.48,3.33.87,7.39,1.41,12l.82,7.41.8,8.23.86,8.94.83,9.58c.59,6.57,1.14,13.51,1.69,20.69s1.11,14.6,1.65,22.14l1.57,22.86c1,15.33,2,30.66,2.8,45l2.18,39.3,1.92,38.35Z"/><path class="cls-19" d="M278.68,265.43S273.57,204.22,268,143l-4.14-44.92c-1.35-14.33-2.65-27.71-3.8-39.17s-2.14-21-2.87-27.69l-1.15-10.5,1.32,10.48c.84,6.67,2,16.2,3.32,27.64s2.85,24.79,4.43,39.11L270,142.84c6.54,61.08,12.65,122.21,12.65,122.21Z"/><path class="cls-19" d="M282.31,271.86s-3.09-15.13-8.25-37.72-12.36-52.65-20.51-82.46c-2-7.45-4.12-14.89-6.25-22.19S243,115,240.85,108.1s-4.36-13.56-6.5-19.85l-3.21-9.12L228,70.66l-3-7.74c-1-2.45-2-4.74-2.9-6.92s-1.87-4.15-2.7-6-1.66-3.54-2.42-5-1.41-2.87-2-4L213.29,38l-1.35-2.43L213.33,38,215,40.87c.64,1.15,1.31,2.5,2.1,4s1.65,3.16,2.5,5,1.86,3.82,2.8,6,2,4.44,3,6.88l3.17,7.7,3.29,8.43,3.36,9.08c2.24,6.26,4.55,12.88,6.83,19.77s4.57,14,6.8,21.3,4.46,14.69,6.62,22.12c8.64,29.71,16.34,59.69,21.87,82.23S286.22,271,286.22,271Z"/><path class="cls-19" d="M278.65,283.13s-4.56-14.82-12-36.87-17.8-51.33-29.23-80.19c-2.85-7.22-5.78-14.4-8.72-21.46l-4.44-10.45L219.79,124c-1.51-3.31-3-6.58-4.45-9.75s-2.93-6.28-4.4-9.27c-2.91-6-5.76-11.62-8.49-16.76-1.39-2.55-2.69-5-4-7.33l-3.75-6.54c-2.47-4-4.6-7.57-6.52-10.37s-3.44-5-4.5-6.47L182,55.27l1.67,2.23c1.09,1.46,2.73,3.57,4.61,6.4s4.16,6.27,6.69,10.27l3.86,6.48c1.35,2.29,2.68,4.74,4.12,7.28,2.82,5.1,5.76,10.69,8.78,16.65,1.52,3,3,6.07,4.56,9.21s3,6.4,4.61,9.69l4.63,10.08L230.19,144c3.06,7,6.11,14.16,9.08,21.35C251.17,194,262,223.18,269.83,245.15s12.64,36.77,12.64,36.77Z"/><path class="cls-19" d="M292.14,289.62s-32.36-53.42-65.7-106.24c-16.67-26.41-33.59-52.66-46.79-72-3.3-4.84-6.36-9.24-9.14-13.11s-5.23-7.2-7.34-9.89-3.84-4.74-5-6.11l-2-2,2,2c1.24,1.35,3,3.35,5.15,6s4.67,6,7.5,9.78,6,8.18,9.35,13c13.52,19.14,30.87,45.13,48,71.28,34.19,52.3,67.42,105.22,67.42,105.22Z"/><path class="cls-19" d="M274.44,331.63S273,328,270,321.65c-1.48-3.16-3.35-7-5.57-11.3s-4.81-9.18-7.78-14.38-6.29-10.79-9.91-16.63-7.63-11.88-12-18-9-12.33-13.82-18.53-10-12.29-15.46-18.18l-4-4.43-4.16-4.3c-2.73-2.9-5.62-5.63-8.44-8.38l-2.12-2.05-2.18-2-4.32-3.91c-1.41-1.32-2.9-2.53-4.36-3.76l-4.34-3.66c-2.89-2.39-5.85-4.6-8.69-6.84s-5.79-4.18-8.58-6.21c-1.38-1-2.82-1.94-4.22-2.85l-4.14-2.7c-2.68-1.83-5.42-3.34-8-4.89l-3.8-2.24c-1.24-.73-2.5-1.35-3.71-2l-6.88-3.64c-4.42-2.07-8.27-3.91-11.48-5.33l-10.22-4.14,10.29,4c3.23,1.37,7.11,3.15,11.57,5.16l6.95,3.53c1.22.64,2.5,1.23,3.75,1.95l3.84,2.19c2.61,1.51,5.38,3,8.09,4.78l4.19,2.64c1.42.9,2.87,1.79,4.27,2.79,2.82,2,5.79,3.94,8.71,6.1s5.89,4.37,8.83,6.73l4.42,3.6c1.48,1.22,3,2.41,4.44,3.71l4.4,3.86,2.22,1.95,2.16,2c2.88,2.72,5.83,5.41,8.62,8.29l4.25,4.26,4.13,4.39c5.54,5.84,10.77,12,15.84,18s9.79,12.3,14.2,18.43,8.53,12.15,12.35,17.92,7.21,11.37,10.25,16.6,5.75,10.06,8.08,14.38,4.26,8.15,5.8,11.33,2.73,5.69,3.5,7.43l.89,2,.29.68Z"/><path class="cls-20" d="M271.08,616.08s-89.83,104.28-41.82,154c-44.51-46,65-115.09,65-115.09Z"/><path class="cls-20" d="M355.5,620.54s49.28,108-17.37,131.69c51-36.78-6.54-135.43-6.54-135.43Z"/><path class="cls-21" d="M182.45,511.42s-53.91,49.1-47.58,83.27c12.1,65.28-7.78,108.8,53.27,135,21.59,9.26,22.44,35.23,22.44,35.23s21.42-19.12-24.38-72.8C238.85,725.77,252,749.66,211.27,785c55.2-16.79,68.9-46.8,51.89-75.53C243.94,677,263.83,638.42,258,632c6.21,1.5-10.43,45.55,8.77,67.2,13.74,15.5,12.33,38.39-3.23,56.12,46.48-43.13,24.54-75.37,23.47-83.77,6.92,7.47,16.18,23.67,3.12,62.86S322.65,770,322.65,770s-25.69,6.29,3.12-39.1c18.18-28.64,22.74-47.24,9.16-65.91,34.83,27.33-14.61,78.92-23.56,92.92,34.83-21.78,101.44-67.83,87.58-98.52-16.44-36.4-32.11-27.78-32.11-27.78S415,716.21,346,784.59C483.8,693.05,443.52,594.91,433.38,566c-15.46-87.54-44.24-91.86-40.44-69.2C407.6,584.19,294.16,538,254.7,544.19,161.24,558.81,182.45,511.42,182.45,511.42Z"/><path class="cls-22" d="M280.51,447.29c0,1.59-6,10.38-23.13,11.6-12.45.89-30.61-1.7-48,7.54-20.26,10.78-42.79,25.62-38.22,50.62,6.62,36.18,1,65.76-17.56,101.68a168.13,168.13,0,0,0,2.54-28s-14.8,52-33.82,54.39c11.42-18,14.38-94.32,22.07-129.14,6.53-29.57,2.86-74,22.83-84.33,45.75-23.76,66.19-25.16,113.25,13.49C281.2,445.76,280.51,447.29,280.51,447.29Z"/><path class="cls-21" d="M288.92,368.94V294.69s-28.25,74.82-67.82,90.8S79.18,383.79,94.43,508.36c12,97.64-41.49,73.68-3.49,160.47,17.65,40.31-1.27,44.59-1.27,44.59s37.47,7,24.66-40.59C131.24,704,143,702.39,143,702.39s-24.2-17.71-3-39.69c41.69-43.24,16.83-147.08,30.42-196.46,11-40.15,39.5-37.25,67.74-44.41,0,0,0,0,0,0,1-.16,50.73,16.25,50.73,15.56C288.92,415.28,288.92,391.34,288.92,368.94Z"/><path class="cls-23" d="M266,372.22c-10.95,2.27-83.92,22.92-83.91,21.91-45,19.6-41.65,46.77-31.55,37.93,20.63-18.05,47.76-41.58,29.84-23.8-6.55,8.5-28.84,42.83-35.13,50.9-10.17,13-13.33,14.2-16.79,39-1.58,11.34,19.56,87.67-32.3,117.92-19.4,11.31-8.42,15.51-1,35,7,18.39,16,40.86.65,57.25a10.87,10.87,0,0,1-6.17,5s37.47,7,24.66-40.59C131.24,704,143,702.39,143,702.39s-24.2-17.71-3-39.69c-28.74-36,5.74-122.88,8.64-174,5.36-94.51,102.9-102.25,117.67-97.35,5.74-6.92,18.82-15.54,22.18-19.13C289.14,371.52,265.38,372.83,266,372.22Z"/><path class="cls-21" d="M313.76,374.18c-13.07-5.52-19.62-5.24-24.83-5.24V294.69s28.25,74.82,67.82,90.8,84.79-10.39,114.9,111.74c32.88,133.35,41.92,134.79,19.3,176.92-28.3-6.13-24.33,25.21-24.33,25.21s-19.91-14.67,0-41.49c-41.12,35.18-13.18,55.9-13.18,55.9s-35.05-16.37-21.1-55.9c19.16-54.31-11.58-96.94-19.4-147.55-8.74-56.57-43.21-56.85-78.29-84.2.42-.69,6.79-7.05,7-7.71C345.87,406.45,302.76,391.94,313.76,374.18Z"/><path class="cls-23" d="M478.06,620.22c-8.73-11.5-31.48-45.89-34.54-111.86-1.73-37.43-60.28-75.29-60.28-75.29s47.35,37,43.17,75.29C422.17,547.29,469,583,451,619.36c.92,3.33,4.32,12.73,4.46,13.83,1.55,12.32-31,57.76-8.12,76.79a41.8,41.8,0,0,0,6.05,3.76l.07,0s-27.94-20.72,13.18-55.9c-19.91,26.82,0,41.49,0,41.49s-4-31.33,24.33-25.21c0,0,1.21-2.27,4.74-18.15S486.79,631.72,478.06,620.22Z"/><path class="cls-21" d="M37.43,251.21S164,203.13,222.15,238.84s55.23,89.08,55.23,89.08-10.76-51.14-100.56-65.73C86.56,247.53,37.43,251.21,37.43,251.21Z"/><path class="cls-21" d="M52,269.06s35.78-31.25,73-24.56c42.78,7.7,46,13.14,29,14.23C131.5,260.17,65.2,260.47,52,269.06Z"/><path class="cls-21" d="M391.94,535.2s26.4,29.74,31.29,61.56c1.06-40.22-23.48-61.3-23.48-61.3Z"/><path class="cls-21" d="M251.4,350.54s-17.48,14.82-42.17,2.31c-13.31,10.91-31.76,11.57-47,12.21C103,367.54,45.39,465.63,41.51,487c-1.7,9.36-14.95,62.36-30.26,102.36,10.33-11.83,22.31-32.52,24.17-37.44,4.15,20.71-6.91,55.3-9.63,64.16C18.91,638.51,10.66,647.8,0,657.87c25.79-11.57,72-24,94.43-104.07,25.33-90.4,82.12-144.36,96.45-150.51C200.67,399.09,261.92,367.84,251.4,350.54Z"/><path class="cls-21" d="M271.08,367.84S262.54,334.3,205.86,313c-49.84-18.71-79.12,1-99.48,42s-80.58,73.24-80.58,73.24,39.26-23.73,59.62-108.36C97.13,271.21,150,232,212.22,247.4,239.94,254.27,309,330.22,271.08,367.84Z"/><path class="cls-24" d="M239.61,328c-.7-.87-1.4-1.73-2.09-2.59-3-3.82-33.59-25.57-43.55-29.46-8.12-1.25-15-4.93-22.87-3.89-20.61,2.74-32,9.9-44.22,24.76-13.3,16.17-38.81,37.41-50.51,54.61C64.42,389,53.43,407.34,37.24,421.51,55.72,410,91.58,384.84,106.38,355c20.36-41,49.65-60.69,99.48-42,15.7,5.89,27.7,12.73,36.85,19.53Q241.18,330.26,239.61,328Z"/><path class="cls-21" d="M227,322.61c-50.84-33-132.9,26-160.51,75s-25.62,58.53-29.11,61.28c23.65-23.81,93.45-127.64,126.75-139C196.31,308.94,208.15,317.57,227,322.61Z"/><path class="cls-21" d="M180.84,353.49s-53.17,3.2-14.41-8.53c-28.84-.74-49.35,5.73-67.92,23C70.11,394.39,52,471.07,15.19,508.36c47.57-19.24,79.38-111.27,107.15-132.6C139.43,362.62,180.84,353.49,180.84,353.49Z"/><path class="cls-21" d="M126.88,255.34c-38.17,43.86-20.51,77.29-93.15,116.21C90.13,317.5,78.53,276.78,126.88,255.34Z"/><path class="cls-21" d="M540.42,251.21s-126.59-48.08-184.72-12.36-55.23,89.08-55.23,89.08S311.22,276.78,401,262.2C491.29,247.53,540.42,251.21,540.42,251.21Z"/><path class="cls-21" d="M525.87,269.06S502,241.77,464.8,248.46c-42.78,7.7-57.92,9.19-40.89,10.28C446.35,260.17,512.64,260.47,525.87,269.06Z"/><path class="cls-21" d="M324.49,350.88s25.77,13.33,40.52,3C446.64,348.63,532.45,465.63,536.33,487s9.08,107.44,15.72,129.08c6.89,22.44,15.13,31.72,25.79,41.79-25.79-11.57-72-24-94.43-104.07-25.33-90.4-81.3-144.7-96.21-149.28S324,361.41,324.49,350.88Z"/><path class="cls-21" d="M306.77,367.84s9.29-29.79,66-51.07C422.58,298.07,451.1,314,471.47,355s80.58,73.24,80.58,73.24-39.26-23.73-59.62-108.36c-11.71-48.68-64.56-87.92-126.8-72.49C337.91,254.27,268.82,330.22,306.77,367.84Z"/><path class="cls-21" d="M346.43,311c30-48.14,132.9,26,160.51,75s25.62,58.53,29.11,61.28c-23.65-23.81-86.7-122.46-136.62-135.88C366.63,302.58,365.32,306,346.43,311Z"/><path class="cls-21" d="M397,353.49s39.77-23.53,86.41,19.85c28.41,26.42,42.46,97.73,79.24,135-47.57-19.24-77.73-96.67-117-129.42C418.89,356.67,397,353.49,397,353.49Z"/><path class="cls-21" d="M451,255.34c38.17,43.86,15.29,116.67,93.15,145C487.72,346.27,499.31,276.78,451,255.34Z"/><path class="cls-23" d="M425.92,269.06s53.88,51,71.61,83.31c15,27.44,33.08,33.23,33.08,33.23s-21.76-31-31.38-57.68-13.19-33.24-13.19-33.24Z"/><path class="cls-21" d="M448.63,256.93s81.17,75.17,110.43,77c-41.45-.47-116.57-58.63-116.57-58.63Z"/><path class="cls-21" d="M448.63,244.5s81.17,75.17,110.43,77c-41.45-.47-116.57-58.63-116.57-58.63Z"/><path class="cls-21" d="M129.21,256.93S48,332.1,18.79,333.91c41.45-.47,116.57-58.63,116.57-58.63Z"/><path class="cls-21" d="M137.3,254.82S51.85,309,26.57,305.41c35.36,7.06,112-32.67,112-32.67Z"/><path class="cls-21" d="M428.68,230.79c32.7-24.66,66.81-46.65,66.81-46.65s-61.21,12-115.37,52.24c73.75-59.16,104.06-75.52,104.06-75.52S419,142.21,386.34,150.6c-29.65,7.61-61.85,30.09-83.77,71.09,6.75-22,21.73-60,49.24-106.39-12.8,11.91-38.06,43.59-42.49,53.6A511.73,511.73,0,0,0,288,227c-27.78-42.58-73.55-72.13-107.71-73.52,14.26,5.61,37.54,26.63,46.73,33.16-3.77-2.36-8.37-6.3-36.4-13.51-32.64-8.39-54.17,2.61-54.17,2.61s20.12,9.58,45.77,22.43c-30.86-11.81-97.59-14.05-97.59-14.05s42.56,13.69,76.68,29c-52.32-14.27-68.47-5.51-68.47-5.51s54.26,36.64,92.38,56.78,94.25,98.22,94.25,98.22l10.57-2,10.57,2s56.12-78.08,94.25-98.22,125.6-18,125.6-18S481,216.53,428.68,230.79Z"/><path class="cls-21" d="M370.84,316.45s56.53,30.63,69.43,48c-36.82-49.67-73.43-56.7-73.43-56.7Z"/><path class="cls-25" d="M266.17,370.56l-6.34-20.66s-15.1,26.53-38.73,27.9h0c-44.51,4-67.73,25.13-89.76,55.3C111,460.94,99,493.26,86.3,524.89c-9.47,23.65-19.49,47.37-33.81,68.84-12.14,18.21-22.13,43.85-43.2,54.54A119,119,0,0,1,0,657.87c25.79-11.57,72-24,94.43-104.07,25.33-90.4,63.64-132.74,86-145.55,3.21-1.84,21.66-8.28,27.93-10.71,7.07-2.74,31.27-29.86,52.65-34.36.43-.09,7.56,17.12,8,17,1-1-2.11-4-1.37-4.75C270.06,372.75,264,372.15,266.17,370.56Z"/><path class="cls-21" d="M253.36,341.57s1.8,15.54-24.28,32.46c-15.08,9.78-42.19,18.26-42.19,18.26s29.79-4.16,39.91-9.55c-8.55,9-21.17,11.62-21.17,11.62s41.53-4.64,51.75-16.87,9.91-10.68,10.52-14.87C265.91,351.43,253.36,341.57,253.36,341.57Z"/><path class="cls-25" d="M422.73,570.76c-5.75-10.13-4.87-51.76-9.81-62.4-3.08-6.62-2.94,17.77-5.57,10.58-4.42-12.07-20.06-31.7-17.42-27,5.09,9.05,8.74,34.21,2,43.27-11.52,15.53-18.88,17-32.69,16.72,16,16.29,41.94,34.11,36.93,72.59-10.53,80.92-4.24-3.32-16.31-22.72,1,11.91-1,32.48-4.11,43.37-4.18-43.05-26.1-64.57-26.1-64.57s3.15,35.58,3.15,79.69c-9.14-23.11-15.83-30-17.22-31.09,3,5.82-5.24,14.74-5.08,22.63-6.56,39.09-17.76,26.63-15,19.33,12.1-32.05-8-.83-12.47-6.78-9.8-13.1-16.71-33.79-20.38-7.42-.55,4.06-1.65,12.59-2.21,19.08-19.18-21.58-13.5-44.33-25.76-51.46a17,17,0,0,1,3.4,7.57c-9,25.68-22.07,18.88-26.34,31.7,4.18-1,22,42.56,24.39,49.81,8.84,27-11.3,27.59-9.93,17,5.68-43.41-26-59.52-31.08-72.82-.74-1.94,9.15-34.1,9.15-34.1-18.56,26.42-45.35,41.92-27.29-35.17,2.91-12.42-1.76,3.21-6.46-8.58-.45-1.12,6.46-30.58,17.41-36.08-27.64,4.75-36.21-39.68-39-40.49,1.7,47.19-34.73,74.83-26.65,95.74,23.52,60.91-32.32,39.29,45.9,130.49a145.49,145.49,0,0,1,22.44,35.23s21.42-19.12-24.38-72.8C238.85,725.77,252,749.66,211.27,785c28.88-8.78,46.39-15.34,54.1-31.39,36.09-30,28.73-64.44,22.07-83.55,6.92,12.8,17.41,30.52,2.74,64.33-15.19,35,26.44,36.27,32.48,35.61-2.67.29-13.26,2.41-9.6-12.87,3.1-2.23,27.4-18.13,32-21.72a485.87,485.87,0,0,0,37.85-33c-1.25,29.48-14.93,60.78-37.54,81.14,28.64-18,71.46-52.88,87.35-91,7.27-17.45-11.21-50.26-6.78-64.52C436.55,593.74,438.59,598.69,422.73,570.76ZM265.89,752.5c6.43-14.31,5.15-29.66-2.74-43-13.76-23.28-7.09-51.58-4.58-66.81-1,16.51-6.92,38.11,8.24,56.52C279.26,714.32,279.24,735.22,265.89,752.5Zm47.85,1.71c2.5-5.65,2.08-7.62,12-23.28q1.48-2.34,2.85-4.59C323,743.34,317.71,748.33,313.75,754.21Z"/><path class="cls-26" d="M193.63,553s7.91-7.43-18,45.78c-17.42,35.79,36.12,101.16,33.58,104.91-33.62-19-33.93-32.3-43-51.69-7.67,19.39,11,50.61,22.84,61.81-44.65-30.92-19.53-131.08-13.3-203.18C175.42,535.2,193.63,553,193.63,553Z"/><path class="cls-27" d="M208.33,463.53c-6.54,2.94-18.41,8.11-23.27,13.36-8.86,9.6-16.93,14.43-19.1,27-.4,2.32,2.56,52.81,2.4,55.09.68,2.68.84-28.85,4.71-21.81.21.39,9.26-26.16,9.38-25.75,11.25-32.09,7.76-28.24,25.45-38.92,15.59-9.41,44.5-13.41,49.47-13.62C250,456.22,225.52,455.79,208.33,463.53Z"/><path class="cls-21" d="M202.67,429c-16,11-18,33.29-30.24,53.53l-12.29,20.24a287.82,287.82,0,0,0,31.35-44.2c13.21-23.31,8-25.88,22.55-31.28C217.29,426.08,205.52,427,202.67,429Z"/><path class="cls-23" d="M160.79,265.79s70.08,4.62,105.39,104.77c-48.93-102.65-116.29-107.38-139.29-95.29C135.68,265.59,160.79,265.79,160.79,265.79Z"/><path class="cls-25" d="M190.83,368s-42.39-7.3-89,36.08C73.39,430.47,14.75,586.61,11.26,589.36c64.67-74.57,38-153.73,115.05-195C157.17,377.82,190.83,368,190.83,368Z"/><path class="cls-23" d="M148.52,329.17s-46.78,46.8-64.87,58C98.28,365.94,148.52,329.17,148.52,329.17Z"/><path class="cls-25" d="M156.19,406.19S84.42,462.73,81.45,486.8C78.16,513.5,60.57,559.41,52,569c26.41-29.34,32.2-73.08,41.62-86.77s26.39-33,37.75-49.08C140.44,420.24,156.19,406.19,156.19,406.19Z"/><path class="cls-23" d="M198.78,391.34s-76.45,25-100.54,149.8C133.42,429,198.78,391.34,198.78,391.34Z"/><path class="cls-26" d="M397,503.89s.92,33.44,3.87,49.07c.23,26.4,7.84,34.3,7.08,79.63C422.73,516.69,397,503.89,397,503.89Z"/><path class="cls-21" d="M267.55,303.57s-16.84-23.91-57.47-16.77c-20.23,3.55-50,26.12-71.2,34.48C106.64,334,37.43,323.92,37.43,323.92s70.16,12.2,149.45-46c45.48-33.4,79.15,18.11,86.05,7.94C278.75,284.85,267.55,303.57,267.55,303.57Z"/><path class="cls-23" d="M371.91,317.12s-8.64-6-14.91-9.35c-21.4,8.1-46.81,48.7-47,60.64C319.17,340.55,371.91,317.12,371.91,317.12Z"/><path class="cls-23" d="M382.3,313.53l-14.17-8.34s14.5-.56,26.9,4.75Z"/><path class="cls-23" d="M389.67,299.23s35.63-.07,55.95,14c17.42,12.1,22.86,36,22.86,36S458.27,313.53,389.67,299.23Z"/><path class="cls-23" d="M403.55,426.73s57.85,30.81,88.37,129.46C503.24,592.77,514,616.08,514,616.08s-20.81-23-30.56-62.28C469.47,497.67,403.55,426.73,403.55,426.73Z"/><path class="cls-25" d="M381,378c-17.65-2.43-62.91-3.56-74.23-3.85,0,0-.83,8.89-.8,8.92,4.58,4.9,19.52,6.13,26.27,6.8,64.81,6.37,142.15,66.56,164.09,110.8C478.05,441.39,422.67,383.69,381,378Z"/><path class="cls-25" d="M318.27,350.54A104.58,104.58,0,0,0,310,368.41c4.7,3.59,10.11,11.73,27.46,11.78,25,.07,21.8-1.5,21.8-1.5s-21.37-5.87-27.91-11.83S318.27,350.54,318.27,350.54Z"/><path class="cls-21" d="M310,368.41l1.52-3,18.4,8.74-15.35-11.48s.91-8.07,2.24-10.37c4-5.19,12.54-11.91,12.54-11.91s3,17.94,31.92,33.68C398,394,413.13,391.38,420,397.53c-20.6-5.84-57.31-10-57.31-10s39.17,3.15,55.19,20.13C392.38,402,357.28,394,338.85,385.6S310,368.41,310,368.41Z"/><path class="cls-25" d="M471.47,410.23s44.32,52.37,65.48,80.59c3.65,31.14,7.17,69.39,7.17,69.39s-32.5-90.3-57.56-121.68-56.56-63-56.56-63S452.21,386.65,471.47,410.23Z"/><path class="cls-25" d="M534.18,486.83c-2.38-5.54-4-11.47-6.73-16.84a129.14,129.14,0,0,0-10.78-17.09c-4-5.45-8.45-10.71-11.9-16.53s-6.27-12.2-9.86-18c-7-11.41-16.53-22.09-25.77-31.75-8.92-9.32-18.73-18.14-30.27-24.13a93.28,93.28,0,0,0-24-8.29,60.56,60.56,0,0,0-14,.37c7.71,2.28,26.17,8.66,48.3,22.85,18.43,11.81,49.85,76.9,86.2,111.94C535,488.52,534.56,487.69,534.18,486.83Z"/><path class="cls-23" d="M408,266.31c26.72-6.87,58.74-5.75,58.74-5.75s6.79,5.5,8.06,6.89C460.92,264.77,441,264,408,266.31Z"/><path class="cls-23" d="M93.35,207.63s78.41,27,95.7,47.18c-76.85-41.89-39.12-6.79-39.12-6.79S123.42,225.72,93.35,207.63Z"/><path class="cls-23" d="M52,269.06S77.08,253,115.38,254.14c21.92.68,25.88,1.2,38.56,4.6C131.5,260.17,65.2,260.47,52,269.06Z"/><path class="cls-23" d="M341.89,270.69S410.36,190,484,160.79C411.24,206.43,341.89,270.69,341.89,270.69Z"/><path class="cls-28" d="M256.06,268.81c-10.46-49.21-35.81-76.56-35.81-76.56s21.69,36.49,25.12,52.49c-23.4-29.43-71.7-46.22-71.7-46.22s26.43,6.39,62,51.44c-72.92-53.57-127.93-42.33-127.93-42.33s69.33,15.5,104.18,45.37c11.38,9.75,20.46,16,29.8,22.77-6-9.08-7.82-14.2-12.49-21C235.4,256.07,255.93,268.91,256.06,268.81Z"/><path class="cls-12" d="M232.49,195.81l30.05,62.42s1.13-11.92-5.7-28.92S232.49,195.81,232.49,195.81Z"/><path class="cls-28" d="M342.2,313.87c-.8,0-18.95,9.16-32.22,19.71-1.38,1.1,10.16-14.92,8.47-14.45-1.09.3-14.31,15-15.89,16.65-2.05-2.14-6.23-15.19-9-18.28-1.57,3.36-7.1,7.59-9.34,17.25-4.76-9.66-15.23-20.09-18.9-23.72a100.26,100.26,0,0,1,4,20.68c-5.77-12.65-18.68-17.24-19.17-17.33,7.07,21.41,21,50.8,21,50.8l6.72-.69-1.5-32.77,4.13,32.58,8.48.89,4.94-16.86.41,16.15,14.11.6s6.29-16.82,10.09-23.72C322,334.83,332.9,324.37,342.2,313.87Z"/><path class="cls-28" d="M258.54,385.77s-44.75,7.44-71.65,27.33c28.36-9,57.82-11.38,57.82-11.38Z"/><path class="cls-28" d="M318.45,383.45s59.1,15.26,72.61,24.26c-23.47-5.69-33.16-8-33.16-8s28.72,6.53,49.7,21.93c-41.35-15.27-60.19-20.36-75.94-23.87A111.11,111.11,0,0,1,318.45,383.45Z"/><path class="cls-28" d="M151.95,247.4s32.26,10.9,54.5,21.66c27.75,13.43,47.44,44,47.44,44s-28.83-27.42-44.49-36.25C188.92,265.24,151.95,247.4,151.95,247.4Z"/><path class="cls-28" d="M314.89,215.74s11.93-41.05,67.08-59.62c21.8-7.34,56.65-.88,91.92,3.81C351,155.85,314.89,215.74,314.89,215.74Z"/><path class="cls-28" d="M138.82,175.69a549,549,0,0,1,80.85,40.25C191.55,189.19,158.6,175.71,138.82,175.69Z"/><path class="cls-28" d="M126.31,412.16c17.79-19.2,50.62-47.33,116.4-46.8C209.67,375.64,181.92,377.49,126.31,412.16Z"/><path class="cls-28" d="M371.91,362.62s43.67,5.74,83.34,47.41A723.4,723.4,0,0,0,371.91,362.62Z"/><path class="cls-28" d="M425.92,241.11c-13.67-.92-33.65,8.54-50.67,18.59C393,245.62,407.6,224,407.6,224s-53.34,41.22-74.52,57.8c9.85-21.91,52.28-94.43,79.86-108.64-29.05,11.42-66.1,38.1-80.74,74.21-6.51,16.05-7,27.23-7.71,29.38-2.07,6.62,9.42-25.06,7.71-16.87-.84,4-.61,19.61-.65,23.77,10.07-6.63,23.28-13.64,34.54-20.78-7.83,5.38-22.67,23.45-22.67,23.45S373.06,264.19,425.92,241.11Z"/><path class="cls-22" d="M311.27,458.89c20.9,2.09,44.51,10.6,60.64,17.27,26.68,11,32.48,58.88,35.68,84,3.4-35.24,5.31-38.08,5.33-49.89.08-77-34.21-86.12-76.06-86.66-22.66-.29-8.53-4.38-38.77,22.36C298.1,446,296.3,457.39,311.27,458.89Z"/><path class="cls-21" d="M336.87,423.66c21.18,3.89,59.72,42.77,76.1,58.53-13.54-21.12-49.45-62.83-67.22-61.32C333.9,421.88,331,422.59,336.87,423.66Z"/><path class="cls-27" d="M407.44,525.16c-5.07-44.17-34.3-77.67-96.16-66.27,78.4,14.87,92.28,65.8,95.38,94C406.92,547.35,407.63,540.19,407.44,525.16Z"/><path class="cls-25" d="M217.73,551.46S236.07,590.3,239.91,579s2.85-24.64,10.4-18.63,20.11,21.71,28.3,12.86,35.46-19.59,41.94-18c-13.28-7.79-44.77-3.08-60.3-3.73S217.73,551.46,217.73,551.46Z"/><path class="cls-21" d="M230.44,383.75s-44.67,3.9-61.25,17.24-28.61,30.56-28.61,30.56,63-33.27,81.71-36.42c20.52-3.46,35.09-17.64,35.09-17.64Z"/><path class="cls-21" d="M345.07,375.23C366.48,381.36,414.4,387.65,431,401s28.61,30.56,28.61,30.56-68.89-33.31-87.68-35.74c-55-7.11-61.93-27.4-61.93-27.4S338.69,373.41,345.07,375.23Z"/><path class="cls-28" d="M252.61,350.74s-7.6,18.34-24,25.76-32,13-32,13,20.07-1.36,30.18-6.74c-8.55,9-21.17,11.62-21.17,11.62s41.53-4.64,51.75-16.87,7.55-9.46,7.55-9.46l-5.55-10.89L257,362.62Z"/><path class="cls-28" d="M310,368.41l1.52-3,18.4,8.74-10.72-14.44,9.58,5.7,2.78-14.63s.12,11.68,28.24,25.08c37.77,18,53.34,15.57,60.24,21.72-20.6-5.84-57.31-10-57.31-10s39.17,3.15,55.19,20.13C392.38,402,357.28,394,338.85,385.6S310,368.41,310,368.41Z"/><path class="cls-29" d="M313.76,374.18c.8-7.49-19.62-5.24-24.83-5.24s-23.31-3-24.83,5.24c-3.23,17.47-32.12,32.26-27.9,44.22s42.1,27.16,52.73,19c6.72,7.71,48.51-7,52.73-19S312.2,388.78,313.76,374.18Z"/><path class="cls-30" d="M313.76,374.18c-2.25-7.49-19.62-5.24-24.83-5.24s-20.17-4.15-24.83,5.24c-2.5,5-.08,6.94-18.9,26.44-1.81,1.79-2.82,4.55-3.44,6.88-1.6,6,5.23,4.65,9.43,4.56a37.24,37.24,0,0,1,14,2.39,40.15,40.15,0,0,1,6.11,1.61A38.1,38.1,0,0,1,288.92,429c8-11.52,22.2-15.27,36-14.85,3.32.1,6.61.4,9.93.63,1.59.11,4.43.59,6.08.53a5.06,5.06,0,0,0,.57-1.34c.12-.44.25-.89.37-1.34C339.3,400,318.69,390.64,313.76,374.18Z"/><path class="cls-31" d="M283.59,412.44c-1.86-2.36-8.59-4.81-15.22-5.94h0c-6.6-1.55-3.95-14.31-3.35-20.18s-1.1-2.38-6.48,6.37-13.87,11.5-15.83,18.81,18.42,3.82,18.42,3.82c19.07,3.48,22.06,2.08,25.8,16.36C287.8,422.61,287.26,419.83,283.59,412.44Z"/><path class="cls-32" d="M300.23,431.68c0,3.79,5.47,2,11.89.47a42.83,42.83,0,0,0,17.34-8.85c3-2.5-10.13-3.65-16.81-1.72C304,424.08,300.23,427.89,300.23,431.68Z"/><path d="M329.46,423.3a2.18,2.18,0,0,0,.21-.35.51.51,0,0,0,0-.38c0-.12-.17-.22-.33-.32a11,11,0,0,0-3.78-.51c-1.63,0-3.55,0-5.58.2a42.48,42.48,0,0,0-6.2.88c-.51.11-1,.25-1.52.42s-1.06.31-1.54.48c-1,.32-2,.68-2.89,1.05a26,26,0,0,0-2.58,1.21,18.3,18.3,0,0,0-2.12,1.37,10.49,10.49,0,0,0-1.52,1.48,7.31,7.31,0,0,0-.91,1.4,6.44,6.44,0,0,0-.39,1l-.11.4-.06-.41a4.87,4.87,0,0,1,0-1.19,6.16,6.16,0,0,1,.49-1.83,8.49,8.49,0,0,1,1.3-2.11,12.56,12.56,0,0,1,2.09-2,18.29,18.29,0,0,1,2.68-1.75,24.9,24.9,0,0,1,3.09-1.4c.55-.21,1.09-.41,1.61-.57s1.13-.36,1.71-.5a27.53,27.53,0,0,1,6.83-.61,30.53,30.53,0,0,1,3.11.25,22.39,22.39,0,0,1,2.76.5,14,14,0,0,1,2.29.73,4.84,4.84,0,0,1,1.65,1,1,1,0,0,1,.32.76.79.79,0,0,1-.27.51A2.47,2.47,0,0,1,329.46,423.3Z"/><path class="cls-31" d="M322.21,409.33c-5-4.52-27,1.14-28,8.1,0,9.5,8.22-.63,21.7-2.11C327,414.11,325.21,412,322.21,409.33Z"/><path class="cls-32" d="M277.38,431.68c0,3.79-5.47,2-11.89.47a42.83,42.83,0,0,1-17.34-8.85c-3-2.5,10.13-3.65,16.81-1.72C273.58,424.08,277.38,427.89,277.38,431.68Z"/><path d="M248.15,423.3a2.47,2.47,0,0,1-.34-.24.79.79,0,0,1-.27-.51,1,1,0,0,1,.32-.76,4.84,4.84,0,0,1,1.65-1,14,14,0,0,1,2.29-.73,22.39,22.39,0,0,1,2.76-.5,30.53,30.53,0,0,1,3.11-.25,27.53,27.53,0,0,1,6.83.61c.58.13,1.2.33,1.71.5s1.06.36,1.61.57a24.9,24.9,0,0,1,3.09,1.4,18.29,18.29,0,0,1,2.68,1.75,12.56,12.56,0,0,1,2.09,2,8.49,8.49,0,0,1,1.3,2.11,6.16,6.16,0,0,1,.49,1.83,4.87,4.87,0,0,1,0,1.19l-.06.41-.11-.4a6.44,6.44,0,0,0-.39-1,7.31,7.31,0,0,0-.91-1.4,10.49,10.49,0,0,0-1.52-1.48,18.3,18.3,0,0,0-2.12-1.37,26,26,0,0,0-2.58-1.21c-.92-.37-1.91-.74-2.89-1.05-.48-.17-1-.32-1.54-.48s-1-.3-1.52-.42a42.48,42.48,0,0,0-6.2-.88c-2-.17-3.94-.22-5.58-.2a11,11,0,0,0-3.78.51c-.16.1-.31.2-.33.32a.51.51,0,0,0,0,.38A2.18,2.18,0,0,0,248.15,423.3Z"/><polygon points="286.92 437.36 288.92 397.54 290.92 437.36 286.92 437.36"/><path class="cls-33" d="M244.72,427.29c10,11.21,24.32,18.15,35.54,15.09,3.08-.35,6.61-3.84,3.92-5C271.14,431.64,247,426.7,244.72,427.29Z"/><path class="cls-33" d="M294.25,438.39c-2.76,1.08,3.09,3.82,3.84,4.71,11.9,2.73,31.93-9,36.53-17C327.94,425.66,300.53,435.94,294.25,438.39Z"/></g></g></g></g></svg>