<svg xmlns="http://www.w3.org/2000/svg" viewBox="0 0 760.32 1056"><defs><style>.cls-1,.cls-16,.cls-27,.cls-30{fill:none;}.cls-2,.cls-20,.cls-22,.cls-28,.cls-34,.cls-35{fill:#e2b73b;}.cls-14,.cls-3,.cls-31,.cls-32,.cls-33{fill:#c9a131;}.cls-10,.cls-23,.cls-4{fill:#fff59d;}.cls-12,.cls-14,.cls-4{opacity:0.4;}.cls-15,.cls-18,.cls-5{fill:#fff;}.cls-22,.cls-33,.cls-5{opacity:0.8;}.cls-11,.cls-12,.cls-21,.cls-24,.cls-6{fill:#fff9c4;}.cls-28,.cls-6{opacity:0.7;}.cls-7{fill:#724e0e;}.cls-8{fill:#b79339;}.cls-9{opacity:0.2;}.cls-11,.cls-32,.cls-34{opacity:0.5;}.cls-13{fill:#ffca28;}.cls-16{stroke:#ffe082;}.cls-16,.cls-27,.cls-30{stroke-miterlimit:10;}.cls-16,.cls-27{stroke-width:4.24px;}.cls-17,.cls-24,.cls-31{opacity:0.6;}.cls-18,.cls-25{opacity:0.25;}.cls-19{fill:#ffe576;}.cls-20,.cls-23,.cls-29{opacity:0.3;}.cls-25{fill:#b59c33;}.cls-26{fill:#b28834;}.cls-27{stroke:#ffee58;}.cls-30{stroke:#fff;stroke-width:2.83px;}.cls-35{opacity:0.45;}.cls-36{fill:#9e7b2d;}</style></defs><title>starwarsC3PO</title><g id="Layer_2" data-name="Layer 2"><g id="Layer_1-2" data-name="Layer 1"><rect class="cls-1" width="760.32" height="1056"/><g id="C-3PO"><g id="clothes1"><path class="cls-2" d="M499.86,936.61c-17.73-17.34-60.19-38.06-60.19-38.06,0,16.4-29.92,24.6-59.62,24.6s-59.39-8.2-59.39-24.6c0,0-42.47,20.72-60.19,38.06-19.51,19.08-46.2,37-55.11,63.47,0,21.14,0,36.37,0,55.92h38v-8.27h6.85v-2.33h2.87v2.33h7.35V1056H499.86v-8.27h8.87v-2.33h2.87v2.33h6.73V1056h38c0-19.56,0-34.78,0-55.92C547.46,973.64,519.37,955.69,499.86,936.61Z"/><path class="cls-3" d="M380.16,983c-4.38-19.44-116.43-17.67-118.3-13.38v22.51c3.75-5.24,9.36-11.75,21.67-11.46s75.42,32.38,96.63,75.29c24.42-41,84.32-75,96.63-75.29s17.91,6.21,21.67,11.46V969.66C496.59,965.37,384.54,963.59,380.16,983Z"/><path class="cls-4" d="M265.62,972.28s42.22,7.78,55.78,10.75,51.68,6.33,54,4.11-29.5-12.61-55.38-18.17C280.1,960.41,251.19,967.26,265.62,972.28Z"/><path class="cls-5" d="M267.7,972.51s20.31-3.77,34-1.32,23.26,3.54,35.71,5.2c3.21.43-10.56-5.59-36.79-9.12S253.09,968,267.7,972.51Z"/><path class="cls-4" d="M271.28,1056s-8.33-58.93-1.26-69.93,74.81,20.22,96,69.93Z"/><path class="cls-4" d="M262.94,936.22v23.21s8.62,4.37,21-.92,28.21-42.9,23.66-48S262.94,936.22,262.94,936.22Z"/><path class="cls-4" d="M494.7,972.28s-42.22,7.78-55.78,10.75-51.68,6.33-54,4.11,29.5-12.61,55.38-18.17C480.22,960.41,509.13,967.26,494.7,972.28Z"/><path class="cls-5" d="M492.62,972.51s-20.31-3.77-34-1.32-23.26,3.54-35.71,5.2c-3.21.43,10.56-5.59,36.79-9.12S507.23,968,492.62,972.51Z"/><path class="cls-4" d="M489,1056s8.33-58.93,1.26-69.93-74.81,20.22-96,69.93Z"/><path class="cls-4" d="M497.38,936.22v23.21s-8.62,4.37-21-.92-28.21-42.9-23.66-48S497.38,936.22,497.38,936.22Z"/><path class="cls-6" d="M262.94,936.22v12.47s8.62,3.42,21-.72,28.21-33.59,23.66-37.62S262.94,936.22,262.94,936.22Z"/><path class="cls-6" d="M497.38,936.22v12.47s-8.62,3.42-21-.72-28.21-33.59-23.66-37.62S497.38,936.22,497.38,936.22Z"/><path class="cls-3" d="M205.46,1008.54c0,17,0,1.28,0,18.12l38,23.73v-2.66A203.71,203.71,0,0,0,205.46,1008.54Z"/><path class="cls-2" d="M243.51,936.61c-11.87,0-41.38,29.92-55.52,51.89a6.5,6.5,0,0,0,2,9,203.78,203.78,0,0,1,53.52,50.22V936.61Z"/><path class="cls-4" d="M241.81,936.8C229,939.27,201.5,967.5,188,988.49a6.5,6.5,0,0,0,2,9c3.54,2.24,8.6,5.67,14.5,10.26h0c1.06-.5,3.51-1.55,4.12-1.94s5.62-4.14,4-2.67c1.68-1.41,3.33-2.84,4.92-4.34,4.8-4.52,13.28-12.43,18.86-17.57a16.94,16.94,0,0,0,5.46-12.46Z"/><path class="cls-4" d="M187.59,994.63c1.92,1.3,5.08,2.11,7,3.41,1.8-.1,10.86-9.56,17.51-16.3,9.47-9.59,15.55-16.83,29.7-22.42V936.8C229,939.27,201.5,967.5,188,988.49a6.48,6.48,0,0,0-.51,6.07Z"/><path class="cls-3" d="M556.37,1008.54c0,17,0,1.28,0,18.12l-38,23.73v-2.66A203.71,203.71,0,0,1,556.37,1008.54Z"/><path class="cls-2" d="M518.33,936.61c11.87,0,41.38,29.92,55.52,51.89a6.5,6.5,0,0,1-2,9,203.78,203.78,0,0,0-53.52,50.22V936.61Z"/><path class="cls-4" d="M520,936.8c12.78,2.47,40.31,30.7,53.83,51.69a6.5,6.5,0,0,1-2,9c-3.54,2.24-8.6,5.67-14.5,10.26h0c-1.06-.5-3.51-1.55-4.12-1.94s-5.62-4.14-4-2.67c-1.68-1.41-3.33-2.84-4.92-4.34-4.8-4.52-13.28-12.43-18.86-17.57A16.94,16.94,0,0,1,520,968.8Z"/><path class="cls-4" d="M574.24,994.63c-1.92,1.3-5.08,2.11-7,3.41-1.8-.1-10.86-9.56-17.51-16.3-9.47-9.59-15.55-16.83-29.7-22.42V936.8c12.78,2.47,40.31,30.7,53.83,51.69a6.48,6.48,0,0,1,.51,6.07Z"/><rect class="cls-7" x="250.24" y="938.93" width="2.87" height="106.47"/><rect class="cls-8" x="253.11" y="936.61" width="8.75" height="111.12"/><rect class="cls-4" x="253.11" y="1041.6" width="8.75" height="6.13"/><rect class="cls-8" x="243.51" y="936.61" width="6.73" height="111.12"/><rect class="cls-4" x="253.11" y="936.61" width="8.75" height="59.83"/><rect class="cls-4" x="243.51" y="936.61" width="6.73" height="59.83"/><rect class="cls-4" x="253.11" y="939.91" width="8.75" height="46.16"/><rect class="cls-4" x="243.51" y="939.91" width="6.73" height="46.16"/><rect class="cls-5" x="253.11" y="944.74" width="8.75" height="27.55"/><rect class="cls-5" x="243.51" y="944.74" width="6.73" height="27.55"/><rect class="cls-4" x="243.51" y="1041.6" width="6.73" height="6.13"/><rect class="cls-7" x="508.73" y="938.93" width="2.87" height="106.47"/><rect class="cls-8" x="499.97" y="936.61" width="8.75" height="111.12"/><rect class="cls-4" x="499.97" y="1041.6" width="8.75" height="6.13"/><rect class="cls-8" x="511.6" y="936.61" width="6.73" height="111.12"/><rect class="cls-4" x="499.97" y="936.61" width="8.75" height="59.83"/><rect class="cls-4" x="511.6" y="936.61" width="6.73" height="59.83"/><rect class="cls-4" x="499.97" y="939.91" width="8.75" height="46.16"/><rect class="cls-4" x="511.6" y="939.91" width="6.73" height="46.16"/><rect class="cls-5" x="499.97" y="944.74" width="8.75" height="27.55"/><rect class="cls-5" x="511.6" y="944.74" width="6.73" height="27.55"/><rect class="cls-4" x="511.6" y="1041.6" width="6.73" height="6.13"/><path class="cls-3" d="M444.78,922.28c9.28,2.59,14.75,5.76,14.75,9.19,0,8.74-35.53,51.56-79.37,51.56s-79.37-42.82-79.37-51.56c0-3.71,6.41-7.13,17.15-9.83"/><path class="cls-2" d="M455.18,872l-75-2.36-75,2.36s11,25.5,8.75,46c21,13.39,66.27,14.81,66.27,14.81s45.28-1.41,66.27-14.81C444.16,897.49,455.18,872,455.18,872Z"/><path class="cls-3" d="M328.6,924.55c22.37,7.29,51.56,8.21,51.56,8.21s29.19-.92,51.56-8.21c-.34-24.45,7.06-52,7.06-52l-58.62-3-58.62,3S328.95,900.1,328.6,924.55Z"/><path class="cls-8" d="M380.16,869.63l-48,2.43a491.69,491.69,0,0,1,4.41,54.78c20.75,5.21,43.58,5.93,43.58,5.93s22.82-.72,43.58-5.93a491.69,491.69,0,0,1,4.41-54.78Z"/><circle class="cls-9" cx="380.16" cy="959.94" r="14.13"/><circle class="cls-10" cx="380.16" cy="955.87" r="14.13"/><circle class="cls-11" cx="380.16" cy="955.87" r="14.13"/><path class="cls-2" d="M366,955.56c0,.1,0,.2,0,.31a14.13,14.13,0,1,0,28.26,0c0-.1,0-.2,0-.31Z"/><circle class="cls-2" cx="380.16" cy="955.87" r="12.13"/><circle class="cls-12" cx="380.16" cy="955.87" r="12.13"/><path class="cls-3" d="M380.16,944.3a12.12,12.12,0,0,1,12.12,11.85c0-.09,0-.19,0-.28a12.13,12.13,0,1,0-24.26,0c0,.09,0,.19,0,.28A12.12,12.12,0,0,1,380.16,944.3Z"/><circle class="cls-13" cx="380.16" cy="955.87" r="10.06"/><circle class="cls-2" cx="380.16" cy="955.87" r="10.06"/><path class="cls-14" d="M373,968.06a14,14,0,0,0,14.26,0V955.87H373Z"/><circle class="cls-10" cx="380.16" cy="955.87" r="7.13"/><path class="cls-14" d="M386.69,955.87H373.63v2.86a7.12,7.12,0,0,0,13.06,0Z"/><circle class="cls-11" cx="380.16" cy="955.87" r="6.53"/><ellipse class="cls-15" cx="380.16" cy="951.17" rx="2.74" ry="1.41"/><circle class="cls-8" cx="380.16" cy="955.87" r="2.74"/><path class="cls-8" d="M294.51,920.15c0,8.74,37.75,15.82,84.32,15.82s84.32-7.08,84.32-15.82V907.32c0,8.74-37.75,15.82-84.32,15.82s-81.46-5.6-84.32-15.82c0,0,2,6.61,2,8.46C296.49,917.14,294.51,920.15,294.51,920.15Z"/><path class="cls-8" d="M312.73,897.5c-11.4,2.7-18.22,6.11-18.22,9.82s7.3,7.36,19.43,10.1A72.56,72.56,0,0,0,312.73,897.5Z"/><path class="cls-8" d="M463.15,907.32c0-3.43-5.82-6.59-15.68-9.18a72.73,72.73,0,0,0-1.15,18.67C456.89,914.16,463.15,910.88,463.15,907.32Z"/><path class="cls-16" d="M447.54,897.81c10.63,2.65,16.94,5.94,16.94,9.51,0,8.74-37.75,15.82-84.32,15.82s-84.32-7.08-84.32-15.82c0-3.57,6.3-6.87,16.94-9.51"/><g class="cls-17"><path class="cls-7" d="M462.78,919.8a5.3,5.3,0,0,1,1.73,2.31,3.63,3.63,0,0,1-.41,2.94,12,12,0,0,1-4.46,3.87,55.05,55.05,0,0,1-10.81,4.3,162.57,162.57,0,0,1-22.65,4.67c-3.81.56-7.63,1-11.47,1.38s-7.67.69-11.5.93c-7.68.49-15.37.66-23.06.72s-15.38-.24-23.06-.71q-5.76-.37-11.5-.93t-11.47-1.38a162.51,162.51,0,0,1-22.65-4.67,55.12,55.12,0,0,1-10.81-4.3,12,12,0,0,1-4.46-3.87,3.63,3.63,0,0,1-.41-2.94,5.3,5.3,0,0,1,1.74-2.31,5.14,5.14,0,0,0-1.43,2.39,3.15,3.15,0,0,0,.64,2.52,11.27,11.27,0,0,0,4.46,3.17,56.8,56.8,0,0,0,10.8,3.33c3.7.83,7.44,1.49,11.2,2s7.54,1,11.32,1.38c7.57.73,15.17,1.3,22.78,1.58s15.23.5,22.85.48,15.24-.14,22.85-.48,15.21-.85,22.78-1.58a197.18,197.18,0,0,0,22.53-3.4,56.87,56.87,0,0,0,10.8-3.33,11.27,11.27,0,0,0,4.46-3.17,3.15,3.15,0,0,0,.64-2.52A5.15,5.15,0,0,0,462.78,919.8Z"/></g><path class="cls-16" d="M462.78,917a4.42,4.42,0,0,1,1.69,3.17c0,8.74-37.75,15.82-84.32,15.82s-84.32-7.08-84.32-15.82a4.42,4.42,0,0,1,1.69-3.17"/><path class="cls-16" d="M462.78,910.64a4.42,4.42,0,0,1,1.69,3.17c0,8.74-37.75,15.82-84.32,15.82s-84.32-7.08-84.32-15.82a4.42,4.42,0,0,1,1.69-3.17"/><polygon class="cls-2" points="328.85 940.73 327.5 940.45 331.33 921.97 330.4 921.77 331.36 917.12 329.3 916.69 328.33 921.35 327.39 921.15 323.56 939.64 322.2 939.35 317.38 962.62 318.73 962.9 317.79 967.43 321.73 968.25 322.67 963.72 324.03 964 328.85 940.73"/><polygon class="cls-18" points="328.85 940.73 327.5 940.45 331.33 921.97 330.4 921.77 331.36 917.12 329.3 916.69 328.33 921.35 327.39 921.15 323.56 939.64 322.2 939.35 317.38 962.62 318.73 962.9 317.79 967.43 321.73 968.25 322.67 963.72 324.03 964 328.85 940.73"/><path class="cls-8" d="M328.68,941.57l-.93,4.46-6.65-1.38.93-4.46Zm-9,9.75-.57,2.75,6.65,1.38.57-2.75Zm-1.52,7.32-.83,4,1.36.28-.25,1.19,3.94.82.25-1.19L324,964l.83-4Zm.82-4-.57,2.75,6.65,1.38.57-2.75Zm1.39-6.72-.57,2.75,6.65,1.38.57-2.75Zm8.83-31.06-.8,3.85,1,.21,1,.21.8-3.85-1-.21Zm-1.13,20.56L329,933l-3.94-.82-.93,4.46Zm2.08-10,.39-1.87-3.94-.82-.39,1.87Zm-.5,2.4.39-1.87-3.94-.82-.39,1.87Zm-.12.56-3.94-.82-.39,1.87,3.94.82Z"/><rect class="cls-2" x="322.71" y="931.35" width="8.29" height="4.56" transform="translate(196.47 -46.93) rotate(11.72)"/><rect class="cls-2" x="325.02" y="928.77" width="5.3" height="1.91" transform="translate(195.69 -47.18) rotate(11.72)"/><rect class="cls-2" x="325.52" y="926.35" width="5.3" height="1.91" transform="translate(195.21 -47.33) rotate(11.72)"/><rect class="cls-2" x="326.02" y="923.95" width="5.3" height="1.91" transform="translate(194.73 -47.48) rotate(11.72)"/><rect class="cls-2" x="320.99" y="939.64" width="8.29" height="4.56" transform="translate(198.11 -46.41) rotate(11.72)"/><rect class="cls-2" x="319.56" y="947.42" width="8.29" height="2.81" transform="translate(199.49 -45.97) rotate(11.72)"/><rect class="cls-2" x="318.86" y="950.79" width="8.29" height="2.81" transform="translate(200.16 -45.76) rotate(11.72)"/><rect class="cls-2" x="318.16" y="954.15" width="8.29" height="2.81" transform="translate(200.82 -45.55) rotate(11.72)"/><rect class="cls-2" x="317.09" y="958.08" width="8.29" height="5.28" transform="translate(201.85 -45.22) rotate(11.72)"/><polygon class="cls-2" points="330.53 915.92 327.62 915.32 327.89 919.39 329.73 919.77 331.57 920.15 333.44 916.52 330.53 915.92"/><rect class="cls-2" x="328.43" y="915.27" width="4.27" height="0.96" transform="translate(192.91 -48.06) rotate(11.72)"/><rect class="cls-18" x="322.71" y="931.35" width="8.29" height="4.56" transform="translate(196.47 -46.93) rotate(11.72)"/><rect class="cls-18" x="325.02" y="928.77" width="5.3" height="1.91" transform="translate(195.69 -47.18) rotate(11.72)"/><rect class="cls-18" x="325.52" y="926.35" width="5.3" height="1.91" transform="translate(195.21 -47.33) rotate(11.72)"/><rect class="cls-18" x="326.02" y="923.95" width="5.3" height="1.91" transform="translate(194.73 -47.48) rotate(11.72)"/><rect class="cls-18" x="320.99" y="939.64" width="8.29" height="4.56" transform="translate(198.11 -46.41) rotate(11.72)"/><rect class="cls-18" x="319.56" y="947.42" width="8.29" height="2.81" transform="translate(199.49 -45.97) rotate(11.72)"/><rect class="cls-18" x="318.86" y="950.79" width="8.29" height="2.81" transform="translate(200.16 -45.76) rotate(11.72)"/><rect class="cls-18" x="318.16" y="954.15" width="8.29" height="2.81" transform="translate(200.82 -45.55) rotate(11.72)"/><rect class="cls-18" x="317.09" y="958.08" width="8.29" height="5.28" transform="translate(201.85 -45.22) rotate(11.72)"/><polygon class="cls-18" points="330.53 915.92 327.62 915.32 327.89 919.39 329.73 919.77 331.57 920.15 333.44 916.52 330.53 915.92"/><rect class="cls-18" x="328.43" y="915.27" width="4.27" height="0.96" transform="translate(192.91 -48.06) rotate(11.72)"/><rect class="cls-4" x="324.09" y="931.19" width="4.02" height="4.56" transform="translate(196.42 -46.78) rotate(11.72)"/><rect class="cls-4" x="325.63" y="928.62" width="2.57" height="1.91" transform="translate(195.64 -47.03) rotate(11.72)"/><rect class="cls-4" x="326.13" y="926.19" width="2.57" height="1.91" transform="translate(195.16 -47.18) rotate(11.72)"/><rect class="cls-4" x="326.63" y="923.79" width="2.57" height="1.91" transform="translate(194.68 -47.33) rotate(11.72)"/><rect class="cls-4" x="322.37" y="939.48" width="4.03" height="4.56" transform="translate(198.07 -46.26) rotate(11.72)"/><rect class="cls-4" x="320.94" y="947.27" width="4.03" height="2.81" transform="translate(199.44 -45.82) rotate(11.72)"/><rect class="cls-4" x="320.24" y="950.63" width="4.03" height="2.81" transform="translate(200.11 -45.61) rotate(11.72)"/><rect class="cls-4" x="319.55" y="953.99" width="4.03" height="2.81" transform="translate(200.78 -45.4) rotate(11.72)"/><rect class="cls-4" x="318.47" y="957.93" width="4.03" height="5.28" transform="translate(201.81 -45.07) rotate(11.72)"/><polygon class="cls-4" points="329.78 915.76 328.37 915.47 328.09 919.43 328.98 919.61 329.87 919.8 331.19 916.06 329.78 915.76"/><rect class="cls-4" x="328.78" y="915.12" width="2.07" height="0.96" transform="matrix(0.98, 0.2, -0.2, 0.98, 192.86, -47.91)"/><rect class="cls-5" x="325.1" y="931.19" width="2.01" height="4.56" transform="matrix(0.98, 0.2, -0.2, 0.98, 196.42, -46.78)"/><rect class="cls-5" x="326.27" y="928.62" width="1.28" height="1.91" transform="translate(195.64 -47.03) rotate(11.72)"/><rect class="cls-5" x="326.78" y="926.19" width="1.28" height="1.91" transform="translate(195.16 -47.18) rotate(11.72)"/><rect class="cls-5" x="327.27" y="923.79" width="1.28" height="1.91" transform="translate(194.68 -47.33) rotate(11.72)"/><rect class="cls-5" x="323.38" y="939.48" width="2.01" height="4.56" transform="translate(198.07 -46.26) rotate(11.72)"/><rect class="cls-5" x="321.95" y="947.27" width="2.01" height="2.81" transform="translate(199.44 -45.82) rotate(11.72)"/><rect class="cls-5" x="321.25" y="950.63" width="2.01" height="2.81" transform="translate(200.11 -45.61) rotate(11.72)"/><rect class="cls-5" x="320.55" y="953.99" width="2.01" height="2.81" transform="translate(200.78 -45.4) rotate(11.72)"/><rect class="cls-5" x="319.48" y="957.93" width="2.01" height="5.28" transform="translate(201.8 -45.07) rotate(11.72)"/><polygon class="cls-5" points="329.78 915.76 329.07 915.62 328.54 919.52 328.98 919.61 329.43 919.71 330.49 915.91 329.78 915.76"/><rect class="cls-5" x="329.3" y="915.12" width="1.03" height="0.96" transform="translate(192.86 -47.91) rotate(11.72)"/><polygon class="cls-2" points="431.47 940.73 432.82 940.45 428.99 921.97 429.92 921.77 428.96 917.12 431.02 916.69 431.99 921.35 432.93 921.15 436.76 939.64 438.12 939.35 442.94 962.62 441.59 962.9 442.53 967.43 438.59 968.25 437.65 963.72 436.29 964 431.47 940.73"/><polygon class="cls-18" points="431.47 940.73 432.82 940.45 428.99 921.97 429.92 921.77 428.96 917.12 431.02 916.69 431.99 921.35 432.93 921.15 436.76 939.64 438.12 939.35 442.94 962.62 441.59 962.9 442.53 967.43 438.59 968.25 437.65 963.72 436.29 964 431.47 940.73"/><path class="cls-8" d="M438.29,940.19l.93,4.46L432.57,946l-.93-4.46Zm-4.34,12.51.57,2.75,6.65-1.38-.57-2.75Zm1.52,7.32.83,4,1.36-.28.25,1.19,3.94-.82-.25-1.19,1.36-.28-.83-4Zm-.82-4,.57,2.75,6.65-1.38-.57-2.75Zm-1.39-6.72.57,2.75,6.65-1.38L439.9,948ZM430,917.11l-1,.21.8,3.85,1-.21,1-.21-.8-3.85Zm6.11,19.53-.93-4.46-3.94.82.93,4.46Zm-2.08-10-.39-1.87-3.94.82.39,1.87Zm.5,2.4-.39-1.87-3.94.82.39,1.87Zm-3.44,3.24,3.94-.82-.39-1.87-3.94.82Z"/><rect class="cls-2" x="429.32" y="931.35" width="8.29" height="4.56" transform="translate(1047.54 1759.75) rotate(168.28)"/><rect class="cls-2" x="430" y="928.77" width="5.3" height="1.91" transform="matrix(-0.98, 0.2, -0.2, -0.98, 1045.14, 1752.18)"/><rect class="cls-2" x="429.5" y="926.35" width="5.3" height="1.91" transform="translate(1043.65 1747.48) rotate(168.28)"/><rect class="cls-2" x="429" y="923.95" width="5.3" height="1.91" transform="translate(1042.18 1742.84) rotate(168.28)"/><rect class="cls-2" x="431.03" y="939.64" width="8.29" height="4.56" transform="matrix(-0.98, 0.2, -0.2, -0.98, 1052.62, 1775.79)"/><rect class="cls-2" x="432.47" y="947.42" width="8.29" height="2.81" transform="translate(1056.86 1789.18) rotate(168.28)"/><rect class="cls-2" x="433.17" y="950.79" width="8.29" height="2.81" transform="translate(1058.93 1795.69) rotate(168.28)"/><rect class="cls-2" x="433.86" y="954.15" width="8.29" height="2.81" transform="translate(1060.99 1802.21) rotate(168.28)"/><rect class="cls-2" x="434.94" y="958.08" width="8.29" height="5.28" transform="translate(1064.17 1812.23) rotate(168.28)"/><polygon class="cls-2" points="429.79 915.92 432.7 915.32 432.43 919.39 430.59 919.77 428.75 920.15 426.88 916.52 429.79 915.92"/><rect class="cls-2" x="427.62" y="915.27" width="4.27" height="0.96" transform="translate(1036.56 1725.11) rotate(168.28)"/><rect class="cls-18" x="429.32" y="931.35" width="8.29" height="4.56" transform="translate(1047.54 1759.75) rotate(168.28)"/><rect class="cls-18" x="430" y="928.77" width="5.3" height="1.91" transform="matrix(-0.98, 0.2, -0.2, -0.98, 1045.14, 1752.18)"/><rect class="cls-18" x="429.5" y="926.35" width="5.3" height="1.91" transform="translate(1043.65 1747.48) rotate(168.28)"/><rect class="cls-18" x="429" y="923.95" width="5.3" height="1.91" transform="translate(1042.18 1742.84) rotate(168.28)"/><rect class="cls-18" x="431.03" y="939.64" width="8.29" height="4.56" transform="matrix(-0.98, 0.2, -0.2, -0.98, 1052.62, 1775.79)"/><rect class="cls-18" x="432.47" y="947.42" width="8.29" height="2.81" transform="translate(1056.86 1789.18) rotate(168.28)"/><rect class="cls-18" x="433.17" y="950.79" width="8.29" height="2.81" transform="translate(1058.93 1795.69) rotate(168.28)"/><rect class="cls-18" x="433.86" y="954.15" width="8.29" height="2.81" transform="translate(1060.99 1802.21) rotate(168.28)"/><rect class="cls-18" x="434.94" y="958.08" width="8.29" height="5.28" transform="translate(1064.17 1812.23) rotate(168.28)"/><polygon class="cls-18" points="429.79 915.92 432.7 915.32 432.43 919.39 430.59 919.77 428.75 920.15 426.88 916.52 429.79 915.92"/><rect class="cls-18" x="427.62" y="915.27" width="4.27" height="0.96" transform="translate(1036.56 1725.11) rotate(168.28)"/><rect class="cls-4" x="432.2" y="931.19" width="4.02" height="4.56" transform="translate(1049 1759.28) rotate(168.28)"/><rect class="cls-4" x="432.12" y="928.62" width="2.57" height="1.91" transform="translate(1046.6 1751.72) rotate(168.28)"/><rect class="cls-4" x="431.62" y="926.19" width="2.57" height="1.91" transform="translate(1045.11 1747.02) rotate(168.28)"/><rect class="cls-4" x="431.12" y="923.79" width="2.57" height="1.91" transform="translate(1043.64 1742.37) rotate(168.28)"/><rect class="cls-4" x="433.92" y="939.48" width="4.03" height="4.56" transform="translate(1054.08 1775.33) rotate(168.28)"/><rect class="cls-4" x="435.35" y="947.27" width="4.03" height="2.81" transform="translate(1058.32 1788.72) rotate(168.28)"/><rect class="cls-4" x="436.05" y="950.63" width="4.03" height="2.81" transform="translate(1060.39 1795.23) rotate(168.28)"/><rect class="cls-4" x="436.75" y="953.99" width="4.03" height="2.81" transform="translate(1062.45 1801.74) rotate(168.28)"/><rect class="cls-4" x="437.82" y="957.93" width="4.03" height="5.28" transform="translate(1065.62 1811.76) rotate(168.28)"/><polygon class="cls-4" points="430.54 915.76 431.95 915.47 432.23 919.43 431.34 919.61 430.45 919.8 429.13 916.06 430.54 915.76"/><rect class="cls-4" x="429.47" y="915.12" width="2.07" height="0.96" transform="translate(1038.02 1724.65) rotate(168.28)"/><rect class="cls-5" x="433.21" y="931.19" width="2.01" height="4.56" transform="translate(1049 1759.28) rotate(168.28)"/><rect class="cls-5" x="432.76" y="928.62" width="1.28" height="1.91" transform="matrix(-0.98, 0.2, -0.2, -0.98, 1046.6, 1751.72)"/><rect class="cls-5" x="432.26" y="926.19" width="1.28" height="1.91" transform="translate(1045.11 1747.02) rotate(168.28)"/><rect class="cls-5" x="431.76" y="923.79" width="1.28" height="1.91" transform="matrix(-0.98, 0.2, -0.2, -0.98, 1043.64, 1742.37)"/><rect class="cls-5" x="434.93" y="939.48" width="2.01" height="4.56" transform="translate(1054.08 1775.33) rotate(168.28)"/><rect class="cls-5" x="436.36" y="947.27" width="2.01" height="2.81" transform="translate(1058.32 1788.72) rotate(168.28)"/><rect class="cls-5" x="437.06" y="950.63" width="2.01" height="2.81" transform="translate(1060.39 1795.23) rotate(168.28)"/><rect class="cls-5" x="437.76" y="953.99" width="2.01" height="2.81" transform="translate(1062.45 1801.74) rotate(168.28)"/><rect class="cls-5" x="438.83" y="957.93" width="2.01" height="5.28" transform="translate(1065.62 1811.76) rotate(168.28)"/><polygon class="cls-5" points="430.54 915.76 431.25 915.62 431.79 919.52 431.34 919.61 430.89 919.71 429.83 915.91 430.54 915.76"/><rect class="cls-5" x="429.99" y="915.12" width="1.03" height="0.96" transform="translate(1038.02 1724.65) rotate(168.28)"/></g><path class="cls-3" d="M380.16,156V848.11l143.39,31.32a12.43,12.43,0,0,0,14.64-9.06L566,766.79a6.27,6.27,0,0,1,7.21-4.61c2.43.45,2.28,1,6.68,1.77a5.23,5.23,0,0,0,5.9-3.76c8.66-31.43,11.55-47.74,15.54-65.89,2.86-13,16.86-.12,22.09-8.44a7.56,7.56,0,0,0,1-2.66c4-21.44,18.33-100.38,22.31-145.6a4.87,4.87,0,0,0-4-5.35L621,529.47a3.53,3.53,0,0,1,.18-7c4.49,0,12.84,2,14.14-7.89a34.28,34.28,0,0,0,0-3.58c2.05-77.43-3.89-149.24-32.23-196.79C550.57,226.06,464.27,200.64,432.51,180,398.89,158.12,395.37,156,380.16,156ZM605.08,367.29a2.81,2.81,0,0,1-.78.12,3.21,3.21,0,0,1-3.07-2.6c-3.37-13.9-7.37-25.59-11.88-34.75-1.4-2.85-2.87-5.7-4.37-8.48a3.77,3.77,0,0,1,1.06-4.83,3,3,0,0,1,4.31,1.19c1.54,2.86,3,5.79,4.49,8.72,4.75,9.65,8.94,21.87,12.45,36.3A3.59,3.59,0,0,1,605.08,367.29ZM601.66,595.7c4.84-33.31,6.55-50.35,6.57-50.52a3.4,3.4,0,0,1,6.77.67c0,.17-1.74,17.34-6.61,50.83a3.4,3.4,0,0,1-3.36,2.91,3.27,3.27,0,0,1-.49,0A3.4,3.4,0,0,1,601.66,595.7Zm17.65-165.43a3.44,3.44,0,0,1-2.81,3.86l-.22,0a3.29,3.29,0,0,1-3.22-3.17,472.11,472.11,0,0,0-6.48-47.1,3.54,3.54,0,0,1,2.4-4.19,3.16,3.16,0,0,1,3.73,2.69A480,480,0,0,1,619.32,430.27Zm-3.4,68.54c.2-10.09.18-20.29-.08-30.31-.14-5.63-.36-11.3-.65-16.84a3.66,3.66,0,0,1,2.08-3.67c2-.78,4.06.85,4.18,3.12.3,5.66.52,11.45.67,17.19.26,10.3.29,20.78.07,31.15a3.35,3.35,0,0,1-3,3.44,2.1,2.1,0,0,1-.9-.16C617,502.31,616.19,501.26,615.92,498.81Zm5.5,102.59a3.27,3.27,0,0,1-.49,0,3.4,3.4,0,0,1-2.88-3.85c4.84-33.31,6.55-50.35,6.57-50.52a3.4,3.4,0,0,1,6.77.67c0,.17-1.74,17.34-6.61,50.83A3.4,3.4,0,0,1,621.41,601.4ZM605,670.06c6-30.83,9.57-51.17,9.6-51.37a3.4,3.4,0,1,1,6.7,1.17c0,.2-3.61,20.61-9.63,51.51a3.4,3.4,0,0,1-3.33,2.75,3.45,3.45,0,0,1-.65-.06A3.4,3.4,0,0,1,605,670.06Zm-13.69.59a3.4,3.4,0,0,1-2.69-4c6-30.83,9.57-51.17,9.6-51.37a3.4,3.4,0,1,1,6.7,1.17c0,.2-3.61,20.61-9.63,51.51a3.4,3.4,0,0,1-3.33,2.75A3.45,3.45,0,0,1,591.29,670.65ZM572,747.13c9.88-42.85,10.75-49.67,10.78-50a3.4,3.4,0,0,1,6.76.71c0,.25-.73,6.61-10.92,50.8a3.4,3.4,0,0,1-3.31,2.64,3.46,3.46,0,0,1-.77-.09A3.4,3.4,0,0,1,572,747.13ZM545.3,264.59a2.9,2.9,0,0,1,4.43-.21,255.62,255.62,0,0,1,29.28,36,3.8,3.8,0,0,1-.61,4.93,2.91,2.91,0,0,1-1.78.7,3,3,0,0,1-2.62-1.41,248.79,248.79,0,0,0-28.49-35.07A3.83,3.83,0,0,1,545.3,264.59Zm-52.58-39a3,3,0,0,1,4.24-1.4,305.61,305.61,0,0,1,36.84,26.1,3.82,3.82,0,0,1,.69,4.93,3,3,0,0,1-2.32,1.4,2.93,2.93,0,0,1-2.07-.7A299.2,299.2,0,0,0,494,230.33,3.78,3.78,0,0,1,492.73,225.55Z"/><path class="cls-3" d="M327.81,180c-31.75,20.65-118.06,46.07-170.59,134.19C128.88,361.72,122.94,433.53,125,511a34.28,34.28,0,0,0,0,3.58c1.31,9.92,9.65,7.89,14.14,7.89a3.53,3.53,0,0,1,.18,7l-21.71,2.76a4.87,4.87,0,0,0-4,5.35c4,45.22,18.33,124.17,22.31,145.6a7.56,7.56,0,0,0,1,2.66c5.22,8.32,19.23-4.56,22.09,8.44,4,18.15,6.88,34.46,15.54,65.89a5.23,5.23,0,0,0,5.9,3.76c4.4-.73,4.25-1.32,6.68-1.77a6.27,6.27,0,0,1,7.21,4.61l27.78,103.58a12.43,12.43,0,0,0,14.64,9.06l143.39-31.32V156C365,156,361.43,158.12,327.81,180ZM153,363c3.5-14.44,7.69-26.65,12.45-36.3,1.44-2.93,3-5.86,4.49-8.72a3,3,0,0,1,4.31-1.19,3.77,3.77,0,0,1,1.06,4.83c-1.5,2.78-3,5.63-4.37,8.48-4.51,9.16-8.51,20.85-11.88,34.75a3.21,3.21,0,0,1-3.07,2.6,2.81,2.81,0,0,1-.78-.12A3.59,3.59,0,0,1,153,363Zm2.74,236.59a3.27,3.27,0,0,1-.49,0,3.4,3.4,0,0,1-3.36-2.91c-4.86-33.49-6.59-50.66-6.61-50.83a3.4,3.4,0,0,1,6.77-.67c0,.17,1.73,17.21,6.57,50.52A3.4,3.4,0,0,1,155.78,599.55Zm-8.19-217.17a3.16,3.16,0,0,1,3.73-2.69,3.54,3.54,0,0,1,2.4,4.19,472.11,472.11,0,0,0-6.48,47.1,3.29,3.29,0,0,1-3.22,3.17l-.22,0a3.44,3.44,0,0,1-2.81-3.86A480,480,0,0,1,147.59,382.38Zm-5.5,120.35a2.1,2.1,0,0,1-.9.16,3.35,3.35,0,0,1-3-3.44c-.22-10.37-.19-20.85.07-31.15.15-5.75.37-11.53.67-17.19.12-2.26,2.13-3.9,4.18-3.12a3.66,3.66,0,0,1,2.08,3.67c-.29,5.55-.51,11.21-.65,16.84-.26,10-.28,20.22-.08,30.31C144.13,501.26,143.35,502.31,142.09,502.73Zm-6.54,95.76c-4.86-33.49-6.59-50.66-6.61-50.83a3.4,3.4,0,0,1,6.77-.67c0,.17,1.73,17.21,6.57,50.52a3.4,3.4,0,0,1-2.88,3.85,3.27,3.27,0,0,1-.49,0A3.4,3.4,0,0,1,135.55,598.49ZM152.65,674a3.45,3.45,0,0,1-.65.06,3.4,3.4,0,0,1-3.33-2.75c-6-30.9-9.59-51.3-9.63-51.51a3.4,3.4,0,1,1,6.7-1.17c0,.2,3.6,20.55,9.6,51.37A3.4,3.4,0,0,1,152.65,674Zm15.72-3.34A3.4,3.4,0,0,1,165,668c-6-30.9-9.59-51.3-9.63-51.51a3.4,3.4,0,1,1,6.7-1.17c0,.2,3.6,20.55,9.6,51.37a3.4,3.4,0,0,1-2.69,4A3.45,3.45,0,0,1,168.37,670.71Zm17.36,80.5a3.46,3.46,0,0,1-.77.09,3.4,3.4,0,0,1-3.31-2.64c-10.18-44.19-10.89-50.55-10.92-50.8a3.4,3.4,0,0,1,6.76-.71c0,.31.91,7.13,10.78,50A3.4,3.4,0,0,1,185.73,751.21Zm29.07-481.65a248.79,248.79,0,0,0-28.49,35.07A3,3,0,0,1,183.7,306a2.91,2.91,0,0,1-1.78-.7,3.8,3.8,0,0,1-.61-4.93,255.62,255.62,0,0,1,29.28-36,2.9,2.9,0,0,1,4.43.21A3.83,3.83,0,0,1,214.81,269.56Zm51.48-39.23a299.2,299.2,0,0,0-36.08,25.56,2.93,2.93,0,0,1-2.07.7,3,3,0,0,1-2.32-1.4,3.82,3.82,0,0,1,.69-4.93,305.61,305.61,0,0,1,36.84-26.1,3,3,0,0,1,4.24,1.4A3.78,3.78,0,0,1,266.28,230.33Z"/><path class="cls-19" d="M596.75,392.57C570.22,250.28,445.76,207,380.16,207S190.1,250.28,163.57,392.57c-8.91,47.78-7.74,97.65-1.37,153.34.78,3.68,4,6.33,6.4,7.69,5.42,70,17.91,142.08,33,209.7a51.48,51.48,0,0,0,6,2.21c.84,5.44,10.45,36.64,11.81,42.91,13.69,63.24,87.68,103.35,160.68,103.35s147-40.1,160.68-103.35c1.36-6.27,11-37.47,11.81-42.91a51.48,51.48,0,0,0,6-2.21c15.12-67.62,27.61-139.73,33-209.7,2.39-1.36,5.62-4,6.4-7.69C604.49,490.22,605.66,440.35,596.75,392.57Z"/><path class="cls-20" d="M596.75,392.57C570.22,250.28,445.76,207,380.16,207S190.1,250.28,163.57,392.57c-8.71,46.73-7.39,99-1.37,153.34a11.71,11.71,0,0,0,6.4,7.69c5.39,74.27,17.66,138.08,33,209.7,1.89,1.21,4.88,1.66,6,2.21,1.1,7.09,15.68,52.41,18.08,61.6,10.19,39,92.13,84.66,154.4,84.66s144.21-45.66,154.4-84.66c2.4-9.19,17-54.5,18.08-61.6,1.17-.55,4.16-1,6-2.21,15.37-71.63,27.65-135.43,33-209.7a11.71,11.71,0,0,0,6.4-7.69C604.15,491.54,605.46,439.3,596.75,392.57Z"/><circle class="cls-9" cx="380.16" cy="182.85" r="23.52"/><circle class="cls-10" cx="380.16" cy="179.52" r="23.52"/><circle class="cls-11" cx="380.16" cy="179.52" r="23.52"/><circle class="cls-6" cx="380.16" cy="179.52" r="20.19"/><path class="cls-3" d="M380.16,160.27A20.18,20.18,0,0,1,400.33,180c0-.16,0-.31,0-.47a20.19,20.19,0,1,0-40.38,0c0,.16,0,.31,0,.47A20.18,20.18,0,0,1,380.16,160.27Z"/><circle class="cls-13" cx="380.16" cy="179.52" r="16.74"/><circle class="cls-4" cx="380.16" cy="179.52" r="16.74"/><path class="cls-14" d="M368.3,199.8a23.37,23.37,0,0,0,23.73,0V179.52H368.3Z"/><circle class="cls-10" cx="380.16" cy="179.52" r="11.86"/><path class="cls-14" d="M391,179.52H369.3v4.76a11.86,11.86,0,0,0,21.73,0Z"/><circle class="cls-11" cx="380.16" cy="179.52" r="10.86"/><path class="cls-3" d="M380.16,189.87c7,0,10.37-6.45,10.37-10.35,0,0-.09-.22-2.46-.23S384,177,380.15,177h0c-3.81,0-5.62,2.3-7.92,2.31s-2.46.19-2.46.23c0,3.9,2.77,10.35,10.38,10.35Z"/><path class="cls-10" d="M371,183.48a10.3,10.3,0,0,0,18.39,0s-2,4-9.2,4C373.48,187.43,371,183.48,371,183.48Z"/><path class="cls-21" d="M379.81,175.46c3.43-.1,6.39,1.32,9.53,2-.38-4.24-4.34-7.57-9.18-7.57s-8.92,3.44-9.19,7.77C373.93,178.28,376.56,175.56,379.81,175.46Z"/><ellipse class="cls-15" cx="380.16" cy="172.21" rx="2.54" ry="1.01"/><path class="cls-22" d="M380.16,797.94H342.75c20.39,9.78,28.7,10.49,37.41,10.49s17-.71,37.41-10.49Z"/><rect class="cls-7" x="342.75" y="771.03" width="74.82" height="16.44"/><path class="cls-23" d="M424.59,763.39s-5.31-23.89-44.81-23.89S335,763.39,335,763.39c-4.1,7,7.78,24.08,7.78,24.08V764h74.82v23.46S428.69,770.43,424.59,763.39Z"/><path class="cls-20" d="M201.63,763.3c48.15,17,116.22,24.73,141.12,24.17C310.25,753.39,251.34,685,228.56,595.25c-1.67-6.56-3.22-10.69-16.37-16.93-22-10.42-31.25-16.84-43.59-24.72C176.75,623.64,189.88,693.79,201.63,763.3Z"/><path class="cls-20" d="M377.33,545.77a57,57,0,0,0-18.79-41.82,91.9,91.9,0,0,0-62.7-24,100.21,100.21,0,0,0-98.08,79.73c-.09.42-.19,1-.3,1.6A13.26,13.26,0,0,0,205,575.53c6.52,3,22,6.09,30.94,24.35,8.37,17.13,37.62,20,61.28,18.3,39.36-2.91,80.12-33.81,80.12-69.46Z"/><path class="cls-20" d="M214.77,537.52c19.87,27.51,65.92,35.7,96.43,27.36,16.5-4.51,32.9-14.06,40-29.63,9.47-20.85-25.07-55.33-55.33-55.33a100.07,100.07,0,0,0-86.09,49A51,51,0,0,0,214.77,537.52Z"/><path class="cls-20" d="M231,528.18c36,11.26,52,3.06,57.64,2.05,17.53-3.12,43.5-6.18,44.25-26.1.37-9.84-20.91-24.21-37-24.21a99.84,99.84,0,0,0-74.66,33.43C216.77,518.3,221.28,525.14,231,528.18Z"/><path class="cls-21" d="M358.54,503.95l-1.87-1.57c-1.2-1-3-2.48-5.43-4.22a91.84,91.84,0,0,0-21.53-11.55C299,475,257.35,479.94,225.84,511.45c-3.81,3.94-15.33,17.64-21.35,34.71a55.69,55.69,0,0,0-2,6.09,83.53,83.53,0,0,0-2.25,10.15c-.42,2.84-.86,5.09-1,6.59l-.24,2.43s-4.67-8.06,1.83-30.5c3.64-10.68,7.39-20.69,27.43-37.38l2-1.55,3.94-3.12a18.43,18.43,0,0,1,2.06-1.47l2.13-1.4,4.27-2.8,4.53-2.43,2.27-1.22a18.29,18.29,0,0,1,2.32-1.12l4.75-2,2.38-1c.81-.3,1.63-.54,2.45-.81l4.9-1.57a42.42,42.42,0,0,1,5-1.26l5-1.1c3.34-.57,6.71-.89,10-1.34l9.72-.33a92.16,92.16,0,0,1,55.5,19c2.35,1.82,4.15,3.31,5.32,4.38Z"/><path class="cls-24" d="M357.93,502.72c.6-11.56-7.07-28.2-23.81-38.21-10.7-6.4-29.62-13-42.08-12.64-48.5,1.5-70.86,47.76-70.86,61.48,11.1-15.69,52-33.43,74.66-33.43C320.82,479.92,335.73,487.53,357.93,502.72Z"/><path class="cls-15" d="M325.87,473.65c-.44,2.59-6.92,1.9-14.82.55s-14.23-2.86-13.79-5.45,7.49-5.28,15.39-3.93S326.31,471.06,325.87,473.65Z"/><path class="cls-20" d="M383,545.77a57,57,0,0,1,18.79-41.82,91.9,91.9,0,0,1,62.7-24,100.21,100.21,0,0,1,98.08,79.73c.09.42.19,1,.3,1.6a13.26,13.26,0,0,1-7.54,14.27c-6.52,3-22,6.09-30.94,24.35-8.37,17.13-37.62,20-61.28,18.3C423.73,615.26,383,584.37,383,548.71Z"/><path class="cls-20" d="M545.54,537.52c-19.87,27.51-65.92,35.7-96.43,27.36-16.5-4.51-32.9-14.06-40-29.63-9.47-20.85,25.07-55.33,55.33-55.33a100.07,100.07,0,0,1,86.09,49A51,51,0,0,1,545.54,537.52Z"/><path class="cls-20" d="M529.33,528.18c-36,11.26-52,3.06-57.64,2.05-17.53-3.12-43.5-6.18-44.25-26.1-.37-9.84,20.91-24.21,37-24.21a99.84,99.84,0,0,1,74.66,33.43C543.55,518.3,539,525.14,529.33,528.18Z"/><path class="cls-21" d="M401.77,503.95l1.87-1.57c1.2-1,3-2.48,5.43-4.22a91,91,0,0,1,55.35-17.28l9.62.59c3.18.53,6.41.93,9.63,1.57l4.81,1.21a40.64,40.64,0,0,1,4.79,1.36l4.72,1.66c.78.28,1.58.54,2.36.85l2.28,1,4.55,2.08a17.26,17.26,0,0,1,2.22,1.15l2.17,1.24,4.31,2.47,4.05,2.83,2,1.4a17.24,17.24,0,0,1,1.94,1.47l3.71,3.11,1.84,1.54c.61.51,1.14,1.11,1.71,1.66l3.33,3.33c.54.56,1.12,1.08,1.62,1.66l1.48,1.77,2.92,3.48a37,37,0,0,1,2.64,3.56l2.48,3.55a34.72,34.72,0,0,1,2.2,3.59l2,3.54c.33.58.67,1.15,1,1.73l.81,1.78,1.58,3.45c.49,1.14,1.09,2.2,1.45,3.33l1.16,3.27a55.69,55.69,0,0,1,2,6.09,83.53,83.53,0,0,1,2.25,10.15c.42,2.84.86,5.09,1,6.59l.24,2.43s4.67-8.06-1.83-30.5c-3.64-10.68-7.39-20.69-27.43-37.38l-2-1.55-3.94-3.12a18.43,18.43,0,0,0-2.06-1.47l-2.13-1.4-4.27-2.8-4.53-2.43-2.27-1.22a18.29,18.29,0,0,0-2.32-1.12l-4.75-2-2.38-1c-.81-.3-1.63-.54-2.45-.81l-4.9-1.57a42.42,42.42,0,0,0-5-1.26l-5-1.1c-3.34-.57-6.71-.89-10-1.34l-9.72-.33a92.16,92.16,0,0,0-55.5,19c-2.35,1.82-4.15,3.31-5.32,4.38Z"/><path class="cls-24" d="M402.39,502.72c-.6-11.56,7.07-28.2,23.81-38.21,10.7-6.4,29.62-13,42.08-12.64,48.5,1.5,70.86,47.76,70.86,61.48-11.1-15.69-52-33.43-74.66-33.43C439.5,479.92,424.59,487.53,402.39,502.72Z"/><path class="cls-15" d="M434.45,473.65c.44,2.59,6.92,1.9,14.82.55s14.23-2.86,13.79-5.45-7.49-5.28-15.39-3.93S434,471.06,434.45,473.65Z"/><path class="cls-11" d="M580.93,362.41c-23.18-68.78-95.44-137-184.17-144.73-1.05,7.95-8.67,14.12-17.93,14.12s-16.71-6-17.89-13.87c-87.54,8.8-158.62,76.38-181.58,144.48-27.24,80.82,93,107.53,200.78,107.53S608.18,443.23,580.93,362.41Z"/><path class="cls-5" d="M409.46,250.92c8.18,11-97.86,62.08-115.25,75.06s-88.27,103.1-96.69,60.38c-2.65-13.42,9.69-65.31,64.33-110.57C326.61,222.13,401.28,240,409.46,250.92Z"/><path class="cls-5" d="M445.33,296.79c-8.18,11,5.56,18.63,22.95,31.6s31.84,26.35,40,15.39.72-30.37-16.67-43.35S453.51,285.83,445.33,296.79Z"/><circle class="cls-25" cx="295.84" cy="580.11" r="59.89"/><circle class="cls-25" cx="464.48" cy="580.11" r="59.89"/><circle class="cls-26" cx="295.84" cy="580.11" r="55.01"/><circle class="cls-26" cx="464.48" cy="580.11" r="55.01"/><circle class="cls-27" cx="295.84" cy="580.11" r="49.88"/><circle class="cls-7" cx="295.84" cy="580.11" r="13.2"/><circle class="cls-7" cx="464.48" cy="580.11" r="13.2"/><line class="cls-27" x1="295.84" y1="530.23" x2="295.84" y2="629.99"/><line class="cls-27" x1="281.41" y1="532.36" x2="281.41" y2="627.87"/><line class="cls-27" x1="266.98" y1="539.43" x2="266.98" y2="620.79"/><line class="cls-27" x1="252.55" y1="555.33" x2="252.55" y2="604.89"/><line class="cls-27" x1="310.28" y1="532.36" x2="310.28" y2="627.87"/><line class="cls-27" x1="324.71" y1="539.43" x2="324.71" y2="620.79"/><line class="cls-27" x1="339.14" y1="555.33" x2="339.14" y2="604.89"/><circle class="cls-27" cx="464.48" cy="580.11" r="49.88"/><line class="cls-27" x1="464.48" y1="530.23" x2="464.48" y2="629.99"/><line class="cls-27" x1="450.04" y1="532.36" x2="450.04" y2="627.87"/><line class="cls-27" x1="435.61" y1="539.43" x2="435.61" y2="620.79"/><line class="cls-27" x1="421.18" y1="555.33" x2="421.18" y2="604.89"/><line class="cls-27" x1="478.91" y1="532.36" x2="478.91" y2="627.87"/><line class="cls-27" x1="493.34" y1="539.43" x2="493.34" y2="620.79"/><line class="cls-27" x1="507.77" y1="555.33" x2="507.77" y2="604.89"/><path class="cls-20" d="M423.3,714.26l-43.14-26.55h0L337,714.26s-7.07,46.13,43.14,46.13S423.3,714.26,423.3,714.26Z"/><path class="cls-20" d="M415,720.87c1.34-6,13.51-3.34,8.31-6.61l-43.14-26.55h0L337,714.26c-5.2,3.27,7,.61,8.31,6.61,2.12,9.48,9.72,21.67,34.83,21.67S412.87,730.35,415,720.87Z"/><path class="cls-28" d="M423.3,714.26l-43.14-26.55h0L337,714.26c-5.2,3.27,31.18-10.27,43.14-10.27S428.5,717.53,423.3,714.26Z"/><g class="cls-29"><path class="cls-7" d="M337,715.77c3.21-2.75,6.55-5.27,9.92-7.76s6.8-4.84,10.26-7.16,7-4.56,10.5-6.76,7.1-4.33,10.69-6.42l1.78-1,1.77,1,5.37,3.17,5.32,3.25c3.53,2.2,7,4.44,10.5,6.76s6.89,4.69,10.26,7.16,6.7,5,9.91,7.76c-4-1.42-7.83-3.07-11.66-4.76s-7.58-3.51-11.31-5.36-7.41-3.79-11.07-5.77l-5.46-3-5.41-3.09h3.55c-3.6,2.07-7.22,4.12-10.88,6.1s-7.35,3.91-11.07,5.76-7.49,3.65-11.31,5.36S341,714.34,337,715.77Z"/></g><g class="cls-29"><path class="cls-15" d="M337,714.26c3.33-2.85,6.77-5.54,10.2-8.24s6.92-5.31,10.44-7.89,7.06-5.12,10.59-7.68L379,683l1.19-.83,1.21.83c3.59,2.47,7.17,5,10.72,7.48s7.1,5.05,10.59,7.68,7,5.23,10.44,7.89,6.87,5.39,10.2,8.25c-3.86-2.07-7.61-4.31-11.37-6.53s-7.46-4.54-11.13-6.88-7.32-4.73-11-7.1-7.25-4.84-10.85-7.3h2.4l-10.85,7.29c-3.66,2.37-7.28,4.79-11,7.1s-7.4,4.62-11.13,6.88S340.88,712.19,337,714.26Z"/></g><line class="cls-30" x1="342.75" y1="767.85" x2="417.57" y2="767.85"/><path class="cls-3" d="M214.64,579.32c-17.67-7.73-37.16-18.22-46-25.72.23,1.88,1.31,11.43,1.55,13.32,17.31,11.1,44,19.52,54.22,23.13C223.4,588.31,222.62,582.75,214.64,579.32Z"/><path class="cls-31" d="M228.08,738.32C203.64,711.69,186,686,172,564.35c8.94,8.12,44.42,17.9,52.38,25.7-37.36,21.84-10.2,10.4,13.68,72.39,12.79,33.21,27.84,107.18,49.28,117.35-12.91-2.28-60.32-8.46-85.56-25.72C221.57,756.53,263.56,777,228.08,738.32Z"/><path class="cls-32" d="M559.19,760.39c-34.32,13.23-85.76,20.6-116,23.34,0,0,75.6-94,90.22-184.07,1.73-10.65,5.6-17.53,11.2-19.55,15.63-5.65,35.83-17.51,47.1-26.51C586.09,627.87,572.05,700.78,559.19,760.39Z"/><path class="cls-8" d="M545.68,579.32c17.67-7.73,37.16-18.22,46-25.72-.23,1.88-1.31,11.43-1.55,13.32C572.87,578,546.15,586.43,536,590,536.92,588.31,537.7,582.75,545.68,579.32Z"/><path class="cls-33" d="M536,742.54c0-56.31,38.33-56.52,52.38-178.19-5.9,5.35-21.16,11.44-33.15,17.19a31,31,0,0,0-17.06,22.32c-5.14,27.65-.42,69.57-13.76,91.6-24.86,41-23.21,64.27-42,78.68,12.91-2.28,42.23-.13,68.25-13.75C530.76,762.86,536,751.51,536,742.54Z"/><path class="cls-4" d="M292,682.7c43.3,8.11,67.5-18.54,85.32-46.26,0,0,2.8-57.33,2.8-84.27.11,26.19-9.54,32.09-30.09,59.31-4.77,6.31-20,20.17-25.36,23.65-52.92,34.28-66.83,10.73-68.82,20.87C252.55,672.94,281,680.63,292,682.7Z"/><path class="cls-4" d="M294.34,680.3c51.38,1.4,68-18.38,85.82-46.1v-82c.11,35.95-46.16,77.82-69.88,95.63C266.75,680.48,294.34,680.3,294.34,680.3Z"/><path class="cls-6" d="M355.74,616.27C350.29,622,338,632.95,332.34,636A135.51,135.51,0,0,0,314.95,650c-11.64,11.64-6.67,17.19-1.22,22.93,4.92,5.18,26.16-3.31,32.28-7a100.67,100.67,0,0,0,19.51-15.36c9.45-9.54,15.37-39.34,8.42-50.83C367.5,589.1,368.18,603.17,355.74,616.27Z"/><path class="cls-5" d="M370.78,638.41c-4.09,12.94-24.25,27-29.65,27s-23.63-7.51-5.39-18.52c21.33-12.87,27.16-21.45,32-30.65C370.31,611.5,374.67,626.1,370.78,638.41Z"/><path class="cls-4" d="M468.28,682.7c-43.3,8.11-67.5-18.54-85.32-46.26,0,0-2.8-57.33-2.8-84.27-.11,26.19,9.54,32.09,30.09,59.31,4.77,6.31,20,20.17,25.36,23.65,52.92,34.28,66.83,10.73,68.82,20.87C507.77,672.94,479.33,680.63,468.28,682.7Z"/><path class="cls-4" d="M466,680.3c-51.38,1.4-68-18.38-85.82-46.1v-82C380,588.12,426.32,630,450,647.8,493.57,680.48,466,680.3,466,680.3Z"/><path class="cls-6" d="M404.58,616.27C410,622,422.33,632.95,428,636A135.51,135.51,0,0,1,445.37,650c11.64,11.64,6.67,17.19,1.22,22.93-4.92,5.18-26.16-3.31-32.28-7a100.67,100.67,0,0,1-19.51-15.36c-9.45-9.54-15.37-39.34-8.42-50.83C392.82,589.1,392.14,603.17,404.58,616.27Z"/><path class="cls-5" d="M389.54,638.41c4.09,12.94,24.25,27,29.65,27s23.63-7.51,5.39-18.52c-21.33-12.87-27.16-21.45-32-30.65C390,611.5,385.65,626.1,389.54,638.41Z"/><path class="cls-31" d="M569,568s9.43-40.22,0-65.22-4.93-43,10.09-59.53,18.77-22.52,18.77-6.76,7.51,70.5-6.12,117.11C587.39,568.43,569,568,569,568Z"/><path class="cls-6" d="M408.31,886.75c-4.25,2.15-22.1,4.8-28.15,5-6-.2-28.83-1.31-32.78-4-8.13-5.47-10.22-18.83-12.56-27.57-2.87-10.71-10.11-50.86-10.11-50.86s.7,7.41,2.14,18.49c.72,5.54,1.63,12,2.77,18.9s2.5,14.25,4.26,21.54c2.25,9.26,4.11,17.51,12.75,23.08,5.05,3.26,10.87,4.41,16.68,5.47,4.72.86,12.85,1,16.85,1.22,4-.18,12.13-.36,16.85-1.22,5.81-1.06,11.63-2.21,16.68-5.47,8.64-5.57,16.77-16.26,19-25.52C434.47,858.57,426.83,877.37,408.31,886.75Z"/><path class="cls-31" d="M466.77,783.71c-43.13,4.33-21.06,7.32-21.91,27.06-1.4,32.36-5.74,88.45-64.7,101,44.29-11.38,96.69-14.49,130.6-54.28,29.76-34.92,35.82-65.07,41.89-92C545.59,768.53,497.39,780.64,466.77,783.71Z"/><path class="cls-34" d="M296.86,783.71C340,788,317.92,791,318.77,810.77c1.4,32.36,5.74,88.45,64.7,101-44.29-11.38-102.68-16.65-136.58-56.43-29.76-34.92-29.56-61.77-35.64-88.68C218.32,769.67,266.24,780.64,296.86,783.71Z"/><path class="cls-31" d="M221.19,774.85s33.69,71.92,45.8,84.71c24.84,26.25,79.65,31.81,79.65,31.81s-24.9-31.69-38.77-66.05S257.13,782.6,221.19,774.85Z"/><path class="cls-31" d="M466.4,789.29s3.34,19.89-7.86,42-19.08,31.53-9.7,31.9,35.28-12,49.92-24.59,35.15-35.86,36.57-49.35,3.22-18.3-6.54-15.15S466.4,789.29,466.4,789.29Z"/><path class="cls-8" d="M467.36,784.35s69.69-11.2,85.28-18.84c-1.07,5-24,17.22-74.15,24.15C443.21,794.55,465,784.73,467.36,784.35Z"/><path class="cls-3" d="M292.67,784.35s-68.53-13.52-85-18.84c1.07,5,23.69,17.22,73.86,24.15C316.82,794.55,295,784.73,292.67,784.35Z"/><path class="cls-35" d="M339.14,853.72s-4.88,39.36,41,38c36.89-1.06,52.47-25.89,56.3-48.42.66-3.89,2.41-17.12,0-20.27C408.22,785.7,374.61,874.47,339.14,853.72Z"/><path class="cls-6" d="M414.83,897.91s104.28,0,126.87-110.41C490.35,889.72,414.83,897.91,414.83,897.91Z"/><path class="cls-21" d="M212.34,771s10.56,67.2,54.76,95.47,75.31,31.41,75.31,31.41S281.29,875,267,859.57,212.34,771,212.34,771Z"/><path class="cls-2" d="M346.63,899.66s57.83,4.47,68.2-1.75C387.67,910.9,376.15,909.44,346.63,899.66Z"/><polygon class="cls-3" points="589.52 783.17 583.08 773.97 584.42 768.91 573.23 765.95 571.89 771.01 568.46 770.1 566.58 777.09 563.09 776.17 534.77 883.05 538.26 883.97 536.43 890.98 539.87 891.89 538.52 896.95 549.71 899.91 551.05 894.85 561.2 890.05 589.52 783.17"/><rect class="cls-3" x="548.87" y="774.79" width="3.61" height="110.57" transform="translate(870.39 1773.49) rotate(-165.16)"/><rect class="cls-3" x="552.38" y="768.47" width="3.55" height="125.05" transform="translate(877.01 1776.2) rotate(-165.16)"/><polygon class="cls-3" points="589.52 783.17 561.2 890.05 551.05 894.85 567.06 834.41 583.08 773.97 589.52 783.17"/><rect class="cls-3" x="555.69" y="765.17" width="11.57" height="135.53" transform="translate(890.89 1781.88) rotate(-165.16)"/><rect class="cls-4" x="538.72" y="792.51" width="63.86" height="11.57" transform="translate(-347.17 1145.45) rotate(-75.16)"/><polygon class="cls-4" points="569.41 829.05 576.84 831.02 589.52 783.17 583.75 774.93 569.41 829.05"/><rect class="cls-4" x="560.99" y="770.71" width="2.68" height="55.51" transform="translate(901.4 1714.31) rotate(-165.16)"/><rect class="cls-4" x="556.76" y="776.89" width="2.68" height="46.72" transform="translate(892.62 1716.75) rotate(-165.16)"/><rect class="cls-4" x="550.04" y="791.2" width="41.91" height="11.57" transform="translate(-345.65 1144.82) rotate(-75.16)"/><polygon class="cls-4" points="572.09 818.96 579.52 820.93 588.09 788.57 581.78 782.36 572.09 818.96"/><rect class="cls-4" x="561.71" y="775.61" width="2.68" height="40.26" transform="translate(903.52 1709.14) rotate(-165.16)"/><rect class="cls-4" x="557.51" y="780" width="2.68" height="34.85" transform="translate(894.82 1711.38) rotate(-165.16)"/><rect class="cls-5" x="554.73" y="798.03" width="29.29" height="10.11" transform="matrix(0.26, -0.97, 0.97, 0.26, -352.75, 1147.79)"/><polygon class="cls-5" points="573.13 819.24 579.52 820.93 586.05 796.27 580.35 792.29 573.13 819.24"/><rect class="cls-5" x="560.95" y="787.45" width="1.89" height="28.32" transform="translate(899.75 1720.4) rotate(-165.16)"/><rect class="cls-5" x="557.19" y="787.69" width="1.99" height="27.12" transform="translate(892.55 1718.74) rotate(-165.16)"/><rect class="cls-4" x="538.75" y="895.25" width="11.57" height="3.24" transform="translate(841.2 1903.28) rotate(-165.16)"/><polygon class="cls-4" points="552.11 894.35 561.2 890.05 561.98 887.13 553.77 888.08 552.11 894.35"/><rect class="cls-4" x="536.71" y="888.85" width="2.68" height="2.51" transform="matrix(-0.97, -0.26, 0.26, -0.97, 830.18, 1888.33)"/><rect class="cls-4" x="534.9" y="882.06" width="2.68" height="1.35" transform="translate(828.52 1873.37) rotate(-165.16)"/><polygon class="cls-8" points="572.44 847.65 561.98 887.13 553.77 888.08 565 845.68 572.44 847.65"/><rect class="cls-8" x="525.19" y="863.85" width="53.11" height="11.57" transform="translate(-430.19 1180.25) rotate(-75.16)"/><polygon class="cls-8" points="539.66 889.24 537.07 888.55 549.49 841.57 552.11 842.26 539.66 889.24"/><rect class="cls-8" x="520.6" y="860.2" width="42.51" height="2.68" transform="translate(-429.72 1164.67) rotate(-75.16)"/><polygon class="cls-36" points="583.75 774.93 583.08 773.97 551.05 894.85 552.11 894.35 583.75 774.93"/><rect class="cls-36" x="492.93" y="830.9" width="125.05" height="0.88" transform="translate(-390.41 1155.35) rotate(-75.16)"/><rect class="cls-36" x="496.69" y="829.95" width="110.57" height="0.93" transform="translate(-392.11 1151.29) rotate(-75.16)"/><polygon class="cls-3" points="170.74 783.17 177.18 773.97 175.84 768.91 187.03 765.95 188.37 771.01 191.8 770.1 193.68 777.09 197.17 776.17 225.49 883.05 222 883.97 223.83 890.98 220.4 891.89 221.74 896.95 210.55 899.91 209.21 894.85 199.06 890.05 170.74 783.17"/><rect class="cls-3" x="207.78" y="774.79" width="3.61" height="110.57" transform="matrix(0.97, -0.26, 0.26, 0.97, -205.6, 81.36)"/><rect class="cls-3" x="204.32" y="768.47" width="3.55" height="125.05" transform="matrix(0.97, -0.26, 0.26, 0.97, -205.95, 80.5)"/><polygon class="cls-3" points="170.74 783.17 199.06 890.05 209.21 894.85 193.2 834.41 177.18 773.97 170.74 783.17"/><rect class="cls-3" x="193" y="765.17" width="11.57" height="135.53" transform="translate(-206.69 78.69) rotate(-14.84)"/><rect class="cls-4" x="183.83" y="766.36" width="11.57" height="63.86" transform="translate(-198.13 75.19) rotate(-14.84)"/><polygon class="cls-4" points="190.85 829.05 183.42 831.02 170.74 783.17 176.51 774.93 190.85 829.05"/><rect class="cls-4" x="196.59" y="770.71" width="2.68" height="55.51" transform="translate(-197.89 77.32) rotate(-14.84)"/><rect class="cls-4" x="200.83" y="776.89" width="2.68" height="46.72" transform="translate(-198.21 78.47) rotate(-14.84)"/><rect class="cls-4" x="183.48" y="776.03" width="11.57" height="41.91" transform="translate(-197.81 75.06) rotate(-14.84)"/><polygon class="cls-4" points="188.18 818.96 180.74 820.93 172.17 788.57 178.48 782.36 188.18 818.96"/><rect class="cls-4" x="195.87" y="775.61" width="2.68" height="40.26" transform="matrix(0.97, -0.26, 0.26, 0.97, -197.22, 77.05)"/><rect class="cls-4" x="200.08" y="780" width="2.68" height="34.85" transform="translate(-197.51 78.18) rotate(-14.84)"/><rect class="cls-5" x="185.83" y="788.44" width="10.11" height="29.29" transform="translate(-199.31 75.67) rotate(-14.84)"/><polygon class="cls-5" points="187.13 819.24 180.74 820.93 174.21 796.27 179.91 792.29 187.13 819.24"/><rect class="cls-5" x="197.42" y="787.45" width="1.89" height="28.32" transform="matrix(0.97, -0.26, 0.26, 0.97, -198.69, 77.54)"/><rect class="cls-5" x="201.08" y="787.69" width="1.99" height="27.12" transform="translate(-198.47 78.48) rotate(-14.84)"/><rect class="cls-4" x="209.94" y="895.25" width="11.57" height="3.24" transform="translate(-222.5 85.16) rotate(-14.84)"/><polygon class="cls-4" points="208.15 894.35 199.06 890.05 198.28 887.13 206.49 888.08 208.15 894.35"/><rect class="cls-4" x="220.88" y="888.85" width="2.68" height="2.51" transform="matrix(0.97, -0.26, 0.26, 0.97, -220.56, 86.6)"/><rect class="cls-4" x="222.68" y="882.06" width="2.68" height="1.35" transform="translate(-218.61 86.82) rotate(-14.84)"/><polygon class="cls-8" points="187.82 847.65 198.28 887.13 206.49 888.08 195.26 845.68 187.82 847.65"/><rect class="cls-8" x="202.73" y="843.08" width="11.57" height="53.11" transform="matrix(0.97, -0.26, 0.26, 0.97, -215.77, 82.41)"/><polygon class="cls-8" points="220.6 889.24 223.19 888.55 210.77 841.57 208.15 842.26 220.6 889.24"/><rect class="cls-8" x="217.06" y="840.28" width="2.68" height="42.51" transform="translate(-213.37 84.67) rotate(-14.84)"/><polygon class="cls-36" points="176.51 774.93 177.18 773.97 209.21 894.85 208.15 894.35 176.51 774.93"/><rect class="cls-36" x="204.37" y="768.81" width="0.88" height="125.05" transform="translate(-206.08 80.18) rotate(-14.84)"/><rect class="cls-36" x="207.83" y="775.13" width="0.93" height="110.57" transform="translate(-205.73 81.04) rotate(-14.84)"/></g></g></g></svg>