<svg xmlns="http://www.w3.org/2000/svg" viewBox="0 0 760.32 1056"><defs><style>.cls-1{isolation:isolate;}.cls-2,.cls-4,.cls-5{fill:none;}.cls-18,.cls-3{fill:#212121;}.cls-4{stroke:#424242;}.cls-4,.cls-5{stroke-miterlimit:10;stroke-width:4.87px;}.cls-5{stroke:#212121;}.cls-6{opacity:0.35;}.cls-7{fill:#bdbdbd;}.cls-12,.cls-8{opacity:0.3;}.cls-9{opacity:0.6;}.cls-10{fill:#b1b7ac;}.cls-11{fill:#444741;}.cls-11,.cls-27{opacity:0.5;}.cls-12,.cls-19,.cls-20{fill:#fff;}.cls-12{mix-blend-mode:soft-light;}.cls-13{fill:#e99;}.cls-13,.cls-14{opacity:0.7;}.cls-14{fill:#ffebee;}.cls-15{fill:#e53935;}.cls-16{fill:#ffca28;}.cls-17{fill:#757575;}.cls-18{opacity:0.2;}.cls-19{opacity:0.79;}.cls-21{fill:#424242;}.cls-22{fill:#f5f5f5;}.cls-23{fill:#eee;}.cls-24{fill:#a7afa3;}.cls-25{fill:#ffecb3;}.cls-26{fill:#3e2723;mix-blend-mode:difference;}</style></defs><title>starwarsemperor</title><g class="cls-1"><g id="Layer_2" data-name="Layer 2"><g id="Layer_1-2" data-name="Layer 1"><rect class="cls-2" width="760.32" height="1056"/><g id="clothes1"><path class="cls-3" d="M434.65,914.32v6.13c0,28.24-22.89-1.47-51.13-1.47s-51.13,29.71-51.13,1.47v-6.13A150.65,150.65,0,0,0,232.93,1056H534.11A150.65,150.65,0,0,0,434.65,914.32Z"/><circle class="cls-4" cx="392.81" cy="977.27" r="17.6"/><path class="cls-5" d="M386.58,993.73a17.6,17.6,0,0,1-5.59-3.43"/><path class="cls-5" d="M405.27,989.7a17.64,17.64,0,0,1-5,3.51"/><path class="cls-5" d="M404,963.68a17.62,17.62,0,0,1,5.5,8"/><path class="cls-5" d="M376.08,971.8a17.64,17.64,0,0,1,7.21-9.34"/><g class="cls-6"><path class="cls-7" d="M378.37,988.2a18.54,18.54,0,0,1-3.33-8.08,18,18,0,0,1,.73-8.42,17.41,17.41,0,0,0,.46,8.15,16.71,16.71,0,0,0,4,6.78Z"/></g><g class="cls-6"><path class="cls-7" d="M399.72,992.32a7.55,7.55,0,0,1-2.86,1.92,10.34,10.34,0,0,1-6.76.25,7.52,7.52,0,0,1-3-1.71c1.18-.13,2.23-.15,3.27-.19l3-.09,3-.12C397.48,992.34,398.53,992.28,399.72,992.32Z"/></g><g class="cls-6"><path class="cls-7" d="M409.83,971.66a17.94,17.94,0,0,1,.82,8.09,18.46,18.46,0,0,1-2.95,7.87l-1.93-1.49a16.63,16.63,0,0,0,3.68-6.63A17.33,17.33,0,0,0,409.83,971.66Z"/></g><g class="cls-6"><path class="cls-7" d="M383.78,961a11.36,11.36,0,0,1,4.46-2.87,14.11,14.11,0,0,1,10.59.43,11.28,11.28,0,0,1,4.21,3.23,43.5,43.5,0,0,0-4.83-1.42,27.14,27.14,0,0,0-4.73-.62,26.69,26.69,0,0,0-4.77.24A43,43,0,0,0,383.78,961Z"/></g><path class="cls-4" d="M401.2,970.45c-10-3.12-8.68-5.37-22.08-8.73-11.58-2.9-30.3-2-29.86,15.38.23,9.29,8.14,17.77,22.42,16.08,13.16-1.56,17.8-16.49,24.42-23.4"/><path class="cls-5" d="M386.35,983.48c3.63-4.79,6.45-10.25,9.76-13.71"/><path class="cls-4" d="M401.2,970.45c-10-3.12-8.68-5.37-22.08-8.73"/><g class="cls-6"><path class="cls-7" d="M349.26,976.31a16.22,16.22,0,0,0,4.87,10.78,18.25,18.25,0,0,0,10.74,4.69,22.12,22.12,0,0,0,3,.12,23.06,23.06,0,0,0,3-.2,16.29,16.29,0,0,0,5.6-1.54,23.81,23.81,0,0,0,8.63-7.74l1.92,1.49a25.89,25.89,0,0,1-9.81,7.92,18,18,0,0,1-6.2,1.39,24.45,24.45,0,0,1-3.13.05,23.41,23.41,0,0,1-3.12-.28,19.17,19.17,0,0,1-11-5.47A16.52,16.52,0,0,1,349.26,976.31Z"/></g><g class="cls-6"><path class="cls-7" d="M400.83,970.83a44.67,44.67,0,0,1-7.47-3.21c-1.19-.64-2.32-1.31-3.46-1.91s-2.32-1.13-3.52-1.62a72.2,72.2,0,0,0-7.46-2.42,42.71,42.71,0,0,0-7.69-1.33,34.77,34.77,0,0,0-7.8.21,20.39,20.39,0,0,0-7.35,2.46,14.17,14.17,0,0,0-3.05,2.4,13.21,13.21,0,0,0-2.2,3.22,17.52,17.52,0,0,0-1.57,7.68,17.67,17.67,0,0,1,1.29-7.81,13.59,13.59,0,0,1,2.13-3.4,14.7,14.7,0,0,1,3.07-2.62,21.14,21.14,0,0,1,7.52-2.84,35.83,35.83,0,0,1,8-.53,44.08,44.08,0,0,1,8,1.07,73.75,73.75,0,0,1,7.74,2.19c1.27.46,2.53,1,3.76,1.56s2.4,1.21,3.56,1.79a42.34,42.34,0,0,0,7.22,2.78Z"/></g><path class="cls-4" d="M426.92,963.78s-30.57-10.84-28.69,14.36c1.53,20.44,42,18.53,38.89,3.56-1.73-8.3-14.45-.58-15.35-11.37-.67-8,24.2-18.29,36.42,3.28"/><path class="cls-5" d="M426.92,963.78a47.33,47.33,0,0,0-8.5-2"/><path class="cls-4" d="M421.77,970.33c-.67-8,24.2-18.29,36.42,3.28"/><path class="cls-4" d="M437.12,981.7c-1.73-8.3-14.45-.58-15.35-11.37"/><g class="cls-6"><path class="cls-7" d="M398.23,976.92a15.05,15.05,0,0,0,2.5,5.9,15.67,15.67,0,0,0,4.6,4.19,23.72,23.72,0,0,0,5.75,2.48,29.46,29.46,0,0,0,6.22,1.14,33.48,33.48,0,0,0,6.34,0,26.88,26.88,0,0,0,6.18-1.25,13.59,13.59,0,0,0,5.31-3.11,7.24,7.24,0,0,0,2-5.78A7.2,7.2,0,0,1,436,987a13.63,13.63,0,0,1-5.54,4.12,28.45,28.45,0,0,1-13.42,1.92,25.69,25.69,0,0,1-12.81-4.48,15.31,15.31,0,0,1-4.55-5.14A13,13,0,0,1,398.23,976.92Z"/></g><g class="cls-6"><path class="cls-7" d="M417.58,960.49a59.64,59.64,0,0,0-7.45.94,16.53,16.53,0,0,0-6.42,2.71,11.69,11.69,0,0,0-4,5.5,39.11,39.11,0,0,0-1.52,7.28,17.57,17.57,0,0,1-.31-7.8,11.48,11.48,0,0,1,4.32-6.92,14.38,14.38,0,0,1,7.63-2.64A20.66,20.66,0,0,1,417.58,960.49Z"/></g><g class="cls-6"><path class="cls-7" d="M437.12,980.48a5,5,0,0,0-2.26-3,9.19,9.19,0,0,0-3.66-.9c-1.29-.12-2.63-.17-4-.38a8.12,8.12,0,0,1-4.06-1.68,6.44,6.44,0,0,1-1.46-1.83,8.26,8.26,0,0,1-.75-2.13,9.18,9.18,0,0,1-.24-2.27,6.13,6.13,0,0,1,.66-2.34,8.73,8.73,0,0,1,3.09-3.3,14.75,14.75,0,0,1,3.93-1.8,19.26,19.26,0,0,1,8.4-.36,21.5,21.5,0,0,1,7.73,3,27.8,27.8,0,0,1,10.28,12.29c-3.06-4.34-6.73-8.24-11.24-10.66a21.33,21.33,0,0,0-7.13-2.39,17.38,17.38,0,0,0-7.36.42,12.36,12.36,0,0,0-3.3,1.45,6.8,6.8,0,0,0-2.36,2.38,3.88,3.88,0,0,0-.49,1.44,7.34,7.34,0,0,0,.12,1.68,5.38,5.38,0,0,0,1.4,3,6.74,6.74,0,0,0,3.11,1.53c1.22.32,2.54.49,3.87.76a9.6,9.6,0,0,1,3.85,1.51,4.87,4.87,0,0,1,1.34,1.6A6.25,6.25,0,0,1,437.12,980.48Z"/></g><path class="cls-8" d="M383.52,1041.92c56.38,0,107.43-11,144.41-28.69a151,151,0,0,0-93.28-98.92v6.13c0,28.24-22.89-1.47-51.13-1.47s-51.13,29.71-51.13,1.47v-6.13a151,151,0,0,0-93.28,98.92C276.09,1031,327.14,1041.92,383.52,1041.92Z"/><path class="cls-3" d="M630,543.44C609.92,403.6,447.55,327.69,384.44,327.14h-1.31c-63.11.55-214.22,62.08-234.33,201.92-44.63,310.28-165,361-35.06,446.22,110.3,72.35,123.32-11.47,270.35-11.47S524.58,1086.5,642.4,999.32C767.32,906.9,674.67,853.71,630,543.44Z"/><path class="cls-9" d="M581.73,760.12,568.41,532.71h0c0-.41-7.37-73.36-28.78-90.57s-155.87-82.7-155.87-82.7-134.41,65.44-155.87,82.7-28.74,90.16-28.78,90.57h0L185.84,760.12c-5.33,24.23-25.56,47.39-37,90.45-18.34,68.82-24.05,95.54,18.64,117.18,93.21,47.26,166.59-27.29,216.35-8,56,0,136.1,32.56,205.56,9,45.33-15.37,34.7-45.82,16.36-114.63C594.23,811,587.06,784.35,581.73,760.12Z"/><path class="cls-10" d="M486.18,899.27,383.95,919,281.71,899.27s23.12,60.42,102.09,60.45h.3C463.07,959.69,486.18,899.27,486.18,899.27Z"/><path class="cls-11" d="M486.18,899.27,383.95,919,281.71,899.27s23.12,60.42,102.09,60.45h.3C463.07,959.69,486.18,899.27,486.18,899.27Z"/><path class="cls-3" d="M630,543.44C609.92,403.6,447.55,327.69,384.44,327.14h-1.31c-63.11.55-214.22,62.08-234.33,201.92-44.63,310.28-165,361-35.06,446.22,110.3,72.35,125.8-11.48,272.84-11.48s138,122.7,255.82,35.52C767.32,906.9,674.67,853.71,630,543.44ZM588.58,955.78c-93.21,47.26-172-27.35-204.79,3.94-16.94-24.51-148.09,26.23-190.57-9.63-87.74-74.07-18.44-112.32,0-168.39,13.12-39.92,36.62-114.21,50.48-152.84,9.3-25.93,96,20.86,140.09,20.86S502.92,611.15,524,628.86c18.25,15.32,31.06,37.84,43,61.95.84,1.7,14.7,69.31,14.7,69.31,5.33,24.23,12.49,50.9,24,94C624,922.9,631.27,934.13,588.58,955.78Z"/><path class="cls-12" d="M617,575.44c-4.81-28.66-243.12-33.65-262.74-45.33,243.51,44.63,261.93-29.69,196.75-71.7-104.71-67.47-13.43-47.89-13.43-47.89-43.84-53.07-110.74-73.62-153.13-72.9-40.35.69-95.86,8-147.69,65.1-19.6,18.38-38.28,26.18-12.42,15.14,6.22-2.65,65.44-17.36,99.78-32.72-9.9,7.46-8.66-.23-131.2,59.69C294.52,430,76.73,633.13,223,518,241.9,503.19,328.77,465,370.73,464.24c25.38-.43,111,46.28,130.89,52.72-20.69-2.4-118.45-36.08-164.25-18.35-58.43,22.61-101.14,43.75-101.14,43.75s-66.95,7.28-94.72,68.32c131.21-59.07,160.41,26,243.93,27s167.19-46,190.7-32.62S624.55,620.42,617,575.44Z"/><path class="cls-8" d="M243.7,628.86c2.43-6.76,10.12-8.57,21-7.56l.11-.27s-32.3-15.47-52.73,6.43C183.59,658,188,689.62,186.57,745.77c-.92,37.06-31.21,109.91-37.77,140.76,2-3.94,4.17-8.24,6.4-12.8,9.59-34,29.38-65.76,38-92C206.34,741.79,229.84,667.49,243.7,628.86Z"/><path class="cls-8" d="M602.12,661.09c-53.36-40.05-95-36.88-95-36.88h0c7.14,0,13,1.35,16.89,4.65,18.25,15.32,31.06,37.84,43,61.95.84,1.7,14.7,69.31,14.7,69.31,5.33,24.23,12.49,50.9,24,94,5.95,22.32,10.71,43.09,13,61.73,1.17,5,1.82,7.81,1.82,7.81s-1.24-81.13-26.25-161.27C554.88,636.15,618.23,673.19,602.12,661.09Z"/></g><path class="cls-13" d="M244,678s6.25,27,52.48,24.67c22.78-1.14,30.6-3.21,34.07-4.85,10.22,7,12.52.05,3.24-7.46-5.76-4.66-2.9-6-10.3-12.42-14.5-12.62-33.93-14.53-54.13-8.79C246.81,675.57,244,678,244,678Z"/><path class="cls-14" d="M244,678s6.25,27,52.48,24.67c22.78-1.14,30.6-3.21,34.07-4.85,10.22,7,12.52.05,3.24-7.46-5.76-4.66-2.9-6-10.3-12.42-14.5-12.62-33.93-14.53-54.13-8.79C246.81,675.57,244,678,244,678Z"/><circle class="cls-15" cx="290.51" cy="675.95" r="17.99"/><circle class="cls-16" cx="290.51" cy="675.95" r="8.8"/><circle class="cls-3" cx="290.51" cy="675.95" r="7.35"/><path class="cls-17" d="M368.63,666.08c-17.72,29.06-17,9.52-50,0-43.37-12.52-60.85-11.44-84.56-8.62l-7.19,20.78a60.34,60.34,0,0,0,7.89,8.81c-4.6,17.11,23.88,36.34,51.6,35.4,26.47-.9,70.82-21.64,64.59-28-9.39-9.58.41,8.1,3.94-2.56,1.19-3.59,1.58-5.84,2.85-8.82a6.79,6.79,0,0,0,1.92,0c10.76-1.42,9.45-4.37,11-13.72S373.87,657.48,368.63,666.08Zm-38.1,31.75c-3.47,1.64-11.29,3.71-34.07,4.85-46.23,2.31-48.76-25.87-48.76-25.87s-.88-1.24,21.63-7.65c20.21-5.74,39.63-3.83,54.13,8.79,7.4,6.44,4.54,7.76,10.3,12.42C343,697.88,340.75,704.83,330.53,697.83Z"/><path class="cls-18" d="M247.69,676.81s2.53,28.19,48.76,25.87c22.78-1.14,30.6-3.21,34.07-4.85,10.22,7,12.52.05,3.24-7.46-5.76-4.66-2.9-6-10.3-12.42-14.5-12.62-33.93-14.53-54.13-8.79C246.81,675.57,247.69,676.81,247.69,676.81Zm7.55,6.5c-.33-3.54,3.61-7.69,13-10.11,15.16-3.9,33.53-.25,34.79.33,14.44,6.66,28.1,13.19,19.47,20.61C312.68,702.6,257.14,703.79,255.24,683.31Z"/><path class="cls-19" d="M259.23,684.55s23.93,11.2,41.2,8.12c24.72-4.41,31.59-.12,1.31,5.09C280.73,701.37,253.49,689.88,259.23,684.55Z"/><path class="cls-20" d="M306,675.05c-.57-.08-2.85.15-3.37,3.82s-5.28,6.05-3.16,6.35,6.83-1.88,8.26-5.3C309,676.71,308.09,675.34,306,675.05Z"/><path class="cls-21" d="M330.53,697.83a64.15,64.15,0,0,1-19.75,7.88,86.23,86.23,0,0,1-21.33,2.08,49.72,49.72,0,0,1-21.16-4.92,38.76,38.76,0,0,1-9-6.12,28.15,28.15,0,0,1-6.54-8.49,46.12,46.12,0,0,0,17.13,11A61.7,61.7,0,0,0,289.6,703a131.82,131.82,0,0,0,20.54-.88c3.41-.42,6.83-.95,10.23-1.67S327.14,698.86,330.53,697.83Z"/><path class="cls-21" d="M242.21,672.21a60.85,60.85,0,0,1,17.14-10.57c1.56-.64,3.11-1.33,4.73-1.84s3.19-1.14,4.83-1.56,3.28-.87,4.92-1.28l5-.94c.83-.16,1.67-.29,2.51-.37l2.53-.29c1.69-.16,3.37-.39,5.06-.39s3.38-.1,5.07-.12,3.38.16,5.06.26a83.23,83.23,0,0,1,10,1.31l1.24.23c.41.09.82.21,1.23.31.81.21,1.63.41,2.44.64,1.62.45,3.23.9,4.82,1.42-1.69,0-3.36,0-5-.09s-3.29-.23-5-.14c-3.3,0-6.57-.1-9.83.14-1.63.09-3.26.1-4.88.21s-3.24.29-4.86.43-3.23.34-4.83.56-3.23.34-4.81.68l-4.79.84-4.75,1c-3.15.75-6.3,1.56-9.42,2.53A135,135,0,0,0,242.21,672.21Z"/><path class="cls-13" d="M498.24,669.16c-20.21-5.74-39.63-3.83-54.13,8.79-7.4,6.44-4.54,7.76-10.3,12.42-9.28,7.51-7,14.46,3.24,7.46,3.47,1.64,11.29,3.71,34.07,4.85C517.35,705,523.6,678,523.6,678S520.76,675.57,498.24,669.16Z"/><path class="cls-14" d="M498.24,669.16c-20.21-5.74-39.63-3.83-54.13,8.79-7.4,6.44-4.54,7.76-10.3,12.42-9.28,7.51-7,14.46,3.24,7.46,3.47,1.64,11.29,3.71,34.07,4.85C517.35,705,523.6,678,523.6,678S520.76,675.57,498.24,669.16Z"/><circle class="cls-15" cx="477.06" cy="675.95" r="17.99"/><circle class="cls-16" cx="477.06" cy="675.95" r="8.8"/><circle class="cls-3" cx="477.06" cy="675.95" r="7.35"/><path class="cls-17" d="M396.91,669.37c1.53,9.35.23,12.3,11,13.72a6.79,6.79,0,0,0,1.92,0c2.85,1.48,4.12,2.94,6.35,6,12.25,16.79,12.7-9.58,3.3,0-6.24,6.36,35.25,32.49,61.72,33.39,27.72.94,56.21-18.3,51.6-35.4,2.81-2.6,13.69-11.68,16-14.83l-15.26-14.76c-23.71-2.82-41.19-3.89-84.56,8.62-33,9.52-32.27,29.06-50,0C393.7,657.48,395.38,660,396.91,669.37Zm36.89,21c5.76-4.66,2.9-6,10.3-12.42,14.5-12.62,33.93-14.53,54.13-8.79,22.52,6.4,21.63,7.65,21.63,7.65s-2.53,28.19-48.76,25.87c-22.78-1.14-30.6-3.21-34.07-4.85C426.82,704.83,424.52,697.88,433.8,690.37Z"/><path class="cls-18" d="M498.24,669.16c-20.21-5.74-39.63-3.83-54.13,8.79-7.4,6.44-4.54,7.76-10.3,12.42-9.28,7.51-7,14.46,3.24,7.46,3.47,1.64,11.29,3.71,34.07,4.85,46.23,2.31,48.76-25.87,48.76-25.87S520.76,675.57,498.24,669.16Zm-53.19,25c-8.63-7.42,5-13.95,19.47-20.61,1.26-.58,19.63-4.23,34.79-.33,9.41,2.42,13.35,6.56,13,10.11C510.43,703.79,454.89,702.6,445,694.14Z"/><path class="cls-19" d="M508.34,684.55s-23.93,11.2-41.2,8.12c-24.72-4.41-31.59-.12-1.31,5.09C486.84,701.37,514.08,689.88,508.34,684.55Z"/><path class="cls-20" d="M461.61,675.05c.57-.08,2.85.15,3.37,3.82s5.28,6.05,3.16,6.35-6.83-1.88-8.26-5.3C458.53,676.71,459.48,675.34,461.61,675.05Z"/><path class="cls-21" d="M437,697.83c3.39,1,6.76,1.89,10.16,2.58s6.81,1.24,10.23,1.67A131.82,131.82,0,0,0,478,703a61.7,61.7,0,0,0,19.73-3.69,46.12,46.12,0,0,0,17.13-11,28.14,28.14,0,0,1-6.54,8.49,38.76,38.76,0,0,1-9,6.12,49.71,49.71,0,0,1-21.16,4.92,86.23,86.23,0,0,1-21.33-2.08A64.15,64.15,0,0,1,437,697.83Z"/><path class="cls-21" d="M525.36,672.21a135,135,0,0,0-18.45-7c-3.11-1-6.26-1.77-9.42-2.53l-4.75-1-4.79-.84c-1.59-.35-3.21-.45-4.81-.68s-3.21-.47-4.83-.56-3.24-.27-4.86-.43-3.25-.12-4.88-.21c-3.27-.24-6.53-.1-9.83-.14-1.66-.1-3.29.12-5,.14s-3.33.1-5,.09c1.59-.52,3.2-1,4.82-1.42.81-.23,1.62-.43,2.44-.64.41-.1.81-.22,1.23-.31l1.24-.23a83.23,83.23,0,0,1,10-1.31c1.68-.1,3.37-.24,5.06-.26s3.38.07,5.07.12,3.38.23,5.06.39l2.53.29c.84.08,1.68.21,2.51.37l5,.94c1.64.42,3.29.84,4.92,1.28s3.23,1,4.83,1.56,3.16,1.2,4.73,1.84A60.85,60.85,0,0,1,525.36,672.21Z"/><path class="cls-10" d="M275.79,814.06c-.65.14-1,.19-1.46.26l-1.27.17c-.84.1-1.66.18-2.48.25-1.64.14-3.25.2-4.87.22a76.87,76.87,0,0,1-9.59-.48,67.39,67.39,0,0,1-18.35-4.68,60.77,60.77,0,0,1-8.31-4.3A54.85,54.85,0,0,1,210.91,786a55.45,55.45,0,0,0,13.5,10.72,52.47,52.47,0,0,0,7.65,3.43,53.81,53.81,0,0,0,8,2.05,57.52,57.52,0,0,0,16.19.39,64,64,0,0,0,7.89-1.41c1.29-.31,2.56-.67,3.79-1.06.62-.19,1.23-.4,1.81-.62l.86-.33a4.38,4.38,0,0,0,.66-.3Z"/><path class="cls-22" d="M351.4,717.74s-35.87,30.44-88.07,47.07c-11.54,3.68-44.33,11.38-46.76,4.81S329.52,739,351.4,717.74Z"/><path class="cls-22" d="M359.17,693.77S351.4,732,258.66,751.84c-35.91,7.69-49.09-3.61-42.15-4.54C250.76,742.72,329.63,730.19,359.17,693.77Z"/><path class="cls-23" d="M351.4,730.19S292.9,776.62,266,790.4c-19.67,10.06-33.93-1.09-27-4.38,17.64-8.37,28-17.28,51.47-25.16C327.41,748.46,336.88,737.63,351.4,730.19Z"/><path class="cls-22" d="M236.75,704.07c-27-18.31-7.58,13-3.94,14.82,48.65,24.72,98,9.43,116.84-23.87C295.85,737.29,256.88,717.74,236.75,704.07Z"/><path class="cls-10" d="M290.95,806.81a2.15,2.15,0,0,1,0-.29s0-.09.07,0l0,.07,0,.14.13.57.23,1.15.44,2.3.87,4.6c.61,3.06,1.21,6.11,1.9,9.14,1.34,6.07,2.91,12.08,4.75,18a117.34,117.34,0,0,0,6.78,17.13,68.08,68.08,0,0,0,4.62,7.83,43.1,43.1,0,0,0,2.75,3.55c1,1.13,2,2.28,3.1,3.39a74.44,74.44,0,0,0,13.9,11.76,66.61,66.61,0,0,0,16.54,7.58c11.74,3.61,24.22,4.76,36.66,5.6a150.8,150.8,0,0,1-18.77.07c-3.13-.21-6.27-.51-9.39-1a91.12,91.12,0,0,1-9.3-1.9,65.21,65.21,0,0,1-17.6-7.42A73.84,73.84,0,0,1,314,876.81c-1.08-1.17-2.13-2.32-3.18-3.55a46.63,46.63,0,0,1-2.94-3.87,59.46,59.46,0,0,1-4.74-8.35,104.21,104.21,0,0,1-6.4-17.84A166,166,0,0,1,293,824.77c-.45-3.1-.86-6.2-1.17-9.31l-.43-4.67-.18-2.34-.1-1.17-.07-.58,0-.14s0-.1,0,0A2.15,2.15,0,0,0,290.95,806.81Z"/><path class="cls-10" d="M284.36,807.47a159.88,159.88,0,0,0,1.43,19.95q.64,4.94,1.65,9.81t2.34,9.63c.93,3.16,1.94,6.3,3.14,9.35a88,88,0,0,0,4.14,8.9,68.43,68.43,0,0,0,5.22,8.29c1.94,2.67,3.91,5.31,6,7.79A60.15,60.15,0,0,0,323,893.92a56.17,56.17,0,0,0,18.24,6.66A154.86,154.86,0,0,0,361,902.82c6.66.43,13.35.66,20,1-6.69.36-13.38.62-20.09.65a130.64,130.64,0,0,1-20.18-1.24,64.19,64.19,0,0,1-10-2.3,51.54,51.54,0,0,1-9.47-4.15,60.1,60.1,0,0,1-15.68-13.28,94.72,94.72,0,0,1-6.26-8.05,71.45,71.45,0,0,1-5.39-8.73,84.92,84.92,0,0,1-7.05-19.14q-1.19-4.95-1.95-10c-.49-3.34-.82-6.7-1-10.06A112.43,112.43,0,0,1,284.36,807.47Z"/><path class="cls-10" d="M348.1,697.76a37.6,37.6,0,0,1-5.32,7,66.7,66.7,0,0,1-6.52,6,87.4,87.4,0,0,1-14.94,9.57,131.47,131.47,0,0,1-33.52,11.36A112.87,112.87,0,0,1,270.16,734a78.54,78.54,0,0,1-17.8-1.09A54.51,54.51,0,0,1,235.55,727a41.93,41.93,0,0,1-7.24-5.16,28.13,28.13,0,0,1-5.64-6.77,37.06,37.06,0,0,0,13.65,10.45,57.62,57.62,0,0,0,16.47,4.72,76.17,76.17,0,0,0,8.57.64c1.43.07,2.87,0,4.3,0s2.87-.11,4.3-.21a129.76,129.76,0,0,0,17.09-2.49c5.65-1.24,11.28-2.61,16.78-4.37A136,136,0,0,0,320,717.69q4-1.77,7.73-3.89c2.53-1.39,5-2.88,7.39-4.52A74.3,74.3,0,0,0,342,704c1.09-1,2.16-1.93,3.18-3A30.35,30.35,0,0,0,348.1,697.76Z"/><path class="cls-10" d="M361.17,695.74a62.84,62.84,0,0,1-5.82,8.36,100.54,100.54,0,0,1-6.84,7.6c-2.4,2.43-4.94,4.72-7.54,6.93s-5.31,4.31-8.09,6.29-5.63,3.89-8.54,5.69-5.9,3.47-8.93,5A165.22,165.22,0,0,1,296.67,744,181.33,181.33,0,0,1,257,754q-5.09.62-10.22.88c-3.42.14-6.84.14-10.26,0a78.76,78.76,0,0,1-10.18-1.2,41,41,0,0,1-9.76-3,31.82,31.82,0,0,0,4.92,1.21c1.66.31,3.33.53,5,.68a86.22,86.22,0,0,0,10.06.38c3.36,0,6.71-.25,10-.59s6.67-.76,10-1.32a197.37,197.37,0,0,0,19.65-4.35c6.49-1.74,12.88-3.82,19.18-6.12a177.42,177.42,0,0,0,35.91-18,143.1,143.1,0,0,0,16-12.2A96.68,96.68,0,0,0,361.17,695.74Z"/><path class="cls-24" d="M318.15,849.83c16.08,11.15,34.65,22,65.64,22.64v26.81s-34.66,4-64.55-39.12C303.47,837.41,314.9,847.58,318.15,849.83Z"/><path class="cls-10" d="M256.46,812.6c-.14.24-.39.68-.57,1.07s-.38.82-.57,1.23c-.36.84-.7,1.7-1,2.58a38.08,38.08,0,0,0-1.44,5.43,43.8,43.8,0,0,0-.7,11.32,54.55,54.55,0,0,0,6.57,22.06,87.33,87.33,0,0,0,14.08,19,142.69,142.69,0,0,0,18.13,15.6,143.44,143.44,0,0,1-19.19-14.51,89.6,89.6,0,0,1-15.66-18.53,58.35,58.35,0,0,1-8.47-23.14,48.75,48.75,0,0,1,0-12.6,43.57,43.57,0,0,1,1.24-6.26c.28-1,.61-2.06,1-3.08.2-.51.38-1,.6-1.53q.16-.38.34-.77c.12-.27.23-.49.42-.85Z"/><path class="cls-10" d="M509,801.67C469.85,790,429.07,728,411.35,745.77c-6,15.1-27.57,29.54-27.57,29.54s-21.55-14.44-27.57-29.54C338.5,728,297.72,790,258.58,801.67c-30.36,9.08-31.35,39.54-22.26,39.54,5.16,0-5.25-11.42,25.38-28.71.78,8.45-8.53,24.42,13.78,52.38-11.12-23.94,1-41.95,12.1-56.21,50.51-65,52.3-5.58,77.17,16.48l19,2.23,19-2.23c24.87-22.06,26.67-81.5,77.17-16.48,11.08,14.26,23.22,32.27,12.1,56.21,22.32-28,13-43.93,13.78-52.38,30.63,17.29,20.22,28.71,25.38,28.71C540.34,841.21,539.35,810.75,509,801.67Z"/><path class="cls-10" d="M496.33,798.9a4.39,4.39,0,0,0,.66.3l.86.33c.59.22,1.2.42,1.81.62,1.23.4,2.51.75,3.79,1.06a64,64,0,0,0,7.89,1.41,57.52,57.52,0,0,0,16.19-.39,53.82,53.82,0,0,0,8-2.05,52.47,52.47,0,0,0,7.65-3.43A55.44,55.44,0,0,0,556.66,786a54.85,54.85,0,0,1-18.54,19.48,60.77,60.77,0,0,1-8.31,4.3,67.39,67.39,0,0,1-18.35,4.68,76.87,76.87,0,0,1-9.59.48c-1.61,0-3.23-.09-4.87-.22-.82-.06-1.64-.14-2.48-.25l-1.27-.17c-.46-.08-.81-.12-1.46-.26Z"/><path class="cls-22" d="M416.17,717.74S452,748.17,504.24,764.8c11.54,3.68,44.33,11.38,46.76,4.81S438,739,416.17,717.74Z"/><path class="cls-22" d="M408.4,693.77s7.77,38.22,100.51,58.07c35.91,7.69,49.09-3.61,42.15-4.54C516.81,742.72,437.94,730.19,408.4,693.77Z"/><path class="cls-23" d="M416.17,730.19s58.5,46.42,85.45,60.21c19.67,10.06,33.93-1.09,27-4.38-17.64-8.37-28-17.28-51.47-25.16C440.16,748.46,430.69,737.63,416.17,730.19Z"/><path class="cls-22" d="M530.82,704.07c27-18.31,7.58,13,3.94,14.82-48.65,24.72-98.4,5.87-117.27-27.43C471.28,733.73,510.69,717.74,530.82,704.07Z"/><path class="cls-10" d="M476.62,806.81a2.15,2.15,0,0,0,0-.29c0-.07,0,0,0,0l0,.14-.07.58-.1,1.17-.18,2.34-.43,4.67c-.31,3.11-.72,6.21-1.17,9.31a166,166,0,0,1-3.79,18.44,104.21,104.21,0,0,1-6.4,17.84,59.46,59.46,0,0,1-4.74,8.35,46.63,46.63,0,0,1-2.94,3.87c-1.05,1.22-2.1,2.38-3.18,3.55a73.84,73.84,0,0,1-14.67,12.24,65.21,65.21,0,0,1-17.6,7.42,91.12,91.12,0,0,1-9.3,1.9c-3.12.46-6.26.75-9.39,1a150.8,150.8,0,0,1-18.77-.07c12.44-.84,24.92-2,36.66-5.6A66.61,66.61,0,0,0,437,886.09a74.44,74.44,0,0,0,13.9-11.76c1-1.11,2.1-2.26,3.1-3.39a43.11,43.11,0,0,0,2.75-3.55,68.08,68.08,0,0,0,4.62-7.83,117.34,117.34,0,0,0,6.78-17.13c1.84-5.9,3.41-11.91,4.75-18,.69-3,1.3-6.08,1.9-9.14l.87-4.6.44-2.3.23-1.15.13-.57,0-.14,0-.07c.05,0,.07,0,.07,0A2.14,2.14,0,0,1,476.62,806.81Z"/><path class="cls-10" d="M483.21,807.47a112.44,112.44,0,0,1,.45,20.13c-.22,3.36-.56,6.72-1,10.06s-1.15,6.67-1.95,10a84.92,84.92,0,0,1-7.05,19.14,71.44,71.44,0,0,1-5.39,8.73,94.73,94.73,0,0,1-6.26,8.05,60.1,60.1,0,0,1-15.68,13.28,51.54,51.54,0,0,1-9.47,4.15,64.19,64.19,0,0,1-10,2.3,130.64,130.64,0,0,1-20.18,1.24c-6.71,0-13.4-.29-20.09-.65,6.69-.38,13.38-.61,20-1a154.86,154.86,0,0,0,19.76-2.24,56.17,56.17,0,0,0,18.24-6.66,60.15,60.15,0,0,0,14.63-12.73c2.13-2.48,4.11-5.12,6-7.79a68.42,68.42,0,0,0,5.22-8.29,88,88,0,0,0,4.14-8.9c1.21-3.05,2.22-6.19,3.14-9.35s1.7-6.38,2.34-9.63,1.22-6.52,1.65-9.81A159.86,159.86,0,0,0,483.21,807.47Z"/><path class="cls-10" d="M419.47,697.76a30.34,30.34,0,0,0,2.89,3.28c1,1,2.09,2,3.18,3a74.3,74.3,0,0,0,6.9,5.27c2.38,1.64,4.86,3.13,7.39,4.52s5.1,2.71,7.73,3.89a136,136,0,0,0,16.17,6.15c5.5,1.76,11.13,3.13,16.78,4.37a129.76,129.76,0,0,0,17.09,2.49c1.43.11,2.87.15,4.3.21s2.87.05,4.3,0a76.17,76.17,0,0,0,8.57-.64,57.62,57.62,0,0,0,16.47-4.72,37.06,37.06,0,0,0,13.65-10.45,28.12,28.12,0,0,1-5.64,6.77A41.93,41.93,0,0,1,532,727a54.51,54.51,0,0,1-16.81,5.91,78.54,78.54,0,0,1-17.8,1.09,112.87,112.87,0,0,1-17.63-2.29,131.47,131.47,0,0,1-33.52-11.36,87.4,87.4,0,0,1-14.94-9.57,66.7,66.7,0,0,1-6.52-6A37.6,37.6,0,0,1,419.47,697.76Z"/><path class="cls-10" d="M406.4,695.74a96.68,96.68,0,0,0,13.84,14.72,143.1,143.1,0,0,0,16,12.2,177.42,177.42,0,0,0,35.91,18c6.3,2.3,12.69,4.38,19.18,6.12A197.36,197.36,0,0,0,511,751.09q5,.83,10,1.32c3.34.34,6.69.56,10,.59a86.22,86.22,0,0,0,10.06-.38c1.67-.16,3.35-.38,5-.68a31.83,31.83,0,0,0,4.92-1.21,41,41,0,0,1-9.76,3,78.76,78.76,0,0,1-10.18,1.2c-3.42.17-6.84.18-10.26,0s-6.83-.47-10.22-.88a181.33,181.33,0,0,1-39.67-10,165.23,165.23,0,0,1-18.73-8.35c-3-1.57-6-3.29-8.93-5s-5.77-3.68-8.54-5.69-5.49-4.07-8.09-6.29-5.15-4.5-7.54-6.93a100.54,100.54,0,0,1-6.84-7.6A62.84,62.84,0,0,1,406.4,695.74Z"/><path class="cls-10" d="M238.66,835.64a1.66,1.66,0,0,0-.19.47c-.08.21-.12.47-.19.7a13.06,13.06,0,0,0-.25,1.54,19.6,19.6,0,0,0-.08,3.3,27.21,27.21,0,0,0,1.39,6.8,40.24,40.24,0,0,0,2.92,6.61c.6,1.06,1.25,2.1,1.89,3.16l2.12,3-2.71-2.57c-.85-.91-1.72-1.82-2.55-2.77a42.58,42.58,0,0,1-4.44-6.23,31,31,0,0,1-3.12-7.27,24.65,24.65,0,0,1-.75-4.07,18.66,18.66,0,0,1-.1-2.15c0-.38,0-.73.06-1.13a8.18,8.18,0,0,1,.21-1.33Z"/><path class="cls-11" d="M567,690.81c-11.41-24.11-25.63-46.63-43-61.95-20.11-17.71-98.11,20.86-140.16,20.86S252.57,602.94,243.7,628.86c-13.21,38.63-27.78,84.07-40.29,124A164.69,164.69,0,0,0,211,786c-.2,18.14.52,29,2.76,37.84,22.68-25.08,61.35-53,131.67-83.41,19.85-8.59,19.65-32.75,38.38-32.75s18.52,24.16,38.38,32.75c70.32,30.43,109,58.33,131.67,83.41,2.24-8.83,3-19.7,2.76-37.84C565.56,761.37,567.9,726.49,567,690.81Z"/><path class="cls-17" d="M497.27,806.48c-9.85-6.09-32.09-20.45-32.09-20.45l17.39,19.47-98.79,21.88-39.08-7-48.33-7.39s-11.54-4.93-11.92-6.67c3-5.25,8.88-11,15.81-12.58-8.26-2-20.18,8.86-20.18,8.86s-7.38,10.17-9.36,22.65c10.68-12.8,12.57-19.23,13.64-17.72,5.36,1.53,1,.66,13.66,8.1,19.69,12.72,45.29,34.26,84.66,35,34.35.66,60.93-14.44,86.87-35,12.69-7.44,8.3-6.56,13.66-8.1,1.07-1.51,8.88,7.88,15.53,22.32C498.74,817,501.78,809.27,497.27,806.48Z"/><path class="cls-25" d="M386.41,832s-1.52,10.75.17,12.94c7.34.17,12.57-.8,13.94-3.05,1.27-4.38,2.12-8.53,1.12-13.64C397.53,829.65,386.41,832,386.41,832Z"/><path class="cls-25" d="M406.88,827.86s-1.14,9,0,10.79c2.52,4,10.66.36,11.51-3.24s1.46-5.51.79-9.71C415.78,827.56,406.88,827.86,406.88,827.86Z"/><path class="cls-25" d="M423.26,825.27s-1.68,4.39-.32,6.16c3,3.91,11.92,1.05,12.45-2.59a20.18,20.18,0,0,0,.3-5.77C433.75,824,423.26,825.27,423.26,825.27Z"/><path class="cls-25" d="M436.19,823.07c1.86-.34,4.49-.78,8.34-1.55C443.74,824,439.14,826.94,436.19,823.07Z"/><path class="cls-25" d="M382.39,832.19s1.7,10.75-1,11.29c-4.68.92-11.62,1.83-15.32.09-1.27-4.38-3.27-10.17-2.27-15.29C367.9,829.65,382.39,832.19,382.39,832.19Z"/><path class="cls-25" d="M361.16,827.77s1.35,9.56,0,11.47c-3,4.24-10.85.86-11.86-3s-1.74-5.85-.94-10.32C352.42,827.92,361.16,827.77,361.16,827.77Z"/><path class="cls-25" d="M344,825.27s1.68,4.39.32,6.16c-3,3.91-9.39.82-9.91-2.82a14.1,14.1,0,0,1-.27-4.82C336.43,824.4,344,825.27,344,825.27Z"/><path class="cls-25" d="M331.06,823.07c-1.86-.34-4.49-.78-8.34-1.55C323.51,824,328.1,826.94,331.06,823.07Z"/><path class="cls-26" d="M422.44,829a8.93,8.93,0,0,0,.05,1.07c4.54-1.29,9-2.74,13.2-4.37a14.56,14.56,0,0,0,0-2.6c-3,1.21-12.43,2.2-12.43,2.2a26.54,26.54,0,0,0-.72,2.76"/><path class="cls-26" d="M419.49,828.11a7.84,7.84,0,0,0-.3-2.41c-3,1.74-12.3,2.16-12.3,2.16s-.39,3.08-.48,6c4.07-1,8.52-2.3,12.92-3.83,0-.35.06-.7.09-1.05"/><path class="cls-26" d="M436.19,823.07a5.67,5.67,0,0,0,1.44,1.31c.62-.2,6-1.13,6.45-1.94.16-.31.31-.64.46-.91C442.37,821.79,439.22,822.53,436.19,823.07Z"/><path class="cls-26" d="M401.84,834.53a18.87,18.87,0,0,0-.19-6.25c-4.11,1.37-15.23,3.76-15.23,3.76s-.3,2.76-.52,5.72C387.76,837.51,392,836.5,401.84,834.53Z"/><path class="cls-26" d="M344.8,829a8.93,8.93,0,0,1-.05,1.07,95.41,95.41,0,0,1-10.66-3.41,16.9,16.9,0,0,1-.06-2.83c3,.59,9.95,1.48,9.95,1.48a26.54,26.54,0,0,1,.72,2.76Z"/><path class="cls-26" d="M348.36,826c3.52,1.85,12.8,1.81,12.8,1.81s.46,3.28.57,6.38c-4.84-1.1-8.5-2-13.74-3.67,0-.37.05-.69,0-1.07A16.78,16.78,0,0,1,348.36,826Z"/><path class="cls-26" d="M331.05,823.07a5.67,5.67,0,0,1-1.44,1.31c-.62-.2-6-1.13-6.45-1.94-.16-.31-.31-.64-.46-.91C324.87,821.79,328,822.53,331.05,823.07Z"/><path class="cls-26" d="M363.59,834.53a18.87,18.87,0,0,1,.19-6.25c4.11,1.37,18.6,3.91,18.6,3.91s.41,2.66.62,5.61C381.15,837.56,373.39,836.5,363.59,834.53Z"/><path class="cls-24" d="M449.42,849.83c-16.08,11.15-34.65,22-65.64,22.64v26.81s34.66,4,64.55-39.12C464.1,837.41,452.67,847.58,449.42,849.83Z"/><path class="cls-10" d="M311.1,904.63a343.69,343.69,0,0,1,36-6.56q9.06-1.21,18.19-2c6.1-.54,12.17-1,18.46-1s12.37.48,18.47,1,12.14,1.21,18.19,2a340.28,340.28,0,0,1,36,6.58c-12.26.61-24.43.42-36.57.1-6.07-.16-12.13-.4-18.17-.64l-9-.35c-3-.12-6-.2-8.91-.21s-5.91.1-8.91.21l-9,.34c-6,.24-12.1.47-18.17.64C335.53,905,323.36,905.23,311.1,904.63Z"/><path class="cls-10" d="M516.39,809.56c.19.36.29.58.42.85s.23.52.34.77c.22.51.41,1,.6,1.53.36,1,.69,2,1,3.08a43.57,43.57,0,0,1,1.24,6.26,48.75,48.75,0,0,1,0,12.6,58.35,58.35,0,0,1-8.47,23.14,89.6,89.6,0,0,1-15.66,18.53,143.44,143.44,0,0,1-19.19,14.51,142.69,142.69,0,0,0,18.13-15.6,87.33,87.33,0,0,0,14.08-19,54.55,54.55,0,0,0,6.57-22.06,43.8,43.8,0,0,0-.7-11.32,38.07,38.07,0,0,0-1.44-5.43c-.3-.88-.64-1.74-1-2.58-.19-.41-.37-.83-.57-1.23s-.43-.83-.57-1.07Z"/><path class="cls-10" d="M534.7,833.77a8.19,8.19,0,0,1,.21,1.33c0,.4,0,.75.06,1.13a18.66,18.66,0,0,1-.1,2.15,24.64,24.64,0,0,1-.75,4.07,31,31,0,0,1-3.12,7.27,42.58,42.58,0,0,1-4.44,6.23c-.83.95-1.7,1.86-2.55,2.77l-2.71,2.57,2.12-3c.64-1.06,1.29-2.1,1.89-3.16a40.24,40.24,0,0,0,2.92-6.61,27.21,27.21,0,0,0,1.39-6.8,19.6,19.6,0,0,0-.08-3.3,13.1,13.1,0,0,0-.25-1.54c-.07-.23-.11-.5-.19-.7a1.66,1.66,0,0,0-.19-.47Z"/><g class="cls-27"><path class="cls-21" d="M411.35,745.77a19.47,19.47,0,0,1,4.78-1.52,14.12,14.12,0,0,1,5.11.06,23.4,23.4,0,0,1,9.12,4.55c5.38,4.1,10,9,14.59,13.72s9.06,9.69,13.52,14.59S467.39,787,471.74,792c-5.06-4.31-9.9-8.87-14.63-13.53-2.38-2.31-4.69-4.7-7-7.06l-6.89-7.17q-3.4-3.62-6.87-7.15c-2.3-2.36-4.66-4.65-7.14-6.76a23.89,23.89,0,0,0-8.23-4.88A16.89,16.89,0,0,0,411.35,745.77Z"/></g></g></g></g></svg>