<svg xmlns="http://www.w3.org/2000/svg" viewBox="0 0 634.1 271.37"><defs><style>.cls-1{fill:#ffe81f;}.cls-2{fill:#333;}.cls-3{fill:#fff;}</style></defs><title>2</title><g id="Layer_2" data-name="Layer 2"><g id="Layer_1-2" data-name="Layer 1"><polygon class="cls-1" points="395.34 0.94 389.64 0.94 334.44 0.94 328.74 0.94 326.88 6.33 287.14 121.47 283.48 132.08 294.7 132.08 328.07 132.08 333.96 132.08 335.71 126.46 339.17 115.34 385.8 115.55 389.4 127.32 391.12 132.95 397.01 132.98 429.78 133.16 441.08 133.22 437.39 122.55 397.21 6.33 395.34 0.94 395.34 0.94"/><path class="cls-1" d="M2.09,139.28l3.6,10.58L44.88,265l1.85,5.42h34l1.92-5.26,17.68-48.5,4.82,14c6.09,17.65,12.19,35.28,12.19,35.28l1.86,5.38h34.27l1.85-5.4L195,150.31l3.64-10.6h-49.8l-1.86,5.4c-3,8.63-6.92,20-10.3,29.68q-.76-2.19-1.59-4.61l-8.67-25.46-1.85-5.42H76.39l-1.88,5.35L64.06,174.34c-3.45-9.71-7.46-21-10.52-29.69l-1.88-5.33H46l-32.73,0H2.09Z"/><path class="cls-1" d="M633.37,138.84H551.55c-16,0-25.52,6.33-30.65,11.64-8.35,8.63-10.31,19.5-10.16,24.63,0,.43,0,.87,0,1.32-.07,8.33,1.15,17.76,16.66,33.25,3.07,3.45,8.19,9.24,10.13,12.11-4.24.52-15,.52-26.26.52H500.66c-19.9,0-36.69-.06-40.13-.74a19.72,19.72,0,0,1-1.9-1.5c6.88-4.23,13.83-10.8,17.1-16.41a53.28,53.28,0,0,0,5.1-13.57c2-9.62-1.33-21.24-9-31.07-9-11.47-22-18.33-35.75-18.83H347.72l0,8,.22,115,0,7.95,7.95,0,35.9.16,8,0,0-8,.15-26.71,2.27,2.17c24.23,23.24,32.36,29.68,39.56,31.31,2,.44,5.25,1.17,63.52,1.19h2.78c31.55,0,47.38,0,56.8-.91,10.79-1,14.26-3.49,19.46-7.73l.17-.14c10.68-8.69,16.32-21.83,14.72-34.3-1-8.11-3.19-11.48-11.92-22.37l-2.59-3.24-9.17-11.48c-2-2.48-3.55-4.69-4.49-6.13H576c16.4,0,48.89.11,49.21.11l8,0,0-8,.08-30.31,0-8h0Z"/><polygon class="cls-1" points="288.69 138.37 282.99 138.37 228.4 138.42 222.71 138.43 220.85 143.81 181.07 259.04 177.45 269.54 188.55 269.65 221.05 269.99 227.08 270.06 228.8 264.27 232.27 252.61 279.12 252.99 282.83 264.83 284.59 270.47 290.5 270.45 323.33 270.3 334.52 270.24 330.85 259.67 290.56 143.75 288.69 138.37 288.69 138.37 288.69 138.37"/><path class="cls-1" d="M502.49.94h-49.8V132.08h53.07l0-8-.09-25.22.84.8c25,23.77,32.36,29.17,37.22,30.82,3.73,1.26,10,1.62,44.19,1.62H634.1l-.16-8.15-.61-31.68-.15-7.73-7.73-.11-59.4-.85-1.24-1c-.4-.31-.88-.72-1.39-1.18l1.21-.72c15-9,22.87-23.41,21.57-39.65-.86-11-2.82-15.9-9.52-24A42.63,42.63,0,0,0,551.23,2C545.77,1.08,518.35.94,502.49.94h0Z"/><path class="cls-1" d="M304.58,0h-8L115,.28A36,36,0,0,0,87.67,13C81.85,19.66,78,28.43,77.46,36.48c-1,13.51,2.14,18.39,17.06,35.2,4.33,4.88,8.45,9.52,9.82,11.49a1.35,1.35,0,0,1-.05.16l-.07.05-.82.57H0v48.13H79.66c28.52,0,42.6,0,50.89-.63,9.49-.7,12.52-2.32,17.05-5.14l.57-.35c14.26-8.82,21.61-29.83,15.42-44.07-1.91-4.36-14-19.75-15.38-21.49-3.8-4.81-10.06-12.74-11.05-15a2.65,2.65,0,0,1,.12-.53,4.13,4.13,0,0,1,1-.1l58.86-.17v87.52H247.3V44.61h57.28V0h0Z"/><path class="cls-2" d="M118.81,147.29l8.67,25.46c4.69,13.77,8.88,24.78,9.43,24.78h0c.6-.53,17.57-49.81,17.57-49.81h32.89L147.71,263.33H124.85s-24.4-70.47-24.3-70.74L75.08,262.44H52.45L13.27,147.29l32.73,0s17.93,50.82,18.17,50.82h0l17.89-50.84h36.75"/><path class="cls-2" d="M625.35,146.84l-.08,30.3S592.63,177,576,177c-5.52,0-9.27,0-9.44,0-2.86.52-4.68,6.6-3.87,9.27.4,1.35,3.39,5.76,6.63,9.81s8.54,10.68,11.78,14.73c8.32,10.38,9.46,12.43,10.23,18.39,1.25,9.68-3.33,20.16-11.83,27.07s-8.15,7-71.38,7h-2.78c-38.46,0-58.8-.33-61.76-1-5.26-1.19-13.64-8-35.79-29.28-8-7.64-15.31-14.32-15.69-14.32a0,0,0,0,0,0,0l-.26,44.58-35.9-.16-.22-115H435.8c24.13.87,40.46,24.91,37.21,40.24a45.58,45.58,0,0,1-4.18,11.2c-3.21,5.5-11.38,12.56-18,15.59-2.45,1.11-4.45,2.4-4.45,2.86,0,1.71,8.06,9.65,11.08,10.91,2.58,1.08,10.09,1.32,43.21,1.32h10.61c33.29,0,31.62-.24,34.19-5.74,1.8-3.83.43-6.12-12.24-20.39-16.05-16-14.37-23.62-14.48-29.27-.23-6.77,5.1-28.07,32.81-28.07h73.8"/><polyline class="cls-2" points="283 146.37 323.29 262.29 290.46 262.44 285.01 245.03 226.31 244.56 221.13 261.99 188.63 261.65 228.41 146.42 283 146.37"/><path class="cls-2" d="M296.58,8v28.6H239.3v87.47H205.15V36.54l-66.86.19c-8.06,0-9.14,6.42-9.14,8.88,0,3,2,6,12.79,19.74,7,8.9,13.47,17.78,14.32,19.72,4.64,10.68-1.36,27.32-12.29,34.08-7.79,4.81-6.46,4.93-64.31,4.93H8V92h97.9l2.89-2a8.31,8.31,0,0,0,3.51-5.79c.6-3.68.29-4.16-11.8-17.78-14.29-16.1-15.8-19-15.06-29.32C86.28,25.32,96.74,8.28,115,8.28L296.58,8"/><polyline class="cls-2" points="389.64 8.94 429.82 125.16 397.05 124.98 391.73 107.57 333.29 107.31 328.07 124.08 294.7 124.08 334.44 8.94 389.64 8.94"/><path class="cls-2" d="M502.49,8.94c25.92,0,43.91.37,47.37,1a34.38,34.38,0,0,1,20.65,12.22c5.67,6.86,7,10.14,7.71,19.54,1.06,13.27-5.25,24.72-17.7,32.15-3.63,2.17-7.36,4.28-8.29,4.7-1.43.65-1.24,1.27,1.32,4.27a52.61,52.61,0,0,0,6.35,6.11l3.36,2.61,62.08.89.61,31.68H587.89c-29.44,0-38.86-.27-41.62-1.2-4.13-1.4-14.07-9.82-34.27-29L497.58,80.12l.15,44h-37V8.94h41.8"/><path class="cls-1" d="M410.28,200c15.37,0,18.49-.24,21.76-1.66,11-4.8,11.63-19,1-25.27-2.32-1.38-5.3-1.61-22-1.7l-19.28-.1c.16.15-.06,27.57-.06,27.57s4.83,1.16,18.5,1.16"/><path class="cls-3" d="M399.83,191.67c0-2,0-4.29,0-6.56,0-2,0-4,0-5.84l11.19.06c6.43,0,16.1.09,18,.62a6.75,6.75,0,0,1,3.6,6.06,5.71,5.71,0,0,1-3.82,5c-1.75.76-4.54,1-18.57,1-4.45,0-7.88-.13-10.45-.29Z"/><path class="cls-1" d="M256.6,163.37c-.08.33-5.14,14.22-10.22,28.1s-10.26,28-10.33,28.11h0c.14,0,18.32-.08,30-.08,5.45,0,9.48,0,9.55,0h0c-.2-.53-18.91-55.49-19-56.16h0"/><path class="cls-3" d="M247.56,211.51c1.52-4.13,3.56-9.71,6.33-17.29l2.39-6.55,2.17,6.4c.65,1.91,3.48,10.27,5.92,17.43H247.56Z"/><path class="cls-1" d="M342.83,82.56l39.8-.05h0c.14,0-19.34-57.2-19.47-57.24h0c-.14,0-20.78,57.29-20.33,57.29"/><path class="cls-3" d="M353.94,74.55c2.47-7,5.9-16.66,9-25.31,2.95,8.64,6.21,18.24,8.59,25.29l-17.6,0h0Z"/><path class="cls-1" d="M497,60.71H516.7c19.14,0,19.74-.06,22.47-2.11,4.88-3.66,6.61-7.43,6.09-13.22-.53-6-2.83-9.08-8.6-11.58-3.25-1.42-6.38-1.65-21.72-1.65H497V60.71"/><path class="cls-3" d="M505,40.15h9.91c14,0,16.81.23,18.52,1,3.25,1.41,3.58,2.09,3.84,5s-.1,4-2.92,6.11l-.22.17c-1.86.35-8.79.35-17.45.35H505V40.15Z"/></g></g></svg>