<svg xmlns="http://www.w3.org/2000/svg" viewBox="0 0 190.01 89.38"><defs><style>.cls-1{fill:#bdbdbd;}.cls-2{fill:#424242;}.cls-3,.cls-4{fill:#212121;}.cls-3{opacity:0.25;}.cls-4{opacity:0.2;}</style></defs><title>starwars-yoda</title><g id="Layer_2" data-name="Layer 2"><g id="Layer_1-2" data-name="Layer 1"><g id="Yoda"><g id="clothes1"><path class="cls-1" d="M377.78,300.77v3.87a32.25,32.25,0,1,1-64.51,0v-3.87a95,95,0,0,0-62.75,89.38h190A95,95,0,0,0,377.78,300.77Z" transform="translate(-250.52 -300.77)"/><path class="cls-1" d="M298.7,307.48a95,95,0,0,0-48.18,82.68h70.56Z" transform="translate(-250.52 -300.77)"/><path class="cls-1" d="M392.34,307.48a95,95,0,0,1,48.18,82.68H370Z" transform="translate(-250.52 -300.77)"/><path class="cls-2" d="M400.5,312.67a94.75,94.75,0,0,0-22.72-11.9v3.87a32.25,32.25,0,0,1-64.51,0v-3.87a94.75,94.75,0,0,0-22.72,11.9c-24.22,17.22,9.79,77.48,9.79,77.48h90.38S424.72,329.89,400.5,312.67Z" transform="translate(-250.52 -300.77)"/><path class="cls-3" d="M431.19,349.09a94.91,94.91,0,0,0-5.51-9.86v-.06c-.4-.63-.82-1.24-1.24-1.85l-.26-.4c-.94-1.39-1.91-2.77-2.92-4.1v0a95.17,95.17,0,0,0-43.49-32.07v3.87a32.25,32.25,0,1,1-64.51,0v-3.87a95.17,95.17,0,0,0-43.49,32.07v0c-1,1.34-2,2.71-2.92,4.1l-.26.4c-.41.62-.84,1.23-1.24,1.85v.06a94.91,94.91,0,0,0-5.51,9.86c2.37,1.3,4.87,2.54,7.46,3.74l5.35,37.33H278l-5-34.88c19.84,8,45.06,12.78,72.52,12.78s52.68-4.79,72.52-12.78l-5,34.88h5.33l5.35-37.33C426.33,351.63,428.83,350.39,431.19,349.09Z" transform="translate(-250.52 -300.77)"/><path class="cls-1" d="M298.7,307.48c-11.49,6.52-18.85,10.34-29.68,20.1l.75,5.23L278,390.16h43.09Z" transform="translate(-250.52 -300.77)"/><path class="cls-1" d="M392.34,307.48,370,390.16H413l8.22-57.34.75-5.23C411.2,317.82,403.83,314,392.34,307.48Z" transform="translate(-250.52 -300.77)"/><path class="cls-4" d="M392.34,307.48a94.54,94.54,0,0,0-14.56-6.7v3.87a32.25,32.25,0,0,1-64.51,0v-3.87a94.54,94.54,0,0,0-14.56,6.7h0c-11.49,6.52-18.85,10.34-29.68,20.1l.75,5.23,2.39,16.64c20,8.2,45.51,13.12,73.36,13.12s53.4-4.92,73.36-13.12l2.39-16.64.75-5.23c-10.82-9.76-18.19-13.58-29.68-20.1Z" transform="translate(-250.52 -300.77)"/></g></g></g></g></svg>