<svg xmlns="http://www.w3.org/2000/svg" viewBox="0 0 888.84 505.51"><defs><style>.cls-1{fill:#e0e0e0;}.cls-2,.cls-32{fill:#eee;}.cls-3{fill:#283593;}.cls-17,.cls-19,.cls-20,.cls-23,.cls-25,.cls-4,.cls-5,.cls-6{fill:none;}.cls-4{stroke:#616161;}.cls-13,.cls-17,.cls-19,.cls-20,.cls-22,.cls-23,.cls-25,.cls-4,.cls-5,.cls-6{stroke-miterlimit:10;}.cls-17,.cls-19,.cls-25,.cls-4,.cls-5,.cls-6{stroke-width:3px;}.cls-5{stroke:#424242;}.cls-6{stroke:#fafafa;}.cls-7{fill:#757575;}.cls-8{fill:#616161;}.cls-31,.cls-9{fill:#bdbdbd;}.cls-10{fill:#212121;}.cls-11,.cls-24{fill:#5c6bc0;}.cls-12,.cls-13,.cls-22{fill:#1a237e;}.cls-13,.cls-22{stroke:#1a237e;}.cls-14{opacity:0.14;}.cls-15{fill:#7986cb;}.cls-16{fill:#fafafa;}.cls-17,.cls-19{stroke:#bdbdbd;}.cls-18{fill:#fff;opacity:0.31;}.cls-19{stroke-linecap:round;}.cls-20,.cls-25{stroke:#fff;}.cls-20{stroke-width:2px;}.cls-21{fill:#3949ab;}.cls-22,.cls-23{stroke-width:5.51px;}.cls-23{stroke:#3949ab;}.cls-24{opacity:0.39;}.cls-26{opacity:0.2;}.cls-27,.cls-31{opacity:0.3;}.cls-28{fill:#303f9f;}.cls-29{opacity:0.5;}.cls-30{fill:#424242;}.cls-32{opacity:0.4;}</style></defs><title>starwars-r2-d2</title><g id="Layer_2" data-name="Layer 2"><g id="Layer_1-2" data-name="Layer 1"><g id="R2-D2"><rect class="cls-1" x="138.17" y="371.35" width="306.58" height="134.16"/><rect class="cls-1" x="444.75" y="371.35" width="305.93" height="134.16"/><path class="cls-1" d="M193.22,505.51c-37.18-51.16-59.1-127.13-59.1-195.21C134.12,138.93,273,0,444.42,0s310.3,138.93,310.3,310.3c0,68.08-21.93,144-59.1,195.21Z"/><path class="cls-2" d="M444.26,6.37a293.3,293.3,0,0,0-232,113.48c4.64-2.46,9.31-4.87,14-7.14,20.54-9.86,73.5-32.31,161.14-32.31,21,0,41.85-2.66,62.89-2.79s64.21.48,85.18,2.08c53.41,4.09,84.68,14.19,134.81,32.87A293.21,293.21,0,0,0,444.26,6.37Z"/><path class="cls-3" d="M752.33,352.86a313.35,313.35,0,0,0,2.39-38.71H134.12a313.35,313.35,0,0,0,2.39,38.71Z"/><line class="cls-4" x1="754.73" y1="309.15" x2="134.12" y2="309.15"/><line class="cls-5" x1="752.33" y1="352.86" x2="136.51" y2="352.86"/><line class="cls-6" x1="754.73" y1="315.15" x2="134.12" y2="315.15"/><path class="cls-3" d="M754.45,301.07h0c-.06-1.38-.06-2.77,0-4.15a308.92,308.92,0,0,0-22-102.27h-.14c0-2.66-6.77-5.21-19.11-7.55a338.74,338.74,0,0,1,22.66,114Z"/><path class="cls-3" d="M156.39,194.65h0A308.75,308.75,0,0,0,134.66,292c-.06,3-.14,6.06-.26,9.11h61.54a391.14,391.14,0,0,1,21-119.32C179.1,185.31,158.31,190.41,156.39,194.65Z"/><path class="cls-3" d="M316.94,301.07c.49-44.14,4.53-86.76,11.76-125.69-19.62.63-38.08,1.42-55.11,2.34-11.46,37.47-18.22,79.24-19,123.36Z"/><path class="cls-3" d="M232.51,180.41A375,375,0,0,0,210,301.07h30.47c.78-42.92,7-84.4,18.15-122.49C249.4,179.15,240.68,179.76,232.51,180.41Z"/><path class="cls-3" d="M697,184.55c-7.37-1-15.79-1.92-25.14-2.8a391.14,391.14,0,0,1,21,119.32h28.88a324.71,324.71,0,0,0-21.75-109Q698.58,188.27,697,184.55Z"/><path class="cls-3" d="M338.18,204.46a751.06,751.06,0,0,0-7.17,96.6h61.59c.14-33.68,1.05-66.45,2.67-97.36C375.62,203.87,356.54,204.12,338.18,204.46Z"/><path class="cls-3" d="M557.84,301.07a751,751,0,0,0-7.18-96.67c-32.87-.59-67.91-.89-104.31-.89q-18.77,0-37,.11c-1.64,30.93-2.56,63.75-2.7,97.46Z"/><circle class="cls-7" cx="508.57" cy="252.39" r="30.47"/><circle class="cls-7" cx="508.57" cy="252.39" r="21.98"/><path class="cls-8" d="M530.55,253.18V254l0,.93a6.76,6.76,0,0,1-.06,1.26l-.17,1.58-.37,1.83c-.15.65-.39,1.32-.61,2s-.6,1.43-.92,2.19-.8,1.5-1.28,2.26a21,21,0,0,1-1.67,2.23,21.45,21.45,0,0,1-4.48,4,22.92,22.92,0,0,1-5.83,2.81,25,25,0,0,1-6.68,1,25.22,25.22,0,0,1-6.58-1,22.81,22.81,0,0,1-5.84-2.81,22.94,22.94,0,0,1-6.15-6.26c-.48-.76-.89-1.53-1.28-2.26s-.69-1.48-.92-2.19-.46-1.4-.61-2l-.37-1.83-.17-1.57a6.81,6.81,0,0,1-.06-1.27l0-.94,0-.78.09.77a20.13,20.13,0,0,0,.32,2.16l.32,1.51.55,1.73c.21.61.51,1.23.78,1.9s.68,1.31,1,2,.86,1.36,1.37,2a22.78,22.78,0,0,0,6,5.55,21.62,21.62,0,0,0,11.55,3.31,23.39,23.39,0,0,0,6-.87,23,23,0,0,0,5.43-2.44,22.22,22.22,0,0,0,4.33-3.56,22.6,22.6,0,0,0,1.69-2c.5-.68.94-1.37,1.36-2s.75-1.36,1-2,.58-1.29.78-1.9l.54-1.73.32-1.51a20,20,0,0,0,.32-2.16Z"/><path class="cls-9" d="M486.58,253.18v-.78l0-.93a6.76,6.76,0,0,1,.06-1.26l.17-1.58.37-1.83c.15-.65.39-1.32.61-2s.6-1.43.92-2.19.8-1.5,1.28-2.26a21,21,0,0,1,1.67-2.23,21.45,21.45,0,0,1,4.48-4,22.92,22.92,0,0,1,5.83-2.81,25,25,0,0,1,6.68-1,25.22,25.22,0,0,1,6.58,1A22.81,22.81,0,0,1,521,234a22.94,22.94,0,0,1,6.15,6.26c.48.76.89,1.53,1.28,2.26s.69,1.48.92,2.19.46,1.4.61,2l.37,1.83.17,1.57a6.81,6.81,0,0,1,.06,1.27l0,.94,0,.78-.09-.77a20.14,20.14,0,0,0-.32-2.16l-.32-1.51-.54-1.73c-.21-.61-.51-1.23-.78-1.9s-.68-1.31-1-2-.86-1.36-1.37-2a22.78,22.78,0,0,0-6-5.55,21.62,21.62,0,0,0-11.55-3.31,23.39,23.39,0,0,0-6,.87,23,23,0,0,0-5.43,2.44,22.22,22.22,0,0,0-4.33,3.56,22.6,22.6,0,0,0-1.69,2c-.5.68-.94,1.37-1.36,2s-.75,1.36-1,2-.58,1.29-.78,1.9l-.54,1.73-.32,1.51a20,20,0,0,0-.32,2.16Z"/><path class="cls-10" d="M508.57,224.57A30.47,30.47,0,0,1,539,253.71c0-.44,0-.88,0-1.33a30.47,30.47,0,1,0-60.94,0c0,.44,0,.89,0,1.33A30.47,30.47,0,0,1,508.57,224.57Z"/><circle class="cls-3" cx="441.94" cy="253.71" r="24.48"/><path class="cls-11" d="M466.41,253.71l0,.86,0,1a8.16,8.16,0,0,1-.11,1.4c-.07.52-.13,1.11-.23,1.74l-.47,2c-.18.71-.47,1.45-.73,2.24s-.7,1.55-1.06,2.39-.91,1.62-1.46,2.44a24.52,24.52,0,0,1-1.86,2.41,23.51,23.51,0,0,1-4.94,4.35,26,26,0,0,1-6.37,3,24.15,24.15,0,0,1-14.41,0,26,26,0,0,1-6.37-3,23.47,23.47,0,0,1-4.94-4.35,24.53,24.53,0,0,1-1.86-2.41c-.54-.82-1-1.65-1.46-2.44s-.79-1.6-1.07-2.39-.55-1.52-.73-2.24l-.47-2c-.1-.63-.16-1.21-.23-1.73a8.18,8.18,0,0,1-.11-1.4l0-1,0-.86.07.86a20.13,20.13,0,0,0,.27,2.42l.31,1.7.55,2c.21.69.53,1.4.82,2.16s.73,1.5,1.12,2.3.94,1.56,1.49,2.34a23.84,23.84,0,0,0,1.88,2.29,24.51,24.51,0,0,0,11,6.95,24.7,24.7,0,0,0,13.87,0,24.52,24.52,0,0,0,11-6.95,23.83,23.83,0,0,0,1.88-2.29c.55-.78,1-1.58,1.49-2.34s.81-1.55,1.12-2.3.61-1.47.82-2.16l.55-2,.31-1.7a20.11,20.11,0,0,0,.27-2.42Z"/><path class="cls-12" d="M441.94,230.48a24.47,24.47,0,0,1,24.46,23.85c0-.21,0-.42,0-.63a24.48,24.48,0,1,0-49,0c0,.21,0,.42,0,.63A24.47,24.47,0,0,1,441.94,230.48Z"/><circle class="cls-13" cx="441.94" cy="253.71" r="17.06"/><path class="cls-14" d="M424.88,253.71A17,17,0,1,1,438,270.33,17.06,17.06,0,0,1,424.88,253.71Z"/><path class="cls-11" d="M437.91,270.81l-.94-.28a9.1,9.1,0,0,1-1.09-.39,11.37,11.37,0,0,1-1.38-.61,14,14,0,0,1-1.54-.87,18.71,18.71,0,0,1-1.61-1.14,18.15,18.15,0,0,1-1.55-1.42,16.14,16.14,0,0,1-2.61-3.44,15.57,15.57,0,0,1-1.59-3.7l-.25-.87-.16-.83a11.72,11.72,0,0,1-.21-1.45,7.82,7.82,0,0,1-.08-1.13l0-1,.06,1a7.78,7.78,0,0,0,.13,1.12,11.6,11.6,0,0,0,.27,1.43l.2.81.28.84a15.25,15.25,0,0,0,1.72,3.56,17.66,17.66,0,0,0,1.23,1.7,18.31,18.31,0,0,0,3,2.82,18,18,0,0,0,1.59,1,13.18,13.18,0,0,0,1.51.76,10.55,10.55,0,0,0,1.32.52,8.21,8.21,0,0,0,1,.32l1,.24Z"/><path class="cls-11" d="M459,253.71l0,1a7.82,7.82,0,0,1-.08,1.12,11.73,11.73,0,0,1-.21,1.44l-.16.82-.24.86a17.65,17.65,0,0,1-2.74,5.47,17.89,17.89,0,0,1-1.4,1.63,18.1,18.1,0,0,1-1.53,1.42,18.72,18.72,0,0,1-1.59,1.14,14,14,0,0,1-1.52.87,11.37,11.37,0,0,1-1.35.62,9,9,0,0,1-1.08.4l-1,.3-.24-1,.91-.24a8.24,8.24,0,0,0,1-.33,10.6,10.6,0,0,0,1.31-.53,13.23,13.23,0,0,0,1.49-.77,18,18,0,0,0,1.57-1,16.43,16.43,0,0,0,4.17-4.51,15.26,15.26,0,0,0,1.69-3.53l.28-.84.19-.8a11.61,11.61,0,0,0,.27-1.42,7.78,7.78,0,0,0,.12-1.11Z"/><rect class="cls-3" x="438.04" y="236.65" width="7.96" height="35.3"/><path class="cls-15" d="M440,0A308.77,308.77,0,0,0,271.83,52.39c22.49-11.08,90.95-19.16,172-19.2C441.7,8,439.91,1.25,439.42.26,439.52.48,439.73.35,440,0Z"/><path class="cls-15" d="M456.88,23.64q.48,4.46.94,9.63c75.39.83,137.9,8.63,159.2,19.12A308.71,308.71,0,0,0,452.84.13a36.18,36.18,0,0,1,1.28,4.66A184.87,184.87,0,0,1,456.88,23.64Z"/><path class="cls-16" d="M619,54.56l-.87-.53c-.29-.17-.64-.41-1.07-.64l-1.53-.78A71.09,71.09,0,0,0,605,48.74c-4.65-1.37-10.39-2.72-17-4s-14.18-2.38-22.42-3.47-17.21-2-26.7-2.83-19.53-1.44-29.9-2c-20.76-1.15-43-1.71-65.12-1.64-11.11,0-22.18.09-33.1.36s-21.65.7-32,1.28-20.41,1.24-29.9,2-18.46,1.76-26.7,2.83-15.78,2.23-22.42,3.47-12.37,2.6-17,4A71.12,71.12,0,0,0,272.1,52.6l-1.53.78c-.44.23-.78.47-1.07.64l-.87.53.85-.57c.28-.18.62-.43,1-.69l1.5-.85a65.82,65.82,0,0,1,10.45-4.28c9.26-3,22.87-6.13,39.38-8.55,8.25-1.23,17.22-2.35,26.73-3.33s19.55-1.85,30-2.46,21.17-1.14,32.1-1.48,22.07-.53,33.17-.56c22.25.07,44.47.76,65.28,2,10.41.61,20.45,1.49,30,2.47s18.48,2.11,26.73,3.33c16.51,2.42,30.12,5.52,39.38,8.54a65.85,65.85,0,0,1,10.45,4.28l1.5.85c.43.25.76.5,1,.68Z"/><rect class="cls-7" x="136.51" y="355.73" width="615.31" height="33.1"/><line class="cls-17" x1="752.33" y1="355.73" x2="136.51" y2="355.73"/><path class="cls-18" d="M222,484.18v21.32H196.74c0-8.8-.35-17.31-1-25.38a2,2,0,0,1,2.13-2.15c6.81.49,14.21.94,19.48,1.27A5,5,0,0,1,222,484.18ZM598.84,304.66H166.54c-.06-.43-.09-.64-.09-.64a3,3,0,0,1,2.95-2.95h26.53c0-61.09,22.8-122.49,22.8-122.49L199.45,181a3.32,3.32,0,0,1-3.39-4.75c24.22-49.82,63.49-98,118.45-128.44,8.56-1.05,17.81-2,27.59-2.83,10.22-.86,21-1.55,32.2-2.16s22.74-1,34.49-1.31,23.68-.45,35.63-.43,23.88.12,35.63.43,23.31.71,34.49,1.31,22,1.3,32.2,2.16c9.78.84,19,1.78,27.6,2.83,52.79,29.26,91.1,74.86,115.5,122.57a6.7,6.7,0,0,1-6.65,9.71c-4.19-.43-8.51-.85-12.55-1.23,11.14,32.12,19.74,89.6,22.26,125.85-.51-.78-22,.71-22.6,0-3.31-7.12-11.57-45.86-16-52.39-5.74-8.46,12.47-5.89,4.43-12-13.85-10.48-33.5-21.68-50.66-12.46-1.45.78,43.78-27.15,42.67-26-17-11.55-31.67-8.5-38-6.34-26.9,9.16-31.83,43-30.17,50.34C590,278.35,594.92,290.41,598.84,304.66Zm-358.37-3.59c-.38-67.41,19.79-126.31,19.79-126.31s-22.5,2.07-29.42,2.66C210,225.49,208,301.07,208,301.07Zm76.47,0c.11-68.66,12.45-129.28,12.45-129.28l-58,2.39c-19.65,66.58-19.65,126.89-19.65,126.89Zm244.43,0a833.83,833.83,0,0,0-5.69-88.91h2.16L559.79,172l-218.87,1,2.57,27.42-7.86.1S331,238.21,330,250.78s-2.2,50.28-2.2,50.28H395.6l2.58-88.91H405c-1.3,28.08-2.13,59.52-2.26,88.91ZM374.09,38.28c11.21-.71,22.8-1.32,34.59-1.66s23.78-.55,35.74-.57,24,.21,35.74.57,23.38.95,34.59,1.66,22,1.64,32.27,2.7c7.44.76,14.56,1.63,21.31,2.57C533.24,25.31,492,14.21,444.42,14.21S355.6,25.3,320.5,43.55c6.75-.94,13.88-1.81,21.32-2.58C352.07,39.92,362.89,39,374.09,38.28ZM690.95,478c-7.21.52-15.08,1-20.38,1.32a4,4,0,0,0-3.72,4v22.25h25.22c0-8.8.35-17.31,1-25.37A2,2,0,0,0,690.95,478ZM232.67,465c-9.51-.53-26.09-1.45-36.44-2.11a2,2,0,0,0-2.1,2.28q.38,2.74.7,5.57c12.56,1,27.7,2,27.88,2l3.28.2v32.55h10.62V469.2A4.18,4.18,0,0,0,232.67,465ZM167.61,315.15c.53,4.86,1.25,11.52,1.83,24.69a8.91,8.91,0,0,0,8.9,8.51H710.48a8.91,8.91,0,0,0,8.9-8.51c.59-13.18,1.32-19.84,1.85-24.7Zm526.68-14.08a20.8,20.8,0,0,1-1.46,3.59h29.57v-3.59Zm-523.95,77a7.37,7.37,0,0,0,7.36,7.29H711.11a7.37,7.37,0,0,0,7.36-7.29c.1-9.82.27-16.66.49-23.91H169.86C170.07,361.42,170.24,368.25,170.34,378.07Zm522.25,84.84c-10.12.65-26.17,1.54-35.76,2.07a4.87,4.87,0,0,0-4.6,4.86v35.66h10.62V473l3.28-.2c.18,0,15.3-.95,27.85-2q.33-2.83.7-5.57A2,2,0,0,0,692.59,462.91Zm-67.43,28V397.66a5,5,0,0,0-5-5H268.69a5,5,0,0,0-5,5v93.27c52.61,3.1,115,4.73,180.74,4.73S572.55,494,625.16,490.93Zm6,14.58h-6v-5.57c-52.65,3.09-115,4.72-180.74,4.72S316.33,503,263.69,499.94v5.57h-6V392.66H170.42c0,3.77,0,7.7,0,11.83v8.36c9.31,0,17.49,17.09,22.16,42.81,13,.92,45.36,2.77,45.7,2.79l3.3.19v46.87H647.23V458.64l3.3-.19c.34,0,32.62-1.87,45.68-2.79,4.68-25.74,12.87-42.81,22.19-42.81v-8.35c0-4.13,0-8.06,0-11.83H631.16Z"/><path class="cls-9" d="M337.12,200.71l-.68,4.28c-.43,2.73-1,6.61-1.68,11.29-1.34,9.35-2.87,21.87-4,34.42s-2,25.14-2.39,34.6c-.22,4.73-.37,8.67-.45,11.43l-.13,4.34v-4.34c0-2.76,0-6.71.11-11.44.14-9.47.56-22.09,1.36-34.7s1.95-25.2,3-34.62c.51-4.71,1-8.65,1.35-11.38l.55-4.3a1.5,1.5,0,0,1,3,.38Z"/><path class="cls-19" d="M398.55,199.7c-21.65.17-42.67.44-62.92.8"/><path class="cls-9" d="M395.6,301.07l-.11-15.85c0-9.51,0-22.19.19-34.88s.49-25.37.8-34.88l.56-15.85,3,.16-1,15.8c-.59,9.48-1.28,22.14-1.83,34.8s-1,25.33-1.22,34.84Z"/><path class="cls-9" d="M272.84,174.62l-1.69,5.27c-.55,1.68-1.17,3.72-1.87,6.05l-1.12,3.73L267,193.83c-.84,2.89-1.63,6.06-2.5,9.4-.45,1.67-.82,3.4-1.25,5.16s-.87,3.56-1.25,5.4l-1.21,5.61-1.14,5.77c-.4,1.94-.73,3.9-1.08,5.88s-.71,3.95-1,5.94l-.93,6-.81,5.92c-.28,2-.49,3.91-.73,5.84s-.47,3.83-.65,5.71c-.38,3.75-.75,7.38-1,10.83s-.52,6.71-.72,9.72-.34,5.78-.47,8.23-.22,4.59-.29,6.35l-.21,5.53.08-5.54c0-1.76.06-3.9.14-6.36s.13-5.22.28-8.24.27-6.29.5-9.75.47-7.1.77-10.87c.13-1.89.34-3.8.52-5.73s.35-3.9.59-5.87l.67-6,.79-6c.25-2,.57-4,.87-6s.59-4,.94-5.92l1-5.82,1.09-5.66c.34-1.86.75-3.68,1.13-5.46s.73-3.53,1.14-5.22c.79-3.38,1.52-6.58,2.29-9.51l1.07-4.21,1-3.79c.65-2.38,1.22-4.45,1.74-6.14l1.57-5.31a1.5,1.5,0,0,1,2.88.85Z"/><path class="cls-17" d="M329.38,171.78c-22,.68-38.89,1.4-58,2.39"/><path class="cls-17" d="M230.84,177.41c10.12-.8,18.32-2,29.42-2.66"/><path class="cls-9" d="M232.25,177.92,230.36,183c-.61,1.62-1.32,3.59-2.09,5.85s-1.68,4.81-2.57,7.62l-1.41,4.38-1.42,4.72c-.5,1.62-1,3.29-1.44,5s-1,3.46-1.43,5.24c-.9,3.58-1.85,7.27-2.67,11.06-.44,1.89-.86,3.8-1.23,5.72s-.81,3.85-1.15,5.79l-1,5.81L213,250c-.32,1.91-.57,3.82-.83,5.71s-.54,3.74-.74,5.58c-.44,3.67-.86,7.22-1.18,10.6s-.62,6.57-.87,9.52-.42,5.66-.6,8.06-.3,4.49-.39,6.22l-.31,5.42.18-5.43c.05-1.73.12-3.82.25-6.23s.21-5.12.41-8.07.36-6.16.64-9.54.58-7,.93-10.64c.16-1.85.4-3.71.61-5.61s.42-3.81.7-5.74l.79-5.82.91-5.86c.3-2,.68-3.9,1-5.84s.7-3.87,1.1-5.78c.74-3.83,1.6-7.56,2.42-11.18.42-1.81.89-3.57,1.31-5.31s.86-3.43,1.33-5.07l1.31-4.78,1.32-4.44c.83-2.85,1.67-5.45,2.41-7.75s1.39-4.31,2-5.93l1.77-5.13a1.5,1.5,0,1,1,2.84,1Z"/><path class="cls-9" d="M218.88,180.07s-4,.27-10,.81-13.91,1.4-21.8,2.63a151.15,151.15,0,0,0-21.44,4.65A30.5,30.5,0,0,0,159,191a6,6,0,0,0-1.55,1.28,3.09,3.09,0,0,0-.38.6,3.11,3.11,0,0,1,.36-.62,6,6,0,0,1,1.51-1.37,30.76,30.76,0,0,1,6.56-3.15A152,152,0,0,1,186.86,182c7.87-1.61,15.81-2.84,21.78-3.67s10-1.28,10-1.28Z"/><path class="cls-9" d="M407.1,200.11s-1.73,25.2-2.8,50.44c-.55,12.62-1,25.25-1.2,34.72l-.36,15.79-.11-15.8c0-9.48,0-22.12.17-34.76.31-25.28,1.3-50.55,1.3-50.55h0a1.5,1.5,0,1,1,3,.12Z"/><path class="cls-19" d="M554.19,200.87c-34.57-.63-71.41-1-109.69-1q-19.73,0-38.89.11"/><path class="cls-9" d="M561.36,301.07l-.13-4.32c-.08-2.75-.21-6.67-.41-11.38-.39-9.41-1.09-22-2.16-34.47s-2.48-25-3.73-34.3c-.61-4.66-1.18-8.54-1.59-11.26l-.64-4.26h0a1.5,1.5,0,1,1,3-.45v0l.52,4.3c.32,2.73.78,6.64,1.25,11.34,1,9.39,2,21.93,2.72,34.5s1,25.13,1.13,34.56c.06,4.71.08,8.64.07,11.39S561.36,301.07,561.36,301.07Z"/><path class="cls-9" d="M723.67,301.07l-.36-7.67-.51-7.66c-.22-2.55-.4-5.1-.66-7.64s-.49-5.09-.82-7.62-.6-5.08-1-7.6-.72-5.06-1.17-7.57-.85-5-1.35-7.54l-.73-3.76-.81-3.74c-.52-2.5-1.13-5-1.73-7.46s-1.28-4.94-1.92-7.41-1.42-4.9-2.12-7.35-1.54-4.86-2.31-7.29l-2.5-7.23-2.7-7.16c-1-2.36-1.89-4.75-2.87-7.07l-3.05-7,1,.74c-9.15-1.07-18.33-1.92-27.52-2.66l.27-3c9.2.92,18.39,2,27.56,3.21l.71.1.26.65,2.91,7.1c1,2.41,1.84,4.8,2.76,7.2l2.57,7.26,2.37,7.33c.72,2.46,1.49,4.91,2.18,7.38s1.38,4.94,2,7.44,1.26,5,1.78,7.48,1.12,5,1.59,7.53l.74,3.77.66,3.79c.45,2.52.84,5.06,1.2,7.59s.7,5.08,1,7.62.56,5.09.84,7.64.44,5.1.67,7.65.34,5.11.51,7.66l.35,7.67Z"/><path class="cls-9" d="M711.56,183.41h.29a4.23,4.23,0,0,1,.49,0l.45.08c.64.13,1.49.35,2.49.64,2,.58,4.6,1.47,7.14,2.5a39.76,39.76,0,0,1,6.76,3.36,8.66,8.66,0,0,1,1.9,1.61,2.73,2.73,0,0,1,.38.58l.1.22-.13-.21a2.66,2.66,0,0,0-.44-.51,8.4,8.4,0,0,0-2-1.29,38.88,38.88,0,0,0-7-2.34c-2.61-.66-5.25-1.16-7.22-1.45-1-.15-1.8-.24-2.33-.27h-.34c-.12,0-.06,0-.09,0l-.19,0Z"/><path class="cls-17" d="M150.24,505.51V455.27s15.5,2.76,42.51,4.76c11.89.88,47.39,2.91,47.39,2.91v42.56"/><path class="cls-17" d="M158.25,505.51V471s18.52,2.39,31.49,3.64c13.24,1.28,34.78,2.61,34.78,2.61v28.26"/><path class="cls-17" d="M738.6,505.51V455.27S723.1,458,696.09,460c-11.89.88-47.39,2.91-47.39,2.91v42.56"/><path class="cls-17" d="M730.6,505.51V471s-18.52,2.39-31.49,3.64c-13.24,1.28-34.78,2.61-34.78,2.61v28.26"/><path class="cls-17" d="M630.16,495.63c-51.44,3.15-115.84,5-185.74,5s-134.3-1.87-185.74-5"/><path class="cls-20" d="M630.16,498.63c-51.44,3.15-115.84,5-185.74,5s-134.3-1.87-185.74-5"/><line class="cls-17" x1="258.69" y1="388.82" x2="258.69" y2="505.51"/><line class="cls-17" x1="630.16" y1="388.82" x2="630.16" y2="505.51"/><path class="cls-9" d="M633.11,63.94l-.94-.57c-.31-.18-.69-.44-1.16-.69l-1.65-.83A77.3,77.3,0,0,0,618,57.74c-5-1.45-11.19-2.89-18.34-4.2S584.37,51,575.49,49.9s-18.53-2.09-28.75-3-21-1.55-32.2-2.16-22.74-1-34.49-1.31S456.36,43,444.42,43s-23.87.12-35.63.43-23.31.71-34.49,1.31-22,1.3-32.2,2.16-19.87,1.86-28.75,3-17,2.33-24.15,3.64-13.33,2.75-18.34,4.2a77.35,77.35,0,0,0-11.38,4.11l-1.65.83c-.47.25-.84.5-1.16.68l-.94.57.91-.62c.3-.2.67-.47,1.12-.74l1.62-.92A70.28,70.28,0,0,1,270.63,57c10-3.3,24.63-6.69,42.4-9.37,8.89-1.36,18.55-2.61,28.79-3.67s21.06-2,32.27-2.7,22.8-1.32,34.59-1.66,23.78-.55,35.74-.57,24,.21,35.74.57,23.38.95,34.59,1.66,22,1.64,32.27,2.7,19.9,2.3,28.79,3.67c17.78,2.68,32.43,6.06,42.4,9.37a70.33,70.33,0,0,1,11.24,4.66l1.62.92c.46.27.82.55,1.12.74Z"/><path class="cls-21" d="M497.71,48.26l18.53.92A197.54,197.54,0,0,1,526.77,67l-1.39,4.33,3.74.13A290.11,290.11,0,0,1,547,113c1.56,4.46,2.82,8.33,4.06,12.08l-1.39,4.33h2.86c8.3,25.71,8.85,33.42,8.85,33.42H531.73Z"/><path class="cls-15" d="M517.23,94.86c9.51,1.27,23.37,1.84,23.62,1.8-3.77-9.13-8.09-18.34-11.72-25.23l-3.74-.13L526.77,67a197.54,197.54,0,0,0-10.54-17.79l-18.53-.92,13.54,45.59C513,93.08,515.22,94.59,517.23,94.86Z"/><polygon class="cls-12" points="561.36 162.83 559.78 172.02 533.3 172.02 531.73 162.83 561.36 162.83"/><polygon class="cls-12" points="524.13 124.35 551.04 125.07 549.65 129.41 525.19 128.92 524.13 124.35"/><polygon class="cls-21" points="505.77 66.41 526.77 66.97 525.39 71.31 507.56 70.95 505.77 66.41"/><path class="cls-21" d="M494.38,41.93c-16.93-.81-29-.9-47.71-.9-20.32,0-45.73.69-63.9,1.64-9,12.87-18.18,32.42-26.35,53.22-9.13,23.24-17.34,56.47-21.54,78.87,37.79-.69,163.73-1.38,198.75-.79-6.58-39.13-9.15-50.42-16.91-77C511.9,80.5,498.19,46.31,494.38,41.93Z"/><path class="cls-12" d="M533.63,174s-4.4-2-89.2-2c-103.11,0-109.54,2.74-109.54,2.74l6,11.19,103.51-1.31,86.55.53Z"/><path class="cls-15" d="M438,41.07l-7.17.07-1.18,0-7.34.12H422l-7.6.17h-.24l-7.5.22-.54,0c-7.7.25-16,.61-23.36,1,0,0-11.37,15.52-24.25,47.76,2.89.54,9.46-.29,26,.38,2.67.11,2.57-.33,3-3C390.56,67.34,411,50.5,442,50.5c27.58,0,48.64,17.64,49.13,38.08.07,2.88,1.52,3.06,3.59,2.7,3.41-.59,11.88-.32,20.18.17-8.18-25.57-17-43.15-20.55-49.52-16.49-.69-29.74-.9-47.71-.9l-7.5,0Z"/><path class="cls-22" d="M530.24,185.51c-.52,3.39-2.08,5.84-5.21,5.75-20.89-.57-88.37-1.63-116.86-1.3a4.48,4.48,0,0,1-4.54-4.49l-.89-3.28v-6.88l128.6,4.5Z"/><path class="cls-23" d="M402.74,172v3.3a4.48,4.48,0,0,0,4.54,4.49c28.49-.33,98.67,1.5,119.56,2.08a4.92,4.92,0,0,0,4.94-5.75l-.62-3.44"/><ellipse class="cls-21" cx="440.19" cy="89.04" rx="48.04" ry="36.03"/><ellipse class="cls-24" cx="440.19" cy="89.04" rx="48.04" ry="36.03"/><path class="cls-11" d="M452.51,97.18c5,0,30.74-1.35,35.73-1.39,2-4,0-2.22,0-6.75,0-19.9-21.51-36-48-36s-48,16.13-48,36c0,5.25-2.7,2.61,0,7.11C416.67,94.45,427.81,97.34,452.51,97.18Z"/><path class="cls-12" d="M440.19,57.84c25.45,0,46.27,14.84,47.92,33.62.07-.8.12-1.6.12-2.42,0-19.9-21.51-36-48-36s-48,16.13-48,36c0,.81,0,1.62.12,2.42C393.93,72.68,414.74,57.84,440.19,57.84Z"/><path class="cls-12" d="M399.5,96.25c0-17.29,18.22-31.3,40.7-31.3s40.7,14,40.7,31.3-18.22,29.62-40.7,29.62S399.5,113.53,399.5,96.25Z"/><path class="cls-10" d="M400.48,98.8c0-15.95,17.78-28.87,39.71-28.87s39.71,12.93,39.71,28.87-17.78,27.07-39.71,27.07S400.48,114.74,400.48,98.8Z"/><ellipse class="cls-8" cx="440.19" cy="97.89" rx="34.07" ry="26.46"/><path class="cls-10" d="M440.19,79.79c19.69,0,35.76,10.75,38.9,24.85a22.93,22.93,0,0,0,.81-4.93c0-16.45-13.71-29.78-39.71-29.78-26.34,0-39.71,13.33-39.71,29.78a22.93,22.93,0,0,0,.81,4.93C404.43,90.54,420.5,79.79,440.19,79.79Z"/><path class="cls-21" d="M440.19,50.5c-27.41,0-49.64,17-49.64,38.08s22.22,38.08,49.64,38.08,49.64-17,49.64-38.08S467.61,50.5,440.19,50.5Zm0,74.57c-26.53,0-48-16.13-48-36s21.51-36,48-36,48,16.13,48,36S466.73,125.07,440.19,125.07Z"/><path class="cls-11" d="M484.46,103.06l-.54,1a28.43,28.43,0,0,1-1.73,2.81,38.52,38.52,0,0,1-8.17,8.52,49.89,49.89,0,0,1-14.85,7.77,57.85,57.85,0,0,1-9.22,2.24,62.19,62.19,0,0,1-19.54,0,57.49,57.49,0,0,1-9.23-2.24,49.85,49.85,0,0,1-14.84-7.77,38.79,38.79,0,0,1-4.94-4.51,37.56,37.56,0,0,1-3.22-4,28.35,28.35,0,0,1-1.73-2.81l-.54-1,.64,1c.42.63,1.09,1.51,2,2.61a36.93,36.93,0,0,0,3.47,3.68,46.83,46.83,0,0,0,5.11,4.06,51.69,51.69,0,0,0,6.68,3.83,57.82,57.82,0,0,0,8,3.09,64.69,64.69,0,0,0,36.79,0,57.67,57.67,0,0,0,8-3.08,51.6,51.6,0,0,0,6.67-3.83,40.65,40.65,0,0,0,8.58-7.73c.88-1.09,1.55-2,2-2.61Z"/><rect class="cls-3" x="282.52" y="388.82" width="323.8" height="31.33"/><path class="cls-12" d="M606.32,420.16l-162.16.78-161.65-.78v-23.4s67.57,1,161.9,1c96.33,0,161.9-1,161.9-1Z"/><path class="cls-25" d="M606.32,420.16c-47,1.13-102.57.73-162.16.78-58.79,0-114,.41-161.65-.77"/><path class="cls-3" d="M406.66,478.28q-26,2-51.91,3.7-36.12-2.67-72.23-5.59,0-5.75,0-11.5t0-11.5q36.12-1.87,72.23-4,26,2.1,51.9,4.28,0,6.15,0,12.31T406.66,478.28Z"/><path class="cls-3" d="M606.32,476.39q-14.95.37-29.9.67l-18,4.49q-75.88,1.52-151.77,1,0-16.59,0-33.18H558.42q9,2.07,18,4.1l29.9-.1Q606.32,464.89,606.32,476.39Z"/><path class="cls-12" d="M354.76,449.39V482q26-1.69,51.91-3.7,0-12.31,0-24.62Q380.71,451.51,354.76,449.39Z"/><path class="cls-26" d="M354.76,449.39V482l9.17-4.64q0-11.59,0-23.18Z"/><path class="cls-27" d="M406.66,453.67q-21.37.26-42.74.49,0,11.59,0,23.18,21.37.53,42.74.94Q406.66,466,406.66,453.67Z"/><path class="cls-28" d="M354.75,482l9.17-4.64q21.37.53,42.74.94Q380.7,480.28,354.75,482Z"/><path class="cls-29" d="M354.76,449.39l9.17,4.78q21.37-.23,42.74-.49Q380.71,451.51,354.76,449.39Z"/><path class="cls-25" d="M282.52,476.39q36.11,3.68,72.23,7.26,26-1.59,51.91-3.5"/><path class="cls-25" d="M406.65,484.46q75.89.19,151.78-1.74,9-2.84,18-5.66,14.95-.3,29.9-.67"/><rect class="cls-7" x="105.42" y="444.93" width="32.74" height="60.58"/><rect class="cls-9" x="105.42" y="447.94" width="32.74" height="45.56"/><rect class="cls-1" x="105.42" y="455.27" width="32.74" height="24.11"/><path class="cls-1" d="M97.42,401.82H32v4H29v-4H8a8,8,0,0,0-8,8v95.69H105.42V409.82A8,8,0,0,0,97.42,401.82Z"/><path class="cls-18" d="M33.63,401.82H97.42a8,8,0,0,1,8,8v51.93a0,0,0,0,1,0,0H33.63a0,0,0,0,1,0,0V401.82A0,0,0,0,1,33.63,401.82Z"/><path class="cls-18" d="M29,401.83h-21a8,8,0,0,0-8,8v51.93H30.53v-56H29Z"/><line class="cls-17" x1="30.53" y1="405.78" x2="30.53" y2="505.51"/><rect class="cls-7" x="750.68" y="444.93" width="32.74" height="60.58" transform="translate(1534.1 950.44) rotate(-180)"/><rect class="cls-9" x="750.68" y="447.94" width="32.74" height="45.56" transform="translate(1534.1 941.44) rotate(-180)"/><rect class="cls-1" x="750.68" y="455.27" width="32.74" height="24.11" transform="translate(1534.1 934.65) rotate(-180)"/><path class="cls-1" d="M791.42,401.82h65.39v4h3v-4h21a8,8,0,0,1,8,8v95.69H783.42V409.82A8,8,0,0,1,791.42,401.82Z"/><path class="cls-18" d="M783.42,401.82h71.79a0,0,0,0,1,0,0v51.93a8,8,0,0,1-8,8H783.42a0,0,0,0,1,0,0V401.82A0,0,0,0,1,783.42,401.82Z" transform="translate(1638.64 863.58) rotate(-180)"/><path class="cls-18" d="M859.81,401.83h21a8,8,0,0,1,8,8v51.93H858.31v-56h1.5Z"/><line class="cls-17" x1="858.31" y1="405.78" x2="858.31" y2="505.51"/><line class="cls-5" x1="751.82" y1="388.82" x2="136.51" y2="388.82"/><ellipse class="cls-7" cx="626.42" cy="242.95" rx="40.91" ry="47.46"/><path class="cls-9" d="M661,217.66c-7.24-13.32-20-22.18-34.61-22.18s-27.37,8.85-34.61,22.18Z"/><path class="cls-8" d="M590.51,265.66c6.94,14.74,20.41,24.75,35.91,24.75s29-10,35.91-24.75Z"/><ellipse class="cls-7" cx="636.25" cy="242.95" rx="37.41" ry="43.4"/><polygon class="cls-9" points="640.25 198.26 649.54 202.37 649.54 242.95 640.25 242.95 640.25 198.26"/><polygon class="cls-7" points="640.25 287.63 649.54 283.52 649.54 242.95 640.25 242.95 640.25 287.63"/><ellipse class="cls-9" cx="636.25" cy="242.95" rx="37.41" ry="43.4"/><path class="cls-1" d="M598.84,242.95l0-1.43c0-.47,0-1,0-1.72s0-1.46.12-2.33a47.6,47.6,0,0,1,.9-6.24,45.18,45.18,0,0,1,7-16.43c.52-.7,1-1.43,1.58-2.12l.86-1.06.88-1a37.19,37.19,0,0,1,4-3.88,35.64,35.64,0,0,1,10.1-6,34.49,34.49,0,0,1,5.84-1.65,32.37,32.37,0,0,1,12.19,0,34.49,34.49,0,0,1,5.84,1.65,35.56,35.56,0,0,1,10.1,6,40.29,40.29,0,0,1,7.36,8.07,45.17,45.17,0,0,1,7,16.43,47.6,47.6,0,0,1,.89,6.24c.09.87.11,1.65.12,2.32s0,1.25,0,1.72l0,1.43-.09-1.43c0-.46-.06-1-.14-1.71s-.14-1.44-.27-2.3a49.21,49.21,0,0,0-3.95-13.68,46.86,46.86,0,0,0-4.78-8.16,41.23,41.23,0,0,0-7.26-7.57,35.2,35.2,0,0,0-9.67-5.52,32.54,32.54,0,0,0-5.51-1.53,32.38,32.38,0,0,0-11.48,0,32.54,32.54,0,0,0-5.51,1.53,35.11,35.11,0,0,0-9.67,5.52,41.16,41.16,0,0,0-7.26,7.57,46.81,46.81,0,0,0-4.78,8.17,49.16,49.16,0,0,0-3.94,13.68c-.13.86-.2,1.63-.27,2.3s-.12,1.24-.14,1.71Z"/><ellipse class="cls-8" cx="637.25" cy="242.95" rx="33.07" ry="38.38"/><path class="cls-8" d="M685.33,206.25H637.14c-17.47,0-31.62,16.43-31.62,36.7s14.16,36.7,31.62,36.7c.51,0,1,0,1.53,0h46.66Z"/><path class="cls-30" d="M610.47,262.66c5.62,10.21,15.46,17,26.67,17,.51,0,1,0,1.53,0h46.66V262.66Z"/><path class="cls-7" d="M622.86,275.66a28,28,0,0,0,14.28,4c.51,0,1,0,1.53,0h46.66v-3.94Z"/><path class="cls-9" d="M607,232h78.38V206.25H637.14C623,206.25,611,217.07,607,232Z"/><path class="cls-1" d="M685.33,218V206.25H637.14c-9.17,0-17.42,4.53-23.2,11.77Z"/><path class="cls-7" d="M690.54,242.95a45.29,45.29,0,0,0-2.89-16V203H656c-18.95.08-34.29,17.93-34.29,39.93S637,282.8,656,282.88h31.66V259A45.29,45.29,0,0,0,690.54,242.95Z"/><path class="cls-8" d="M622.81,253c3.83,17.15,17.23,29.82,33.19,29.89h31.66V259a44.32,44.32,0,0,0,1.78-6Z"/><ellipse class="cls-9" cx="687.78" cy="242.95" rx="34.42" ry="39.94"/><ellipse class="cls-7" cx="687.65" cy="242.95" rx="28.77" ry="33.38"/><path class="cls-8" d="M711.48,242.95c0-17.76-11.48-32.39-26.3-34.48-14.82,2.09-26.3,16.72-26.3,34.48s11.48,32.39,26.3,34.48C700,275.34,711.48,260.7,711.48,242.95Z"/><path class="cls-7" d="M688.82,208.2a26.08,26.08,0,0,0-3.64.27c14.82,2.09,26.3,16.72,26.3,34.48s-11.48,32.39-26.3,34.48a26.08,26.08,0,0,0,3.64.27c16.54,0,29.94-15.55,29.94-34.74S705.36,208.2,688.82,208.2Z"/><path class="cls-31" d="M711,249c-2.26,14.94-12.74,26.59-25.84,28.43a26.08,26.08,0,0,0,3.64.27c14.76,0,27-12.39,29.48-28.7Z"/><path class="cls-30" d="M706.92,242.95c0-17.16-12-31.07-26.78-31.07a23.31,23.31,0,0,0-6,.78c-9.13,5.95-15.3,17.28-15.3,30.29s6.17,24.34,15.3,30.29a23.31,23.31,0,0,0,6,.78C694.93,274,706.92,260.11,706.92,242.95Z"/><path class="cls-10" d="M675.33,218.41a18.78,18.78,0,0,0-9.88,2.84,39.1,39.1,0,0,0,0,43.39,18.78,18.78,0,0,0,9.88,2.84c11.68,0,21.15-11,21.15-24.54S687,218.41,675.33,218.41Z"/><path class="cls-32" d="M677.23,229.12c21.53-1.94,18-5.66,18.95-6.24-4.34-4.88-10.91-8.56-17.43-8.56a13.6,13.6,0,0,0-6.08,1.58c-5.25,3.21-7.2,6.69-9.62,11.63C663.83,227.9,674.7,229.35,677.23,229.12Z"/><path class="cls-32" d="M669.26,266.87a13.6,13.6,0,0,0,4.8,3.32,21,21,0,0,0,5.37.7,22.45,22.45,0,0,0,16.91-8C689.17,266.87,685.18,269.66,669.26,266.87Z"/><path class="cls-20" d="M151.92,457.66s52.25,7.23,85.75,7.23"/><path class="cls-20" d="M159.92,472.91s32.5,4.94,62.75,6.47"/><path class="cls-20" d="M736.51,457.66s-52.25,7.23-85.75,7.23"/><path class="cls-20" d="M728.51,472.91s-32.5,4.94-62.75,6.47"/></g></g></g></svg>