<svg xmlns="http://www.w3.org/2000/svg" viewBox="0 0 535.33 531.35"><defs><style>.cls-1,.cls-2{fill:#e0e0e0;}.cls-2,.cls-28,.cls-29,.cls-30{stroke:#757575;}.cls-13,.cls-14,.cls-2,.cls-24,.cls-25,.cls-28,.cls-29,.cls-30,.cls-34,.cls-35,.cls-36,.cls-7,.cls-9{stroke-miterlimit:10;}.cls-2{stroke-width:8px;}.cls-3{fill:#fb8c00;}.cls-33,.cls-4{fill:#757575;}.cls-23,.cls-5{opacity:0.3;}.cls-6{fill:#42a5f5;}.cls-18,.cls-7{fill:#616161;}.cls-13,.cls-14,.cls-35,.cls-7{stroke:#424242;}.cls-29,.cls-7,.cls-9{stroke-width:0.94px;}.cls-8{fill:#1976d2;}.cls-13,.cls-14,.cls-24,.cls-25,.cls-28,.cls-29,.cls-30,.cls-34,.cls-35,.cls-36,.cls-9{fill:none;}.cls-25,.cls-9{stroke:#ffe082;}.cls-10{fill:#eee;}.cls-11,.cls-16{fill:#bdbdbd;}.cls-12,.cls-15,.cls-22,.cls-23,.cls-32{fill:#fff;}.cls-12{opacity:0.5;}.cls-13{stroke-width:2.83px;}.cls-14,.cls-24,.cls-25,.cls-28{stroke-width:1.88px;}.cls-16{opacity:0.8;}.cls-17,.cls-20{fill:#424242;}.cls-19,.cls-21{fill:#212121;}.cls-20,.cls-21{opacity:0.62;}.cls-22{opacity:0.15;}.cls-24{stroke:#fff;}.cls-26{fill:#ffe082;}.cls-27{fill:#fafafa;}.cls-30{stroke-width:0.24px;}.cls-31{opacity:0.25;}.cls-32{opacity:0.28;}.cls-33{opacity:0.29;}.cls-34{stroke:#bdbdbd;}.cls-34,.cls-35,.cls-36{stroke-width:3.77px;}.cls-36{stroke:#000;opacity:0.2;}.cls-37{opacity:0.07;}.cls-38{opacity:0.02;}.cls-39{opacity:0.03;}.cls-40{opacity:0.05;}.cls-41{opacity:0.08;}</style></defs><title>starwars-bb-8</title><g id="Layer_2" data-name="Layer 2"><g id="Layer_1-2" data-name="Layer 1"><g id="BB-8"><path class="cls-1" d="M293.71,0a2,2,0,0,0-2,2V126a2,2,0,0,0,4,0V2A2,2,0,0,0,293.71,0Z"/><line class="cls-2" x1="293.71" y1="142.24" x2="293.71" y2="123.59"/><path class="cls-1" d="M260.68,12.6a3,3,0,0,0-6,0l-4.12,130.29c0,.14,0,.31,0,.45a7.12,7.12,0,0,0,14.24-.45Z"/><path class="cls-1" d="M17.82,531.35C82.36,480.7,170.5,449.5,267.68,449.5S453,480.7,517.54,531.35Z"/><path class="cls-3" d="M358.15,467.29s73.61,17.33,134.11,64.06h25.29c-35.59-27.93-78.37-49.93-125.87-64.06Z"/><path class="cls-4" d="M358.37,466.37l1.63.42c1.07.28,2.63.71,4.6,1.27s4.36,1.27,7.09,2.11,5.8,1.81,9.12,3,6.91,2.4,10.7,3.77,7.73,2.94,11.82,4.53l6.17,2.55,3.15,1.3,3.15,1.39,6.36,2.83c2.14.93,4.22,2,6.34,3l6.32,3,6.17,3.2c2,1.08,4.09,2.07,6.05,3.19l5.82,3.28c1.9,1.09,3.81,2.1,5.61,3.2l5.27,3.24,5,3.07c1.6,1,3.09,2.07,4.55,3,2.9,2,5.59,3.74,7.92,5.36l5.92,4.4,5.16,3.83-5.21-3.77-6-4.32c-2.36-1.59-5.06-3.33-8-5.26-1.47-1-3-2-4.58-3l-5-3-5.3-3.17c-1.81-1.08-3.73-2.06-5.64-3.13l-5.85-3.2c-2-1.09-4-2.06-6.08-3.11l-6.2-3.12-6.34-3c-2.12-1-4.22-2-6.36-2.91l-6.37-2.74-3.15-1.35L409,485.09l-6.19-2.47c-4.1-1.53-8-3-11.83-4.36s-7.37-2.57-10.7-3.62-6.4-2-9.11-2.84-5.11-1.48-7.07-2-3.52-.94-4.57-1.2l-1.63-.4Z"/><path class="cls-3" d="M169.87,467.29s-63.18,23.14-105,64.06H150c26.67-40.92,61.5-64.06,61.5-64.06Z"/><path class="cls-4" d="M170.2,468.17l-1.3.48c-.84.31-2.07.79-3.64,1.41s-3.46,1.41-5.64,2.29-4.61,1.94-7.25,3.14l-4.12,1.85-4.38,2.05c-3,1.38-6.13,3-9.38,4.57s-6.54,3.39-9.89,5.17l-5,2.79c-1.69.93-3.37,1.87-5,2.87-3.31,2-6.67,3.9-9.85,6l-4.77,3c-1.57,1-3.06,2.08-4.56,3.09l-4.4,3c-1.44,1-2.77,2-4.11,3-2.64,2-5.22,3.81-7.42,5.7l-6.12,5c-1.77,1.55-3.27,3-4.52,4.09l-3.93,3.58,3.88-3.64c1.24-1.15,2.72-2.58,4.47-4.16l6-5.12c2.18-1.93,4.73-3.77,7.35-5.82,1.33-1,2.65-2.09,4.07-3.1L95,506.42c1.49-1,3-2.15,4.53-3.17l4.73-3.11c3.16-2.14,6.49-4.11,9.78-6.15,1.64-1,3.32-2,5-3l5-2.87c3.34-1.84,6.63-3.65,9.84-5.34s6.34-3.3,9.34-4.73L147.6,476l4.11-1.92c2.63-1.25,5.08-2.29,7.23-3.26s4.06-1.76,5.63-2.39,2.81-1.15,3.66-1.48l1.3-.51Z"/><path class="cls-4" d="M150,531.35l2.13-3.19,2.44-3.67c.95-1.41,2.11-2.94,3.33-4.65l1.92-2.65c.66-.92,1.41-1.82,2.14-2.77,1.5-1.87,3-3.93,4.71-5.91l2.56-3.06c.86-1,1.75-2.08,2.67-3.09,1.84-2,3.66-4.17,5.62-6.17l2.88-3c1-1,2-2,2.93-2.95,1.93-2,3.9-3.82,5.81-5.62s3.81-3.48,5.59-5.1,3.52-3.08,5.15-4.4,3.11-2.56,4.45-3.61,2.53-2,3.51-2.7c2-1.47,3.14-2.27,3.14-2.27l1,1.57s-1.14.75-3.12,2.16c-1,.72-2.18,1.57-3.53,2.6s-2.87,2.18-4.49,3.49-3.36,2.75-5.21,4.27-3.74,3.19-5.66,5-3.94,3.56-5.9,5.47c-1,1-2,1.89-3,2.87l-2.93,3c-2,2-3.84,4-5.73,6-.95,1-1.85,2-2.73,3l-2.62,3c-1.75,1.94-3.28,4-4.82,5.79-.75.93-1.51,1.82-2.19,2.72l-2,2.6c-1.25,1.68-2.45,3.18-3.42,4.57l-2.52,3.61Z"/><path class="cls-5" d="M292.24,450.17q-12.08-.46-24.56-.48t-24.56.48c-64.21,3.5-123.78,20.65-174.28,47.87,27.11,3.27,106,14,199,14s171.61-10.76,198.72-14C416,470.82,356.45,453.68,292.24,450.17Z"/><path class="cls-1" d="M534.81,404.42c0-.93.05-1.89.05-2.91,0-147.56-119.62-267.18-267.18-267.18S.5,254,.5,401.51c0,1,0,2,.05,2.91H3.11v3.44H.75c1.32,16,26,18,26,37.22H508.2c0-19.69,25.1-21.44,26.41-37.22h-2.35v-3.44Z"/><path class="cls-3" d="M512.54,401.55A286,286,0,0,0,510,363.7q-3.78-.41-8.13-.81a316.41,316.41,0,0,1,2.37,38.66q0,1.44,0,2.87h12.51l-4.24,0Q512.54,403,512.54,401.55Z"/><path class="cls-3" d="M526.42,401.55A272.79,272.79,0,0,0,524,365.64q-2.31-.43-5.2-.84a294.85,294.85,0,0,1,2.31,36.75q0,1.44,0,2.87h8.7l-3.43,0Q526.42,403,526.42,401.55Z"/><path class="cls-3" d="M532.86,368.83c-.09-.44-.65-.88-1.62-1.31a280.07,280.07,0,0,1,2.07,34q0,1.44,0,2.87h1.55c0-.93,0-1.88,0-2.9A268.55,268.55,0,0,0,532.86,368.83Z"/><path class="cls-3" d="M494.78,404.46c0-.94,0-2,0-2.91a306.73,306.73,0,0,0-2.54-39.47q-4.18-.32-8.74-.64t-9.65-.62c-6.41-.39-13.26-.75-20.52-1.1.36,3.49.61,6.9.84,10.16.29,4.19.51,8.16.69,11.82.35,7.33.51,13.44.54,17.71,0,2.14,0,3.82,0,5v0Z"/><path class="cls-3" d="M443.73,390.57l-10.33.26c.09,3.55.14,7.15.14,10.71q0,1.42,0,2.84l4.51,0h5.82q0-1.43,0-2.87C443.87,397.9,443.82,394.21,443.73,390.57Z"/><path class="cls-3" d="M25.31,363.69C10.81,365.27,2.69,367,2.46,368.8c0,0-2.45,18.87-1.91,35.6H22.84q0-1.32,0-2.64A292.64,292.64,0,0,1,25.31,363.69Z"/><path class="cls-3" d="M43.08,362.08q-5.11.4-9.64.81a323.8,323.8,0,0,0-2.34,38.88q0,1.33,0,2.65h9.47q0-1.32,0-2.65A313.91,313.91,0,0,1,43.08,362.08Z"/><path class="cls-3" d="M131.64,401.55c0-14.9.62-29.51,1.81-43.75-32.27.92-60.06,2.18-81.64,3.65a350.76,350.76,0,0,0-2.31,40.32q0,1.33,0,2.66l82.14,0C131.65,402.93,131.64,403.08,131.64,401.55Z"/><path class="cls-6" d="M127.19,376.57c.2-4.14.29-7,.56-10.33-6.7.13-29.66,1.08-37.52,1.42-.41,3.19-.36,6.34-.64,10C89.59,377.64,104.88,377.19,127.19,376.57Z"/><path class="cls-7" d="M125.46,397.12c.11-3.29.07-5.7.19-9.22-6.26.12-27.77.11-35.12.42-.38,3-.21,5.41-.48,8.8C90.05,397.12,106.08,397,125.46,397.12Z"/><path class="cls-8" d="M127.52,369.69l.2-3.45c-6.72.13-30,1.1-37.56,1.42l-.57,9.15c.15,0,.66-5.72.82-5.73C98.47,370.74,121,369.82,127.52,369.69Z"/><path class="cls-9" d="M89.59,377.64s15.28-.45,37.6-1.07"/><path class="cls-3" d="M179,406.08c0-1.58,0-3,0-4.54,0-15,.49-30.45,1.24-44.83l-19.28.39c-.92,14.37-1.49,29.38-1.49,44.43q0,2.3,0,4.59Z"/><path class="cls-3" d="M210,205.67c-4.3.32-8.58.67-12.78,1.06C120,214,60.7,232.72,43.6,256q-1.11,1.71-2.2,3.44-4.27,6.79-8.15,13.84a32.93,32.93,0,0,1,5.63-6.79c21.18-20,79.89-36,155.12-42.37A76.12,76.12,0,0,1,210,205.67Z"/><path class="cls-3" d="M493.78,259.09c-.52-.82-1-1.65-1.57-2.46-16.43-23.5-75.77-42.49-153.32-49.83a75.3,75.3,0,0,1,15.34,18.52c69,7.06,122.3,22.31,142.25,41.18a47.52,47.52,0,0,1,4.8,5.25Q497.69,265.31,493.78,259.09Z"/><path class="cls-10" d="M267.54,139.81A252.54,252.54,0,0,0,67.82,237.52c4-2.12,8-4.19,12.1-6.15,17.69-8.49,63.28-27.82,138.75-27.82,18.1,0,36-2.29,54.15-2.4s55.28.41,73.34,1.79c46,3.52,72.91,12.22,116.08,28.3A252.46,252.46,0,0,0,267.54,139.81Z"/><path class="cls-4" d="M429.87,189.18l-3.23-1.91-1.76-1c-.66-.37-1.4-.72-2.18-1.13l-2.54-1.3c-.89-.48-1.87-.93-2.92-1.39-2.09-.92-4.36-2-6.94-3l-4-1.57c-1.39-.52-2.85-1-4.35-1.53-6-2.13-12.89-4.08-20.44-6.07-3.8-.9-7.74-1.92-11.88-2.74-2.06-.42-4.15-.91-6.29-1.29l-6.51-1.2c-8.83-1.51-18.17-2.9-27.89-4-4.85-.61-9.8-1-14.81-1.47l-7.57-.55-3.81-.27-3.84-.19-7.7-.38-7.78-.14-15.64-.29c-10.38,0-20.84.24-31.08.78s-20.31,1.36-30,2.48-19.06,2.41-27.89,3.94-17.11,3.33-24.69,5.24-14.45,4-20.46,6c-3,1-5.78,2.1-8.35,3.07-1.28.5-2.48,1-3.64,1.53s-2.27.95-3.29,1.46c-2.06,1-3.92,1.82-5.47,2.68s-2.92,1.5-4,2.15L105.74,189l3.17-2c1-.69,2.36-1.38,3.9-2.26s3.38-1.78,5.42-2.81c1-.53,2.12-1,3.27-1.53s2.35-1.08,3.62-1.61c2.56-1,5.31-2.19,8.31-3.25s6.21-2.16,9.61-3.29l5.27-1.58c1.8-.54,3.66-1,5.55-1.53,7.58-2,15.87-3.9,24.71-5.56s18.22-3.09,28-4.21,19.83-2,30.11-2.61,20.72-.9,31.21-.91l15.64.35,7.78.18,7.76.42,3.85.21,3.82.29,7.59.58c5,.51,10,.91,14.85,1.54,9.75,1.07,19.11,2.62,27.95,4.24L363.6,165c2.14.41,4.23.93,6.3,1.38,4.14.88,8.08,1.95,11.89,2.9,7.57,2.06,14.45,4.18,20.41,6.43,1.49.56,2.95,1.07,4.33,1.62l4,1.66c2.57,1,4.82,2.17,6.9,3.13s3.84,2,5.41,2.82c.78.43,1.51.81,2.15,1.19l1.73,1.09Z"/><path class="cls-11" d="M439.23,196.68q-4.59-3.85-9.36-7.49c-25.78-17-77.33-29.34-138.58-31.88q-11.59-.48-23.61-.49a545,545,0,0,0-55.36,2.75C165.43,164.37,127,175.13,105.74,189q-5,3.82-9.81,7.86a268.8,268.8,0,0,0-30.81,30.44c5.15-5.11,12.85-9.94,22.71-14.37,25.91-11.65,66.7-20.58,115.21-24.84,20.36-1.79,42.08-2.75,64.64-2.75q14,0,27.56.49c64.63,2.3,120,12.59,152.29,27.11,10,4.5,17.81,9.42,23,14.62A268.79,268.79,0,0,0,439.23,196.68Z"/><path class="cls-12" d="M296.55,327.89a3.19,3.19,0,0,0,3.22-3.33c-.28-6.69-.7-16.33-.71-16.46l-.07-1.62,1.54-.52c20.1-6.75,34.82-21.06,39.4-38.3l.46-1.72,1.77.12,9,.63a3.13,3.13,0,0,0,3.26-3.86c-2.24-9.29-5.36-20.83-5.4-21-7.8-29.5-38.82-50.1-75.44-50.1s-67.42,20.6-75.24,50.09l-1.11,4.64a600.53,600.53,0,0,0-12.59,78.73,3.2,3.2,0,0,0,3.26,3.51c26.27-.61,55.63-1,79.74-1C277.35,327.77,287,327.81,296.55,327.89Z"/><path class="cls-12" d="M119.2,326.11c-.09.56-.24,1.43-.39,2.4a2.35,2.35,0,0,0,2.44,2.72c16-.83,48.71-2,56.88-2.24a2.14,2.14,0,0,0,2.05-1.94q.5-5.33,1.07-10.59c-21.56.82-42,1.94-60.93,3.34C120,321.71,119.42,324.79,119.2,326.11Z"/><path class="cls-12" d="M268.11,345.23a21,21,0,1,0,21,21A21,21,0,0,0,268.11,345.23Zm0,38.67a17.65,17.65,0,1,1,17.65-17.65A17.67,17.67,0,0,1,268.11,383.89Z"/><path class="cls-12" d="M268.11,360.59c-6.88,0-9,3-12.48,6.51a12.48,12.48,0,1,0,25,0C276.52,363.17,275,360.59,268.11,360.59Z"/><path class="cls-12" d="M247.07,366.24a21,21,0,1,1,21,21A21,21,0,0,1,247.07,366.24Zm21,17.21a17.21,17.21,0,1,0-17.21-17.21A17.21,17.21,0,0,0,268.11,383.46Z"/><path class="cls-12" d="M344.91,208.7a76,76,0,0,1,10.63,13.73c37.64,3.91,70.54,10.29,95.94,18.33Q446,233.91,440,227.48C414.84,219.12,382.27,212.58,344.91,208.7Z"/><path class="cls-12" d="M192.75,221.2a76.8,76.8,0,0,1,11.12-13.76c-2.31.19-4.46.38-6.5.57-40.76,3.81-76.25,10.79-103.11,19.86Q88.38,234.21,83,241C111.26,231.9,149,225,192.75,221.2Z"/><path class="cls-12" d="M291.2,157.73c-7.74-.32-15.65-.49-23.52-.49A543,543,0,0,0,212.54,160q-4.25.44-8.41.94a235,235,0,0,0-72,34,529.79,529.79,0,0,1,70.73-10.66c20.87-1.83,42.68-2.76,64.83-2.76,9.24,0,18.54.16,27.64.49,39.85,1.42,76.59,5.84,106.73,12.63a235,235,0,0,0-72.25-33.86C317.48,159.3,304.55,158.28,291.2,157.73Z"/><path class="cls-12" d="M288.61,153.32c-7-.63-14.12-1-21.31-1-7.36,0-14.63.35-21.82,1q11-.43,22.2-.43C274.67,152.94,281.7,153.07,288.61,153.32Z"/><path class="cls-12" d="M500.24,362.13l-.09-.75a.68.68,0,0,1,.74-.76l.24,0a.52.52,0,0,0,.56-.58,234.89,234.89,0,0,0-45.53-113.29c-25.93-8.91-61.18-16-102.14-20.17l-1.09-.11-.55-.95a73.07,73.07,0,0,0-14.91-18l-5-4.38,6.59.62c36.54,3.46,68.88,9.49,94.74,17.33A237.51,237.51,0,0,0,411,201.19c-31.51-8.09-71.74-13.35-115.88-14.92-9-.32-18.29-.49-27.48-.49-22,0-43.7.92-64.45,2.75-30.18,2.65-57.5,7.12-80.1,13a237.51,237.51,0,0,0-22.7,19.95c26.22-8.07,59.23-14.25,96.54-17.74,3.8-.36,8-.7,12.82-1.07l6.62-.5-5.07,4.29a73.87,73.87,0,0,0-15.49,17.92l-.57.93-1.09.09c-46.64,4-87.22,11.76-116.07,21.82A234.89,234.89,0,0,0,33,359.15a1.26,1.26,0,0,0,1.36,1.41c2.1-.18,5.88-.5,8.21-.68h0A1.38,1.38,0,0,1,44,361.43a313.78,313.78,0,0,0-2.49,39.42q0,1.32,0,2.64v.92h6.35v-.9q0-1.33,0-2.67a353.39,353.39,0,0,1,2.32-40.47,1.42,1.42,0,0,1,1.3-1.21c21.54-1.44,50.35-2.68,81.58-3.58h0a1.29,1.29,0,0,1,1.32,1.4c-1.2,14.32-1.81,29-1.81,43.64,0,1,0,1.29,0,1.81l0,2h26.21c-.08-3.82-.13-7.64-.12-11.46q0-6.14.12-12.27c.16-8.18.38-14.76.81-22.93a2.64,2.64,0,0,1,2.56-2.52l12.64-.39a3.23,3.23,0,0,0,3.12-3q.56-9.38,1.35-18.6c-22.6.63-44,1.49-63.7,2.57l-2.65.15.41-2.63s.93-6,1.26-8,1.43-8,1.43-8l.3-1.64,1.66-.13c17.74-1.34,36.91-2.43,57.08-3.25a7.42,7.42,0,0,0,7.06-6.5,578.34,578.34,0,0,1,10.6-60.38l1.13-4.7c8.33-31.43,41-53.35,79.41-53.35s71.31,21.92,79.6,53.3c.17.63,3.56,13.19,5.8,22.65a5.67,5.67,0,0,0,5,4.34c11.84,1.18,34.88,3.61,35.16,3.64,0,0,4.7.73,6.85,1.25a49.87,49.87,0,0,1,7.63,2.47,47.69,47.69,0,0,1,9.1,5,56.75,56.75,0,0,1,4.62,3.62,59,59,0,0,1,4.54,4.41,63,63,0,0,1,8.07,10.85,68.43,68.43,0,0,1,5.95,13.11c.37,1.17.76,2.34,1.06,3.53l.24.89.12.45,0,.11,0,.19,0,.22.34,1.79,1.37,7.19,1.37,7.19c.5,2.42.8,4.82,1.15,7.21.66,4.78,1.25,9.48,1.75,14,.08.76.16,1.52.23,2.27a.44.44,0,0,0,.42.4c7,.34,13.69.7,19.87,1.07q5,.3,9.66.62c3,.21,5.95.3,8.46.61a1.59,1.59,0,0,1,1.48,1.15,309.06,309.06,0,0,1,2.55,39.63c0,.95,0,2,0,2.93v.86h6.63c.1-.48.19-1,.27-1.55,0-.75,0-1.49,0-2.24A316.44,316.44,0,0,0,500.24,362.13Z"/><path class="cls-12" d="M453.75,398.51c0-4.78-.22-11-.54-17.66-.2-4.15-.42-8-.69-11.8-.22-3.16-.48-6.57-.84-10.12l-.15-1.49.47,0c-.1-.8-.2-1.61-.31-2.42-.62-4.53-1.34-9.21-2.13-13.95-.41-2.36-.78-4.76-1.33-7.1l-1.57-7.15-1.57-7.15-.39-1.78,0-.22v0l0-.1-.13-.43-.26-.85c-.33-1.15-.73-2.26-1.12-3.38a65.67,65.67,0,0,0-6-12.42,59.89,59.89,0,0,0-7.95-10.1,56,56,0,0,0-4.34-4,53.22,53.22,0,0,0-4.47-3.31,43.9,43.9,0,0,0-8.51-4.4,45.86,45.86,0,0,0-7.09-2.08c-2-.44-3.62-.64-4.7-.79l-1.69-.2h0c-.34,0-33.87-3.58-40.72-4.17l-14.38-1c-5.3,17.42-20.13,31.84-40.16,39,.17,3.85.59,13.64.79,18.45h0l.07,2.05c.82,22.65,1.23,46.13,1.23,69.81q0,2.3,0,4.6h-4.31q0-2.29,0-4.59c0-22.91-.39-45.64-1.15-67.6-10.65-.1-21.53-.15-32.38-.15-25.34,0-56.48.4-83.73,1.06-1.85,21.67-2.79,44.09-2.79,66.69q0,2.33,0,4.65H431.85v-1q0-1.41,0-2.83c0-3.53,0-7.12-.14-10.68v0a1.26,1.26,0,0,1,1.23-1.29l10.36-.27a1.29,1.29,0,0,1,1.32,1.26c.09,3.65.14,7.35.14,11q0,1.44,0,2.87v.91h8.88l.08-1C453.76,401.91,453.76,400.25,453.75,398.51Zm-186-6.14a26.18,26.18,0,1,1,26.18-26.18A26.21,26.21,0,0,1,267.74,392.37Zm171.65-52.06a42.24,42.24,0,0,1-10.59,20.78,33.91,33.91,0,0,1-9.24,6.8,32.13,32.13,0,0,1-5.23,2.05l-.33.1-.17.05-.08,0-.17,0-.61.15c-.41.1-.79.2-1.23.29-.94.17-1.9.37-2.79.45a33.35,33.35,0,0,1-10.48-.42,37.76,37.76,0,0,1-9.21-3.15A43.54,43.54,0,0,1,376,357.22a51.23,51.23,0,0,1-7.2-10.63,53.55,53.55,0,0,1-3.15-7.62c-.31-.9-.49-1.61-.63-2.08l-.21-.72,0-.07-.16-.68-.2-.83c-.08-.32-.17-.71-.27-1.21a53.34,53.34,0,0,1-1.07-8.23,51.23,51.23,0,0,1,1-12.8,43.54,43.54,0,0,1,6.38-15.49,37.76,37.76,0,0,1,6.42-7.31,33.35,33.35,0,0,1,8.88-5.57c.82-.38,1.69-.66,2.55-1,.43-.14.88-.26,1.32-.39l.67-.19.25-.06.15,0,.31-.07,1.23-.28,1.45-.24c.49-.09,1-.13,1.42-.18s.94-.11,1.41-.12a33.91,33.91,0,0,1,11.4,1.31,42.24,42.24,0,0,1,19.52,12.76,50.19,50.19,0,0,1,6.75,9.86c.49.88.88,1.8,1.32,2.69s.81,1.83,1.15,2.77.7,1.88,1,2.83c.16.47.31,1,.44,1.44l.43,1.5A52,52,0,0,1,439.39,340.31Z"/><circle class="cls-13" cx="268.11" cy="367.11" r="23.6"/><path class="cls-11" d="M268.11,360.59a15.06,15.06,0,0,1,14.43,10.78,15.06,15.06,0,1,0-28.86,0A15.06,15.06,0,0,1,268.11,360.59Z"/><circle class="cls-14" cx="268.11" cy="367.11" r="15.07"/><path class="cls-15" d="M365.72,334.19l.44,1.41c.29.92.77,2.24,1.44,3.9a54,54,0,0,0,7.34,12.67,49.73,49.73,0,0,0,6.68,7,42.94,42.94,0,0,0,8.89,5.9,38.85,38.85,0,0,0,5.2,2.06,40.36,40.36,0,0,0,5.56,1.21,34,34,0,0,0,5.76.24,33.12,33.12,0,0,0,5.76-.8l.71-.15.19,0,.09,0h0l-.08,0,.37-.12c.51-.15.95-.31,1.4-.47.92-.33,1.82-.7,2.7-1.09a30.75,30.75,0,0,0,5-2.85,27.09,27.09,0,0,0,2.24-1.75c.36-.29.73-.64,1-.92s.74-.7,1-1a34.52,34.52,0,0,0,3.57-4.27,43,43,0,0,0,5-9.46,51,51,0,0,0,2.53-9.32A52.58,52.58,0,0,0,439,321.7c-.21-1.77-.42-3.17-.6-4.12l-.28-1.45.47,1.4c.3.92.74,2.27,1.14,4a47.65,47.65,0,0,1,1.07,6.47,44.93,44.93,0,0,1,0,8.56,45.88,45.88,0,0,1-2,10,41.31,41.31,0,0,1-4.9,10.36,37.85,37.85,0,0,1-3.79,4.84c-.37.41-.71.74-1.06,1.1s-.77.75-1.17,1.1a30.45,30.45,0,0,1-2.5,2,34.43,34.43,0,0,1-5.56,3.25q-1.47.68-3,1.24c-.52.19-1,.37-1.52.52l-.37.12-.5.13-.8.18a36.87,36.87,0,0,1-6.42.82,37.64,37.64,0,0,1-6.42-.34,35.88,35.88,0,0,1-6.14-1.48A42.22,42.22,0,0,1,389,368a41.36,41.36,0,0,1-9.27-6.77,45.23,45.23,0,0,1-6.54-7.82,47.91,47.91,0,0,1-4.1-7.51,44.87,44.87,0,0,1-2.2-6.18c-.24-.87-.45-1.65-.58-2.35s-.28-1.27-.35-1.75Z"/><path class="cls-16" d="M371.35,343.3a18.19,18.19,0,0,0,12.58-9.69c12,29.28,49.47,25,45.25-13.15-1.5-13.62,9.08,7.32,8,14s-5.41,25.89-22,31.34C387.65,374.84,371.35,343.3,371.35,343.3Z"/><path class="cls-17" d="M365.72,334.19l.37,1.43c.24.93.63,2.29,1.24,4a49,49,0,0,0,2.57,5.94,54.25,54.25,0,0,0,4.4,7.13,47,47,0,0,0,6.64,7.32,42.74,42.74,0,0,0,9.06,6.22,40.18,40.18,0,0,0,5.37,2.21,37.89,37.89,0,0,0,5.79,1.31,36,36,0,0,0,6,.26,35.26,35.26,0,0,0,6-.83l.75-.16.19,0,.09,0c.09.41-.15-.93.24.91h-.05c0,.22-.48-1.71-.21-.91h0l.09,0,.18-.06c.49-.15,1-.32,1.45-.48,1-.34,1.9-.72,2.82-1.14a32.34,32.34,0,0,0,5.23-3,33.44,33.44,0,0,0,8.15-8.37,42.92,42.92,0,0,0,5-9.8,47.78,47.78,0,0,0,2.35-9.59,50.24,50.24,0,0,0-.19-14.81c-.28-1.78-.59-3.16-.82-4.09l-.35-1.44.39,1.43c.25.93.6,2.3.93,4.08a47.62,47.62,0,0,1-1.68,24.66,41.3,41.3,0,0,1-4.95,10,34.28,34.28,0,0,1-8.32,8.62,33.23,33.23,0,0,1-5.36,3.1q-1.42.65-2.88,1.18c-.49.18-1,.35-1.47.5l-.18.06-.09,0-.07,0c.22.8-.24-1.12-.22-.91h0c.43,1.82.11.51.18.92l-.09,0-.19,0-.76.17a36.18,36.18,0,0,1-6.18.82,36.93,36.93,0,0,1-6.18-.3,38.74,38.74,0,0,1-5.93-1.37,39.26,39.26,0,0,1-14.62-8.73,47.64,47.64,0,0,1-6.61-7.52,49.72,49.72,0,0,1-6.7-13.32c-.56-1.71-.91-3.09-1.13-4Z"/><path class="cls-18" d="M365.89,336.07l-.57-2.61L365,332c-.09-.56-.18-1.23-.27-1.92l-.3-2.25c-.12-.8-.1-1.61-.16-2.49a47.8,47.8,0,0,1,.94-12.59,42.52,42.52,0,0,1,6.29-15.24,37.46,37.46,0,0,1,6.31-7.22,34.91,34.91,0,0,1,4.11-3c.75-.44,1.47-.94,2.25-1.34l2.41-1.12a17.67,17.67,0,0,1,2.53-.93l1.3-.42.65-.21.28-.07h.08l.15,0,.3-.06,2.43-.47a9.4,9.4,0,0,1,1.37-.17l1.47-.11,1.48-.1c.49,0,.94,0,1.42,0,.94.06,1.89.07,2.83.17l2.81.47.71.12.69.19,1.38.39,1.38.4c.46.14.89.34,1.34.51.89.37,1.8.69,2.67,1.11l2.57,1.35a28.25,28.25,0,0,1,2.46,1.54l1.22.8c.4.27.77.59,1.16.88.76.61,1.54,1.19,2.28,1.83a48.33,48.33,0,0,1,4.12,4.16,49.77,49.77,0,0,1,3.63,4.62c.56.81,1,1.66,1.56,2.49l.77,1.26c.24.43.45.87.67,1.31l1.32,2.64,1.1,2.74.54,1.37.44,1.41.89,2.94.61,2.72.31,1.36.22,1.5.42,3,.16,2.95c0,.49.06,1,.07,1.47l0,1.47c0,1,0,2-.12,2.94a49.77,49.77,0,0,1-.85,5.81,48.33,48.33,0,0,1-1.51,5.65c-.33.92-.71,1.81-1.07,2.72-.19.45-.35.91-.56,1.34l-.66,1.3a28.25,28.25,0,0,1-1.37,2.56l-1.56,2.44c-.55.79-1.18,1.53-1.77,2.29-.31.37-.58.76-.91,1.11l-1,1-1,1-.5.51-.55.46-2.21,1.8c-.77.56-1.58,1-2.37,1.56-.4.25-.78.52-1.2.74l-1.26.62a26.38,26.38,0,0,1-2.54,1.15l-2.61.9-.32.11-.16.05-.08,0-.28.07-.6.13-1.19.25a16.9,16.9,0,0,1-2.51.43l-2.79.25c-.91,0-1.76,0-2.63,0a34.91,34.91,0,0,1-5.07-.58A37.46,37.46,0,0,1,390,367a42.52,42.52,0,0,1-13-10.09,47.8,47.8,0,0,1-7.08-10.45c-.38-.79-.81-1.5-1.09-2.23l-.83-2c-.25-.63-.5-1.21-.7-1.75l-.47-1.49-.86-2.74Zm7.32-1.79.73,2.36.39,1.29c.17.46.38,1,.6,1.5l.7,1.74c.23.63.6,1.24.92,1.91a40.41,40.41,0,0,0,6,8.95,36.94,36.94,0,0,0,10.73,8.54,30.38,30.38,0,0,0,7.26,2.68,28,28,0,0,0,4,.53c.67,0,1.39.11,2,.08l1.95-.12a12.72,12.72,0,0,0,2.24-.33l1.2-.23.6-.12-.13,0,.06,0,.13,0,.26-.08,2.08-.67a20,20,0,0,0,2-.88l1-.46c.34-.16.64-.39,1-.58.63-.4,1.3-.77,1.92-1.2l1.81-1.42.46-.36.41-.41.84-.82.84-.82c.28-.28.51-.61.77-.91.49-.62,1-1.21,1.51-1.86l1.34-2a22.65,22.65,0,0,0,1.2-2.14l.58-1.09c.19-.37.32-.76.49-1.14.31-.77.65-1.53.94-2.32a42.24,42.24,0,0,0,1.34-4.88,43.69,43.69,0,0,0,.79-5.07c.08-.86.08-1.72.12-2.58l.05-1.3c0-.43,0-.87-.05-1.3l-.12-2.6-.33-2.51-.16-1.26-.3-1.36-.59-2.72c.05.22,0,0,0,0l0-.08,0-.16-.1-.31-.2-.62-.4-1.25-.39-1.25-.5-1.21-1-2.42L429,308.72c-.2-.38-.39-.78-.6-1.15l-.69-1.1c-.47-.73-.89-1.48-1.39-2.18a43.69,43.69,0,0,0-3.2-4,42.24,42.24,0,0,0-3.59-3.57c-.64-.54-1.32-1-2-1.55-.33-.25-.64-.53-1-.75l-1-.66a22.65,22.65,0,0,0-2.11-1.26l-2.17-1.09c-.73-.33-1.49-.57-2.23-.87-.37-.13-.74-.3-1.12-.41l-1.14-.29-1.13-.3-.56-.15-.57-.08-2.28-.33c-.76-.07-1.52-.05-2.27-.09-.37,0-.76,0-1.11,0l-1,.1-1,.08a5.37,5.37,0,0,0-1.1.14l-2.42.51-.3.06-.15,0-.07,0,.13,0-.51.18-1,.35a12.42,12.42,0,0,0-2,.77l-1.88.92c-.61.32-1.17.74-1.75,1.1a28,28,0,0,0-3.21,2.45,30.38,30.38,0,0,0-5,5.94,36.94,36.94,0,0,0-5.07,12.75,40.41,40.41,0,0,0-.72,10.72c.06.74,0,1.48.15,2.1l.25,1.78c.08.56.13,1.06.21,1.55l.32,1.42.59,2.6Z"/><path class="cls-17" d="M433.27,319.2l-.33-1.19c-.22-.78-.58-1.9-1.11-3.31a44.74,44.74,0,0,0-2.24-4.93,49.49,49.49,0,0,0-3.73-5.93,42.11,42.11,0,0,0-5.53-6.15,36.55,36.55,0,0,0-7.5-5.3,32.09,32.09,0,0,0-4.45-1.91,30.21,30.21,0,0,0-4.82-1.14,26.54,26.54,0,0,0-10,.48l-.63.14-.45.15c-.42.13-.8.27-1.2.41-.8.29-1.58.62-2.34,1a26.35,26.35,0,0,0-4.33,2.55,28.08,28.08,0,0,0-6.72,7.07,36.45,36.45,0,0,0-4.09,8.23,39.73,39.73,0,0,0-1.86,8,47.21,47.21,0,0,0,.16,12.4c.21,1.49.44,2.65.6,3.44l.26,1.21-.3-1.2c-.19-.78-.46-1.94-.72-3.43a44.92,44.92,0,0,1-.53-12.48,40.29,40.29,0,0,1,1.74-8.21,34.78,34.78,0,0,1,4.06-8.45,28.92,28.92,0,0,1,6.88-7.33,27.24,27.24,0,0,1,4.46-2.66c.79-.37,1.59-.72,2.41-1,.41-.15.83-.31,1.24-.44l.52-.17.63-.15a27.45,27.45,0,0,1,10.38-.44,31.06,31.06,0,0,1,5,1.21,32.93,32.93,0,0,1,4.56,2,34.94,34.94,0,0,1,7.59,5.51,42.71,42.71,0,0,1,5.49,6.34A44.19,44.19,0,0,1,432,314.64c.49,1.43.81,2.57,1,3.35Z"/><path class="cls-18" d="M432.59,327.75l0,1c0,.7,0,1.39-.08,2.09a35.59,35.59,0,0,1-.59,4.13,34.55,34.55,0,0,1-1.06,4,33.71,33.71,0,0,1-1.61,3.82,29.48,29.48,0,0,1-2.06,3.58c-.39.57-.83,1.1-1.25,1.64a13.59,13.59,0,0,1-1.36,1.54,25.73,25.73,0,0,1-3,2.74c-.55.4-1.13.76-1.69,1.13-.29.18-.56.38-.86.53l-.9.45a19,19,0,0,1-1.81.84l-1.87.65-1.88.47a11.94,11.94,0,0,1-1.76.31l-2,.19c-.66,0-1.26,0-1.89,0a24.73,24.73,0,0,1-3.63-.4,26.56,26.56,0,0,1-6.48-2.23,30,30,0,0,1-9.27-7.21,34.16,34.16,0,0,1-5-7.45,27.57,27.57,0,0,1-1.36-3c-.18-.45-.36-.86-.5-1.24"/><path class="cls-19" d="M432.59,327.75v2.87c0,.49-.07,1-.11,1.43s-.09,1-.14,1.43-.13,1-.23,1.43-.16.95-.27,1.41c-.21.94-.48,1.86-.74,2.78h0c-.36,1-.68,1.92-1.1,2.88-.1.24-.21.48-.33.71s-.21.43-.33.69c-.22.47-.47.93-.73,1.38s-.52.89-.79,1.33c-.14.22-.25.42-.43.66l-.45.62c-.32.41-.57.81-1,1.24l-1,1.16A19.2,19.2,0,0,1,422.7,352a14.07,14.07,0,0,1-1.23,1l-1.27.86-.68.43-.35.22-.34.17-1.37.69a9.8,9.8,0,0,1-1.47.61l-1.44.51h0l-1.37.35-.34.09-.36.08-.7.16c-.24,0-.5.09-.75.12l-.71.07-1.41.13c-.31,0-.49,0-.74,0h-.71c-.46,0-1,0-1.46,0-1-.08-1.92-.27-2.83-.39h0a31.8,31.8,0,0,1-3.94-1.14c-.64-.24-1.28-.5-1.9-.79s-1.21-.6-1.82-.94a28.83,28.83,0,0,1-6.49-5,34.55,34.55,0,0,1-5-6.41q-.53-.87-1-1.77c-.32-.6-.59-1.21-.89-1.82-.58-1.23-1-2.51-1.48-3.77.55,1.23,1.05,2.49,1.68,3.67.33.58.63,1.2,1,1.77s.69,1.15,1.06,1.71a37.29,37.29,0,0,0,5.13,6.15,29.93,29.93,0,0,0,6.43,4.68c.57.31,1.2.62,1.78.9s1.21.52,1.84.74a30.89,30.89,0,0,0,3.84,1.07h0c1,.12,1.88.3,2.78.36.45,0,.89,0,1.37,0h.71c.22,0,.51,0,.67,0l1.41-.14.7-.06c.22,0,.43-.05.65-.1l.68-.15.33-.07.34-.08,1.38-.33h0l1.45-.5a8.79,8.79,0,0,0,1.36-.55l1.38-.68.34-.17.3-.19.61-.38,1.28-.85a13.21,13.21,0,0,0,1.18-.92,18.43,18.43,0,0,0,2.18-2l1-1.14c.32-.32.63-.78.95-1.17l.47-.6c.13-.16.28-.41.42-.62l.82-1.28c.26-.43.51-.87.74-1.31s.49-.92.68-1.36c.42-.91.78-1.87,1.16-2.82v0c.28-.92.59-1.82.84-2.73.13-.46.22-.9.33-1.39s.21-.92.29-1.39.14-.94.21-1.41.15-1,.17-1.42Z"/><ellipse class="cls-18" cx="406.07" cy="325.3" rx="23.61" ry="28.51" transform="translate(-70.03 115.44) rotate(-14.91)"/><path class="cls-18" d="M379.57,332.19l-.39-1.8-.21-1-.2-1.38a27.57,27.57,0,0,1-.32-3.4,34.14,34.14,0,0,1,.69-9,30.23,30.23,0,0,1,4.53-10.91,27,27,0,0,1,4.56-5.18,25.17,25.17,0,0,1,3-2.17c.54-.32,1.06-.68,1.63-1l1.75-.8a13,13,0,0,1,1.83-.67l.94-.3.47-.15.26-.06h.05l.1,0,.21,0,1.68-.31a7.31,7.31,0,0,1,1-.12l1.08-.08,1.09-.07c.36,0,.68,0,1,0,.68,0,1.36.06,2,.13a25.88,25.88,0,0,1,4,.85,13.63,13.63,0,0,1,2,.66c.63.26,1.29.5,1.91.8a29.42,29.42,0,0,1,3.59,2.07,33.54,33.54,0,0,1,3.31,2.51,34.3,34.3,0,0,1,2.92,3,35.29,35.29,0,0,1,2.57,3.28c.39.57.74,1.18,1.11,1.77l.54.89c.17.3.32.62.48.93l.93,1.87.78,1.94.38,1,.31,1,.64,2.12.43,1.87.21.94.16,1.07.3,2.15.12,2.09c0,.35,0,.7,0,1l0,1c0,.7,0,1.39-.08,2.09a35.29,35.29,0,0,1-.6,4.13,34.3,34.3,0,0,1-1.07,4,33.54,33.54,0,0,1-1.62,3.82,29.42,29.42,0,0,1-2.08,3.58c-.39.57-.84,1.1-1.26,1.64a13.63,13.63,0,0,1-1.37,1.54,25.88,25.88,0,0,1-3.06,2.74c-.55.4-1.14.76-1.7,1.13-.29.18-.56.38-.86.53l-.91.45a19.21,19.21,0,0,1-1.83.84l-1.88.65-.23.08-.12,0-.06,0-.25.06-.41.09-.82.18a12.15,12.15,0,0,1-1.77.31l-2.06.19c-.67,0-1.27,0-1.91,0a25.18,25.18,0,0,1-3.66-.4,27,27,0,0,1-6.54-2.23,30.23,30.23,0,0,1-9.36-7.21,34.14,34.14,0,0,1-5.06-7.45,27.45,27.45,0,0,1-1.38-3c-.18-.45-.36-.86-.5-1.24l-.34-1.06-.61-1.95Z"/><path class="cls-20" d="M433,326.7l-.12-2.09-.3-2.15-.16-1.07-.21-.94-.43-1.87-.64-2.12-.31-1-.38-1-.78-1.94-.93-1.87c-.16-.31-.31-.62-.48-.93l-.54-.89c-.37-.59-.71-1.2-1.11-1.77a35.28,35.28,0,0,0-2.57-3.28,34.29,34.29,0,0,0-2.92-3l0,0c-3.6,5.76-8.64,24.8-15,28.06-16.72,8.54-25.18,7.26-25,7.71a27.45,27.45,0,0,0,1.38,3,34.14,34.14,0,0,0,5.06,7.45,30.23,30.23,0,0,0,9.36,7.21,27,27,0,0,0,6.54,2.23,25.18,25.18,0,0,0,3.66.4c.63,0,1.24.06,1.91,0l2.06-.19a12.15,12.15,0,0,0,1.77-.31l.82-.18.41-.09.25-.06.06,0,.12,0,.23-.08,1.88-.65a19.21,19.21,0,0,0,1.83-.84l.91-.45c.3-.16.58-.36.86-.53.57-.37,1.15-.73,1.7-1.13a25.88,25.88,0,0,0,3.06-2.74,13.63,13.63,0,0,0,1.37-1.54c.42-.55.87-1.08,1.26-1.64a29.41,29.41,0,0,0,2.08-3.58,33.54,33.54,0,0,0,1.62-3.82,34.29,34.29,0,0,0,1.07-4,35.29,35.29,0,0,0,.6-4.13c.06-.69.05-1.39.08-2.09l0-1C433.05,327.4,433,327.05,433,326.7Z"/><path class="cls-21" d="M431.16,330.79c.28-.88.53-1.77.73-2.66.11-.51.44-3.06.49-3.12.07-.89.13-1.78.2-2.66l-.14-.95-.07-.29c-1.83.11-3.67.19-5.56.26-2.93,3-5.45,6.37-8.54,9.21a63.64,63.64,0,0,1-13.53,9c-1.64.88-3.31,1.74-4.9,2.72a18.17,18.17,0,0,1-10.52,6.61,30.24,30.24,0,0,0,5.07,4C395.26,353.13,422.18,362.94,431.16,330.79Z"/><path class="cls-17" d="M432.29,334.44a12.2,12.2,0,0,1-6.5,4.44c-8,2.13-16.81-4.8-19.66-15.49s1.34-21.08,9.35-23.21"/><path class="cls-17" d="M432.29,334.44a6.45,6.45,0,0,1-.23.73,10.45,10.45,0,0,1-1,2,10.92,10.92,0,0,1-2.42,2.69,11.82,11.82,0,0,1-2,1.27l-.14.07-.07,0,0,0h0l-.18,0-.24.11-.49.21a5.41,5.41,0,0,1-1.15.42c-.5.13-1,.23-1.56.33s-1,.09-1.51.13a8.85,8.85,0,0,1-1.57,0,10.16,10.16,0,0,1-1.6-.19,17.06,17.06,0,0,1-6.27-2.46,12.22,12.22,0,0,1-1.44-1,15.44,15.44,0,0,1-1.36-1.11c-.43-.4-.89-.78-1.29-1.21l-1.19-1.32a27,27,0,0,1-3.71-6,28.68,28.68,0,0,1-1.17-3.32l-.24-.84-.06-.21,0-.11-.06-.23v0l-.07-.36-.27-1.44a24.56,24.56,0,0,1-.3-3.57c0-.57,0-1.13,0-1.68s.1-1.11.15-1.66a22.6,22.6,0,0,1,1.61-6.14,18.35,18.35,0,0,1,3-4.86,17.09,17.09,0,0,1,1.8-1.79,16.9,16.9,0,0,1,1.87-1.3,11.52,11.52,0,0,1,3.36-1.3c.49-.09.91-.15,1.28-.19h.95c.5,0,.76,0,.76,0l-.58.5-.67.56c-.23.26-.5.54-.79.84a14,14,0,0,0-1.68,2.35c-.26.47-.5,1-.74,1.51a16.64,16.64,0,0,0-.6,1.73,19.1,19.1,0,0,0-.73,3.93,25.74,25.74,0,0,0,0,4.41c.1.76.15,1.53.3,2.3l.09.58.13.52c.09.36.13.65.23,1.07l.38,1.42.09.36v0l0-.16v0l0,.07,0,.14.19.57c.23.77.57,1.5.85,2.25a29.89,29.89,0,0,0,2.25,4.13,21.65,21.65,0,0,0,2.82,3.4,13.87,13.87,0,0,0,3.19,2.39,4.58,4.58,0,0,0,.83.42,7.14,7.14,0,0,0,.84.34l.84.28a6.59,6.59,0,0,1,.71.19,3.12,3.12,0,0,0,1,.09h.8l-.15,0h.2a10.78,10.78,0,0,0,1.63-.1,12.51,12.51,0,0,0,2.78-.74,16,16,0,0,0,1.85-.85Z"/><ellipse class="cls-17" cx="420.64" cy="319.53" rx="15.01" ry="20.02" transform="translate(-68.05 118.99) rotate(-14.91)"/><path class="cls-18" d="M402.23,324.27l-.26-1.21-.14-.66c-.05-.24-.1-.61-.15-1a20,20,0,0,1-.27-2.41,25.51,25.51,0,0,1,.35-6.31,21.27,21.27,0,0,1,3-7.79l.65-1c.23-.33.5-.64.76-1a17.09,17.09,0,0,1,1.74-1.83,15.1,15.1,0,0,1,4.57-2.8,7.75,7.75,0,0,1,1.32-.43l.68-.18.34-.09.21,0h.11l.14,0,1.15-.13c.43,0,1,0,1.5,0a7.69,7.69,0,0,1,1.46.12,9.51,9.51,0,0,1,1.39.25l1.36.37,1.3.5a20.79,20.79,0,0,1,8.33,6.93,29.56,29.56,0,0,1,4.61,9.76c.2,1,.43,1.66.57,2.61s.29,1.83.35,2.72a27,27,0,0,1-.07,5.42,20.79,20.79,0,0,1-3.78,10.16,14.87,14.87,0,0,1-4.11,3.79,13.87,13.87,0,0,1-5.1,1.9c-.5.07-1,.14-1.5.17h-1.36A8.66,8.66,0,0,1,420,342a12.46,12.46,0,0,1-1.3-.2,17.09,17.09,0,0,1-2.42-.73c-.38-.15-.77-.28-1.14-.45l-1.06-.53a21.27,21.27,0,0,1-6.46-5.27,25.51,25.51,0,0,1-3.44-5.3,19.78,19.78,0,0,1-.93-2.13,15.87,15.87,0,0,1-.57-1.62l-.43-1.36Zm7.77-1.91.3,1a10,10,0,0,0,.4,1.2c.19.46.36,1,.64,1.58l.41.92.53,1a10.52,10.52,0,0,0,.6,1,12.11,12.11,0,0,0,.7,1.06,17.72,17.72,0,0,0,4,4.13l.64.45c.22.14.45.25.68.39a10.73,10.73,0,0,0,1.45.68,7.24,7.24,0,0,0,.77.25,4.22,4.22,0,0,0,.79.21l.82.15.71.05a8.85,8.85,0,0,0,3.6-.65,9.55,9.55,0,0,0,3.26-2.17,14.27,14.27,0,0,0,2.54-3.54,18.3,18.3,0,0,0,.88-2.13l.36-1.12.25-1.16a23.12,23.12,0,0,0,.33-2.38,24.12,24.12,0,0,0,0-2.44c0-.41,0-.82-.07-1.22l-.16-1.19c-.08-.76-.35-1.72-.49-2.46a22,22,0,0,0-4.49-8.59l-.79-.89-.87-.8a18.29,18.29,0,0,0-1.82-1.41,14.27,14.27,0,0,0-4-1.81,9.45,9.45,0,0,0-3.86-.26c-.28.06-.48.06-.82.14l-1.11.31-.14,0-.07,0h0l.14,0-.2.1-.4.19a3.73,3.73,0,0,0-.76.4,10.76,10.76,0,0,0-4.12,4.86,17.72,17.72,0,0,0-1.42,5.57,12.11,12.11,0,0,0-.08,1.27,10.51,10.51,0,0,0,0,1.19l0,1.1.1,1c0,.66.16,1.14.21,1.6,0,.24,0,.41.1.65l.15.66.28,1.21Z"/><path class="cls-4" d="M406.13,323.39l-.19-.59c-.11-.39-.34-.95-.5-1.69a22.1,22.1,0,0,1-.5-2.72,14.14,14.14,0,0,1-.16-1.7,15.45,15.45,0,0,1,0-1.9,16.85,16.85,0,0,1,.16-2.07,16.2,16.2,0,0,1,.4-2.2,23.22,23.22,0,0,1,.67-2.28,17.69,17.69,0,0,1,1.06-2.27,13.84,13.84,0,0,1,3.3-4.13,7.34,7.34,0,0,1,1.1-.84,7.93,7.93,0,0,1,1.19-.73,12.07,12.07,0,0,1,1.27-.6l.66-.23.33-.11.17-.06.08,0h.06l.09,0,1.27-.24a12.7,12.7,0,0,1,1.42-.12,8,8,0,0,1,1.41,0,7.34,7.34,0,0,1,1.37.18,13.78,13.78,0,0,1,4.92,1.94,17.82,17.82,0,0,1,2,1.44,23.22,23.22,0,0,1,1.72,1.64,16.43,16.43,0,0,1,1.44,1.71,16.86,16.86,0,0,1,1.17,1.72,15.63,15.63,0,0,1,.93,1.66,14.14,14.14,0,0,1,.71,1.55,22,22,0,0,1,.91,2.61c.22.73.31,1.33.4,1.72l.13.61-.23-.58c-.16-.37-.36-.93-.67-1.62s-.7-1.51-1.23-2.41a13.45,13.45,0,0,0-.86-1.41,17.35,17.35,0,0,0-1-1.49,15.71,15.71,0,0,0-1.25-1.52,17.38,17.38,0,0,0-1.46-1.5,21.7,21.7,0,0,0-1.68-1.41,20.92,20.92,0,0,0-1.91-1.21,12.64,12.64,0,0,0-4.37-1.57,5.82,5.82,0,0,0-1.17-.14,6.23,6.23,0,0,0-1.16,0,9.54,9.54,0,0,0-1.15.1l-1.27.26h0l-.07,0-.14,0-.28.09-.56.19a10.1,10.1,0,0,0-1.07.49,6.29,6.29,0,0,0-1,.6,5.82,5.82,0,0,0-.95.7,12.59,12.59,0,0,0-3,3.53,21.14,21.14,0,0,0-1.06,2,21.72,21.72,0,0,0-.76,2.06,17.68,17.68,0,0,0-.52,2,15.71,15.71,0,0,0-.33,1.94,17.6,17.6,0,0,0-.16,1.81,13.45,13.45,0,0,0,0,1.65c0,1,.08,1.94.13,2.69s.17,1.34.22,1.74Z"/><path class="cls-17" d="M408.49,323c-2.52-9.45,1.1-19.45,8.19-21.33s17.42,2.68,20.38,12.42c3.65,12-3.79,21.33-11.18,22.62C418.66,338,411,332.45,408.49,323Z"/><path class="cls-17" d="M408.49,323c-2.52-9.45,1.1-19.45,8.19-21.33s17.42,2.68,20.38,12.42c3.65,12-3.79,21.33-11.18,22.62C418.66,338,411,332.45,408.49,323Z"/><path d="M408.44,322.61c-2.18-8.17.11-16.59,5.22-17.95S426.47,307.57,429,316c3.09,10.39-2,18.1-7.35,18.94S410.61,330.78,408.44,322.61Z"/><path class="cls-22" d="M429.16,331.81c-8.29,3.5-13.19-.59-15-1,3.18,3.41,7.41,5.07,11.5,4.36,5-.87,10-5.75,10.94-12.65C435.87,323.42,434.84,329.42,429.16,331.81Z"/><path class="cls-19" d="M425.88,336.7l-.55.09a8.38,8.38,0,0,1-1.56.16,6.63,6.63,0,0,1-1.13,0,9.14,9.14,0,0,1-1.32-.15,10.17,10.17,0,0,1-1.48-.34l-.79-.24-.8-.34a15.41,15.41,0,0,1-3.27-1.93,17.55,17.55,0,0,1-3-3,20.91,20.91,0,0,1-2.4-3.86c-.37-.68-.61-1.43-.92-2.15s-.5-1.48-.68-2.26a24.28,24.28,0,0,1-.65-4.63,22.6,22.6,0,0,1,.26-4.53,19,19,0,0,1,1.1-4.1,16.74,16.74,0,0,1,1.8-3.35l.5-.7.55-.62a9,9,0,0,1,1.11-1,7.6,7.6,0,0,1,1.08-.79,5.27,5.27,0,0,1,1-.55,6.67,6.67,0,0,1,1.47-.56l.53-.16-.52.21a7.54,7.54,0,0,0-1.4.67,5.1,5.1,0,0,0-.92.6,7.31,7.31,0,0,0-1,.83,8.61,8.61,0,0,0-1,1.08l-.5.62-.46.7a16.14,16.14,0,0,0-1.6,3.29,22.35,22.35,0,0,0-.93,4,21.75,21.75,0,0,0-.19,4.37,24.63,24.63,0,0,0,.69,4.47c.15.72.41,1.45.62,2.17s.51,1.42.85,2.08a19.06,19.06,0,0,0,5.07,6.68,14.81,14.81,0,0,0,3.07,2l.76.36.75.27a9.8,9.8,0,0,0,1.41.42,8.86,8.86,0,0,0,1.28.23,6.44,6.44,0,0,0,1.1.09,9.88,9.88,0,0,0,1.56,0Z"/><path class="cls-23" d="M435.94,315.89c-.1-1.2-4.38-12.09-15.3-12-4.56,0-8.37,4.16-8.71,9.5-.1,1.66-.78,2.35,2.75.5a22.58,22.58,0,0,1,3.27-1.4,2.51,2.51,0,0,0-.53,1.51c0,1.93,2.44,3.5,5.44,3.5s5.44-1.57,5.44-3.5a2.83,2.83,0,0,0-1.17-2.16C431.7,312.71,434.81,314.2,435.94,315.89Z"/><ellipse class="cls-15" cx="423.91" cy="307.5" rx="1.97" ry="1.5"/><path class="cls-15" d="M399,275.17l1.74.24c1.15.18,2.85.44,5,.94a48.72,48.72,0,0,1,7.48,2.36,46.64,46.64,0,0,1,8.93,4.84,55.94,55.94,0,0,1,4.58,3.53,58.29,58.29,0,0,1,4.48,4.3,62.15,62.15,0,0,1,8,10.64,67.66,67.66,0,0,1,6,12.91c.37,1.15.77,2.31,1.08,3.49.16.6.35,1.14.48,1.8l.36,1.79,1.43,7.18c.93,4.79,2,9.58,2.63,14.36s1.32,9.46,1.85,14,.87,9,1.17,13.17.51,8.16.68,11.82c.35,7.33.51,13.44.53,17.71,0,2.14,0,3.82,0,5l0,1.76,0-1.76c0-1.15,0-2.83,0-5-.07-4.28-.31-10.38-.74-17.7-.22-3.66-.49-7.62-.82-11.81s-.73-8.6-1.32-13.13-1.27-9.23-2-14-1.8-9.5-2.79-14.3l-1.51-7.17-.38-1.78c-.11-.53-.32-1.14-.48-1.71-.32-1.16-.72-2.29-1.1-3.42a66.46,66.46,0,0,0-6-12.61,60.78,60.78,0,0,0-8-10.31,57,57,0,0,0-4.4-4.12,54.39,54.39,0,0,0-4.51-3.39,45,45,0,0,0-8.68-4.57,47,47,0,0,0-7.24-2.19c-2.06-.46-3.69-.69-4.8-.85l-1.74-.22Z"/><path class="cls-24" d="M182,333.61a612.25,612.25,0,0,1,13.2-85l1.12-4.69c7.92-29.88,39.42-51.69,77.32-51.69s69.62,21.8,77.52,51.69c0,0,5.13,19,7,28,6.95.6,40.76,4.17,40.76,4.17"/><path class="cls-24" d="M183.66,316.79c-23.39.86-45.29,2.07-65.16,3.57,0,0-1.09,6-1.43,8s-1.26,7.92-1.26,7.92c20.14-1.11,42.37-2,66.16-2.64"/><path class="cls-24" d="M179,407.14q0-2.36,0-4.74c0-23.79,1-46.84,3-68.79,25.46-.64,57.51-1.11,85.7-1.11q17.52,0,34.46.17c.8,22.23,1.23,45.61,1.23,69.73,0,1.53,0,.43,0,2"/><path class="cls-24" d="M358.15,271.93c-1.35-.11-16.15-1.13-16.15-1.13-4.9,18.45-20.33,32.92-40.79,39.79,0,0,.8,18.24.93,22.09"/><path class="cls-25" d="M510,364.56q-3.78-.41-8.13-.81"/><path class="cls-25" d="M518.84,365.66"/><path class="cls-25" d="M524,366.5q-2.31-.43-5.2-.84"/><path class="cls-25" d="M532.86,369.08a9.42,9.42,0,0,0-1.62-1.09"/><path class="cls-25" d="M492.26,362.94q-4.18-.32-8.74-.64t-9.65-.62c-6.41-.39-13.26-.75-20.52-1.1"/><line class="cls-25" x1="443.73" y1="391.43" x2="433.4" y2="391.7"/><path class="cls-25" d="M25.31,364.55c-14.51,1.58-22.63,3.31-22.86,5.11"/><path class="cls-25" d="M25.31,364.55"/><path class="cls-25" d="M43.08,362.94q-5.11.4-9.64.81"/><path class="cls-25" d="M133.46,358.66c-32.27.92-60.06,2.18-81.64,3.65"/><path class="cls-26" d="M180.27,358.52q-4.82.18-9.64.26l-9.64.1.9-.86q-1,12.21-1.59,24.46c-.2,4.08-.35,8.16-.48,12.25s-.24,8.17-.32,12.26c-.12-4.09-.21-8.18-.25-12.27s0-8.18.05-12.27q.17-12.27.76-24.54l0-.83.86,0,9.64-.29q4.82-.11,9.64-.13Z"/><path class="cls-26" d="M179,406.94l-.25-7.72c-.12-4.63-.16-10.81-.15-17l.07-9.08c0-2.9.12-5.6.19-7.92.19-4.63.43-7.71.43-7.71l1.88.1-.07,2.12c0,1.35-.14,3.27-.24,5.58l-.94,16.94-.4,9.05-.28,7.9Z"/><path class="cls-27" d="M64.88,227.57l.86-.84c.58-.55,1.45-1.35,2.64-2.33a75.23,75.23,0,0,1,11.08-7.45,139.13,139.13,0,0,1,18.89-8.63,246.58,246.58,0,0,1,25.72-8.06,474.47,474.47,0,0,1,66.41-11.73c12.27-1.33,25-2.38,37.93-3.05s26.11-1,39.28-1.06a726.82,726.82,0,0,1,77.21,4.11c12.28,1.31,24.09,3,35.24,5s21.61,4.25,31.17,6.72A247.14,247.14,0,0,1,437,208.31a142.61,142.61,0,0,1,18.9,8.61A71.77,71.77,0,0,1,467,224.37c1.19,1,2.05,1.79,2.62,2.35l.86.85-.87-.84c-.58-.54-1.46-1.33-2.66-2.3a71.58,71.58,0,0,0-11.19-7.23,142.12,142.12,0,0,0-19-8.25c-7.53-2.71-16.19-5.27-25.74-7.68s-20-4.54-31.15-6.39-22.93-3.43-35.18-4.74a727.29,727.29,0,0,0-77-3.85c-13.13,0-26.27.28-39.18.93s-25.6,1.63-37.85,2.92-24,2.87-35.18,4.73-21.59,4-31.15,6.39-18.22,5-25.75,7.66a138.34,138.34,0,0,0-19,8.27,75,75,0,0,0-11.18,7.24c-1.21,1-2.09,1.74-2.68,2.28Z"/><path class="cls-4" d="M399,274.31l1.74.24c1.15.18,2.85.44,5,.94a48.72,48.72,0,0,1,7.48,2.36,46.64,46.64,0,0,1,8.93,4.84,55.94,55.94,0,0,1,4.58,3.53,58.29,58.29,0,0,1,4.48,4.3,62.15,62.15,0,0,1,8,10.64,67.66,67.66,0,0,1,6,12.91c.37,1.15.77,2.31,1.08,3.49.16.6.35,1.14.48,1.8l.36,1.79,1.43,7.18c.93,4.79,2,9.58,2.63,14.36s1.32,9.46,1.85,14,.87,9,1.17,13.17.51,8.16.68,11.82c.35,7.33.51,13.44.53,17.71,0,2.14,0,3.82,0,5l0,1.76,0-1.76c0-1.15,0-2.83,0-5-.07-4.28-.31-10.38-.74-17.7-.22-3.66-.49-7.62-.82-11.81s-.73-8.6-1.32-13.13-1.27-9.23-2-14-1.8-9.5-2.79-14.3l-1.51-7.17-.38-1.78c-.11-.53-.32-1.14-.48-1.71-.32-1.16-.72-2.29-1.1-3.42a66.46,66.46,0,0,0-6-12.61,60.78,60.78,0,0,0-8-10.31,57,57,0,0,0-4.4-4.12,54.39,54.39,0,0,0-4.51-3.39,45,45,0,0,0-8.68-4.57,47,47,0,0,0-7.24-2.19c-2.06-.46-3.69-.69-4.8-.85l-1.74-.22Z"/><path class="cls-28" d="M182,332.75a612.25,612.25,0,0,1,13.2-85L196.3,243c7.92-29.88,39.42-51.69,77.32-51.69s69.62,21.8,77.52,51.69c0,0,5.13,19,7,28,6.95.6,40.76,4.17,40.76,4.17"/><path class="cls-28" d="M183.66,315.93c-23.39.86-45.29,2.07-65.16,3.57,0,0-1.09,6-1.43,8s-1.26,7.92-1.26,7.92c20.14-1.11,42.37-2,66.16-2.64"/><path class="cls-28" d="M179,406.28q0-2.36,0-4.74c0-23.79,1-46.84,3-68.79,25.46-.64,57.51-1.11,85.7-1.11q17.52,0,34.46.17c.8,22.23,1.23,45.61,1.23,69.73,0,1.53,0,1.29,0,2.82"/><path class="cls-28" d="M358.15,271.07C356.8,271,342,269.94,342,269.94c-4.9,18.45-20.33,32.92-40.79,39.79,0,0,.8,18.24.93,22.09"/><path class="cls-29" d="M512.52,404.37q0-1.41,0-2.83A286,286,0,0,0,510,363.7q-3.78-.41-8.13-.81a316.41,316.41,0,0,1,2.37,38.66q0,1.44,0,2.87"/><path class="cls-30" d="M518.84,364.8a294.85,294.85,0,0,1,2.31,36.75q0,1.44,0,2.87"/><path class="cls-29" d="M526.4,404.42c0-.94,0-1.92,0-2.87A272.79,272.79,0,0,0,524,365.64q-2.31-.43-5.2-.84"/><path class="cls-29" d="M534.84,404.41c0-.93,0-1.88,0-2.9a268.55,268.55,0,0,0-2-32.68c-.09-.44-.65-.88-1.62-1.31"/><path class="cls-29" d="M494.78,404.46c0-.94,0-2,0-2.91a306.73,306.73,0,0,0-2.54-39.47q-4.18-.32-8.74-.64t-9.65-.62c-6.41-.39-13.26-.75-20.52-1.1.36,3.49.61,6.9.84,10.16.29,4.19.51,8.16.69,11.82.35,7.33.51,13.44.54,17.71,0,2.14,0,3.82,0,5v0Z"/><path class="cls-29" d="M443.73,390.57l-10.33.26c.09,3.55.14,7.15.14,10.71q0,1.42,0,2.84l4.51,0h5.82q0-1.43,0-2.87C443.87,397.9,443.82,394.21,443.73,390.57Z"/><path class="cls-29" d="M25.31,363.69C10.81,365.27,2.69,367,2.46,368.8c0,0-2.45,18.87-1.91,35.6H22.84q0-1.32,0-2.64A292.64,292.64,0,0,1,25.31,363.69Z"/><path class="cls-29" d="M43.08,362.08q-5.11.4-9.64.81a323.8,323.8,0,0,0-2.34,38.88q0,1.33,0,2.65h9.47q0-1.32,0-2.65A313.91,313.91,0,0,1,43.08,362.08Z"/><path class="cls-29" d="M131.64,401.55c0-14.9.62-29.51,1.81-43.75-32.27.92-60.06,2.18-81.64,3.65a350.76,350.76,0,0,0-2.31,40.32q0,1.33,0,2.66l82.14,0C131.65,402.93,131.64,403.08,131.64,401.55Z"/><path class="cls-29" d="M86.91,359.5s-2.38,25.8-2.25,45"/><path class="cls-4" d="M178.55,406.08q-.07-12.35.26-24.7c.11-4.12.24-8.23.41-12.35s.39-8.23.62-12.34l.42.43-19.28.3.31-.3c-1.12,16.31-1.74,32.65-1.7,49l-.09-.09Zm.94,0H179l-19.53.14h-.09v-.09c-.19-16.35.28-32.72,1.25-49l0-.29H161l19.28-.48h.44l0,.44q-.57,12.33-.91,24.66T179.49,406.08Z"/><path class="cls-29" d="M210,205.67c-4.3.32-8.58.67-12.78,1.06C120,214,60.7,232.72,43.6,256q-1.11,1.71-2.2,3.44-4.27,6.79-8.15,13.84a32.93,32.93,0,0,1,5.63-6.79c21.18-20,79.89-36,155.12-42.37A76.12,76.12,0,0,1,210,205.67Z"/><path class="cls-29" d="M493.78,259.09c-.52-.82-1-1.65-1.57-2.46-16.43-23.5-75.77-42.49-153.32-49.83a75.3,75.3,0,0,1,15.34,18.52c69,7.06,122.3,22.31,142.25,41.18a47.52,47.52,0,0,1,4.8,5.25Q497.69,265.31,493.78,259.09Z"/><ellipse class="cls-18" cx="273.76" cy="247.72" rx="62.25" ry="53.46"/><path class="cls-4" d="M327.44,245l3.24,3.52,2.8-3.52,2.54,2.69c0-29.52-27.87-53.46-62.25-53.46s-62.25,23.93-62.25,53.46l2.57-2.25,2.65,2.25,3.37-2.69Z"/><path class="cls-17" d="M273.61,287.6c38.21.41,52.94-26,52.94-45.58,0-20.83-13.95-38.67-52.94-38.67h.15c-39,0-52.79,17.59-52.79,38.42,0,19.58,15.64,45.85,52.79,45.84Z"/><ellipse class="cls-28" cx="273.76" cy="243.42" rx="52.83" ry="45.37"/><polygon class="cls-18" points="241.09 276.17 241.09 280.27 234.17 277.9 230.66 274.92 232.37 270.78 238.26 275.52 241.09 276.17"/><polygon class="cls-18" points="268.77 287.81 268.77 290.63 278.88 290.63 279.02 287.79 273.76 287.15 268.77 287.81"/><polygon class="cls-18" points="259.08 284.46 259.08 289.7 247.23 289.7 247.99 284.82 248.98 282.71 259.08 284.46"/><polygon class="cls-18" points="227.79 261.62 227.79 268.71 219.25 261.4 222.36 252.95 225.71 258.67 227.79 261.62"/><polygon class="cls-18" points="222.69 242.72 221.91 245.04 220.11 245.04 220.97 242.74 222.69 234.99 222.69 242.72"/><polygon class="cls-18" points="225.92 225.38 223.98 225.25 226.21 222.79 227.71 223.64 225.92 225.38"/><polygon class="cls-18" points="306.64 276.02 306.64 280.12 313.64 277.9 316.12 273.42 315.44 270.78 309.55 275.52 306.64 276.02"/><polygon class="cls-18" points="288.73 284.45 288.73 289.7 297.71 289.7 298.72 284.45 298.83 282.7 288.73 284.45"/><polygon class="cls-18" points="319.86 261.4 319.86 268.49 328.44 262.04 325.24 252.69 322.11 258.67 319.86 261.4"/><polygon class="cls-18" points="324.83 242.47 325.69 245.03 327.44 245.03 326.56 242.48 325.12 234.99 324.83 242.47"/><polygon class="cls-18" points="321.9 225.38 323.84 225.25 321.61 222.79 320.11 223.63 321.9 225.38"/><path class="cls-4" d="M273.76,288c-1.67,0-3.35-.07-5-.2l.14-1.72a60.52,60.52,0,0,0,10,0l.15,1.72C277.28,287.94,275.52,288,273.76,288Z"/><path class="cls-4" d="M258.66,286.13a57.68,57.68,0,0,1-9.67-3.42l.72-1.57a55.87,55.87,0,0,0,9.38,3.32Z"/><path class="cls-4" d="M289.13,286.06l-.44-1.67a55.82,55.82,0,0,0,9.37-3.36l.72,1.56A57.58,57.58,0,0,1,289.13,286.06Z"/><path class="cls-4" d="M240.09,277.57a50,50,0,0,1-7.72-6.79l1.27-1.17a48.21,48.21,0,0,0,7.45,6.56Z"/><path class="cls-4" d="M307.65,277.42l-1-1.4a48.08,48.08,0,0,0,7.41-6.59l1.27,1.16A49.78,49.78,0,0,1,307.65,277.42Z"/><path class="cls-4" d="M226.29,262.47a41.25,41.25,0,0,1-3.93-9.52l1.66-.45a39.53,39.53,0,0,0,3.77,9.12Z"/><path class="cls-4" d="M321.36,262.24l-1.5-.84a39.46,39.46,0,0,0,3.71-9.15l1.66.44A41.16,41.16,0,0,1,321.36,262.24Z"/><path class="cls-4" d="M221,242.74v-.18a39.68,39.68,0,0,1,1.34-10.22l1.66.44a37.94,37.94,0,0,0-1.28,9.78v.17Z"/><path class="cls-4" d="M324.83,242.47a37.91,37.91,0,0,0-1.3-9.78l1.66-.45a39.62,39.62,0,0,1,1.36,10.22Z"/><path class="cls-4" d="M227.71,223.64l-1.5-.84a45.15,45.15,0,0,1,6-8.33l1.27,1.16A43.39,43.39,0,0,0,227.71,223.64Z"/><path class="cls-4" d="M319.78,223.56a43.37,43.37,0,0,0-5.83-8l1.27-1.16a45.18,45.18,0,0,1,6.06,8.32Z"/><path class="cls-4" d="M241,209l-1-1.4a54.2,54.2,0,0,1,8.88-5.16l.72,1.56A52.43,52.43,0,0,0,241,209Z"/><path class="cls-4" d="M306.51,209a52.54,52.54,0,0,0-8.6-5l.72-1.56a54.23,54.23,0,0,1,8.88,5.15Z"/><path class="cls-4" d="M258.92,200.7l-.43-1.67a60.31,60.31,0,0,1,10.11-1.72l.14,1.72A58.62,58.62,0,0,0,258.92,200.7Z"/><path class="cls-4" d="M288.53,200.68A58.6,58.6,0,0,0,278.7,199l.14-1.72A60.33,60.33,0,0,1,289,199Z"/><path class="cls-18" d="M315.65,209.49l2.16,1.85a53,53,0,0,1,5.53,5.84,48.15,48.15,0,0,1,6.53,10.68,42.49,42.49,0,0,1,3.62,15.85,43.53,43.53,0,0,1-3.63,18.92A49.69,49.69,0,0,1,317.08,280a61.62,61.62,0,0,1-19.87,11.67,69.49,69.49,0,0,1-46.9,0A61.61,61.61,0,0,1,230.44,280a49.66,49.66,0,0,1-12.78-17.33A43.52,43.52,0,0,1,214,243.7a42.47,42.47,0,0,1,3.62-15.85,48.15,48.15,0,0,1,6.53-10.68,53,53,0,0,1,5.53-5.84l2.16-1.85-2.09,1.93a57.27,57.27,0,0,0-5.32,6,47.63,47.63,0,0,0-6.17,10.72,43.37,43.37,0,0,0-3.21,15.6,42.3,42.3,0,0,0,3.83,18.33,49.93,49.93,0,0,0,12.61,16.66A59.92,59.92,0,0,0,250.91,290a69.81,69.81,0,0,0,45.71,0A59.91,59.91,0,0,0,316,278.73a49.9,49.9,0,0,0,12.61-16.66,42.28,42.28,0,0,0,3.83-18.33,43.35,43.35,0,0,0-3.21-15.6,47.63,47.63,0,0,0-6.18-10.72,57.24,57.24,0,0,0-5.31-6Z"/><path class="cls-28" d="M314.77,209.06c10.5,9,17,21.46,17,35.22s-6.49,26.2-17,35.22-25,14.59-41,14.59-30.51-5.57-41-14.59-17-21.46-17-35.22,6.49-26.2,17-35.22"/><path class="cls-17" d="M273.62,285.79c32.26,0,50.67-25.74,50.67-44.94,0-20.42-13.65-50.75-50.67-50.75h.14c-37,0-50.67,30.33-50.67,50.75,0,19.2,18.41,44.94,50.67,44.94Z"/><path class="cls-31" d="M310.39,259.23c8.45-6.07,3.55-27-36.5-27-46.19,0-45.37,20.91-36.91,27,8.3,6,20.74,10.37,36.7,10.38S302.09,265.19,310.39,259.23Z"/><path class="cls-32" d="M318,253.43s-15.82,17.37-44.3,17.37c-28.94,0-44.3-17.37-44.3-17.37,6.1,14.49,21.48,28.31,44.3,28.34S311.89,267.93,318,253.43Z"/><path class="cls-23" d="M233.53,221.93c0-13.78,17.87-28.92,40.16-28.92s40.58,15.14,40.58,28.92S296,228.8,273.69,228.8,233.53,235.71,233.53,221.93Z"/><ellipse class="cls-15" cx="258.49" cy="204" rx="6.26" ry="3.51" transform="translate(-47.6 82.59) rotate(-16.65)"/><path class="cls-11" d="M267.48,437.12H.5c3.56,0,26.25,8,26.25,8h6v3.12c3.56,0,26.25,8,26.25,8l7.06,0v3.12c3.56,0,26.25,8,26.25,8H442.64s22.69-8,26.25-8V456.2l7.06,0s22.69-8,26.25-8v-3.12h6s22.69-8,26.25-8Z"/><polygon class="cls-33" points="267.48 445.08 32.75 445.08 32.75 448.2 267.48 448.2 502.21 448.2 502.21 445.08 267.48 445.08"/><polygon class="cls-33" points="267.48 456.2 66.06 456.2 66.06 459.32 267.48 459.32 468.89 459.32 468.89 456.2 267.48 456.2"/><path class="cls-4" d="M534.84,424.85c0-5.38,0-5.14,0-16.43H.5c0,11.29,0,9,0,16.43Z"/><line class="cls-34" x1="534.86" y1="409.56" x2="0.5" y2="409.56"/><rect class="cls-1" x="0.5" y="428.28" width="534.34" height="8.84"/><line class="cls-35" x1="532.26" y1="426.57" x2="3.09" y2="426.57"/><line class="cls-36" x1="534.86" y1="402.69" x2="0.5" y2="402.69"/><path class="cls-12" d="M35.71,414.25a12.53,12.53,0,0,0,11.79,8.39H487.07a12.48,12.48,0,0,0,11.85-8.47c1-2.86,1.77-4.53,2.43-6.31H33.16C33.84,409.84,34.69,411.37,35.71,414.25Z"/><line class="cls-35" x1="532.26" y1="406.14" x2="3.1" y2="406.14"/><path class="cls-37" d="M175.27,347.92a6.29,6.29,0,0,0-.43,3.62l.62-2C175.22,349.51,175.18,349,175.27,347.92Z"/><path class="cls-37" d="M167.93,388.28l.35,1.13.9-3C168.87,385.83,168.21,388.34,167.93,388.28Z"/><path class="cls-37" d="M182.15,355.62v-.06l-.43-.79C181.51,354.94,181.6,355.2,182.15,355.62Z"/><path class="cls-37" d="M192,352.35c-3.57-1-4.11-1.76-4.07-2.6s.74-1.77-.35-2.54a2.26,2.26,0,0,1,2-.15s.78-.42,1.56-.89,1.54-1,1.54-1c-3.52-.13-3.59-.41-2.92-.84s2.06-1,1.48-1.53c-3-.43-5.91-.25-8-.73,2.37-1.42,1.6-2.25,1-2.91s-1.19-1.25,1.26-3.19c-2.2.61-3.75.86-5.24,1.21.48-2.79.75-4.7,0-3.28a14.21,14.21,0,0,0-.86,3,2.82,2.82,0,0,1,.3-1.35c-.23-2-.34-.23-.85,2a33.2,33.2,0,0,0-5.31,2.21c1.26-1.16,3-2.67,4.49-4.32l.13-.15-.21,1c0,1.21.28-.1.62-1.47a8.82,8.82,0,0,0,2.22-4.09c-.77.32-1.47.6-2.25,1-2.27,1.36-5.13,3.06-8.15,5s-6.18,4.08-9.14,6.23l-.49.36.78-.81a85.49,85.49,0,0,0,8.18-9.6c1.38-2,2.65-3.87,3.82-5.67l.86-1.33.05-.08-.35-.3h0v0l0,0,.08-.18.15-.36.28-.73a26.17,26.17,0,0,0,.87-2.89,19.06,19.06,0,0,0-.16-10.28c-1.57,1.47-3,2.91-4.3,4,0,0-.08-1.29-.24-2.56s-.4-2.57-.4-2.57c-2.33-.76-5.67.29-7.6,6.89-.22-1.06-.1-2.1-.37-3.16-.46,1-1,1-1.53,1.15s-1.09.56-1.42,2.37c-.83-2.07-.93-5.16-1.69-8.24-1.08,1.62-2.4.44-4-.34a3.42,3.42,0,0,0-2.22-.57c-.68.16-1.26.78-1.5,2.19-1.7-4.12-2.38-2.56-2.85-.93s-.75,3.24-3.09-.24a2.86,2.86,0,0,0-4.11,1.92c-.56,1.79-.09,4.3,1.29,6.81-.45-.64-1.08-1.93-1.84-3.22a6.58,6.58,0,0,0-2.87-3c.07.6-.07,1.36.24,1.77a15.09,15.09,0,0,0-1.86.25c-.83.27-1.41.75-1,2.2a4.16,4.16,0,0,0,1.4,2.18c3.9,1,6.74,7,11,12.22a46.89,46.89,0,0,0,3.33,3.78c1.16,1.19,2.42,2.23,3.59,3.34l3.36,3.12.78.72.19.18s0,0,0,0l.07-.08,0,0,.21.28.29.41.06.09a6.28,6.28,0,0,1,.69,1.34l.1.29-.48.33h0l.47.6-1,.72-.2.14-.41.25,0,0s-.19.12-.38.21l-.07,0a6.12,6.12,0,0,1-.73.33l-.19.08c-.24.09-.3.1-.46.16l.12,0-.31.1-.46.12a6,6,0,0,1-.82.14h0a6.24,6.24,0,0,1,1.19.28l11,30.37a2.73,2.73,0,0,1,1.15.31c1.31-3.16,1.35-7,2.55-7.58-.82,2-1.33,5.77-1,5.9-.29-.63.38-1.6.68-2.7l-.13-.74c.86-4.11,1.13-3.83,1.41-3s.58,2.17,1.33.18c-.26,2.83-.34-.11-1,2.59-.76,3.7-1.37,8.14-.57,9.75,1.48-2.12,2.15-1,2.88.43s1.49,3.28,2.8,2.57c.26-3.12.76-1.68,1.19-2.09-.78,2.67-.15,6,.31,6.56.77-1.68,1.36-7.71,2.17-7.07l-.11-5.83c-.24-.72-1.56,1.68-2.27,2.85.18-3.3-.57-2.64-1.24-2.27s-1.23.43-.47-4l.16,1.21c.82,3.41,2.55-5.41,3.82-8.46.57,2.64.5,7.12.88,10.68.65,1.77,1-.65,1.48-2.23.71-1.37.89,1.47,1.22,3.17.24-.3-.05-1.5.19-1.79.28.7.59,1.9.83,1.6.21-5.57-1-5.57-1.6-7.34.22-.79.31-1.92.54-1.72.22-.29.13.84.15,1.35l.44-.6c.06-1.63.08-4.77.6-5l.24,3.33c1.1,1.13,1.54-6.67.32-7.36l-.17,3.43-.55-2.56-.5-2.56a12,12,0,0,1,.56-4h.14c2-.13,3.62-.55.21-1.89l1.73.48a8.87,8.87,0,0,0,4.22.92c1.39,0,2.5-.35,2.5-.72Zm-35.88-12.74c-.35-.34-.78-1-1.6-2a17.19,17.19,0,0,1,2.17,2.39C156.62,340,156.45,339.92,156.14,339.61Zm1.16,1.17,0-.06,0,.06Zm.52.16h0l.13-.15,0,0v0h0s0,0-.1.07Zm.16,0v-.1h0S158,340.87,158,340.94Zm2.52,1.58ZM157,345.81h0Zm-1.14,1.25-1.65-.28,1.45.2c1.17.17,2.39.37,3.49.59C157.88,347.42,156.82,347.23,155.88,347.06Zm23.34-9.82,0,.22-.06,0Zm-3.17,12.07-.76,2.49c-.23-.1-1.53,2.52-1.42.46-.56-2,1.39-5.32,2.06-8l1.58,2.88C176.93,348.43,176.28,350.24,176.05,349.31Zm7.86,17.14c-.61,1.88-1.28.94-1.77-1a46.8,46.8,0,0,1-1-7c.11-1.44.14-2.86.18-4.33l.37.67a1,1,0,0,1,.42-.18q0,.5,0,1l.06.11-.06,0c.13,4.12,1.18,5.56,1.49,8.14l.42-.08C184.13,366.65,183.33,364.69,183.91,366.45Zm-.34-11.15c-.11.18-.22-.19-.26-.85l.39,0Z"/><path class="cls-37" d="M182.72,388.55c.25,2.34.38-1.43.81-1.38l-.87-.12Z"/><path class="cls-37" d="M170.59,297.82c1.12-.41,2.27-.5,3,1.1a6.82,6.82,0,0,0-.27-5,28.75,28.75,0,0,1-1.64-3.61,11.59,11.59,0,0,0-3.43,3.6,6.3,6.3,0,0,0-1,4.49C168.32,298.91,169.45,298.22,170.59,297.82Z"/><path class="cls-37" d="M157.35,341.47l-.24.27.35-.4h0Z"/><path class="cls-37" d="M157.49,341.31h0l0,0Z"/><path class="cls-38" d="M246.13,308l.28,1c.47-.22,1,.11,1.68,1a3,3,0,0,0-.78-2.06,3.33,3.33,0,0,0-1.43-.94Z"/><path class="cls-38" d="M293.61,317.64c2.07-1.3,2.12-3.51,1.5-6.32s-2-6.18-2.58-9.46a9.79,9.79,0,0,1-1.65-.74l-.36-.22-.17-.11h0c-1.14-2.5-.32-.69-.57-1.25h-.1l-.44,0a2.11,2.11,0,0,1-.67-.17,1.33,1.33,0,0,1-.24-.14l-.1-.08c0-.06-.18-.29-.27-.43-.39-.64-.76-1.31-1.14-2l-1.12-2c-.55-1-1.1-2.05-1.68-3.06-2.32-4-5.63-7.13-10-4.21a7.9,7.9,0,0,0-4.22-2.66,5.71,5.71,0,0,0-3.62.58c-2.22,1.12-4.14,3.31-6.25,5.06-.81-1.55-.85-2.64-.3-3.5a5.78,5.78,0,0,1,2.93-1.92,33.9,33.9,0,0,0,3.72-1.43,2.41,2.41,0,0,0,1.39-2.9,24.31,24.31,0,0,0-14.35-3c-1.28.09-2.55.21-3.84.43l-2.47.41-.66.23-.17.05-.11,0-.27.06-1.08.24-2.1.51-3.15.83c-.48,1.94.49,3.49,1,4.85s.71,2.47-.78,3.52a5.05,5.05,0,0,0-1.16-3.57c-.78-1-1.86-1.63-2.52-1.35,1.66-.12.6,1.53.94,2.64l.62.1.63.12c1,1.87,1.15,2.88.89,3.39s-.93.58-1.77.57c-1.64,0-4-.13-3.76,2.23-2.35-1.85,1-.58-.27-3-1.92-3.23-5.26-6.57-9.18-5.53a9,9,0,0,1-3,4.21,17.2,17.2,0,0,1-4.16,2.1,24.3,24.3,0,0,0-4.49,2.14h0l-.31.37h0l0,0-.08,0-.16.07-.3.15-.28.18-.13.1-.24.26a10.78,10.78,0,0,0-.92,1.2,6.73,6.73,0,0,0-.38.64q-.14.28-.25.58c2.71,1.6.53,2.27.35,3.36-1.55-2.62-5.67-2.25-6.8-1.44.69,2.21,5.79,5.49,4.29,6.95l2.85.85,2.85.88c.48-.14.52-1.1.44-2.28s-.27-2.61-.35-3.59c3,1.44,3.29-.29,4.33-2.33a2.74,2.74,0,0,1,.33-.74.69.69,0,0,1,.25-.21l0,0h0l.23-.28h0l0,0,.12-.06a1.28,1.28,0,0,1,.27-.08c.75-.15,1.76.35,3.34,2l-1.54,0c-1.49.54-1.26.16-1.65,1.35a4.13,4.13,0,0,0,.06,1.52,7.17,7.17,0,0,0,.65,1.63c1.11,2.26,3.05,4.81,3.71,6.72-3.25.36-7.47-1.26-11.27-1.68-2.35.71-.4,2.26.64,3.74.63,1.86-2.19,1.18-4,1.12.08.55,1.44.47,1.5,1-.89.24-2.24.31-2.15.84,4.94,2.58,5.94.42,8.18-.17.53.71,1.52,1.29,1.12,1.67.07.53-.91,0-1.4-.21l.16,1.06c1.47.72,4.35,1.94,4.11,3.06l-3.29-.83c-1.95,1.5,4.7,5.72,6.48,3.53l-3-1.69,5.76-.22c3.31,1.14,1.74,2.24,4.69,3.69a8.27,8.27,0,0,0,5.81,1.14,16.67,16.67,0,0,0-.81,4.45c-.73-.9-1-1.91-1.72-2.79-.31,1.15-1.1,1.33-1.84,1.73s-1.42,1-1.41,2.9c-1.85-1.59-2.8-4.55-4.61-7.24-1,2-3.13,1.39-5.25,1.16a5.43,5.43,0,0,0-2.92.22,2.93,2.93,0,0,0-1.58,2.7c-2.62-3.62-3.19-1.89-3.59-.08s-.73,3.63-3.65.55a3.76,3.76,0,0,0-4.53,2.75c-.58,1.92-.12,4.51,1.29,7-1-1.22-2.49-5.29-5-6,.08.61-.09,1.39.23,1.8-.22.15-4,0-3,2.55a5.16,5.16,0,0,0,1.38,2.18c3.57,1.41,6.74,7,10.16,12.92,1.69,2.94,3.47,6,5.22,8.74s3.47,5.22,5,7.13l.92,1.74c1.63.45,2.81.54,3.38-.22-2-1.67-.55-2.36-2.88-3.71-.12.11.12.6,0,.72l-1.49-.72-1.52-.69c-.36-1.09.42-1.55,1-2.2s.76-1.58-.61-3.8c2,.33,4.85,3.4,7.21,5.5.84-.31,2.24.09,3.27.12s1.67-.38,1.22-2.54c1-1.77,3.44,2.26,5.36,5.34-.18-1.08.3-1.16.63-1.39s.55-.62,0-2.34c2.33,2.37,4.78,8.15,6.61,12.42,1.36,2.28.33-.67,0-3.31.77.31,1.35,2.84,2,5.23S246,384,246.37,384c.11.2.17.15.2-.07.1.53.2,1,.26,1.43l.2,0a35.07,35.07,0,0,0-.48-3.59,28.22,28.22,0,0,0-.4-4.07c.72,1.44,1.21,1.21,1.87,1s1.36-.31,2.2,1.39c.44-5.08,2.16-4.31,4.41-3.57a5.84,5.84,0,0,0,3.55.36c1.16-.36,2.28-1.47,2.91-3.95l.13,0h.12l.47-.14h0l.14,0,.27-.06.26-.09.13-.05.07,0,.17-.07q.67-.27,1.29-.6l.62-.34c.2-.12.33-.22.5-.34a16.28,16.28,0,0,0,3.36-3.41,75.09,75.09,0,0,0,5.35-9.14,51.81,51.81,0,0,0-7.68-11.18c-2.91-3.35-5.94-6.43-8.61-9.36a57.35,57.35,0,0,1-8.27-10,10.28,10.28,0,0,1-1.19-2.33,1.08,1.08,0,0,0-.38-.52l-.49-.47-.48-.46-.06-.06h0L247,324h0l0,0-.08-.13-.15-.25a37.37,37.37,0,0,0-2.27-3.42,23.52,23.52,0,0,1-.49,5.61l-1.34-2.12c-.55-.86-1.12-1.71-1.31-2,.87.23,1.69.43,1.57-.15a4.42,4.42,0,0,1-1.27-2.54c0-.21.13-.3.36-.4a2.67,2.67,0,0,1,.87-.22,11.17,11.17,0,0,0,1.7.24c.5,0,.82-.13.78-.71a14.08,14.08,0,0,1-2.3-2.56c1.76,0,4.27,3.27,6.52,5.81s4,4.53,3.32,2.88a21.64,21.64,0,0,0-1.59-2.68,2.7,2.7,0,0,1,.76,1.15c1,.88.76.6.21-.36a18.12,18.12,0,0,1-2.05-4s.18.81.42,1.56c.17.58.37,1.11.47,1.36-.2-.3-.42-.6-.64-.89-.43-.42-1.11-1.17-1.65-1.63s-1-.63-.76,0c-1-1.3-1.71-.61-3.48-3.56.93-.06.56-1.34.33-2.68s-.36-2.66.61-2.4l-.42-1.25-.39-1.26c.28-.13.44-1,.81-1.65s.92-1.09,1.67-.26c1.5.46,1.73,1.89,1.86,3.41a18.84,18.84,0,0,0,.68,4.54,9.07,9.07,0,0,1,.76.6l.46.45c.14.11.11.24.13.23a3.82,3.82,0,0,1-.11-1.45.66.66,0,0,1,.84-.07l.23.15-.3,0h0v0l0,.06,0,.12a6.11,6.11,0,0,1,.17.59,13.37,13.37,0,0,1,.25,1.46c0,.37.07.74.09,1.07l-.47.13-.07,0h0l.25-.06.27-.06c0,.56,0,1,0,1.16s.05-.09.32-1.24h0l-.18.93c-.07.31-.13.65-.19,1s-.09.61-.1.71h0v0c0,.06,0,0,0,0l0-.09.09-.27a6.2,6.2,0,0,1,.51-1,3.8,3.8,0,0,1,.28-.44,7.27,7.27,0,0,1,.62-.78l.12-.12,0,0,0,0,0,0,.2-.19a8.15,8.15,0,0,1,2.06,0c-1.21.56-1.68,1-1.78,1.4a2.59,2.59,0,0,0,.42,1.44c.46,1,.81,2.32-1.82,3.4l0,0v0L252.5,321c-.44-.94-.17-.08.29,1l.27.66-.31.12.38,0,.24.59-.09-.22-.13-.36a47.16,47.16,0,0,1,5.57,1.08,15.63,15.63,0,0,0,6.58,0,17.14,17.14,0,0,1-6.15,3.28,15.54,15.54,0,0,1-5.08.72,17.74,17.74,0,0,1,2.2,1,76.91,76.91,0,0,1,8.08,5.15c3,2.08,5.91,4.55,8.71,6.95a46.52,46.52,0,0,0,8,6c2.54,1.31,5.13,1.6,7.35.05a6.06,6.06,0,0,0-.68-.17l-.36-.05-.18,0h-.13l-.42.74h0l-.07,0-.4-.31,0,0,0,0h0l.4-.72h0l-.1-.06-.2-.12-.72-.47a12.94,12.94,0,0,1-1.18-.9,9.27,9.27,0,0,1-.94-.93l-.21-.25-.1-.13c0-.08,0-.18,0-.27l-.13-1.18a4.63,4.63,0,0,0,.73-.86c.11-.16.24-.38.32-.51l.24-.43c.3-.58.6-1.24.85-1.76.54-1.07,1.16-1.77,2.46-1v.5a7.33,7.33,0,0,0,4.14-.4,5.12,5.12,0,0,0,1.79-1.15,2.11,2.11,0,0,0,.63-1.67c-.83-.43-2.11-.33-3.49-.49a6.68,6.68,0,0,1-4.08-1.76c-.46-2.46.83-4.65,3.44-6,0,0-1.23-.45-2.47-.84L285,325c.8-1.56,3.27-1.9,4.82-2.91l1,.38c.52.19,1,.41,1,.41a29.83,29.83,0,0,1,3.64-.46c1.24-.15,2.25-.59,2.23-1.43A8.23,8.23,0,0,1,293.61,317.64Zm-59.48,7.9-2.36-2-2.34-2c-.09-.51,1.24-.48,2.68.3,1.57.41,4.68,2.38,5.43,2.37a9.14,9.14,0,0,0-.55,1A3,3,0,0,0,234.14,325.54Zm3.87-1.9c.19-1.28-5.51-2.76-5-4.39-5.57-2.64-8.45-.13-11.62-.48l-.32.88c-2.85-.94-.26-1.83-2.46-1.31-1.18-1.9.32-2.87,2.68-3.24a27.87,27.87,0,0,1,7.81.26,55.3,55.3,0,0,0,5.24,2.36,17.21,17.21,0,0,1,5.35,3.68,3.27,3.27,0,0,1,1.39.19A5.55,5.55,0,0,0,238,323.63Zm14.77-7,.19-.8-.16.79Zm1.92-.59c.06,0,.1-.07.1-.08a1.67,1.67,0,0,1,0-.35c0-.09,0-.45.19-.07l.24.34.13.18.06.09,0,0h0Z"/><path class="cls-38" d="M199.71,309.85l.81-1.45-1.44-.45C196.7,307.5,200.1,309.15,199.71,309.85Z"/><path class="cls-39" d="M149.56,427.05c1.68,3.24,4.57,3.34,8.28,2.4s8.15-3.06,12.47-3.9a16.72,16.72,0,0,1,1-2.55l.29-.56.15-.27,0,0c3.3-1.74.91-.49,1.65-.88h0v-.14c0-.25,0-.47,0-.68a3.77,3.77,0,0,1,.24-1,2.17,2.17,0,0,1,.19-.37l.11-.15c.09-.08.39-.28.57-.41.85-.59,1.73-1.17,2.62-1.75l2.65-1.71c1.32-.84,2.71-1.68,4-2.58,5.28-3.56,9.45-8.66,5.68-15.52a12.82,12.82,0,0,0,3.55-6.53,10.32,10.32,0,0,0-.71-5.64c-1.45-3.46-4.29-6.47-6.56-9.78,2-1.23,3.48-1.29,4.6-.42s1.89,2.61,2.48,4.58a59,59,0,0,0,1.82,5.81c.75,1.62,1.83,2.72,3.78,2.2,3.43-6.48,4.58-14.38,4.21-22.28-.1-2-.24-4-.51-6l-.5-3.85-.3-1-.07-.26a1.56,1.56,0,0,1,0-.18l-.07-.42-.3-1.69-.63-3.28-1-4.91c-2.54-.77-4.6.72-6.39,1.54s-3.26,1.07-4.61-1.26a6,6,0,0,0,4.71-1.75c1.33-1.2,2.17-2.87,1.81-3.91.13,2.58-2,.91-3.48,1.43l-.14,1-.16,1c-2.47,1.49-3.79,1.75-4.47,1.35s-.75-1.45-.73-2.77c0-2.55.23-6.19-2.87-5.88,2.47-3.64.75,1.53,4-.38,4.27-3,8.7-8.09,7.4-14.21a12.18,12.18,0,0,1-5.49-4.71,28.91,28.91,0,0,1-2.7-6.5,41.2,41.2,0,0,0-2.75-7v0l-.49-.48h0v0l0-.06,0-.13-.09-.25q-.09-.24-.2-.47a4.85,4.85,0,0,0-.23-.43l-.13-.2-.34-.38a14.71,14.71,0,0,0-1.56-1.44,8.68,8.68,0,0,0-.84-.6q-.36-.22-.76-.4c-2.14,4.19-3,.79-4.42.51,3.46-2.37,3-8.79,2-10.56-2.91,1-7.29,8.94-9.19,6.58l-1.16,4.42-1.2,4.41c.17.74,1.43.83,3,.71s3.44-.38,4.73-.49c-1.93,4.67.34,5.12,3,6.76a3.35,3.35,0,0,1,1,.52,1.05,1.05,0,0,1,.27.4l0,.06v0h0l.37.36h0l0,0,.08.19a2.27,2.27,0,0,1,.1.41c.18,1.16-.48,2.73-2.62,5.17l0-2.39c-.69-2.33-.19-2-1.75-2.58a4.6,4.6,0,0,0-2,.08,8.62,8.62,0,0,0-2.15,1c-3,1.7-6.37,4.69-8.88,5.68-.42-5.06,1.76-11.6,2.38-17.5-.9-3.66-3-.65-4.92.94-2.46.95-1.52-3.43-1.42-6.3-.72.11-.63,2.23-1.35,2.33-.31-1.39-.37-3.49-1.08-3.36-3.47,7.65-.64,9.23.11,12.72-.94.82-1.72,2.35-2.21,1.71-.7.11.08-1.42.29-2.17l-1.4.24c-1,2.27-2.61,6.75-4.07,6.35l1.14-5.1c-1.95-3-7.58,7.23-4.73,10l2.26-4.65.21,9c-1.55,5.13-3,2.68-4.91,7.25a14.89,14.89,0,0,0-1.58,9,18.91,18.91,0,0,0-5.83-1.31c1.19-1.12,2.52-1.46,3.69-2.64-1.5-.49-1.73-1.73-2.25-2.89s-1.31-2.23-3.79-2.23c2.11-2.86,6-4.31,9.57-7.08-2.61-1.63-1.78-4.89-1.44-8.17a9.91,9.91,0,0,0-.25-4.55,3.85,3.85,0,0,0-3.53-2.49c4.79-4,2.52-4.93.16-5.59s-4.75-1.18-.67-5.68c.55-3.69-1-6.18-3.55-7.08s-5.92-.25-9.26,1.91c1.62-1.49,7-3.81,7.95-7.65-.8.11-1.83-.16-2.37.33-.19-.35.1-6.29-3.3-4.76a6.77,6.77,0,0,0-2.88,2.11c-1.91,5.53-9.33,10.39-17.11,15.64-3.89,2.6-7.92,5.32-11.56,8a119.71,119.71,0,0,0-9.44,7.63l-2.3,1.41c-.61,2.53-.75,4.37.24,5.26,2.22-3.13,3.1-.83,4.92-4.43-.14-.19-.79.19-.94,0l1-2.3.93-2.35c1.44-.55,2,.67,2.88,1.5s2.06,1.2,5-.9c-.46,3.1-4.54,7.5-7.32,11.14.4,1.3-.15,3.49-.2,5.08s.47,2.6,3.33,1.93c2.31,1.57-3,5.33-7.09,8.27,1.43-.27,1.51.48,1.81,1s.8.87,3.07,0c-3.14,3.6-10.77,7.33-16.41,10.12-3,2.08.88.52,4.35.11-.42,1.2-3.75,2.06-6.91,3s-6.09,1.84-6,2.43c-.27.17-.2.26.09.31-.7.16-1.35.3-1.88.39,0,0,.06.28.06.31a39.32,39.32,0,0,0,4.72-.7,31.51,31.51,0,0,0,5.35-.57c-1.91,1.11-1.61,1.86-1.38,2.9s.38,2.12-1.86,3.4c6.66.74,5.63,3.41,4.63,6.91a10.63,10.63,0,0,0-.53,5.51c.45,1.8,1.89,3.57,5.14,4.57l0,.21v.18l.18.73h0l0,.22q0,.22.07.42t.11.4l.07.2,0,.1.09.26q.35,1,.77,2l.44,1c.15.31.28.52.44.77a23.68,23.68,0,0,0,4.44,5.26c3.48,3.17,7.72,5.66,11.93,8.44a69,69,0,0,0,14.8-11.81c4.45-4.48,8.53-9.15,12.42-13.28a79.62,79.62,0,0,1,13.32-12.74,12.86,12.86,0,0,1,3.08-1.83c.26-.06.48-.32.69-.59l.63-.75.61-.75.07-.09,0,0c.21.84.06.23.11.42h0l0,0,.17-.12.33-.24a49.35,49.35,0,0,0,4.53-3.49,26.25,26.25,0,0,1-7.36-.83l2.8-2.06c1.14-.84,2.26-1.72,2.65-2-.32,1.35-.6,2.63.18,2.45,1.73-1.61,2.87-2,3.36-1.94.27.06.39.21.52.56a4.78,4.78,0,0,1,.28,1.35,20.38,20.38,0,0,0-.34,2.63c0,.79.16,1.28.93,1.23.6-1.16,2.25-2.38,3.4-3.54,0,2.74-4.35,6.61-7.72,10.08s-6,6.21-3.83,5.13a27.8,27.8,0,0,0,3.55-2.44,3.61,3.61,0,0,1-1.53,1.16c-1.17,1.59-.8,1.18.47.34a22.74,22.74,0,0,1,5.27-3.14s-1.06.27-2.05.64c-.76.26-1.47.57-1.8.72.39-.31.79-.64,1.18-1,.56-.66,1.55-1.71,2.17-2.55s.84-1.48,0-1.18c1.72-1.55.83-2.65,4.73-5.37.06,1.45,1.76.89,3.52.54s3.5-.53,3.14,1l1.64-.64,1.66-.59c.16.44,1.29.7,2.15,1.28s1.42,1.44.32,2.6c-.63,2.33-2.51,2.66-4.5,2.86a21.22,21.22,0,0,0-6,1,14.06,14.06,0,0,1-.81,1.18l-.6.72c-.15.22-.31.18-.3.2a4.27,4.27,0,0,1,1.91-.15,1.17,1.17,0,0,1,.07,1.31,2.74,2.74,0,0,1-.21.35c0-.21,0,.46,0-.46h0l0,0-.08,0-.16.07a7.09,7.09,0,0,1-.78.26,15.09,15.09,0,0,1-1.92.37c-.49.07-1,.11-1.4.13l-.16-.73,0-.1v0l.08.39.08.41c-.73,0-1.31,0-1.53.06s.12.08,1.62.51v.06l-1.22-.3c-.41-.11-.86-.21-1.32-.3l-.93-.17h-.07l.12,0,.35.15a4.91,4.91,0,0,1,.85.47,11.09,11.09,0,0,1,1,.77,10,10,0,0,1,1,1l.16.19,0,0,0,0,0,0,.25.31a15,15,0,0,1,0,3.21c-.72-1.9-1.23-2.63-1.82-2.78s-1.2.26-1.9.63c-1.35.7-3.05,1.23-4.44-2.87l.06,0h0l2.17-.87c1.25-.68.11-.26-1.33.44l-.87.41c-.05-.16-.11-.31-.16-.48,0,.2,0,.39-.06.59l-.77.36.29-.13.48-.2a85.44,85.44,0,0,1-1.49,8.65,28.68,28.68,0,0,0-.13,10.23,30.47,30.47,0,0,1-5.09-17.51,30.37,30.37,0,0,1-1.32,3.41c-1.54,3.72-4.22,7.87-6.88,12.5s-6.06,9.13-9.25,13.46-6.18,8.43-8,12.41-2.18,8-.17,11.43c.09-.34.17-.69.23-1.06q0-.27.07-.55l0-.28v-.2h0l-1-.66h0l0-.11.41-.62.05-.07,0,0h0l.94.64h0v0l.08-.16.16-.31.63-1.12a20.16,20.16,0,0,1,1.2-1.82,13.54,13.54,0,0,1,1.24-1.45l.34-.33.17-.16c.1,0,.23,0,.35-.05l1.55-.18a6.48,6.48,0,0,0,1.12,1.14c.2.17.5.38.66.5l.56.38c.76.48,1.62.94,2.3,1.34,1.39.86,2.31,1.82,1.3,3.84h-.65a13.37,13.37,0,0,0,.46,6.44,8.23,8.23,0,0,0,1.49,2.8,2.54,2.54,0,0,0,2.18,1c.57-1.29.46-3.28.69-5.42a11.42,11.42,0,0,1,2.37-6.32c3.24-.68,6.1,1.35,7.86,5.43,0,0,.61-1.91,1.14-3.83l1-3.85c2,1.26,2.45,5.11,3.76,7.53l-.52,1.62c-.26.81-.56,1.62-.56,1.62a54.52,54.52,0,0,1,.55,5.67c.18,1.93.74,3.51,1.85,3.48C146.72,429.71,146.88,429.5,149.56,427.05Zm-9.51-92.59,2.61-3.65,2.65-3.61c.67-.14.62,1.94-.43,4.17-.56,2.44-3.2,7.26-3.19,8.42a11.71,11.71,0,0,0-1.26-.87A5.45,5.45,0,0,0,140.05,334.46Zm2.44,6c1.67.31,3.71-8.54,5.84-7.68,3.54-8.62.3-13.13.8-18.07l-1.15-.51c1.28-4.43,2.41-.38,1.76-3.8,2.51-1.82,3.76.53,4.21,4.21a51.22,51.22,0,0,1-.46,12.15c-1.29,2.52-2.06,5.32-3.17,8.12a27.41,27.41,0,0,1-4.92,8.27,6,6,0,0,1-.27,2.16A8.92,8.92,0,0,0,142.5,340.5Zm9,23.06,1.05.31-1-.25Zm.75,3c.05.09.09.16.11.15a1.86,1.86,0,0,1,.46,0c.12,0,.59,0,.09.29l-.45.36-.24.19-.12.1-.06.05h0Z"/><path class="cls-39" d="M161.16,281.13l1.89,1.27.62-2.24C164.29,276.47,162.08,281.73,161.16,281.13Z"/><path class="cls-40" d="M468.86,261.43l-.32-.36a1.29,1.29,0,0,0,.42-.36,6.65,6.65,0,0,1,.12-.83L465,256.34a1.12,1.12,0,0,0-.08.11,1.49,1.49,0,0,0,.07,1.14,12.63,12.63,0,0,0,1.26,2.35c.67,1,1.48,1.45,2.13,1.21.09.45.09.92-.68.1,1.29,6.3,1,.42,3.69,3l-1.5-1.63Z"/><path class="cls-40" d="M515,336.25c-.2-1.31-.41-2.61-.66-3.91-.6-3.12-1.27-6.23-2.12-9.29s-1.75-6.09-2.82-9.07c-.54-1.49-1.07-3-1.66-4.44l-.28-.71-.32-.69a132.94,132.94,0,0,0-9.9-18c-1.5-2.26-3.06-4.49-4.68-6.66-.46-.56-1.63-2-1.83-2.26-1-1.2-2-2.41-3.1-3.58-2.75-3-5.65-5.94-8.62-8.76a1,1,0,0,1-.77.14c-.85-.12-2-.8-2.61-.46,0,0,.23,1,.46,2.06l.46,2.09c2.12,1,2,3.46,2,5.89a12.41,12.41,0,0,0,.26,3.36,2.09,2.09,0,0,0,1.9,1.68l-.8.39c-.91-.5-1.45.34-1.66,1.53a6.79,6.79,0,0,0,.25,3.46l1.09.49c1.7-.68,2.7.79,3.63,2.77s1.73,4.52,2.86,5.7c-.07,0-.1.42-.23.67s-.29.44-.43.34,0,.9-.07,1.73-.14,1.6-.14,1.6c1.43-1.22,1.65-.83,1.59-.13s-.42,1.68.06,2c1.61-.16,3-.69,4.66.1a4.43,4.43,0,0,0,.21,2.54,8.42,8.42,0,0,0,1.17,1.76c.87,1.07,1.79,2.34.7,3.49a20,20,0,0,1,4.28,1.39,4.84,4.84,0,0,0,3.94.2,8.7,8.7,0,0,1-1.22,4.55,11.57,11.57,0,0,0-1.67,3.76c.65.57,1.25,1.15,1.94,1.78,1,.69,2.15,1.52,3.37,2.48l1.9,1.54,1,.84c.33.28.71.6.9.8,1.94,1.9,4,4,5.8,5.85l1.1,1.11C514.83,335.45,514.8,335,515,336.25Z"/><path class="cls-40" d="M480.81,317.84c-1.1-1.7-1.9-2.82-2.53-3.76s-1.11-1.68-1.63-2.55c.53.87,1.28,2.22,2,3.66s1.49,3,2.14,4.07c.22.13-.11-.76-.37-1.38S480,316.85,480.81,317.84Z"/><path class="cls-40" d="M471.47,273.06l1.05-1.83c-.36-3.39-1.77.29-2.69-1.58l.81,1.72Z"/><path class="cls-41" d="M519.14,352.25a43.08,43.08,0,0,0-6.78-8.13c-1.18-1.11-2.37-2.09-3.58-3q-.91-.7-1.82-1.34l-.92-.65-1.16-.89c-3.93-2.6-7.46-5.13-10.39-7.3s-5.26-4-7-5.25a34.24,34.24,0,0,1,2.32,5.11s-.81-.8-1.58-1.62-1.51-1.68-1.51-1.68c-.63.62-.45,2.6,1.58,9.57-.56-.85-1-1.85-1.5-2.71a2.06,2.06,0,0,1-.15,1.74c-.17.4-.25,1,.15,2.94-1.07-1.72-2-4.88-3.22-7.85a2.25,2.25,0,0,1,0,.92.37.37,0,0,1-.05.1l-.13.11a.74.74,0,0,1-.31.11,3.74,3.74,0,0,1-1.53-.42c-1.07-.4-2-.54-2,2.61-3.14-8.3-.49,6.74-3.59-.94-2.37-1.9-2.88,2.88-1.84,8.74-.38-1.53-1-6-2.17-7.52a9,9,0,0,0,0,1.79c-.13.09-1.94-1.61-1.63,1.17a11.85,11.85,0,0,0,.48,2.57c1.62,2.81,2.71,9.32,3.17,16.38s.32,14.64.24,19.7c-.11.76-.25,1.39-.38,2.12.91,1.18,1.82,1.8,2.76,1.24-.6-2.49.91-2.62-.16-4.9-.14.06-.22.65-.36.72q-.71-1.34-1.43-2.66c.55-2.47,3-.3,2.75-5.83,1.24,1.05,2.18,5.12,3.18,8,1.64-.26,4.11,3.13,4.78-1.9,1.4-1.94,2.43,2.79,3.34,6.42.43-2.58,2.11-.54,1.85-4.57a22.31,22.31,0,0,1,2.35,6.1c.72,2.53,1.17,5.42,2,7.66,2.14,1.89,1.79-1.53,2.54-5,1.79-.41,2.15,2.46,2.45,5.2s.6,5.34,2.88,4.09a1.39,1.39,0,0,0,1.16-.67,9.67,9.67,0,0,1,0,1.74l1.15-.64a9.27,9.27,0,0,0,.12-4.47,12.41,12.41,0,0,0-.11-4.84c1.31,1.07,2.33.26,3.27-.44s1.8-1.37,3.07,0a16.81,16.81,0,0,1,.13-3.52,5.16,5.16,0,0,1,.3-1.08,4.09,4.09,0,0,1,.4-.82,3.43,3.43,0,0,1,2.5-1.27,3.2,3.2,0,0,0,2.52-1.55,5.14,5.14,0,0,0,.63-2.11,10.63,10.63,0,0,0,0-1.55q0-.43-.07-.92t-.16-1c1.29-1.86,1.86-4.71,1.83-7.87S519.32,355.62,519.14,352.25Z"/></g></g></g></svg>