<svg xmlns="http://www.w3.org/2000/svg" xmlns:xlink="http://www.w3.org/1999/xlink" viewBox="0 0 500.9 573.47"><defs><style>.cls-1{fill:#424242;}.cls-2,.cls-8{fill:#e0e0e0;}.cls-3,.cls-7,.cls-9{fill:#bdbdbd;}.cls-3{opacity:0.7;}.cls-4{opacity:0.3;}.cls-14,.cls-5{fill:#f5f5f5;}.cls-5{opacity:0.51;}.cls-13,.cls-6{fill:#757575;}.cls-11,.cls-8{opacity:0.66;}.cls-14,.cls-9{opacity:0.35;}.cls-10,.cls-15,.cls-21{fill:none;}.cls-10{stroke:#e0e0e0;stroke-width:13px;}.cls-10,.cls-15,.cls-16,.cls-21{stroke-miterlimit:10;}.cls-11{fill:url(#linear-gradient);}.cls-12{fill:#eee;}.cls-13{opacity:0.22;}.cls-15,.cls-21{stroke:#616161;}.cls-15{stroke-linecap:round;stroke-width:2.02px;}.cls-16{fill:#90a4ae;stroke:#bdbdbd;}.cls-17{fill:#616161;}.cls-18{opacity:0.63;}.cls-19{fill:#546e7a;}.cls-20{fill:#37474f;}</style><linearGradient id="linear-gradient" x1="250.45" y1="476.68" x2="250.45" y2="284.03" gradientUnits="userSpaceOnUse"><stop offset="0" stop-color="#e0e0e0"/><stop offset="1" stop-color="#bdbdbd"/></linearGradient></defs><title>starwars-stormtrooper</title><g id="Layer_2" data-name="Layer 2"><g id="Layer_1-2" data-name="Layer 1"><g id="Stormtrooper"><g id="clothes1"><path class="cls-1" d="M292.45,457.08v5a42,42,0,1,1-84,0v-5a123.75,123.75,0,0,0-81.7,116.38h247.4A123.75,123.75,0,0,0,292.45,457.08Z"/><rect class="cls-2" x="126.75" y="553.28" width="40.7" height="20.19"/><rect class="cls-3" x="126.75" y="553.28" width="40.7" height="20.19"/><path class="cls-2" d="M174.78,467.35a111.6,111.6,0,0,0-73.09,93.77h52.25a15,15,0,0,0,15-13.9l5.89-79.87"/><rect class="cls-2" x="333.45" y="553.28" width="40.7" height="20.19" transform="translate(707.6 1126.75) rotate(-180)"/><rect class="cls-3" x="333.45" y="553.28" width="40.7" height="20.19" transform="translate(707.6 1126.75) rotate(-180)"/><path class="cls-2" d="M326.12,467.35a111.6,111.6,0,0,1,73.09,93.77H347a15,15,0,0,1-15-13.9l-5.89-79.87"/><path class="cls-2" d="M250.45,573.47h83s-29.84-112.36-41-116.38h-84c-11.16,4-41,116.38-41,116.38Z"/><path class="cls-4" d="M250.45,536.2c33.11,0,70.28-10.62,104-29.64a124.07,124.07,0,0,0-62-49.47h-84a124.07,124.07,0,0,0-62,49.47C180.17,525.58,217.34,536.2,250.45,536.2Z"/></g><polygon class="cls-1" points="64.33 215.23 52.61 215.23 52.61 164.62 64.33 156.86 64.33 215.23"/><polygon class="cls-1" points="448.44 215.23 436.51 215.23 436.51 156.86 448.44 164.62 448.44 215.23"/><path class="cls-2" d="M437,148C437,15.63,305.85,0,250.45,0S63.26,19.94,63.26,152.29v27.45l.48,22.87H437.16l.48-22.87Z"/><path class="cls-5" d="M268.57,17.44a9.1,9.1,0,0,0-1-2.58c-2.47-4.1-7.58-5.47-12.23-6.29-33.35-5.93-67.6.8-98.88,13.68-39.07,16.1-68.68,46-77.12,71.09,24.89-20.94,153.22-33.78,183.9-51.78C276,34,269.43,21,268.57,17.44Z"/><polygon class="cls-1" points="58.88 200.72 58.88 281.12 103.95 281.12 58.88 200.72"/><polygon class="cls-1" points="442.02 200.72 442.02 281.12 396.95 281.12 442.02 200.72"/><rect class="cls-6" x="20.11" y="251.05" width="17.68" height="17.68" rx="8.84" ry="8.84"/><rect class="cls-6" x="463.11" y="251.05" width="17.68" height="17.68" rx="8.84" ry="8.84" transform="translate(943.89 519.78) rotate(-180)"/><rect class="cls-2" x="28.96" y="217.37" width="20.38" height="85.03" rx="10.19" ry="10.19"/><rect class="cls-2" x="39.14" y="207.7" width="20.38" height="174.09" rx="10.19" ry="10.19"/><rect class="cls-2" x="451.57" y="217.37" width="20.38" height="85.03" rx="10.19" ry="10.19" transform="translate(923.52 519.78) rotate(180)"/><rect class="cls-2" x="441.38" y="207.7" width="20.38" height="174.09" rx="10.19" ry="10.19"/><circle class="cls-2" cx="49.33" cy="393.79" r="49.33"/><circle class="cls-2" cx="451.57" cy="393.79" r="49.33"/><path class="cls-2" d="M250.45,246.2c-47.91,0-71.84,101.65-164.33,135.59-54.5,20-48.23,55.82-45.52,68,8.73,39,58.23,56.42,119.09,57s53.18-34.82,90.76-34.82"/><path class="cls-2" d="M250.45,246.2c47.91,0,71.84,101.65,164.33,135.59,54.5,20,48.23,55.82,45.52,68-8.73,39-58.23,56.42-119.09,57S288,471.92,250.45,471.92"/><path class="cls-7" d="M108,473.93c-6.4-13.28,9.9-40.81,45.7-30.81s56.83,6.1,56.83,6.1l.37,26.9s-4.9,31-39.06,31C133.69,507.12,124,507.13,108,473.93Z"/><path class="cls-8" d="M112.5,465.94c-5.83-12.09,9-37.16,41.61-28.05s59.29,5.55,59.29,5.55l.34,24.49s-4.46,28.22-35.56,28.22C143.48,496.16,127.07,496.16,112.5,465.94Z"/><path class="cls-2" d="M414.78,251c-48.93-16.86-68.16-70.18-100.33-83-34.77-13.84-48.91-15-64-15.19h0c-15.09.15-29.23,1.35-64,15.19-32.18,12.81-51.4,66.13-100.33,83s-29.82,93.41-29.82,93.41l51.83,70.38,142.32-3.28,142.32,3.28,51.83-70.38S463.71,267.91,414.78,251Z"/><path class="cls-9" d="M98.86,387c22.44,16.77,45.46,39.56,59.74,68.22A42.82,42.82,0,0,0,181.84,476c-10.66-40.7-123.08-202-122.59-159.9.28,24,0,20.33.28,29.39C64.85,350,93.62,383,98.86,387Z"/><path class="cls-5" d="M305.44,245c-.59-21.26-13.12-60.16-32.61-68.66a55.08,55.08,0,0,0-22.38-4.51h0a55.08,55.08,0,0,0-22.38,4.51c-19.49,8.49-32,47.4-32.61,68.66-1.3,46.75-5,124.31-9,153.49,48.34-101.39,82.31-99.39,124.32-2.67C306.77,366.66,306.74,291.77,305.44,245Z"/><path class="cls-10" d="M414.78,381.79C322.3,347.84,298.36,219.42,250.45,219.42S178.61,347.84,86.12,381.79"/><path class="cls-9" d="M402,387c-22.44,16.77-45.46,39.56-59.74,68.22A42.82,42.82,0,0,1,319.07,476c10.66-40.7,123.08-202,122.59-159.9-.28,24,0,20.33-.28,29.39C436,350,407.29,383,402,387Z"/><path class="cls-11" d="M250.45,335c-44,0-64,113.14-64,113.14,6,43,64,20.32,64,20.32s58,22.68,64-20.32C314.45,448.12,294.45,335,250.45,335Z"/><path class="cls-7" d="M393,473.93c6.4-13.28-9.9-40.81-45.7-30.81s-56.83,6.1-56.83,6.1l-.37,26.9s4.9,31,39.06,31C367.21,507.12,377,507.13,393,473.93Z"/><path class="cls-8" d="M388.4,465.94c5.83-12.09-9-37.16-41.61-28.05s-59.29,5.55-59.29,5.55l-.34,24.49s4.46,28.22,35.56,28.22C357.42,496.16,373.84,496.16,388.4,465.94Z"/><circle class="cls-6" cx="153.65" cy="474.12" r="22.86"/><circle class="cls-12" cx="153.65" cy="474.12" r="20.23"/><circle class="cls-2" cx="153.65" cy="477.58" r="20.23"/><circle class="cls-7" cx="153.65" cy="477.58" r="15.42"/><path class="cls-12" d="M153.65,490.39a15.41,15.41,0,0,1-15.35-14.11c0,.43-.07.86-.07,1.3a15.42,15.42,0,1,0,30.83,0c0-.44,0-.87-.07-1.3A15.41,15.41,0,0,1,153.65,490.39Z"/><path class="cls-13" d="M153.65,464.78A15.41,15.41,0,0,1,169,478.89c0-.43.07-.86.07-1.3a15.42,15.42,0,1,0-30.83,0c0,.44,0,.87.07,1.3A15.41,15.41,0,0,1,153.65,464.78Z"/><circle class="cls-6" cx="347.25" cy="474.12" r="22.86"/><circle class="cls-12" cx="347.25" cy="474.12" r="20.23"/><circle class="cls-2" cx="347.25" cy="477.58" r="20.23"/><circle class="cls-7" cx="347.25" cy="477.58" r="15.42"/><path class="cls-12" d="M347.25,490.39a15.41,15.41,0,0,0,15.35-14.11c0,.43.07.86.07,1.3a15.42,15.42,0,0,1-30.83,0c0-.44,0-.87.07-1.3A15.41,15.41,0,0,0,347.25,490.39Z"/><path class="cls-13" d="M347.25,464.78a15.41,15.41,0,0,0-15.35,14.11c0-.43-.07-.86-.07-1.3a15.42,15.42,0,1,1,30.83,0c0,.44,0,.87-.07,1.3A15.41,15.41,0,0,0,347.25,464.78Z"/><rect class="cls-1" x="252.82" y="348.2" width="21.26" height="130.87" rx="10.63" ry="10.63" transform="translate(526.9 827.28) rotate(-180)"/><rect class="cls-1" x="265.29" y="372.49" width="17.59" height="103.95" rx="8.79" ry="8.79" transform="translate(548.16 848.93) rotate(180)"/><rect class="cls-1" x="275.66" y="415.82" width="16.89" height="45.91" rx="6.1" ry="6.1" transform="translate(568.22 877.55) rotate(-180)"/><path class="cls-1" d="M250.45,345.76a11,11,0,0,0-11,11V467.89a11,11,0,1,0,22,0V356.76A11,11,0,0,0,250.45,345.76Z"/><rect class="cls-1" x="226.82" y="348.2" width="21.26" height="130.87" rx="10.63" ry="10.63"/><rect class="cls-1" x="218.03" y="372.49" width="17.59" height="103.95" rx="8.79" ry="8.79"/><rect class="cls-1" x="208.35" y="415.82" width="16.89" height="45.91" rx="6.1" ry="6.1"/><path class="cls-14" d="M453,360.19a28.16,28.16,0,0,1,21.43,17.23c-8.65,11.9-22.87,30.07-22.87,30.07s-8.26-21.18-36.78-25.7C424.23,375.8,453,360.19,453,360.19Z"/><path class="cls-14" d="M47.9,360.19a28.16,28.16,0,0,0-21.43,17.23c8.65,11.9,22.87,30.07,22.87,30.07s8.26-21.18,36.78-25.7C76.68,375.8,47.9,360.19,47.9,360.19Z"/><path class="cls-14" d="M94.45,389.32S82,386.69,67.92,400.62s17.9,57.06,34.45,42.5c15.07-13.26,50.17-4,31-23A226.81,226.81,0,0,0,94.45,389.32Z"/><path class="cls-14" d="M406.45,389.32s12.46-2.63,26.53,11.3-17.9,57.06-34.45,42.5c-15.07-13.26-50.17-4-31-23A226.81,226.81,0,0,1,406.45,389.32Z"/><path class="cls-15" d="M31.62,374.81s2.48-8.08,13.92-11.29"/><path class="cls-15" d="M34.34,378.76s2.73-8.92,15.38-12.47"/><path class="cls-15" d="M37,382.71s3-9.76,16.84-13.65"/><path class="cls-15" d="M39.76,386.66s3.24-10.6,18.3-14.84"/><path class="cls-15" d="M42.48,390.61s3.49-11.44,19.76-16"/><path class="cls-15" d="M45.19,394.56s3.74-12.29,21.22-17.2"/><path class="cls-15" d="M47.9,398.51s4-13.13,22.68-18.39"/><path class="cls-15" d="M469.28,374.81s-2.48-8.08-13.92-11.29"/><path class="cls-15" d="M466.57,378.76s-2.73-8.92-15.38-12.47"/><path class="cls-15" d="M463.85,382.71s-3-9.76-16.84-13.65"/><path class="cls-15" d="M461.14,386.66s-3.24-10.6-18.3-14.84"/><path class="cls-15" d="M458.43,390.61s-3.49-11.44-19.76-16"/><path class="cls-15" d="M455.71,394.56s-3.74-12.29-21.22-17.2"/><path class="cls-15" d="M453,398.51s-4-13.13-22.68-18.39"/><path class="cls-16" d="M250.45,219.42c-47.91,0-71.85,128.43-164.33,162.37C178.61,347.84,202.54,246.2,250.45,246.2S322.3,347.84,414.78,381.79C322.3,347.84,298.36,219.42,250.45,219.42Z"/><path class="cls-17" d="M250.45,246.2l-.88,0a25.59,25.59,0,0,0-2.57.23,36.92,36.92,0,0,0-9.37,2.54,49.15,49.15,0,0,0-6.15,3.18,62,62,0,0,0-6.63,4.76,122.47,122.47,0,0,0-13.93,13.79c-4.76,5.4-9.63,11.52-14.7,18.06s-10.35,13.51-16,20.56S168.52,323.64,162,330.63a253.72,253.72,0,0,1-20.79,20.11,192.26,192.26,0,0,1-23.37,17.11c-4.05,2.54-8.21,4.84-12.4,7s-8.4,4.05-12.62,5.75c-2.09.88-4.25,1.65-6.29,2.43l-3.09,1.18c-1,.38-2.06.77-3,1.2l-2.94,1.25c-1,.42-1.92.9-2.87,1.35-1.92.87-3.72,1.9-5.53,2.85a85.38,85.38,0,0,0-9.92,6.58A62.93,62.93,0,0,0,51.09,405a46.7,46.7,0,0,0-11.89,31.59,63.31,63.31,0,0,0,.79,9.72c.36,2.23.61,3.41.61,3.41s-.31-1.17-.77-3.38a57.81,57.81,0,0,1-1.22-9.74,49.14,49.14,0,0,1,1.79-15.18,47.17,47.17,0,0,1,9.41-17.51,64.73,64.73,0,0,1,8.14-8,87.41,87.41,0,0,1,10-7c1.83-1,3.66-2.11,5.6-3,1-.48,1.92-1,2.91-1.44l3-1.35c4-1.78,8.22-3.23,12.34-5a171.19,171.19,0,0,0,24.5-12.73,190.05,190.05,0,0,0,23-16.93,250.78,250.78,0,0,0,20.62-19.8c6.44-6.91,12.52-14,18.23-20.95l16.38-20.26c5.22-6.44,10.24-12.49,15.16-17.83a110,110,0,0,1,14.49-13.54,63,63,0,0,1,6.89-4.6,49.84,49.84,0,0,1,6.36-3,35.23,35.23,0,0,1,9.57-2.16,25.67,25.67,0,0,1,2.58-.11Z"/><path class="cls-17" d="M250.45,246.2h.89a25.67,25.67,0,0,1,2.58.11,35.23,35.23,0,0,1,9.57,2.16,49.84,49.84,0,0,1,6.36,3,63,63,0,0,1,6.89,4.6,110,110,0,0,1,14.49,13.54c4.92,5.35,9.94,11.39,15.16,17.83l16.38,20.26c5.72,7,11.8,14,18.23,20.95a250.78,250.78,0,0,0,20.62,19.8,190.05,190.05,0,0,0,23,16.93,171.19,171.19,0,0,0,24.5,12.73c4.12,1.75,8.33,3.2,12.34,5l3,1.35c1,.46,1.94,1,2.91,1.44,1.94.93,3.76,2,5.6,3a87.41,87.41,0,0,1,10,7,64.73,64.73,0,0,1,8.14,8,47.17,47.17,0,0,1,9.41,17.51,49.14,49.14,0,0,1,1.79,15.18,57.81,57.81,0,0,1-1.22,9.74c-.46,2.21-.77,3.38-.77,3.38s.25-1.18.61-3.41a63.31,63.31,0,0,0,.79-9.72A46.7,46.7,0,0,0,449.81,405a62.93,62.93,0,0,0-8.07-7.62,85.38,85.38,0,0,0-9.92-6.58c-1.82-.95-3.61-2-5.53-2.85-1-.44-1.9-.92-2.87-1.35l-2.94-1.25c-1-.43-2-.82-3-1.2L414.36,383c-2-.78-4.21-1.55-6.29-2.43-4.23-1.7-8.45-3.62-12.62-5.75s-8.34-4.42-12.4-7a192.27,192.27,0,0,1-23.37-17.11,253.72,253.72,0,0,1-20.79-20.11c-6.49-7-12.48-14.2-18.16-21.26s-11-14-16-20.56-9.94-12.66-14.7-18.06A122.47,122.47,0,0,0,276.05,257a62,62,0,0,0-6.63-4.76,49.14,49.14,0,0,0-6.15-3.18,36.92,36.92,0,0,0-9.37-2.54,25.59,25.59,0,0,0-2.57-.23Z"/><g class="cls-18"><path class="cls-19" d="M151,340.25V338l-10.63,10.62v1.17C144.06,347.29,147.59,342.75,151,340.25Z"/><path class="cls-19" d="M226.82,254.66c3.47-1.69,7-4.78,10.63-5.75V231.12l-10.63,7.11Z"/><path class="cls-19" d="M179.82,307.87v-8.06L169.19,315v5.39C172.88,317.27,176.41,310.88,179.82,307.87Z"/><path class="cls-19" d="M208.63,256.85,198,273.2v11.62c3.62-3.14,7.14-10.12,10.63-12.83Z"/><path class="cls-19" d="M349.9,340.25V338l10.63,10.62v1.17C356.85,347.29,353.31,342.75,349.9,340.25Z"/><path class="cls-19" d="M274.08,254.66c-3.47-1.69-7-4.78-10.63-5.75V231.12l10.63,7.11Z"/><path class="cls-19" d="M321.09,307.87v-8.06L331.72,315v5.39C328,317.27,324.49,310.88,321.09,307.87Z"/><path class="cls-19" d="M292.27,256.85,302.9,273.2v11.62c-3.62-3.14-7.14-10.12-10.63-12.83Z"/></g><g class="cls-18"><path class="cls-20" d="M151,340.25V338l-10.63,10.62v1.17C144.06,347.29,147.59,342.75,151,340.25Z"/><path class="cls-20" d="M226.82,240.92c3.47-1.69,7-4.78,10.63-5.75v-4.05l-10.63,7.11Z"/><path class="cls-20" d="M179.82,303.84v-4L169.19,315v1.36C172.88,313.24,176.41,306.85,179.82,303.84Z"/><path class="cls-20" d="M208.63,256.85,198,273.2v2.25c3.62-3.14,7.14-10.12,10.63-12.83Z"/><path class="cls-20" d="M349.9,340.25V338l10.63,10.62v1.17C356.85,347.29,353.31,342.75,349.9,340.25Z"/><path class="cls-20" d="M274.08,240.92c-3.47-1.69-7-4.78-10.63-5.75v-4.05l10.63,7.11Z"/><path class="cls-20" d="M321.09,303.84v-4L331.72,315v1.36C328,313.24,324.49,306.85,321.09,303.84Z"/><path class="cls-20" d="M292.27,256.85,302.9,273.2v2.25c-3.62-3.14-7.14-10.12-10.63-12.83Z"/></g><path class="cls-7" d="M441.38,198.33c0-28.5-128.89-39-190.93-39s-190.93,10.47-190.93,39c0,0-4.64,34.1,11.06,49.8,12.89,12.89,74.7,9.43,97.7-24.33,33.83-49.67,82.16-49.67,82.17-49.67s48.33,0,82.17,49.67c23,33.76,84.81,37.22,97.7,24.33C446,232.42,441.38,198.33,441.38,198.33Z"/><path class="cls-2" d="M441.38,191c0-36.42-89.6-55.92-190.93-55.92S59.52,154.62,59.52,191c0,0-3.23,48.08,17,51.85,42.78,8,88.95-49.17,141.48-65.1a144.33,144.33,0,0,1,32.42-5.93,144.33,144.33,0,0,1,32.42,5.93c52.53,15.93,98.7,73.06,141.48,65.1C444.61,239.12,441.38,191,441.38,191Z"/><path class="cls-14" d="M441.42,188.58c0-23.49-49.47-51.63-191-53.46-141.5,1.83-191,30-191,53.46,0,0-2.58,39.57,17.6,43.75,48.33,10,94.41-70.35,146.11-74.46,22.75-1.81,27.26-1,27.26-1s4.51-.84,27.26,1c51.71,4.11,97.78,84.46,146.11,74.46C444,228.16,441.42,188.58,441.42,188.58Z"/><path class="cls-1" d="M89.62,178.29c18.41-9.43,50.32-22.08,78.43-20.92s5.84,16.23-28.61,40.69c-33.37,23.69-51,17.53-53.67,12.62C76.62,194,83.87,181.23,89.62,178.29Z"/><path class="cls-7" d="M168,157.36c-28.11-1.16-63.55,10.94-78.43,20.92-13.55,9.08-13.19,18.07-4.58,31.3-5.34-13.13-.34-19,5.29-22.69,17.24-11.43,53.08-23.62,81.2-22.46,2.24.09,6.58,1.1,8.2,1.26C182.73,160.31,182.25,157.95,168,157.36Z"/><path class="cls-1" d="M411.28,178.29c-18.41-9.43-50.32-22.08-78.43-20.92s-5.84,16.23,28.61,40.69c33.37,23.69,51,17.53,53.67,12.62C424.28,194,417,181.23,411.28,178.29Z"/><path class="cls-7" d="M332.85,157.36c28.11-1.16,63.55,10.94,78.43,20.92,13.55,9.08,13.19,18.07,4.58,31.3,5.34-13.13.34-19-5.29-22.69-17.24-11.43-53.08-23.62-81.2-22.46-2.24.09-6.58,1.1-8.2,1.26C318.17,160.31,318.65,157.95,332.85,157.36Z"/><path class="cls-1" d="M448.35,171.86l-.65-22.24-3-3.45-2-11.72s-7.06-32.64-186.08-33.13H252.5c-186.66.47-194,33.13-194,33.13l-2,11.72-3.19,3.45-.68,22.24s13.3-35.45,201.95-35.71C435.59,136.41,448.35,171.86,448.35,171.86Z"/><rect class="cls-17" x="232.14" y="352.92" width="5.31" height="85.86" rx="2.66" ry="2.66"/><rect class="cls-17" x="220.57" y="377.2" width="5.31" height="85.86" rx="2.66" ry="2.66"/><path class="cls-17" d="M213.73,455.22h0c-1.46,0-2.66.13-2.66-1.33V422.78a2.67,2.67,0,0,1,2.66-2.66h0a2.67,2.67,0,0,1,2.66,2.66v29.78A2.67,2.67,0,0,1,213.73,455.22Z"/><rect class="cls-17" x="245.42" y="349.67" width="5.31" height="85.86" rx="2.66" ry="2.66"/><rect class="cls-17" x="260.79" y="350.86" width="5.31" height="85.86" rx="2.66" ry="2.66"/><rect class="cls-17" x="260.79" y="352.92" width="5.31" height="85.86" rx="2.66" ry="2.66"/><path class="cls-21" d="M59.52,261.68,59.24,338a14,14,0,0,1-6.62,11.7c-17.49,10.74-31.89,22-31.89,39.57a31.83,31.83,0,0,0,21,29.93"/><path class="cls-21" d="M441.38,262.39l.28,76.37a14,14,0,0,0,6.62,11.7c17.49,10.74,31.89,22,31.89,39.57a31.83,31.83,0,0,1-21,29.93"/></g></g></g></svg>