<svg xmlns="http://www.w3.org/2000/svg" viewBox="0 0 760 1055.56"><defs><style>.cls-1,.cls-11,.cls-4,.cls-5{fill:none;}.cls-2{fill:#757575;}.cls-10,.cls-3{fill:#424242;}.cls-4,.cls-5{stroke:#212121;stroke-width:3.29px;}.cls-10,.cls-11,.cls-4,.cls-5{stroke-miterlimit:10;}.cls-10,.cls-11,.cls-5{stroke-linecap:round;}.cls-6{fill:#212121;}.cls-7{opacity:0.3;}.cls-12,.cls-8{fill:#bdbdbd;}.cls-8{opacity:0.5;}.cls-9{fill:#616161;}.cls-10,.cls-11{stroke:#424242;stroke-width:3.69px;}.cls-13{fill:#e0e0e0;}</style></defs><title>starwarsdarthvader</title><g id="Layer_2" data-name="Layer 2"><g id="Layer_1-2" data-name="Layer 1"><rect class="cls-1" width="760" height="1055.56"/><g id="Darth_Vader" data-name="Darth Vader"><g id="clothes1"><path d="M431.66,912.39v6.2a51.66,51.66,0,1,1-103.33,0v-6.2a152.23,152.23,0,0,0-100.51,143.17H532.17A152.22,152.22,0,0,0,431.66,912.39Z"/><path class="cls-2" d="M364.09,1055.56h32.5s-7.3-71.58,19.33-135.91L380,921.12l-35.24-1.47C371.39,984,364.09,1055.56,364.09,1055.56Z"/><path class="cls-2" d="M310.14,920.38a152.39,152.39,0,0,0-26.49,17.41c23.52,41,28.74,82.8,29.78,103.85,10.46,3,20.37,6.21,29.16,9.22C342.1,1031,338.38,953.54,310.14,920.38Z"/><path class="cls-2" d="M477,937.78a152.39,152.39,0,0,0-26.49-17.41c-27.69,32.53-31.81,107.66-32.42,129.26,8.9-3,18.81-6.11,29.18-9C448.46,1019.25,453.89,978.08,477,937.78Z"/><path class="cls-3" d="M368.31,1055.56s3.51-74.24-23.55-135.91H309.52c23.12,24.67,27.69,106.41,28.53,129.67,6.53,2.19,12.54,4.31,17.82,6.24Z"/><path class="cls-3" d="M283.85,937.64h0a153,153,0,0,0-28.38,30.5c.15.14,20.63,19.89,26.74,65.62,10.48,2.23,21,4.93,31,7.8C311.77,1019.78,306.18,976.26,283.85,937.64Z"/><path class="cls-3" d="M451.16,919.65H415.92c-27.06,61.67-23.55,135.91-23.55,135.91h8.88c6.23-2.28,13.49-4.83,21.42-7.43C423.62,1023.38,428.42,943.91,451.16,919.65Z"/><path class="cls-3" d="M505.22,968.14a153,153,0,0,0-28.38-30.5h0c-22,38-27.75,80.79-29.23,102.89,10.06-2.82,20.56-5.43,31-7.53C484.83,987.81,505.08,968.28,505.22,968.14Z"/><path class="cls-4" d="M449.27,969.2c-1.16.67-2.35,1.29-3.57,1.86"/><path class="cls-5" d="M445.7,971.06c-1.2.6-2.44,1.11-3.67,1.65"/><path class="cls-5" d="M434.35,975.6c-1.28.41-2.54.87-3.83,1.23"/><line class="cls-4" x1="430.52" y1="976.83" x2="426.66" y2="977.96"/><path class="cls-5" d="M433.63,970.07c1.77-.65,3.56-1.28,5.28-2a5.51,5.51,0,0,1,6.8,3,5.21,5.21,0,0,1-2.65,7.15c-1.93.81-3.88,1.5-5.82,2.21a5.27,5.27,0,0,1-6.71-3.59A5.42,5.42,0,0,1,433.63,970.07Z"/><line class="cls-4" x1="426.66" y1="977.96" x2="422.76" y2="978.95"/><path class="cls-5" d="M422.76,978.95c-1.29.35-2.61.61-3.92.9"/><path class="cls-5" d="M410.77,981.39c-1.32.25-2.65.42-4,.61"/><line class="cls-4" x1="406.79" y1="982" x2="402.81" y2="982.55"/><path class="cls-5" d="M411,975.8c1.89-.33,3.78-.64,5.64-1.07a4.87,4.87,0,0,1,3.81.83,5.75,5.75,0,0,1,2.35,3.4,5.53,5.53,0,0,1-.59,4.14,5.14,5.14,0,0,1-3.32,2.36c-2,.46-4,.79-6,1.15a5.26,5.26,0,0,1-6-4.6A5.44,5.44,0,0,1,411,975.8Z"/><path class="cls-4" d="M402.81,982.55c-1.33.17-2.67.27-4,.41"/><line class="cls-5" x1="398.81" y1="982.96" x2="394.81" y2="983.35"/><line class="cls-5" x1="386.6" y1="983.81" x2="382.58" y2="983.89"/><line class="cls-4" x1="382.58" y1="983.89" x2="378.56" y2="983.97"/><path class="cls-5" d="M387.51,978.29l5.77-.34a5.4,5.4,0,0,1,5.54,5,5.29,5.29,0,0,1-4.75,5.92l-6.09.36a5.49,5.49,0,0,1-.47-10.95Z"/><line class="cls-4" x1="378.56" y1="983.97" x2="374.54" y2="983.89"/><line class="cls-5" x1="374.54" y1="983.89" x2="370.52" y2="983.81"/><line class="cls-5" x1="362.32" y1="983.35" x2="358.31" y2="982.96"/><path class="cls-4" d="M358.31,983c-1.33-.14-2.67-.25-4-.41"/><path class="cls-5" d="M363.85,977.95l5.77.34a5.49,5.49,0,0,1-.47,10.95l-6.09-.36a5.29,5.29,0,0,1-4.75-5.92A5.4,5.4,0,0,1,363.85,977.95Z"/><line class="cls-4" x1="354.31" y1="982.55" x2="350.33" y2="982"/><path class="cls-5" d="M350.33,982c-1.33-.18-2.66-.35-4-.61"/><path class="cls-5" d="M338.28,979.85c-1.31-.28-2.62-.55-3.92-.9"/><line class="cls-4" x1="334.37" y1="978.95" x2="330.47" y2="977.96"/><path class="cls-5" d="M340.53,974.72c1.86.43,3.75.74,5.64,1.07a5.44,5.44,0,0,1,4.16,6.2,5.26,5.26,0,0,1-6,4.6c-2-.36-4-.69-6-1.15a5.14,5.14,0,0,1-3.32-2.36,5.53,5.53,0,0,1-.59-4.14,5.75,5.75,0,0,1,2.35-3.4A4.87,4.87,0,0,1,340.53,974.72Z"/><line class="cls-4" x1="330.47" y1="977.96" x2="326.61" y2="976.83"/><path class="cls-5" d="M326.61,976.83c-1.29-.36-2.55-.82-3.83-1.23"/><path class="cls-5" d="M315.09,972.71c-1.23-.54-2.46-1.06-3.67-1.65"/><path class="cls-4" d="M311.42,971.06c-1.21-.57-2.4-1.19-3.57-1.86"/><path class="cls-5" d="M318.22,968.07c1.72.73,3.51,1.35,5.28,2a5.42,5.42,0,0,1,3.11,6.76,5.27,5.27,0,0,1-6.71,3.59c-1.95-.71-3.9-1.4-5.82-2.21a5.21,5.21,0,0,1-2.65-7.15A5.51,5.51,0,0,1,318.22,968.07Z"/><path class="cls-6" d="M339,950a51.42,51.42,0,0,1-10.64-31.38v-6.2a152.23,152.23,0,0,0-100.51,143.17h56C283.85,996.76,315.53,965.24,339,950Z"/><path class="cls-6" d="M421,950a51.42,51.42,0,0,0,10.64-31.38v-6.2a152.23,152.23,0,0,1,100.51,143.17h-56C476.15,996.76,444.47,965.24,421,950Z"/><path class="cls-7" d="M380,1009.71c40.73,0,86.46-13.06,128-36.46a152.63,152.63,0,0,0-76.32-60.86H328.34A152.63,152.63,0,0,0,252,973.25C293.54,996.65,339.27,1009.71,380,1009.71Z"/></g><path d="M501.77,868.18l-121.33-2.76h-.2l-121.33,2.76s46.64,59.57,30.67,69.46c-17,7.86,48.17,27.11,90.76,27.11s107.78-19.24,90.76-27.11C455.13,927.74,501.77,868.18,501.77,868.18Z"/><path class="cls-6" d="M704.05,850.13l-24.62-25.37L610.33,565c-1.15-158.13-99-242.31-230.33-242.31S150.82,406.85,149.67,565L80.57,824.76,55.95,850.13S20.68,913.33,380,913.33,704.05,850.13,704.05,850.13Z"/><path d="M149.67,565,80.57,824.76,55.95,850.13S20.68,913.33,380,913.33s324.05-63.2,324.05-63.2l-24.62-25.37L610.33,565l-230-26.51Z"/><path class="cls-6" d="M380,875.79H279.75c-5.42,0-7.22,5.23-2.44,7.07l100.25,38.4a7,7,0,0,0,4.87,0l100.25-38.4c4.79-1.83,3-7.07-2.44-7.07Z"/><path d="M283.85,875.79l93.72,35.9a7,7,0,0,0,4.87,0l93.72-35.9H283.85Z"/><path d="M206.45,749.52l63.06,95.36,73.15-113.79S277.06,719.28,206.45,749.52Z"/><polygon class="cls-6" points="192.61 749.52 252.91 866.18 265.21 863.45 265.62 852.51 192.61 749.52"/><path class="cls-6" d="M247.4,811.45s23.11-47.1,95.26-87.53c-43.5,67-75,118.21-75,118.21Z"/><path class="cls-6" d="M245.1,815.94s-3.08-4.89-8.41-1.08c9,21.62,25.42,36.28,25.42,36.28l8.41,1.19Z"/><polygon class="cls-3" points="260.9 858.68 231.46 810.95 264.97 855.91 260.9 858.68"/><path class="cls-3" d="M353.51,540.12c-36.89-68.89-186.57-60-212.34,50.49C107.23,736.13,55.95,850.13,55.95,850.13s4.67,4,25.72-26.2c30-43.1,59.47-131,77.55-187,33.39-103.4,136.28-93.59,199-58.53,0,0,15.81-4.62,21.74-4.62Z"/><path class="cls-3" d="M406.49,540.12c36.89-68.89,186.57-60,212.34,50.49,33.94,145.53,85.22,259.53,85.22,259.53s-4.67,4-25.72-26.2c-30-43.1-59.47-131-77.55-187-33.39-103.4-136.28-93.59-199-58.53,0,0-15.81-4.62-21.74-4.62Z"/><path class="cls-3" d="M406.49,566.44,380,573.8l-26.49-7.36V326.16c0-5.58,6.22-10.11,13.89-10.11H392.6c7.67,0,13.89,4.53,13.89,10.11Z"/><path class="cls-8" d="M402.17,571.89s-8.08-4.31-22.17-4.1-22.17,4.1-22.17,4.1V328.67c0-4.67,5.21-8.46,11.63-8.46h21.08c6.42,0,11.63,3.79,11.63,8.46Z"/><path class="cls-8" d="M365.44,331.81c0-5.09,4.61-7.21,8.45-6.36h27.38c-1.74-3.07-5.88-5.24-10.73-5.24H369.46c-6.42,0-11.63,3.79-11.63,8.46V571.89a39.51,39.51,0,0,1,7.61-2.42Z"/><path class="cls-3" d="M331.41,681.17a87.61,87.61,0,0,1-19.85,13,90.39,90.39,0,0,1-22.83,7.14c-1,.17-2,.38-3,.52l-3,.41c-2,.3-4,.47-6,.63s-4,.25-6,.34c-1,0-2,.1-3,.11h-3A109.67,109.67,0,0,1,241,701a92.36,92.36,0,0,1-22.8-8,73.83,73.83,0,0,1-19.47-14.36,64.88,64.88,0,0,1-7.57-9.47,62.22,62.22,0,0,1-5.51-10.75A54.72,54.72,0,0,1,181.95,635a61.36,61.36,0,0,0,5.94,22.45,59.32,59.32,0,0,0,6,9.85,62.86,62.86,0,0,0,7.61,8.57,78.14,78.14,0,0,0,8.9,7.2,80.38,80.38,0,0,0,9.92,5.73,91.82,91.82,0,0,0,21.7,7.42,106.2,106.2,0,0,0,11.39,1.84c1.92.17,3.84.38,5.77.46,1,.05,1.92.14,2.89.17l2.91.07,2.91.07c1,0,1.94,0,2.91,0,1.94,0,3.88,0,5.82-.17s3.88-.16,5.8-.38l2.9-.26c1-.08,1.92-.25,2.88-.37l2.88-.4,2.85-.53c1.91-.31,3.79-.78,5.68-1.2,1-.19,1.87-.5,2.81-.74s1.88-.49,2.79-.81c1.84-.61,3.69-1.2,5.5-1.92A105.2,105.2,0,0,0,331.41,681.17Z"/><path class="cls-3" d="M192.61,624c17.75-60.69,120.4-54.32,148.1-13.19,3,20,2.88,29.15-.37,44.79-8.17,16.33-31.37,35.74-75.08,36.56C212.09,693.14,183.78,654.17,192.61,624Z"/><path d="M291.58,683.18c13.58-1.22,26.08-3.24,26.14-3.24s2.33-.59,2.37-.62c.44-.38,29.92-25.82,28.74-27.53-.38-.4,42.95-16.11-56.28-56.44-37.33-15.17-92.56,0-101.54,21.85C192.91,624.56,191.79,692.15,291.58,683.18Z"/><path class="cls-3" d="M177,651.79s15.58,57.8,75.88,62c56.54,3.92,96.33-41.08,106.81-57.83,4.52,0,10.07,2.62,20.27,2.62,0,4.54.12,21.53.12,21.53-17.22,1.23-38.25,5.88-37.45,43.83-78.52,2-136.21,18.43-136.21,18.43Z"/><path class="cls-9" d="M380,644.83c-9.46-.47-19.3,5.26-21.6,15.5-2.63,11.67-6.69,31.83-6.69,31.83s7.38-11.76,28.3-12.07C380,666.55,380,644.83,380,644.83Z"/><path class="cls-9" d="M380,662.29c-10.71,0-28.29,29.86-28.29,29.86s12.38-12.32,28.29-12.07Z"/><line class="cls-10" x1="411.25" y1="730.59" x2="496.86" y2="863.45"/><polygon class="cls-6" points="380 693.14 352.94 739.88 277.51 856.88 482.49 856.88 407.06 739.88 380 693.14"/><path class="cls-3" d="M380,791.55c-50.57,0-102.48,65.34-102.48,65.34h205S430.57,791.55,380,791.55Z"/><polygon points="301.34 843.35 317.7 843.35 317.7 808.47 301.34 839.11 301.34 843.35"/><polygon points="336.58 843.35 352.94 843.35 352.94 739.88 336.58 771.72 336.58 843.35"/><polygon points="371.82 843.35 388.18 843.35 388.18 731.1 380 718.97 371.82 731.1 371.82 843.35"/><polygon points="407.06 843.35 423.42 843.35 423.42 771.72 407.06 739.88 407.06 843.35"/><polygon points="442.3 843.35 458.66 843.35 458.66 839.11 442.3 808.47 442.3 843.35"/><path class="cls-2" d="M407.06,717.34a27.06,27.06,0,0,0-54.13,0v10.48s0,4.92,27.06,4.92,27.07-4.92,27.07-4.92Z"/><path class="cls-11" d="M411.25,730.59V719.38c0-18.62-12.63-33.71-31.25-33.71s-31.25,15.09-31.25,33.71v11.21L265.21,859.13"/><path class="cls-12" d="M395.91,702.69c0,5.46-7.13,1.73-15.91,1.73s-15.91,3.73-15.91-1.73,7.12-9.89,15.91-9.89S395.91,697.23,395.91,702.69Z"/><rect class="cls-6" x="301.34" y="838.84" width="16.36" height="4.51"/><rect class="cls-6" x="336.58" y="838.84" width="16.36" height="4.51"/><rect class="cls-6" x="371.82" y="838.84" width="16.36" height="4.51"/><rect class="cls-6" x="407.06" y="838.84" width="16.36" height="4.51"/><rect class="cls-6" x="442.3" y="838.84" width="16.36" height="4.51"/><polygon class="cls-2" points="282.38 851.14 271.9 863.45 488.02 863.45 477.62 851.14 282.38 851.14"/><circle class="cls-12" cx="265.21" cy="863.45" r="12.3"/><path class="cls-2" d="M275,863.45a9.76,9.76,0,1,1-19.53,0c0-5.39,4.37,2.05,9.76,2.05S275,858.05,275,863.45Z"/><circle class="cls-12" cx="494.79" cy="863.45" r="12.3"/><path class="cls-2" d="M504.55,863.45a9.76,9.76,0,1,1-19.53,0c0-5.39,4.37,2.05,9.76,2.05S504.55,858.05,504.55,863.45Z"/><path class="cls-3" d="M428.59,681.17a140.1,140.1,0,0,0,13.83,7.51A97.64,97.64,0,0,0,457,694.1c2.48.72,5,1.26,7.51,1.84s5.07,1,7.63,1.28,5.13.59,7.7.88l3.87.25,1.94.13,1.94,0,3.89.12h3.9c2.61,0,5.18,0,7.76-.18a130.73,130.73,0,0,0,15.4-1.74,106.73,106.73,0,0,0,29.57-9.89,76.74,76.74,0,0,1-28.75,13.65,98.3,98.3,0,0,1-15.88,2.65c-2.68.24-5.37.35-8,.39l-4,0-4-.1-2-.06-2-.14-4-.3-4-.49c-1.33-.14-2.66-.36-4-.61a85.86,85.86,0,0,1-15.6-4.08,79,79,0,0,1-14.51-6.94A83.75,83.75,0,0,1,428.59,681.17Z"/><path class="cls-3" d="M567.39,624c-17.75-60.69-120.4-54.32-148.1-13.19-3,20-2.88,29.15.37,44.79,8.17,16.33,31.37,35.74,75.08,36.56C547.91,693.14,576.22,654.17,567.39,624Z"/><path d="M468.42,683.18c-13.58-1.22-26.08-3.24-26.14-3.24s-2.33-.59-2.37-.62c-.44-.38-29.92-25.82-28.74-27.53.38-.4-42.95-16.11,56.28-56.44,37.33-15.17,92.56,0,101.54,21.85C567.09,624.56,568.21,692.15,468.42,683.18Z"/><path class="cls-3" d="M583,651.79s-15.58,57.8-75.88,62c-56.54,3.92-96.33-41.08-106.81-57.83-4.52,0-10.07,2.62-20.27,2.62,0,4.54-.12,21.53-.12,21.53,17.22,1.23,38.25,5.88,37.45,43.83,62.81,1.57,112.29,12.42,129.58,16.7a7.37,7.37,0,0,0,8.78-4.88Z"/><path class="cls-9" d="M379.88,644.83c9.46-.47,19.41,5.26,21.72,15.5,2.63,11.67,6.69,31.83,6.69,31.83s-7.38-11.76-28.3-12.07C380,666.55,379.88,644.83,379.88,644.83Z"/><path class="cls-9" d="M394.09,649a225.82,225.82,0,0,0,34.5,30.51c28.72,20.83,48.51,21.5,67.58,21.12,25.72-.51,44-9.38,44-9.38s-2.32,3.43-15.83,8.3a90.1,90.1,0,0,1-17,3.23c-53.51,4.31-78.73-16.17-96-25.17,17.45,32.72,65.81,41.72,97.31,39.49,22.14-1.57,1.31,7-43.87,3.57C402.07,715.92,354.78,649,394.09,649Z"/><path class="cls-12" d="M473.63,587.06c24.59-2.67,60.17,12.71,73.91,20.92,13.35,8,12.13,33-3.49,43.8C548.75,625.81,525.65,595.47,473.63,587.06Z"/><path class="cls-12" d="M536.85,621c-11,7.43-10.23-5.49-33.8-14.51-11.76-4.5-34.29-7.17-46.74-8.41,2-5,46.41-1.72,58.08,3S541.28,618.07,536.85,621Z"/><ellipse class="cls-2" cx="442.3" cy="655.07" rx="6.29" ry="14.82" transform="translate(-347.02 613.51) rotate(-52.96)"/><path class="cls-3" d="M556.73,595.35A99.18,99.18,0,0,0,539.21,584,105.83,105.83,0,0,0,520,576.38c-.83-.23-1.64-.52-2.48-.71l-2.52-.58c-1.68-.39-3.34-.84-5-1.08s-3.39-.6-5.09-.85l-5.13-.51c-1.71-.22-3.43-.18-5.14-.27s-3.43-.17-5.16-.09-3.45.06-5.17.18l-2.58.15-2.58.23a118.45,118.45,0,0,0-20.35,3.48,102.45,102.45,0,0,0-19.34,7.13,77.4,77.4,0,0,0-17.17,11.38,50.36,50.36,0,0,0-7,7.58,31.63,31.63,0,0,0-2.74,4.4,20.29,20.29,0,0,0-1.84,4.87,24.84,24.84,0,0,1,3.73-9.84,49.16,49.16,0,0,1,6.61-8.32A72.94,72.94,0,0,1,438,580.88a96.44,96.44,0,0,1,19.75-7.94,117.71,117.71,0,0,1,20.94-3.78l2.65-.21,2.66-.13c1.77-.1,3.54-.12,5.31-.14s3.55.09,5.33.14a52,52,0,0,1,5.33.35l5.3.66c1.75.29,3.49.67,5.24,1s3.46.79,5.18,1.26l2.57.71c.86.23,1.68.56,2.53.84a95,95,0,0,1,28,14.75A67.63,67.63,0,0,1,556.73,595.35Z"/><path class="cls-9" d="M365.91,649a225.92,225.92,0,0,1-34.5,30.51c-28.72,20.83-48.51,21.5-67.58,21.12-25.72-.51-44-9.38-44-9.38s2.32,3.43,15.83,8.3a90.1,90.1,0,0,0,17,3.23c53.51,4.31,78.73-16.17,96-25.17-17.45,32.72-65.81,41.72-97.31,39.49-22.14-1.57-1.44,3.57,43.87,3.57C354.37,720.69,405.22,649,365.91,649Z"/><path class="cls-12" d="M380.12,662.29c-15.7,0-16.83,19.53-17.89,29.21,8.75-7.5,28.54-7.42,39.84,2.16C401.33,680.6,392.4,662.29,380.12,662.29Z"/><path class="cls-12" d="M348.1,665.31c-6.26,5.62-16.69,15.86-31.48,23.67,6.8-.74,13.63-2.28,20-2.28,2.23,0-23.61,24-51.45,28.54,2.54,0,5.08-.14,7.62-.34s4.89-.41,7.33-.72c-.21,0,4.88-.84,5.46-1a201.44,201.44,0,0,0,29.34-7.95C345.24,697.89,348.1,671.82,348.1,665.31Z"/><path class="cls-13" d="M380.12,662.29c-21,0-27.81,40.91-27.81,40.91A29.18,29.18,0,0,1,380,686.12C395.91,685.86,384.27,662.29,380.12,662.29Z"/><path class="cls-12" d="M257.5,587.06c24.59-2.67,60.17,12.71,73.91,20.92,13.35,8,12.13,33-3.49,43.8C332.63,625.81,309.52,595.47,257.5,587.06Z"/><path class="cls-12" d="M320.72,621c-11,7.43-10.23-5.49-33.8-14.51-11.76-4.5-34.29-7.17-46.74-8.41,2-5,46.41-1.72,58.08,3S325.16,618.07,320.72,621Z"/><ellipse class="cls-2" cx="223.38" cy="655.07" rx="6.29" ry="14.82" transform="translate(-434.06 438.76) rotate(-52.96)"/><ellipse class="cls-12" cx="262" cy="618.63" rx="5.75" ry="7.39" transform="translate(-409.22 590.22) rotate(-64.62)"/><ellipse class="cls-12" cx="473.63" cy="618.63" rx="5.75" ry="7.39" transform="translate(-288.29 781.42) rotate(-64.62)"/><path class="cls-3" d="M203.27,595.35a74.73,74.73,0,0,1,10.27-8.6,101.42,101.42,0,0,1,11.49-7,99.29,99.29,0,0,1,25.42-9,104.24,104.24,0,0,1,27-1.81,119.4,119.4,0,0,1,26.71,4.41,94.11,94.11,0,0,1,24.77,11.11A68.5,68.5,0,0,1,339.64,593a46.81,46.81,0,0,1,8.51,10.86,24.66,24.66,0,0,1,2.52,6.63,17,17,0,0,1,.27,1.75l.2,1.7c.11,1.13.18,2.27.26,3.4a87.64,87.64,0,0,1-.42,13.52,101.43,101.43,0,0,1-6.21,26.07,123.78,123.78,0,0,0,4.17-26.23,98,98,0,0,0-.22-13.17c-.12-1.09-.23-2.17-.38-3.25s-.31-2.21-.54-3.15a22.21,22.21,0,0,0-2.38-5.74,43.63,43.63,0,0,0-8.1-9.95A70.41,70.41,0,0,0,327,587.49a93,93,0,0,0-23.88-10.58,119.49,119.49,0,0,0-25.89-4.47,121,121,0,0,0-13.17-.22,101.5,101.5,0,0,0-38.24,9.18,107.34,107.34,0,0,0-11.72,6.21q-2.84,1.73-5.56,3.66A63,63,0,0,0,203.27,595.35Z"/><path d="M191,612.55s35.79-39.34,81.66-36.26,67.55,27.8,67.55,27.8L342.48,624S318.9,599.9,266.75,599.9C215.19,599.9,191,612.55,191,612.55Z"/><path d="M342.48,612.55s-35.79-39.34-81.66-36.26-67.55,27.8-67.55,27.8L191,624s23.58-24.07,75.73-24.07C318.31,599.9,342.48,612.55,342.48,612.55Z"/><path d="M414.75,628.27s17.68-53,76.27-50.54c45.93,1.91,67.4,26.35,67.4,26.35L560.68,624S537.1,599.9,484.94,599.9C433.39,599.9,414.75,628.27,414.75,628.27Z"/><path class="cls-9" d="M378.49,587.74c-14.92,0-21.24,9.52-21.24,9.52h42.47S393.41,587.74,378.49,587.74Z"/><path class="cls-9" d="M378.49,604c-13.39,0-19.06,8.54-19.06,8.54h38.11S391.88,604,378.49,604Z"/><path class="cls-9" d="M378.49,620.23c-12.07,0-17.18,7.7-17.18,7.7h34.36S390.56,620.23,378.49,620.23Z"/><path class="cls-8" d="M353.51,333s-76.75,1.23-122,52.9C191.72,431.27,196.67,513.06,211,507.48,286.66,477.89,334.88,518,334.88,518S211,467.13,177,554.47c-12.6,32.43-4.92,42.8-4.92,42.8s26.28-50.51,97-47.72c62.29,2.46,84.39,20.91,84.39,20.91Z"/><path class="cls-8" d="M348.1,538.47C327.3,503.73,211,487.42,181.95,552.62c-14.14,31.79-4.92,30.14-4.92,30.14s17.86-42.16,88.59-39.36c62.29,2.46,86.08,17.84,86.08,17.84S351.36,543.91,348.1,538.47Z"/><path class="cls-8" d="M406.49,333s76.75,1.23,122,52.9c39.74,45.33,34.79,127.12,20.51,121.54C473.34,477.89,425.12,518,425.12,518S549,467.13,583,554.47c12.6,32.43,4.92,42.8,4.92,42.8s-26.28-50.51-97-47.72c-62.29,2.46-84.39,20.91-84.39,20.91Z"/><path class="cls-8" d="M414.75,342.34s53.82-2.23,73,45.44c21.79,54.24-27.77,50.64-70.57,137.56,20.67-5.84,98-46.74,146.14,13.13C585.08,565.6,583,577.65,583,577.65s-19.17-37.05-89.9-34.26c-62.29,2.46-78.32,22.08-78.32,22.08Z"/><path class="cls-12" d="M280.84,356.42s-73.31,37.14-40.67,94.31c5.74,10-29.22,18.21-29.22,32.39,0,35.19,53.55-26.12,139.3,34.16,3.25-19.8,1.08-48.59-2.16-71.22-5.25-36.74,2.16-75.18,2.16-90.87C350.26,327.7,280.84,356.42,280.84,356.42Z"/></g></g></g></svg>