<svg xmlns="http://www.w3.org/2000/svg" viewBox="0 0 528.4 601.16"><defs><style>.cls-1{fill:#757575;}.cls-2,.cls-9{fill:#424242;}.cls-10,.cls-3,.cls-4{fill:none;}.cls-3,.cls-4{stroke:#212121;stroke-width:2.67px;}.cls-10,.cls-3,.cls-4,.cls-9{stroke-miterlimit:10;}.cls-10,.cls-4,.cls-9{stroke-linecap:round;}.cls-5{fill:#212121;}.cls-6{opacity:0.3;}.cls-11,.cls-7{fill:#bdbdbd;}.cls-7{opacity:0.5;}.cls-8{fill:#616161;}.cls-10,.cls-9{stroke:#424242;stroke-width:3px;}.cls-12{fill:#e0e0e0;}</style></defs><title>starwars-darth-vader</title><g id="Layer_2" data-name="Layer 2"><g id="Layer_1-2" data-name="Layer 1"><g id="Darth_Vader" data-name="Darth Vader"><g id="clothes1"><path d="M306.2,484.78v5a42,42,0,1,1-84,0v-5a123.75,123.75,0,0,0-81.7,116.38H387.9A123.75,123.75,0,0,0,306.2,484.78Z"/><path class="cls-1" d="M251.27,601.16h26.42S271.75,543,293.4,490.68l-29.2,1.19-28.65-1.19C257.2,543,251.27,601.16,251.27,601.16Z"/><path class="cls-1" d="M207.41,491.27a123.88,123.88,0,0,0-21.53,14.15c19.12,33.29,23.36,67.31,24.21,84.43,8.51,2.45,16.56,5,23.7,7.49C233.39,581.22,230.36,518.24,207.41,491.27Z"/><path class="cls-1" d="M343.08,505.42a123.88,123.88,0,0,0-21.53-14.15c-22.51,26.44-25.86,87.52-26.36,105.08,7.23-2.43,15.29-5,23.72-7.33C319.85,571.65,324.26,538.18,343.08,505.42Z"/><path class="cls-2" d="M254.7,601.16s2.85-60.35-19.15-110.48H206.91c18.8,20.05,22.51,86.5,23.2,105.41,5.31,1.78,10.2,3.5,14.49,5.07Z"/><path class="cls-2" d="M186,505.31h0A124.39,124.39,0,0,0,163,530.1c.12.11,16.77,16.17,21.74,53.34,8.52,1.81,17,4,25.16,6.34C208.74,572.08,204.19,536.7,186,505.31Z"/><path class="cls-2" d="M322,490.68H293.4c-22,50.14-19.15,110.48-19.15,110.48h7.22c5.07-1.85,11-3.92,17.41-6C299.66,575,303.56,510.4,322,490.68Z"/><path class="cls-2" d="M366,530.1a124.39,124.39,0,0,0-23.07-24.79h0c-17.87,30.91-22.56,65.68-23.76,83.64,8.18-2.29,16.71-4.41,25.2-6.12C349.42,546.09,365.88,530.21,366,530.1Z"/><path class="cls-3" d="M320.51,531c-.94.54-1.91,1-2.9,1.51"/><path class="cls-4" d="M317.61,532.47c-1,.48-2,.9-3,1.34"/><path class="cls-4" d="M308.38,536.17c-1,.33-2.06.71-3.11,1"/><line class="cls-3" x1="305.27" y1="537.17" x2="302.13" y2="538.08"/><path class="cls-4" d="M307.79,531.67c1.44-.53,2.89-1,4.29-1.63a4.48,4.48,0,0,1,5.53,2.43h0a4.23,4.23,0,0,1-2.15,5.81c-1.57.66-3.15,1.22-4.73,1.8a4.29,4.29,0,0,1-5.46-2.92A4.41,4.41,0,0,1,307.79,531.67Z"/><line class="cls-3" x1="302.13" y1="538.08" x2="298.96" y2="538.89"/><path class="cls-4" d="M299,538.89c-1.05.28-2.12.5-3.19.73"/><path class="cls-4" d="M289.21,540.88c-1.07.21-2.15.35-3.23.49"/><line class="cls-3" x1="285.98" y1="541.37" x2="282.74" y2="541.81"/><path class="cls-4" d="M289.37,536.33c1.53-.27,3.07-.52,4.58-.87a4,4,0,0,1,3.1.67,4.67,4.67,0,0,1,1.91,2.76,4.5,4.5,0,0,1-.48,3.36,4.18,4.18,0,0,1-2.7,1.92c-1.62.37-3.26.64-4.9.93a4.27,4.27,0,0,1-4.91-3.74A4.42,4.42,0,0,1,289.37,536.33Z"/><path class="cls-3" d="M282.74,541.81c-1.08.13-2.17.22-3.25.33"/><line class="cls-4" x1="279.49" y1="542.15" x2="276.24" y2="542.46"/><line class="cls-4" x1="269.57" y1="542.84" x2="266.3" y2="542.91"/><line class="cls-3" x1="266.3" y1="542.91" x2="263.03" y2="542.97"/><path class="cls-4" d="M270.3,538.35l4.69-.28a4.39,4.39,0,0,1,4.5,4.07,4.3,4.3,0,0,1-3.86,4.81l-4.95.29a4.46,4.46,0,0,1-.38-8.9Z"/><line class="cls-3" x1="263.03" y1="542.97" x2="259.76" y2="542.91"/><line class="cls-4" x1="259.76" y1="542.91" x2="256.5" y2="542.84"/><line class="cls-4" x1="249.82" y1="542.46" x2="246.57" y2="542.15"/><path class="cls-3" d="M246.57,542.15c-1.08-.11-2.17-.2-3.25-.33"/><path class="cls-4" d="M251.07,538.07l4.69.28a4.46,4.46,0,0,1-.38,8.9l-4.95-.29a4.3,4.3,0,0,1-3.86-4.81A4.39,4.39,0,0,1,251.07,538.07Z"/><line class="cls-3" x1="243.32" y1="541.81" x2="240.08" y2="541.37"/><path class="cls-4" d="M240.08,541.37c-1.08-.15-2.16-.29-3.23-.49"/><path class="cls-4" d="M230.29,539.62c-1.06-.23-2.13-.44-3.19-.73"/><line class="cls-3" x1="227.1" y1="538.89" x2="223.93" y2="538.08"/><path class="cls-4" d="M232.11,535.45c1.51.35,3.05.6,4.58.87a4.42,4.42,0,0,1,3.38,5,4.27,4.27,0,0,1-4.91,3.74c-1.64-.29-3.27-.56-4.9-.93a4.18,4.18,0,0,1-2.7-1.92,4.5,4.5,0,0,1-.48-3.36,4.67,4.67,0,0,1,1.91-2.76A4,4,0,0,1,232.11,535.45Z"/><line class="cls-3" x1="223.93" y1="538.08" x2="220.8" y2="537.17"/><path class="cls-4" d="M220.8,537.17c-1-.29-2.07-.67-3.11-1"/><path class="cls-4" d="M211.43,533.82c-1-.44-2-.86-3-1.34"/><path class="cls-3" d="M208.45,532.47c-1-.46-2-1-2.9-1.51"/><path class="cls-4" d="M214,530c1.4.59,2.85,1.1,4.29,1.63a4.41,4.41,0,0,1,2.53,5.5,4.29,4.29,0,0,1-5.46,2.92c-1.58-.58-3.17-1.14-4.73-1.8a4.23,4.23,0,0,1-2.15-5.81h0A4.48,4.48,0,0,1,214,530Z"/><path class="cls-5" d="M230.85,515.33a41.8,41.8,0,0,1-8.65-25.51v-5a123.75,123.75,0,0,0-81.7,116.38H186C186,553.36,211.8,527.75,230.85,515.33Z"/><path class="cls-5" d="M297.55,515.33a41.8,41.8,0,0,0,8.65-25.51v-5a123.75,123.75,0,0,1,81.7,116.38H342.36C342.36,553.36,316.61,527.75,297.55,515.33Z"/><path class="cls-6" d="M264.2,563.89c33.11,0,70.28-10.62,104-29.64a124.07,124.07,0,0,0-62-49.47h-84a124.07,124.07,0,0,0-62,49.47C193.92,553.28,231.09,563.89,264.2,563.89Z"/></g><path d="M363.19,448.84l-98.63-2.25h-.16l-98.63,2.25s37.92,48.42,24.93,56.46c-13.84,6.39,39.16,22,73.78,22s87.62-15.64,73.78-22C325.28,497.26,363.19,448.84,363.19,448.84Z"/><path class="cls-5" d="M527.63,434.17l-20-20.62L451.44,202.36c-.94-128.55-80.51-197-187.24-197S77.89,73.82,77,202.36L20.78,413.54l-20,20.63S-27.9,485.54,264.2,485.54,527.63,434.17,527.63,434.17Z"/><path d="M77,202.36,20.78,413.54l-20,20.63S-27.9,485.54,264.2,485.54s263.43-51.37,263.43-51.37l-20-20.62L451.44,202.36l-187-21.55Z"/><path class="cls-5" d="M264.2,455H182.7c-4.4,0-5.87,4.25-2,5.74L262.22,492a5.69,5.69,0,0,0,4,0l81.5-31.22c3.89-1.49,2.42-5.74-2-5.74Z"/><path d="M186,455l76.18,29.18a5.69,5.69,0,0,0,4,0L342.36,455H186Z"/><path d="M123.12,352.38l51.27,77.52,59.47-92.5S180.52,327.79,123.12,352.38Z"/><polygon class="cls-5" points="111.87 352.38 160.89 447.21 170.89 444.99 171.22 436.1 111.87 352.38"/><path class="cls-5" d="M156.41,402.72s18.79-38.29,77.44-71.16c-35.36,54.5-60.95,96.1-60.95,96.1Z"/><path class="cls-5" d="M154.53,406.37s-2.5-4-6.83-.87C155,423.07,168.37,435,168.37,435l6.83,1Z"/><polygon class="cls-2" points="167.38 441.12 143.45 402.31 170.69 438.87 167.38 441.12"/><path class="cls-2" d="M242.67,182.15c-30-56-151.67-48.78-172.62,41C42.46,341.5.77,434.17.77,434.17s3.8,3.26,20.91-21.3c24.41-35,48.35-106.51,63-152,27.15-84.06,110.79-76.08,161.81-47.58,0,0,12.85-3.76,17.67-3.76Z"/><path class="cls-2" d="M285.74,182.15c30-56,151.67-48.78,172.62,41,27.59,118.31,69.28,211,69.28,211s-3.8,3.26-20.91-21.3c-24.41-35-48.35-106.51-63-152-27.15-84.06-110.79-76.08-161.81-47.58,0,0-12.85-3.76-17.67-3.76Z"/><path class="cls-2" d="M285.73,203.54l-21.53,6-21.53-6V8.22C242.67,3.68,247.72,0,254,0h20.48c6.24,0,11.29,3.68,11.29,8.22Z"/><path class="cls-7" d="M282.22,208s-6.57-3.5-18-3.33-18,3.33-18,3.33V10.26c0-3.8,4.23-6.88,9.45-6.88h17.14c5.22,0,9.45,3.08,9.45,6.88Z"/><path class="cls-7" d="M252.37,12.82c0-4.14,3.75-5.86,6.87-5.17h22.26c-1.41-2.5-4.78-4.26-8.72-4.26H255.63c-5.22,0-9.45,3.08-9.45,6.88V208a32.12,32.12,0,0,1,6.19-2Z"/><path class="cls-2" d="M224.7,296.82l-1.33,1.1c-.43.36-1,.8-1.62,1.3s-1.38,1.1-2.25,1.7-1.81,1.29-2.89,2-2.25,1.41-3.53,2.16a68.44,68.44,0,0,1-9,4.25,78.08,78.08,0,0,1-11.32,3.35c-1,.23-2.07.39-3.13.6l-1.6.29-1.62.22c-1.09.14-2.19.31-3.31.44l-3.38.3c-1.14.12-2.29.14-3.44.19s-2.32.12-3.5.12h-3.54c-.61,0-1.16,0-1.81,0l-1.77-.06A91.66,91.66,0,0,1,151.17,313a74.59,74.59,0,0,1-14-4.37,64.35,64.35,0,0,1-12.43-6.95c-1-.65-1.84-1.39-2.75-2.08s-1.73-1.46-2.57-2.19a58.4,58.4,0,0,1-4.54-4.69,49.34,49.34,0,0,1-6.69-9.85,44.9,44.9,0,0,1-3.6-9.34,41.35,41.35,0,0,1-1.32-7.56c0-.53-.1-1-.12-1.5l0-1.32c0-.82,0-1.52,0-2.08l.06-1.73.16,1.72c0,.56.13,1.25.26,2.05s.25,1.73.47,2.75a47.64,47.64,0,0,0,2,7.2,50.26,50.26,0,0,0,4.16,8.66,53.82,53.82,0,0,0,6.89,9,58.38,58.38,0,0,0,9.64,8.07,70.57,70.57,0,0,0,11.89,6.3A79.34,79.34,0,0,0,152,309.08a89.67,89.67,0,0,0,13.87,1.87l1.76.11c.52,0,1.14,0,1.71.06l3.45.08c1.14,0,2.28,0,3.4,0s2.25,0,3.35-.1a106.67,106.67,0,0,0,12.7-1.24,87.31,87.31,0,0,0,11.13-2.6,78.45,78.45,0,0,0,9.05-3.47c2.61-1.25,4.87-2.41,6.67-3.48s3.22-1.91,4.16-2.53Z"/><path class="cls-2" d="M111.87,250.32c14.43-49.33,97.88-44.16,120.39-10.72,2.4,16.25,2.34,23.7-.3,36.41-6.64,13.28-25.5,29.05-61,29.72C127.7,306.54,104.69,274.87,111.87,250.32Z"/><path d="M192.33,298.45c11-1,21.2-2.63,21.25-2.64s1.9-.48,1.93-.5c.36-.31,24.32-21,23.37-22.38-.31-.33,34.91-13.1-45.75-45.88-30.35-12.33-75.25,0-82.54,17.76C112.11,250.79,111.2,305.74,192.33,298.45Z"/><path class="cls-2" d="M99.2,272.93s12.67,47,61.69,50.38c46,3.18,78.31-33.4,86.83-47,3.67,0,8.19,2.13,16.48,2.13,0,3.69.09,17.5.09,17.5-14,1-31.09,4.78-30.44,35.63-63.83,1.6-110.73,15-110.73,15Z"/><path class="cls-8" d="M264.2,267.27c-7.69-.39-15.69,4.27-17.56,12.6-2.14,9.49-5.44,25.87-5.44,25.87s6-9.56,23-9.81C264.2,284.93,264.2,267.27,264.2,267.27Z"/><path class="cls-8" d="M264.2,281.47c-8.7,0-23,24.27-23,24.27s10.07-10,23-9.81Z"/><line class="cls-9" x1="289.61" y1="336.99" x2="359.2" y2="444.99"/><polygon class="cls-5" points="264.2 306.55 242.2 344.55 180.89 439.66 347.51 439.66 286.2 344.55 264.2 306.55"/><path class="cls-2" d="M264.2,386.54c-41.11,0-83.31,53.11-83.31,53.11H347.51S305.31,386.54,264.2,386.54Z"/><polygon points="200.26 428.66 213.56 428.66 213.56 400.3 200.26 425.21 200.26 428.66"/><polygon points="228.91 428.66 242.2 428.66 242.2 344.55 228.91 370.42 228.91 428.66"/><polygon points="257.55 428.66 270.85 428.66 270.85 337.4 264.2 327.55 257.55 337.4 257.55 428.66"/><polygon points="286.2 428.66 299.5 428.66 299.5 370.42 286.2 344.55 286.2 428.66"/><polygon points="314.85 428.66 328.14 428.66 328.14 425.21 314.85 400.3 314.85 428.66"/><path class="cls-1" d="M286.2,326.22a22,22,0,0,0-44,0v8.52s0,4,22,4,22-4,22-4Z"/><path class="cls-10" d="M289.61,337v-9.11c0-15.14-10.27-27.41-25.41-27.41s-25.41,12.27-25.41,27.41V337L170.89,441.48"/><path class="cls-11" d="M277.14,314.31c0,4.44-5.79,1.41-12.94,1.41s-12.93,3-12.93-1.41,5.79-8,12.94-8S277.14,309.87,277.14,314.31Z"/><rect class="cls-5" x="200.26" y="424.99" width="13.3" height="3.67"/><rect class="cls-5" x="228.9" y="424.99" width="13.3" height="3.67"/><rect class="cls-5" x="257.55" y="424.99" width="13.3" height="3.67"/><rect class="cls-5" x="286.2" y="424.99" width="13.3" height="3.67"/><rect class="cls-5" x="314.85" y="424.99" width="13.3" height="3.67"/><polygon class="cls-1" points="184.85 434.99 176.33 444.99 352.01 444.99 343.55 434.99 184.85 434.99"/><circle class="cls-11" cx="170.89" cy="444.99" r="10"/><path class="cls-1" d="M178.83,445A7.94,7.94,0,0,1,163,445c0-4.38,3.55,1.67,7.94,1.67S178.83,440.61,178.83,445Z"/><circle class="cls-11" cx="357.51" cy="444.99" r="10"/><path class="cls-1" d="M365.45,445a7.94,7.94,0,0,1-15.87,0c0-4.38,3.55,1.67,7.94,1.67S365.45,440.61,365.45,445Z"/><path class="cls-2" d="M303.7,296.82l1,.59c.64.4,1.61,1,2.82,1.65.6.36,1.28.74,2,1.13s1.53.86,2.41,1.28,1.78.92,2.78,1.35,2,.95,3.12,1.39,2.24.91,3.45,1.34,2.45.84,3.73,1.27,2.64.74,4,1.13,2.79.67,4.23,1c2.89.58,5.91,1,9,1.37,1.54.16,3.09.36,4.67.42s3.14.22,4.73.23c3.15.15,6.35.13,9.43.08l2.36-.09,2.27-.12c1.5-.11,3-.21,4.47-.39,2.93-.34,5.76-.75,8.42-1.3s5.16-1.15,7.43-1.82,4.34-1.38,6.17-2,3.38-1.35,4.66-1.92,2.28-1,2.95-1.4l1-.51-.92.7c-.6.46-1.5,1.12-2.68,1.9s-2.66,1.68-4.4,2.62a59.78,59.78,0,0,1-6,2.82c-1.13.48-2.33.9-3.58,1.36s-2.56.84-3.92,1.2a68.9,68.9,0,0,1-8.65,1.89c-1.52.26-3.06.43-4.64.62l-2.4.23-2.36.12c-3.24.1-6.47.18-9.74.06-1.63,0-3.26-.19-4.88-.31s-3.24-.32-4.83-.51a82.26,82.26,0,0,1-9.3-1.77c-1.49-.38-2.95-.8-4.36-1.23s-2.78-.94-4.08-1.47a58.88,58.88,0,0,1-7.19-3.35,55.5,55.5,0,0,1-5.68-3.49c-.83-.55-1.57-1.1-2.25-1.62s-1.3-1-1.85-1.45c-1.12-.88-1.93-1.63-2.5-2.13Z"/><path class="cls-2" d="M416.53,250.32C402.1,201,318.66,206.16,296.14,239.59c-2.4,16.25-2.34,23.7.3,36.41,6.64,13.28,25.5,29.05,61,29.72C400.7,306.54,423.72,274.87,416.53,250.32Z"/><path d="M336.08,298.45c-11-1-21.2-2.63-21.25-2.64s-1.9-.48-1.93-.5c-.36-.31-24.32-21-23.37-22.38.31-.33-34.91-13.1,45.75-45.88,30.35-12.33,75.25,0,82.54,17.76C416.29,250.79,417.2,305.74,336.08,298.45Z"/><path class="cls-2" d="M429.2,272.93s-12.67,47-61.69,50.38c-46,3.18-78.31-33.4-86.83-47-3.67,0-8.19,2.13-16.48,2.13,0,3.69-.09,17.5-.09,17.5,14,1,31.09,4.78,30.44,35.63,51.06,1.28,91.28,10.1,105.34,13.57a6,6,0,0,0,7.14-4Z"/><path class="cls-8" d="M264.11,267.27c7.69-.39,15.78,4.27,17.65,12.6,2.14,9.49,5.44,25.87,5.44,25.87s-6-9.56-23-9.81C264.2,284.93,264.11,267.27,264.11,267.27Z"/><path class="cls-8" d="M275.65,270.68a183.57,183.57,0,0,0,28,24.8C327,312.42,343.14,313,358.64,312.65A93.79,93.79,0,0,0,394.4,305s-1.89,2.79-12.87,6.75a73.24,73.24,0,0,1-13.83,2.63c-43.5,3.5-64-13.15-78.06-20.46,14.19,26.6,53.49,33.91,79.1,32.1,18-1.27,1.07,5.69-35.67,2.9C282.14,325.07,243.7,270.68,275.65,270.68Z"/><path class="cls-11" d="M340.31,220.32c20-2.17,48.92,10.33,60.08,17,10.85,6.49,9.86,26.79-2.84,35.61C401.38,251.82,382.6,227.15,340.31,220.32Z"/><path class="cls-11" d="M391.71,247.94c-9,6-8.31-4.46-27.48-11.79-9.56-3.66-27.87-5.83-38-6.83,1.63-4,37.72-1.4,47.21,2.44S395.31,245.52,391.71,247.94Z"/><ellipse class="cls-1" cx="314.85" cy="275.6" rx="5.11" ry="12.05" transform="translate(-94.8 360.89) rotate(-52.96)"/><path class="cls-2" d="M407.87,227.05a54.08,54.08,0,0,0-4.68-3.52c-.76-.53-1.62-1.11-2.57-1.69s-2-1.23-3.1-1.88c-2.23-1.31-4.83-2.62-7.69-4-1.45-.64-3-1.27-4.55-1.92s-3.24-1.23-5-1.76a86,86,0,0,0-11-2.72l-2.93-.5c-1-.16-2-.21-3-.33l-3-.3-3.08-.1-3.08-.09-3.18.07c-2.1.09-4.17.19-6.27.4a98.23,98.23,0,0,0-12.39,1.84,91.6,91.6,0,0,0-11.66,3.31,80.44,80.44,0,0,0-10.36,4.58,64.55,64.55,0,0,0-8.56,5.47,41.21,41.21,0,0,0-10.4,11,19.94,19.94,0,0,0-1.84,3.87,10.63,10.63,0,0,0-.32,1.09l-.1.38.06-.39a10.75,10.75,0,0,1,.2-1.13,18.31,18.31,0,0,1,1.47-4.11,38.77,38.77,0,0,1,9.84-12.09,66.25,66.25,0,0,1,19.08-11.18,82.57,82.57,0,0,1,12-3.66,100.16,100.16,0,0,1,12.75-2c2.15-.19,4.34-.29,6.49-.36l3.18,0c1.12,0,2.16.08,3.24.12l3.19.14,3.14.39c1,.14,2.08.23,3.09.42l3,.59a75.83,75.83,0,0,1,11.25,3.2c1.75.62,3.4,1.36,5,2s3.1,1.48,4.53,2.22a78.87,78.87,0,0,1,7.55,4.54c1.08.74,2.09,1.43,3,2.13s1.72,1.33,2.44,1.93c1.46,1.18,2.52,2.21,3.24,2.9S407.87,227.05,407.87,227.05Z"/><path class="cls-8" d="M252.75,270.68a183.66,183.66,0,0,1-28,24.8c-23.35,16.94-39.44,17.48-54.94,17.17A93.79,93.79,0,0,1,134,305s1.89,2.79,12.87,6.75a73.24,73.24,0,0,0,13.83,2.63c43.5,3.5,64-13.15,78.06-20.46-14.19,26.6-53.49,33.91-79.1,32.1-18-1.27-1.17,2.9,35.67,2.9C243.37,328.94,284.7,270.68,252.75,270.68Z"/><path class="cls-11" d="M264.29,281.47c-12.76,0-13.69,15.88-14.54,23.74,7.12-6.1,23.2-6,32.39,1.76C281.54,296.35,274.28,281.47,264.29,281.47Z"/><path class="cls-11" d="M238.27,283.93c-5.09,4.57-13.57,12.89-25.59,19.24,5.52-.6,11.08-1.85,16.23-1.85,1.82,0-19.19,19.48-41.82,23.2,2.07,0,4.13-.11,6.2-.28s4-.34,6-.59c-.17,0,4-.68,4.44-.78a163.76,163.76,0,0,0,23.85-6.46C235.94,310.41,238.27,289.22,238.27,283.93Z"/><path class="cls-12" d="M264.29,281.47c-17.09,0-22.61,33.25-22.61,33.25a23.72,23.72,0,0,1,22.52-13.88C277.13,300.63,267.67,281.47,264.29,281.47Z"/><path class="cls-11" d="M164.62,220.32c20-2.17,48.92,10.33,60.08,17,10.85,6.49,9.86,26.79-2.84,35.61C225.69,251.82,206.91,227.15,164.62,220.32Z"/><path class="cls-11" d="M216,247.94c-9,6-8.31-4.46-27.48-11.79-9.56-3.66-27.87-5.83-38-6.83,1.63-4,37.72-1.4,47.21,2.44S219.62,245.52,216,247.94Z"/><ellipse class="cls-1" cx="136.88" cy="275.6" rx="5.11" ry="12.05" transform="translate(-165.56 218.84) rotate(-52.96)"/><ellipse class="cls-11" cx="168.28" cy="245.97" rx="4.67" ry="6" transform="translate(-126.08 292.6) rotate(-64.62)"/><ellipse class="cls-11" cx="340.31" cy="245.97" rx="4.67" ry="6" transform="translate(-27.78 448.03) rotate(-64.62)"/><path class="cls-2" d="M120.53,227.05s.46-.5,1.39-1.37,2.32-2.13,4.22-3.58a82.24,82.24,0,0,1,7.1-4.88,76.67,76.67,0,0,1,9.94-5.17,79.37,79.37,0,0,1,27.32-6.47c1.3-.06,2.58-.1,3.93-.12s2.59,0,3.91,0c2.67.09,5.36.24,8,.55a95,95,0,0,1,16.14,3.14,78.72,78.72,0,0,1,15.28,6.17,60.59,60.59,0,0,1,13.07,9.26A43.91,43.91,0,0,1,236,230.4a26.22,26.22,0,0,1,3.64,6.57,15.62,15.62,0,0,1,.88,3.61l.2,1.68.13,1.7a58.51,58.51,0,0,1,.11,6.46,79.79,79.79,0,0,1-1.18,11.16c-.58,3.28-1.27,6.11-1.9,8.41-.3,1.15-.63,2.17-.9,3.05l-.77,2.22-.69,1.83.5-1.89c.3-1.24.74-3.05,1.2-5.37s.93-5.16,1.27-8.43a93.92,93.92,0,0,0,.52-11c0-2-.13-4.11-.37-6.23l-.19-1.6-.26-1.67a13.49,13.49,0,0,0-.85-3.06c-1.63-4.07-4.72-7.87-8.35-11.2a62.2,62.2,0,0,0-12.57-8.7,78,78,0,0,0-7.19-3.3c-2.48-1-5-1.85-7.56-2.59a92,92,0,0,0-15.62-3.13c-2.62-.31-5.23-.51-7.79-.64-1.29-.07-2.61-.07-3.89-.11s-2.52,0-3.77,0A83,83,0,0,0,156.29,210a86.4,86.4,0,0,0-29.8,12.61c-2,1.34-3.46,2.44-4.45,3.23S120.53,227.05,120.53,227.05Z"/><path d="M110.57,241s29.1-32,66.38-29.48,54.92,22.6,54.92,22.6l1.83,16.17s-19.17-19.57-61.57-19.57C130.22,230.75,110.57,241,110.57,241Z"/><path d="M233.7,241s-29.1-32-66.38-29.48-54.92,22.6-54.92,22.6l-1.83,16.17s19.17-19.57,61.57-19.57C214,230.75,233.7,241,233.7,241Z"/><path d="M292.45,253.82s14.37-43.07,62-41.08c37.34,1.56,54.79,21.42,54.79,21.42l1.83,16.17s-19.17-19.57-61.57-19.57C307.6,230.75,292.45,253.82,292.45,253.82Z"/><path class="cls-8" d="M263,220.86c-12.13,0-17.26,7.74-17.26,7.74h34.53S275.1,220.86,263,220.86Z"/><path class="cls-8" d="M263,234.1c-10.88,0-15.49,6.95-15.49,6.95h31S273.86,234.1,263,234.1Z"/><path class="cls-8" d="M263,247.27c-9.81,0-14,6.26-14,6.26h27.93S272.79,247.27,263,247.27Z"/><path class="cls-7" d="M242.67,13.82s-62.39,1-99.22,43c-32.31,36.85-28.28,103.34-16.67,98.8,61.55-24,100.74,8.55,100.74,8.55S126.78,122.82,99.2,193.82c-10.24,26.37-4,34.79-4,34.79s21.36-41.06,78.86-38.79c50.64,2,68.6,17,68.6,17Z"/><path class="cls-7" d="M238.27,180.82c-16.91-28.25-111.49-41.5-135.07,11.5-11.5,25.84-4,24.5-4,24.5s14.52-34.27,72-32c50.64,2,70,14.5,70,14.5S240.92,185.23,238.27,180.82Z"/><path class="cls-7" d="M285.73,13.82s62.39,1,99.22,43c32.31,36.85,28.28,103.34,16.67,98.8-61.55-24-100.74,8.55-100.74,8.55s100.74-41.35,128.32,29.65c10.24,26.37,4,34.79,4,34.79s-21.36-41.06-78.86-38.79c-50.64,2-68.6,17-68.6,17Z"/><path class="cls-7" d="M292.45,21.37s43.75-1.81,59.31,36.94c17.71,44.09-22.57,41.17-57.37,111.83,16.8-4.75,79.69-38,118.8,10.67,17.72,22,16,31.85,16,31.85s-15.59-30.12-73.09-27.85c-50.64,2-63.66,17.95-63.66,17.95Z"/><path class="cls-11" d="M183.59,32.82S124,63,150.53,109.48c4.66,8.17-23.75,14.81-23.75,26.33,0,28.6,43.53-21.23,113.24,27.77,2.64-16.1.88-39.5-1.75-57.9C234,75.82,240,44.57,240,31.82,240,9.47,183.59,32.82,183.59,32.82Z"/></g></g></g></svg>