<svg xmlns="http://www.w3.org/2000/svg" viewBox="0 0 372.16 692.03"><defs><style>.cls-1{fill:#b71c1c;}.cls-2{opacity:0.2;}.cls-3{fill:#c62828;}.cls-4,.cls-6{fill:#991414;}.cls-4{opacity:0.4;}.cls-5,.cls-8,.cls-9{fill:#fff;}.cls-5{opacity:0.3;}.cls-6{opacity:0.7;}.cls-7{fill:#7c0d0d;}.cls-8{opacity:0.5;}</style></defs><title>starwars-royal-guard</title><g id="Layer_2" data-name="Layer 2"><g id="Layer_1-2" data-name="Layer 1"><g id="Royal_Guard" data-name="Royal Guard"><path class="cls-1" d="M242.89,534.61v6.81a56.8,56.8,0,1,1-113.61,0v-6.81A167.38,167.38,0,0,0,18.77,692H353.4A167.38,167.38,0,0,0,242.89,534.61Z"/><path class="cls-2" d="M242.89,534.61v6.81a56.8,56.8,0,1,1-113.61,0v-6.81a167.8,167.8,0,0,0-100.21,99.5c28.57,19.34,86.92,48.92,157,50.68,70.09-1.76,128.45-31.35,157-50.68A167.8,167.8,0,0,0,242.89,534.61Z"/><path class="cls-3" d="M353.4,561.68c-17-13.1-26.81-12.63-25.18-34.7,6.94-93.57,33.27-155.54,33.27-296.21l-175.41,8.92L10.67,230.77C10.67,371.43,37,433.41,43.94,527c1.64,22.07-8.19,21.6-25.18,34.7A86.6,86.6,0,0,0,0,581.77s127.83,90.18,186.08,90.18,186.08-90.18,186.08-90.18A86.6,86.6,0,0,0,353.4,561.68Z"/><path class="cls-3" d="M186.08,0C89.21,0,10.67,78.32,10.67,219.11c0,215.2,164.16,411.09,175.41,411.09S361.49,434.31,361.49,219.11C361.49,78.32,283,0,186.08,0Z"/><path class="cls-4" d="M186.08,81.35c-91,0-165,48.42-165,144.72,0,32.9,7.19,70.3,18.59,108.49,1.91,6.41,8.51,10.55,16.08,10.87C92.26,347,103.6,502,186.08,502s93.83-155,130.34-156.53c7.56-.33,14.16-4.46,16.07-10.87,11.4-38.18,18.59-75.59,18.59-108.49C351.08,129.77,277.09,81.35,186.08,81.35Z"/><path class="cls-5" d="M152.7,88.27c-4.87,3-27.73,7.9-32.91,2.81C106.4,77.9,109,61.26,106.7,42.82a10.28,10.28,0,0,0-6.76-8.45c-49.81,34.38-86.66,93.41-86.66,184.9,0,3.9-4.27,176.51,76,318.53,2.17,3.85-25-19.27-39.17-35.84,15.68,47.14,3.93,52.72-15.07,62.47-13.46,6.91-24.41,19.25-24.41,19.25s6.6,4.61,23.57,13.58c54.91.09,112.73,21.37,100.53.09-23.11-40.28-67.52-103.84,7.35-9.53C74.22,498.54,27.46,285.62,27.46,285.62L166,96.87C159.81,96.87,154.48,93.2,152.7,88.27Z"/><path class="cls-5" d="M313.06,561.78c3.87-40.07,4.9-39.33,15.16-90.1-14.16,16.57-64,79.89-39.3,42,80.31-142,70-290.53,70-294.42,0-74.45-24.4-127.4-60.33-163.07-8.23-8.17.85,13.73,0,20.28-2.32,18.44,4.57,18.66-8.83,31.83-5.18,5.1,55,177.3,55,177.3S278.08,549.05,201.4,642.17c52.68-32.47,88.67-109.93,82.68-84.5C278.45,581.56,293.08,567.68,313.06,561.78Z"/><path class="cls-3" d="M351.08,226.07c0,145.37-140.26,378.68-165,378.68s-165-233.32-165-378.68c0-11.49-4.47-32.39-4.47-32.39-.6,8.24-.93,16.7-.93,25.43,0,215.2,159.16,411.09,170.41,411.09S356.49,434.31,356.49,219.11c0-8.73-.33-17.2-.93-25.43C355.56,193.68,351.08,214.58,351.08,226.07Z"/><path class="cls-1" d="M186.08,81.35c-91,0-165,48.42-165,144.72,0,145.37,140.26,378.68,165,378.68s165-233.32,165-378.68C351.08,129.77,277.09,81.35,186.08,81.35Z"/><path class="cls-3" d="M186.08,552.22c-28.39,0-69.7-130.74-103-205.12C54.16,282.48,39.95,270,39.95,207.1a56.58,56.58,0,0,1,4-21.1H186.08Z"/><path class="cls-3" d="M186.08,552.22c28.39,0,69.7-130.74,103-205.12,28.93-64.62,43.14-77.11,43.14-140a56.58,56.58,0,0,0-4-21.1H186.08Z"/><path class="cls-5" d="M178.08,514.43c-8.43-21-22.93-91.93-24.11-137.15-2.51-96.2-20-124.63-32.33-169.75C118.05,194.41,50.15,186,50.15,186c4.76,2.86,6.51,8.07,5.54,13.29-2.19,11.85,2.73,24.81,7.75,35.63,6,12.83,70.58,67.53,22.76,36.58,3.13,4.16,43.7,44.22,54.84,68.93,7.68,17,7.45,60.42,9,72.48C161.83,506.93,193.83,553.75,178.08,514.43Z"/><path class="cls-4" d="M156.7,461.61c-16.72-32.35-13.84-78.15-17.78-97.95-5.34-26.8-22.08-47.79-35.32-62.22C78,273.6,49,239.45,53.09,201A49.88,49.88,0,0,1,55,193.5c-.58-1.27-2-5.23-1.85-7.5L47,188.5s-3.09,6.19-3.09,18.37c0,62.89,11.77,75.61,40.7,140.23,33.29,74.37,74.44,202,101.44,201.94V535.28C169.84,535.28,166.63,480.82,156.7,461.61Z"/><path class="cls-3" d="M334.33,180.34c-6-19.11-34.93-90.69-148.25-90.69S43.79,161.24,37.83,180.34a4.08,4.08,0,0,0,.36,3.31c.74,1.27,147.89,2.35,147.89,2.35s147.15-1.08,147.89-2.35A4.08,4.08,0,0,0,334.33,180.34Z"/><path class="cls-5" d="M191.59,528.39C222.23,491.73,220,401.63,228.66,357c18.15-93.18,45.94-75.31,45.68-153C274.29,190.59,322,186,322,186c-4.76,2.86-6.51,8.07-5.54,13.29,2.19,11.85-2.73,24.81-7.75,35.63-6,12.83-14.13,24.72-22.76,36.58-3.13,4.16-39.09,50.13-50.23,74.84-7.68,17-8.35,60.34-9,72.48C223.08,491.76,190.43,529.78,191.59,528.39Z"/><path class="cls-4" d="M220.38,465c10.34-34.92,8.92-81.56,12.86-101.35,5.34-26.8,22.08-47.79,35.32-62.22,25.55-27.84,54.64-62,50.51-100.43a49.88,49.88,0,0,0-1.86-7.51c.58-1.27,2-5.23,1.85-7.5l6.08,2.5s3.09,6.19,3.09,18.37c0,62.89-28.44,71.67-48.84,139.47-26,86.37-66.64,205.33-93.3,202.71V535.28C198.45,535.28,211.9,493.68,220.38,465Z"/><path class="cls-6" d="M184.24,538.06c-13.83-3.45-28.34-53.5-30.72-64.35-.19-.87-.35-1.75-.52-2.62a11.62,11.62,0,0,1-3.54-5.33,121.11,121.11,0,0,1-4.41-21.93c-1.77-5.73-3.87-11.4-5.77-17.07s-4.06-11.51-4.75-17.44c-.61-5.28-1.25-10.58-2.94-15.7-3.65-11-8.53-21.77-12.2-32.84-2.79-8.42-5.58-16.89-9.34-25-15.3-21.18-36.61-39-47.9-62.3-12.64-26.1-15.86-53.84-16.23-81.88a53.81,53.81,0,0,0-2,15.31c0,62.89,11.77,75.61,40.7,140.23,33.29,74.37,73.05,204,101.44,205.12V538.65A14.47,14.47,0,0,1,184.24,538.06Z"/><path class="cls-6" d="M305.64,300.35C290.39,326.24,270,350.82,260.55,379c-6.79,20.31-11.91,29.31-18.47,49.65-6.07,18.8-16.33,61.12-32.5,87A107.44,107.44,0,0,1,197,530.67c-3.78,3.74-6.86,9-10.94,8v13.57c31.67,0,68.15-130.74,101.44-205.12,13-29.1,22.56-47.67,29.12-65C313.11,288.17,309.29,294.17,305.64,300.35Z"/><path class="cls-7" d="M186.08,162.46c-140.43,0-151.29,18.3-147.56,21.56,1,.91,5.42,2,5.42,2H328.22s4.39-1.06,5.42-2C337.38,180.76,326.51,162.46,186.08,162.46Z"/><path d="M186.08,166.35C43.23,166.35,43.94,186,43.94,186s32.25,31.92,142.14,31.92S328.22,186,328.22,186,328.93,166.35,186.08,166.35Z"/><path class="cls-5" d="M186.08,217.92C76.2,217.92,43.94,186,43.94,186s32.73,36.15,142.14,36.15S328.22,186,328.22,186,296,217.92,186.08,217.92Z"/><path class="cls-1" d="M186.08,636.1c-16.49,0-54.19-61.32-54.19-61.32,7,25.69,48,83.39,54.19,83.39s47.24-57.7,54.19-83.39C240.27,574.78,202.58,636.1,186.08,636.1Z"/><path class="cls-5" d="M115,162.46c12-1.05-2.15-14.62-4.19-26.36-4.38-25.25,1.49-33.7-4.46-31C57.7,127.26,42,166.86,37.83,180.34,37.47,181.5,39.95,164.9,115,162.46Z"/><path class="cls-5" d="M257.15,162.46c-12-1.05,26.63-3.57,28.67-15.31,4.38-25.25,2.24-29.87,10.62-22.84a122,122,0,0,1,37.89,56C334.7,181.5,332.21,164.9,257.15,162.46Z"/><path class="cls-5" d="M108.48,172.86C55.93,176.23,50.15,186,50.15,186s24,14.92,64.87,21.53C113.42,205.7,109.54,179.84,108.48,172.86Z"/><path class="cls-5" d="M280.5,174.71C315.44,177.63,322,186,322,186s-7.18,7.31-42.64,18.07C281,202.25,279.44,181.69,280.5,174.71Z"/><path class="cls-8" d="M140.68,552.22l5,7.27,5.11,7.45,5.91,8.5,3.05,4.29,3,4.11c1,1.3,1.94,2.62,2.9,3.8s1.81,2.35,2.71,3.33,1.63,2,2.42,2.73,1.4,1.49,2,2l1.9,1.63-2.11-1.44c-.66-.48-1.35-1.15-2.21-1.87a37,37,0,0,1-2.67-2.6c-1-1-1.9-2.08-2.94-3.22s-2-2.41-3.11-3.71c-2.1-2.61-4.2-5.47-6.26-8.36s-4-5.83-5.77-8.61-3.35-5.42-4.7-7.67-2.38-4.18-3.13-5.51S140.68,552.22,140.68,552.22Z"/><path class="cls-8" d="M191.59,602.39l.81-.94,2.17-2.43c1.81-2,4.28-4.62,6.75-7.23l6.79-7.18c.91-1,1.72-1.79,2.24-2.38s.87-.9.87-.9a41.47,41.47,0,0,1-2.39,3.73,74.73,74.73,0,0,1-6.32,7.59,93.56,93.56,0,0,1-7.28,6.89c-1,.89-2,1.59-2.61,2.09S191.59,602.39,191.59,602.39Z"/><path class="cls-9" d="M200,221.94s-.8,26.31-.8,45.25c4.85-18.62,7.52-45.5,7.52-45.5Z"/><path class="cls-9" d="M203.3,166.46s2.91,45.75-.2,51.2c3.6-.13,8.76-.36,8.76-.36s.21-49.14-.41-50.72C207.91,166.34,203.3,166.46,203.3,166.46Z"/><path class="cls-9" d="M203.3,162.46s6.33-1.28,8.88-1.2c2.25.08,10,1.65,10,1.65A153.6,153.6,0,0,1,203.3,162.46Z"/><path class="cls-9" d="M186.08,222.15s22.43-.17,34.3-1.29C210.05,223.12,204.38,224.1,186.08,222.15Z"/><path class="cls-9" d="M196.45,89.86a187.18,187.18,0,0,1,23.94,2.21C205.15,92.82,196.45,89.86,196.45,89.86Z"/><path class="cls-5" d="M43.94,566.83s-15.33,8.17-26,15.91c22,12.94,40.83,3.28,49.27,3.28C58.09,578.45,43.94,566.83,43.94,566.83Z"/></g></g></g></svg>