<svg xmlns="http://www.w3.org/2000/svg" viewBox="0 0 760.32 1056"><defs><style>.cls-1{fill:none;}.cls-2{fill:#bdbdbd;}.cls-3{fill:#424242;}.cls-4,.cls-5{fill:#212121;}.cls-4{opacity:0.25;}.cls-5{opacity:0.2;}</style></defs><title>starwarsyoda</title><g id="Layer_2" data-name="Layer 2"><g id="Layer_1-2" data-name="Layer 1"><rect class="cls-1" width="760.32" height="1056"/><g id="Yoda"><g id="clothes1"><path class="cls-2" d="M419.56,958v4.24a35.38,35.38,0,1,1-70.76,0V958A104.25,104.25,0,0,0,280,1056H488.4A104.25,104.25,0,0,0,419.56,958Z"/><path class="cls-2" d="M332.82,965.3A104.17,104.17,0,0,0,280,1056h77.41Z"/><path class="cls-2" d="M435.54,965.3A104.17,104.17,0,0,1,488.4,1056H411Z"/><path class="cls-3" d="M444.49,971A103.93,103.93,0,0,0,419.57,958v4.24a35.38,35.38,0,0,1-70.76,0V958A103.93,103.93,0,0,0,323.88,971c-26.57,18.89,10.74,85,10.74,85h99.14S471.06,989.89,444.49,971Z"/><path class="cls-4" d="M478.16,1011a104.11,104.11,0,0,0-6-10.82v-.07c-.44-.69-.9-1.36-1.35-2l-.29-.43c-1-1.53-2.1-3-3.21-4.5v0A104.4,104.4,0,0,0,419.56,958v4.24a35.38,35.38,0,1,1-70.76,0V958a104.4,104.4,0,0,0-47.7,35.18v0c-1.11,1.47-2.17,3-3.21,4.5l-.29.43c-.45.68-.92,1.35-1.35,2v.07a104.11,104.11,0,0,0-6,10.82c2.6,1.43,5.34,2.79,8.19,4.1l5.87,41h5.85l-5.49-38.26c21.76,8.77,49.43,14,79.56,14s57.79-5.25,79.56-14L458.25,1056h5.85l5.87-41C472.82,1013.74,475.57,1012.38,478.16,1011Z"/><path class="cls-2" d="M332.82,965.3c-12.6,7.15-20.68,11.35-32.55,22.05l.82,5.74,9,62.9h47.26Z"/><path class="cls-2" d="M435.54,965.3,411,1056h47.26l9-62.9.82-5.74C456.22,976.65,448.15,972.46,435.54,965.3Z"/><path class="cls-5" d="M435.54,965.31a103.71,103.71,0,0,0-16-7.36v4.24a35.38,35.38,0,0,1-70.76,0V958a103.71,103.71,0,0,0-16,7.36h0c-12.6,7.15-20.68,11.35-32.55,22.05l.82,5.74,2.62,18.25c21.9,9,49.92,14.39,80.47,14.39s58.57-5.4,80.47-14.39l2.62-18.25.82-5.74c-11.87-10.7-20-14.9-32.55-22.05Z"/></g></g></g></g></svg>