<svg xmlns="http://www.w3.org/2000/svg" viewBox="0 0 565.62 696.35"><defs><style>.cls-1{isolation:isolate;}.cls-11,.cls-2{fill:#212121;}.cls-12,.cls-21,.cls-3{opacity:0.3;}.cls-4{opacity:0.6;}.cls-5{fill:#ef5350;}.cls-6{fill:#ef9a9a;}.cls-7{fill:#ffebee;}.cls-8{fill:#e53935;}.cls-9{fill:#ffca28;}.cls-10{opacity:0.7;}.cls-11{opacity:0.2;}.cls-12,.cls-13,.cls-21{fill:#fff;}.cls-14{fill:#424242;}.cls-15{opacity:0.5;}.cls-16{fill:#efebe9;}.cls-17,.cls-18,.cls-19{fill:#e0e0e0;}.cls-17,.cls-18,.cls-21{mix-blend-mode:soft-light;}.cls-18{opacity:0.8;}.cls-19{mix-blend-mode:overlay;}.cls-20{fill:#bdbdbd;mix-blend-mode:multiply;}</style></defs><title>starwars-darth_maul</title><g class="cls-1"><g id="Layer_2" data-name="Layer 2"><g id="Layer_1-2" data-name="Layer 1"><g id="Darth_Maul" data-name="Darth Maul"><g id="clothes1"><path class="cls-2" d="M324.81,580v5a42,42,0,1,1-84,0v-5a123.75,123.75,0,0,0-81.7,116.38h247.4A123.75,123.75,0,0,0,324.81,580Z"/><polygon points="242.77 618 294.55 696.34 285.18 674.04 322.85 618 242.77 618"/><path class="cls-3" d="M331,582.42q-3.08-.32-6.22-.61V585a42,42,0,1,1-84,0v-3.18q-3.14.28-6.22.61a124,124,0,0,0-68.93,74.14c14.62,5.64,33.33,10.2,54.72,13.25l18,26.52h14.42L236,671.71a473.69,473.69,0,0,0,93.68,0l-16.84,24.62h14.42l18-26.52c21.39-3,40.1-7.61,54.72-13.25A124,124,0,0,0,331,582.42Z"/><path class="cls-2" d="M449.64,74.79C417,36.34,282.81,0,282.81,0S148.64,36.34,116,74.79C29.81,262-52.23,515.6,41.86,587.42,142.2,664,282.81,627,282.81,627s140.61,37,240.95-39.58C617.85,515.6,535.81,262,449.64,74.79Z"/><path class="cls-4" d="M423.46,213.6s-5.57-55.85-21.92-69-118.72-63-118.72-63-102.39,49.85-118.74,63-21.89,68.68-21.92,69h0l-14,163c-10.54,47.95-34.84,168.83-17.95,193.95,21.18,31.5,49.08,48.34,99.63,47.42s73,0,73,0,22.41-.92,73,0,78.44-15.92,99.63-47.42c16.89-25.12-7.41-146-17.95-193.95Z"/></g><path class="cls-5" d="M144.07,223.62C156.27,273,148.3,295,148.3,295s-11.77,28.88-15.66,62c-2.14,18.22,24.82,36.75,30,42.12,4.36.42,10.91-9,10.91-9s4.69,1.84,3.82,4c-3,7.37-9.93,11.2-9.93,11.2S188.51,427.4,204.1,463c7.93,18.11,10.23,25.36,10.23,25.36s11-13.63,15.89-22.42A136.83,136.83,0,0,1,244.37,446l38.44,39.77L321.25,446a136.83,136.83,0,0,1,14.15,19.89c4.92,8.79,15.89,22.42,15.89,22.42s2.31-7.25,10.23-25.36c15.58-35.6,36.64-57.75,36.64-57.75s-6.94-3.83-9.93-11.2c-.87-2.14,3.82-4,3.82-4s6.56,9.44,10.91,9c5.2-5.37,32.15-23.9,30-42.12-3.88-33.09-15.66-62-15.66-62s-8-22.05,4.23-71.39c13.09-52.94-23.11-96.57-58.11-122.25H374C341.6,81.73,307.12,75,282.81,75S224,81.73,191.6,101.38h10.58C167.18,127.05,131,170.69,144.07,223.62Z"/><path class="cls-5" d="M315.51,528.5s8.43-1.42,12-13.42c2-6.57-1.82-11.06-5.65-13.79-8.08-.92-39.06-1.38-39.06-1.38s-31,.46-39.06,1.38c-3.83,2.73-7.61,7.23-5.65,13.79,3.58,12,12,13.42,12,13.42s-20.92,6.3-16.37,30.83c3.28,17.67,28.74,20.25,49.07,20.25s45.79-2.58,49.07-20.25C336.43,534.8,315.51,528.5,315.51,528.5Z"/><path class="cls-6" d="M243.47,328.53c-3.21-4.65-5.21-6.24-11-11-8-6.63-20.53-10.92-35.92-6.55-17.15,4.88-22.85,23.4-22.85,23.4a79.85,79.85,0,0,0,35.64,10.51c17.37.64,27.79-5.12,30.43-6.37C247.59,343.85,248.95,336.47,243.47,328.53Z"/><path class="cls-7" d="M243.61,330.71c-.63-5.61-5.35-8.41-11.11-13.18-8-6.63-20.53-10.92-35.92-6.55-10,2.85-16.15,10.38-19.49,16.13a7.58,7.58,0,0,0,3.4,10.75,79.06,79.06,0,0,0,28.89,7c17.37.64,26.83-6.44,29.47-7.69C240.29,336.31,244.16,335.56,243.61,330.71Z"/><circle class="cls-8" cx="210.29" cy="322.29" r="19.67"/><circle class="cls-9" cx="210.29" cy="322.29" r="11.49"/><circle class="cls-2" cx="210.29" cy="322.29" r="4.29"/><path class="cls-2" d="M251.76,354.15c8.55-8.38,12.31-20.83,5-36.62-9.56-20.71-41.56-34.22-41.56-34.22,0-10.22-17.5-26.89-25.91-30.81-1.91-.89-4.82-2.18-3.56,4.11,1.83,9.14.08,11.33.08,11.33s-19.58,16.21-34.4,29.51c-19.56,24.91,3.31,45.88,11.83,60.93,5.4,2.51,4.81,19.26,4.81,30.47,8.5,1.65,32.89-6.31,42.23-20.29,4.76-7.13,9.57-6.69,9.57-6.69l.67,10.53S235.59,370,251.76,354.15Zm-12-15.62c-2.64,1.25-13.06,7-30.43,6.37a79.85,79.85,0,0,1-35.64-10.51s5.7-18.52,22.85-23.4c15.39-4.38,27.91-.08,35.92,6.55,5.76,4.77,7.76,6.35,11,11C248.95,336.47,247.59,343.85,239.8,338.52Z"/><path class="cls-10" d="M173.73,334.38c-3.92,13.1,10.52,25.45,31.79,24.73,20.17-.68,40-11.35,41.26-21.88,1.21-10.15,4.93,4.27,7.62-3.85,1.57-4.73,5.56-8.54,3.89-12.21C252.62,308.71,247.64,300,224.47,292c-18.36-6.34-38.58-9.33-55.6,7.92C150.48,330.17,171.31,337.75,173.73,334.38ZM196.58,311c15.39-4.38,27.91-.08,35.92,6.55,5.76,4.77,7.76,6.35,11,11,5.48,7.95,4.12,15.32-3.66,10-2.64,1.25-13.06,7-30.43,6.37a79.85,79.85,0,0,1-35.64-10.51S179.43,315.86,196.58,311Z"/><path class="cls-2" d="M174.49,229.58c-1.2,1.59-1.88,7.88,2.41,7.59,9.37-.64,19.24,4.78,20.91,2.25s-2.27-10.49-7.15-12.49S178.43,224.34,174.49,229.58Z"/><path class="cls-11" d="M243.47,328.53c-3.21-4.65-5.21-6.24-11-11-8-6.63-20.53-10.92-35.92-6.55-17.15,4.88-22.85,23.4-22.85,23.4a79.85,79.85,0,0,0,35.64,10.51c17.37.64,27.79-5.12,30.43-6.37C247.59,343.85,248.95,336.47,243.47,328.53ZM230,340.32c-8.77,4.35-54.51,4.36-49.58-11.92,1.34-4.43,8.52-10.42,12.56-12.5a32.52,32.52,0,0,1,20.37-3.55C224.47,313.72,237.72,336.47,230,340.32Z"/><path class="cls-12" d="M182.93,327.07a74.89,74.89,0,0,0,30.65,0c19.37-4.24,23.26,13.47-.14,13.93S178.12,334.52,182.93,327.07Z"/><path class="cls-13" d="M199,315.22c1.82.41,1.45,3.3.75,6.46s-1.48,5.39-3.3,5-4-3.3-3.3-6.46S197.18,314.82,199,315.22Z"/><path class="cls-14" d="M170.81,330.17a29.41,29.41,0,0,1,1.18-3,47,47,0,0,1,4.16-7.32,43,43,0,0,1,3.49-4.46,38.29,38.29,0,0,1,4.58-4.43,33.28,33.28,0,0,1,5.71-3.84,30.26,30.26,0,0,1,6.67-2.61c.59-.13,1.18-.27,1.77-.39l1.78-.28,1.73-.19,1.76-.14a48.57,48.57,0,0,1,6.82.14,41.49,41.49,0,0,1,6.27,1.08,37.27,37.27,0,0,1,5.4,1.79,33.59,33.59,0,0,1,7.35,4.15,19.06,19.06,0,0,1,2.4,2.09,24.14,24.14,0,0,0-2.71-1.61,42.31,42.31,0,0,0-7.6-3.06,46.88,46.88,0,0,0-5.29-1.23,49,49,0,0,0-6-.63,48.49,48.49,0,0,0-6.43.14l-1.63.15-1.67.21-1.6.28-1.59.38a30.76,30.76,0,0,0-6.07,2.31,39.29,39.29,0,0,0-5.4,3.36,51.86,51.86,0,0,0-4.59,3.9c-1.38,1.34-2.63,2.69-3.74,4a75,75,0,0,0-5,6.54C171.39,329.18,170.81,330.17,170.81,330.17Z"/><path class="cls-6" d="M325.82,338.52c2.64,1.25,13.06,7,30.43,6.37a79.85,79.85,0,0,0,35.64-10.51S386.19,315.86,369,311c-15.39-4.38-27.91-.08-35.92,6.55-5.76,4.77-7.76,6.35-11,11C316.67,336.47,318,343.85,325.82,338.52Z"/><path class="cls-7" d="M326.78,337.2c2.64,1.25,12.1,8.33,29.47,7.69a79.06,79.06,0,0,0,28.89-7,7.58,7.58,0,0,0,3.4-10.75c-3.35-5.75-9.46-13.27-19.49-16.13-15.39-4.38-27.91-.08-35.92,6.55-5.76,4.77-10.47,7.57-11.11,13.18C321.47,335.56,325.33,336.31,326.78,337.2Z"/><circle class="cls-8" cx="355.33" cy="322.29" r="19.67"/><circle class="cls-9" cx="355.33" cy="322.29" r="12.76"/><circle class="cls-2" cx="355.33" cy="322.29" r="4.29"/><path class="cls-2" d="M345.1,372.4l.67-10.53s4.81-.44,9.57,6.69c9.33,14,33.73,21.94,42.23,20.29,0-11.21-.59-28,4.81-30.47,14.66-6.82,31.39-36,11.83-60.93-14.82-13.31-34.4-29.51-34.4-29.51s-1.75-2.19.08-11.33c1.26-6.29-1.65-5-3.56-4.11-8.41,3.91-25.91,20.59-25.91,30.81,0,0-32,13.51-41.56,34.22-7.29,15.8-3.53,28.24,5,36.62C330,370,345.1,372.4,345.1,372.4Zm-22.94-43.87c3.21-4.65,5.21-6.24,11-11,8-6.63,20.53-10.92,35.92-6.55,17.15,4.88,22.85,23.4,22.85,23.4a79.85,79.85,0,0,1-35.64,10.51c-17.37.64-27.78-5.12-30.43-6.37C318,343.85,316.67,336.47,322.15,328.53Z"/><path class="cls-10" d="M396.76,299.92c-17-17.26-37.24-14.26-55.6-7.92C318,300,313,308.71,307.33,321.17c-1.67,3.67,2.33,7.48,3.89,12.21,2.69,8.12,6.41-6.3,7.62,3.85,1.26,10.52,21.1,21.19,41.26,21.88,21.28.72,35.71-11.62,31.79-24.73C394.32,337.75,415.15,330.17,396.76,299.92Zm-4.86,34.46a79.85,79.85,0,0,1-35.64,10.51c-17.37.64-27.78-5.12-30.43-6.37-7.78,5.33-9.15-2-3.66-10,3.21-4.65,5.21-6.24,11-11,8-6.63,20.53-10.92,35.92-6.55C386.2,315.86,391.9,334.38,391.9,334.38Z"/><path class="cls-11" d="M325.82,338.52c2.64,1.25,13.06,7,30.43,6.37a79.85,79.85,0,0,0,35.64-10.51S386.19,315.86,369,311c-15.39-4.38-27.91-.08-35.92,6.55-5.76,4.77-7.76,6.35-11,11C316.67,336.47,318,343.85,325.82,338.52Zm26.5-26.17a32.52,32.52,0,0,1,20.37,3.55c4,2.09,11.22,8.07,12.56,12.5,4.94,16.28-40.8,16.26-49.58,11.92C327.9,336.47,341.15,313.72,352.32,312.35Z"/><path class="cls-12" d="M382.69,327.07a74.89,74.89,0,0,1-30.65,0c-19.37-4.24-23.26,13.47.14,13.93S387.5,334.52,382.69,327.07Z"/><path class="cls-13" d="M344.05,315.22c1.82.41,1.45,3.3.75,6.46s-1.48,5.39-3.3,5-4-3.3-3.3-6.46S342.23,314.82,344.05,315.22Z"/><path class="cls-14" d="M394.82,330.17s-.59-1-1.71-2.65a75,75,0,0,0-5-6.54c-1.12-1.28-2.36-2.62-3.74-4a51.85,51.85,0,0,0-4.59-3.9,39.29,39.29,0,0,0-5.4-3.36,30.76,30.76,0,0,0-6.07-2.31l-1.59-.38-1.6-.28-1.67-.21-1.63-.15a48.49,48.49,0,0,0-6.43-.14,49,49,0,0,0-6,.63,46.88,46.88,0,0,0-5.29,1.23,42.31,42.31,0,0,0-7.6,3.06,24.14,24.14,0,0,0-2.71,1.61,19.06,19.06,0,0,1,2.4-2.09,33.59,33.59,0,0,1,7.35-4.15,37.27,37.27,0,0,1,5.4-1.79,41.49,41.49,0,0,1,6.27-1.08,48.57,48.57,0,0,1,6.82-.14l1.76.14,1.73.19,1.78.28c.59.12,1.18.26,1.77.39a30.26,30.26,0,0,1,6.67,2.61,33.28,33.28,0,0,1,5.71,3.84,38.29,38.29,0,0,1,4.58,4.43,42.94,42.94,0,0,1,3.49,4.46,47,47,0,0,1,4.16,7.32A29.41,29.41,0,0,1,394.82,330.17Z"/><path class="cls-2" d="M261,286c-2-1-3.33-3.46-5-9.7s-.32-37.16-4.3-54.77c-4.93-21.79-8.42-42.43-16.45-46.78-12.12-5.15-23.06,10.08-23.06,10.08l-8.43,7.86-22.38-4.21-7.3-14.19,10.38-20.94-7,3.59-14,21.5,7.3,3.66a132,132,0,0,1-5.36,17.45c.81.59,3.87-1.06,5.78,0,6.87,3.83,17,14.18,25.74,15.24C204.21,206.83,218,190,218,190h5.35l-1.84,34.41,8.48,44,20.81,20.33,10.52,2.76s-12.13,11-26,11.32c-2.92.06-.46,8.38,8.4,8.39,13.48,0,25.32-18.67,25.32-18.67V289.8S263,287,261,286Z"/><path class="cls-2" d="M170,378.4c0,9.29-8.3,19.6-8.3,19.6l10.68,3.5c3.15.68,14,6.26,17.61,10.73,6.72,8.24,19.23,34,19.23,34s17-31,35.34-49.86c1.58-1.63-.34-4.35-2.56-3.87,0,0-9.72,5.07-11.15,6.23-11.63,9.41-21.63,28-21.63,28s-6.07-12.67-12-19.82c-8.36-10.07-26-11.5-26-11.5L182,371.06S170,374.89,170,378.4Z"/><path class="cls-2" d="M132.19,309.5s-1.38,10.91,14.94,23c9.09,6.75,6.65-9.3,6.65-9.3s-13.64-.92-16-28.29C137.78,306.66,132.19,309.5,132.19,309.5Z"/><path class="cls-2" d="M268.9,507.45l-.05.42c0,.28-.06.72-.09,1.24a30.68,30.68,0,0,0,.05,3.8c.06.68.14,1.33.25,1.93s.24,1.11.36,1.55l.19.56a3.57,3.57,0,0,0,.16.4l.14.34.22.54a3.15,3.15,0,0,1-5.43,3.1l-.43-.57c-.13-.18-.32-.41-.47-.67l-.54-.88A23.36,23.36,0,0,1,262.2,517c-.33-.81-.64-1.67-.9-2.54a38.54,38.54,0,0,1-1.1-4.76c-.11-.66-.18-1.21-.23-1.61l-.07-.66v-.07a4.53,4.53,0,1,1,9-.91A4.77,4.77,0,0,1,268.9,507.45Z"/><line class="cls-2" x1="282.81" y1="388.95" x2="282.81" y2="226.72"/><rect class="cls-2" x="279.81" y="226.71" width="6" height="162.24"/><line class="cls-2" x1="270.14" y1="316.1" x2="282.81" y2="316.1"/><path class="cls-2" d="M282.81,319.1H270.14a3,3,0,0,1,0-6h12.67a3,3,0,0,1,0,6Z"/><path class="cls-2" d="M282.81,435.86l-31.1-.83,31.1,36.27L313.91,435Z"/><path class="cls-10" d="M282.81,435.86,249.46,435l33.35,36.27L316.16,435Z"/><path class="cls-2" d="M323.92,429.92c-1-8.72-9.52-18.24-18.16-28.42-3.18,6.8-17.12,24.11-22.94,24.16S263,408.3,259.87,401.5c-8.64,10.18-17.16,19.7-18.16,28.42s13.52,10.5,22.24,9.26c5.19,3.6,12,7.1,18.87,7.1s13.68-3.49,18.87-7.1C310.4,440.42,324.92,438.64,323.92,429.92Z"/><path class="cls-2" d="M395.62,378.4c0,9.29,8.3,19.6,8.3,19.6l-10.68,3.5c-3.15.68-14,6.26-17.61,10.73-6.72,8.24-19.23,34-19.23,34s-17-31-35.34-49.86c-1.58-1.63.34-4.35,2.56-3.87,0,0,9.72,5.07,11.15,6.23,11.63,9.41,21.63,28,21.63,28s6.07-12.67,12-19.82c8.36-10.07,26-11.5,26-11.5l-10.8-24.38S395.62,374.89,395.62,378.4Z"/><path class="cls-2" d="M296.73,507.45l.05.42c0,.28.06.72.09,1.24a30.68,30.68,0,0,1-.05,3.8c-.06.68-.14,1.33-.25,1.93s-.24,1.11-.36,1.55l-.19.56a3.57,3.57,0,0,1-.16.4l-.14.34-.22.54a3.15,3.15,0,0,0,5.43,3.1l.43-.57c.13-.18.32-.41.47-.67l.54-.88a23.36,23.36,0,0,0,1.07-2.21c.33-.81.64-1.67.9-2.54a38.54,38.54,0,0,0,1.1-4.76c.11-.66.18-1.21.23-1.61l.07-.66v-.07a4.53,4.53,0,1,0-9-.91A4.77,4.77,0,0,0,296.73,507.45Z"/><path class="cls-2" d="M295.45,557.52a9,9,0,0,0-.27-1.67,13,13,0,0,0-.51-1.57,13.84,13.84,0,0,0-.66-1.45c-.25-.46-.51-.91-.79-1.33a23.89,23.89,0,0,0-3.83-4.52,12.06,12.06,0,0,0-1.11-.91,10.41,10.41,0,0,0-1.22-.75,9.72,9.72,0,0,0-1-.44q.31-1.55.55-3.1c.15-.85.24-1.7.36-2.55s.23-1.7.31-2.55c.36-3.41.59-6.81.7-10.22,0-.85,0-1.7.06-2.55s0-1.7,0-2.55c0-1.7-.07-3.41-.19-5.11s-.29-3.41-.53-5.11c-.11-.85-.28-1.7-.42-2.55-.09-.43-.18-.85-.27-1.28s-.2-.85-.32-1.28a3.69,3.69,0,0,0-.23-.56l-.11-.21a3.74,3.74,0,0,0-.29-.43l-.18-.2-.25-.26-.17-.16a3.63,3.63,0,0,0-.47-.32l-.15-.08a3.56,3.56,0,0,0-.45-.2l-.14,0-.06,0-.24,0a3.59,3.59,0,0,0-.41-.08h-.71a3.59,3.59,0,0,0-.41.08l-.24,0-.06,0-.14,0a3.57,3.57,0,0,0-.45.2l-.15.08a3.63,3.63,0,0,0-.47.32l-.17.16-.25.26-.18.2a3.74,3.74,0,0,0-.29.43l-.11.21a3.69,3.69,0,0,0-.23.56c-.12.43-.23.85-.32,1.28s-.18.85-.27,1.28c-.14.85-.31,1.7-.42,2.55-.24,1.7-.41,3.41-.53,5.11s-.17,3.41-.19,5.11c0,.85,0,1.7,0,2.55s0,1.7.06,2.55c.11,3.41.34,6.81.7,10.22.08.85.2,1.7.31,2.55s.21,1.7.36,2.55q.24,1.55.55,3.1h0a9.72,9.72,0,0,0-1,.44,10.41,10.41,0,0,0-1.22.75,12.06,12.06,0,0,0-1.11.91,23.89,23.89,0,0,0-3.83,4.52c-.28.42-.54.88-.79,1.33a13.84,13.84,0,0,0-.66,1.45,13,13,0,0,0-.51,1.57,9,9,0,0,0-.27,1.67,9.56,9.56,0,0,0,0,1.72,8.72,8.72,0,0,0,.41,1.67,6.61,6.61,0,0,0,.75,1.48,7.73,7.73,0,0,0,1,1.21,1.14,1.14,0,0,0,2-1l0-.23a7.7,7.7,0,0,1-.16-1.11,4.88,4.88,0,0,1,0-1,4.8,4.8,0,0,1,.21-.92,6.31,6.31,0,0,1,.36-.85,7.63,7.63,0,0,1,.5-.81,8.13,8.13,0,0,1,.59-.78c.22-.26.46-.5.7-.76s.49-.5.77-.74.55-.48.83-.71L279,554c.61-.45,1.22-.9,1.87-1.33a13.78,13.78,0,0,0,1.83-1.45l.14-.15.14.15a13.78,13.78,0,0,0,1.83,1.45c.65.42,1.26.88,1.87,1.33l.88.69c.28.23.57.47.83.71s.52.49.77.74.48.5.7.76a8.13,8.13,0,0,1,.59.78,7.63,7.63,0,0,1,.5.81,6.31,6.31,0,0,1,.36.85,4.8,4.8,0,0,1,.21.92,4.88,4.88,0,0,1,0,1,7.7,7.7,0,0,1-.16,1.11l0,.23a1.14,1.14,0,0,0,2,1,7.73,7.73,0,0,0,1-1.21,6.61,6.61,0,0,0,.75-1.48,8.72,8.72,0,0,0,.41-1.67A9.56,9.56,0,0,0,295.45,557.52Z"/><path class="cls-2" d="M282.81,374.41c-5.14,4.38-12.67,14.84-12.67,14.84s6.59,10.75,12.67,14.25c6.09-3.5,12.67-14.25,12.67-14.25S288,378.78,282.81,374.41Z"/><polygon class="cls-2" points="282.82 374.38 293.77 361.29 282.89 348.37 282.89 348.17 282.81 348.27 282.73 348.17 282.73 348.37 271.85 361.29 282.8 374.38 282.8 374.41 282.81 374.39 282.82 374.41 282.82 374.38"/><polygon class="cls-2" points="282.82 301.9 293.77 288.8 282.89 275.88 282.89 275.68 282.81 275.78 282.73 275.68 282.73 275.88 271.85 288.8 282.8 301.9 282.8 301.92 282.81 301.91 282.82 301.92 282.82 301.9"/><line class="cls-2" x1="295.48" y1="316.1" x2="282.81" y2="316.1"/><path class="cls-2" d="M295.48,319.1H282.81a3,3,0,0,1,0-6h12.67a3,3,0,0,1,0,6Z"/><path class="cls-2" d="M177.6,158.94c-5.68-1.06-15.59-12.16-1.56-30.35,15.28-19.8,53.91-48.73,89.08-52.53,18.34-2,17.69-1,17.69-1s-33.88,4.4-45.5,19c-8.77,11,15.21,28.13-1.17,46.14C218.81,159.2,197.82,162.71,177.6,158.94Z"/><path class="cls-2" d="M300.28,89.1C296.09,76.37,282.81,75,282.81,75s-13.28,1.37-17.47,14.1c-18.73,57,2.55,128.85,17.47,164.23C297.72,218,319,146.1,300.28,89.1Z"/><path class="cls-2" d="M304.59,286c2-1,3.33-3.46,5-9.7s.32-37.16,4.3-54.77c4.93-21.79,8.42-42.43,16.45-46.78,12.12-5.15,23.06,10.08,23.06,10.08l8.43,7.86,22.38-4.21,7.3-14.19-10.38-20.94,7,3.59,14,21.5-7.3,3.66a132,132,0,0,0,5.36,17.45c-.81.59-3.87-1.06-5.78,0-6.87,3.83-17,14.18-25.74,15.24-7.31-8-21.07-24.81-21.07-24.81h-5.35l1.84,34.41-8.48,44-20.81,20.33-10.52,2.76s12.13,11,26,11.32c2.92.06.46,8.38-8.4,8.39-13.48,0-25.32-18.67-25.32-18.67V289.8S302.58,287,304.59,286Z"/><path class="cls-2" d="M391.13,229.58c1.2,1.59,1.88,7.88-2.41,7.59-9.37-.64-19.24,4.78-20.91,2.25s2.27-10.49,7.15-12.49S387.19,224.34,391.13,229.58Z"/><path class="cls-2" d="M388,158.94c5.68-1.06,15.59-12.16,1.56-30.35-15.28-19.8-53.91-48.73-89.08-52.53-18.34-2-17.69-1-17.69-1s33.88,4.4,45.5,19c8.77,11-15.21,28.13,1.17,46.14C346.81,159.2,367.8,162.71,388,158.94Z"/><path class="cls-2" d="M462.62,329.8q.19-2,.35-3.94.08-1,.16-1.94.16-2,.3-3.89c0-.57.08-1.13.12-1.7q.19-2.74.34-5.45v-.07q.15-2.66.26-5.28c0-.56,0-1.12.07-1.68q.07-1.85.13-3.68,0-.92.05-1.83,0-1.84.08-3.66c0-.53,0-1.05,0-1.58q0-2.57,0-5.11c0-.07,0-.14,0-.21q0-2.43,0-4.82c0-.53,0-1,0-1.57q0-1.73-.08-3.45,0-.86-.05-1.71-.06-1.73-.13-3.44c0-.49,0-1-.06-1.47q-.12-2.41-.26-4.78l0-.26q-.14-2.24-.31-4.45c0-.5-.08-1-.12-1.48q-.13-1.62-.28-3.22-.07-.8-.15-1.59-.16-1.63-.33-3.24c0-.45-.1-.9-.15-1.35q-.25-2.25-.54-4.47l0-.3q-.27-2.06-.56-4.1c-.07-.46-.14-.91-.2-1.37q-.23-1.52-.47-3l-.24-1.47q-.25-1.53-.52-3c-.07-.42-.15-.83-.22-1.25q-.38-2.1-.79-4.17l-.07-.32q-.38-1.9-.79-3.78l-.28-1.27q-.31-1.42-.64-2.82l-.32-1.36q-.34-1.43-.7-2.85l-.28-1.13q-.5-2-1-3.88l-.09-.32q-.48-1.75-1-3.48l-.35-1.17q-.39-1.32-.8-2.62l-.39-1.24q-.43-1.35-.87-2.67l-.33-1q-.61-1.82-1.25-3.6l-.11-.3q-.58-1.62-1.18-3.22l-.41-1.06q-.47-1.24-1-2.46l-.45-1.12q-.51-1.26-1-2.51l-.37-.9q-.72-1.68-1.45-3.34l-.12-.27q-.67-1.5-1.36-3l-.45-1q-.55-1.15-1.1-2.29l-.5-1q-.59-1.18-1.19-2.35l-.4-.78q-.81-1.56-1.64-3.08l-.12-.22q-.76-1.39-1.54-2.76l-.49-.85q-.62-1.07-1.24-2.13l-.53-.9q-.66-1.11-1.34-2.19l-.42-.67q-.9-1.43-1.81-2.84l-.13-.2q-.84-1.28-1.69-2.53l-.52-.76-1.37-2-.57-.8q-.74-1-1.48-2l-.42-.57q-1-1.31-2-2.6l-.12-.15q-.91-1.18-1.84-2.33l-.53-.66-1.49-1.82-.58-.69-1.62-1.9-.41-.47q-1-1.2-2.1-2.37l-.12-.13q-1-1.07-2-2.12l-.54-.57-1.61-1.68-.58-.59-1.76-1.77-.38-.38q-1.11-1.09-2.23-2.15l-.08-.08q-1-1-2.1-2l-.53-.48-1.72-1.54-.57-.51-1.88-1.62-.35-.3q-1.16-1-2.33-1.94l-.05,0q-1.1-.9-2.21-1.77l-.52-.41-1.81-1.4-.56-.42-2-1.49-.3-.22q-1.2-.88-2.41-1.73l0,0-2.28-1.58-.52-.35-1.87-1.25-.55-.36-2.1-1.35-.25-.16L374,101.38H363.44c35,25.68,71.2,69.31,58.11,122.25C409.35,273,417.32,295,417.32,295S429.1,323.89,433,357c2.14,18.22-24.82,36.75-30,42.12-4.36.42-10.91-9-10.91-9s-4.69,1.84-3.82,4c3,7.37,9.93,11.2,9.93,11.2S377.11,427.4,361.52,463c-7.93,18.11-10.23,25.36-10.23,25.36s-11-13.63-15.89-22.42A136.83,136.83,0,0,0,321.25,446l-38.44,39.77L244.37,446a136.83,136.83,0,0,0-14.15,19.89c-4.92,8.79-15.89,22.42-15.89,22.42S212,481.11,204.1,463c-15.58-35.6-36.64-57.75-36.64-57.75s6.94-3.83,9.93-11.2c.87-2.14-3.82-4-3.82-4s-6.56,9.44-10.91,9c-5.2-5.37-32.15-23.9-30-42.12,3.88-33.09,15.66-62,15.66-62s8-22.05-4.23-71.39c-13.09-52.94,23.11-96.57,58.11-122.25H191.6l-2.48,1.53-.25.16-2.09,1.34-.55.36L184.36,106l-.52.35-2.28,1.58,0,0q-1.21.85-2.41,1.73l-.3.22-2,1.49-.56.42-1.81,1.4-.52.41q-1.11.87-2.21,1.77l-.05,0q-1.17,1-2.33,1.94l-.35.3-1.88,1.62-.57.51-1.71,1.54-.54.49q-1.05,1-2.09,1.95l-.08.08q-1.12,1.06-2.23,2.15l-.38.38-1.76,1.77-.58.59-1.61,1.68L155,131q-1,1.05-2,2.12l-.12.13q-1.06,1.17-2.1,2.37l-.41.47L148.8,138l-.58.69-1.49,1.82-.54.66q-.92,1.15-1.83,2.33l-.12.16q-1,1.28-2,2.6l-.42.57q-.75,1-1.48,2l-.57.8-1.37,2-.52.76q-.85,1.25-1.68,2.52l-.14.21q-.91,1.4-1.81,2.83l-.42.68q-.67,1.09-1.34,2.19l-.54.9q-.62,1.05-1.24,2.12l-.49.86q-.77,1.36-1.53,2.75l-.13.24q-.83,1.52-1.64,3.08l-.4.78q-.6,1.17-1.19,2.35l-.5,1q-.55,1.13-1.1,2.28l-.46,1q-.69,1.47-1.36,3l-.13.28q-.74,1.65-1.45,3.34l-.37.9q-.52,1.24-1,2.51l-.45,1.12q-.48,1.22-1,2.46l-.41,1.06q-.6,1.6-1.18,3.22l-.11.3q-.64,1.78-1.25,3.6l-.34,1q-.44,1.33-.87,2.67l-.39,1.24q-.41,1.3-.8,2.63l-.35,1.17q-.51,1.73-1,3.48l-.09.32q-.53,1.92-1,3.88l-.28,1.13q-.36,1.41-.7,2.85l-.32,1.36q-.33,1.4-.64,2.81l-.28,1.27q-.4,1.87-.78,3.77l-.07.32q-.41,2.07-.79,4.17c-.07.41-.15.83-.22,1.24q-.27,1.51-.52,3l-.24,1.48q-.24,1.49-.46,3c-.07.46-.14.92-.21,1.38q-.29,2-.56,4.09l0,.3q-.28,2.22-.54,4.47c-.05.45-.1.91-.15,1.36q-.17,1.61-.33,3.23-.08.79-.15,1.59-.15,1.61-.28,3.23c0,.49-.08,1-.12,1.47q-.17,2.21-.31,4.45l0,.26q-.15,2.37-.26,4.78c0,.49,0,1-.06,1.47q-.08,1.71-.13,3.44,0,.85-.05,1.71,0,1.72-.08,3.45c0,.52,0,1,0,1.57q0,2.39,0,4.82c0,.07,0,.14,0,.21q0,2.53,0,5.1c0,.53,0,1.06,0,1.59q0,1.82.08,3.65,0,.91.05,1.83.06,1.83.13,3.68c0,.56,0,1.11.07,1.67q.11,2.61.26,5.25v.12q.15,2.7.34,5.44c0,.56.08,1.13.12,1.7q.14,1.94.3,3.89.08,1,.16,1.94.17,2,.35,3.94c.05.58.11,1.17.16,1.75q.28,2.84.59,5.71c15,136.52,70.52,250.15,179.06,250.15S446.88,473.78,461.87,337.26q.32-2.87.59-5.71C462.51,331,462.56,330.39,462.62,329.8ZM331.88,559.33c-3.28,17.67-28.74,20.25-49.07,20.25S237,577,233.74,559.33c-4.56-24.53,16.37-30.83,16.37-30.83s-8.43-1.42-12-13.42c-2-6.57,1.82-11.06,5.65-13.79,8.08-.92,39.06-1.38,39.06-1.38s31,.46,39.06,1.38c3.83,2.73,7.61,7.23,5.65,13.79-3.58,12-12,13.42-12,13.42S336.43,534.8,331.88,559.33Z"/><path class="cls-15" d="M128.16,376.7h0c-2.5,11.38-5.77,26.84-9.08,44.15,14.77,55,38.24,101.49,71.54,131.26-.15-1-14.86-93.79-25-126.12C155.52,393.5,128.16,376.7,128.16,376.7Z"/><path class="cls-15" d="M437.46,376.7h0c2.5,11.38,5.77,26.84,9.08,44.15-14.77,55-38.24,101.49-71.54,131.26.15-1,14.86-93.79,25-126.12C410.1,393.5,437.46,376.7,437.46,376.7Z"/><path class="cls-15" d="M437.46,376.7l-14-163.06a94.61,94.61,0,0,1-1.91,10C409.35,273,417.32,295,417.32,295S429.1,323.89,433,357a19.73,19.73,0,0,1-.66,7.53Z"/><path class="cls-15" d="M128.16,376.7l14-163.06a94.61,94.61,0,0,0,1.91,10C156.26,273,148.3,295,148.3,295s-11.77,28.88-15.66,62a19.73,19.73,0,0,0,.66,7.53Z"/><path class="cls-16" d="M295.23,99.41c-4.57-6.45-8.93-44.49-8.93-44.49s-2-6.92-3.49-6.92-3.49,6.92-3.49,6.92S275,93,270.39,99.41s.18,27.09,5.43,32.5c2.55,2.63,5.73,4.84,7,4.84s4.43-2.21,7-4.84C295,126.49,299.8,105.86,295.23,99.41Z"/><path class="cls-16" d="M193,136.75c23.46-10.08,22-33.83,22-33.83s-5.93-1.67-16.58-7.42c-11.19-6-18.81-24.67-24.75-30.17C164.61,56.89,161.35,112,193,136.75Z"/><path class="cls-16" d="M372.6,136.75c-23.46-10.08-22-33.83-22-33.83s5.93-1.67,16.58-7.42c11.19-6,18.81-24.67,24.75-30.17C401,56.89,404.27,112,372.6,136.75Z"/><path class="cls-17" d="M404.28,366.67c22.87-9.69.69,16.59-2.09,18-37.06,18.83-74,13.33-93.71-25.53C361.5,392.67,388,373.57,404.28,366.67Z"/><path class="cls-17" d="M162.95,366.67c-22.87-9.69-.69,16.59,2.09,18,37.06,18.83,74,13.33,93.71-25.53C205.73,392.67,179.25,373.57,162.95,366.67Z"/><path class="cls-17" d="M311.88,413.53c-2.34-4.25-6.39-6.51-9.05-5a4.14,4.14,0,0,0-1.91,2.59c-11.11-22.13-11.75-63.39-11.78-74.61,0-14.5-6.34-13.4-6.34-13.4s-6.3-1.1-6.34,13.4c0,11.22-.66,52.48-11.78,74.61a4.14,4.14,0,0,0-1.91-2.59c-2.66-1.46-6.71.79-9.05,5s-2.08,8.88.59,10.34,10.29-1.34,10.8,0c1.59,4.29,9.64,6.44,17.69,6.44s16.1-2.15,17.69-6.44c.51-1.37,8.14,1.43,10.8,0S314.22,417.78,311.88,413.53Z"/><path class="cls-18" d="M238.84,451c7,4,21.9,22.26,30,30.35-40.22,12-37,6.65-37,6.65s-15.52-4.19-22,15.38C203.14,487.51,231.89,447,238.84,451Z"/><path class="cls-18" d="M326.78,451c-7,4-21.9,22.26-30,30.35,40.22,12,37,6.65,37,6.65s15.52-4.19,22,15.38C362.48,487.51,333.73,447,326.78,451Z"/><path class="cls-18" d="M222.47,550.67c0-7.74,27-23.67,60.34-23.67s60.33,15.93,60.33,23.67-27,4.36-60.33,4.36S222.47,558.41,222.47,550.67Z"/><path class="cls-19" d="M325.48,504.2s-20.92,1.85-42.67,1.85-42.67-1.85-42.67-1.85c-7.74-.43-8.1.48.17,1.81,4.54.73,22.25,4.35,42.5,4.35s38-3.61,42.5-4.35C333.58,504.67,333.22,503.77,325.48,504.2Z"/><path class="cls-20" d="M249.46,308.11s13.35,3.13,19.52-3.24c5.34-5.51,5.29-7.12,4.13,0s-5.17,20-13.37,21.09S245.37,308,249.46,308.11Z"/><path class="cls-20" d="M316.46,308.11s-13.35,3.13-19.52-3.24c-5.34-5.51-5.29-7.12-4.13,0s5.17,20,13.37,21.09S320.55,308,316.46,308.11Z"/><path class="cls-20" d="M144.07,223.62a253.14,253.14,0,0,1,5,25.17c16.9-31.52,63.47-71.19,133.79-71.19S399.7,217.27,416.6,248.79a253.14,253.14,0,0,1,5-25.17c13.09-52.94-23.11-96.57-58.11-122.25L282.81,48l-80.63,53.38C167.18,127.05,131,170.69,144.07,223.62Z"/><polygon class="cls-10" points="337.64 492 332.46 496.94 293.77 484.33 282.81 494.24 271.85 484.33 233.16 496.94 227.98 492 213.81 499.91 222.14 512.48 236.14 499.78 282.81 499.91 329.48 499.78 343.48 512.48 351.81 499.91 337.64 492"/><path class="cls-2" d="M422.51,64.46,297.08,20.11H268.55L143.12,64.46,97.39,192.6l44.76,21s5.57-55.85,21.92-69,85.13-52.23,118.73-52.23,102.37,39.08,118.72,52.23,21.92,69,21.92,69l44.78-21Z"/><path class="cls-21" d="M449.64,74.79C417,36.34,282.81,0,282.81,0s-106.23,33.54-152,67.33C115,85.24,118.6,90.64,139.51,79.89c5-2.59,52.89-16.92,80.64-31.89-8,7.27-11.3,23.21-110.33,81.6,59.06-18.39,0,59.4,53.62,9.83C178.84,125.19,248.9,87.7,282.81,87c66.61-1.37,110.47,45.4,128,57,35,23.19,56.62-4.95,35.77-24C342.57,25,449.64,74.79,449.64,74.79Z"/></g></g></g></g></svg>