<svg xmlns="http://www.w3.org/2000/svg" viewBox="0 0 760.32 1056"><defs><style>.cls-1,.cls-18,.cls-20,.cls-21,.cls-24,.cls-26,.cls-5,.cls-6,.cls-7{fill:none;}.cls-2{fill:#e0e0e0;}.cls-3,.cls-33{fill:#eee;}.cls-4{fill:#283593;}.cls-5{stroke:#616161;}.cls-14,.cls-18,.cls-20,.cls-21,.cls-23,.cls-24,.cls-26,.cls-5,.cls-6,.cls-7{stroke-miterlimit:10;}.cls-18,.cls-20,.cls-26,.cls-5,.cls-6,.cls-7{stroke-width:2.36px;}.cls-6{stroke:#424242;}.cls-7{stroke:#fafafa;}.cls-8{fill:#757575;}.cls-9{fill:#616161;}.cls-10,.cls-32{fill:#bdbdbd;}.cls-11{fill:#212121;}.cls-12,.cls-25{fill:#5c6bc0;}.cls-13,.cls-14,.cls-23{fill:#1a237e;}.cls-14,.cls-23{stroke:#1a237e;}.cls-14{stroke-width:0.79px;}.cls-15{opacity:0.14;}.cls-16{fill:#7986cb;}.cls-17{fill:#fafafa;}.cls-18,.cls-20{stroke:#bdbdbd;}.cls-19{fill:#fff;opacity:0.31;}.cls-20{stroke-linecap:round;}.cls-21,.cls-26{stroke:#fff;}.cls-21{stroke-width:1.58px;}.cls-22{fill:#3949ab;}.cls-23,.cls-24{stroke-width:4.34px;}.cls-24{stroke:#3949ab;}.cls-25{opacity:0.39;}.cls-27{opacity:0.2;}.cls-28,.cls-32{opacity:0.3;}.cls-29{fill:#303f9f;}.cls-30{opacity:0.5;}.cls-31{fill:#424242;}.cls-33{opacity:0.4;}</style></defs><title>starwarsR2D2</title><g id="Layer_2" data-name="Layer 2"><g id="Layer_1-2" data-name="Layer 1"><rect class="cls-1" width="760.32" height="1056"/><g id="R2-D2"><rect class="cls-2" x="138.97" y="950.34" width="241.45" height="105.66"/><rect class="cls-2" x="380.42" y="950.34" width="240.93" height="105.66"/><path class="cls-2" d="M182.33,1056c-29.28-40.29-46.55-100.12-46.55-153.73,0-135,109.41-244.38,244.38-244.38S624.54,767.3,624.54,902.27c0,53.62-17.27,113.44-46.54,153.73Z"/><path class="cls-3" d="M380,662.9a231,231,0,0,0-182.68,89.37c3.66-1.93,7.33-3.83,11.06-5.62,16.18-7.77,57.88-25.45,126.91-25.45,16.55,0,33-2.09,49.53-2.19s50.57.38,67.08,1.64c42.06,3.22,66.69,11.18,106.17,25.89A230.92,230.92,0,0,0,380,662.9Z"/><path class="cls-4" d="M622.65,935.78a246.77,246.77,0,0,0,1.89-30.48H135.78a246.77,246.77,0,0,0,1.89,30.48Z"/><line class="cls-5" x1="624.54" y1="901.36" x2="135.78" y2="901.36"/><line class="cls-6" x1="622.65" y1="935.78" x2="137.67" y2="935.78"/><line class="cls-7" x1="624.54" y1="906.08" x2="135.78" y2="906.08"/><path class="cls-4" d="M624.32,895h0c0-1.09,0-2.18,0-3.26A243.28,243.28,0,0,0,607,811.18h-.11c0-2.1-5.33-4.1-15-5.95A266.77,266.77,0,0,1,609.68,895Z"/><path class="cls-4" d="M153.33,811.18h0a243.15,243.15,0,0,0-17.12,76.63c0,2.38-.11,4.78-.21,7.18h48.46A308,308,0,0,1,201,801C171.21,803.83,154.83,807.84,153.33,811.18Z"/><path class="cls-4" d="M279.76,895A582.8,582.8,0,0,1,289,796c-15.45.5-30,1.12-43.4,1.84a356.51,356.51,0,0,0-15,97.15Z"/><path class="cls-4" d="M213.27,800a295.33,295.33,0,0,0-17.73,95h24a368.84,368.84,0,0,1,14.29-96.47C226.57,799,219.7,799.46,213.27,800Z"/><path class="cls-4" d="M579.08,803.23c-5.81-.77-12.43-1.51-19.8-2.2a308,308,0,0,1,16.57,94H598.6a255.72,255.72,0,0,0-17.13-85.85Q580.32,806.16,579.08,803.23Z"/><path class="cls-4" d="M296.49,818.91A591.49,591.49,0,0,0,290.84,895h48.5c.11-26.52.83-52.34,2.11-76.67C326,818.44,311,818.64,296.49,818.91Z"/><path class="cls-4" d="M469.48,895a591.44,591.44,0,0,0-5.66-76.13c-25.89-.46-53.48-.7-82.15-.7q-14.78,0-29.13.08c-1.29,24.36-2,50.21-2.13,76.75Z"/><circle class="cls-8" cx="430.68" cy="856.65" r="24"/><circle class="cls-8" cx="430.68" cy="856.65" r="17.31"/><path class="cls-9" d="M448,857.28a16.7,16.7,0,0,1-1,6.77,17.14,17.14,0,0,1-3.67,5.9,17.49,17.49,0,0,1-5.77,4,17.55,17.55,0,0,1-13.82,0,17.5,17.5,0,0,1-5.77-4,17.14,17.14,0,0,1-3.67-5.9,16.7,16.7,0,0,1-1-6.77,18,18,0,0,0,5.51,11.81,17.14,17.14,0,0,0,23.62,0A18,18,0,0,0,448,857.28Z"/><path class="cls-10" d="M413.36,857.28a16.7,16.7,0,0,1,1-6.77,17.14,17.14,0,0,1,3.67-5.9,17.49,17.49,0,0,1,5.77-4,17.55,17.55,0,0,1,13.82,0,17.5,17.5,0,0,1,5.77,4,17.15,17.15,0,0,1,3.67,5.9,16.7,16.7,0,0,1,1,6.77,18,18,0,0,0-5.51-11.81,17.14,17.14,0,0,0-23.62,0A18,18,0,0,0,413.36,857.28Z"/><path class="cls-11" d="M430.68,834.75a24,24,0,0,1,24,23c0-.35,0-.69,0-1a24,24,0,1,0-48,0c0,.35,0,.7,0,1A24,24,0,0,1,430.68,834.75Z"/><circle class="cls-4" cx="378.2" cy="857.7" r="19.28"/><path class="cls-12" d="M397.48,857.7a19,19,0,0,1-1.29,7.45,19.34,19.34,0,0,1-36,0,19,19,0,0,1-1.29-7.45,19.64,19.64,0,0,0,5.86,13.42,19.2,19.2,0,0,0,26.84,0A19.64,19.64,0,0,0,397.48,857.7Z"/><path class="cls-13" d="M378.2,839.4a19.27,19.27,0,0,1,19.27,18.79c0-.16,0-.33,0-.49a19.28,19.28,0,1,0-38.56,0c0,.17,0,.33,0,.49A19.27,19.27,0,0,1,378.2,839.4Z"/><circle class="cls-14" cx="378.2" cy="857.7" r="13.44"/><path class="cls-15" d="M364.77,857.7a13.42,13.42,0,1,1,10.37,13.08A13.44,13.44,0,0,1,364.77,857.7Z"/><path class="cls-12" d="M375,871.17a13.73,13.73,0,0,1-7.53-5,13.55,13.55,0,0,1-2.76-8.47,13.35,13.35,0,0,0,3.06,8.22,13.14,13.14,0,0,0,7.4,4.48Z"/><path class="cls-12" d="M391.64,857.7a13.54,13.54,0,0,1-2.71,8.41,13.73,13.73,0,0,1-7.43,5l-.19-.76a13.14,13.14,0,0,0,7.3-4.5A13.35,13.35,0,0,0,391.64,857.7Z"/><rect class="cls-4" x="375.14" y="844.26" width="6.27" height="27.8"/><path class="cls-16" d="M376.68,657.92a243.17,243.17,0,0,0-132.45,41.23C262,690.42,315.86,684.06,379.69,684c-1.67-19.86-3.08-25.16-3.47-25.94C376.3,658.27,376.46,658.17,376.68,657.92Z"/><path class="cls-16" d="M390,676.5q.38,3.51.74,7.59c59.37.66,108.6,6.79,125.37,15.06A243.12,243.12,0,0,0,386.79,658a28.5,28.5,0,0,1,1,3.67A145.6,145.6,0,0,1,390,676.5Z"/><path class="cls-17" d="M517.66,700.86a34.86,34.86,0,0,0-7.92-3.6c-2.75-.94-5.56-1.71-8.39-2.38-5.66-1.36-11.39-2.36-17.15-3.23-11.5-1.77-23.1-3-34.7-3.86q-34.83-2.65-69.81-2.49-34.94-.11-69.81,2.5c-11.61.9-23.2,2.08-34.7,3.86-5.75.87-11.49,1.87-17.15,3.23-2.83.67-5.64,1.44-8.39,2.38a34.86,34.86,0,0,0-7.92,3.6,35,35,0,0,1,7.8-3.94c2.73-1,5.53-1.89,8.36-2.65,5.64-1.54,11.37-2.72,17.11-3.77,11.51-2,23.11-3.4,34.74-4.53s23.29-1.78,35-2.28,23.34-.72,35-.76,23.35.28,35,.77S438,684.86,449.65,686s23.23,2.51,34.74,4.52c5.75,1,11.47,2.23,17.11,3.77,2.82.76,5.62,1.61,8.36,2.65A35,35,0,0,1,517.66,700.86Z"/><rect class="cls-8" x="137.67" y="938.04" width="484.58" height="26.06"/><line class="cls-18" x1="622.65" y1="938.04" x2="137.67" y2="938.04"/><path class="cls-19" d="M205,1039.2V1056H185.1c0-6.93-.27-13.63-.79-20a1.57,1.57,0,0,1,1.68-1.7c5.36.39,11.19.74,15.34,1A3.9,3.9,0,0,1,205,1039.2ZM501.77,897.82H161.32c0-.34-.07-.51-.07-.51a2.32,2.32,0,0,1,2.32-2.32h20.89c0-48.11,18-96.47,18-96.47l-15.19,1.88a2.61,2.61,0,0,1-2.67-3.74c19.07-39.23,50-77.16,93.28-101.15,6.74-.83,14-1.57,21.73-2.23,8.05-.67,16.56-1.22,25.36-1.7s17.91-.77,27.16-1,18.65-.35,28.06-.34,18.81.09,28.06.34,18.36.56,27.16,1,17.31,1,25.36,1.7c7.71.66,15,1.4,21.74,2.23,41.58,23,71.75,59,91,96.53a5.28,5.28,0,0,1-5.24,7.64c-3.3-.34-6.7-.67-9.88-1,8.77,25.29,15.54,70.56,17.53,99.11-.4-.61-17.32.56-17.79,0-2.61-5.61-9.11-36.12-12.6-41.26-4.52-6.66,9.82-4.64,3.49-9.43-10.91-8.25-26.39-17.07-39.9-9.82-1.14.61,34.48-21.38,33.6-20.5-13.35-9.09-24.94-6.69-29.93-5-21.19,7.21-25.07,33.87-23.76,39.65C494.79,877.1,498.68,886.6,501.77,897.82ZM219.54,895c-.3-53.09,15.58-99.48,15.58-99.48s-17.72,1.63-23.17,2.1C195.54,835.47,194,895,194,895Zm60.22,0a579.35,579.35,0,0,1,9.8-101.82l-45.66,1.88C228.43,847.49,228.43,895,228.43,895Zm192.5,0a656.67,656.67,0,0,0-4.48-70h1.7L471,793.36l-172.37.75,2,21.6-6.19.08s-3.68,29.7-4.46,39.6-1.74,39.6-1.74,39.6h53.42l2-70h5.37c-1,22.11-1.68,46.87-1.78,70ZM324.77,688c8.83-.56,18-1,27.24-1.3s18.73-.43,28.15-.45,18.87.17,28.15.45,18.41.75,27.24,1.31,17.35,1.29,25.42,2.13c5.86.6,11.47,1.29,16.79,2-27.64-14.37-60.12-23.11-97.59-23.11s-70,8.74-97.59,23.11c5.32-.74,10.93-1.43,16.79-2C307.43,689.32,315.95,688.59,324.77,688Zm249.53,346.28c-5.68.41-11.88.78-16,1a3.12,3.12,0,0,0-2.93,3.12V1056H575.2c0-6.93.27-13.63.79-20A1.57,1.57,0,0,0,574.31,1034.32Zm-360.91-10.2c-7.49-.41-20.55-1.14-28.7-1.66a1.57,1.57,0,0,0-1.66,1.79q.3,2.15.55,4.39c9.89.83,21.82,1.56,22,1.57l2.59.16V1056h8.37v-28.6A3.29,3.29,0,0,0,213.4,1024.11Zm-51.24-118c.42,3.83,1,9.07,1.44,19.45a7,7,0,0,0,7,6.71H589.69a7,7,0,0,0,7-6.7c.47-10.38,1-15.63,1.46-19.45ZM576.94,895a16.38,16.38,0,0,1-1.15,2.83h23.29V895ZM164.31,955.64a5.8,5.8,0,0,0,5.8,5.74H590.19a5.8,5.8,0,0,0,5.8-5.74c.08-7.73.21-13.12.38-18.83H163.93C164.1,942.52,164.23,947.9,164.31,955.64Zm411.29,66.82c-8,.51-20.61,1.21-28.16,1.63a3.83,3.83,0,0,0-3.62,3.83V1056h8.37v-25.63l2.59-.16c.14,0,12-.75,21.94-1.57q.26-2.23.55-4.39A1.57,1.57,0,0,0,575.6,1022.45Zm-53.1,22.06V971.06a3.94,3.94,0,0,0-3.94-3.94H241.76a3.94,3.94,0,0,0-3.94,3.94v73.45c41.43,2.44,90.54,3.73,142.34,3.73S481.07,1047,522.5,1044.51Zm4.73,11.48H522.5v-4.39c-41.46,2.43-90.56,3.72-142.34,3.72s-100.88-1.28-142.34-3.72V1056H233.1V967.12H164.38c0,3,0,6.06,0,9.32V983c7.33,0,13.77,13.46,17.45,33.71,10.27.72,35.72,2.18,36,2.2l2.6.15V1056H539.88v-36.91l2.6-.15c.27,0,25.69-1.47,36-2.2,3.68-20.27,10.13-33.72,17.47-33.72v-6.58c0-3.25,0-6.35,0-9.32H527.22Z"/><path class="cls-10" d="M295.65,816a583.73,583.73,0,0,0-7.36,79,584.94,584.94,0,0,1,5-79.37,1.18,1.18,0,0,1,2.34.31Z"/><path class="cls-20" d="M344,815.16c-17.05.13-33.61.34-49.55.63"/><path class="cls-10" d="M341.71,895q-.43-39.94,1.14-79.9l2.36.13Q342.44,855,341.71,895Z"/><path class="cls-10" d="M245,795.42a311.84,311.84,0,0,0-12,49.11A396.57,396.57,0,0,0,228.43,895a397.16,397.16,0,0,1,3.42-50.64,313.62,313.62,0,0,1,10.93-49.65,1.18,1.18,0,1,1,2.26.69Z"/><path class="cls-18" d="M289.56,793.17c-17.31.53-30.63,1.11-45.66,1.88"/><path class="cls-18" d="M212,797.61c8-.63,14.43-1.56,23.17-2.1"/><path class="cls-10" d="M213.06,798c-2.94,7.72-5.61,15.55-7.9,23.49s-4.2,16-5.72,24.12A371.75,371.75,0,0,0,194,895a372.37,372.37,0,0,1,4.27-49.57q2-12.3,5.18-24.39c2.12-8,4.61-16,7.39-23.83a1.18,1.18,0,0,1,2.23.79Z"/><path class="cls-10" d="M202.53,799.7c-8.36.6-16.72,1.43-25,2.71-4.14.64-8.27,1.4-12.34,2.4a61,61,0,0,0-6,1.77,24.67,24.67,0,0,0-2.89,1.22,9.85,9.85,0,0,0-1.34.82,3,3,0,0,0-1,1.15,3,3,0,0,1,1-1.21,9.94,9.94,0,0,1,1.31-.89,24.84,24.84,0,0,1,2.85-1.37,61.35,61.35,0,0,1,6-2.07c4-1.19,8.16-2.15,12.29-3,8.27-1.68,16.62-2.9,25-3.9Z"/><path class="cls-10" d="M350.77,815.49q-2.68,39.69-3.43,79.51-.45-39.8,1.07-79.63a1.18,1.18,0,0,1,2.36.09Z"/><path class="cls-20" d="M466.6,816.08c-27.22-.5-56.24-.75-86.39-.75q-15.54,0-30.63.09"/><path class="cls-10" d="M472.26,895c-.35-13.19-1-26.37-2.13-39.51s-2.68-26.22-4.69-39.24a1.18,1.18,0,0,1,2.34-.36v0q2.45,19.68,3.53,39.48C472,868.59,472.3,881.8,472.26,895Z"/><path class="cls-10" d="M600.08,895a272.54,272.54,0,0,0-5.83-47.89,229.37,229.37,0,0,0-6.36-23.25,238.72,238.72,0,0,0-8.76-22.43l.77.57c-7.21-.84-14.44-1.51-21.68-2.1l.21-2.35c7.25.73,14.49,1.54,21.71,2.53l.55.08.21.5a238.86,238.86,0,0,1,8.37,22.76,230.63,230.63,0,0,1,5.93,23.49A273,273,0,0,1,600.08,895Z"/><path class="cls-10" d="M590.44,802.35h.31l.2,0,.33,0,.58.12c.37.09.73.18,1.08.28.71.2,1.4.41,2.09.64q2.06.67,4.07,1.48a39.94,39.94,0,0,1,3.93,1.81,16.23,16.23,0,0,1,1.84,1.15,4,4,0,0,1,1.43,1.59,3.88,3.88,0,0,0-1.59-1.34,15.82,15.82,0,0,0-1.93-.86,39,39,0,0,0-4-1.23c-1.37-.34-2.75-.64-4.13-.89-.69-.12-1.38-.24-2.07-.33l-1-.12-.48,0h-.22Z"/><path class="cls-18" d="M148.48,1056v-39.56s12.21,2.17,33.48,3.75c9.36.69,37.32,2.29,37.32,2.29V1056"/><path class="cls-18" d="M154.78,1056v-27.18s14.59,1.88,24.8,2.87c10.42,1,27.39,2.06,27.39,2.06V1056"/><path class="cls-18" d="M611.84,1056v-39.56s-12.21,2.17-33.48,3.75c-9.36.69-37.32,2.29-37.32,2.29V1056"/><path class="cls-18" d="M605.54,1056v-27.18s-14.59,1.88-24.8,2.87c-10.42,1-27.39,2.06-27.39,2.06V1056"/><path class="cls-18" d="M526.44,1048.22c-40.51,2.48-91.23,4-146.27,4s-105.77-1.48-146.27-4"/><path class="cls-21" d="M526.44,1050.58c-40.51,2.48-91.23,4-146.27,4s-105.77-1.48-146.27-4"/><line class="cls-18" x1="233.89" y1="964.1" x2="233.89" y2="1056"/><line class="cls-18" x1="526.43" y1="964.1" x2="526.43" y2="1056"/><path class="cls-10" d="M528.76,708.24a37.53,37.53,0,0,0-8.55-3.84c-3-1-6-1.82-9-2.53-6.09-1.44-12.28-2.5-18.47-3.42-12.39-1.88-24.87-3.13-37.37-4.07s-25-1.61-37.56-2-25.07-.64-37.61-.62-25.08.19-37.61.63-25.05,1.11-37.56,2-25,2.19-37.37,4.07c-6.2.91-12.38,2-18.47,3.41-3,.71-6.08,1.53-9,2.53a37.53,37.53,0,0,0-8.55,3.84A37.76,37.76,0,0,1,240,704c2.94-1.13,6-2.06,9-2.89,6.07-1.68,12.24-3,18.43-4.13,12.4-2.2,24.9-3.72,37.42-5,25.05-2.4,50.22-3.3,75.37-3.35s50.32,1,75.37,3.36c12.52,1.24,25,2.76,37.42,5,6.19,1.15,12.36,2.45,18.43,4.13,3,.83,6.05,1.76,9,2.89A37.76,37.76,0,0,1,528.76,708.24Z"/><path class="cls-22" d="M422.12,695.9l14.59.72a155.57,155.57,0,0,1,8.3,14L443.92,714l2.94.11a228.47,228.47,0,0,1,14.06,32.72c1.23,3.51,2.22,6.56,3.19,9.51L463,759.8h2.26c6.54,20.24,7,26.32,7,26.32H448.92Z"/><path class="cls-16" d="M437.5,732.6c7.49,1,18.4,1.45,18.6,1.42-3-7.19-6.37-14.45-9.23-19.87l-2.94-.11,1.09-3.41a155.57,155.57,0,0,0-8.3-14l-14.59-.72,10.66,35.9C434.17,731.19,435.92,732.39,437.5,732.6Z"/><polygon class="cls-13" points="472.25 786.12 471.01 793.36 450.15 793.36 448.92 786.12 472.25 786.12"/><polygon class="cls-13" points="442.94 755.82 464.12 756.39 463.03 759.8 443.77 759.42 442.94 755.82"/><polygon class="cls-22" points="428.47 710.18 445.02 710.63 443.92 714.04 429.89 713.76 428.47 710.18"/><path class="cls-22" d="M419.51,690.91c-13.34-.64-22.82-.71-37.57-.71-16,0-36,.54-50.32,1.29-7.06,10.13-14.32,25.53-20.75,41.91-7.19,18.31-13.65,44.47-17,62.12,29.76-.54,128.94-1.09,156.52-.62-5.18-30.81-7.21-39.71-13.32-60.64C433.3,721.29,422.51,694.36,419.51,690.91Z"/><path class="cls-13" d="M450.41,794.9s-3.47-1.54-70.25-1.54c-81.2,0-86.27,2.16-86.27,2.16l4.75,8.81,81.52-1,68.16.42Z"/><path class="cls-16" d="M375.08,690.23l-5.65.05h-.93l-5.78.09h-.21l-6,.13h-.19l-5.9.17H350c-6.07.2-12.62.48-18.4.78,0,0-9,12.22-19.1,37.61,2.27.43,7.45-.23,20.51.3,2.1.08,2-.26,2.34-2.39,2.38-16.09,18.49-29.35,42.92-29.35,21.72,0,38.3,13.89,38.69,30,.06,2.27,1.2,2.41,2.82,2.13,2.69-.46,9.36-.25,15.89.14-6.44-20.14-13.36-34-16.18-39-13-.55-23.42-.71-37.57-.71l-5.91,0Z"/><path class="cls-23" d="M447.75,804c-.41,2.67-1.64,4.6-4.11,4.53-16.45-.45-69.6-1.28-92-1A3.53,3.53,0,0,1,348,804l-.7-2.58V796l101.28,3.54Z"/><path class="cls-24" d="M347.34,793.36V796a3.53,3.53,0,0,0,3.57,3.53c22.44-.26,77.71,1.18,94.16,1.63A3.88,3.88,0,0,0,449,796.6l-.49-2.71"/><ellipse class="cls-22" cx="376.83" cy="728.01" rx="37.84" ry="28.38"/><ellipse class="cls-25" cx="376.83" cy="728.01" rx="37.84" ry="28.38"/><path class="cls-12" d="M386.53,734.42c3.93,0,24.21-1.06,28.14-1.1,1.6-3.14,0-1.75,0-5.32,0-15.67-16.94-28.38-37.84-28.38S339,712.34,339,728c0,4.14-2.12,2.05,0,5.6C358.31,732.28,367.07,734.55,386.53,734.42Z"/><path class="cls-13" d="M376.83,703.44c20,0,36.44,11.69,37.74,26.47.06-.63.09-1.26.09-1.9,0-15.67-16.94-28.38-37.84-28.38S339,712.34,339,728c0,.64,0,1.27.09,1.9C340.39,715.13,356.79,703.44,376.83,703.44Z"/><path class="cls-13" d="M344.78,733.69c0-13.62,14.35-24.65,32.05-24.65s32.05,11,32.05,24.65S394.53,757,376.83,757,344.78,747.3,344.78,733.69Z"/><path class="cls-11" d="M345.55,735.69c0-12.56,14-22.74,31.28-22.74s31.28,10.18,31.28,22.74S394.1,757,376.83,757,345.55,748.25,345.55,735.69Z"/><ellipse class="cls-9" cx="376.83" cy="734.98" rx="26.83" ry="20.84"/><path class="cls-11" d="M376.83,720.73c15.51,0,28.16,8.47,30.63,19.57a18.05,18.05,0,0,0,.64-3.89c0-13-10.79-23.46-31.28-23.46-20.74,0-31.28,10.5-31.28,23.46a18.05,18.05,0,0,0,.64,3.89C348.67,729.19,361.32,720.73,376.83,720.73Z"/><path class="cls-22" d="M376.83,697.66c-21.59,0-39.09,13.43-39.09,30s17.5,30,39.09,30,39.09-13.43,39.09-30S398.42,697.66,376.83,697.66Zm0,58.72c-20.9,0-37.84-12.71-37.84-28.38s16.94-28.38,37.84-28.38,37.84,12.71,37.84,28.38S397.73,756.39,376.83,756.39Z"/><path class="cls-12" d="M411.69,739.06a27.81,27.81,0,0,1-6.24,8.08,36.39,36.39,0,0,1-8.58,5.71,47.55,47.55,0,0,1-40.11,0,36.39,36.39,0,0,1-8.58-5.71,27.81,27.81,0,0,1-6.23-8.08,29.93,29.93,0,0,0,6.8,7.41,38.85,38.85,0,0,0,8.59,5.11,50.38,50.38,0,0,0,38.94,0,38.85,38.85,0,0,0,8.59-5.11A29.93,29.93,0,0,0,411.69,739.06Z"/><rect class="cls-4" x="252.66" y="964.1" width="255.01" height="24.68"/><path class="cls-13" d="M507.66,988.78,380,989.4l-127.3-.62V970.35s53.21.79,127.5.79c75.87,0,127.5-.79,127.5-.79Z"/><path class="cls-26" d="M507.66,988.78c-37,.89-80.78.58-127.7.62-46.3,0-89.81.33-127.3-.61"/><path class="cls-4" d="M350.42,1034.56q-20.44,1.57-40.88,2.91-28.44-2.1-56.88-4.41V1015q28.44-1.47,56.89-3.15,20.44,1.66,40.88,3.37,0,4.85,0,9.69T350.42,1034.56Z"/><path class="cls-4" d="M507.66,1033.06q-11.77.29-23.54.53l-14.17,3.53q-59.76,1.2-119.53.8,0-13.06,0-26.13H469.94q7.09,1.63,14.18,3.23l23.55-.08Z"/><path class="cls-13" d="M309.54,1011.8q0,12.84,0,25.67,20.44-1.33,40.88-2.91,0-9.69,0-19.39Q330,1013.47,309.54,1011.8Z"/><path class="cls-27" d="M309.54,1011.8q0,12.84,0,25.67l7.22-3.65q0-9.13,0-18.26Z"/><path class="cls-28" d="M350.42,1015.17l-33.66.39q0,9.13,0,18.26,16.83.42,33.66.74Q350.42,1024.86,350.42,1015.17Z"/><path class="cls-29" d="M309.54,1037.47l7.22-3.65q16.83.42,33.66.74Q330,1036.12,309.54,1037.47Z"/><path class="cls-30" d="M309.54,1011.8l7.22,3.76,33.66-.39Q330,1013.47,309.54,1011.8Z"/><path class="cls-26" d="M252.66,1033.07q28.44,2.9,56.88,5.72,20.44-1.25,40.88-2.76"/><path class="cls-26" d="M350.42,1039.42q59.77.15,119.53-1.37,7.08-2.24,14.17-4.45,11.77-.24,23.54-.53"/><rect class="cls-8" x="113.18" y="1008.29" width="25.79" height="47.71"/><rect class="cls-10" x="113.18" y="1010.66" width="25.79" height="35.88"/><rect class="cls-2" x="113.18" y="1016.43" width="25.79" height="18.99"/><path class="cls-2" d="M106.88,974.34H55.39v3.12H53v-3.12H36.46a6.3,6.3,0,0,0-6.3,6.3V1056h83V980.64A6.3,6.3,0,0,0,106.88,974.34Z"/><path class="cls-19" d="M56.64,974.34h50.24a6.3,6.3,0,0,1,6.3,6.3v40.9a0,0,0,0,1,0,0H56.64a0,0,0,0,1,0,0v-47.2A0,0,0,0,1,56.64,974.34Z"/><path class="cls-19" d="M53,974.34H36.52a6.3,6.3,0,0,0-6.3,6.3v40.9h24V977.46H53Z"/><line class="cls-18" x1="54.21" y1="977.46" x2="54.21" y2="1056"/><rect class="cls-8" x="621.35" y="1008.29" width="25.79" height="47.71" transform="translate(1268.49 2064.29) rotate(-180)"/><rect class="cls-10" x="621.35" y="1010.66" width="25.79" height="35.88" transform="translate(1268.49 2057.2) rotate(-180)"/><rect class="cls-2" x="621.35" y="1016.43" width="25.79" height="18.99" transform="translate(1268.49 2051.85) rotate(-180)"/><path class="cls-2" d="M653.44,974.34h51.5v3.12h2.36v-3.12h16.56a6.3,6.3,0,0,1,6.3,6.3V1056h-83V980.64A6.3,6.3,0,0,1,653.44,974.34Z"/><path class="cls-19" d="M647.14,974.34h56.54a0,0,0,0,1,0,0v40.9a6.3,6.3,0,0,1-6.3,6.3H647.14a0,0,0,0,1,0,0v-47.2A0,0,0,0,1,647.14,974.34Z" transform="translate(1350.81 1995.88) rotate(-180)"/><path class="cls-19" d="M707.3,974.34H723.8a6.3,6.3,0,0,1,6.3,6.3v40.9h-24V977.46h1.18Z"/><line class="cls-18" x1="706.11" y1="977.46" x2="706.11" y2="1056"/><line class="cls-6" x1="622.25" y1="964.1" x2="137.67" y2="964.1"/><ellipse class="cls-8" cx="523.49" cy="849.22" rx="32.21" ry="37.38"/><path class="cls-10" d="M550.74,829.3c-5.7-10.49-15.77-17.47-27.26-17.47s-21.55,7-27.26,17.47Z"/><path class="cls-9" d="M495.21,867.11c5.46,11.61,16.08,19.49,28.28,19.49s22.82-7.88,28.28-19.49Z"/><ellipse class="cls-8" cx="531.23" cy="849.22" rx="29.46" ry="34.18"/><polygon class="cls-10" points="534.38 814.03 541.7 817.26 541.7 849.22 534.38 849.22 534.38 814.03"/><polygon class="cls-8" points="534.38 884.41 541.7 881.17 541.7 849.22 534.38 849.22 534.38 884.41"/><ellipse class="cls-10" cx="531.23" cy="849.22" rx="29.46" ry="34.18"/><path class="cls-2" d="M501.77,849.22a38.18,38.18,0,0,1,1.61-12.42,35.68,35.68,0,0,1,5.8-11.21,30.08,30.08,0,0,1,9.68-8.23,26.18,26.18,0,0,1,24.74,0,30.09,30.09,0,0,1,9.68,8.23,35.72,35.72,0,0,1,5.8,11.21,38.19,38.19,0,0,1,1.61,12.42A40.59,40.59,0,0,0,558.35,837a35,35,0,0,0-6-10.7,30.19,30.19,0,0,0-9.42-7.66,25.34,25.34,0,0,0-23.37,0,30.2,30.2,0,0,0-9.42,7.66,35,35,0,0,0-6,10.7A40.59,40.59,0,0,0,501.77,849.22Z"/><ellipse class="cls-9" cx="532.02" cy="849.22" rx="26.05" ry="30.22"/><path class="cls-9" d="M569.89,820.32h-38c-13.76,0-24.91,12.94-24.91,28.9s11.15,28.9,24.91,28.9c.41,0,.81,0,1.21,0h36.75Z"/><path class="cls-31" d="M510.93,864.74c4.42,8,12.17,13.38,21,13.38.41,0,.81,0,1.21,0h36.75V864.74Z"/><path class="cls-8" d="M520.69,875a22,22,0,0,0,11.25,3.14c.41,0,.81,0,1.21,0h36.75V875Z"/><path class="cls-10" d="M508.16,840.58h61.73V820.32h-38C520.77,820.32,511.33,828.84,508.16,840.58Z"/><path class="cls-2" d="M569.89,829.59v-9.27h-38c-7.22,0-13.72,3.57-18.27,9.27Z"/><path class="cls-8" d="M574,849.22a35.67,35.67,0,0,0-2.28-12.62V817.77H546.78c-14.92.06-27,14.12-27,31.45s12.08,31.38,27,31.45h24.93V861.84A35.67,35.67,0,0,0,574,849.22Z"/><path class="cls-9" d="M520.64,857.13c3,13.5,13.57,23.48,26.14,23.54h24.93V861.84a34.9,34.9,0,0,0,1.4-4.71Z"/><ellipse class="cls-10" cx="571.82" cy="849.22" rx="27.11" ry="31.45"/><ellipse class="cls-8" cx="571.71" cy="849.22" rx="22.66" ry="26.29"/><path class="cls-9" d="M590.48,849.22c0-14-9-25.51-20.71-27.15-11.67,1.64-20.71,13.17-20.71,27.15s9,25.51,20.71,27.15C581.44,874.73,590.48,863.2,590.48,849.22Z"/><path class="cls-8" d="M572.64,821.86a20.54,20.54,0,0,0-2.87.21c11.67,1.64,20.71,13.17,20.71,27.15s-9,25.51-20.71,27.15a20.54,20.54,0,0,0,2.87.21c13,0,23.58-12.25,23.58-27.36S585.66,821.86,572.64,821.86Z"/><path class="cls-32" d="M590.12,854c-1.78,11.77-10,20.94-20.35,22.39a20.54,20.54,0,0,0,2.87.21c11.62,0,21.27-9.76,23.22-22.6Z"/><path class="cls-31" d="M586.89,849.22c0-13.52-9.44-24.47-21.09-24.47a18.36,18.36,0,0,0-4.7.62c-7.19,4.69-12,13.61-12,23.85s4.86,19.17,12,23.86a18.36,18.36,0,0,0,4.7.62C577.45,873.69,586.89,862.73,586.89,849.22Z"/><path class="cls-11" d="M562,829.89a14.79,14.79,0,0,0-7.78,2.24,30.79,30.79,0,0,0,0,34.17,14.79,14.79,0,0,0,7.78,2.24c9.2,0,16.66-8.65,16.66-19.33S571.21,829.89,562,829.89Z"/><path class="cls-33" d="M563.51,838.33c17-1.53,14.14-4.45,14.92-4.91-3.41-3.84-8.59-6.74-13.72-6.74a10.71,10.71,0,0,0-4.79,1.25c-4.13,2.53-5.67,5.27-7.58,9.16A67.75,67.75,0,0,0,563.51,838.33Z"/><path class="cls-33" d="M557.23,868.06a10.71,10.71,0,0,0,3.78,2.61,16.51,16.51,0,0,0,4.23.55,17.68,17.68,0,0,0,13.31-6.34C572.91,868.06,569.77,870.26,557.23,868.06Z"/><path class="cls-21" d="M149.8,1018.31S191,1024,217.34,1024"/><path class="cls-21" d="M156.1,1030.32s25.6,3.89,49.42,5.1"/><path class="cls-21" d="M610.19,1018.31S569,1024,542.66,1024"/><path class="cls-21" d="M603.89,1030.32s-25.6,3.89-49.42,5.1"/></g></g></g></svg>
