<svg xmlns="http://www.w3.org/2000/svg" viewBox="0 0 760 1055.56"><defs><style>.cls-1,.cls-10,.cls-14,.cls-15,.cls-25,.cls-26,.cls-29,.cls-30,.cls-31,.cls-35,.cls-36,.cls-37{fill:none;}.cls-2,.cls-3{fill:#e0e0e0;}.cls-29,.cls-3,.cls-30,.cls-31{stroke:#757575;}.cls-10,.cls-14,.cls-15,.cls-25,.cls-26,.cls-29,.cls-3,.cls-30,.cls-31,.cls-35,.cls-36,.cls-37,.cls-8{stroke-miterlimit:10;}.cls-3{stroke-width:9.73px;}.cls-4{fill:#fb8c00;}.cls-34,.cls-5{fill:#757575;}.cls-24,.cls-6{opacity:0.3;}.cls-7{fill:#42a5f5;}.cls-19,.cls-8{fill:#616161;}.cls-14,.cls-15,.cls-36,.cls-8{stroke:#424242;}.cls-10,.cls-30,.cls-8{stroke-width:1.15px;}.cls-9{fill:#1976d2;}.cls-10,.cls-26{stroke:#ffe082;}.cls-11{fill:#eee;}.cls-12,.cls-17{fill:#bdbdbd;}.cls-13,.cls-16,.cls-23,.cls-24,.cls-33{fill:#fff;}.cls-13{opacity:0.5;}.cls-14{stroke-width:3.44px;}.cls-15,.cls-25,.cls-26,.cls-29{stroke-width:2.29px;}.cls-17{opacity:0.8;}.cls-18,.cls-21{fill:#424242;}.cls-20,.cls-22{fill:#212121;}.cls-21,.cls-22{opacity:0.62;}.cls-23{opacity:0.15;}.cls-25{stroke:#fff;}.cls-27{fill:#ffe082;}.cls-28{fill:#fafafa;}.cls-31{stroke-width:0.29px;}.cls-32{opacity:0.25;}.cls-33{opacity:0.28;}.cls-34{opacity:0.29;}.cls-35{stroke:#bdbdbd;}.cls-35,.cls-36,.cls-37{stroke-width:4.58px;}.cls-37{stroke:#000;opacity:0.2;}.cls-38{opacity:0.07;}.cls-39{opacity:0.02;}.cls-40{opacity:0.03;}.cls-41{opacity:0.05;}.cls-42{opacity:0.08;}</style></defs><title>starwarsBB8</title><g id="Layer_2" data-name="Layer 2"><g id="Layer_1-2" data-name="Layer 1"><rect class="cls-1" width="760" height="1055.56"/><g id="BB-8"><path class="cls-2" d="M411.67,409.26a2.43,2.43,0,0,0-2.43,2.43V562.52a2.43,2.43,0,0,0,4.87,0V411.69A2.43,2.43,0,0,0,411.67,409.26Z"/><line class="cls-3" x1="411.67" y1="582.27" x2="411.67" y2="559.59"/><path class="cls-2" d="M371.51,424.58a3.65,3.65,0,0,0-7.3,0l-5,158.48c0,.17,0,.37,0,.55a8.67,8.67,0,0,0,17.32-.55Z"/><path class="cls-2" d="M76.1,1055.56C154.6,993.95,261.81,956,380,956s225.42,37.95,303.92,99.55Z"/><path class="cls-4" d="M490.06,977.64s89.53,21.08,163.12,77.92h30.76c-43.29-34-95.32-60.73-153.1-77.92Z"/><path class="cls-5" d="M490.32,976.52a445.32,445.32,0,0,1,43.4,13.94c14.23,5.29,28.19,11.3,41.88,17.84,6.89,3.19,13.58,6.77,20.32,10.25,3.34,1.8,6.62,3.71,9.93,5.55l5,2.79,4.85,3,9.69,6,9.43,6.36,4.71,3.19,4.56,3.39,9.13,6.78-9.21-6.67-4.6-3.33-4.75-3.13-9.5-6.23-9.75-5.84-4.88-2.91-5-2.73c-3.33-1.8-6.63-3.67-10-5.42-6.77-3.39-13.49-6.88-20.41-10-13.74-6.35-27.74-12.16-42-17.26a443.78,443.78,0,0,0-43.33-13.32Z"/><path class="cls-4" d="M261,977.64s-76.85,28.14-127.71,77.92H236.9c32.44-49.78,74.8-77.92,74.8-77.92Z"/><path class="cls-5" d="M261.44,978.71c-11.68,4.36-23.18,9.41-34.47,14.8s-22.36,11.29-33.19,17.58l-8.08,4.8-7.93,5c-2.67,1.64-5.22,3.46-7.81,5.22l-3.87,2.66-1.94,1.33-1.88,1.41-7.53,5.63c-1.28.91-2.46,1.94-3.68,2.93l-3.63,3-3.64,3c-1.21,1-2.33,2.09-3.5,3.14l-7,6.33,6.86-6.44c1.15-1.06,2.26-2.18,3.46-3.19l3.59-3,3.59-3c1.2-1,2.37-2.06,3.64-3l7.45-5.75,1.86-1.44,1.92-1.36,3.84-2.73c2.56-1.81,5.1-3.67,7.75-5.35l7.87-5.18,8-4.93q16.14-9.71,33-18.14c11.26-5.59,22.68-10.81,34.44-15.41Z"/><path class="cls-5" d="M236.9,1055.56c5-7.56,10.08-15,15.75-22.13,2.74-3.61,5.7-7,8.61-10.52,1.46-1.73,3-3.39,4.51-5.09l2.27-2.54,2.33-2.47c6.18-6.63,12.71-13,19.47-19a241.71,241.71,0,0,1,21.24-17.12l1.27,1.91A240.15,240.15,0,0,0,291,995.1c-6.85,5.87-13.48,12-19.78,18.5l-2.38,2.41-2.31,2.48c-1.53,1.66-3.11,3.28-4.6,5-3,3.41-6,6.77-8.81,10.31C247.29,1040.73,242,1048.1,236.9,1055.56Z"/><path class="cls-6" d="M409.89,956.82q-14.7-.56-29.87-.58t-29.87.58c-78.1,4.26-150.56,25.12-212,58.23,33,4,128.93,17.07,242,17.07S588.91,1019,621.88,1015C560.45,981.94,488,961.08,409.89,956.82Z"/><path class="cls-2" d="M704.94,901.16c0-1.13.06-2.29.06-3.53,0-179.48-145.5-325-325-325s-325,145.5-325,325c0,1.24,0,2.4.06,3.53h3.1v4.19H55.34C56.94,924.76,87,927.24,87,950.63h585.6c0-24,30.53-26.08,32.13-45.27h-2.86v-4.19Z"/><path class="cls-4" d="M677.85,897.67a347.84,347.84,0,0,0-3.06-46q-4.6-.5-9.88-1a384.86,384.86,0,0,1,2.88,47q0,1.75,0,3.49H683l-5.16-.05Q677.85,899.39,677.85,897.67Z"/><path class="cls-4" d="M694.73,897.67a331.8,331.8,0,0,0-2.9-43.68q-2.81-.52-6.32-1a358.64,358.64,0,0,1,2.81,44.7q0,1.75,0,3.49h10.58l-4.17,0Q694.73,899.4,694.73,897.67Z"/><path class="cls-4" d="M702.57,857.88c-.11-.54-.78-1.07-2-1.59a340.66,340.66,0,0,1,2.52,41.39q0,1.75,0,3.49H705c0-1.13,0-2.29,0-3.53A326.64,326.64,0,0,0,702.57,857.88Z"/><path class="cls-4" d="M656.25,901.21c0-1.14,0-2.4,0-3.54a373.09,373.09,0,0,0-3.09-48q-5.09-.39-10.63-.77t-11.73-.75c-7.79-.47-16.13-.92-25-1.34.43,4.25.75,8.39,1,12.35.35,5.1.62,9.92.84,14.38.43,8.91.62,16.34.65,21.55,0,2.6,0,4.65,0,6v0Z"/><path class="cls-4" d="M594.15,884.33l-12.56.32c.11,4.31.17,8.7.17,13q0,1.73,0,3.45l5.49,0h7.08q0-1.74,0-3.49C594.32,893.24,594.27,888.74,594.15,884.33Z"/><path class="cls-4" d="M85.22,851.63c-17.65,1.92-27.52,4-27.8,6.21,0,0-3,23-2.32,43.3H82.21q0-1.61,0-3.22A356,356,0,0,1,85.22,851.63Z"/><path class="cls-4" d="M106.82,849.67q-6.22.48-11.72,1a393.85,393.85,0,0,0-2.85,47.29q0,1.61,0,3.22h11.52q0-1.61,0-3.23A381.82,381.82,0,0,1,106.82,849.67Z"/><path class="cls-4" d="M214.55,897.67c0-18.12.76-35.9,2.21-53.21-39.25,1.13-73,2.65-99.3,4.43a426.64,426.64,0,0,0-2.81,49q0,1.62,0,3.23l99.92,0C214.55,899.35,214.55,899.54,214.55,897.67Z"/><path class="cls-7" d="M209.14,867.3c.25-5,.36-8.48.69-12.57-8.15.16-36.07,1.32-45.63,1.73-.49,3.87-.44,7.72-.78,12.13C163.4,868.6,182,868,209.14,867.3Z"/><path class="cls-8" d="M207,892.29c.13-4,.09-6.94.23-11.22-7.62.15-33.78.13-42.72.51-.46,3.62-.25,6.58-.58,10.7C164,892.29,183.45,892.09,207,892.29Z"/><path class="cls-9" d="M209.54,858.93l.24-4.2c-8.18.16-36.43,1.33-45.68,1.73l-.69,11.13c.19,0,.8-7,1-7C174.2,860.21,201.57,859.09,209.54,858.93Z"/><path class="cls-10" d="M163.4,868.6s18.59-.55,45.73-1.3"/><path class="cls-4" d="M272.18,903.19c0-1.92,0-3.6,0-5.52,0-18.3.6-37,1.51-54.52l-23.45.48c-1.12,17.48-1.81,35.74-1.81,54q0,2.8,0,5.59Z"/><path class="cls-4" d="M309.8,659.42c-5.24.39-10.43.82-15.54,1.29-93.91,8.78-166,31.61-186.79,59.92q-1.35,2.08-2.67,4.18-5.19,8.26-9.91,16.83a40,40,0,0,1,6.84-8.26c25.77-24.34,97.17-43.75,188.68-51.54A92.59,92.59,0,0,1,309.8,659.42Z"/><path class="cls-4" d="M655,724.4c-.63-1-1.26-2-1.91-3-20-28.58-92.16-51.68-186.49-60.6a91.59,91.59,0,0,1,18.66,22.52c84,8.59,148.76,27.14,173,50.08a57.81,57.81,0,0,1,5.83,6.39Q659.79,732,655,724.4Z"/><path class="cls-11" d="M379.85,579.31A307.18,307.18,0,0,0,136.92,698.16c4.86-2.57,9.75-5.1,14.71-7.48,21.51-10.33,77-33.84,168.76-33.84,22,0,43.83-2.78,65.87-2.92s67.24.5,89.21,2.18c55.94,4.29,88.69,14.86,141.19,34.43A307.08,307.08,0,0,0,379.85,579.31Z"/><path class="cls-5" d="M577.29,639.37A152.34,152.34,0,0,0,554.66,628l-5.9-2.32c-2-.75-4-1.4-6-2.11-4-1.45-8-2.58-12.08-3.84a400.29,400.29,0,0,0-49.48-10.91q-25-3.95-50.36-5.82c-4.22-.29-8.43-.64-12.65-.81l-6.33-.32-3.17-.16-3.17-.06-25.35-.47a634,634,0,0,0-101,7.57l-6.26,1c-2.08.35-4.16.76-6.24,1.14-4.16.73-8.29,1.64-12.43,2.49-8.24,1.85-16.47,3.83-24.57,6.23-16.18,4.78-32.22,10.61-46.63,19.58a137,137,0,0,1,22.42-11.93c7.8-3.33,15.8-6.18,23.89-8.73s16.33-4.61,24.58-6.57c4.14-.9,8.27-1.87,12.44-2.65,2.08-.4,4.16-.84,6.24-1.22l6.26-1.11c4.17-.76,8.37-1.34,12.56-2s8.4-1.16,12.61-1.64q12.63-1.51,25.32-2.49,25.37-2,50.83-2c33.91.25,67.87,2.44,101.32,8.2A398.5,398.5,0,0,1,531,618.62C547.15,623.79,563.15,630,577.29,639.37Z"/><path class="cls-12" d="M588.68,648.48q-5.59-4.68-11.38-9.12c-31.36-20.69-94.05-35.68-168.56-38.78Q394.64,600,380,600a662.89,662.89,0,0,0-67.34,3.35c-57,5.85-103.81,18.93-129.64,35.83q-6.08,4.64-11.93,9.56a327,327,0,0,0-37.48,37c6.27-6.22,15.64-12.09,27.62-17.48,31.51-14.17,81.13-25,140.14-30.21,24.77-2.18,51.19-3.35,78.62-3.35q17,0,33.52.59c78.61,2.8,146,15.32,185.23,33,12.19,5.48,21.66,11.45,27.93,17.78A327,327,0,0,0,588.68,648.48Z"/><path class="cls-13" d="M415.13,808.08a3.88,3.88,0,0,0,3.91-4c-.34-8.14-.85-19.86-.86-20l-.09-2,1.87-.63c24.44-8.21,42.36-25.62,47.92-46.58l.55-2.09,2.16.15,11,.76a3.81,3.81,0,0,0,4-4.7c-2.73-11.3-6.52-25.34-6.56-25.52-9.49-35.89-47.22-60.94-91.77-60.94-44.38,0-82,25.06-91.51,60.93l-1.35,5.65a730.45,730.45,0,0,0-15.31,95.77,3.9,3.9,0,0,0,4,4.27c32-.74,67.66-1.18,97-1.18C391.77,807.93,403.55,808,415.13,808.08Z"/><path class="cls-13" d="M199.41,805.92c-.11.68-.29,1.75-.47,2.92a2.86,2.86,0,0,0,3,3.3c19.4-1,59.25-2.39,69.19-2.72a2.6,2.6,0,0,0,2.5-2.36q.61-6.49,1.3-12.88c-26.23,1-51.14,2.36-74.11,4.06C200.36,800.57,199.68,804.31,199.41,805.92Z"/><path class="cls-13" d="M380.54,829.17a25.56,25.56,0,1,0,25.56,25.56A25.59,25.59,0,0,0,380.54,829.17Zm0,47A21.47,21.47,0,1,1,402,854.73,21.49,21.49,0,0,1,380.54,876.2Z"/><path class="cls-13" d="M380.54,847.86c-8.37,0-11,3.68-15.18,7.92a15.18,15.18,0,0,0,30.37,0C390.77,851,388.92,847.86,380.54,847.86Z"/><path class="cls-13" d="M354.95,854.73a25.6,25.6,0,1,1,25.6,25.6A25.6,25.6,0,0,1,354.95,854.73Zm25.6,20.94a20.94,20.94,0,1,0-20.94-20.94A20.94,20.94,0,0,0,380.54,875.67Z"/><path class="cls-13" d="M473.95,663.11a92.48,92.48,0,0,1,12.93,16.7c45.79,4.75,85.8,12.51,116.7,22.3q-6.69-8.34-14-16.16C559,675.79,519.39,667.82,473.95,663.11Z"/><path class="cls-13" d="M288.88,678.31a93.41,93.41,0,0,1,13.52-16.73c-2.8.23-5.42.46-7.9.69-49.58,4.64-92.75,13.12-125.42,24.15q-7.15,7.71-13.74,15.93C189.75,691.33,235.71,682.91,288.88,678.31Z"/><path class="cls-13" d="M408.62,601.11c-9.42-.39-19-.59-28.6-.59a660.44,660.44,0,0,0-67.07,3.34q-5.17.53-10.23,1.14a285.84,285.84,0,0,0-87.59,41.33c25.19-5.76,54.35-10.19,86-13C326.56,631.13,353.09,630,380,630c11.24,0,22.55.2,33.61.59,48.47,1.73,93.16,7.1,129.82,15.36a285.81,285.81,0,0,0-87.88-41.19C440.59,603,424.86,601.78,408.62,601.11Z"/><path class="cls-13" d="M405.48,595.75c-8.54-.76-17.18-1.18-25.92-1.18-9,0-17.8.43-26.54,1.23q13.38-.52,27-.53C388.52,595.28,397.07,595.44,405.48,595.75Z"/><path class="cls-13" d="M662.89,849.73l-.11-.91a.83.83,0,0,1,.9-.93l.29,0a.63.63,0,0,0,.68-.7,285.71,285.71,0,0,0-55.38-137.8C577.73,698.57,534.86,690,485,684.88l-1.33-.14-.67-1.15a88.87,88.87,0,0,0-18.13-21.88l-6-5.33,8,.76c44.44,4.2,83.79,11.54,115.24,21.08A288.89,288.89,0,0,0,554.4,654c-38.33-9.83-87.26-16.23-140.95-18.15-11-.39-22.25-.59-33.43-.59-26.78,0-53.15,1.12-78.39,3.34-36.71,3.22-69.94,8.66-97.43,15.8a288.9,288.9,0,0,0-27.61,24.26c31.9-9.81,72-17.34,117.42-21.58,4.62-.43,9.72-.86,15.59-1.3l8.06-.61-6.17,5.22a89.85,89.85,0,0,0-18.84,21.8L292,683.3l-1.32.11c-56.73,4.83-106.09,14.3-141.18,26.54A285.7,285.7,0,0,0,94.61,846.1a1.53,1.53,0,0,0,1.65,1.71c2.56-.22,7.15-.61,10-.83h0a1.68,1.68,0,0,1,1.66,1.89,381.66,381.66,0,0,0-3,47.95q0,1.61,0,3.21v1.12h7.73v-1.1q0-1.62,0-3.24a429.84,429.84,0,0,1,2.82-49.22,1.72,1.72,0,0,1,1.59-1.47c26.2-1.76,61.24-3.26,99.23-4.35h0a1.57,1.57,0,0,1,1.61,1.7c-1.46,17.42-2.2,35.28-2.2,53.08,0,1.24,0,1.57,0,2.21l0,2.4h31.88c-.1-4.64-.16-9.29-.15-13.94q0-7.47.15-14.93c.19-10,.46-18,1-27.89a3.21,3.21,0,0,1,3.11-3.06l15.37-.48a3.92,3.92,0,0,0,3.79-3.69q.68-11.41,1.64-22.62c-27.49.76-53.55,1.81-77.48,3.13l-3.23.18.5-3.2s1.13-7.25,1.54-9.67,1.74-9.73,1.74-9.73l.36-2,2-.15c21.58-1.63,44.9-3,69.43-4a9,9,0,0,0,8.59-7.9,703.45,703.45,0,0,1,12.89-73.44l1.37-5.72c10.13-38.23,49.84-64.89,96.59-64.89,46.92,0,86.73,26.66,96.82,64.83.21.77,4.33,16,7.05,27.55a6.9,6.9,0,0,0,6,5.28c14.41,1.43,42.42,4.39,42.76,4.42,0,0,5.72.88,8.34,1.52a60.66,60.66,0,0,1,9.29,3,58,58,0,0,1,11.07,6.11,69,69,0,0,1,5.62,4.4,71.77,71.77,0,0,1,5.52,5.37,76.66,76.66,0,0,1,9.81,13.2,83.23,83.23,0,0,1,7.24,15.95c.45,1.42.92,2.84,1.29,4.29l.3,1.09.15.54,0,.14,0,.23.05.27.42,2.18,1.67,8.75,1.67,8.75c.61,2.94,1,5.86,1.4,8.77.8,5.81,1.52,11.53,2.13,17.08.1.93.19,1.85.28,2.76a.54.54,0,0,0,.51.48c8.52.41,16.65.85,24.17,1.3q6.1.37,11.75.75c3.7.25,7.23.37,10.29.74a1.94,1.94,0,0,1,1.8,1.4,375.92,375.92,0,0,1,3.1,48.21c0,1.15,0,2.41,0,3.56v1h8.06c.12-.58.23-1.2.33-1.88,0-.91,0-1.81,0-2.72A384.89,384.89,0,0,0,662.89,849.73Z"/><path class="cls-13" d="M606.34,894c0-5.81-.27-13.44-.65-21.48-.24-5-.52-9.74-.83-14.35-.27-3.84-.59-8-1-12.3l-.18-1.81.57,0c-.12-1-.24-2-.38-2.94-.76-5.51-1.63-11.2-2.59-17-.5-2.87-.95-5.79-1.62-8.64l-1.91-8.7-1.91-8.7-.48-2.17-.06-.27v0l0-.12-.16-.52-.32-1c-.4-1.39-.89-2.75-1.36-4.11a79.88,79.88,0,0,0-7.36-15.1,72.85,72.85,0,0,0-9.67-12.29,68.12,68.12,0,0,0-5.28-4.86,64.74,64.74,0,0,0-5.44-4,53.39,53.39,0,0,0-10.35-5.35,55.78,55.78,0,0,0-8.63-2.53c-2.46-.53-4.4-.78-5.72-1l-2.06-.24h0c-.41,0-41.19-4.35-49.53-5.07-1.33-.1-12.69-.89-17.48-1.22-6.45,21.19-24.48,38.73-48.85,47.47.2,4.68.72,16.59,1,22.44h0l.09,2.5c1,27.55,1.5,56.11,1.5,84.91q0,2.8,0,5.59h-5.24q0-2.78,0-5.58c0-27.86-.47-55.51-1.4-82.22-13-.12-26.19-.19-39.39-.19-30.82,0-68.7.48-101.84,1.29-2.25,26.36-3.4,53.63-3.4,81.12q0,2.83,0,5.65H579.71V900q0-1.72,0-3.44c0-4.3-.06-8.67-.17-13v0a1.53,1.53,0,0,1,1.5-1.57l12.6-.32a1.57,1.57,0,0,1,1.61,1.53c.11,4.44.17,8.94.17,13.39q0,1.75,0,3.5v1.11h10.8l.09-1.24C606.35,898.11,606.36,896.09,606.34,894Zm-226.26-7.47a31.85,31.85,0,1,1,31.85-31.85A31.88,31.88,0,0,1,380.09,886.52Zm208.79-63.33A51.38,51.38,0,0,1,576,848.46a41.24,41.24,0,0,1-11.24,8.28,39.08,39.08,0,0,1-6.36,2.49l-.4.12-.2.06-.1,0-.21.05-.74.18c-.5.12-1,.24-1.5.35-1.14.21-2.32.45-3.39.54a40.56,40.56,0,0,1-12.74-.51,45.93,45.93,0,0,1-11.2-3.84,53,53,0,0,1-16.1-12.48,62.31,62.31,0,0,1-8.76-12.93,65.14,65.14,0,0,1-3.83-9.27c-.38-1.09-.59-2-.77-2.53l-.25-.87,0-.09-.2-.82-.24-1c-.1-.39-.21-.86-.32-1.47a64.88,64.88,0,0,1-1.3-10,62.31,62.31,0,0,1,1.17-15.57A53,53,0,0,1,505,770.34a45.93,45.93,0,0,1,7.81-8.9,40.56,40.56,0,0,1,10.8-6.78c1-.46,2.06-.8,3.11-1.18.53-.18,1.07-.32,1.61-.48l.81-.23.31-.08.19,0,.37-.08,1.5-.33,1.77-.29c.6-.11,1.16-.16,1.73-.22s1.14-.14,1.72-.15a41.24,41.24,0,0,1,13.87,1.59,51.38,51.38,0,0,1,23.74,15.52,61,61,0,0,1,8.2,12c.59,1.07,1.07,2.18,1.61,3.28s1,2.23,1.4,3.37.85,2.28,1.22,3.44c.2.58.37,1.16.54,1.75l.52,1.82A63.27,63.27,0,0,1,588.88,823.19Z"/><circle class="cls-14" cx="380.54" cy="855.78" r="28.71"/><path class="cls-12" d="M380.54,847.86A18.31,18.31,0,0,1,398.1,861,18.31,18.31,0,1,0,363,861,18.31,18.31,0,0,1,380.54,847.86Z"/><circle class="cls-15" cx="380.54" cy="855.78" r="18.32"/><path class="cls-16" d="M499.27,815.75a66,66,0,0,0,8.36,17.9,60,60,0,0,0,13.15,14.27,46.71,46.71,0,0,0,17,8.47,39.38,39.38,0,0,0,18.74.23c.39-.08.78-.16,1.11-.24s.72-.22,1.08-.33c.75-.25,1.5-.52,2.24-.8a40.4,40.4,0,0,0,4.3-2,37,37,0,0,0,7.67-5.42,46.2,46.2,0,0,0,10.89-15.57,59.49,59.49,0,0,0,4.75-18.81,68.67,68.67,0,0,0-1.28-19.72,56.8,56.8,0,0,1-.17,39.88A47.4,47.4,0,0,1,575.92,851a39.34,39.34,0,0,1-8.53,6.2,44.9,44.9,0,0,1-4.76,2.23c-.82.32-1.63.62-2.46.91-.44.14-.86.29-1.31.42s-.9.22-1.32.3a43.09,43.09,0,0,1-20.85-.52,47.8,47.8,0,0,1-18.16-9.89A57.63,57.63,0,0,1,499.27,815.75Z"/><path class="cls-17" d="M506.12,826.83A22.12,22.12,0,0,0,521.42,815c14.64,35.61,60.17,30.42,55-16-1.83-16.57,11,8.91,9.71,17s-6.58,31.49-26.71,38.12C525.94,865.19,506.12,826.83,506.12,826.83Z"/><path class="cls-18" d="M499.27,815.75a60.72,60.72,0,0,0,7.65,18.35A58.35,58.35,0,0,0,520,849a47.45,47.45,0,0,0,17.48,9,40.67,40.67,0,0,0,19.56.28c.4-.08.81-.17,1.22-.27l1-.31c.78-.26,1.56-.54,2.33-.83a41.52,41.52,0,0,0,4.49-2.05,37.64,37.64,0,0,0,8-5.7,47,47,0,0,0,11-16.26,60.56,60.56,0,0,0,2.25-39.08,63.21,63.21,0,0,1,2.68,19.8,58.35,58.35,0,0,1-4.11,19.62,46.56,46.56,0,0,1-11.15,16.69,38.72,38.72,0,0,1-8.22,5.9,42.74,42.74,0,0,1-4.6,2.13c-.79.31-1.58.6-2.38.87l-1.05.34c-.4.1-.81.19-1.23.28a41.76,41.76,0,0,1-20.08-.39,47,47,0,0,1-17.77-9.33,58.8,58.8,0,0,1-13-15.28A61,61,0,0,1,499.27,815.75Z"/><path class="cls-19" d="M499.51,818.22c-3.26-12.5-2.92-26.14,2.09-38.35a47.11,47.11,0,0,1,11.11-16.34,39.25,39.25,0,0,1,37.34-9.61,47.41,47.41,0,0,1,17.43,8.84c10.23,8.07,17.12,19.63,20.37,31.93s3.07,25.75-1.79,37.84a47.41,47.41,0,0,1-10.72,16.34,39.25,39.25,0,0,1-37.17,10.23,47.12,47.12,0,0,1-17.77-8.65C510,842.34,502.9,830.68,499.51,818.22Zm8.86-2.36c2.83,10.76,8.87,20.78,17.5,27.59a39.27,39.27,0,0,0,14.36,7.35,31.06,31.06,0,0,0,29.68-7.57,38.89,38.89,0,0,0,9.2-13.52c4.26-10.32,4.62-22.2,1.77-33.15s-9.19-21-18-27.88a38.9,38.9,0,0,0-14.7-7.15,31.06,31.06,0,0,0-29.52,8.19,39.28,39.28,0,0,0-8.81,13.52C505.73,793.41,505.48,805.11,508.37,815.86Z"/><path class="cls-18" d="M581.43,797.51a54.71,54.71,0,0,0-6.67-15.25,51.53,51.53,0,0,0-10.88-12.49,39.81,39.81,0,0,0-14.5-7.73,32.43,32.43,0,0,0-16.3-.26l-.51.11-.26.06-.06,0c-.09-.5.18,1.13-.28-1.11h.08c.27-.27.32,2.12.25,1.12l-.05,0-1,.32c-.65.22-1.3.46-1.94.72a34.67,34.67,0,0,0-3.73,1.75,31.23,31.23,0,0,0-6.64,4.84,39.86,39.86,0,0,0-9.09,13.68,47.85,47.85,0,0,0-3.46,16.18A62.3,62.3,0,0,0,508,816a59.84,59.84,0,0,1-2.15-16.61,48.42,48.42,0,0,1,3.2-16.49,39.42,39.42,0,0,1,9.18-14.11,32.31,32.31,0,0,1,6.83-5,35.75,35.75,0,0,1,3.84-1.83c.66-.27,1.32-.51,2-.75l1-.34.07,0c-.06-1,0,1.37.27,1.11h0c-.49-2.23-.16-.61-.24-1.12l.06,0,.25-.06.51-.12a33.53,33.53,0,0,1,16.84.38,39.35,39.35,0,0,1,14.78,8.06A52.83,52.83,0,0,1,581.43,797.51Z"/><path class="cls-19" d="M580.6,807.91l0,1.27c0,.85,0,1.69-.1,2.54a43.29,43.29,0,0,1-.72,5,42,42,0,0,1-1.28,4.89,41,41,0,0,1-2,4.65,35.86,35.86,0,0,1-2.51,4.35c-.47.69-1,1.34-1.52,2a16.53,16.53,0,0,1-1.65,1.88,31.3,31.3,0,0,1-3.69,3.33c-.66.49-1.37.92-2.05,1.37-.35.22-.68.46-1,.65l-1.1.55a23.06,23.06,0,0,1-2.21,1l-2.27.79-2.29.57a14.52,14.52,0,0,1-2.14.38l-2.48.23c-.81,0-1.54,0-2.3,0a30.08,30.08,0,0,1-4.42-.49,32.3,32.3,0,0,1-7.88-2.71,36.48,36.48,0,0,1-11.28-8.77,41.55,41.55,0,0,1-6.1-9.06,33.53,33.53,0,0,1-1.66-3.68c-.22-.55-.43-1-.61-1.51"/><path class="cls-20" d="M580.6,807.91l0,3.49c-.06,1.16-.18,2.32-.31,3.48-.07.58-.16,1.16-.28,1.73s-.19,1.15-.32,1.72c-.26,1.15-.59,2.27-.9,3.38h0v0c-.43,1.16-.83,2.34-1.34,3.5-.25.59-.55,1.13-.8,1.7s-.57,1.13-.88,1.68a28.47,28.47,0,0,1-2,3.16l-1.13,1.53a16.54,16.54,0,0,1-1.27,1.43,25.18,25.18,0,0,1-2.74,2.6,27.06,27.06,0,0,1-3.06,2.24,26.7,26.7,0,0,1-3.32,1.83,11.93,11.93,0,0,1-1.79.75l-1.76.62h-.05c-1.12.28-2.23.58-3.37.82s-2.33.25-3.49.38-2.32,0-3.53-.06-2.33-.33-3.44-.48h0A33,33,0,0,1,535.4,840a35.07,35.07,0,0,1-7.89-6,42,42,0,0,1-6.09-7.79,45.56,45.56,0,0,1-4.09-9,49.91,49.91,0,0,0,4.51,8.7,45.37,45.37,0,0,0,6.24,7.48,36.4,36.4,0,0,0,7.83,5.7,31.87,31.87,0,0,0,9.07,3.3h0c1.17.15,2.28.37,3.38.44s2.24,0,3.36,0l1.71-.17a16.33,16.33,0,0,0,1.64-.19c1.11-.22,2.22-.51,3.33-.78l-.05,0,1.76-.61a10.66,10.66,0,0,0,1.66-.67,25.57,25.57,0,0,0,3.22-1.74,25.89,25.89,0,0,0,3-2.13,24.15,24.15,0,0,0,2.69-2.5c.43-.44.85-.88,1.22-1.34l1.13-1.44a27.74,27.74,0,0,0,2.08-3.05c.32-.52.62-1.06.9-1.6s.59-1.1.83-1.65c.52-1.11.95-2.27,1.42-3.43v0c.34-1.12.72-2.21,1-3.32.16-.56.27-1.11.4-1.69s.25-1.12.35-1.7c.18-1.14.35-2.3.46-3.45Z"/><ellipse class="cls-19" cx="548.35" cy="804.93" rx="28.72" ry="34.68" transform="matrix(0.97, -0.26, 0.26, 0.97, -188.65, 168.2)"/><path class="cls-19" d="M516.12,813.31l-.47-2.19-.26-1.2-.24-1.68a33.54,33.54,0,0,1-.4-4.14,41.52,41.52,0,0,1,.84-10.92,36.77,36.77,0,0,1,5.51-13.27,32.8,32.8,0,0,1,5.55-6.31,30.62,30.62,0,0,1,3.62-2.64c.66-.39,1.29-.82,2-1.17l2.13-1a15.87,15.87,0,0,1,2.22-.81l1.14-.36.57-.18.31-.08h.06l.13,0,.25,0,2-.38a8.9,8.9,0,0,1,1.2-.14l1.31-.1,1.32-.08c.44,0,.83,0,1.25,0,.82.05,1.66.07,2.48.16a31.48,31.48,0,0,1,4.89,1,16.57,16.57,0,0,1,2.38.8c.77.32,1.57.61,2.32,1a35.78,35.78,0,0,1,4.36,2.52,40.79,40.79,0,0,1,4,3.05,41.72,41.72,0,0,1,3.56,3.6,42.92,42.92,0,0,1,3.13,4c.48.7.9,1.43,1.35,2.15l.66,1.09c.2.37.39.75.58,1.13l1.14,2.27.95,2.36.47,1.18.37,1.21.78,2.58.52,2.28.26,1.14.2,1.3.37,2.62.14,2.54c0,.42.05.85.06,1.27l0,1.27c0,.85,0,1.69-.1,2.54a42.92,42.92,0,0,1-.73,5,41.72,41.72,0,0,1-1.3,4.89,40.8,40.8,0,0,1-2,4.65,35.78,35.78,0,0,1-2.53,4.35c-.48.69-1,1.34-1.53,2a16.57,16.57,0,0,1-1.67,1.88,31.48,31.48,0,0,1-3.73,3.33c-.67.49-1.38.92-2.07,1.37-.35.22-.69.46-1.05.65l-1.11.55a23.37,23.37,0,0,1-2.23,1l-2.29.79-.29.1-.14,0-.07,0-.31.07-.5.11-1,.22a14.77,14.77,0,0,1-2.16.38l-2.5.23c-.81,0-1.55,0-2.32,0a30.62,30.62,0,0,1-4.46-.49,32.8,32.8,0,0,1-7.95-2.71,36.77,36.77,0,0,1-11.38-8.77,41.52,41.52,0,0,1-6.16-9.06,33.38,33.38,0,0,1-1.67-3.68c-.22-.55-.44-1-.61-1.51l-.41-1.29-.75-2.37Z"/><path class="cls-21" d="M581.11,806.64,581,804.1l-.37-2.62-.2-1.3-.26-1.14-.52-2.28-.78-2.58-.37-1.21-.47-1.18-.95-2.36-1.14-2.27c-.19-.38-.37-.76-.58-1.13l-.66-1.09c-.45-.72-.87-1.46-1.35-2.15a42.92,42.92,0,0,0-3.13-4,41.71,41.71,0,0,0-3.56-3.6l0,0c-4.38,7-10.51,30.17-18.27,34.13-20.34,10.38-30.63,8.83-30.41,9.38a33.39,33.39,0,0,0,1.67,3.68,41.53,41.53,0,0,0,6.16,9.06,36.77,36.77,0,0,0,11.38,8.77,32.8,32.8,0,0,0,7.95,2.71,30.63,30.63,0,0,0,4.46.49c.77,0,1.51.07,2.32,0l2.5-.23a14.77,14.77,0,0,0,2.16-.38l1-.22.5-.11.31-.07.07,0,.14,0,.29-.1,2.29-.79a23.37,23.37,0,0,0,2.23-1l1.11-.55c.36-.19.7-.43,1.05-.65.69-.45,1.4-.88,2.07-1.37a31.48,31.48,0,0,0,3.73-3.33,16.58,16.58,0,0,0,1.67-1.88c.51-.66,1.05-1.31,1.53-2a35.77,35.77,0,0,0,2.53-4.35,40.79,40.79,0,0,0,2-4.65,41.71,41.71,0,0,0,1.3-4.89,42.92,42.92,0,0,0,.73-5c.07-.84.07-1.69.1-2.54l0-1.27C581.16,807.48,581.13,807.06,581.11,806.64Z"/><path class="cls-22" d="M578.86,811.61c.34-1.07.64-2.15.89-3.24.13-.62.53-3.72.59-3.8.09-1.08.16-2.16.24-3.24l-.17-1.15-.08-.35c-2.23.14-4.46.23-6.76.32-3.57,3.64-6.62,7.75-10.38,11.21-5,4.57-10.57,7.83-16.46,11-2,1.07-4,2.12-6,3.31a22.1,22.1,0,0,1-12.8,8,36.79,36.79,0,0,0,6.17,4.81C535.2,838.79,567.95,850.71,578.86,811.61Z"/><path class="cls-18" d="M580.24,816a14.83,14.83,0,0,1-7.91,5.4c-9.75,2.59-20.45-5.84-23.91-18.84s1.63-25.64,11.38-28.24"/><path class="cls-18" d="M580.24,816a13.28,13.28,0,0,1-7,8.23,17.27,17.27,0,0,1-12,.93,21.94,21.94,0,0,1-5.56-2.42,19.78,19.78,0,0,1-2.48-1.68,24,24,0,0,1-2.24-1.94,29.83,29.83,0,0,1-6.54-9.53,32.31,32.31,0,0,1-2.64-11c0-.95,0-1.91,0-2.85s.15-1.91.24-2.85.31-1.89.5-2.82.5-1.85.82-2.75a22.35,22.35,0,0,1,6.29-9.49,13.58,13.58,0,0,1,10.17-3.47,17.22,17.22,0,0,0-5.48,7.17,24.43,24.43,0,0,0-1.65,7.87c0,.66,0,1.33,0,2l.09,2c.09.66.16,1.31.23,2l.33,1.95a36.64,36.64,0,0,0,2.32,7.49,26.16,26.16,0,0,0,9.16,11.56,13.63,13.63,0,0,0,6.9,2.2A16.34,16.34,0,0,0,580.24,816Z"/><ellipse class="cls-18" cx="566.07" cy="797.91" rx="18.26" ry="24.36" transform="translate(-186.25 172.52) rotate(-14.91)"/><path class="cls-19" d="M543.72,803.86a31.94,31.94,0,0,1,.75-19.21,23.33,23.33,0,0,1,5.45-8.47A18.26,18.26,0,0,1,559,771.3a17.62,17.62,0,0,1,9.87,1,23.15,23.15,0,0,1,7.72,5.18,35.54,35.54,0,0,1,8.77,32.93,23.15,23.15,0,0,1-4.12,8.33,17.62,17.62,0,0,1-8.06,5.78,18.26,18.26,0,0,1-10.28.28,23.32,23.32,0,0,1-8.94-4.64A31.94,31.94,0,0,1,543.72,803.86Zm9.4-2.5a28.32,28.32,0,0,0,6.69,12.25c3.18,3.27,7.37,5.41,11.7,4.77a11.7,11.7,0,0,0,6-3,16.7,16.7,0,0,0,4.11-6.18A26.25,26.25,0,0,0,574,780.4a16.7,16.7,0,0,0-6.64-3.32,11.7,11.7,0,0,0-6.7.37c-4.08,1.59-6.65,5.53-7.78,10A28.32,28.32,0,0,0,553.12,801.36Z"/><path class="cls-5" d="M548.42,802.61a27.53,27.53,0,0,1-.67-16.88,20.32,20.32,0,0,1,4.16-7.73,14.93,14.93,0,0,1,16.52-4.4,20.33,20.33,0,0,1,7.46,4.64,27.5,27.5,0,0,1,7.81,15,32.52,32.52,0,0,0-9.08-13.57,19.75,19.75,0,0,0-6.9-3.86,13.27,13.27,0,0,0-14.11,3.75,19.77,19.77,0,0,0-4.07,6.78A32.48,32.48,0,0,0,548.42,802.61Z"/><path class="cls-18" d="M551.29,802.13c-3.06-11.5,1.34-23.65,10-25.95s21.19,3.25,24.79,15.1c4.43,14.6-4.61,25.95-13.6,27.51C563.66,820.32,554.35,813.63,551.29,802.13Z"/><path class="cls-18" d="M551.29,802.13c-3.06-11.5,1.34-23.65,10-25.95s21.19,3.25,24.79,15.1c4.43,14.6-4.61,25.95-13.6,27.51C563.66,820.32,554.35,813.63,551.29,802.13Z"/><path d="M551.23,801.66c-2.65-9.94.13-20.17,6.35-21.83s15.59,3.54,18.64,13.8c3.76,12.64-2.44,22-8.95,23S553.87,811.6,551.23,801.66Z"/><path class="cls-23" d="M576.43,812.86c-10.09,4.26-16-.72-18.29-1.21,3.87,4.15,9,6.16,14,5.3,6.07-1.05,12.16-7,13.31-15.39C584.6,802.65,583.33,809.94,576.43,812.86Z"/><path class="cls-20" d="M572.44,818.8a15.11,15.11,0,0,1-7.49-.35,18.87,18.87,0,0,1-6.63-3.71,25.24,25.24,0,0,1-7.69-13,28.11,28.11,0,0,1-.8-7.59,25.17,25.17,0,0,1,1.29-7.51,19.23,19.23,0,0,1,3.75-6.61,12.42,12.42,0,0,1,6.39-3.87,12.7,12.7,0,0,0-6,4.24,18.64,18.64,0,0,0-3.33,6.51,27.47,27.47,0,0,0-.22,14.55,25,25,0,0,0,7.16,12.6A17.11,17.11,0,0,0,572.44,818.8Z"/><path class="cls-24" d="M584.68,793.48c-.12-1.46-5.33-14.7-18.61-14.66-5.55,0-10.18,5.06-10.59,11.55-.13,2-1,2.86,3.34.61a27.47,27.47,0,0,1,4-1.7,3.06,3.06,0,0,0-.65,1.83c0,2.35,3,4.26,6.62,4.26s6.62-1.91,6.62-4.26a3.44,3.44,0,0,0-1.42-2.63C579.52,789.62,583.3,791.42,584.68,793.48Z"/><ellipse class="cls-16" cx="570.04" cy="783.28" rx="2.4" ry="1.82"/><path class="cls-16" d="M539.77,744a63,63,0,0,1,23,7,67.31,67.31,0,0,1,18.5,15.28,78.76,78.76,0,0,1,12.54,20.38A82.23,82.23,0,0,1,597.68,798c.83,3.89,1.56,7.79,2.35,11.68s1.57,7.78,2.3,11.68,1.21,7.85,1.75,11.78c1.08,7.85,2,15.74,2.58,23.66s1,15.83,1.33,23.75.53,15.85.31,23.78c.13-7.93-.21-15.85-.59-23.77s-.94-15.82-1.62-23.72-1.69-15.75-2.86-23.58c-.58-3.92-1.19-7.83-1.89-11.73s-1.62-7.75-2.43-11.62-1.61-7.75-2.48-11.6a81,81,0,0,0-3.95-11.09A77.18,77.18,0,0,0,580,767.38a65.47,65.47,0,0,0-18.15-14.64,60.82,60.82,0,0,0-22.3-6.51Z"/><path class="cls-25" d="M275.77,815c3.31-37.59,8.81-72.5,16.05-103.43l1.37-5.71c9.63-36.34,48-62.88,94-62.88s84.68,26.51,94.29,62.88c0,0,6.23,23.07,8.53,34.12,8.45.73,49.58,5.08,49.58,5.08"/><path class="cls-25" d="M277.82,794.58c-28.45,1-55.08,2.51-79.25,4.34,0,0-1.33,7.28-1.74,9.7s-1.53,9.64-1.53,9.64c24.49-1.35,51.54-2.44,80.47-3.22"/><path class="cls-25" d="M272.18,904.48q0-2.87,0-5.76c0-28.93,1.25-57,3.61-83.68,31-.78,69.95-1.35,104.25-1.35q21.31,0,41.92.21c1,27,1.49,55.47,1.49,84.82,0,1.87,0,.52,0,2.38"/><path class="cls-25" d="M490.06,740c-1.64-.13-19.64-1.37-19.64-1.37-6,22.44-24.73,40-49.62,48.39,0,0,1,22.18,1.14,26.87"/><path class="cls-26" d="M674.79,852.69q-4.6-.5-9.88-1"/><path class="cls-26" d="M685.51,854"/><path class="cls-26" d="M691.83,855q-2.81-.52-6.32-1"/><path class="cls-26" d="M702.57,858.19a11.46,11.46,0,0,0-2-1.33"/><path class="cls-26" d="M653.18,850.71q-5.09-.39-10.63-.77t-11.73-.75c-7.79-.47-16.13-.92-25-1.34"/><line class="cls-26" x1="594.15" y1="885.37" x2="581.59" y2="885.69"/><path class="cls-26" d="M85.22,852.68c-17.65,1.92-27.52,4-27.8,6.21"/><path class="cls-26" d="M85.22,852.68"/><path class="cls-26" d="M106.82,850.71q-6.22.48-11.72,1"/><path class="cls-26" d="M216.75,845.51c-39.25,1.13-73,2.65-99.3,4.43"/><path class="cls-27" d="M273.7,845.34q-5.86.22-11.73.32l-11.73.13,1.09-1q-1.21,14.85-1.94,29.75c-.24,5-.43,9.93-.58,14.9s-.3,9.94-.39,14.91c-.14-5-.26-9.95-.31-14.92s0-10,.06-14.93q.21-14.93.92-29.85l0-1,1,0,11.73-.35q5.86-.13,11.73-.16Z"/><path class="cls-27" d="M272.18,904.24c-.17-5-.36-10-.43-15s-.13-10-.1-15,.07-10,.18-15,.3-10,.7-15l2.29.12c-.12,5-.42,10-.68,15s-.57,10-.81,15l-.65,15C272.5,894.23,272.31,899.23,272.18,904.24Z"/><path class="cls-28" d="M133.34,686.05a73.59,73.59,0,0,1,12.57-9.87A125.38,125.38,0,0,1,160,668.53a237.54,237.54,0,0,1,30-11.33,467.6,467.6,0,0,1,62.46-14.08c10.54-1.74,21.13-3.15,31.74-4.32s21.25-2.16,31.9-2.93q32-2.28,64-2.3t64,2.3c21.29,1.55,42.55,3.79,63.64,7.23s42,7.82,62.46,14.09a239.92,239.92,0,0,1,29.95,11.35,127.68,127.68,0,0,1,14.09,7.61,69.68,69.68,0,0,1,12.54,9.91A69.5,69.5,0,0,0,614,676.44a128.1,128.1,0,0,0-14.16-7.36,239.07,239.07,0,0,0-30-10.82,473.24,473.24,0,0,0-62.41-13.42,847.43,847.43,0,0,0-127.37-9,846.43,846.43,0,0,0-127.37,9,469.54,469.54,0,0,0-62.41,13.42,236.62,236.62,0,0,0-30,10.81,126.26,126.26,0,0,0-14.14,7.4A73.43,73.43,0,0,0,133.34,686.05Z"/><path class="cls-5" d="M539.77,742.9a63,63,0,0,1,23,7,67.32,67.32,0,0,1,18.5,15.28,78.75,78.75,0,0,1,12.54,20.38,82.24,82.24,0,0,1,3.89,11.34c.83,3.89,1.56,7.79,2.35,11.68s1.57,7.78,2.3,11.68,1.21,7.85,1.75,11.78c1.08,7.85,2,15.74,2.58,23.66s1,15.83,1.33,23.75.53,15.85.31,23.78c.13-7.93-.21-15.85-.59-23.77s-.94-15.82-1.62-23.72-1.69-15.75-2.86-23.58c-.58-3.92-1.19-7.83-1.89-11.73s-1.62-7.75-2.43-11.62-1.61-7.75-2.48-11.6a81,81,0,0,0-3.95-11.09A77.18,77.18,0,0,0,580,766.33a65.48,65.48,0,0,0-18.15-14.64,60.82,60.82,0,0,0-22.3-6.51Z"/><path class="cls-29" d="M275.77,814c3.31-37.59,8.81-72.5,16.05-103.43l1.37-5.71c9.63-36.34,48-62.88,94-62.88s84.68,26.51,94.29,62.88c0,0,6.23,23.07,8.53,34.12,8.45.73,49.58,5.08,49.58,5.08"/><path class="cls-29" d="M277.82,793.54c-28.45,1-55.08,2.51-79.25,4.34,0,0-1.33,7.28-1.74,9.7s-1.53,9.64-1.53,9.64c24.49-1.35,51.54-2.44,80.47-3.22"/><path class="cls-29" d="M272.18,903.43q0-2.87,0-5.76c0-28.93,1.25-57,3.61-83.68,31-.78,69.95-1.35,104.25-1.35q21.31,0,41.92.21c1,27,1.49,55.47,1.49,84.82,0,1.87,0,1.57,0,3.43"/><path class="cls-29" d="M490.06,739c-1.64-.13-19.64-1.37-19.64-1.37-6,22.44-24.73,40-49.62,48.39,0,0,1,22.18,1.14,26.87"/><path class="cls-30" d="M677.83,901.11q0-1.72,0-3.44a347.84,347.84,0,0,0-3.06-46q-4.6-.5-9.88-1a384.86,384.86,0,0,1,2.88,47q0,1.75,0,3.49"/><path class="cls-31" d="M685.51,853a358.64,358.64,0,0,1,2.81,44.7q0,1.75,0,3.49"/><path class="cls-30" d="M694.71,901.16c0-1.15,0-2.34,0-3.49a331.8,331.8,0,0,0-2.9-43.68q-2.81-.52-6.32-1"/><path class="cls-30" d="M705,901.16c0-1.13,0-2.29,0-3.53a326.64,326.64,0,0,0-2.43-39.75c-.11-.54-.78-1.07-2-1.59"/><path class="cls-30" d="M656.25,901.21c0-1.14,0-2.4,0-3.54a373.09,373.09,0,0,0-3.09-48q-5.09-.39-10.63-.77t-11.73-.75c-7.79-.47-16.13-.92-25-1.34.43,4.25.75,8.39,1,12.35.35,5.1.62,9.92.84,14.38.43,8.91.62,16.34.65,21.55,0,2.6,0,4.65,0,6v0Z"/><path class="cls-30" d="M594.15,884.33l-12.56.32c.11,4.31.17,8.7.17,13q0,1.73,0,3.45l5.49,0h7.08q0-1.74,0-3.49C594.32,893.24,594.27,888.74,594.15,884.33Z"/><path class="cls-30" d="M85.22,851.63c-17.65,1.92-27.52,4-27.8,6.21,0,0-3,23-2.32,43.3H82.21q0-1.61,0-3.22A356,356,0,0,1,85.22,851.63Z"/><path class="cls-30" d="M106.82,849.67q-6.22.48-11.72,1a393.85,393.85,0,0,0-2.85,47.29q0,1.61,0,3.22h11.52q0-1.61,0-3.23A381.82,381.82,0,0,1,106.82,849.67Z"/><path class="cls-30" d="M214.55,897.67c0-18.12.76-35.9,2.21-53.21-39.25,1.13-73,2.65-99.3,4.43a426.64,426.64,0,0,0-2.81,49q0,1.62,0,3.23l99.92,0C214.55,899.35,214.55,899.54,214.55,897.67Z"/><path class="cls-30" d="M160.14,846.53s-2.89,31.38-2.74,54.68"/><path class="cls-5" d="M271.8,903.19l0-.4c-.07-1.19-.13-2.34-.16-3.49l0-1.74v-1.88l0-7.51q.08-7.51.28-15c.24-10,.68-20,1.26-30l.51.52-23.46.37.38-.36c-1.36,19.84-2.12,39.72-2.07,59.61l-.11-.11Zm.8,0h-.42l-23.75.18h-.11v-.11c-.24-19.89.33-39.79,1.52-59.66l0-.35h.36l23.45-.59h.53l0,.54q-.69,15-1.1,30-.2,7.5-.28,15l0,7.5,0,3.89C272.71,900.79,272.65,902,272.6,903.19Z"/><path class="cls-30" d="M309.8,659.42c-5.24.39-10.43.82-15.54,1.29-93.91,8.78-166,31.61-186.79,59.92q-1.35,2.08-2.67,4.18-5.19,8.26-9.91,16.83a40,40,0,0,1,6.84-8.26c25.77-24.34,97.17-43.75,188.68-51.54A92.59,92.59,0,0,1,309.8,659.42Z"/><path class="cls-30" d="M655,724.4c-.63-1-1.26-2-1.91-3-20-28.58-92.16-51.68-186.49-60.6a91.59,91.59,0,0,1,18.66,22.52c84,8.59,148.76,27.14,173,50.08a57.81,57.81,0,0,1,5.83,6.39Q659.79,732,655,724.4Z"/><ellipse class="cls-19" cx="387.42" cy="710.57" rx="75.72" ry="65.02"/><path class="cls-5" d="M452.71,707.3l3.94,4.28,3.4-4.28,3.09,3.27c0-35.91-33.9-65-75.72-65s-75.72,29.11-75.72,65l3.13-2.73,3.23,2.73,4.1-3.27Z"/><path class="cls-18" d="M387.23,759.08c46.48.5,64.39-31.63,64.39-55.44,0-25.33-17-47-64.39-47h.18C340,656.6,323.2,678,323.2,703.32c0,23.82,19,55.76,64.21,55.76Z"/><ellipse class="cls-29" cx="387.42" cy="705.34" rx="64.25" ry="55.18"/><polygon class="cls-19" points="347.68 745.17 347.68 750.16 339.26 747.28 334.99 743.65 337.07 738.62 344.24 744.39 347.68 745.17"/><polygon class="cls-19" points="381.34 759.34 381.34 762.77 393.63 762.77 393.81 759.31 387.42 758.53 381.34 759.34"/><polygon class="cls-19" points="369.56 755.25 369.56 761.64 355.15 761.64 356.06 755.7 357.28 753.12 369.56 755.25"/><polygon class="cls-19" points="331.5 727.48 331.5 736.11 321.11 727.2 324.89 716.93 328.96 723.89 331.5 727.48"/><polygon class="cls-19" points="325.3 704.49 324.35 707.3 322.16 707.3 323.2 704.51 325.3 695.09 325.3 704.49"/><polygon class="cls-19" points="329.22 683.39 326.86 683.24 329.57 680.25 331.4 681.28 329.22 683.39"/><polygon class="cls-19" points="427.41 744.99 427.41 749.97 435.92 747.27 438.93 741.83 438.11 738.61 430.95 744.38 427.41 744.99"/><polygon class="cls-19" points="405.62 755.25 405.62 761.63 416.55 761.63 417.77 755.25 417.91 753.12 405.62 755.25"/><polygon class="cls-19" points="443.49 727.21 443.49 735.84 453.92 727.99 450.03 716.62 446.22 723.88 443.49 727.21"/><polygon class="cls-19" points="449.53 704.18 450.58 707.3 452.71 707.3 451.63 704.2 449.88 695.08 449.53 704.18"/><polygon class="cls-19" points="445.96 683.39 448.32 683.24 445.61 680.25 443.79 681.27 445.96 683.39"/><path class="cls-5" d="M387.42,759.58c-2,0-4.07-.08-6.07-.24l.17-2.09a73.61,73.61,0,0,0,12.12,0l.18,2.09C391.7,759.49,389.55,759.58,387.42,759.58Z"/><path class="cls-5" d="M369,757.28a70.16,70.16,0,0,1-11.77-4.16l.87-1.9a68,68,0,0,0,11.41,4Z"/><path class="cls-5" d="M406.1,757.2l-.53-2a67.89,67.89,0,0,0,11.4-4.09l.88,1.9A70,70,0,0,1,406.1,757.2Z"/><path class="cls-5" d="M346.46,746.88a60.76,60.76,0,0,1-9.39-8.26l1.54-1.42a58.64,58.64,0,0,0,9.06,8Z"/><path class="cls-5" d="M428.64,746.69l-1.23-1.7a58.49,58.49,0,0,0,9-8l1.55,1.41A60.55,60.55,0,0,1,428.64,746.69Z"/><path class="cls-5" d="M329.68,728.51a50.18,50.18,0,0,1-4.79-11.58l2-.55a48.08,48.08,0,0,0,4.59,11.1Z"/><path class="cls-5" d="M445.31,728.23l-1.83-1A48,48,0,0,0,448,716.08l2,.53A50.07,50.07,0,0,1,445.31,728.23Z"/><path class="cls-5" d="M323.21,704.51v-.22a48.26,48.26,0,0,1,1.63-12.44l2,.54a46.15,46.15,0,0,0-1.56,11.9v.2Z"/><path class="cls-5" d="M449.53,704.18a46.11,46.11,0,0,0-1.59-11.89l2-.54a48.2,48.2,0,0,1,1.66,12.43Z"/><path class="cls-5" d="M331.4,681.28l-1.83-1a54.92,54.92,0,0,1,7.36-10.13l1.55,1.41A52.78,52.78,0,0,0,331.4,681.28Z"/><path class="cls-5" d="M443.39,681.19a52.76,52.76,0,0,0-7.1-9.73l1.54-1.42a55,55,0,0,1,7.38,10.12Z"/><path class="cls-5" d="M347.51,663.53l-1.22-1.7a65.92,65.92,0,0,1,10.8-6.28l.88,1.9A63.77,63.77,0,0,0,347.51,663.53Z"/><path class="cls-5" d="M427.24,663.47a63.91,63.91,0,0,0-10.46-6.06l.88-1.9a66,66,0,0,1,10.8,6.26Z"/><path class="cls-5" d="M369.36,653.38l-.53-2a73.35,73.35,0,0,1,12.3-2.09l.17,2.09A71.3,71.3,0,0,0,369.36,653.38Z"/><path class="cls-5" d="M405.37,653.35a71.28,71.28,0,0,0-11.95-2l.17-2.09a73.38,73.38,0,0,1,12.3,2.07Z"/><path class="cls-19" d="M438.36,664.07c10,8,17.61,19.29,20.48,32a48.54,48.54,0,0,1,1.23,9.64,50.28,50.28,0,0,1-.57,9.71,54.74,54.74,0,0,1-6.35,18.35,65.19,65.19,0,0,1-5.45,8.09A66.21,66.21,0,0,1,441,749,73.18,73.18,0,0,1,425,760a83.89,83.89,0,0,1-75.2,0,73.18,73.18,0,0,1-16-11.07,66.84,66.84,0,0,1-6.68-7.11,65.18,65.18,0,0,1-5.45-8.09,54.75,54.75,0,0,1-6.35-18.36,50.29,50.29,0,0,1-.57-9.71c0-1.62.21-3.24.37-4.85s.46-3.21.86-4.79c2.87-12.69,10.5-24,20.48-32a72.57,72.57,0,0,0-6.75,6.83,64.48,64.48,0,0,0-5.64,7.73,53.83,53.83,0,0,0-7,17.65c-.35,1.55-.54,3.13-.76,4.69s-.29,3.16-.28,4.74a48.93,48.93,0,0,0,.71,9.45,53.15,53.15,0,0,0,6.45,17.71,66.31,66.31,0,0,0,27.55,25.29,83.58,83.58,0,0,0,73.31,0,66.33,66.33,0,0,0,27.55-25.29,53.15,53.15,0,0,0,6.45-17.71,49,49,0,0,0,.71-9.45c0-1.59-.15-3.16-.28-4.74s-.41-3.14-.75-4.69a53.82,53.82,0,0,0-7-17.65,64.53,64.53,0,0,0-5.64-7.73A72.54,72.54,0,0,0,438.36,664.07Z"/><path class="cls-29" d="M437.3,663.55c12.77,11,20.66,26.11,20.66,42.84s-7.9,31.87-20.66,42.84S406.9,767,387.42,767s-37.12-6.78-49.88-17.74-20.66-26.11-20.66-42.84,7.9-31.87,20.66-42.84"/><path class="cls-18" d="M387.24,756.88c39.23,0,61.63-31.3,61.63-54.66,0-24.84-16.6-61.73-61.63-61.73h.18c-45,0-61.63,36.9-61.63,61.73,0,23.35,22.39,54.66,61.63,54.66Z"/><path class="cls-32" d="M432,724.57c10.28-7.38,4.32-32.82-44.39-32.82-56.18,0-55.18,25.44-44.9,32.82,10.1,7.25,25.23,12.61,44.65,12.63S421.87,731.82,432,724.57Z"/><path class="cls-33" d="M441.21,717.52S422,738.64,387.33,738.64c-35.21,0-53.89-21.13-53.89-21.13,7.42,17.63,26.13,34.44,53.89,34.47S433.79,735.14,441.21,717.52Z"/><path class="cls-24" d="M338.47,679.2c0-16.76,21.73-35.17,48.85-35.17s49.35,18.41,49.35,35.17-22.24,8.36-49.35,8.36S338.47,696,338.47,679.2Z"/><ellipse class="cls-16" cx="368.83" cy="657.39" rx="7.61" ry="4.27" transform="matrix(0.96, -0.29, 0.29, 0.96, -172.85, 133.2)"/><path class="cls-12" d="M379.77,940.94H55c4.33,0,31.93,9.69,31.93,9.69h7.29v3.8c4.33,0,31.93,9.69,31.93,9.69l8.59,0V968c4.33,0,31.93,9.69,31.93,9.69H592.83s27.6-9.69,31.93-9.69v-3.8l8.59,0s27.6-9.69,31.93-9.69v-3.8h7.29s27.6-9.69,31.93-9.69Z"/><polygon class="cls-34" points="379.77 950.63 94.26 950.63 94.26 954.42 379.77 954.42 665.28 954.42 665.28 950.63 379.77 950.63"/><polygon class="cls-34" points="379.77 964.15 134.78 964.15 134.78 967.95 379.77 967.95 624.76 967.95 624.76 964.15 379.77 964.15"/><path class="cls-5" d="M705,926c0-6.54,0-6.26,0-20H55c0,13.73,0,11,0,20Z"/><line class="cls-35" x1="705" y1="907.43" x2="55.04" y2="907.43"/><rect class="cls-2" x="55.04" y="930.19" width="649.94" height="10.75"/><line class="cls-36" x1="701.84" y1="928.11" x2="58.18" y2="928.11"/><line class="cls-37" x1="705" y1="899.06" x2="55.04" y2="899.06"/><path class="cls-13" d="M97.86,913.12a15.24,15.24,0,0,0,14.34,10.21H646.87A15.18,15.18,0,0,0,661.28,913c1.17-3.48,2.15-5.51,3-7.68H94.76C95.58,907.76,96.62,909.62,97.86,913.12Z"/><line class="cls-36" x1="701.84" y1="903.26" x2="58.2" y2="903.26"/><path class="cls-38" d="M267.62,832.45a7.65,7.65,0,0,0-.52,4.41l.75-2.41C267.56,834.38,267.51,833.72,267.62,832.45Z"/><path class="cls-38" d="M258.68,881.54l.43,1.38,1.09-3.64C259.83,878.56,259,881.61,258.68,881.54Z"/><path class="cls-38" d="M276,841.81v-.08l-.52-1C275.21,841,275.32,841.3,276,841.81Z"/><path class="cls-38" d="M288,837.84c-4.34-1.17-5-2.14-4.95-3.17s.9-2.16-.43-3.09a2.74,2.74,0,0,1,2.41-.18s.95-.51,1.89-1.08,1.87-1.17,1.87-1.17c-4.28-.16-4.36-.49-3.56-1s2.51-1.25,1.8-1.86c-3.61-.52-7.19-.31-9.78-.88,2.88-1.73,1.95-2.74,1.17-3.54S277,820.32,280,818c-2.68.75-4.57,1-6.37,1.47.59-3.39.91-5.71,0-4a17.29,17.29,0,0,0-1,3.66,3.43,3.43,0,0,1,.36-1.65c-.28-2.44-.41-.29-1,2.44a40.39,40.39,0,0,0-6.46,2.69c1.54-1.41,3.64-3.24,5.46-5.25l.16-.18-.26,1.21c0,1.47.35-.12.75-1.79,1.45-1.75,2.58-3.57,2.7-5-.94.39-1.79.73-2.74,1.17-2.76,1.65-6.24,3.72-9.91,6.07s-7.51,5-11.12,7.57l-.6.44,1-1a104,104,0,0,0,10-11.67c1.67-2.4,3.23-4.71,4.65-6.9l1-1.62.06-.1c.39.32-.53-.44-.43-.37h0v0l0-.06.09-.22.18-.44.34-.88a31.84,31.84,0,0,0,1.06-3.51,23.18,23.18,0,0,0-.2-12.5c-1.91,1.79-3.67,3.54-5.22,4.91,0,0-.1-1.57-.3-3.11s-.48-3.13-.48-3.13c-2.84-.92-6.9.35-9.25,8.38-.26-1.29-.13-2.55-.45-3.84-.56,1.2-1.2,1.17-1.87,1.4s-1.33.68-1.73,2.89c-1-2.52-1.13-6.27-2.05-10-1.31,2-2.92.53-4.8-.42a4.16,4.16,0,0,0-2.71-.69c-.83.2-1.53.94-1.83,2.66-2.06-5-2.9-3.12-3.47-1.13s-.91,3.94-3.76-.29c-2.49-.93-4.32.12-5,2.33s-.11,5.23,1.57,8.28c-.55-.77-1.31-2.35-2.24-3.91s-2-3.11-3.49-3.62c.09.73-.08,1.65.3,2.16a18.36,18.36,0,0,0-2.27.3c-1,.33-1.71.91-1.26,2.68A5.06,5.06,0,0,0,219,796c4.74,1.23,8.19,8.51,13.35,14.87a57,57,0,0,0,4.06,4.59c1.41,1.45,2.94,2.71,4.36,4.06l4.09,3.79,1,.88.23.21s0,0,0,0l.09-.1,0,0,.26.35.36.49.08.11a7.64,7.64,0,0,1,.84,1.63l.12.35-.58.41h0l.57.74-1.2.88-.24.17-.49.3,0,0s-.23.14-.46.25l-.09,0a7.44,7.44,0,0,1-.89.4l-.23.09c-.29.11-.36.12-.56.19l.15,0-.37.12c-.23.07-.28.07-.56.14a7.26,7.26,0,0,1-1,.17c-.23,0-.35,0-.24,0l.21,0h.05a7.59,7.59,0,0,1,1.45.34l13.41,36.94a3.32,3.32,0,0,1,1.4.38c1.6-3.85,1.64-8.49,3.1-9.22-1,2.38-1.62,7-1.16,7.18-.36-.76.47-1.95.83-3.29l-.16-.9c1-5,1.38-4.66,1.71-3.67s.7,2.64,1.61.22c-.32,3.44-.41-.14-1.17,3.16-.93,4.5-1.67,9.9-.69,11.86,1.8-2.57,2.61-1.25,3.5.52s1.81,4,3.4,3.13c.31-3.8.92-2,1.44-2.54-1,3.25-.18,7.27.37,8,.93-2,1.66-9.38,2.64-8.6l-.13-7.09c-.29-.87-1.89,2-2.76,3.47.21-4-.69-3.21-1.51-2.77s-1.49.52-.57-4.87l.2,1.48c1,4.14,3.1-6.59,4.64-10.29.69,3.21.61,8.66,1.07,13,.79,2.15,1.24-.8,1.8-2.71.86-1.67,1.08,1.79,1.48,3.86.3-.37-.07-1.82.23-2.18.34.85.72,2.31,1,1.94.26-6.77-1.2-6.78-1.94-8.92.26-1,.37-2.34.65-2.1.26-.36.16,1,.18,1.64l.54-.73c.07-2,.1-5.8.72-6.1l.29,4.05c1.34,1.38,1.87-8.11.39-9l-.2,4.17-.67-3.11-.61-3.12c0-3.2.4-3.32.68-4.91h.17c2.42-.15,4.4-.67.26-2.3l2.11.58a10.78,10.78,0,0,0,5.13,1.12c1.68,0,3-.43,3-.88Zm-43.65-15.5c-.42-.41-.95-1.19-1.94-2.41a20.9,20.9,0,0,1,2.64,2.91C244.92,822.82,244.73,822.71,244.35,822.34Zm1.41,1.42-.05-.07.06.07Zm.63.2h0l.16-.18,0,0v0h0s0,0-.12.09Zm.2,0v-.13h0C246.6,823.78,246.59,823.87,246.58,824Zm3.06,1.92Zm-4.21,4h0ZM244,831.4l-2-.34,1.76.24c1.42.21,2.9.45,4.25.72C246.46,831.84,245.17,831.6,244,831.4Zm28.39-11.94-.05.26-.07,0Zm-3.85,14.68-.92,3c-.28-.12-1.86,3.07-1.72.56-.69-2.43,1.7-6.47,2.5-9.76l1.92,3.5C269.63,833.07,268.84,835.27,268.57,834.14ZM278.13,855c-.75,2.28-1.56,1.14-2.15-1.22a56.92,56.92,0,0,1-1.19-8.53c.14-1.75.17-3.48.22-5.26l.44.81a1.24,1.24,0,0,1,.51-.22q0,.61,0,1.17l.07.13-.07-.06c.16,5,1.43,6.77,1.82,9.9l.51-.1C278.4,855.23,277.41,852.84,278.13,855Zm-.42-13.56c-.13.22-.26-.23-.32-1l.47,0Z"/><path class="cls-38" d="M276.68,881.86c.31,2.85.46-1.74,1-1.68L276.6,880Z"/><path class="cls-38" d="M261.92,771.51c1.36-.5,2.76-.6,3.67,1.34a8.29,8.29,0,0,0-.33-6c-.69-1.67-1.68-3-2-4.4a14.1,14.1,0,0,0-4.17,4.37,7.66,7.66,0,0,0-1.22,5.46C259.16,772.83,260.54,772,261.92,771.51Z"/><path class="cls-38" d="M245.82,824.6l-.29.33.42-.48h0Z"/><path class="cls-38" d="M246,824.41h0l0,0Z"/><path class="cls-39" d="M353.81,783.89l.34,1.23c.57-.27,1.23.13,2,1.18a3.64,3.64,0,0,0-1-2.51,4,4,0,0,0-1.74-1.14Z"/><path class="cls-39" d="M411.56,795.61c2.52-1.58,2.58-4.26,1.82-7.69s-2.45-7.52-3.14-11.51a11.9,11.9,0,0,1-2-.9l-.44-.26-.21-.14,0,0c-1.38-3-.39-.84-.7-1.52h-.12a4.64,4.64,0,0,1-.53,0,2.57,2.57,0,0,1-.81-.21,1.62,1.62,0,0,1-.29-.18l-.12-.1c-.06-.08-.22-.35-.32-.52-.47-.78-.93-1.59-1.39-2.41l-1.36-2.44c-.67-1.22-1.33-2.5-2-3.73-2.82-4.86-6.84-8.67-12.18-5.13a9.61,9.61,0,0,0-5.14-3.23,6.94,6.94,0,0,0-4.41.71c-2.7,1.37-5,4-7.6,6.16-1-1.88-1-3.21-.36-4.26a7,7,0,0,1,3.57-2.34,41.23,41.23,0,0,0,4.53-1.73,2.93,2.93,0,0,0,1.69-3.52c-5.09-3.12-11.28-4.11-17.46-3.7-1.56.11-3.1.26-4.67.52l-3,.5-.81.28-.2.06-.14,0-.33.07-1.32.29-2.56.61-3.83,1c-.58,2.36.6,4.25,1.25,5.9s.86,3-1,4.28a6.15,6.15,0,0,0-1.41-4.35c-.95-1.22-2.26-2-3.07-1.65,2-.15.72,1.86,1.14,3.21l.76.12.77.14c1.18,2.27,1.39,3.5,1.09,4.12s-1.13.7-2.16.7c-2,0-4.84-.16-4.58,2.71-2.86-2.25,1.19-.7-.33-3.7-2.34-3.93-6.39-8-11.16-6.72a11,11,0,0,1-3.64,5.12,20.92,20.92,0,0,1-5.06,2.55,29.56,29.56,0,0,0-5.47,2.61h0l-.37.45h0l0,0-.1,0-.19.08-.37.19-.34.22-.16.12-.29.32a13.11,13.11,0,0,0-1.12,1.46,8.19,8.19,0,0,0-.47.78q-.17.34-.31.71c3.29,1.94.64,2.76.43,4.09-1.88-3.18-6.9-2.73-8.28-1.76.84,2.68,7,6.68,5.22,8.45l3.47,1,3.46,1.07c.58-.17.64-1.33.53-2.77s-.32-3.18-.42-4.37c3.67,1.75,4-.36,5.26-2.84a3.33,3.33,0,0,1,.4-.9.84.84,0,0,1,.31-.26l0,0h0l.28-.34h0l0,0,.15-.07a1.56,1.56,0,0,1,.32-.1c.91-.18,2.14.42,4.06,2.38l-1.87,0c-1.81.66-1.53.19-2,1.65a5,5,0,0,0,.07,1.85,8.72,8.72,0,0,0,.79,2c1.35,2.75,3.71,5.86,4.51,8.17-4,.43-9.08-1.53-13.7-2-2.86.86-.49,2.75.77,4.54.76,2.27-2.67,1.43-4.92,1.37.09.67,1.75.57,1.83,1.23-1.08.29-2.72.38-2.62,1,6,3.14,7.22.51,10-.21.65.87,1.85,1.57,1.36,2,.09.65-1.11-.06-1.7-.25l.2,1.29c1.79.88,5.29,2.36,5,3.72l-4-1c-2.37,1.83,5.71,7,7.88,4.29l-3.65-2.05,7-.27c4,1.39,2.12,2.73,5.71,4.49A10.06,10.06,0,0,0,342,806.5a20.28,20.28,0,0,0-1,5.41c-.88-1.09-1.16-2.32-2.09-3.39-.37,1.39-1.34,1.62-2.24,2.11s-1.73,1.23-1.72,3.53c-2.26-1.93-3.41-5.53-5.61-8.8-1.25,2.43-3.81,1.69-6.38,1.41a6.6,6.6,0,0,0-3.55.27c-1,.46-1.75,1.42-1.92,3.29-3.18-4.4-3.88-2.29-4.37-.1s-.89,4.41-4.44.67a4.57,4.57,0,0,0-5.51,3.35c-.7,2.33-.15,5.48,1.56,8.56-1.18-1.48-3-6.43-6-7.29.09.74-.11,1.69.28,2.19-.27.18-4.92,0-3.7,3.1a6.28,6.28,0,0,0,1.67,2.65c4.34,1.72,8.19,8.55,12.36,15.71,2.06,3.58,4.22,7.29,6.34,10.63s4.23,6.35,6,8.67l1.12,2.12c2,.54,3.42.66,4.11-.27-2.46-2-.67-2.86-3.5-4.52-.15.13.15.73,0,.87l-1.81-.87-1.85-.84c-.44-1.32.51-1.89,1.16-2.68s.93-1.92-.74-4.63c2.43.4,5.9,4.14,8.77,6.69,1-.38,2.73.11,4,.14s2-.46,1.48-3.1c1.21-2.15,4.19,2.74,6.52,6.49-.22-1.32.36-1.41.77-1.69s.67-.75,0-2.85c2.84,2.88,5.81,9.91,8,15.1,1.65,2.78.4-.82.06-4,.94.38,1.64,3.46,2.38,6.37s1.48,5.62,1.94,5.51c.14.25.21.19.24-.08.13.64.24,1.25.32,1.74l.24-.06a42.65,42.65,0,0,0-.58-4.37,34.33,34.33,0,0,0-.48-5c.88,1.75,1.47,1.47,2.28,1.25s1.65-.37,2.67,1.69c.53-6.18,2.63-5.25,5.37-4.35a7.1,7.1,0,0,0,4.31.44c1.41-.44,2.78-1.78,3.54-4.8l.16,0h.14l.57-.17h0l.17,0,.33-.07.32-.11.15-.07.08,0,.2-.08q.81-.33,1.57-.73l.75-.42c.24-.14.4-.27.6-.41a19.8,19.8,0,0,0,4.08-4.15c2.45-3.25,4.37-7.2,6.51-11.12a63,63,0,0,0-9.35-13.6c-3.54-4.08-7.22-7.82-10.47-11.39a69.75,69.75,0,0,1-10.06-12.22,12.51,12.51,0,0,1-1.45-2.84,1.31,1.31,0,0,0-.46-.63l-.59-.58-.59-.56-.07-.07,0,0,.33-.1h0l0,0-.09-.15-.19-.3a45.46,45.46,0,0,0-2.76-4.17,28.6,28.6,0,0,1-.59,6.82l-1.63-2.58c-.67-1-1.36-2.08-1.6-2.44,1.06.28,2.06.53,1.92-.19-1.27-1.59-1.59-2.64-1.54-3.09,0-.25.16-.36.43-.48a3.25,3.25,0,0,1,1.06-.27,13.58,13.58,0,0,0,2.06.29c.61,0,1-.16,1-.87-.92-.54-1.88-2.06-2.79-3.11,2.14-.05,5.2,4,7.94,7.06s4.9,5.51,4,3.5a26.32,26.32,0,0,0-1.93-3.26,3.28,3.28,0,0,1,.92,1.4c1.25,1.07.93.73.26-.44a22,22,0,0,1-2.49-4.85s.22,1,.51,1.89c.21.7.46,1.36.57,1.66-.25-.36-.51-.72-.78-1.09-.52-.51-1.35-1.42-2-2s-1.16-.77-.92,0c-1.22-1.58-2.08-.75-4.24-4.33,1.13-.07.68-1.64.4-3.27s-.44-3.23.74-2.91l-.51-1.52-.47-1.53c.34-.16.54-1.2,1-2s1.12-1.33,2-.32c1.83.56,2.1,2.3,2.27,4.14a22.92,22.92,0,0,0,.83,5.53,11,11,0,0,1,.93.74l.56.55c.17.14.14.29.16.28a4.65,4.65,0,0,1-.13-1.76.8.8,0,0,1,1-.08,2.09,2.09,0,0,1,.27.19l-.36,0h0v0l0,.07.06.15a7.43,7.43,0,0,1,.21.72,16.26,16.26,0,0,1,.3,1.78c.06.46.09.9.11,1.3l-.57.15-.08,0h0l.31-.07.32-.07c0,.68,0,1.21.05,1.41s.06-.11.39-1.51h0l-.22,1.13c-.09.38-.16.8-.23,1.23s-.11.74-.13.87h0v0c0,.08,0,0,0,0l0-.11.11-.33a7.55,7.55,0,0,1,.62-1.23,4.62,4.62,0,0,1,.35-.53,8.84,8.84,0,0,1,.76-.94l.15-.15,0,0,0,0,0,0,.24-.24a9.92,9.92,0,0,1,2.51,0c-1.48.69-2,1.16-2.16,1.71a3.16,3.16,0,0,0,.5,1.76c.56,1.25,1,2.82-2.21,4.13l0-.05v0l-.7-2c-.54-1.15-.2-.1.35,1.23l.33.81-.38.15.46,0,.29.71-.1-.27-.16-.44a57.36,57.36,0,0,1,6.78,1.31,19,19,0,0,0,8,0,20.85,20.85,0,0,1-7.48,4,18.91,18.91,0,0,1-6.18.88,21.58,21.58,0,0,1,2.68,1.19c2.92,1.39,6.18,3.84,9.82,6.26s7.19,5.53,10.6,8.45,6.63,5.65,9.76,7.26,6.24,2,8.94.06a7.37,7.37,0,0,0-.83-.2l-.43-.06-.22,0h-.16l-.51.89h0l-.08,0-.49-.38-.06,0,0,0h0l.49-.88h0l-.12-.08-.24-.15-.88-.58a15.74,15.74,0,0,1-1.43-1.09,11.27,11.27,0,0,1-1.14-1.14l-.26-.31-.13-.16c0-.1,0-.21,0-.32l-.15-1.43a5.63,5.63,0,0,0,.89-1c.13-.19.29-.46.39-.62l.29-.52c.37-.7.72-1.51,1-2.14.66-1.3,1.41-2.16,3-1.24v.6a8.91,8.91,0,0,0,5-.48,6.22,6.22,0,0,0,2.18-1.4,2.56,2.56,0,0,0,.76-2c-1-.52-2.57-.4-4.24-.6a8.12,8.12,0,0,1-5-2.14c-.56-3,1-5.66,4.19-7.33,0,0-1.49-.55-3-1l-3-.94c1-1.89,4-2.31,5.86-3.54l1.27.47c.64.23,1.27.5,1.27.5a36.28,36.28,0,0,1,4.43-.56c1.51-.18,2.74-.72,2.71-1.74C413.66,798.22,413.49,798.08,411.56,795.61Zm-72.34,9.61-2.87-2.39-2.84-2.42c-.11-.62,1.51-.59,3.26.36,1.91.49,5.7,2.9,6.61,2.88a11.12,11.12,0,0,0-.68,1.17A3.69,3.69,0,0,0,339.22,805.22Zm4.7-2.31c.23-1.55-6.7-3.36-6-5.34-6.77-3.21-10.27-.16-14.13-.58l-.39,1.07c-3.47-1.15-.32-2.23-3-1.6-1.44-2.31.39-3.49,3.26-3.94a33.9,33.9,0,0,1,9.5.32,67.27,67.27,0,0,0,6.37,2.87,20.93,20.93,0,0,1,6.5,4.48,4,4,0,0,1,1.69.23A6.75,6.75,0,0,0,343.92,802.91Zm18-8.53c.07-.29.14-.6.23-1l-.19,1Zm2.33-.72c.07-.05.13-.09.12-.1a2,2,0,0,1,0-.42c0-.11,0-.55.23-.09l.29.42.15.22.08.11,0,.06h0Z"/><path class="cls-39" d="M297.35,786.14l1-1.76-1.75-.55C293.68,783.29,297.82,785.29,297.35,786.14Z"/><path class="cls-40" d="M236.35,928.7c2,3.94,5.56,4.07,10.07,2.92s9.91-3.72,15.17-4.74a20.34,20.34,0,0,1,1.21-3.11l.35-.68.18-.33,0,0c4-2.12,1.11-.59,2-1.06h0v-.17c0-.3,0-.58,0-.83a4.59,4.59,0,0,1,.29-1.26,2.64,2.64,0,0,1,.23-.45l.14-.19c.1-.09.47-.34.69-.5,1-.72,2.1-1.42,3.19-2.13l3.23-2.09c1.61-1,3.3-2,4.92-3.14,6.42-4.33,11.49-10.54,6.91-18.87a15.59,15.59,0,0,0,4.32-7.95,12.55,12.55,0,0,0-.87-6.86c-1.76-4.21-5.21-7.87-8-11.9,2.49-1.5,4.24-1.57,5.6-.51s2.29,3.17,3,5.58a71.75,71.75,0,0,0,2.21,7.06c.92,2,2.23,3.3,4.6,2.67,4.17-7.88,5.56-17.49,5.12-27.11-.12-2.42-.3-4.82-.62-7.27l-.61-4.68-.36-1.26-.08-.31a1.9,1.9,0,0,1,0-.22l-.09-.51-.37-2.05-.77-4-1.26-6c-3.09-.93-5.59.87-7.77,1.87s-4,1.31-5.61-1.53a7.28,7.28,0,0,0,5.73-2.13c1.62-1.46,2.63-3.49,2.21-4.75.16,3.14-2.45,1.1-4.23,1.74l-.17,1.17-.2,1.19c-3,1.81-4.61,2.12-5.43,1.64s-.91-1.76-.88-3.37c.06-3.11.27-7.53-3.49-7.15,3-4.42.91,1.87,4.86-.46,5.19-3.59,10.59-9.85,9-17.28a14.82,14.82,0,0,1-6.68-5.73,35.17,35.17,0,0,1-3.28-7.9,50.12,50.12,0,0,0-3.35-8.53l0,0-.59-.59h0v0l0-.08,0-.15-.11-.3q-.11-.3-.24-.57a5.89,5.89,0,0,0-.28-.53L276,773l-.42-.46a17.89,17.89,0,0,0-1.9-1.75,10.56,10.56,0,0,0-1-.73q-.44-.26-.92-.49c-2.6,5.1-3.64,1-5.38.62,4.21-2.89,3.69-10.7,2.43-12.85-3.54,1.27-8.87,10.87-11.18,8l-1.41,5.38-1.46,5.37c.21.9,1.74,1,3.63.86s4.18-.46,5.75-.6c-2.35,5.68.41,6.23,3.65,8.22a4.07,4.07,0,0,1,1.18.63,1.28,1.28,0,0,1,.33.48l0,.07v0h0l.45.44h0l0,.06.1.23a2.76,2.76,0,0,1,.13.5c.22,1.41-.58,3.32-3.19,6.28l.06-2.9c-.84-2.83-.23-2.39-2.13-3.13a5.6,5.6,0,0,0-2.44.09,10.49,10.49,0,0,0-2.62,1.2c-3.63,2.07-7.75,5.7-10.8,6.91-.51-6.16,2.14-14.1,2.89-21.29-1.09-4.45-3.61-.79-6,1.15-3,1.16-1.84-4.17-1.73-7.67-.88.14-.77,2.71-1.64,2.83-.37-1.69-.45-4.24-1.31-4.08-4.22,9.3-.78,11.23.13,15.48-1.15,1-2.09,2.85-2.69,2.09-.86.13.09-1.72.35-2.64l-1.7.29c-1.18,2.77-3.18,8.2-5,7.72l1.38-6.21c-2.37-3.71-9.22,8.8-5.75,12.2l2.75-5.65.25,10.89c-1.89,6.24-3.61,3.26-6,8.82a18.12,18.12,0,0,0-1.93,11,23,23,0,0,0-7.1-1.6c1.45-1.36,3.06-1.78,4.48-3.22-1.83-.6-2.1-2.1-2.74-3.51s-1.59-2.71-4.61-2.72c2.57-3.48,7.31-5.24,11.64-8.62-3.18-2-2.16-5.94-1.76-9.94a12.06,12.06,0,0,0-.3-5.53c-.59-1.57-1.84-2.74-4.29-3,5.83-4.9,3.07-6,.2-6.8s-5.78-1.44-.82-6.91c.66-4.49-1.27-7.52-4.32-8.61s-7.2-.3-11.26,2.33c2-1.82,8.49-4.63,9.67-9.31-1,.14-2.22-.19-2.88.41-.23-.42.12-7.65-4-5.8a8.24,8.24,0,0,0-3.5,2.57c-2.32,6.72-11.34,12.64-20.82,19-4.73,3.16-9.64,6.47-14.06,9.73a145.6,145.6,0,0,0-11.48,9.29l-2.8,1.71c-.74,3.07-.91,5.31.3,6.4,2.7-3.81,3.77-1,6-5.39-.17-.23-1,.23-1.15,0l1.17-2.8,1.13-2.86c1.75-.67,2.48.82,3.5,1.83s2.5,1.46,6.09-1.09c-.56,3.77-5.52,9.13-8.91,13.55.49,1.59-.18,4.24-.25,6.17s.57,3.16,4,2.35c2.81,1.91-3.67,6.48-8.62,10.06,1.74-.32,1.84.58,2.21,1.21s1,1.05,3.74,0c-3.82,4.38-13.1,8.92-20,12.31-3.67,2.53,1.07.63,5.29.14-.52,1.46-4.57,2.5-8.4,3.63s-7.4,2.24-7.27,3c-.33.21-.25.32.11.38-.85.19-1.65.36-2.29.47,0,0,.08.34.07.38a47.83,47.83,0,0,0,5.75-.85,38.33,38.33,0,0,0,6.51-.69c-2.32,1.35-2,2.26-1.68,3.53s.47,2.58-2.26,4.13c8.1.9,6.85,4.15,5.63,8.4-.61,2.13-1.22,4.44-.64,6.7s2.3,4.34,6.26,5.56l0,.25,0,.12v.09l.22.89h0l0,.27q0,.26.09.52t.14.49l.09.24,0,.13.1.32q.42,1.26.94,2.46l.54,1.17c.18.37.35.63.53.94a28.8,28.8,0,0,0,5.39,6.4c4.23,3.85,9.39,6.89,14.51,10.26,6.68-3.75,12.59-8.93,18-14.37s10.38-11.13,15.11-16.15a96.85,96.85,0,0,1,16.2-15.49,15.65,15.65,0,0,1,3.75-2.22c.32-.07.58-.39.84-.71l.76-.91.74-.91.09-.11,0,0c.25,1,.07.28.13.51h0l.05,0,.2-.15.4-.29a60,60,0,0,0,5.51-4.24,31.93,31.93,0,0,1-9-1l3.41-2.51c1.39-1,2.75-2.09,3.22-2.46-.39,1.64-.72,3.19.22,3,2.11-2,3.49-2.44,4.08-2.36.33.07.47.26.63.68a5.81,5.81,0,0,1,.34,1.65,24.79,24.79,0,0,0-.41,3.2c0,1,.19,1.56,1.13,1.49.73-1.42,2.73-2.89,4.13-4.31,0,3.33-5.29,8-9.39,12.25s-7.31,7.55-4.66,6.24a33.82,33.82,0,0,0,4.31-3,4.39,4.39,0,0,1-1.86,1.41c-1.42,1.93-1,1.43.57.41s3.92-3,6.4-3.82c0,0-1.29.32-2.49.77-.92.32-1.79.69-2.19.87.48-.38,1-.78,1.44-1.19.68-.8,1.88-2.07,2.64-3.11s1-1.8,0-1.43c2.09-1.88,1-3.22,5.75-6.54.08,1.76,2.14,1.08,4.28.66s4.25-.65,3.82,1.19l2-.77,2-.72c.2.53,1.57.85,2.62,1.56s1.73,1.76.39,3.16c-.76,2.83-3.06,3.24-5.48,3.48a25.81,25.81,0,0,0-7.27,1.22,17.1,17.1,0,0,1-1,1.44l-.73.87c-.18.27-.38.21-.37.25a5.19,5.19,0,0,1,2.32-.18,1.42,1.42,0,0,1,.09,1.59,3.33,3.33,0,0,1-.25.42c0-.25.05.57-.06-.56h0l0,0-.09,0-.2.08a8.62,8.62,0,0,1-.95.31,18.36,18.36,0,0,1-2.34.44c-.6.08-1.18.13-1.71.16l-.19-.89,0-.12v0l.09.48.09.5c-.89,0-1.6,0-1.86.07s.15.1,2,.62v.07l-1.48-.36c-.5-.14-1-.26-1.61-.37l-1.14-.21h-.09l.15,0,.43.18a6,6,0,0,1,1,.58,13.49,13.49,0,0,1,1.26.94,12.22,12.22,0,0,1,1.23,1.19l.19.23,0,0,0,0,0,.06.31.37a18.24,18.24,0,0,1,0,3.9c-.88-2.31-1.5-3.2-2.21-3.38s-1.45.32-2.32.76c-1.64.85-3.71,1.49-5.4-3.49l.07,0h0l2.64-1.06c1.52-.82.13-.31-1.62.53l-1.06.5c-.06-.19-.13-.38-.19-.59,0,.25,0,.47-.07.71l-.94.44.35-.16.58-.25a103.92,103.92,0,0,1-1.82,10.52,34.88,34.88,0,0,0-.15,12.45,37.06,37.06,0,0,1-6.19-21.29,36.94,36.94,0,0,1-1.6,4.15c-1.87,4.52-5.14,9.57-8.37,15.2s-7.37,11.11-11.26,16.38-7.52,10.25-9.67,15.09-2.65,9.68-.21,13.91c.11-.42.21-.84.28-1.28q.05-.33.09-.67l0-.35v-.24h0l-1.17-.8h0v0l-.05-.13.5-.76.06-.09,0,0h0l1.14.78h0v0l.1-.19.2-.37.77-1.36a24.52,24.52,0,0,1,1.45-2.21,16.47,16.47,0,0,1,1.51-1.76l.41-.4.21-.2c.13,0,.28,0,.43-.07l1.88-.22a7.89,7.89,0,0,0,1.36,1.39c.25.21.6.46.81.61l.68.46c.92.58,2,1.15,2.8,1.64,1.69,1,2.81,2.21,1.59,4.67h-.79a16.26,16.26,0,0,0,.56,7.84,10,10,0,0,0,1.81,3.4,3.09,3.09,0,0,0,2.65,1.21c.7-1.56.56-4,.84-6.59a13.89,13.89,0,0,1,2.88-7.69c3.95-.83,7.42,1.65,9.56,6.6,0,0,.75-2.32,1.38-4.66l1.27-4.68c2.47,1.53,3,6.22,4.57,9.15l-.63,2c-.31,1-.68,2-.68,2a66.31,66.31,0,0,1,.67,6.89c.22,2.35.91,4.27,2.25,4.23C232.89,931.93,233.08,931.68,236.35,928.7ZM224.78,816.08l3.18-4.44,3.23-4.39c.81-.17.75,2.36-.52,5.07-.68,3-3.89,8.83-3.88,10.24a14.24,14.24,0,0,0-1.53-1.06C226.22,819.21,225.25,817.24,224.78,816.08Zm3,7.34c2,.38,4.51-10.38,7.11-9.34,4.31-10.49.36-16,1-22l-1.4-.62c1.56-5.38,2.94-.47,2.14-4.63,3-2.21,4.58.65,5.12,5.13a62.3,62.3,0,0,1-.56,14.77c-1.57,3.06-2.5,6.47-3.86,9.87a33.34,33.34,0,0,1-6,10.06,7.25,7.25,0,0,1-.33,2.62A10.85,10.85,0,0,0,227.75,823.42Zm10.95,28,1.28.37-1.26-.31Zm.91,3.64c.07.11.11.2.13.18a2.26,2.26,0,0,1,.56,0c.14,0,.72,0,.12.35l-.55.44-.29.23-.15.12-.08.06,0,0h0Z"/><path class="cls-40" d="M250.45,751.2l2.3,1.55.75-2.72C254.26,745.54,251.57,751.94,250.45,751.2Z"/><path class="cls-41" d="M624.72,727.24l-.39-.44a1.57,1.57,0,0,0,.52-.44,8.09,8.09,0,0,1,.15-1l-4.94-4.3a1.37,1.37,0,0,0-.1.13,1.81,1.81,0,0,0,.09,1.39,15.36,15.36,0,0,0,1.54,2.85c.81,1.25,1.8,1.76,2.59,1.47.11.55.11,1.13-.83.13,1.57,7.66,1.21.51,4.49,3.61l-1.82-2Z"/><path class="cls-41" d="M680.84,818.25c-.24-1.59-.49-3.18-.8-4.75-.73-3.79-1.55-7.57-2.57-11.3s-2.12-7.41-3.43-11c-.65-1.81-1.3-3.62-2-5.41l-.35-.87-.39-.84a161.7,161.7,0,0,0-12-21.85c-1.83-2.75-3.72-5.46-5.69-8.1-.56-.68-2-2.47-2.22-2.75-1.24-1.46-2.48-2.93-3.77-4.35-3.35-3.69-6.87-7.22-10.48-10.66a1.17,1.17,0,0,1-.94.17c-1-.15-2.45-1-3.17-.56,0,0,.28,1.25.56,2.51l.56,2.54c2.58,1.24,2.41,4.2,2.4,7.17a15.09,15.09,0,0,0,.32,4.08,2.54,2.54,0,0,0,2.31,2l-1,.47c-1.11-.6-1.77.42-2,1.86a8.26,8.26,0,0,0,.3,4.21l1.33.6c2.07-.83,3.29,1,4.41,3.37s2.1,5.5,3.48,6.94c-.09,0-.12.51-.27.81s-.36.53-.52.42c0,0,0,1.09-.09,2.1s-.17,1.95-.17,1.95c1.74-1.49,2-1,1.93-.16s-.52,2,.08,2.46c2-.19,3.7-.84,5.66.12a5.39,5.39,0,0,0,.25,3.09,10.24,10.24,0,0,0,1.42,2.15c1.06,1.3,2.18,2.85.85,4.24a24.32,24.32,0,0,1,5.2,1.69c1.54.57,3.08,1,4.8.24a10.58,10.58,0,0,1-1.49,5.53c-.83,1.55-1.77,2.84-2,4.58.8.69,1.53,1.4,2.35,2.16,1.22.83,2.61,1.85,4.1,3l2.31,1.87,1.21,1c.4.34.86.73,1.1,1,2.37,2.31,4.85,4.82,7.06,7.12l1.34,1.34C680.64,817.27,680.6,816.73,680.84,818.25Z"/><path class="cls-41" d="M639.25,795.85c-1.33-2.07-2.31-3.43-3.07-4.57s-1.35-2-2-3.11c.64,1.06,1.55,2.69,2.46,4.45s1.81,3.61,2.6,4.95c.27.16-.14-.92-.44-1.68S638.32,794.66,639.25,795.85Z"/><path class="cls-41" d="M627.89,741.39l1.28-2.23c-.44-4.13-2.15.36-3.27-1.92l1,2.09Z"/><path class="cls-42" d="M685.88,837.71a52.39,52.39,0,0,0-8.24-9.89c-1.43-1.34-2.89-2.55-4.35-3.67q-1.1-.85-2.22-1.64l-1.12-.79-1.41-1.08c-4.78-3.16-9.07-6.24-12.64-8.88s-6.4-4.81-8.5-6.38a41.64,41.64,0,0,1,2.82,6.21s-1-1-1.92-2-1.84-2-1.84-2c-.76.76-.55,3.16,1.92,11.65-.68-1-1.17-2.25-1.83-3.29a2.5,2.5,0,0,1-.18,2.11c-.2.48-.31,1.19.19,3.58-1.31-2.1-2.48-5.94-3.92-9.54a2.73,2.73,0,0,1,0,1.12.45.45,0,0,1-.07.12.85.85,0,0,1-.16.13.91.91,0,0,1-.38.13,4.54,4.54,0,0,1-1.86-.51c-1.3-.49-2.48-.66-2.4,3.18-3.82-10.1-.6,8.2-4.37-1.14-2.88-2.31-3.5,3.5-2.24,10.63-.46-1.86-1.17-7.26-2.64-9.15a10.89,10.89,0,0,0,.06,2.18c-.15.11-2.36-2-2,1.42a14.41,14.41,0,0,0,.59,3.13c2,3.42,3.3,11.34,3.86,19.93s.38,17.81.29,24c-.14.93-.31,1.69-.46,2.57,1.1,1.43,2.22,2.19,3.36,1.51-.73-3,1.1-3.18-.19-6-.18.08-.26.79-.44.88q-.86-1.63-1.73-3.24c.66-3,3.67-.37,3.35-7.1,1.51,1.28,2.65,6.23,3.87,9.77,2-.32,5,3.8,5.81-2.31,1.7-2.36,2.95,3.39,4.06,7.81.53-3.13,2.56-.65,2.25-5.56A27.14,27.14,0,0,1,654,873c.88,3.07,1.42,6.59,2.48,9.32,2.6,2.3,2.18-1.86,3.09-6.1,2.17-.5,2.61,3,3,6.32s.73,6.5,3.5,5a1.69,1.69,0,0,0,1.42-.82,11.76,11.76,0,0,1,0,2.12l1.4-.78a11.28,11.28,0,0,0,.15-5.44,15.1,15.1,0,0,0-.13-5.88c1.59,1.31,2.83.32,4-.53s2.19-1.67,3.74,0a20.45,20.45,0,0,1,.16-4.29,6.28,6.28,0,0,1,.36-1.32,5,5,0,0,1,.48-1c.73-1.1,1.86-1.31,3-1.55a3.9,3.9,0,0,0,3.07-1.89,6.25,6.25,0,0,0,.77-2.57,12.92,12.92,0,0,0,.05-1.89q0-.53-.08-1.12t-.2-1.27c1.57-2.27,2.26-5.73,2.23-9.58S686.09,841.81,685.88,837.71Z"/></g></g></g></svg>