<svg xmlns="http://www.w3.org/2000/svg" viewBox="0 0 187.09 19.21"><defs><style>.cls-1{fill:#231f20;fill-rule:evenodd;}</style></defs><title>Asset 1</title><g id="Layer_2" data-name="Layer 2"><g id="Layer_1-2" data-name="Layer 1"><path class="cls-1" d="M41.65,19.18,47.9,0h9.45l6.37,19.18h-7.2l-1.2-3.46H49.67l-1.2,3.46Zm11-14.93-2.73,7.6h5.25l-2.51-7.6Z"/><path class="cls-1" d="M121.71,19.19,128,0h9.45l6.37,19.18h-7.2l-1.2-3.46h-5.65l-1.2,3.46Zm11-14.93L130,11.86h5.25l-2.51-7.6Z"/><path class="cls-1" d="M65.37,19.18V0H79a6.59,6.59,0,0,1,3.77,1.22A5,5,0,0,1,84.9,3.93,6.59,6.59,0,0,1,85,7.86a4.93,4.93,0,0,1-1.66,2.31,6.56,6.56,0,0,1-2.92,1.46,6.25,6.25,0,0,0,1.24,1.08c.91.65,1.76.74,4.89.75h5.38v5.71H86.46c-5.9,0-8,0-9.1-1a50.18,50.18,0,0,1-5.11-5.31v6.34Zm6.88-14.4V8.32H77A1.57,1.57,0,0,0,77.87,8c.3-.19.46-.67.48-1.44a1.93,1.93,0,0,0-.54-1.46A1.42,1.42,0,0,0,77,4.78Z"/><path class="cls-1" d="M187.09,0H173a4,4,0,0,0-4.32,3.56q-.68,3.56,3.9,7.81,2.78,2.21-.95,2.1h-5c-3.13,0-4-.1-4.89-.75a6.24,6.24,0,0,1-1.24-1.08,6.56,6.56,0,0,0,2.92-1.46,4.93,4.93,0,0,0,1.66-2.31,6.59,6.59,0,0,0-.05-3.93,5,5,0,0,0-2.16-2.71A6.59,6.59,0,0,0,159.16,0H145.55V19.18h6.88V12.85a50.15,50.15,0,0,0,5.11,5.31c1.13,1,3.21,1.09,9.1,1h11.15q4.11-.69,4.19-4.25c0-2.37-1.32-4.85-4.19-7.33-1.57-1.36-1.26-1.89,1-1.89h8.29V0ZM152.43,4.78V8.32h4.8a1.57,1.57,0,0,0,.83-.29c.3-.19.46-.67.48-1.44A1.93,1.93,0,0,0,158,5.13a1.42,1.42,0,0,0-.78-.35Z"/><path class="cls-1" d="M15.11,0a4,4,0,0,0-4.32,3.56c-.45,2.37.77,5.06,3.9,7.81,1.78,1.56,1.53,2.1-.95,2.1H0v5.71H19.86c2.78,0,4.14-1.88,4.19-4.25s-1.35-4.82-4.19-7.33q-2.39-2,1-1.89h8.52V19.18h6.19V5.71h8.64V0Z"/><path class="cls-1" d="M105.9,0l-1.7,5.7L102.3,0h-7.1l6.26,19.18h6.13l2.1-6.41,2.1,6.41h6.13L124.18,0h-7.1l-1.89,5.7L113.49,0Z"/></g></g></svg>