<svg xmlns="http://www.w3.org/2000/svg" viewBox="0 0 376.96 636.45"><defs><style>.cls-1,.cls-19,.cls-21,.cls-27,.cls-33,.cls-34{fill:#e2b73b;}.cls-13,.cls-2,.cls-30,.cls-31,.cls-32{fill:#c9a131;}.cls-22,.cls-3,.cls-9{fill:#fff59d;}.cls-11,.cls-13,.cls-3{opacity:0.4;}.cls-14,.cls-17,.cls-4{fill:#fff;}.cls-21,.cls-32,.cls-4{opacity:0.8;}.cls-10,.cls-11,.cls-20,.cls-23,.cls-5{fill:#fff9c4;}.cls-27,.cls-5{opacity:0.7;}.cls-6{fill:#724e0e;}.cls-7{fill:#b79339;}.cls-8{opacity:0.2;}.cls-10,.cls-31,.cls-33{opacity:0.5;}.cls-12{fill:#ffca28;}.cls-15,.cls-26,.cls-29{fill:none;stroke-miterlimit:10;}.cls-15{stroke:#ffe082;}.cls-15,.cls-26{stroke-width:3px;}.cls-16,.cls-23,.cls-30{opacity:0.6;}.cls-17,.cls-24{opacity:0.25;}.cls-18{fill:#ffe576;}.cls-19,.cls-22,.cls-28{opacity:0.3;}.cls-24{fill:#b59c33;}.cls-25{fill:#b28834;}.cls-26{stroke:#ffee58;}.cls-29{stroke:#fff;stroke-width:2px;}.cls-34{opacity:0.45;}.cls-35{fill:#9e7b2d;}</style></defs><title>starwars-c-3p0</title><g id="Layer_2" data-name="Layer 2"><g id="Layer_1-2" data-name="Layer 1"><g id="C-3PO"><g id="clothes1"><path class="cls-1" d="M273.13,552c-12.54-12.26-42.57-26.91-42.57-26.91,0,11.6-21.16,17.4-42.16,17.4s-42-5.8-42-17.4c0,0-30,14.65-42.57,26.91-13.8,13.49-32.67,26.19-39,44.88,0,15,0,25.72,0,39.55h26.9V630.6h4.84V629h2v1.65h5.2v5.85H273.13V630.6h6.27V629h2v1.65h4.76v5.85h26.9c0-13.83,0-24.6,0-39.55C306.79,578.21,286.92,565.51,273.13,552Z"/><path class="cls-2" d="M188.48,584.85c-3.1-13.75-82.34-12.49-83.65-9.46v15.92c2.65-3.71,6.62-8.31,15.32-8.1s53.33,22.89,68.33,53.24c17.27-29,59.63-53,68.33-53.24s12.67,4.39,15.32,8.1V575.39C270.82,572.36,191.58,571.1,188.48,584.85Z"/><path class="cls-3" d="M107.48,577.25s29.86,5.5,39.45,7.6,36.55,4.48,38.22,2.91-20.86-8.92-39.17-12.85C117.72,568.85,97.28,573.7,107.48,577.25Z"/><path class="cls-4" d="M109,577.41s14.37-2.67,24-.94,16.45,2.5,25.25,3.68c2.27.3-7.46-4-26-6.45S98.62,574.25,109,577.41Z"/><path class="cls-3" d="M111.48,636.45s-5.89-41.67-.89-49.45,52.91,14.3,67.9,49.45Z"/><path class="cls-3" d="M105.58,551.75v16.41s6.1,3.09,14.83-.65,19.95-30.34,16.73-34S105.58,551.75,105.58,551.75Z"/><path class="cls-3" d="M269.48,577.25s-29.86,5.5-39.45,7.6-36.55,4.48-38.22,2.91,20.86-8.92,39.17-12.85C259.24,568.85,279.68,573.7,269.48,577.25Z"/><path class="cls-4" d="M268,577.41s-14.37-2.67-24-.94-16.45,2.5-25.25,3.68c-2.27.3,7.46-4,26-6.45S278.34,574.25,268,577.41Z"/><path class="cls-3" d="M265.48,636.45s5.89-41.67.89-49.45-52.91,14.3-67.9,49.45Z"/><path class="cls-3" d="M271.38,551.75v16.41s-6.1,3.09-14.83-.65-19.95-30.34-16.73-34S271.38,551.75,271.38,551.75Z"/><path class="cls-5" d="M105.58,551.75v8.82s6.1,2.42,14.83-.51,19.95-23.76,16.73-26.6S105.58,551.75,105.58,551.75Z"/><path class="cls-5" d="M271.38,551.75v8.82s-6.1,2.42-14.83-.51-19.95-23.76-16.73-26.6S271.38,551.75,271.38,551.75Z"/><path class="cls-2" d="M64.94,602.89c0,12,0,.9,0,12.82l26.9,16.78V630.6A144.06,144.06,0,0,0,64.94,602.89Z"/><path class="cls-1" d="M91.84,552c-8.4,0-29.26,21.16-39.26,36.69A4.59,4.59,0,0,0,54,595.09,144.1,144.1,0,0,1,91.84,630.6V552Z"/><path class="cls-3" d="M90.65,552.16c-9,1.74-28.51,21.71-38.07,36.56A4.59,4.59,0,0,0,54,595.09c2.5,1.58,6.08,4,10.25,7.26h0c.75-.35,2.48-1.1,2.91-1.37s4-2.93,2.79-1.89c1.18-1,2.36-2,3.48-3.07,3.4-3.2,9.39-8.79,13.34-12.42a12,12,0,0,0,3.86-8.81Z"/><path class="cls-3" d="M52.3,593.05c1.36.92,3.6,1.49,5,2.41,1.28-.07,7.68-6.76,12.39-11.52,6.7-6.78,11-11.9,21-15.85V552.16c-9,1.74-28.51,21.71-38.07,36.56a4.58,4.58,0,0,0-.36,4.29Z"/><path class="cls-2" d="M313.09,602.89c0,12,0,.9,0,12.82l-26.9,16.78V630.6A144.06,144.06,0,0,1,313.09,602.89Z"/><path class="cls-1" d="M286.19,552c8.4,0,29.26,21.16,39.26,36.69a4.59,4.59,0,0,1-1.41,6.37,144.1,144.1,0,0,0-37.85,35.52V552Z"/><path class="cls-3" d="M287.39,552.16c9,1.74,28.51,21.71,38.07,36.56a4.59,4.59,0,0,1-1.41,6.37c-2.5,1.58-6.08,4-10.25,7.26h0c-.75-.35-2.48-1.1-2.91-1.37s-4-2.93-2.79-1.89c-1.18-1-2.36-2-3.48-3.07-3.4-3.2-9.39-8.79-13.34-12.42a12,12,0,0,1-3.86-8.81Z"/><path class="cls-3" d="M325.73,593.05c-1.36.92-3.6,1.49-5,2.41-1.28-.07-7.68-6.76-12.39-11.52-6.7-6.78-11-11.9-21-15.85V552.16c9,1.74,28.51,21.71,38.07,36.56a4.58,4.58,0,0,1,.36,4.29Z"/><rect class="cls-6" x="96.61" y="553.67" width="2.03" height="75.29"/><rect class="cls-7" x="98.64" y="552.02" width="6.19" height="78.58"/><rect class="cls-3" x="98.64" y="626.27" width="6.19" height="4.34"/><rect class="cls-7" x="91.84" y="552.02" width="4.76" height="78.58"/><rect class="cls-3" x="98.64" y="552.02" width="6.19" height="42.31"/><rect class="cls-3" x="91.84" y="552.02" width="4.76" height="42.31"/><rect class="cls-3" x="98.64" y="554.35" width="6.19" height="32.64"/><rect class="cls-3" x="91.84" y="554.35" width="4.76" height="32.64"/><rect class="cls-4" x="98.64" y="557.77" width="6.19" height="19.48"/><rect class="cls-4" x="91.84" y="557.77" width="4.76" height="19.48"/><rect class="cls-3" x="91.84" y="626.27" width="4.76" height="4.34"/><rect class="cls-6" x="279.4" y="553.67" width="2.03" height="75.29"/><rect class="cls-7" x="273.21" y="552.02" width="6.19" height="78.58"/><rect class="cls-3" x="273.21" y="626.27" width="6.19" height="4.34"/><rect class="cls-7" x="281.43" y="552.02" width="4.76" height="78.58"/><rect class="cls-3" x="273.21" y="552.02" width="6.19" height="42.31"/><rect class="cls-3" x="281.43" y="552.02" width="4.76" height="42.31"/><rect class="cls-3" x="273.21" y="554.35" width="6.19" height="32.64"/><rect class="cls-3" x="281.43" y="554.35" width="4.76" height="32.64"/><rect class="cls-4" x="273.21" y="557.77" width="6.19" height="19.48"/><rect class="cls-4" x="281.43" y="557.77" width="4.76" height="19.48"/><rect class="cls-3" x="281.43" y="626.27" width="4.76" height="4.34"/><path class="cls-2" d="M234.18,541.89c6.57,1.83,10.43,4.08,10.43,6.5,0,6.18-25.13,36.46-56.13,36.46s-56.13-30.28-56.13-36.46c0-2.63,4.53-5,12.13-6.95"/><path class="cls-1" d="M241.53,506.33l-53-1.67-53,1.67s7.79,18,6.19,32.5c14.84,9.47,46.86,10.47,46.86,10.47s32-1,46.86-10.47C233.74,524.36,241.53,506.33,241.53,506.33Z"/><path class="cls-2" d="M152,543.49c15.82,5.16,36.46,5.81,36.46,5.81s20.64-.65,36.46-5.81c-.24-17.29,5-36.74,5-36.74l-41.45-2.1L147,506.75S152.26,526.2,152,543.49Z"/><path class="cls-7" d="M188.48,504.65l-33.93,1.72a347.71,347.71,0,0,1,3.12,38.74,167.93,167.93,0,0,0,30.81,4.19,167.93,167.93,0,0,0,30.81-4.19,347.71,347.71,0,0,1,3.12-38.74Z"/><circle class="cls-8" cx="188.48" cy="568.52" r="9.99"/><circle class="cls-9" cx="188.48" cy="565.64" r="9.99"/><circle class="cls-10" cx="188.48" cy="565.64" r="9.99"/><path class="cls-1" d="M178.5,565.42c0,.07,0,.14,0,.22a10,10,0,0,0,20,0c0-.07,0-.14,0-.22Z"/><circle class="cls-1" cx="188.48" cy="565.64" r="8.58"/><circle class="cls-11" cx="188.48" cy="565.64" r="8.58"/><path class="cls-2" d="M188.48,557.46a8.57,8.57,0,0,1,8.57,8.38c0-.07,0-.13,0-.2a8.58,8.58,0,0,0-17.16,0c0,.07,0,.13,0,.2A8.57,8.57,0,0,1,188.48,557.46Z"/><circle class="cls-12" cx="188.48" cy="565.64" r="7.11"/><circle class="cls-1" cx="188.48" cy="565.64" r="7.11"/><path class="cls-13" d="M183.44,574.26a9.93,9.93,0,0,0,10.08,0v-8.62H183.44Z"/><circle class="cls-9" cx="188.48" cy="565.64" r="5.04"/><path class="cls-13" d="M193.1,565.64h-9.23v2a5,5,0,0,0,9.23,0Z"/><circle class="cls-10" cx="188.48" cy="565.64" r="4.62"/><ellipse class="cls-14" cx="188.48" cy="562.32" rx="1.94" ry="0.99"/><circle class="cls-7" cx="188.48" cy="565.64" r="1.94"/><path class="cls-7" d="M127.91,540.38c0,6.18,26.7,11.19,59.63,11.19s59.63-5,59.63-11.19v-9.07c0,6.18-26.7,11.19-59.63,11.19s-57.61-4-59.63-11.19a41.23,41.23,0,0,1,1.4,6C129.31,538.25,127.91,540.38,127.91,540.38Z"/><path class="cls-7" d="M140.8,524.37c-8.06,1.91-12.88,4.32-12.88,6.94s5.16,5.21,13.74,7.15A51.31,51.31,0,0,0,140.8,524.37Z"/><path class="cls-7" d="M247.16,531.31c0-2.42-4.12-4.66-11.09-6.5a51.43,51.43,0,0,0-.81,13.2C242.74,536.15,247.16,533.83,247.16,531.31Z"/><path class="cls-15" d="M236.13,524.58c7.52,1.87,12,4.2,12,6.73,0,6.18-26.7,11.19-59.63,11.19s-59.63-5-59.63-11.19c0-2.53,4.46-4.86,12-6.73"/><g class="cls-16"><path class="cls-6" d="M246.91,540.14l.28.25a4,4,0,0,1,.7.85,2.59,2.59,0,0,1,.31.77,1.52,1.52,0,0,1,0,.5l0,.5a4.18,4.18,0,0,1-1.37,2.08,18.89,18.89,0,0,1-5.7,3.17,63.56,63.56,0,0,1-8,2.44c-3,.73-6.25,1.36-9.72,1.9s-7.14,1-11,1.37-7.75.67-11.77.83-8.09.27-12.17.28-8.17-.11-12.17-.28-8-.48-11.77-.83-7.48-.83-11-1.37-6.74-1.17-9.72-1.9a63.43,63.43,0,0,1-8-2.44,18.88,18.88,0,0,1-5.7-3.17,4.21,4.21,0,0,1-1.37-2.06,2.44,2.44,0,0,1,.31-1.78,4,4,0,0,1,.7-.85l.28-.25-.25.28a3.91,3.91,0,0,0-.58.9,2.18,2.18,0,0,0-.11,1.61,4,4,0,0,0,1.41,1.7,19.44,19.44,0,0,0,5.69,2.54,76.66,76.66,0,0,0,8,1.84,200.91,200.91,0,0,0,20.54,2.32c3.78.27,7.69.42,11.66.57s8,.19,12.06.18,8.08,0,12.06-.18,7.89-.3,11.66-.57,7.42-.57,10.87-1,6.69-.83,9.67-1.37a76.47,76.47,0,0,0,8-1.84,19.42,19.42,0,0,0,5.69-2.55,4.05,4.05,0,0,0,1.4-1.68l.1-.49a1.26,1.26,0,0,0,0-.42,2.39,2.39,0,0,0-.21-.73,3.91,3.91,0,0,0-.59-.9Z"/></g><path class="cls-15" d="M246.91,538.14a3.13,3.13,0,0,1,1.2,2.24c0,6.18-26.7,11.19-59.63,11.19s-59.63-5-59.63-11.19a3.13,3.13,0,0,1,1.2-2.24"/><path class="cls-15" d="M246.91,533.66a3.13,3.13,0,0,1,1.2,2.24c0,6.18-26.7,11.19-59.63,11.19s-59.63-5-59.63-11.19a3.13,3.13,0,0,1,1.2-2.24"/><polygon class="cls-1" points="152.2 554.94 151.24 554.74 153.95 541.67 153.29 541.53 153.97 538.24 152.51 537.94 151.83 541.23 151.16 541.09 148.45 554.16 147.49 553.96 144.08 570.42 145.04 570.62 144.38 573.82 147.16 574.39 147.83 571.19 148.78 571.39 152.2 554.94"/><polygon class="cls-17" points="152.2 554.94 151.24 554.74 153.95 541.67 153.29 541.53 153.97 538.24 152.51 537.94 151.83 541.23 151.16 541.09 148.45 554.16 147.49 553.96 144.08 570.42 145.04 570.62 144.38 573.82 147.16 574.39 147.83 571.19 148.78 571.39 152.2 554.94"/><path class="cls-7" d="M152.08,555.53l-.65,3.16-4.7-1,.65-3.16Zm-6.34,6.9-.4,1.94,4.7,1,.4-1.94Zm-1.07,5.18-.58,2.81,1,.2-.17.84,2.79.58.17-.84,1,.2.58-2.81Zm.58-2.8-.4,1.94,4.7,1,.4-1.94Zm1-4.75-.4,1.94,4.7,1,.4-1.94Zm6.25-22-.56,2.72.73.15.73.15.56-2.72-.73-.15Zm-.8,14.54.65-3.16-2.79-.58-.65,3.16Zm1.47-7.09.27-1.32-2.79-.58-.27,1.32Zm-.35,1.7.27-1.32-2.79-.58-.27,1.32Zm-.08.39-2.79-.58-.27,1.32,2.79.58Z"/><rect class="cls-1" x="147.86" y="548.3" width="5.86" height="3.22" transform="translate(114.85 -19.16) rotate(11.72)"/><rect class="cls-1" x="149.49" y="546.48" width="3.75" height="1.35" transform="translate(114.3 -19.34) rotate(11.72)"/><rect class="cls-1" x="149.84" y="544.76" width="3.75" height="1.35" transform="translate(113.96 -19.45) rotate(11.72)"/><rect class="cls-1" x="150.19" y="543.07" width="3.75" height="1.35" transform="translate(113.62 -19.55) rotate(11.72)"/><rect class="cls-1" x="146.64" y="554.16" width="5.86" height="3.22" transform="translate(116.01 -18.8) rotate(11.72)"/><rect class="cls-1" x="145.62" y="559.67" width="5.86" height="1.99" transform="translate(116.99 -18.49) rotate(11.72)"/><rect class="cls-1" x="145.13" y="562.05" width="5.86" height="1.99" transform="translate(117.46 -18.34) rotate(11.72)"/><rect class="cls-1" x="144.64" y="564.42" width="5.86" height="1.99" transform="translate(117.93 -18.19) rotate(11.72)"/><rect class="cls-1" x="143.88" y="567.21" width="5.86" height="3.74" transform="translate(118.66 -17.96) rotate(11.72)"/><polygon class="cls-1" points="153.38 537.39 151.33 536.97 151.52 539.84 152.82 540.11 154.12 540.38 155.44 537.82 153.38 537.39"/><rect class="cls-1" x="151.9" y="536.93" width="3.02" height="0.68" transform="translate(112.34 -19.96) rotate(11.72)"/><rect class="cls-17" x="147.86" y="548.3" width="5.86" height="3.22" transform="translate(114.85 -19.16) rotate(11.72)"/><rect class="cls-17" x="149.49" y="546.48" width="3.75" height="1.35" transform="translate(114.3 -19.34) rotate(11.72)"/><rect class="cls-17" x="149.84" y="544.76" width="3.75" height="1.35" transform="translate(113.96 -19.45) rotate(11.72)"/><rect class="cls-17" x="150.19" y="543.07" width="3.75" height="1.35" transform="translate(113.62 -19.55) rotate(11.72)"/><rect class="cls-17" x="146.64" y="554.16" width="5.86" height="3.22" transform="translate(116.01 -18.8) rotate(11.72)"/><rect class="cls-17" x="145.62" y="559.67" width="5.86" height="1.99" transform="translate(116.99 -18.49) rotate(11.72)"/><rect class="cls-17" x="145.13" y="562.05" width="5.86" height="1.99" transform="translate(117.46 -18.34) rotate(11.72)"/><rect class="cls-17" x="144.64" y="564.42" width="5.86" height="1.99" transform="translate(117.93 -18.19) rotate(11.72)"/><rect class="cls-17" x="143.88" y="567.21" width="5.86" height="3.74" transform="translate(118.66 -17.96) rotate(11.72)"/><polygon class="cls-17" points="153.38 537.39 151.33 536.97 151.52 539.84 152.82 540.11 154.12 540.38 155.44 537.82 153.38 537.39"/><rect class="cls-17" x="151.9" y="536.93" width="3.02" height="0.68" transform="translate(112.34 -19.96) rotate(11.72)"/><rect class="cls-3" x="148.83" y="548.19" width="2.85" height="3.22" transform="translate(114.82 -19.06) rotate(11.72)"/><rect class="cls-3" x="149.92" y="546.37" width="1.82" height="1.35" transform="translate(114.27 -19.23) rotate(11.72)"/><rect class="cls-3" x="150.27" y="544.65" width="1.82" height="1.35" transform="translate(113.93 -19.34) rotate(11.72)"/><rect class="cls-3" x="150.63" y="542.96" width="1.82" height="1.35" transform="translate(113.59 -19.45) rotate(11.72)"/><rect class="cls-3" x="147.62" y="554.05" width="2.85" height="3.22" transform="translate(115.98 -18.69) rotate(11.72)"/><rect class="cls-3" x="146.6" y="559.56" width="2.85" height="1.99" transform="translate(116.95 -18.38) rotate(11.72)"/><rect class="cls-3" x="146.11" y="561.94" width="2.85" height="1.99" transform="translate(117.43 -18.23) rotate(11.72)"/><rect class="cls-3" x="145.62" y="564.31" width="2.85" height="1.99" transform="translate(117.9 -18.08) rotate(11.72)"/><rect class="cls-3" x="144.86" y="567.1" width="2.85" height="3.74" transform="translate(118.63 -17.85) rotate(11.72)"/><polygon class="cls-3" points="152.85 537.28 151.85 537.08 151.66 539.87 152.29 540 152.92 540.13 153.85 537.49 152.85 537.28"/><rect class="cls-3" x="152.15" y="536.82" width="1.46" height="0.68" transform="translate(112.3 -19.86) rotate(11.72)"/><rect class="cls-4" x="149.54" y="548.19" width="1.42" height="3.22" transform="translate(114.82 -19.06) rotate(11.72)"/><rect class="cls-4" x="150.37" y="546.37" width="0.91" height="1.35" transform="translate(114.27 -19.23) rotate(11.72)"/><rect class="cls-4" x="150.73" y="544.65" width="0.91" height="1.35" transform="translate(113.93 -19.34) rotate(11.72)"/><rect class="cls-4" x="151.08" y="542.96" width="0.91" height="1.35" transform="translate(113.59 -19.45) rotate(11.72)"/><rect class="cls-4" x="148.33" y="554.05" width="1.42" height="3.22" transform="translate(115.98 -18.69) rotate(11.72)"/><rect class="cls-4" x="147.31" y="559.56" width="1.42" height="1.99" transform="translate(116.95 -18.38) rotate(11.72)"/><rect class="cls-4" x="146.82" y="561.94" width="1.42" height="1.99" transform="translate(117.43 -18.23) rotate(11.72)"/><rect class="cls-4" x="146.33" y="564.31" width="1.42" height="1.99" transform="translate(117.9 -18.08) rotate(11.72)"/><rect class="cls-4" x="145.57" y="567.1" width="1.42" height="3.74" transform="translate(118.63 -17.85) rotate(11.72)"/><polygon class="cls-4" points="152.85 537.28 152.35 537.18 151.97 539.94 152.29 540 152.6 540.07 153.35 537.38 152.85 537.28"/><rect class="cls-4" x="152.51" y="536.82" width="0.73" height="0.68" transform="translate(112.3 -19.86) rotate(11.72)"/><polygon class="cls-1" points="224.76 554.94 225.72 554.74 223.01 541.67 223.67 541.53 222.99 538.24 224.45 537.94 225.13 541.23 225.8 541.09 228.51 554.16 229.47 553.96 232.88 570.42 231.92 570.62 232.59 573.82 229.8 574.39 229.13 571.19 228.18 571.39 224.76 554.94"/><polygon class="cls-17" points="224.76 554.94 225.72 554.74 223.01 541.67 223.67 541.53 222.99 538.24 224.45 537.94 225.13 541.23 225.8 541.09 228.51 554.16 229.47 553.96 232.88 570.42 231.92 570.62 232.59 573.82 229.8 574.39 229.13 571.19 228.18 571.39 224.76 554.94"/><path class="cls-7" d="M229.59,554.55l.65,3.16-4.7,1-.65-3.16Zm-3.07,8.85.4,1.94,4.7-1-.4-1.94Zm1.07,5.18.58,2.81,1-.2.17.84,2.79-.58-.17-.84,1-.2-.58-2.81Zm-.58-2.8.4,1.94,4.7-1-.4-1.94ZM226,561l.4,1.94,4.7-1-.4-1.94Zm-2.27-22.79-.73.15.56,2.72.73-.15.73-.15-.56-2.72ZM228.07,552l-.65-3.16-2.79.58.65,3.16ZM226.6,545l-.27-1.32-2.79.58.27,1.32Zm.35,1.7-.27-1.32-2.79.58.27,1.32Zm-2.43,2.29,2.79-.58L227,547l-2.79.58Z"/><rect class="cls-1" x="223.24" y="548.3" width="5.86" height="3.22" transform="translate(559.34 1042.42) rotate(168.28)"/><rect class="cls-1" x="223.73" y="546.48" width="3.75" height="1.35" transform="translate(557.64 1037.08) rotate(168.28)"/><rect class="cls-1" x="223.37" y="544.76" width="3.75" height="1.35" transform="translate(556.59 1033.75) rotate(168.28)"/><rect class="cls-1" x="223.02" y="543.07" width="3.75" height="1.35" transform="translate(555.55 1030.47) rotate(168.28)"/><rect class="cls-1" x="224.46" y="554.16" width="5.86" height="3.22" transform="translate(562.93 1053.77) rotate(168.28)"/><rect class="cls-1" x="225.47" y="559.67" width="5.86" height="1.99" transform="translate(565.93 1063.24) rotate(168.28)"/><rect class="cls-1" x="225.96" y="562.05" width="5.86" height="1.99" transform="translate(567.39 1067.85) rotate(168.28)"/><rect class="cls-1" x="226.46" y="564.42" width="5.86" height="1.99" transform="translate(568.85 1072.45) rotate(168.28)"/><rect class="cls-1" x="227.22" y="567.21" width="5.86" height="3.74" transform="translate(571.1 1079.54) rotate(168.28)"/><polygon class="cls-1" points="223.57 537.39 225.63 536.97 225.44 539.84 224.14 540.11 222.84 540.38 221.52 537.82 223.57 537.39"/><rect class="cls-1" x="222.04" y="536.93" width="3.02" height="0.68" transform="translate(551.58 1017.93) rotate(168.28)"/><rect class="cls-17" x="223.24" y="548.3" width="5.86" height="3.22" transform="translate(559.34 1042.42) rotate(168.28)"/><rect class="cls-17" x="223.73" y="546.48" width="3.75" height="1.35" transform="translate(557.64 1037.08) rotate(168.28)"/><rect class="cls-17" x="223.37" y="544.76" width="3.75" height="1.35" transform="translate(556.59 1033.75) rotate(168.28)"/><rect class="cls-17" x="223.02" y="543.07" width="3.75" height="1.35" transform="translate(555.55 1030.47) rotate(168.28)"/><rect class="cls-17" x="224.46" y="554.16" width="5.86" height="3.22" transform="translate(562.93 1053.77) rotate(168.28)"/><rect class="cls-17" x="225.47" y="559.67" width="5.86" height="1.99" transform="translate(565.93 1063.24) rotate(168.28)"/><rect class="cls-17" x="225.96" y="562.05" width="5.86" height="1.99" transform="translate(567.39 1067.85) rotate(168.28)"/><rect class="cls-17" x="226.46" y="564.42" width="5.86" height="1.99" transform="translate(568.85 1072.45) rotate(168.28)"/><rect class="cls-17" x="227.22" y="567.21" width="5.86" height="3.74" transform="translate(571.1 1079.54) rotate(168.28)"/><polygon class="cls-17" points="223.57 537.39 225.63 536.97 225.44 539.84 224.14 540.11 222.84 540.38 221.52 537.82 223.57 537.39"/><rect class="cls-17" x="222.04" y="536.93" width="3.02" height="0.68" transform="translate(551.58 1017.93) rotate(168.28)"/><rect class="cls-3" x="225.28" y="548.19" width="2.85" height="3.22" transform="translate(560.37 1042.1) rotate(168.28)"/><rect class="cls-3" x="225.22" y="546.37" width="1.82" height="1.35" transform="translate(558.67 1036.75) rotate(168.28)"/><rect class="cls-3" x="224.87" y="544.65" width="1.82" height="1.35" transform="translate(557.62 1033.43) rotate(168.28)"/><rect class="cls-3" x="224.52" y="542.96" width="1.82" height="1.35" transform="translate(556.58 1030.14) rotate(168.28)"/><rect class="cls-3" x="226.5" y="554.05" width="2.85" height="3.22" transform="translate(563.96 1053.45) rotate(168.28)"/><rect class="cls-3" x="227.51" y="559.56" width="2.85" height="1.99" transform="translate(566.96 1062.91) rotate(168.28)"/><rect class="cls-3" x="228.01" y="561.94" width="2.85" height="1.99" transform="translate(568.42 1067.52) rotate(168.28)"/><rect class="cls-3" x="228.5" y="564.31" width="2.85" height="1.99" transform="translate(569.88 1072.12) rotate(168.28)"/><rect class="cls-3" x="229.26" y="567.1" width="2.85" height="3.74" transform="translate(572.13 1079.21) rotate(168.28)"/><polygon class="cls-3" points="224.11 537.28 225.11 537.08 225.3 539.87 224.67 540 224.04 540.13 223.11 537.49 224.11 537.28"/><rect class="cls-3" x="223.35" y="536.82" width="1.46" height="0.68" transform="translate(552.61 1017.61) rotate(168.28)"/><rect class="cls-4" x="225.99" y="548.19" width="1.42" height="3.22" transform="translate(560.37 1042.1) rotate(168.28)"/><rect class="cls-4" x="225.68" y="546.37" width="0.91" height="1.35" transform="translate(558.67 1036.75) rotate(168.28)"/><rect class="cls-4" x="225.32" y="544.65" width="0.91" height="1.35" transform="translate(557.62 1033.43) rotate(168.28)"/><rect class="cls-4" x="224.97" y="542.96" width="0.91" height="1.35" transform="translate(556.58 1030.14) rotate(168.28)"/><rect class="cls-4" x="227.21" y="554.05" width="1.42" height="3.22" transform="translate(563.96 1053.45) rotate(168.28)"/><rect class="cls-4" x="228.22" y="559.56" width="1.42" height="1.99" transform="translate(566.96 1062.91) rotate(168.28)"/><rect class="cls-4" x="228.72" y="561.94" width="1.42" height="1.99" transform="translate(568.42 1067.52) rotate(168.28)"/><rect class="cls-4" x="229.21" y="564.31" width="1.42" height="1.99" transform="translate(569.88 1072.12) rotate(168.28)"/><rect class="cls-4" x="229.97" y="567.1" width="1.42" height="3.74" transform="translate(572.13 1079.21) rotate(168.28)"/><polygon class="cls-4" points="224.11 537.28 224.61 537.18 224.99 539.94 224.67 540 224.36 540.07 223.61 537.38 224.11 537.28"/><rect class="cls-4" x="223.72" y="536.82" width="0.73" height="0.68" transform="translate(552.61 1017.61) rotate(168.28)"/></g><path class="cls-2" d="M188.48,0V489.44l101.4,22.15a8.79,8.79,0,0,0,10.35-6.4l19.65-73.25a4.43,4.43,0,0,1,5.1-3.26c1.72.32,1.61.73,4.73,1.25a3.7,3.7,0,0,0,4.17-2.66c6.13-22.23,8.17-33.76,11-46.6,2-9.2,11.93-.09,15.62-6a5.34,5.34,0,0,0,.68-1.88c2.82-15.16,13-71,15.78-103a3.44,3.44,0,0,0-2.81-3.78l-15.35-2a2.5,2.5,0,0,1,.13-5c3.17,0,9.08,1.44,10-5.58a24.24,24.24,0,0,0,0-2.53c1.45-54.76-2.75-105.54-22.79-139.16C309,49.54,248,31.57,225.5,17,201.72,1.5,199.23,0,188.48,0ZM347.54,149.42a2,2,0,0,1-.55.09,2.27,2.27,0,0,1-2.17-1.84,121.31,121.31,0,0,0-8.4-24.57c-1-2-2-4-3.09-6a2.67,2.67,0,0,1,.75-3.42,2.09,2.09,0,0,1,3,.84c1.09,2,2.16,4.09,3.18,6.16a126.55,126.55,0,0,1,8.8,25.67A2.54,2.54,0,0,1,347.54,149.42Zm-2.42,161.52c3.42-23.56,4.63-35.61,4.65-35.73a2.41,2.41,0,0,1,4.79.48c0,.12-1.23,12.26-4.67,35.94a2.41,2.41,0,0,1-2.38,2.06l-.35,0A2.4,2.4,0,0,1,345.12,310.94Zm12.48-117a2.43,2.43,0,0,1-2,2.73h-.15a2.32,2.32,0,0,1-2.28-2.24,333.86,333.86,0,0,0-4.58-33.31,2.5,2.5,0,0,1,1.7-3,2.23,2.23,0,0,1,2.64,1.91A339.45,339.45,0,0,1,357.61,194Zm-2.41,48.47c.14-7.14.13-14.35-.06-21.43-.1-4-.26-8-.46-11.91a2.59,2.59,0,0,1,1.47-2.59,2.26,2.26,0,0,1,3,2.2c.21,4,.37,8.09.47,12.16.19,7.29.2,14.7,0,22a2.37,2.37,0,0,1-2.15,2.43,1.48,1.48,0,0,1-.64-.11C355.94,244.9,355.39,244.16,355.2,242.43ZM359.09,315l-.35,0a2.4,2.4,0,0,1-2-2.73c3.42-23.56,4.63-35.61,4.65-35.73a2.41,2.41,0,0,1,4.79.48c0,.12-1.23,12.26-4.67,35.94A2.41,2.41,0,0,1,359.09,315Zm-11.62,48.55c4.25-21.8,6.77-36.19,6.79-36.33A2.41,2.41,0,1,1,359,328c0,.14-2.55,14.57-6.81,36.42a2.41,2.41,0,0,1-2.36,1.94,2.44,2.44,0,0,1-.46,0A2.41,2.41,0,0,1,347.47,363.52Zm-9.68.42a2.41,2.41,0,0,1-1.9-2.82c4.25-21.8,6.77-36.19,6.79-36.33a2.41,2.41,0,1,1,4.74.83c0,.14-2.55,14.57-6.81,36.42a2.41,2.41,0,0,1-2.36,1.94A2.44,2.44,0,0,1,337.79,363.94ZM324.17,418c7-30.3,7.6-35.12,7.63-35.34a2.41,2.41,0,0,1,4.78.5c0,.18-.52,4.67-7.72,35.92a2.41,2.41,0,0,1-2.34,1.87,2.45,2.45,0,0,1-.54-.06A2.41,2.41,0,0,1,324.17,418ZM305.26,76.79a2.05,2.05,0,0,1,3.14-.15,180.77,180.77,0,0,1,20.7,25.49,2.69,2.69,0,0,1-.43,3.48,2.06,2.06,0,0,1-1.26.49,2.15,2.15,0,0,1-1.85-1,175.94,175.94,0,0,0-20.15-24.8A2.71,2.71,0,0,1,305.26,76.79ZM268.08,49.19a2.08,2.08,0,0,1,3-1,216.12,216.12,0,0,1,26.05,18.46,2.7,2.7,0,0,1,.49,3.48,2.13,2.13,0,0,1-1.64,1,2.07,2.07,0,0,1-1.46-.49A211.58,211.58,0,0,0,269,52.56,2.67,2.67,0,0,1,268.08,49.19Z"/><path class="cls-2" d="M151.46,17C129,31.57,68,49.54,30.82,111.86,10.78,145.48,6.58,196.26,8,251a24.24,24.24,0,0,0,0,2.53c.92,7,6.83,5.58,10,5.58a2.5,2.5,0,0,1,.13,5l-15.35,2A3.44,3.44,0,0,0,0,269.84c2.82,32,13,87.81,15.78,103a5.34,5.34,0,0,0,.68,1.88c3.69,5.88,13.6-3.23,15.62,6,2.82,12.84,4.87,24.37,11,46.6a3.7,3.7,0,0,0,4.17,2.66c3.11-.52,3-.93,4.73-1.25a4.43,4.43,0,0,1,5.1,3.26l19.65,73.25a8.79,8.79,0,0,0,10.35,6.4l101.4-22.15V0C177.73,0,175.24,1.5,151.46,17ZM27.87,146.36a126.55,126.55,0,0,1,8.8-25.67c1-2.07,2.09-4.14,3.18-6.16a2.09,2.09,0,0,1,3-.84,2.67,2.67,0,0,1,.75,3.42c-1.06,2-2.1,4-3.09,6a121.31,121.31,0,0,0-8.4,24.57A2.27,2.27,0,0,1,30,149.51a2,2,0,0,1-.55-.09A2.54,2.54,0,0,1,27.87,146.36Zm1.94,167.31-.35,0a2.41,2.41,0,0,1-2.38-2.06c-3.44-23.68-4.66-35.82-4.67-35.94a2.41,2.41,0,0,1,4.79-.48c0,.12,1.23,12.17,4.65,35.73A2.4,2.4,0,0,1,29.81,313.67ZM24,160.09a2.23,2.23,0,0,1,2.64-1.91,2.5,2.5,0,0,1,1.7,3,333.86,333.86,0,0,0-4.58,33.31,2.32,2.32,0,0,1-2.28,2.24h-.15a2.43,2.43,0,0,1-2-2.73A339.45,339.45,0,0,1,24,160.09ZM20.12,245.2a1.48,1.48,0,0,1-.64.11,2.37,2.37,0,0,1-2.15-2.43c-.15-7.33-.14-14.74,0-22,.1-4.06.26-8.16.47-12.16a2.26,2.26,0,0,1,3-2.2,2.59,2.59,0,0,1,1.47,2.59c-.2,3.92-.36,7.93-.46,11.91-.18,7.09-.2,14.3-.06,21.43C21.57,244.16,21,244.9,20.12,245.2ZM15.5,312.92c-3.44-23.68-4.66-35.82-4.67-35.94a2.41,2.41,0,0,1,4.79-.48c0,.12,1.23,12.17,4.65,35.73a2.4,2.4,0,0,1-2,2.73l-.35,0A2.41,2.41,0,0,1,15.5,312.92Zm12.09,53.43a2.44,2.44,0,0,1-.46,0,2.41,2.41,0,0,1-2.36-1.94C20.51,342.6,18,328.17,18,328a2.41,2.41,0,1,1,4.74-.83c0,.14,2.54,14.53,6.79,36.33A2.41,2.41,0,0,1,27.59,366.35ZM38.71,364A2.41,2.41,0,0,1,36.35,362c-4.26-21.85-6.78-36.28-6.81-36.42a2.41,2.41,0,1,1,4.74-.83c0,.14,2.54,14.53,6.79,36.33a2.41,2.41,0,0,1-1.9,2.82A2.44,2.44,0,0,1,38.71,364ZM51,420.91a2.45,2.45,0,0,1-.54.06,2.41,2.41,0,0,1-2.34-1.87c-7.2-31.25-7.7-35.75-7.72-35.92a2.41,2.41,0,0,1,4.78-.5c0,.22.64,5,7.63,35.34A2.41,2.41,0,0,1,51,420.91ZM71.55,80.31a175.94,175.94,0,0,0-20.15,24.8,2.15,2.15,0,0,1-1.85,1,2.06,2.06,0,0,1-1.26-.49,2.69,2.69,0,0,1-.43-3.48,180.77,180.77,0,0,1,20.7-25.49,2.05,2.05,0,0,1,3.14.15A2.71,2.71,0,0,1,71.55,80.31ZM108,52.56A211.58,211.58,0,0,0,82.44,70.64a2.07,2.07,0,0,1-1.46.49,2.13,2.13,0,0,1-1.64-1,2.7,2.7,0,0,1,.49-3.48A216.12,216.12,0,0,1,105.87,48.2a2.08,2.08,0,0,1,3,1A2.67,2.67,0,0,1,108,52.56Z"/><path class="cls-18" d="M341.65,167.29C322.88,66.67,234.87,36,188.48,36S54.08,66.67,35.31,167.29c-6.3,33.79-5.48,69.06-1,108.44.55,2.6,2.84,4.48,4.53,5.44,3.83,49.48,12.67,100.48,23.36,148.3A36.41,36.41,0,0,0,66.5,431c.59,3.85,7.39,25.91,8.35,30.34,9.68,44.72,62,73.08,113.63,73.08s103.94-28.36,113.63-73.08c1-4.43,7.76-26.5,8.35-30.34a36.41,36.41,0,0,0,4.28-1.57c10.69-47.82,19.53-98.81,23.36-148.3,1.69-1,4-2.84,4.53-5.44C347.12,236.35,347.95,201.08,341.65,167.29Z"/><path class="cls-19" d="M341.65,167.29C322.88,66.67,234.87,36,188.48,36S54.08,66.67,35.31,167.29c-6.16,33-5.23,70-1,108.44a8.28,8.28,0,0,0,4.53,5.44c3.81,52.52,12.49,97.64,23.36,148.3,1.33.86,3.45,1.17,4.28,1.57.78,5,11.09,37.06,12.79,43.56,7.21,27.58,65.15,59.87,109.19,59.87s102-32.29,109.19-59.87c1.7-6.5,12-38.54,12.79-43.56.83-.39,2.94-.71,4.28-1.57,10.87-50.65,19.55-95.78,23.36-148.3a8.28,8.28,0,0,0,4.53-5.44C346.88,237.28,347.81,200.34,341.65,167.29Z"/><circle class="cls-8" cx="188.48" cy="18.99" r="16.63"/><circle class="cls-9" cx="188.48" cy="16.63" r="16.63"/><circle class="cls-10" cx="188.48" cy="16.63" r="16.63"/><circle class="cls-5" cx="188.48" cy="16.63" r="14.28"/><path class="cls-2" d="M188.48,3A14.27,14.27,0,0,1,202.74,17c0-.11,0-.22,0-.33a14.28,14.28,0,1,0-28.55,0c0,.11,0,.22,0,.33A14.27,14.27,0,0,1,188.48,3Z"/><circle class="cls-12" cx="188.48" cy="16.63" r="11.84"/><circle class="cls-3" cx="188.48" cy="16.63" r="11.84"/><path class="cls-13" d="M180.09,31a16.53,16.53,0,0,0,16.78,0V16.63H180.09Z"/><circle class="cls-9" cx="188.48" cy="16.63" r="8.39"/><path class="cls-13" d="M196.16,16.63H180.8V20a8.39,8.39,0,0,0,15.37,0Z"/><circle class="cls-10" cx="188.48" cy="16.63" r="7.68"/><path class="cls-2" d="M188.48,24c4.95,0,7.33-4.56,7.33-7.32,0,0-.07-.15-1.74-.17s-2.9-1.64-5.6-1.64h0c-2.69,0-4,1.63-5.6,1.64s-1.74.14-1.74.17A7.22,7.22,0,0,0,188.48,24Z"/><path class="cls-9" d="M182,19.43a7.28,7.28,0,0,0,13,0s-1.41,2.8-6.51,2.8C183.75,22.23,182,19.43,182,19.43Z"/><path class="cls-20" d="M188.23,13.76c2.43-.07,4.52.94,6.74,1.42a6.27,6.27,0,0,0-6.49-5.35c-3.47,0-6.3,2.43-6.5,5.49C184.07,15.76,185.94,13.83,188.23,13.76Z"/><ellipse class="cls-14" cx="188.48" cy="11.46" rx="1.79" ry="0.72"/><path class="cls-21" d="M188.48,454H162c14.42,6.92,20.3,7.42,26.46,7.42s12-.5,26.46-7.42Z"/><rect class="cls-6" x="162.02" y="434.93" width="52.91" height="11.63"/><path class="cls-22" d="M219.9,429.53s-3.75-16.89-31.69-16.89-31.69,16.89-31.69,16.89c-2.9,5,5.5,17,5.5,17V430h52.91v16.59S222.8,434.51,219.9,429.53Z"/><path class="cls-19" d="M62.23,429.46c34.05,12,82.19,17.49,99.8,17.09-23-24.1-64.64-72.44-80.75-135.93-1.18-4.64-2.28-7.56-11.58-12-15.55-7.37-22.1-11.91-30.83-17.48C44.64,330.7,53.92,380.31,62.23,429.46Z"/><path class="cls-19" d="M186.48,275.63a40.29,40.29,0,0,0-13.29-29.58,65,65,0,0,0-44.34-17A70.86,70.86,0,0,0,59.5,285.45c-.06.3-.13.69-.21,1.13a9.38,9.38,0,0,0,5.33,10.09C69.23,298.8,80.19,301,86.5,313.9c5.92,12.11,26.6,14.18,43.34,12.94,27.83-2.06,56.66-23.91,56.66-49.12Z"/><path class="cls-19" d="M71.52,269.8c14.05,19.45,46.62,25.25,68.19,19.35,11.67-3.19,23.27-9.94,28.27-21,6.7-14.75-17.73-39.13-39.13-39.13A70.77,70.77,0,0,0,68,263.72,36.09,36.09,0,0,0,71.52,269.8Z"/><path class="cls-19" d="M83,263.19c25.45,8,36.76,2.16,40.76,1.45,12.4-2.21,30.77-4.37,31.29-18.46.26-7-14.79-17.12-26.19-17.12a70.6,70.6,0,0,0-52.8,23.64C72.93,256.21,76.12,261,83,263.19Z"/><path class="cls-20" d="M173.19,246.06l-1.32-1.11c-.85-.74-2.15-1.75-3.84-3a64.95,64.95,0,0,0-15.23-8.17c-21.72-8.22-51.17-4.72-73.46,17.56a75.17,75.17,0,0,0-15.1,24.55,39.38,39.38,0,0,0-1.4,4.31,59.07,59.07,0,0,0-1.59,7.18c-.3,2-.61,3.6-.69,4.66l-.17,1.72s-3.3-5.7,1.29-21.57c2.57-7.55,5.23-14.63,19.4-26.44l1.38-1.1,2.79-2.21a13,13,0,0,1,1.46-1l1.5-1,3-2,3.2-1.72,1.61-.86a12.93,12.93,0,0,1,1.64-.79l3.36-1.43,1.68-.71c.57-.21,1.16-.38,1.73-.57l3.46-1.11a30,30,0,0,1,3.51-.89l3.51-.78c2.36-.4,4.74-.63,7.07-.95l6.88-.23a65.17,65.17,0,0,1,39.25,13.42c1.66,1.29,2.94,2.34,3.76,3.1Z"/><path class="cls-23" d="M172.76,245.19c.42-8.17-5-19.94-16.84-27-7.57-4.52-20.95-9.21-29.76-8.94C91.87,210.3,76.06,243,76.06,252.71c7.85-11.09,36.78-23.64,52.8-23.64C146.52,229.07,157.06,234.45,172.76,245.19Z"/><path class="cls-14" d="M150.09,224.63c-.31,1.83-4.89,1.35-10.48.39s-10.07-2-9.75-3.85,5.3-3.73,10.89-2.78S150.4,222.8,150.09,224.63Z"/><path class="cls-19" d="M190.48,275.63a40.29,40.29,0,0,1,13.29-29.58,65,65,0,0,1,44.34-17,70.86,70.86,0,0,1,69.36,56.38c.06.3.13.69.21,1.13a9.38,9.38,0,0,1-5.33,10.09c-4.61,2.12-15.57,4.31-21.88,17.22-5.92,12.11-26.6,14.18-43.34,12.94-27.83-2.06-56.66-23.91-56.66-49.12Z"/><path class="cls-19" d="M305.43,269.8c-14.05,19.45-46.62,25.25-68.19,19.35-11.67-3.19-23.27-9.94-28.27-21-6.7-14.75,17.73-39.13,39.13-39.13A70.77,70.77,0,0,1,309,263.72,36.09,36.09,0,0,1,305.43,269.8Z"/><path class="cls-19" d="M294,263.19c-25.45,8-36.76,2.16-40.76,1.45-12.4-2.21-30.77-4.37-31.29-18.46-.26-7,14.79-17.12,26.19-17.12a70.6,70.6,0,0,1,52.8,23.64C304,256.21,300.84,261,294,263.19Z"/><path class="cls-20" d="M203.77,246.06l1.32-1.11c.85-.74,2.15-1.75,3.84-3a64.37,64.37,0,0,1,39.14-12.22l6.8.42c2.25.38,4.53.66,6.81,1.11l3.4.86a28.74,28.74,0,0,1,3.39,1l3.34,1.18c.55.2,1.12.38,1.67.6l1.61.74,3.22,1.47a12.21,12.21,0,0,1,1.57.81l1.53.88,3.05,1.74,2.87,2,1.42,1a12.19,12.19,0,0,1,1.37,1l2.63,2.2,1.3,1.09c.43.36.8.79,1.21,1.18l2.36,2.36c.38.4.79.76,1.15,1.18l1,1.25,2.06,2.46a26.14,26.14,0,0,1,1.87,2.52l1.75,2.51a24.55,24.55,0,0,1,1.55,2.54l1.43,2.5c.23.41.48.81.69,1.22l.58,1.26,1.12,2.44c.35.8.77,1.56,1,2.36l.82,2.32a39.38,39.38,0,0,1,1.4,4.31,59.07,59.07,0,0,1,1.59,7.18c.3,2,.61,3.6.69,4.66l.17,1.72s3.3-5.7-1.29-21.57c-2.57-7.55-5.23-14.63-19.4-26.44l-1.38-1.1-2.79-2.21a13,13,0,0,0-1.46-1l-1.5-1-3-2-3.2-1.72-1.61-.86a12.93,12.93,0,0,0-1.64-.79l-3.36-1.43-1.68-.71c-.57-.21-1.16-.38-1.73-.57L269,231.25a30,30,0,0,0-3.51-.89l-3.51-.78c-2.36-.4-4.74-.63-7.07-.95l-6.88-.23a65.17,65.17,0,0,0-39.25,13.42c-1.66,1.29-2.94,2.34-3.76,3.1Z"/><path class="cls-23" d="M204.2,245.19c-.42-8.17,5-19.94,16.84-27,7.57-4.52,20.95-9.21,29.76-8.94,34.3,1.06,50.11,33.77,50.11,43.47-7.85-11.09-36.78-23.64-52.8-23.64C230.44,229.07,219.9,234.45,204.2,245.19Z"/><path class="cls-14" d="M226.87,224.63c.31,1.83,4.89,1.35,10.48.39s10.07-2,9.75-3.85-5.3-3.73-10.89-2.78S226.56,222.8,226.87,224.63Z"/><path class="cls-10" d="M330.46,146C314.06,97.33,263,49.07,200.22,43.62c-.74,5.62-6.13,10-12.68,10s-11.82-4.27-12.65-9.81C113,50,62.72,97.8,46.48,146c-19.27,57.15,65.76,76,142,76S349.73,203.12,330.46,146Z"/><path class="cls-4" d="M209.2,67.12C215,74.88,140,111,127.7,120.2s-62.42,72.91-68.38,42.7c-1.87-9.49,6.85-46.18,45.49-78.19C150.61,46.77,203.41,59.37,209.2,67.12Z"/><path class="cls-4" d="M234.57,99.56c-5.79,7.75,3.93,13.17,16.23,22.35s22.51,18.64,28.3,10.88.51-21.48-11.79-30.65S240.35,91.81,234.57,99.56Z"/><circle class="cls-24" cx="128.85" cy="299.92" r="42.35"/><circle class="cls-24" cx="248.11" cy="299.92" r="42.35"/><circle class="cls-25" cx="128.85" cy="299.92" r="38.9"/><circle class="cls-25" cx="248.11" cy="299.92" r="38.9"/><circle class="cls-26" cx="128.85" cy="299.92" r="35.27"/><circle class="cls-6" cx="128.85" cy="299.92" r="9.33"/><circle class="cls-6" cx="248.11" cy="299.92" r="9.33"/><line class="cls-26" x1="128.85" y1="264.65" x2="128.85" y2="335.19"/><line class="cls-26" x1="118.65" y1="266.15" x2="118.65" y2="333.69"/><line class="cls-26" x1="108.44" y1="271.15" x2="108.44" y2="328.68"/><line class="cls-26" x1="98.24" y1="282.39" x2="98.24" y2="317.44"/><line class="cls-26" x1="139.06" y1="266.15" x2="139.06" y2="333.69"/><line class="cls-26" x1="149.27" y1="271.15" x2="149.27" y2="328.68"/><line class="cls-26" x1="159.47" y1="282.39" x2="159.47" y2="317.44"/><circle class="cls-26" cx="248.11" cy="299.92" r="35.27"/><line class="cls-26" x1="248.11" y1="264.65" x2="248.11" y2="335.19"/><line class="cls-26" x1="237.9" y1="266.15" x2="237.9" y2="333.69"/><line class="cls-26" x1="227.69" y1="271.15" x2="227.69" y2="328.68"/><line class="cls-26" x1="217.49" y1="282.39" x2="217.49" y2="317.44"/><line class="cls-26" x1="258.31" y1="266.15" x2="258.31" y2="333.69"/><line class="cls-26" x1="268.52" y1="271.15" x2="268.52" y2="328.68"/><line class="cls-26" x1="278.72" y1="282.39" x2="278.72" y2="317.44"/><path class="cls-19" d="M219,394.79,188.48,376h0L158,394.79s-5,32.62,30.51,32.62S219,394.79,219,394.79Z"/><path class="cls-19" d="M213.11,399.46c.95-4.24,9.56-2.36,5.88-4.67L188.48,376h0L158,394.79c-3.68,2.31,4.93.43,5.88,4.67,1.5,6.71,6.87,15.33,24.63,15.33S211.61,406.16,213.11,399.46Z"/><path class="cls-27" d="M219,394.79,188.48,376h0L158,394.79c-3.68,2.31,22.05-7.26,30.51-7.26S222.67,397.1,219,394.79Z"/><g class="cls-28"><path class="cls-6" d="M158,395.85c1.13-1,2.3-1.9,3.47-2.81s2.37-1.78,3.55-2.67c2.38-1.75,4.81-3.42,7.26-5.07s4.93-3.23,7.42-4.78,5-3.06,7.56-4.54l1.25-.73,1.26.73c2.54,1.48,5.06,3,7.56,4.54s5,3.14,7.42,4.78,4.87,3.32,7.26,5.07c1.18.89,2.38,1.76,3.55,2.68s2.33,1.83,3.47,2.81c-1.41-.5-2.79-1.05-4.16-1.61s-2.72-1.17-4.08-1.75c-2.7-1.2-5.36-2.48-8-3.79s-5.24-2.68-7.83-4.08-5.15-2.85-7.69-4.32h2.51c-2.55,1.47-5.11,2.91-7.69,4.31s-5.19,2.76-7.83,4.08-5.3,2.59-8,3.79c-1.36.58-2.71,1.19-4.08,1.75S159.38,395.35,158,395.85Z"/></g><g class="cls-28"><path class="cls-14" d="M158,394.79q1.77-1.5,3.58-3l3.63-2.88,3.67-2.81c1.22-.94,2.47-1.84,3.71-2.77,2.46-1.86,5-3.62,7.49-5.43,1.25-.9,2.53-1.77,3.79-2.65l3.79-2.64.85-.59.85.59,3.79,2.64c1.26.88,2.53,1.75,3.79,2.65,2.5,1.81,5,3.57,7.49,5.43l3.71,2.77,3.67,2.82c2.43,1.91,4.86,3.82,7.21,5.83-2.73-1.47-5.38-3-8-4.62l-4-2.41-3.92-2.46c-2.62-1.63-5.18-3.35-7.77-5-1.29-.84-2.56-1.72-3.84-2.57l-3.83-2.58h1.69l-3.83,2.58c-1.28.86-2.55,1.73-3.84,2.57-2.59,1.67-5.15,3.39-7.77,5-1.31.82-2.6,1.66-3.92,2.46l-4,2.41-4,2.35Q160,393.68,158,394.79Z"/></g><line class="cls-29" x1="162.02" y1="432.68" x2="214.94" y2="432.68"/><path class="cls-2" d="M71.43,299.36c-12.49-5.46-26.27-12.89-32.56-18.19.16,1.33.92,8.08,1.09,9.42,12.24,7.85,31.14,13.8,38.34,16.36C77.62,305.71,77.07,301.79,71.43,299.36Z"/><path class="cls-30" d="M80.93,411.8c-17.28-18.83-29.74-37-39.67-123,6.32,5.74,31.41,12.66,37,18.17-26.42,15.45-7.21,7.35,9.67,51.19,9,23.49,19.69,75.8,34.85,83-9.13-1.61-42.66-6-60.51-18.19C76.33,424.68,106,439.14,80.93,411.8Z"/><path class="cls-31" d="M315.08,427.41c-24.27,9.36-60.65,14.57-82,16.51,0,0,53.46-66.49,63.8-130.17,1.22-7.53,4-12.39,7.92-13.83,11.05-4,25.34-12.38,33.3-18.75C334.11,333.69,324.18,385.25,315.08,427.41Z"/><path class="cls-7" d="M305.53,299.36c12.49-5.46,26.27-12.89,32.56-18.19-.16,1.33-.92,8.08-1.09,9.42-12.24,7.85-31.14,13.8-38.34,16.36C299.34,305.71,299.89,301.79,305.53,299.36Z"/><path class="cls-32" d="M298.66,414.78c0-39.82,27.11-40,37-126-4.17,3.79-15,8.09-23.44,12.16a22,22,0,0,0-12.07,15.79c-3.64,19.55-.3,49.2-9.73,64.77-17.58,29-16.41,45.45-29.74,55.64,9.13-1.61,29.86-.09,48.26-9.72C295,429.15,298.66,421.13,298.66,414.78Z"/><path class="cls-3" d="M126.16,372.47c30.62,5.74,47.73-13.11,60.33-32.71,0,0,2-40.54,2-59.6.08,18.52-6.74,22.69-21.28,41.94-3.37,4.46-14.13,14.26-17.93,16.72-37.42,24.24-47.26,7.59-48.67,14.76C98.24,365.57,118.35,371,126.16,372.47Z"/><path class="cls-3" d="M127.79,370.77c36.33,1,48.08-13,60.69-32.6v-58c.08,25.42-32.65,55-49.42,67.62C108.28,370.89,127.79,370.77,127.79,370.77Z"/><path class="cls-5" d="M171.21,325.49c-3.85,4.05-12.55,11.79-16.54,13.92a95.83,95.83,0,0,0-12.3,9.94c-8.23,8.23-4.72,12.16-.86,16.21,3.48,3.66,18.5-2.34,22.83-4.95a71.19,71.19,0,0,0,13.8-10.86c6.68-6.75,10.87-27.82,6-35.95C179.53,306.28,180,316.22,171.21,325.49Z"/><path class="cls-4" d="M181.85,341.15c-2.89,9.15-17.15,19.11-21,19.11s-16.71-5.31-3.82-13.09c15.08-9.1,19.21-15.17,22.66-21.68C181.51,322.11,184.6,332.44,181.85,341.15Z"/><path class="cls-3" d="M250.8,372.47c-30.62,5.74-47.73-13.11-60.33-32.71,0,0-2-40.54-2-59.6-.08,18.52,6.74,22.69,21.28,41.94,3.37,4.46,14.13,14.26,17.93,16.72,37.42,24.24,47.26,7.59,48.67,14.76C278.72,365.57,258.61,371,250.8,372.47Z"/><path class="cls-3" d="M249.17,370.77c-36.33,1-48.08-13-60.69-32.6v-58c-.08,25.42,32.65,55,49.42,67.62C268.68,370.89,249.17,370.77,249.17,370.77Z"/><path class="cls-5" d="M205.75,325.49c3.85,4.05,12.55,11.79,16.54,13.92a95.83,95.83,0,0,1,12.3,9.94c8.23,8.23,4.72,12.16.86,16.21-3.48,3.66-18.5-2.34-22.83-4.95a71.19,71.19,0,0,1-13.8-10.86c-6.68-6.75-10.87-27.82-6-35.95C197.43,306.28,196.95,316.22,205.75,325.49Z"/><path class="cls-4" d="M195.11,341.15c2.89,9.15,17.15,19.11,21,19.11s16.71-5.31,3.82-13.09c-15.08-9.1-19.21-15.17-22.66-21.68C195.45,322.11,192.36,332.44,195.11,341.15Z"/><path class="cls-30" d="M322,291.35s6.67-28.44,0-46.12-3.48-30.42,7.13-42.1,13.27-15.93,13.27-4.78,5.31,49.85-4.33,82.81C335,291.65,322,291.35,322,291.35Z"/><path class="cls-5" d="M208.39,516.77c-3,1.52-15.63,3.4-19.91,3.54-4.28-.14-20.39-.93-23.18-2.81-5.75-3.87-7.23-13.32-8.88-19.49-2-7.58-7.15-36-7.15-36s.49,5.24,1.51,13.08c.51,3.92,1.15,8.49,2,13.37s1.77,10.07,3,15.23c1.59,6.55,2.91,12.38,9,16.32,3.57,2.3,7.69,3.12,11.8,3.87a106.69,106.69,0,0,0,11.92.86,106.69,106.69,0,0,0,11.92-.86c4.11-.75,8.23-1.57,11.8-3.87,6.11-3.94,11.86-11.5,13.45-18C226.89,496.83,221.48,510.13,208.39,516.77Z"/><path class="cls-30" d="M249.73,443.9c-30.5,3.06-14.89,5.17-15.49,19.13-1,22.89-4.06,62.55-45.76,71.43,31.32-8,68.38-10.25,92.35-38.38,21-24.7,25.33-46,29.62-65C305.47,433.16,271.38,441.72,249.73,443.9Z"/><path class="cls-33" d="M129.58,443.9c30.5,3.06,14.89,5.17,15.49,19.13,1,22.89,4.06,62.55,45.76,71.43-31.32-8-72.61-11.77-96.59-39.91-21-24.7-20.91-43.68-25.2-62.71C74,434,107.92,441.72,129.58,443.9Z"/><path class="cls-30" d="M76.06,437.63s23.83,50.86,32.39,59.91C126,516.1,164.77,520,164.77,520s-17.61-22.41-27.42-46.71S101.48,443.11,76.06,437.63Z"/><path class="cls-30" d="M249.47,447.85a52.55,52.55,0,0,1-5.56,29.73c-7.92,15.66-13.5,22.3-6.86,22.56s24.95-8.5,35.3-17.39,24.86-25.36,25.86-34.9,2.27-12.94-4.63-10.72S249.47,447.85,249.47,447.85Z"/><path class="cls-7" d="M250.15,444.35s49.28-7.92,60.31-13.32c-.75,3.56-17,12.18-52.44,17.08C233.07,451.56,248.46,444.62,250.15,444.35Z"/><path class="cls-2" d="M126.61,444.35S78.15,434.79,66.5,431c.75,3.56,16.75,12.18,52.23,17.08C143.69,451.56,128.29,444.62,126.61,444.35Z"/><path class="cls-34" d="M159.47,493.4s-3.45,27.83,29,26.9c26.09-.75,37.1-18.31,39.81-34.24.47-2.75,1.7-12.11,0-14.33C208.32,445.3,184.56,508.08,159.47,493.4Z"/><path class="cls-5" d="M213,524.65s73.74,0,89.72-78.08C266.41,518.86,213,524.65,213,524.65Z"/><path class="cls-20" d="M69.81,434.93s7.47,47.52,38.73,67.51,53.26,22.21,53.26,22.21-43.23-16.18-53.34-27.11S69.81,434.93,69.81,434.93Z"/><path class="cls-1" d="M164.77,525.89s40.89,3.16,48.23-1.24C193.79,533.84,185.65,532.81,164.77,525.89Z"/><polygon class="cls-2" points="336.53 443.52 331.98 437.01 332.93 433.43 325.02 431.33 324.07 434.92 321.64 434.27 320.31 439.22 317.84 438.56 297.82 514.14 300.28 514.8 298.99 519.75 301.42 520.4 300.47 523.98 308.38 526.07 309.33 522.49 316.51 519.1 336.53 443.52"/><rect class="cls-2" x="307.79" y="437.59" width="2.55" height="78.19" transform="matrix(-0.97, -0.26, 0.26, -0.97, 485.73, 1016.62)"/><rect class="cls-2" x="310.27" y="433.12" width="2.51" height="88.43" transform="translate(490.41 1018.53) rotate(-165.16)"/><polygon class="cls-2" points="336.53 443.52 316.51 519.1 309.33 522.49 320.65 479.75 331.98 437.01 336.53 443.52"/><rect class="cls-2" x="312.61" y="430.78" width="8.18" height="95.84" transform="translate(500.23 1022.55) rotate(-165.16)"/><rect class="cls-3" x="300.61" y="450.12" width="45.16" height="8.18" transform="translate(-198.64 650.29) rotate(-75.16)"/><polygon class="cls-3" points="322.31 475.96 327.57 477.35 336.53 443.52 332.45 437.69 322.31 475.96"/><rect class="cls-3" x="316.36" y="434.7" width="1.89" height="39.25" transform="matrix(-0.97, -0.26, 0.26, -0.97, 507.66, 974.77)"/><rect class="cls-3" x="313.36" y="439.08" width="1.89" height="33.04" transform="matrix(-0.97, -0.26, 0.26, -0.97, 501.45, 976.5)"/><rect class="cls-3" x="308.61" y="449.2" width="29.64" height="8.18" transform="matrix(0.26, -0.97, 0.97, 0.26, -197.57, 649.84)"/><polygon class="cls-3" points="324.2 468.82 329.46 470.22 335.52 447.33 331.06 442.94 324.2 468.82"/><rect class="cls-3" x="316.87" y="438.17" width="1.89" height="28.47" transform="matrix(-0.97, -0.26, 0.26, -0.97, 509.16, 971.11)"/><rect class="cls-3" x="313.89" y="441.27" width="1.89" height="24.65" transform="translate(503.01 972.69) rotate(-165.16)"/><rect class="cls-4" x="311.93" y="454.02" width="20.72" height="7.15" transform="translate(-202.59 651.94) rotate(-75.16)"/><polygon class="cls-4" points="324.94 469.02 329.46 470.22 334.08 452.78 330.05 449.96 324.94 469.02"/><rect class="cls-4" x="316.33" y="446.54" width="1.34" height="20.03" transform="translate(506.5 979.07) rotate(-165.16)"/><rect class="cls-4" x="313.67" y="446.71" width="1.41" height="19.18" transform="matrix(-0.97, -0.26, 0.26, -0.97, 501.4, 977.9)"/><rect class="cls-3" x="300.63" y="522.77" width="8.18" height="2.29" transform="translate(465.09 1108.4) rotate(-165.16)"/><polygon class="cls-3" points="310.08 522.14 316.51 519.1 317.06 517.03 311.25 517.7 310.08 522.14"/><rect class="cls-3" x="299.18" y="518.25" width="1.89" height="1.77" transform="translate(457.3 1097.83) rotate(-165.16)"/><rect class="cls-3" x="297.91" y="513.45" width="1.89" height="0.96" transform="translate(456.12 1087.25) rotate(-165.16)"/><polygon class="cls-7" points="324.45 489.11 317.06 517.03 311.25 517.7 319.2 487.72 324.45 489.11"/><rect class="cls-7" x="291.04" y="500.57" width="37.55" height="8.18" transform="translate(-257.36 674.9) rotate(-75.16)"/><polygon class="cls-7" points="301.27 518.52 299.44 518.04 308.23 484.81 310.08 485.3 301.27 518.52"/><rect class="cls-7" x="287.8" y="497.99" width="30.06" height="1.89" transform="translate(-257.02 663.88) rotate(-75.16)"/><polygon class="cls-35" points="332.45 437.69 331.98 437.01 309.33 522.49 310.08 522.14 332.45 437.69"/><rect class="cls-35" x="268.23" y="477.27" width="88.43" height="0.62" transform="translate(-229.23 657.29) rotate(-75.16)"/><rect class="cls-35" x="270.88" y="476.6" width="78.19" height="0.66" transform="translate(-230.43 654.42) rotate(-75.16)"/><polygon class="cls-2" points="40.38 443.52 44.94 437.01 43.99 433.43 51.9 431.33 52.85 434.92 55.28 434.27 56.61 439.22 59.08 438.56 79.1 514.14 76.64 514.8 77.93 519.75 75.5 520.4 76.45 523.98 68.54 526.07 67.59 522.49 60.41 519.1 40.38 443.52"/><rect class="cls-2" x="66.58" y="437.59" width="2.55" height="78.19" transform="translate(-119.82 33.28) rotate(-14.84)"/><rect class="cls-2" x="64.13" y="433.12" width="2.51" height="88.43" transform="translate(-120.07 32.67) rotate(-14.84)"/><polygon class="cls-2" points="40.38 443.52 60.41 519.1 67.59 522.49 56.27 479.75 44.94 437.01 40.38 443.52"/><rect class="cls-2" x="56.13" y="430.78" width="8.18" height="95.84" transform="translate(-120.59 31.39) rotate(-14.84)"/><rect class="cls-3" x="49.64" y="431.63" width="8.18" height="45.16" transform="translate(-114.54 28.91) rotate(-14.84)"/><polygon class="cls-3" points="54.61 475.96 49.35 477.35 40.38 443.52 44.47 437.69 54.61 475.96"/><rect class="cls-3" x="58.67" y="434.7" width="1.89" height="39.25" transform="matrix(0.97, -0.26, 0.26, 0.97, -114.37, 30.42)"/><rect class="cls-3" x="61.66" y="439.08" width="1.89" height="33.04" transform="matrix(0.97, -0.26, 0.26, 0.97, -114.6, 31.23)"/><rect class="cls-3" x="49.4" y="438.47" width="8.18" height="29.64" transform="translate(-114.31 28.82) rotate(-14.84)"/><polygon class="cls-3" points="52.72 468.82 47.46 470.22 41.4 447.33 45.86 442.94 52.72 468.82"/><rect class="cls-3" x="58.16" y="438.17" width="1.89" height="28.47" transform="matrix(0.97, -0.26, 0.26, 0.97, -113.89, 30.23)"/><rect class="cls-3" x="61.13" y="441.27" width="1.89" height="24.65" transform="matrix(0.97, -0.26, 0.26, 0.97, -114.1, 31.03)"/><rect class="cls-4" x="51.05" y="447.24" width="7.15" height="20.72" transform="translate(-115.38 29.25) rotate(-14.84)"/><polygon class="cls-4" points="51.98 469.02 47.46 470.22 42.84 452.78 46.87 449.96 51.98 469.02"/><rect class="cls-4" x="59.25" y="446.54" width="1.34" height="20.03" transform="translate(-114.93 30.57) rotate(-14.84)"/><rect class="cls-4" x="61.84" y="446.71" width="1.41" height="19.18" transform="translate(-114.78 31.24) rotate(-14.84)"/><rect class="cls-3" x="68.11" y="522.77" width="8.18" height="2.29" transform="matrix(0.97, -0.26, 0.26, 0.97, -131.77, 35.97)"/><polygon class="cls-3" points="66.84 522.14 60.41 519.1 59.86 517.03 65.67 517.7 66.84 522.14"/><rect class="cls-3" x="75.84" y="518.25" width="1.89" height="1.77" transform="matrix(0.97, -0.26, 0.26, 0.97, -130.4, 36.98)"/><rect class="cls-3" x="77.12" y="513.45" width="1.89" height="0.96" transform="translate(-129.02 37.13) rotate(-14.84)"/><polygon class="cls-7" points="52.47 489.11 59.86 517.03 65.67 517.7 57.72 487.72 52.47 489.11"/><rect class="cls-7" x="63.01" y="485.88" width="8.18" height="37.55" transform="translate(-127.01 34.02) rotate(-14.84)"/><polygon class="cls-7" points="75.64 518.52 77.47 518.04 68.69 484.81 66.84 485.3 75.64 518.52"/><rect class="cls-7" x="73.14" y="483.9" width="1.89" height="30.06" transform="translate(-125.31 35.62) rotate(-14.84)"/><polygon class="cls-35" points="44.47 437.69 44.94 437.01 67.59 522.49 66.84 522.14 44.47 437.69"/><rect class="cls-35" x="64.17" y="433.36" width="0.62" height="88.43" transform="translate(-120.16 32.44) rotate(-14.84)"/><rect class="cls-35" x="66.61" y="437.83" width="0.66" height="78.19" transform="translate(-119.91 33.05) rotate(-14.84)"/></g></g></g></svg>